<svg width="147" height="173" viewBox="0 0 147 173" fill="none" xmlns="http://www.w3.org/2000/svg">
<g clip-path="url(#clip0_234_204)">
<path d="M137.583 5.04976C137.881 5.70751 137.339 4.45162 137.583 5.09775L137.736 5.48058C137.864 5.80361 137.98 6.12671 138.097 6.44982C138.323 7.10207 138.52 7.76053 138.711 8.42504C138.902 9.08954 139.032 9.76647 139.151 10.4375C139.241 10.6996 139.286 10.9752 139.283 11.2524L139.232 10.8688L139.283 11.2764L139.347 11.8758C139.475 13.2494 139.507 14.6302 139.443 16.0082C139.411 16.6083 139.349 17.2446 139.294 17.8628C139.221 18.5892 139.397 17.1663 139.294 17.8628L139.236 18.2712C139.179 18.6495 139.11 19.0219 139.04 19.3943C138.787 20.7301 138.443 22.0472 138.012 23.3367C137.9 23.6674 137.789 23.9921 137.665 24.3109L137.476 24.7982C137.4 24.9907 137.163 25.4002 137.476 24.7502C137.15 25.3523 136.921 26.0138 136.607 26.6279C135.987 27.8589 135.277 29.0428 134.484 30.1701C134.365 30.3449 133.766 31.279 134.217 30.5559C134.035 30.8107 133.836 31.0527 133.622 31.28C133.164 31.8411 132.681 32.3784 132.175 32.8979C131.669 33.4173 131.299 33.7679 130.84 34.179C130.583 34.4088 130.321 34.6386 130.053 34.8565C130.017 34.8567 129.456 35.3106 129.868 35.0077C130.279 34.7049 129.581 35.2197 129.509 35.2742C128.401 36.0822 127.23 36.8006 126.008 37.4225C125.727 37.5624 125.44 37.7024 125.153 37.8364C125.111 37.8367 124.483 38.1591 124.932 37.94C125.38 37.7209 124.752 38.0132 124.71 38.0315C124.058 38.2941 123.394 38.5327 122.729 38.7474C121.401 39.1737 120.043 39.5021 118.667 39.7299C118.607 39.7303 117.918 39.8312 118.44 39.7675C118.961 39.7038 118.266 39.7687 118.206 39.7692C117.894 39.8074 117.606 39.8394 117.258 39.8658C116.521 39.931 115.783 39.9663 115.039 39.9775C114.403 39.982 113.767 39.9865 113.13 39.937C112.782 39.9395 112.428 39.9 112.073 39.8665C111.901 39.8677 111.727 39.851 111.551 39.8162C111.299 39.818 110.603 39.8649 111.401 39.8173C110.764 39.791 110.132 39.6866 109.521 39.5066C108.793 39.3618 108.072 39.187 107.357 38.9881C106.641 38.7892 106.058 38.6193 105.456 38.3956C105.125 38.278 104.794 38.1544 104.469 38.0247C104.307 37.9659 103.946 37.8844 104.602 38.0837C104.395 38.0138 104.194 37.929 104 37.8301C102.717 37.2574 101.48 36.5863 100.301 35.8227C100.006 35.6328 99.6985 35.437 99.427 35.229L99.0832 34.9795C98.4802 34.5638 99.5901 35.3898 99.0229 34.9379C98.4556 34.486 97.9304 34.0458 97.4109 33.5636C96.8915 33.0814 96.4744 32.6584 96.0389 32.1696C95.8333 31.9431 95.6336 31.7106 95.4339 31.4721C95.4336 31.4301 94.9976 30.8753 95.2826 31.2872L95.028 30.929C94.2355 29.8352 93.5405 28.6739 92.9512 27.4585C92.797 27.1872 92.6665 26.9031 92.5611 26.6094C92.7705 27.3698 92.616 26.735 92.5607 26.5555L92.408 26.1726C92.1512 25.4966 91.9303 24.8023 91.7393 24.1078C91.5484 23.4133 91.4183 22.8444 91.2998 22.2093L91.2309 21.8019C91.0999 21.095 91.302 22.5093 91.2309 21.8019L91.1338 20.7948C91.0811 20.1285 91.0643 19.4598 91.0836 18.7916L91.1313 17.8975L91.1759 17.4113C91.231 16.715 91.0548 18.114 91.1759 17.4113C91.2969 16.7086 91.3954 16.21 91.5532 15.609C91.6292 15.3265 91.7172 15.044 91.8053 14.7674L91.9994 14.2202L92.0702 14.0397C92.1881 13.7389 92.1645 13.7991 91.9934 14.2202C91.9934 14.2202 92.7332 12.7633 92.7925 12.6609C92.9586 12.3838 93.1367 12.1066 93.3208 11.8353C93.3564 11.7871 93.7366 11.2325 93.4396 11.6665C93.1426 12.1005 93.6478 11.4131 93.7074 11.3467C94.1091 10.88 94.541 10.4401 95.0002 10.0299L95.3939 9.69114C95.7218 9.39489 94.7968 10.1213 95.3581 9.72139C95.6685 9.49724 95.9551 9.28526 96.2957 9.0849C96.8214 8.75125 97.492 8.54255 98.0055 8.167C97.6115 8.46972 97.6045 8.32581 97.8559 8.22805L98.4544 8.00786C98.7716 7.89165 99.1009 7.78734 99.4303 7.69503C100.093 7.5069 100.765 7.35397 101.443 7.23689C101.803 7.16837 101.526 7.09234 101.263 7.23817C101.431 7.18947 101.605 7.16799 101.779 7.17453C102.179 7.13571 102.563 7.10901 102.931 7.09441C103.633 7.06746 104.336 7.0765 105.037 7.1215C105.319 7.11951 105.601 7.1715 105.884 7.1995C106.616 7.2603 105.199 7.07837 105.926 7.1992C106.136 7.2337 106.346 7.26221 106.526 7.29693C107.925 7.56498 109.298 7.95677 110.627 8.46766C110.808 8.53237 111.126 8.57211 110.501 8.40857C110.669 8.46791 110.832 8.54099 110.988 8.62707C111.277 8.757 111.59 8.89276 111.85 9.04089C112.513 9.38 113.157 9.75596 113.778 10.167C114.079 10.3648 114.375 10.5627 114.664 10.7606C114.755 10.832 115.382 11.3194 114.809 10.8676L115.183 11.1588C115.787 11.6525 116.39 12.1761 116.952 12.724C117.514 13.2719 118.053 13.88 118.579 14.4761C118.839 14.7682 119.093 15.0723 119.347 15.3705L119.644 15.7403C120.146 16.3366 119.28 15.245 119.759 15.8834C120.709 17.1563 121.59 18.4798 122.397 19.8479C123.211 21.2338 123.947 22.6623 124.624 24.1212C124.776 24.4441 124.929 24.7729 125.075 25.1078L125.319 25.658C125.069 25.0599 125.24 25.4846 125.318 25.61C125.648 26.4235 125.984 27.2369 126.296 28.0625C128.4 33.6445 129.928 39.4264 130.859 45.3184L131.029 46.439C131.06 46.6487 130.99 46.9192 131.028 46.313C131.037 46.4643 131.058 46.6145 131.091 46.7625C131.199 47.5835 131.3 48.4046 131.384 49.2319C131.539 50.6884 131.663 52.1572 131.745 53.6263C131.923 56.6244 131.95 59.5816 131.845 62.5577C131.789 64.0637 131.704 65.558 131.577 67.0766C131.518 67.7888 131.451 68.5031 131.376 69.2195L131.263 70.2341L131.195 70.7924C131.098 71.6029 131.258 70.3781 131.166 71.0086C130.767 73.9268 130.259 76.8277 129.608 79.6997C128.956 82.5717 128.137 85.5648 127.203 88.4328C126.733 89.8718 126.229 91.295 125.691 92.7025C125.451 93.3401 125.204 93.9717 124.948 94.5974L124.901 94.7177L124.73 95.1388L124.193 96.3843C121.81 101.845 118.9 107.061 115.506 111.958C115.102 112.561 114.686 113.134 114.264 113.713L113.67 114.527L113.491 114.762L113.176 115.178C112.272 116.336 111.344 117.477 110.38 118.593C108.439 120.845 106.383 122.996 104.221 125.037C103.132 126.065 102.015 127.072 100.87 128.06C100.327 128.52 99.7839 128.974 99.229 129.422L98.4411 130.027C97.8444 130.505 98.9425 129.64 98.3337 130.106L97.8025 130.517C95.4469 132.31 93.0104 133.985 90.493 135.542C87.9757 137.1 85.3855 138.534 82.7224 139.844C81.3769 140.507 80.0192 141.135 78.6432 141.738C78.1468 141.964 78.6433 141.738 78.739 141.702C78.5356 141.793 78.3262 141.879 78.1408 141.964C77.9554 142.049 77.5903 142.196 77.3091 142.306C76.5492 142.623 75.7772 142.917 75.0112 143.216C69.4656 145.324 63.738 146.919 57.9006 147.98C57.1994 148.111 56.4921 148.23 55.7909 148.343L54.7898 148.494C54.7478 148.494 54.0105 148.607 54.5201 148.538C55.0296 148.468 54.1124 148.588 54.0284 148.601C52.5776 148.791 51.1225 148.95 49.6632 149.076C46.7126 149.333 43.755 149.45 40.7905 149.427C37.7899 149.406 34.7884 149.241 31.8217 148.926C31.4854 148.892 31.1551 148.853 30.8188 148.813L30.2602 148.745C29.7077 148.677 30.3022 148.745 30.3922 148.744C29.5757 148.678 28.7525 148.522 27.9474 148.39C26.5056 148.166 25.0636 147.9 23.6392 147.598C20.8107 147.006 18.0171 146.274 15.2586 145.402C14.878 145.3 14.4811 145.274 14.0904 145.325C13.6997 145.376 13.323 145.504 12.9817 145.701C12.6404 145.898 12.3412 146.16 12.1012 146.472C11.8612 146.785 11.6852 147.141 11.5831 147.522C11.3962 148.29 11.513 149.101 11.9091 149.785C12.3051 150.469 12.9499 150.975 13.7093 151.196C25.7405 154.939 38.4044 156.215 50.9409 154.946C63.6717 153.694 76.0491 150.038 87.4156 144.172C98.6278 138.408 108.525 130.387 116.485 120.614C124.524 110.593 130.487 99.0717 134.026 86.7229C137.533 74.5409 138.657 61.7972 137.337 49.1898C136.682 42.7686 135.36 36.4331 133.393 30.2858C131.356 23.9836 128.713 17.6917 124.625 12.4298C120.537 7.16786 114.95 2.79234 108.196 1.55039C101.803 0.395859 94.8389 1.64484 90.1258 6.39313C80.9262 15.6662 85.372 31.6752 94.6716 39.0838C104.563 46.9681 119.052 48.2993 130.139 42.0303C140.766 36.0224 146.753 23.0409 145.264 11.0301C144.882 7.90585 144.033 4.85657 142.746 1.98392C142.1 0.548808 139.876 0.120628 138.634 0.939235C137.141 1.90958 136.894 3.51297 137.583 5.04976Z" fill="#130E54"/>
<path d="M32.8501 133.976C23.0958 136.097 13.3374 138.213 3.57504 140.326C1.44204 140.791 0.60002 143.916 2.29039 145.35L26.0595 165.697L32.773 171.438C33.9803 172.456 35.8781 172.67 37.0153 171.408C38.0454 170.273 38.2592 168.256 36.9853 167.168C29.0643 160.381 21.1393 153.599 13.2103 146.82L6.50275 141.079L5.2121 146.103C14.9704 143.982 24.7288 141.866 34.4872 139.753C35.2494 139.533 35.8931 139.019 36.2773 138.325C36.6615 137.631 36.755 136.812 36.5373 136.05C36.3054 135.294 35.7908 134.656 35.1006 134.27C34.4105 133.884 33.5979 133.779 32.8321 133.976L32.8501 133.976Z" fill="#130E54"/>
</g>
<defs>
<clipPath id="clip0_234_204">
<rect width="171" height="145" fill="white" transform="translate(145.394 0.489502) rotate(89.5948)"/>
</clipPath>
</defs>
</svg>
