<svg width="174" height="148" viewBox="0 0 174 148" fill="none" xmlns="http://www.w3.org/2000/svg">
<g clip-path="url(#clip0_234_455)">
<path d="M168.627 137.404C167.97 137.706 169.224 137.157 168.579 137.404L168.197 137.559C167.874 137.689 167.552 137.807 167.229 137.924C166.578 138.154 165.92 138.354 165.257 138.547C164.593 138.741 163.917 138.875 163.246 138.997C162.985 139.088 162.709 139.134 162.432 139.133L162.815 139.08L162.408 139.133L161.809 139.2C160.436 139.334 159.055 139.372 157.677 139.314C157.077 139.285 156.44 139.227 155.822 139.174C155.095 139.104 156.519 139.274 155.822 139.174L155.413 139.119C155.035 139.063 154.662 138.995 154.289 138.928C152.952 138.68 151.633 138.343 150.342 137.918C150.011 137.807 149.686 137.697 149.366 137.575L148.878 137.389C148.685 137.313 148.275 137.077 148.926 137.388C148.322 137.065 147.66 136.839 147.044 136.528C145.81 135.913 144.623 135.209 143.492 134.421C143.317 134.303 142.38 133.708 143.105 134.155C142.85 133.975 142.607 133.777 142.379 133.564C141.815 133.108 141.276 132.628 140.754 132.124C140.232 131.62 139.88 131.252 139.467 130.795C139.236 130.54 139.005 130.279 138.786 130.011C138.785 129.975 138.329 129.416 138.634 129.827C138.938 130.237 138.42 129.541 138.365 129.47C137.552 128.365 136.829 127.198 136.201 125.978C136.06 125.698 135.918 125.412 135.783 125.125C135.783 125.083 135.457 124.457 135.679 124.904C135.9 125.352 135.604 124.725 135.586 124.683C135.32 124.032 135.079 123.369 134.861 122.706C134.429 121.38 134.094 120.024 133.86 118.649C133.859 118.589 133.755 117.9 133.821 118.421C133.887 118.942 133.819 118.247 133.818 118.187C133.779 117.875 133.745 117.588 133.717 117.24C133.649 116.503 133.61 115.765 133.595 115.021C133.588 114.385 133.581 113.749 133.627 113.112C133.623 112.764 133.661 112.41 133.693 112.055C133.691 111.883 133.707 111.709 133.741 111.533C133.738 111.281 133.688 110.585 133.739 111.383C133.762 110.745 133.864 110.113 134.041 109.501C134.182 108.773 134.354 108.051 134.55 107.334C134.745 106.618 134.912 106.034 135.133 105.431C135.249 105.1 135.371 104.768 135.5 104.443C135.558 104.28 135.637 103.919 135.441 104.576C135.51 104.369 135.594 104.167 135.692 103.973C136.259 102.687 136.924 101.447 137.682 100.265C137.871 99.9683 138.065 99.66 138.272 99.3876L138.52 99.0426C138.933 98.4377 138.112 99.5515 138.561 98.9821C139.011 98.4128 139.448 97.8856 139.928 97.3639C140.408 96.8422 140.829 96.4232 141.316 95.9854C141.541 95.7787 141.773 95.578 142.011 95.3772C142.053 95.3767 142.605 94.9382 142.195 95.225L142.552 94.9688C143.642 94.1713 144.8 93.471 146.013 92.876C146.283 92.7206 146.567 92.5888 146.86 92.4821C146.1 92.695 146.735 92.5375 146.914 92.4814L147.296 92.3269C147.971 92.067 148.664 91.8429 149.358 91.6487C150.051 91.4546 150.62 91.3219 151.254 91.2005L151.661 91.1297C152.368 90.9955 150.954 91.204 151.661 91.1297L152.668 91.028C153.334 90.9722 154.003 90.9523 154.671 90.9686L155.565 91.0121L156.052 91.0545C156.748 91.1063 155.348 90.9367 156.052 91.0545C156.755 91.1723 157.254 91.2685 157.856 91.4235C158.138 91.4982 158.421 91.5849 158.698 91.6717L159.246 91.8633L159.427 91.9332C159.729 92.0497 159.668 92.0264 159.246 91.8573C159.246 91.8573 160.707 92.5904 160.809 92.6492C161.087 92.814 161.365 92.9908 161.637 93.1736C161.686 93.2091 162.242 93.5866 161.807 93.2917C161.371 92.9967 162.061 93.4987 162.128 93.558C162.596 93.9575 163.038 94.3874 163.451 94.8448L163.791 95.2368C164.089 95.5634 163.358 94.6418 163.761 95.2012C163.986 95.5106 164.2 95.7962 164.401 96.1359C164.738 96.6601 164.949 97.3297 165.327 97.8414C165.023 97.4489 165.167 97.4412 165.265 97.6921L165.488 98.2896C165.606 98.6063 165.712 98.9351 165.806 99.264C165.997 99.9256 166.153 100.597 166.273 101.275C166.343 101.634 166.418 101.357 166.271 101.095C166.32 101.262 166.343 101.436 166.337 101.61C166.378 102.01 166.406 102.394 166.422 102.761C166.453 103.463 166.447 104.167 166.405 104.868C166.408 105.15 166.358 105.433 166.331 105.715C166.274 106.448 166.449 105.03 166.331 105.757C166.298 105.967 166.27 106.178 166.237 106.358C165.975 107.758 165.589 109.133 165.085 110.464C165.021 110.645 164.983 110.964 165.143 110.338C165.085 110.506 165.012 110.67 164.927 110.826C164.798 111.116 164.664 111.43 164.517 111.689C164.181 112.354 163.808 113 163.4 113.623C163.203 113.925 163.007 114.221 162.81 114.512C162.739 114.603 162.255 115.232 162.704 114.657L162.415 115.032C161.924 115.638 161.403 116.244 160.858 116.809C160.312 117.373 159.707 117.915 159.113 118.444C158.822 118.705 158.519 118.961 158.222 119.216L157.854 119.515C157.26 120.02 158.347 119.149 157.711 119.63C156.443 120.586 155.123 121.473 153.759 122.287C152.377 123.107 150.952 123.85 149.496 124.533C149.174 124.687 148.845 124.841 148.511 124.989L147.962 125.235C148.559 124.982 148.135 125.155 148.01 125.234C147.198 125.568 146.386 125.908 145.562 126.223C139.99 128.353 134.215 129.908 128.327 130.865L127.208 131.04C126.998 131.073 126.727 131.004 127.334 131.039C127.183 131.049 127.032 131.071 126.885 131.104C126.064 131.216 125.243 131.321 124.417 131.409C122.961 131.57 121.492 131.701 120.024 131.79C117.027 131.981 114.07 132.022 111.093 131.931C109.587 131.882 108.092 131.804 106.573 131.683C105.86 131.628 105.146 131.564 104.429 131.492L103.414 131.384L102.855 131.319C102.044 131.226 103.27 131.38 102.639 131.291C99.719 130.905 96.8158 130.411 93.9408 129.773C91.0659 129.134 88.069 128.329 85.1968 127.408C83.7556 126.945 82.3301 126.448 80.9201 125.916C80.2814 125.679 79.6487 125.435 79.0219 125.182L78.9013 125.135L78.4794 124.966L77.2314 124.435C71.7596 122.077 66.5303 119.191 61.6176 115.82C61.013 115.419 60.4383 115.005 59.8575 114.586L59.0407 113.995L58.8047 113.818L58.3871 113.505C57.2248 112.606 56.0803 111.683 54.9593 110.724C52.6982 108.794 50.5379 106.748 48.4868 104.595C47.4543 103.511 46.4415 102.398 45.4484 101.258C44.9861 100.717 44.5299 100.176 44.0795 99.6234L43.4705 98.8384C42.9896 98.2439 43.8602 99.3379 43.3912 98.7313L42.9771 98.2021C41.174 95.8547 39.4879 93.4259 37.9189 90.9158C36.3499 88.4057 34.9039 85.8221 33.5811 83.1651C32.9116 81.8227 32.2779 80.4678 31.6679 79.0947C31.4402 78.5993 31.6679 79.0947 31.705 79.1903C31.6127 78.9873 31.5263 78.7783 31.4401 78.5933C31.354 78.4082 31.2057 78.0439 31.0945 77.7632C30.7737 77.0048 30.4767 76.2341 30.1738 75.4695C28.0401 69.9336 26.4191 64.2134 25.3311 58.381C25.197 57.6804 25.0747 56.9737 24.9586 56.273L24.8029 55.2726C24.8024 55.2306 24.6858 54.4938 24.7578 55.0031C24.8297 55.5123 24.705 54.5956 24.692 54.5118C24.4951 53.0618 24.3302 51.6075 24.1971 50.1488C23.9267 47.1994 23.7962 44.2424 23.8056 41.2777C23.8126 38.2771 23.9635 35.2748 24.2647 32.3068C24.2968 31.9703 24.3349 31.6398 24.373 31.3033L24.4385 30.7445C24.504 30.1916 24.439 30.7865 24.44 30.8765C24.5024 30.0596 24.6548 29.2357 24.7834 28.43C25.0005 26.9872 25.2596 25.544 25.5549 24.1183C26.1337 21.287 26.8529 18.4901 27.7125 15.7276C27.8128 15.3465 27.8371 14.9495 27.7841 14.5591C27.731 14.1686 27.6016 13.7925 27.4032 13.4521C27.2048 13.1117 26.9413 12.8137 26.6278 12.5752C26.3143 12.3366 25.9569 12.1622 25.576 12.0619C24.8069 11.8786 23.9967 11.9991 23.3142 12.3983C22.6317 12.7975 22.1293 13.4446 21.9117 14.205C18.2235 26.2534 17.0063 38.9229 18.3334 51.4535C19.6432 64.1783 23.3561 76.5388 29.275 87.8782C35.09 99.0637 43.1566 108.924 52.967 116.839C63.0249 124.832 74.5731 130.742 86.9381 134.223C99.1361 137.674 111.885 138.74 124.486 137.361C130.904 136.677 137.233 135.326 143.372 133.33C149.664 131.264 155.944 128.592 161.187 124.48C166.43 120.369 170.78 114.761 171.991 108.001C173.116 101.603 171.835 94.6448 167.065 89.9537C157.749 80.7968 141.761 85.3163 134.395 94.65C126.557 104.577 125.292 119.073 131.612 130.131C137.669 140.73 150.678 146.657 162.682 145.113C165.804 144.716 168.85 143.853 171.716 142.553C173.148 141.9 173.566 139.675 172.742 138.436C171.765 136.947 170.16 136.708 168.627 137.404Z" fill="#FFC38F"/>
<path d="M39.2194 33.2663C37.054 23.5218 34.8925 13.7733 32.735 4.02076C32.2602 1.88992 29.131 1.06231 27.7051 2.75926L7.46744 26.6218L1.75718 33.3617C0.745515 34.5737 0.53973 36.4725 1.80672 37.6039C2.94649 38.6288 4.96452 38.8332 6.04739 37.5544C12.7973 29.6021 19.5432 21.6459 26.285 13.6858L31.9953 6.95191L26.9654 5.68441C29.1309 15.4329 31.2924 25.1814 33.4499 34.9299C33.6742 35.6911 34.1908 36.3324 34.8867 36.7135C35.5826 37.0945 36.4011 37.1842 37.163 36.9629C37.9178 36.7276 38.5528 36.2101 38.9358 35.5181C39.3188 34.8262 39.4203 34.0132 39.2192 33.2483L39.2194 33.2663Z" fill="#FFC38F"/>
</g>
<defs>
<clipPath id="clip0_234_455">
<rect width="171" height="145" fill="white" transform="translate(173.223 145.194) rotate(179.331)"/>
</clipPath>
</defs>
</svg>
