<svg width="44" height="44" viewBox="0 0 44 44" fill="none" xmlns="http://www.w3.org/2000/svg">
<g clip-path="url(#clip0_34_1988)">
<path d="M20.4709 28.4926L11.8856 28.3853C11.6978 28.3853 11.5368 28.3048 11.4026 28.1707C11.2685 28.0365 11.2148 27.8756 11.2148 27.6878C11.2685 24.039 14.488 22.8853 16.2051 22.778C16.2319 22.778 16.2319 22.778 16.2587 22.778C18.2978 22.778 19.9075 21.1951 19.9344 19.2097C19.9344 18.2439 19.5856 17.3317 18.9148 16.6341C18.2441 15.9365 17.3319 15.5609 16.3661 15.5341C16.3392 15.5341 16.3392 15.5341 16.3124 15.5341C15.3734 15.5341 14.4612 15.9097 13.7905 16.5536C13.0929 17.2243 12.7173 18.1365 12.6905 19.1024C12.6905 19.478 12.3685 19.7463 12.0197 19.7731C11.6441 19.7731 11.349 19.478 11.349 19.1024C11.3758 17.7878 11.8856 16.5268 12.8514 15.6146C13.7636 14.6756 15.0246 14.139 16.3661 14.1926C17.6807 14.2195 18.9417 14.7292 19.8539 15.6951C20.7661 16.6341 21.2758 17.8951 21.249 19.2097C21.2222 21.9463 18.9417 24.1195 16.2319 24.0926C16.1514 24.0926 13.0929 24.3609 12.6368 27.0439L20.4978 27.1512C20.8734 27.1512 21.1685 27.4463 21.1685 27.8219C21.1417 28.1975 20.8466 28.4926 20.4709 28.4926Z" fill="#2B1FC7"/>
<path d="M30.801 22.6706L24.1473 22.5901C23.7717 22.5901 23.4766 22.295 23.4766 21.9194L23.557 14.9438C23.557 14.5682 23.8522 14.2462 24.2278 14.273C24.6034 14.273 24.8985 14.5682 24.8985 14.9438L24.8449 21.2755L30.8278 21.356C31.2034 21.356 31.4985 21.6511 31.4985 22.0267C31.4717 22.3755 31.1766 22.6706 30.801 22.6706Z" fill="#2B1FC7"/>
<path d="M30.7196 28.5999C30.344 28.5999 30.0488 28.3047 30.0488 27.9291L30.2098 15.0242C30.2098 14.6486 30.5049 14.3535 30.8805 14.3535C31.2561 14.3535 31.5513 14.6486 31.5513 15.0242L31.3903 27.9291C31.3903 28.3316 31.0952 28.5999 30.7196 28.5999Z" fill="#2B1FC7"/>
<path d="M0.670732 22.6707C0.295122 22.6707 0 22.3756 0 22C0 9.87317 9.87317 0 22 0C29.9415 0 37.2659 4.29268 41.1829 11.2146C41.3707 11.5366 41.2634 11.939 40.9415 12.1268C40.6195 12.3146 40.2171 12.2073 40.0293 11.8854C36.3537 5.36585 29.4585 1.34146 22 1.34146C10.5976 1.34146 1.34146 10.6244 1.34146 22C1.34146 22.3756 1.04634 22.6707 0.670732 22.6707Z" fill="#2B1FC7"/>
<path d="M42.4973 16.0173C40.8071 14.2733 38.3656 12.2343 36.2461 11.2416L40.2973 10.9734L43.2485 8.18311C42.551 10.4099 42.3363 13.5758 42.4973 16.0173Z" fill="black"/>
<path d="M42.8731 16.8757L42.256 16.2318C40.8072 14.7293 38.3121 12.583 36.1121 11.5366L34.9316 10.9732L40.1633 10.6513L43.9731 7.05615L43.5707 8.2903C42.8463 10.6244 42.7121 13.8976 42.8194 15.9903L42.8731 16.8757ZM37.4268 11.483C39.117 12.4757 40.8072 13.8976 42.0951 15.1586C42.0414 13.361 42.1755 11.161 42.6048 9.22932L40.4316 11.2952L37.4268 11.483Z" fill="#2B1FC7"/>
<path d="M22.0007 43.9998C14.0324 43.9998 6.68116 39.6803 2.79092 32.7315C2.60311 32.4096 2.73726 32.0072 3.05921 31.8193C3.38116 31.6315 3.7836 31.7657 3.97141 32.0876C7.62019 38.6072 14.5421 42.6584 22.0007 42.6584C33.4031 42.6584 42.6592 33.3754 42.6592 21.9998C42.6592 21.6242 42.9543 21.3291 43.3299 21.3291C43.7056 21.3291 44.0007 21.6242 44.0007 21.9998C44.0007 34.1267 34.1275 43.9998 22.0007 43.9998Z" fill="#2B1FC7"/>
<path d="M1.50266 27.9561C3.1929 29.7268 5.63437 31.739 7.72705 32.7585L3.67583 33L0.724609 35.7902C1.42217 33.5365 1.6368 30.3707 1.50266 27.9561Z" fill="black"/>
<path d="M0 36.8903L0.402439 35.6561C1.15366 33.322 1.2878 30.0488 1.18049 27.9561L1.12683 27.0439L1.7439 27.6878C3.19268 29.2171 5.66098 31.3635 7.8878 32.4098L9.04146 32.9732L3.80976 33.2952L0 36.8903ZM1.87805 28.7878C1.90488 30.5854 1.79756 32.8122 1.36829 34.7171L3.56829 32.6513L6.57317 32.4635C4.8561 31.4708 3.16585 30.0488 1.87805 28.7878Z" fill="#2B1FC7"/>
</g>
<defs>
<clipPath id="clip0_34_1988">
<rect width="44" height="44" fill="white"/>
</clipPath>
</defs>
</svg>
