<svg width="44" height="40" viewBox="0 0 44 40" fill="none" xmlns="http://www.w3.org/2000/svg">
<g clip-path="url(#clip0_34_2239)">
<path d="M32.3188 10.7138H7.73582C7.37954 10.7138 7.09961 10.4339 7.09961 10.0776C7.09961 9.72134 7.37954 9.44141 7.73582 9.44141H32.3188C32.6751 9.44141 32.955 9.72134 32.955 10.0776C32.955 10.4339 32.6751 10.7138 32.3188 10.7138Z" fill="#2B1FC7"/>
<path d="M25.6768 17.3305H7.73582C7.37954 17.3305 7.09961 17.0506 7.09961 16.6943C7.09961 16.338 7.37954 16.0581 7.73582 16.0581H25.6768C26.0331 16.0581 26.313 16.338 26.313 16.6943C26.313 17.0506 26.0331 17.3305 25.6768 17.3305Z" fill="#2B1FC7"/>
<path d="M8.80509 32.5992C8.72875 32.5992 8.6524 32.5737 8.55061 32.5483C8.32157 32.4465 8.16888 32.2175 8.16888 31.963V26.7461H5.08965C2.29034 26.7461 0 24.4558 0 21.6564V5.08965C0 2.29034 2.29034 0 5.08965 0H34.9913C37.7906 0 40.081 2.29034 40.081 5.08965V21.6819C40.081 24.4812 37.7906 26.7715 34.9913 26.7715H14.9127L9.26316 32.4211C9.11047 32.5483 8.95778 32.5992 8.80509 32.5992ZM5.08965 1.27241C2.97744 1.27241 1.27241 2.97744 1.27241 5.08965V21.6819C1.27241 23.7941 2.97744 25.4991 5.08965 25.4991H8.80509C9.16137 25.4991 9.4413 25.7791 9.4413 26.1353V30.4361L14.2001 25.6773C14.3274 25.55 14.48 25.4991 14.6582 25.4991H34.9913C37.1035 25.4991 38.8086 23.7941 38.8086 21.6819V5.08965C38.8086 2.97744 37.1035 1.27241 34.9913 1.27241H5.08965Z" fill="#2B1FC7"/>
<path d="M38.401 39.0629C38.2483 39.0629 38.0702 38.9865 37.943 38.8847L34.5838 35.5256H22.4704C20.6382 35.5256 19.1367 34.0241 19.1367 32.1919V28.4255C19.1367 28.0692 19.4166 27.7893 19.7729 27.7893C20.1292 27.7893 20.4091 28.0692 20.4091 28.4255V32.1919C20.4091 33.337 21.3507 34.2532 22.4704 34.2532H34.8383C35.0164 34.2532 35.1691 34.3295 35.2963 34.4313L37.7648 36.8998V34.8639C37.7648 34.5076 38.0448 34.2277 38.401 34.2277H40.6659C41.8111 34.2277 42.7272 33.2861 42.7272 32.1664V22.0635C42.7272 21.2237 42.2183 20.4602 41.4548 20.1548C41.124 20.0276 40.9713 19.6459 41.124 19.3151C41.2512 18.9842 41.633 18.8315 41.9638 18.9842C43.2107 19.5186 44.0251 20.7147 44.0251 22.0635V32.1664C44.0251 33.9987 42.5236 35.5001 40.6914 35.5001H39.0627V38.4267C39.0627 38.6812 38.91 38.9102 38.681 39.012C38.5792 39.0374 38.4774 39.0629 38.401 39.0629Z" fill="#2B1FC7"/>
</g>
<defs>
<clipPath id="clip0_34_2239">
<rect width="44" height="39.063" fill="white"/>
</clipPath>
</defs>
</svg>
