<svg width="44" height="54" viewBox="0 0 44 54" fill="none" xmlns="http://www.w3.org/2000/svg">
<g clip-path="url(#clip0_34_2154)">
<path d="M10.6266 15.2672C10.1992 15.2672 9.86328 14.9313 9.86328 14.5038V6.04583C9.86328 5.61835 10.1992 5.28247 10.6266 5.28247H15.7259C16.1534 5.28247 16.4892 5.61835 16.4892 6.04583C16.4892 6.47331 16.1534 6.80919 15.7259 6.80919H11.39V14.5038C11.39 14.9313 11.0541 15.2672 10.6266 15.2672Z" fill="#2B1FC7"/>
<path d="M43.2374 50.8092H15.2985C14.871 50.8092 14.5352 50.4733 14.5352 50.0458C14.5352 49.6183 14.871 49.2825 15.2985 49.2825H42.4741V6.80919H37.8939C37.4665 6.80919 37.1306 6.47331 37.1306 6.04583C37.1306 5.61835 37.4665 5.28247 37.8939 5.28247H43.2374C43.6649 5.28247 44.0008 5.61835 44.0008 6.04583V50.0458C44.0008 50.4428 43.6649 50.8092 43.2374 50.8092Z" fill="#2B1FC7"/>
<path d="M30.7187 10.626H22.8714C19.879 10.626 17.4668 8.21374 17.4668 5.22137C17.4668 4.79389 17.8027 4.45801 18.2302 4.45801H22.6576C22.6576 4.39695 22.6576 4.36641 22.6576 4.30534C22.6271 1.92366 24.5508 0 26.9324 0C29.3141 0 31.2378 1.92366 31.2378 4.30534C31.2378 4.36641 31.2378 4.39695 31.2378 4.45801H35.3599C35.7874 4.45801 36.1233 4.79389 36.1233 5.22137C36.1233 8.18321 33.6805 10.626 30.7187 10.626ZM19.0546 5.98473C19.421 7.75572 20.9782 9.09924 22.8714 9.09924H30.7187C32.6118 9.09924 34.1691 7.75572 34.5355 5.98473H30.3523C30.108 5.98473 29.8943 5.8626 29.7416 5.67939C29.5889 5.49618 29.5584 5.25191 29.6195 5.00763C29.6805 4.73282 29.7111 4.51908 29.7111 4.30534C29.7111 2.77863 28.4592 1.52672 26.9324 1.52672C25.4057 1.52672 24.1538 2.77863 24.1538 4.30534C24.1538 4.51908 24.1844 4.73282 24.2454 5.00763C24.3065 5.25191 24.2454 5.46565 24.1233 5.67939C23.9706 5.8626 23.7569 5.98473 23.5126 5.98473H19.0546Z" fill="#2B1FC7"/>
<path d="M18.901 22.1374C18.6873 22.1374 18.5041 22.0458 18.3514 21.9236L15.5728 19.1145C15.2674 18.8091 15.2674 18.3206 15.5728 18.0152C15.8781 17.7099 16.3667 17.7099 16.6415 18.0152L18.901 20.2748L23.1147 16.061C23.4201 15.7557 23.9086 15.7557 24.1834 16.061C24.4888 16.3664 24.4888 16.8549 24.1834 17.1297L19.4506 21.8931C19.2979 22.0458 19.1147 22.1374 18.901 22.1374Z" fill="#2B1FC7"/>
<path d="M18.901 31.8778C18.6873 31.8778 18.5041 31.7862 18.3514 31.6641L15.5728 28.8549C15.2674 28.5496 15.2674 28.061 15.5728 27.7862C15.8781 27.4809 16.3361 27.4809 16.6415 27.7862L18.901 30.0458L23.1147 25.832C23.4201 25.5267 23.9086 25.5267 24.1834 25.832C24.4888 26.1374 24.4888 26.6259 24.1834 26.9007L19.4506 31.6336C19.2979 31.7862 19.1147 31.8778 18.901 31.8778Z" fill="#2B1FC7"/>
<path d="M18.9011 41.6183C18.6874 41.6183 18.5042 41.5267 18.3515 41.4046L17.1606 40.2137C16.8553 39.9084 16.8553 39.4198 17.1606 39.145C17.466 38.8397 17.9545 38.8397 18.2294 39.145L18.8706 39.7863L23.0843 35.5725C23.3897 35.2672 23.8782 35.2672 24.153 35.5725C24.4584 35.8779 24.4584 36.3664 24.153 36.6412L19.4202 41.374C19.2981 41.5267 19.1148 41.6183 18.9011 41.6183Z" fill="#2B1FC7"/>
<path d="M38.5965 19.7557H28.0622C27.6347 19.7557 27.2988 19.4198 27.2988 18.9924C27.2988 18.5649 27.6347 18.229 28.0622 18.229H38.5965C39.024 18.229 39.3599 18.5649 39.3599 18.9924C39.3599 19.4198 38.9935 19.7557 38.5965 19.7557Z" fill="#2B1FC7"/>
<path d="M38.5965 29.4962H28.0622C27.6347 29.4962 27.2988 29.1603 27.2988 28.7328C27.2988 28.3054 27.6347 27.9695 28.0622 27.9695H38.5965C39.024 27.9695 39.3599 28.3054 39.3599 28.7328C39.3599 29.1603 38.9935 29.4962 38.5965 29.4962Z" fill="#2B1FC7"/>
<path d="M38.5965 39.2367H28.0622C27.6347 39.2367 27.2988 38.9008 27.2988 38.4733C27.2988 38.0458 27.6347 37.71 28.0622 37.71H38.5965C39.024 37.71 39.3599 38.0458 39.3599 38.4733C39.3599 38.9008 38.9935 39.2367 38.5965 39.2367Z" fill="#2B1FC7"/>
<path d="M8.42787 26.5649C6.07672 26.5649 4.18359 24.2749 4.18359 21.4657C4.18359 18.6565 6.07672 16.3359 8.42787 16.3359C10.779 16.3359 12.7027 18.626 12.7027 21.4352C12.7027 24.2443 10.779 26.5649 8.42787 26.5649ZM8.42787 17.8321C6.93169 17.8321 5.71031 19.4504 5.71031 21.4352C5.71031 23.4199 6.93169 25.0382 8.42787 25.0382C9.92405 25.0382 11.1454 23.4199 11.1454 21.4352C11.176 19.4504 9.95459 17.8321 8.42787 17.8321Z" fill="#2B1FC7"/>
<path d="M12.6412 42.168C12.3359 42.168 12.0611 41.9848 11.9389 41.6794C11.7863 41.2825 11.9695 40.855 12.3664 40.7023C14.1679 39.9695 15.3588 38.2596 15.3588 36.3054V33.7405C15.3588 31.1451 13.2519 29.0077 10.626 29.0077H6.25954C3.66412 29.0077 1.52672 31.1145 1.52672 33.7405V36.3054C1.52672 38.2596 2.68702 39.9695 4.51908 40.7023C4.91603 40.855 5.09924 41.313 4.94656 41.6794C4.79389 42.0764 4.33588 42.2596 3.96947 42.1069C1.55725 41.1603 0 38.8703 0 36.3054V33.7405C0 30.2901 2.80916 27.481 6.25954 27.481H10.626C14.0763 27.481 16.8855 30.2901 16.8855 33.7405V36.3054C16.8855 38.9008 15.3282 41.1603 12.9466 42.1069C12.8244 42.1374 12.7328 42.168 12.6412 42.168Z" fill="#2B1FC7"/>
<path d="M8.42742 52.1834C7.99994 52.1834 7.66406 51.8475 7.66406 51.42V41.3742C7.66406 40.9467 7.99994 40.6108 8.42742 40.6108C8.8549 40.6108 9.19078 40.9467 9.19078 41.3742V51.42C9.19078 51.8475 8.8549 52.1834 8.42742 52.1834Z" fill="#2B1FC7"/>
<path d="M6.5341 53.0383C5.40433 53.0383 4.39669 52.4887 3.84707 52.0002C3.6944 51.8475 3.57227 51.6338 3.57227 51.42V32.8857C3.57227 32.4582 3.90814 32.1223 4.33562 32.1223C4.76311 32.1223 5.09898 32.4582 5.09898 32.8857V51.0536C5.61807 51.3895 6.80891 51.9696 7.87761 50.9009C8.15242 50.6261 8.6715 50.6261 8.94631 50.9009C10.015 51.9696 11.2059 51.3895 11.7249 51.0536V32.8857C11.7249 32.4582 12.0608 32.1223 12.4883 32.1223C12.9158 32.1223 13.2517 32.4582 13.2517 32.8857V51.42C13.2517 51.6338 13.1601 51.8475 12.9768 52.0002C12.1219 52.733 10.1677 53.649 8.39669 52.4277C7.81654 52.8551 7.14479 53.0383 6.5341 53.0383Z" fill="#2B1FC7"/>
</g>
<defs>
<clipPath id="clip0_34_2154">
<rect width="44" height="53.0382" fill="white"/>
</clipPath>
</defs>
</svg>
