<svg width="44" height="36" viewBox="0 0 44 36" fill="none" xmlns="http://www.w3.org/2000/svg">
<g clip-path="url(#clip0_34_2016)">
<path d="M32.1429 12.6857H29.8571C29.4571 12.6857 29.1429 12.3714 29.1429 11.9714C29.1429 11.5714 29.4571 11.2571 29.8571 11.2571H31.4286V1.42857H1.42857V11.2571H22.8857C23.2857 11.2571 23.6 11.5714 23.6 11.9714C23.6 12.3714 23.2857 12.6857 22.8857 12.6857H0.714286C0.314286 12.6857 0 12.3714 0 11.9714V0.714286C0 0.314286 0.314286 0 0.714286 0H32.1429C32.5429 0 32.8571 0.314286 32.8571 0.714286V11.9714C32.8286 12.3714 32.5143 12.6857 32.1429 12.6857Z" fill="#2B1FC7"/>
<path d="M32.1426 14.6857C31.7426 14.6857 31.4283 14.3428 31.4283 13.9714V12.6857H29.8569C29.4569 12.6857 29.1426 12.3714 29.1426 11.9714C29.1426 11.5714 29.4569 11.2571 29.8569 11.2571H32.1426C32.5426 11.2571 32.8569 11.5714 32.8569 11.9714V13.9714C32.8283 14.3428 32.514 14.6857 32.1426 14.6857Z" fill="#2B1FC7"/>
<path d="M27.1714 23.9428H0.714286C0.314286 23.9428 0 23.6285 0 23.2285V11.9714C0 11.5714 0.314286 11.2571 0.714286 11.2571H22.8857C23.2857 11.2571 23.6 11.5714 23.6 11.9714C23.6 12.3714 23.2857 12.6857 22.8857 12.6857H1.42857V22.5142H27.1714C27.5714 22.5142 27.8857 22.8285 27.8857 23.2285C27.8857 23.6285 27.5714 23.9428 27.1714 23.9428Z" fill="#2B1FC7"/>
<path d="M32.1429 35.2001H0.714286C0.314286 35.2001 0 34.8858 0 34.4858V23.2287C0 22.8287 0.314286 22.5144 0.714286 22.5144H27.1714C27.5714 22.5144 27.8857 22.8287 27.8857 23.2287C27.8857 23.6287 27.5714 23.943 27.1714 23.943H1.42857V33.7715H31.4286V27.9715C31.4286 27.5715 31.7429 27.2573 32.1429 27.2573C32.5429 27.2573 32.8571 27.5715 32.8571 27.9715V34.4858C32.8286 34.8858 32.5143 35.2001 32.1429 35.2001Z" fill="#2B1FC7"/>
<path d="M6.65723 9.34277C5.00008 9.34277 3.65723 7.99992 3.65723 6.34277C3.65723 4.68563 5.00008 3.34277 6.65723 3.34277C8.31437 3.34277 9.65723 4.68563 9.65723 6.34277C9.65723 7.99992 8.31437 9.34277 6.65723 9.34277ZM6.65723 4.77134C5.80008 4.77134 5.0858 5.48563 5.0858 6.34277C5.0858 7.19992 5.80008 7.9142 6.65723 7.9142C7.51437 7.9142 8.22866 7.19992 8.22866 6.34277C8.22866 5.48563 7.54294 4.77134 6.65723 4.77134Z" fill="#2B1FC7"/>
<path d="M6.65723 20.6001C5.00008 20.6001 3.65723 19.2572 3.65723 17.6001C3.65723 15.943 5.00008 14.6001 6.65723 14.6001C8.31437 14.6001 9.65723 15.943 9.65723 17.6001C9.65723 19.2572 8.31437 20.6001 6.65723 20.6001ZM6.65723 16.0287C5.80008 16.0287 5.0858 16.743 5.0858 17.6001C5.0858 18.4572 5.80008 19.1715 6.65723 19.1715C7.51437 19.1715 8.22866 18.4572 8.22866 17.6001C8.22866 16.743 7.54294 16.0287 6.65723 16.0287Z" fill="#2B1FC7"/>
<path d="M6.65723 31.8572C5.00008 31.8572 3.65723 30.5143 3.65723 28.8572C3.65723 27.2 5.00008 25.8572 6.65723 25.8572C8.31437 25.8572 9.65723 27.2 9.65723 28.8572C9.65723 30.5143 8.31437 31.8572 6.65723 31.8572ZM6.65723 27.2857C5.80008 27.2857 5.0858 28 5.0858 28.8572C5.0858 29.7143 5.80008 30.4286 6.65723 30.4286C7.51437 30.4286 8.22866 29.7143 8.22866 28.8572C8.22866 28 7.54294 27.2857 6.65723 27.2857Z" fill="#2B1FC7"/>
<path d="M27.8857 7.05723H20.7143C20.3143 7.05723 20 6.74295 20 6.34295C20 5.94295 20.3143 5.62866 20.7143 5.62866H27.8857C28.2857 5.62866 28.6 5.94295 28.6 6.34295C28.6 6.74295 28.2857 7.05723 27.8857 7.05723Z" fill="#2B1FC7"/>
<path d="M22.8857 18.3143H20.7143C20.3143 18.3143 20 18 20 17.6C20 17.2 20.3143 16.8857 20.7143 16.8857H22.9143C23.3143 16.8857 23.6286 17.2 23.6286 17.6C23.6 18 23.2857 18.3143 22.8857 18.3143Z" fill="#2B1FC7"/>
<path d="M27.8857 29.5714H20.7143C20.3143 29.5714 20 29.2571 20 28.8571C20 28.4571 20.3143 28.1428 20.7143 28.1428H27.8857C28.2857 28.1428 28.6 28.4571 28.6 28.8571C28.6 29.2571 28.2857 29.5714 27.8857 29.5714Z" fill="#2B1FC7"/>
<path d="M32.3426 26.343C32.114 26.343 31.914 26.2287 31.7712 26.0573L24.1712 16.1716C23.1997 14.9144 23.4569 13.1144 24.6855 12.1716C25.9426 11.2287 27.7426 11.4573 28.6855 12.6858L31.7712 16.7144L38.6855 4.91441C39.4855 3.54298 41.2283 3.11441 42.5997 3.88584C43.9712 4.68584 44.3997 6.42869 43.6283 7.80012L32.9426 26.0001C32.8283 26.2001 32.5997 26.343 32.3712 26.343H32.3426ZM26.4283 13.0001C26.114 13.0001 25.8283 13.0858 25.5712 13.2858C24.9426 13.7716 24.8283 14.6573 25.314 15.2858L32.2569 24.343L42.3997 7.05726C42.7997 6.37155 42.5712 5.51441 41.8855 5.11441C41.1997 4.71441 40.3426 4.94298 39.9426 5.62869L32.4855 18.343C32.3712 18.543 32.1426 18.6858 31.914 18.6858C31.6855 18.7144 31.4569 18.6001 31.314 18.4001L27.5997 13.543C27.2855 13.2001 26.8569 13.0001 26.4283 13.0001Z" fill="#2B1FC7"/>
</g>
<defs>
<clipPath id="clip0_34_2016">
<rect width="44" height="35.2" fill="white"/>
</clipPath>
</defs>
</svg>
