<svg width="44" height="48" viewBox="0 0 44 48" fill="none" xmlns="http://www.w3.org/2000/svg">
<g clip-path="url(#clip0_34_2044)">
<path d="M29.1813 34.3598C29.051 34.3598 28.9208 34.3272 28.7905 34.2621L21.9837 30.6796L15.1769 34.2621C14.9163 34.3924 14.5581 34.3924 14.3301 34.197C14.0695 34.0016 13.9393 33.7084 14.0044 33.4153L15.3071 25.8594L9.80308 20.4856C9.60767 20.2577 9.50996 19.932 9.60767 19.6389C9.70537 19.3457 9.96592 19.1178 10.259 19.0852L17.8475 17.9779L21.2346 11.1059C21.4952 10.5523 22.4071 10.5523 22.7002 11.1059L26.0873 17.9779L33.6758 19.0852C33.9689 19.1178 34.2294 19.3457 34.3271 19.6389C34.4248 19.932 34.3271 20.2577 34.1317 20.4856L28.6928 25.8269L29.9955 33.3828C30.0607 33.6759 29.9304 34.0016 29.6698 34.1644C29.507 34.2947 29.3442 34.3598 29.1813 34.3598ZM21.9837 28.9534C22.114 28.9534 22.2442 28.986 22.3745 29.0511L28.074 32.0474L26.9992 25.6966C26.9667 25.436 27.0318 25.1429 27.2272 24.9801L31.8519 20.4856L25.4685 19.5412C25.208 19.5086 24.98 19.3132 24.8497 19.0852L21.9837 13.288L19.1502 19.0852C19.02 19.3132 18.792 19.5086 18.5314 19.5412L12.148 20.4531L16.7727 24.9475C16.9681 25.1429 17.0658 25.4035 17.0007 25.664L15.8934 32.0474L21.5929 29.0511C21.7231 28.986 21.8534 28.9534 21.9837 28.9534Z" fill="#2B1FC7"/>
<path d="M21.9841 47.4523C21.5282 47.4523 21.1699 47.094 21.1699 46.6381V39.4404C21.1699 38.9845 21.5282 38.6262 21.9841 38.6262C22.4401 38.6262 22.7983 38.9845 22.7983 39.4404V46.6381C22.7983 47.0615 22.4401 47.4523 21.9841 47.4523Z" fill="#2B1FC7"/>
<path d="M21.9841 6.28571C21.5282 6.28571 21.1699 5.92746 21.1699 5.4715V0.814212C21.1699 0.358253 21.5607 0 21.9841 0C22.4401 0 22.7983 0.358253 22.7983 0.814212V5.4715C22.7983 5.92746 22.4401 6.28571 21.9841 6.28571Z" fill="#2B1FC7"/>
<path d="M43.1857 25.7617H38.5935C38.1375 25.7617 37.7793 25.4035 37.7793 24.9475C37.7793 24.4916 38.1375 24.1333 38.5935 24.1333H43.1857C43.6416 24.1333 43.9999 24.4916 43.9999 24.9475C43.9999 25.4035 43.6416 25.7617 43.1857 25.7617Z" fill="#2B1FC7"/>
<path d="M5.40637 25.7617H0.814212C0.358253 25.7617 0 25.4035 0 24.9475C0 24.4916 0.358253 24.1333 0.814212 24.1333H5.40637C5.86232 24.1333 6.22058 24.4916 6.22058 24.9475C6.22058 25.4035 5.86232 25.7617 5.40637 25.7617Z" fill="#2B1FC7"/>
<path d="M41.7851 44.7491C41.5896 44.7491 41.3617 44.6839 41.1988 44.5211L34.4572 37.7794C34.1315 37.4537 34.1315 36.9326 34.4572 36.6395C34.7828 36.3138 35.3039 36.3138 35.5971 36.6395L42.3387 43.3812C42.6644 43.7069 42.6644 44.228 42.3387 44.5211C42.2084 44.6514 42.013 44.7491 41.7851 44.7491Z" fill="#2B1FC7"/>
<path d="M10.1936 13.9719C9.99815 13.9719 9.77017 13.9067 9.60733 13.7439L1.62805 5.73206C1.30237 5.40638 1.30237 4.88528 1.62805 4.59216C1.95374 4.26648 2.47483 4.26648 2.76795 4.59216L10.7798 12.604C11.1055 12.9297 11.1055 13.4508 10.7798 13.7439C10.6169 13.8742 10.4215 13.9719 10.1936 13.9719Z" fill="#2B1FC7"/>
<path d="M2.21428 44.7491C2.01887 44.7491 1.79089 44.684 1.62805 44.5211C1.30237 44.1955 1.30237 43.6744 1.62805 43.3812L8.30459 36.7047C8.63027 36.379 9.15137 36.379 9.44448 36.7047C9.77017 37.0304 9.77017 37.5515 9.44448 37.8446L2.76795 44.5211C2.60511 44.6514 2.4097 44.7491 2.21428 44.7491Z" fill="#2B1FC7"/>
<path d="M33.4155 14.3301C33.22 14.3301 32.9921 14.265 32.8292 14.1022C32.5035 13.7765 32.5035 13.2554 32.8292 12.9623L41.1993 4.59216C41.525 4.26648 42.0461 4.26648 42.3392 4.59216C42.6649 4.91785 42.6649 5.43894 42.3392 5.73206L33.9691 14.1022C33.8388 14.2324 33.6434 14.3301 33.4155 14.3301Z" fill="#2B1FC7"/>
</g>
<defs>
<clipPath id="clip0_34_2044">
<rect width="44" height="47.4523" fill="white"/>
</clipPath>
</defs>
</svg>
