<svg width="44" height="42" viewBox="0 0 44 42" fill="none" xmlns="http://www.w3.org/2000/svg">
<g clip-path="url(#clip0_34_2188)">
<path d="M15.6114 26.972C15.3975 26.972 15.1569 26.865 15.05 26.6512C14.8362 26.3304 14.9164 25.9294 15.2371 25.7423L21.519 21.8128C21.8398 21.6257 22.2408 21.7059 22.4546 22.0266C22.6418 22.3207 22.5348 22.7217 22.2141 22.9355L15.9322 26.865C15.852 26.9452 15.7183 26.972 15.6114 26.972Z" fill="#2B1FC7"/>
<path d="M28.3085 27.159C28.1748 27.159 28.0679 27.1322 27.9343 27.052L21.492 22.9354C21.1979 22.7215 21.091 22.2938 21.3049 21.9998C21.492 21.679 21.9197 21.5988 22.2405 21.7859L28.6827 25.9293C29.0035 26.1432 29.0837 26.5441 28.8966 26.8649C28.7362 27.052 28.5224 27.159 28.3085 27.159Z" fill="#2B1FC7"/>
<path d="M21.8665 23.0423C21.4923 23.0423 21.1982 22.7483 21.1982 22.374V16.4129C21.1982 16.0387 21.4923 15.7446 21.8665 15.7446C22.2408 15.7446 22.5348 16.0387 22.5348 16.4129V22.3473C22.5348 22.7215 22.2408 23.0423 21.8665 23.0423Z" fill="#2B1FC7"/>
<path d="M21.8668 14.7023C17.8036 14.7023 14.5156 11.4143 14.5156 7.35115C14.5156 3.28797 17.8036 0 21.8668 0C25.93 0 29.2179 3.28797 29.2179 7.35115C29.2179 11.4143 25.93 14.7023 21.8668 14.7023ZM21.8668 1.33657C18.5521 1.33657 15.8522 4.03645 15.8522 7.35115C15.8522 10.6659 18.5521 13.3657 21.8668 13.3657C25.1815 13.3657 27.8814 10.6659 27.8814 7.35115C27.8814 4.03645 25.1815 1.33657 21.8668 1.33657Z" fill="#2B1FC7"/>
<path d="M36.649 41.4338C32.5858 41.4338 29.2979 38.1458 29.2979 34.0826C29.2979 30.0194 32.5858 26.7314 36.649 26.7314C40.7122 26.7314 44.0002 30.0194 44.0002 34.0826C44.0002 38.1458 40.7122 41.4338 36.649 41.4338ZM36.649 28.068C33.3343 28.068 30.6344 30.7679 30.6344 34.0826C30.6344 37.3973 33.3343 40.0972 36.649 40.0972C39.9637 40.0972 42.6636 37.3973 42.6636 34.0826C42.6636 30.7679 39.9637 28.068 36.649 28.068Z" fill="#2B1FC7"/>
<path d="M7.35115 41.4338C3.28797 41.4338 0 38.1191 0 34.0826C0 30.0461 3.28797 26.7314 7.35115 26.7314C11.4143 26.7314 14.7023 30.0194 14.7023 34.0826C14.7023 38.1458 11.4143 41.4338 7.35115 41.4338ZM7.35115 28.068C4.03645 28.068 1.33657 30.7679 1.33657 34.0826C1.33657 37.3973 4.03645 40.0972 7.35115 40.0972C10.6659 40.0972 13.3657 37.3973 13.3657 34.0826C13.3657 30.7679 10.6659 28.068 7.35115 28.068Z" fill="#2B1FC7"/>
</g>
<defs>
<clipPath id="clip0_34_2188">
<rect width="44" height="41.4338" fill="white"/>
</clipPath>
</defs>
</svg>
