<svg width="44" height="46" viewBox="0 0 44 46" fill="none" xmlns="http://www.w3.org/2000/svg">
<g clip-path="url(#clip0_34_2111)">
<path d="M25.7928 31.8002C24.8019 31.8002 23.8111 31.6144 22.8512 31.2428C18.7639 29.6017 16.7822 24.9571 18.3924 20.8698C19.1974 18.8881 20.7147 17.3399 22.6654 16.5039C24.6162 15.6369 26.7836 15.6369 28.7653 16.411C32.8526 18.0521 34.8343 22.6967 33.2242 26.784C31.9856 29.9114 28.9821 31.8002 25.7928 31.8002ZM25.8238 17.4019C24.9568 17.4019 24.0898 17.5876 23.2847 17.9283C21.7055 18.5785 20.467 19.848 19.8477 21.4272C18.5162 24.7404 20.1264 28.487 23.4395 29.7875C26.7217 31.088 30.4684 29.5088 31.7998 26.1957C33.1313 22.9135 31.5211 19.1359 28.208 17.8354C27.4339 17.5567 26.6288 17.4019 25.8238 17.4019Z" fill="#2B1FC7"/>
<path d="M5.48025 32.2646C4.79904 32.2646 4.11783 32.1407 3.43662 31.8621C0.618883 30.7474 -0.743538 27.5271 0.37117 24.7403C1.51684 21.9226 4.70614 20.5602 7.52388 21.6749C10.3416 22.7896 11.704 26.0099 10.5893 28.7966C10.032 30.159 9.01016 31.2118 7.64774 31.8001C6.96653 32.1098 6.22339 32.2646 5.48025 32.2646ZM5.48025 22.8206C3.93204 22.8206 2.44576 23.7495 1.82648 25.2977C1.02142 27.3103 2.01227 29.6017 4.02493 30.4068C5.01579 30.8093 6.06857 30.7783 7.02845 30.3758C7.98834 29.9733 8.73148 29.1992 9.13401 28.2083C9.93908 26.1956 8.94823 23.9043 6.93556 23.0992C6.4711 22.9134 5.97567 22.8206 5.48025 22.8206Z" fill="#2B1FC7"/>
<path d="M38.5189 45.4553C37.8377 45.4553 37.1565 45.3315 36.4753 45.0528C35.1129 44.4954 34.0601 43.4736 33.4718 42.1112C32.8834 40.7797 32.8834 39.2625 33.4098 37.9001C33.9672 36.5377 34.989 35.4849 36.3514 34.8966C37.6829 34.3083 39.2001 34.3082 40.5625 34.8346C43.3803 35.9493 44.7427 39.1387 43.628 41.9564C42.761 44.1548 40.6864 45.4553 38.5189 45.4553ZM38.5189 36.0422C37.9925 36.0422 37.4661 36.1351 36.9707 36.3519C36.0108 36.7544 35.2677 37.5285 34.8651 38.5194C34.4626 39.5102 34.4936 40.563 34.8961 41.5229C35.2986 42.4828 36.0727 43.2259 37.0636 43.6284C39.0763 44.4335 41.3676 43.4427 42.1727 41.43C42.9777 39.4173 41.9869 37.126 39.9742 36.3209C39.5098 36.1351 39.0143 36.0422 38.5189 36.0422Z" fill="#2B1FC7"/>
<path d="M33.1308 10.9614C32.4496 10.9614 31.7684 10.8375 31.0872 10.5589C29.7557 10.0325 28.672 8.97968 28.1146 7.64822C27.5263 6.2858 27.4953 4.79953 28.0527 3.4371C29.1674 0.619371 32.3567 -0.74305 35.1744 0.371658C37.9922 1.48637 39.3546 4.70663 38.2399 7.4934C37.3729 9.66089 35.3293 10.9614 33.1308 10.9614ZM33.1618 1.54829C31.6136 1.54829 30.1273 2.47722 29.508 4.02542C29.1055 4.98531 29.1055 6.06905 29.539 7.02894C29.9415 7.98883 30.7156 8.73197 31.7065 9.1345C33.7191 9.93957 36.0105 8.94872 36.8155 6.93605C37.6206 4.92338 36.6297 2.63204 34.6171 1.82697C34.1217 1.64119 33.6262 1.54829 33.1618 1.54829Z" fill="#2B1FC7"/>
<path d="M10.1557 26.877C9.78417 26.877 9.44356 26.5983 9.38164 26.2267C9.31971 25.7932 9.59839 25.3907 10.0319 25.3288L18.578 24.0902C19.0115 24.0283 19.383 24.3379 19.445 24.7404C19.5069 25.1739 19.2282 25.5765 18.7947 25.6384L10.2486 26.877C10.2177 26.877 10.1867 26.877 10.1557 26.877Z" fill="#2B1FC7"/>
<path d="M28.4862 17.8973C28.3933 17.8973 28.3004 17.8663 28.2076 17.8353C27.805 17.6805 27.6192 17.216 27.7741 16.8445L30.6847 9.56791C30.8395 9.16537 31.304 8.97959 31.7065 9.13441C32.109 9.28923 32.2948 9.75369 32.14 10.1562L29.1984 17.4328C29.0746 17.7115 28.7959 17.8973 28.4862 17.8973Z" fill="#2B1FC7"/>
<path d="M35.6079 37.0332C35.3912 37.0332 35.1435 36.9403 34.9886 36.7235L29.6628 29.9734C29.3841 29.6328 29.4461 29.1373 29.7867 28.8896C30.1273 28.6109 30.6227 28.6729 30.8704 29.0135L36.1962 35.7946C36.4749 36.1352 36.413 36.6306 36.0724 36.8784C35.9485 37.0022 35.7627 37.0332 35.6079 37.0332Z" fill="#2B1FC7"/>
</g>
<defs>
<clipPath id="clip0_34_2111">
<rect width="44" height="45.4553" fill="white"/>
</clipPath>
</defs>
</svg>
