<svg width="44" height="51" viewBox="0 0 44 51" fill="none" xmlns="http://www.w3.org/2000/svg">
<g clip-path="url(#clip0_34_1950)">
<path d="M20.5869 30.0105C20.1746 30.0105 19.8506 29.7749 19.3499 29.4215C19.1732 29.3037 18.9965 29.1565 18.7609 29.0092C13.5775 25.4456 11.3687 23.8847 11.3687 23.8847C11.2509 23.7964 10.8385 23.5313 10.7502 23.0306C10.7207 22.8245 10.7207 22.5005 10.9858 22.1176L11.3392 21.617C11.8988 20.8218 12.1933 20.3506 12.7529 20.2622C13.2241 20.1739 13.5775 20.38 14.0782 20.704L20.0273 12.1632C23.2669 7.53933 23.2669 7.53933 23.4436 7.30372L23.5025 7.21537C24.3272 6.06677 25.5052 5.59556 26.9483 5.83117C26.9778 5.83117 27.0072 5.80171 27.0072 5.80171C28.0969 4.29971 28.8626 3.15111 29.4222 2.32648C30.5708 0.618314 30.9242 0.117644 31.5721 -0.000160557C32.0728 -0.088514 32.4557 0.235449 32.6913 0.412155C33.2509 0.853922 33.7221 1.14843 34.0755 1.41349C34.6645 1.79636 35.1063 2.09087 35.2241 2.62099C35.3124 3.09221 35.0768 3.50452 34.8412 3.82849C34.1344 4.80037 33.457 5.77226 32.7796 6.7736C32.3084 7.45098 31.8372 8.12835 31.366 8.80573C31.3071 8.83518 31.3071 8.83518 31.2776 8.86463C31.2776 8.86463 31.2776 8.89408 31.3071 8.89408C32.1023 10.1016 32.0728 11.3974 31.2187 12.6344L21.7944 26.0935C22.2361 26.3586 22.619 26.6237 22.7368 27.0949C22.8546 27.625 22.5306 28.0962 22.4128 28.2435C22.2067 28.5085 22.0594 28.7442 21.9416 28.9209C21.5293 29.5099 21.2937 29.8927 20.793 29.9811C20.7047 30.0106 20.6458 30.0105 20.5869 30.0105ZM12.3406 22.7656C12.8412 23.119 15.0795 24.6799 19.615 27.8017C19.8506 27.9784 20.0567 28.0962 20.2335 28.2435C20.3218 28.3024 20.4396 28.3907 20.528 28.4496C20.5869 28.3613 20.6752 28.2435 20.7341 28.1257C20.8519 27.949 20.9992 27.7134 21.2053 27.4778C21.0875 27.3894 20.9697 27.3305 20.8814 27.2716C20.7047 27.1832 20.528 27.0949 20.3513 26.9771C20.1746 26.8593 20.0567 26.712 19.9978 26.5059C19.9684 26.2997 19.9978 26.0935 20.1157 25.9168L30.0112 11.7803C30.5119 11.0735 30.5414 10.3961 30.0701 9.71871C29.5695 8.92353 29.864 8.33451 30.129 7.95165C30.6003 7.27427 31.0715 6.62635 31.5427 5.94897C32.2201 4.94763 32.9269 3.97574 33.6337 2.9744C33.6632 2.94495 33.6632 2.94495 33.6632 2.9155C33.5748 2.82715 33.4276 2.7388 33.2803 2.65044C32.8974 2.38538 32.3968 2.06142 31.7488 1.56075C31.5132 1.82581 31.1009 2.41483 30.6297 3.12166C30.0701 3.94629 29.275 5.09489 28.1558 6.6558C27.8908 7.03866 27.2723 7.39208 26.7422 7.27427C25.8586 7.09756 25.2107 7.33317 24.71 8.04L24.6217 8.12835C24.445 8.39341 24.445 8.39341 21.2348 12.9878L14.8439 22.1471C14.6083 22.5005 14.1371 22.5889 13.8131 22.3533L13.4891 22.1176C13.3124 21.9998 13.1357 21.8526 13.0179 21.7937C12.9001 21.9409 12.7234 22.206 12.5467 22.4416L12.3406 22.7656Z" fill="#2B1FC7"/>
<path d="M35.2831 28.4495C34.9592 28.4495 34.6647 28.2139 34.5763 27.89C33.9284 25.3277 32.5736 22.9716 30.6299 21.0868C30.1881 20.6744 30.0703 20.1149 29.9525 19.5848C29.8347 19.0841 29.7169 18.6129 29.3929 18.2005C29.1278 17.8766 29.1867 17.4348 29.4813 17.1698C29.8052 16.9047 30.247 16.9636 30.512 17.2581C31.0716 17.9649 31.2483 18.6718 31.3956 19.2608C31.4839 19.6142 31.5428 19.9087 31.6606 20.0265C33.7811 22.1176 35.2831 24.7093 35.99 27.5366C36.0783 27.9194 35.8427 28.3317 35.4598 28.4201C35.4009 28.4495 35.342 28.4495 35.2831 28.4495Z" fill="#2B1FC7"/>
<path d="M34.5759 50.5379H7.51027C5.77265 50.5379 5.27198 50.0372 5.27198 48.2996C5.27198 47.0627 5.27199 46.3558 5.7432 45.8846C6.24387 45.3839 6.92125 45.3839 8.18765 45.3839H13.2827C10.8972 44.0586 8.98283 42.2916 7.45137 39.9944C6.21442 39.9944 5.21308 39.9944 4.38845 40.0238C1.44334 40.0533 0.824863 40.0533 0.353645 39.5821C0.0296825 39.2581 0.000231393 38.8458 0.000231393 38.5218C0.000231393 38.3157 0.000231396 38.1095 -0.0292197 37.9623C-0.0586709 37.3732 -0.088122 36.8137 0.353645 36.3424C1.00157 35.6651 2.12071 35.6651 6.80344 35.724C9.42459 35.7534 12.9882 35.7829 18.1127 35.7534C18.4955 35.7534 18.9962 35.7829 19.3791 36.1952C19.7914 36.637 19.703 37.226 19.703 37.4321C19.6736 37.815 19.6736 38.1095 19.703 38.3451C19.7325 38.7574 19.7619 39.2287 19.3791 39.5821C18.9079 40.0533 18.2599 40.0533 15.8449 40.0238C15.5504 40.0238 15.2559 40.0238 14.9025 40.0238C17.5826 41.7909 20.8222 42.2327 23.8262 41.2902C24.2091 41.1724 24.6214 41.3786 24.7392 41.7615C24.857 42.1443 24.6508 42.5566 24.268 42.6744C20.6749 43.823 16.7874 43.1751 13.6656 40.9368C13.6067 40.9074 13.5478 40.8485 13.5183 40.7896C13.2827 40.4951 12.6642 40.0533 12.3992 39.906C12.1046 39.7293 11.9868 39.4054 12.0752 39.0814C12.1636 38.7574 12.4875 38.5513 12.8115 38.5513C14.0779 38.5513 15.0792 38.5513 15.8744 38.5807C16.9641 38.5807 17.8476 38.6102 18.2599 38.5513C18.2599 38.5218 18.2599 38.4629 18.2599 38.4335C18.2599 38.139 18.2305 37.7561 18.2894 37.2849C18.2894 37.2554 18.2894 37.2554 18.2894 37.2554C18.2599 37.2554 18.2305 37.2554 18.201 37.2554C13.0765 37.3143 9.4835 37.2554 6.86235 37.226C3.91723 37.1965 1.94401 37.1671 1.50224 37.3732C1.50224 37.491 1.50224 37.7266 1.50224 37.9034C1.50224 38.0801 1.53169 38.2862 1.53169 38.5218C1.53169 38.5218 1.53169 38.5218 1.53169 38.5513C1.97346 38.6102 3.0337 38.6102 4.4179 38.5807C5.33089 38.5807 6.47948 38.5513 7.89314 38.5513C8.1582 38.5513 8.39381 38.6691 8.51161 38.9047C10.5143 42.056 13.3121 44.2059 17.1113 45.4723C17.4648 45.5901 17.6709 45.9435 17.612 46.2969C17.5531 46.6503 17.2586 46.9154 16.8757 46.9154H8.18765C7.56917 46.9154 6.92125 46.9154 6.77399 47.0038C6.74454 47.0921 6.74454 47.74 6.74454 48.3585C6.74454 48.9181 6.77399 49.0653 6.80344 49.1242C6.80344 49.0948 6.9507 49.1242 7.51027 49.1242H34.5759C34.9882 49.1242 35.3121 49.4482 35.3121 49.8605C35.3121 50.2139 34.9882 50.5379 34.5759 50.5379Z" fill="#2B1FC7"/>
<path d="M31.4543 29.1271C31.1304 29.1271 30.8359 28.9209 30.7475 28.597C30.2174 26.9477 29.2161 25.6224 28.1264 24.2088C28.0969 24.2088 28.038 24.1793 28.0086 24.1793C27.5962 24.2382 27.0661 24.2382 26.5655 24.1793C26.1826 24.1204 25.8881 23.767 25.947 23.3547C25.9764 22.9424 26.3593 22.6773 26.7716 22.7068C27.1545 22.7657 27.5668 22.7657 27.8318 22.7068C28.2736 22.6773 28.9215 22.8246 29.2455 23.2369C30.4235 24.7683 31.5427 26.2114 32.1317 28.1552C32.2495 28.5381 32.0434 28.9504 31.631 29.0682C31.6016 29.1271 31.5132 29.1271 31.4543 29.1271Z" fill="#2B1FC7"/>
<path d="M34.4873 48.3291C29.245 48.3291 24.9746 44.0587 24.9746 38.8164C24.9746 33.5741 29.245 29.3037 34.4873 29.3037C39.7296 29.3037 44 33.5741 44 38.8164C44 44.0587 39.7296 48.3291 34.4873 48.3291ZM34.4873 30.8057C30.0697 30.8057 26.4472 34.3988 26.4472 38.8459C26.4472 43.293 30.0402 46.886 34.4873 46.886C38.905 46.886 42.5275 43.293 42.5275 38.8459C42.5275 34.3988 38.9345 30.8057 34.4873 30.8057Z" fill="#2B1FC7"/>
<path d="M33.28 42.9688C33.1032 42.9688 32.8971 42.9099 32.7498 42.7627L29.2746 39.2874C28.9801 38.9929 28.9801 38.5217 29.2746 38.2566C29.5691 37.9621 30.0403 37.9621 30.3054 38.2566L33.2505 41.2018L38.6401 35.8122C38.9346 35.5177 39.4058 35.5177 39.6708 35.8122C39.9654 36.1067 39.9654 36.5779 39.6708 36.843L33.7806 42.7332C33.6628 42.9099 33.4861 42.9688 33.28 42.9688Z" fill="#2B1FC7"/>
</g>
<defs>
<clipPath id="clip0_34_1950">
<rect width="44" height="50.5382" fill="white"/>
</clipPath>
</defs>
</svg>
