<svg width="44" height="42" viewBox="0 0 44 42" fill="none" xmlns="http://www.w3.org/2000/svg">
<g clip-path="url(#clip0_34_1969)">
<path d="M40.0174 26.0098C39.8526 26.0098 39.6604 25.9549 39.523 25.8175L21.9999 8.26696L4.47684 25.7901C4.20219 26.0647 3.76274 26.0647 3.51554 25.7901L0.219664 22.4942C-0.0549923 22.2195 -0.0549923 21.7801 0.219664 21.5329L18.1273 3.5978C18.1547 3.57033 18.1822 3.54287 18.2097 3.5154L21.5056 0.219521C21.6704 0.0272609 21.9175 -0.0276704 22.1373 -0.000204727C22.2746 0.0272609 22.3845 0.0821923 22.4943 0.192055L25.7902 3.48794C25.8177 3.54287 25.8451 3.57033 25.8726 3.5978L43.7802 21.5054C44.0549 21.7801 44.0549 22.2195 43.7802 22.4667L40.4843 25.7626C40.347 25.9274 40.1822 26.0098 40.0174 26.0098ZM21.9999 6.61902C22.1647 6.61902 22.357 6.67395 22.4943 6.81128L40.0174 24.3344L42.352 21.9998L24.8289 4.4767C24.8014 4.44923 24.774 4.42177 24.7465 4.3943L21.9999 1.64774L19.2534 4.3943C19.2259 4.42177 19.1984 4.44923 19.171 4.4767L1.64788 21.9998L3.98246 24.3344L21.5056 6.81128C21.6429 6.70142 21.8351 6.61902 21.9999 6.61902Z" fill="#2B1FC7"/>
<path d="M5.57531 41.8849C5.19079 41.8849 4.88867 41.5828 4.88867 41.1983V23.7301C4.88867 23.3456 5.19079 23.0435 5.57531 23.0435C5.95983 23.0435 6.26196 23.3456 6.26196 23.7301V41.1983C6.26196 41.5828 5.95983 41.8849 5.57531 41.8849Z" fill="#2B1FC7"/>
<path d="M38.4249 41.8849C38.0404 41.8849 37.7383 41.5828 37.7383 41.1983V23.7301C37.7383 23.3456 38.0404 23.0435 38.4249 23.0435C38.8094 23.0435 39.1116 23.3456 39.1116 23.7301V41.1983C39.1116 41.5828 38.8094 41.8849 38.4249 41.8849Z" fill="#2B1FC7"/>
<path d="M37.6557 17.0284C37.2712 17.0284 36.9691 16.7262 36.9691 16.3417V3.21313H31.2288V9.22811C31.2288 9.61263 30.9266 9.91475 30.5421 9.91475C30.1576 9.91475 29.8555 9.61263 29.8555 9.22811V2.52649C29.8555 2.14197 30.1576 1.83984 30.5421 1.83984H37.6557C38.0402 1.83984 38.3424 2.14197 38.3424 2.52649V16.3143C38.3424 16.7262 38.0128 17.0284 37.6557 17.0284Z" fill="#2B1FC7"/>
<path d="M41.4452 41.885H2.55383C2.16931 41.885 1.86719 41.5829 1.86719 41.1984C1.86719 40.8138 2.16931 40.5117 2.55383 40.5117H41.4452C41.8297 40.5117 42.1319 40.8138 42.1319 41.1984C42.1319 41.5829 41.8297 41.885 41.4452 41.885Z" fill="#2B1FC7"/>
<path d="M21.8081 35.4307C21.6708 35.4307 21.506 35.3758 21.3961 35.2934C20.7095 34.7715 14.7769 30.1024 13.8156 27.1635C13.2663 25.7902 13.4036 24.0599 14.1727 22.7965C14.8318 21.6979 15.903 21.0112 17.2488 20.8464C19.4735 20.5992 21.0116 22.3021 21.8081 23.5106C22.6046 22.3021 24.1427 20.5992 26.3674 20.8464C27.6858 21.0112 28.7844 21.6979 29.4436 22.7965C30.2126 24.0599 30.3499 25.7902 29.8006 27.191C28.8668 30.1024 22.9067 34.7715 22.2201 35.2934C22.0828 35.4032 21.9455 35.4307 21.8081 35.4307ZM17.6883 22.1922C17.6059 22.1922 17.496 22.1922 17.4136 22.2197C16.2601 22.357 15.6558 22.9888 15.3262 23.5106C14.7769 24.417 14.6945 25.7079 15.079 26.6966C15.7382 28.7291 19.8031 32.2996 21.7807 33.8652C23.7582 32.2721 27.8231 28.7291 28.4823 26.7241C28.8943 25.6804 28.7844 24.3895 28.2626 23.4831C27.9604 22.9613 27.3287 22.3296 26.2026 22.1922C23.8955 21.9451 22.4398 25.186 22.4398 25.2135C22.33 25.4607 22.0828 25.6255 21.8081 25.6255C21.5335 25.6255 21.2863 25.4607 21.1764 25.2135C21.1489 25.186 19.8306 22.1922 17.6883 22.1922Z" fill="#2B1FC7"/>
</g>
<defs>
<clipPath id="clip0_34_1969">
<rect width="44" height="41.8851" fill="white"/>
</clipPath>
</defs>
</svg>
