<svg width="44" height="44" viewBox="0 0 44 44" fill="none" xmlns="http://www.w3.org/2000/svg">
<g clip-path="url(#clip0_34_2097)">
<path d="M8.61619 28.376H0.718016C0.402089 28.376 0.114883 28.1462 0.0287206 27.8303C-0.0574413 27.5143 0.0861619 27.1697 0.402089 27.0261C5.60052 24.2689 7.49608 22.4308 7.89817 19.731C7.86945 17.9791 6.43342 16.5718 4.65274 16.5718C2.87206 16.5718 1.43603 18.0078 1.43603 19.7885C1.43603 20.1906 1.1201 20.5065 0.718016 20.5065C0.315927 20.5065 0 20.1906 0 19.7885C0 17.2323 2.09661 15.1357 4.65274 15.1357C7.20888 15.1357 9.3342 17.2323 9.3342 19.7885C9.3342 19.8172 9.3342 19.8459 9.3342 19.9034C8.87467 22.919 6.92167 24.872 3.4752 26.9399H8.61619C9.01828 26.9399 9.3342 27.2558 9.3342 27.6579C9.3342 28.06 8.98956 28.376 8.61619 28.376Z" fill="#2B1FC7"/>
<path d="M17.2614 28.376C16.8593 28.376 16.5434 28.0601 16.5434 27.658V25.2167H11.4598C11.2014 25.2167 10.9429 25.0731 10.828 24.8434C10.7131 24.6136 10.7131 24.3264 10.8567 24.1254L16.6583 15.4517C16.8306 15.1932 17.1465 15.0784 17.4625 15.1645C17.7784 15.2507 17.9794 15.5379 17.9794 15.8538V23.8094H19.4442C19.8463 23.8094 20.1622 24.1254 20.1622 24.5274C20.1622 24.9295 19.8463 25.2455 19.4442 25.2455H17.9794V27.6867C17.9794 28.0601 17.6635 28.376 17.2614 28.376ZM12.8097 23.7807H16.5434V18.2089L12.8097 23.7807Z" fill="#2B1FC7"/>
<path d="M22.23 43.5117C15.3944 43.5117 9.10463 40.4099 4.96886 34.9817C4.73909 34.6658 4.79653 34.2063 5.11246 33.9765C5.42839 33.7467 5.88792 33.8042 6.11768 34.1201C9.99497 39.1749 15.8827 42.0757 22.2587 42.0757C33.4597 42.0757 42.5929 32.9713 42.5929 21.7415C42.5929 10.5405 33.4884 1.40731 22.2587 1.40731C18.7548 1.40731 15.3083 2.32637 12.2639 4.04961C11.9767 4.22193 11.632 4.16449 11.4023 3.93473L10.196 2.72846L7.61115 11.718L16.6869 9.44909L15.7104 8.41514C15.538 8.24282 15.4806 8.01305 15.5093 7.78329C15.5668 7.55352 15.7104 7.35248 15.9401 7.26632C17.9506 6.4047 20.0759 5.94517 22.2587 5.94517C30.9897 5.94517 38.0837 13.0392 38.0837 21.7702C38.0837 30.5013 30.9897 37.5953 22.2587 37.5953C17.29 37.5953 12.7234 35.3264 9.70776 31.3916C9.47799 31.0757 9.53544 30.6162 9.85136 30.3864C10.1673 30.1567 10.6268 30.2141 10.8566 30.53C13.6138 34.1201 17.7783 36.1593 22.2874 36.1593C30.2143 36.1593 36.6764 29.6971 36.6764 21.7702C36.6764 13.8433 30.2143 7.3812 22.2874 7.3812C20.6503 7.3812 19.0707 7.66841 17.5198 8.18538L18.6399 9.3342C18.8122 9.50653 18.8984 9.79373 18.8122 10.0235C18.6973 10.282 18.4963 10.483 18.2665 10.5405L6.77826 13.4125C6.51977 13.47 6.26128 13.4125 6.08896 13.2115C5.91664 13.0104 5.83047 12.752 5.91664 12.5222L9.16207 1.14883C9.21951 0.890339 9.42055 0.718016 9.67904 0.660574C9.93752 0.603133 10.196 0.660574 10.3683 0.861619L12.0341 2.58486C15.1647 0.890339 18.6973 0 22.23 0C34.2352 0 44.0002 9.76501 44.0002 21.7415C44.0002 33.7467 34.2352 43.5117 22.23 43.5117Z" fill="#2B1FC7"/>
<path d="M29.2666 27.6579C29.0943 27.6579 28.8933 27.6005 28.7497 27.4569L23.5799 22.2872C23.4651 22.1148 23.3789 21.9425 23.3789 21.7415V12.2637C23.3789 11.8616 23.6948 11.5457 24.0969 11.5457C24.499 11.5457 24.8149 11.8616 24.8149 12.2637V21.483L29.7836 26.4517C30.0708 26.7389 30.0708 27.1984 29.7836 27.4569C29.64 27.5718 29.4677 27.6579 29.2666 27.6579Z" fill="#2B1FC7"/>
</g>
<defs>
<clipPath id="clip0_34_2097">
<rect width="44" height="43.5117" fill="white"/>
</clipPath>
</defs>
</svg>
