<svg width="44" height="42" viewBox="0 0 44 42" fill="none" xmlns="http://www.w3.org/2000/svg">
<g clip-path="url(#clip0_34_2066)">
<path d="M28.3074 41.3716H0.656248C0.445973 41.3716 0.235698 41.2664 0.104277 41.0824C-0.000860657 40.8984 -0.027145 40.6882 0.051708 40.4779L7.17477 22.184V15.4815H6.07082C5.70284 15.4815 5.41372 15.1923 5.41372 14.8244V9.17322C5.41372 8.80524 5.70284 8.51611 6.07082 8.51611H22.7877C23.1557 8.51611 23.4448 8.80524 23.4448 9.17322V14.8506C23.4448 15.2186 23.1557 15.5078 22.7877 15.5078H22.1568V21.816C22.1568 22.184 21.8677 22.4731 21.4997 22.4731C21.1318 22.4731 20.8426 22.184 20.8426 21.816V14.8506C20.8426 14.4827 21.1318 14.1935 21.4997 14.1935H22.1568V9.83033H6.72793V14.1935H7.80559C8.17357 14.1935 8.4627 14.4827 8.4627 14.8506V22.3154C8.4627 22.3943 8.43642 22.4731 8.41013 22.552L1.60248 40.0573H27.7291C27.808 39.9785 27.8868 39.8996 27.992 39.8733C28.3337 39.7419 28.7016 39.9259 28.8331 40.2676L28.9119 40.5042C28.9908 40.7144 28.9645 40.9247 28.8331 41.1087C28.7279 41.2664 28.5439 41.3716 28.3074 41.3716Z" fill="#2B1FC7"/>
<path d="M11.7228 6.49233C10.3823 6.49233 9.30469 5.41467 9.30469 4.07417C9.30469 2.73366 10.3823 1.65601 11.7228 1.65601C13.0633 1.65601 14.141 2.73366 14.141 4.07417C14.1673 5.38838 13.0633 6.49233 11.7228 6.49233ZM11.7228 2.94394C11.1183 2.94394 10.6189 3.44334 10.6189 4.04788C10.6189 4.65242 11.1183 5.15182 11.7228 5.15182C12.3274 5.15182 12.8268 4.65242 12.8268 4.04788C12.8531 3.44334 12.3537 2.94394 11.7228 2.94394Z" fill="#2B1FC7"/>
<path d="M18.2142 4.10036C17.084 4.10036 16.1641 3.18041 16.1641 2.05018C16.1641 0.919952 17.084 0 18.2142 0C19.3445 0 20.2644 0.919952 20.2644 2.05018C20.2644 3.18041 19.3445 4.10036 18.2142 4.10036ZM18.2142 1.31422C17.82 1.31422 17.4783 1.65591 17.4783 2.05018C17.4783 2.44444 17.82 2.78614 18.2142 2.78614C18.6085 2.78614 18.9502 2.44444 18.9502 2.05018C18.9502 1.65591 18.6085 1.31422 18.2142 1.31422Z" fill="#2B1FC7"/>
<path d="M31.2783 41.5293C24.2603 41.5293 18.5566 35.8256 18.5566 28.8077C18.5566 23.9976 21.2902 19.5819 25.5746 17.4528V6.54483H24.3918C24.0238 6.54483 23.7347 6.25571 23.7347 5.88773V2.68103C23.7347 2.31305 24.0238 2.02393 24.3918 2.02393H38.191C38.559 2.02393 38.8482 2.31305 38.8482 2.68103V5.91401C38.8482 6.28199 38.559 6.57112 38.191 6.57112H36.982V17.4791C41.2663 19.6344 43.9999 24.0502 43.9999 28.834C43.9999 35.8256 38.2962 41.5293 31.2783 41.5293ZM25.0489 5.23062H26.258C26.6259 5.23062 26.9151 5.51974 26.9151 5.88773V17.8734C26.9151 18.1362 26.7574 18.3728 26.5208 18.4779C22.473 20.3441 19.8709 24.3919 19.8709 28.834C19.8709 35.1159 24.9963 40.2414 31.2783 40.2414C37.5602 40.2414 42.6857 35.1159 42.6857 28.834C42.6857 24.3919 40.0835 20.3441 36.0357 18.4779C35.7992 18.3728 35.6415 18.1362 35.6415 17.8734V5.88773C35.6415 5.51974 35.9306 5.23062 36.2986 5.23062H37.5077V3.33814H25.0489V5.23062Z" fill="#2B1FC7"/>
</g>
<defs>
<clipPath id="clip0_34_2066">
<rect width="44" height="41.5293" fill="white"/>
</clipPath>
</defs>
</svg>
