<svg width="44" height="43" viewBox="0 0 44 43" fill="none" xmlns="http://www.w3.org/2000/svg">
<g clip-path="url(#clip0_34_2129)">
<path d="M22.0827 35.0099H22.0492C19.339 34.9768 17.1641 33.1533 17.1641 30.8989C17.1641 30.4347 17.5321 30.0701 18.0006 30.0701C18.469 30.0701 18.8371 30.4347 18.8371 30.8989C18.8371 32.2582 20.2758 33.3522 22.0492 33.3522C22.9192 33.3854 23.7892 33.087 24.4249 32.5897C24.9937 32.1256 25.3283 31.562 25.3283 30.932C25.3283 30.3021 25.0272 29.7385 24.4584 29.2744C23.8226 28.7439 22.9861 28.4787 22.0827 28.4787C19.3724 28.4455 17.1641 26.5889 17.1975 24.3345C17.1975 23.2073 17.7329 22.1795 18.7032 21.417C19.6401 20.6876 20.8112 20.3229 22.1162 20.2898C24.8264 20.3229 27.0013 22.1464 27.0013 24.4008C27.0013 24.865 26.6333 25.2297 26.1648 25.2297C25.6964 25.2297 25.3283 24.865 25.3283 24.4008C25.3283 23.0415 23.8895 21.9475 22.1162 21.9475H22.0827C21.2127 21.9475 20.3762 22.2127 19.7405 22.71C19.1717 23.1741 18.8371 23.7378 18.8371 24.3677C18.8371 25.727 20.2758 26.821 22.0492 26.821C23.3207 26.821 24.5253 27.252 25.4622 27.9814C26.4325 28.7771 26.9679 29.8048 26.9679 30.932C26.9679 32.0593 26.4325 33.1202 25.4287 33.8827C24.5253 34.6121 23.3207 35.0099 22.0827 35.0099Z" fill="#2B1FC7"/>
<path d="M22.1158 21.9475C21.6474 21.9475 21.2793 21.5828 21.2793 21.1187V19.03C21.2793 18.5659 21.6474 18.2012 22.1158 18.2012C22.5842 18.2012 22.9523 18.5659 22.9523 19.03V21.1187C22.9523 21.5828 22.5842 21.9475 22.1158 21.9475Z" fill="#2B1FC7"/>
<path d="M22.0162 37.0986C21.5477 37.0986 21.1797 36.7339 21.1797 36.2698V34.1811C21.1797 33.717 21.5477 33.3523 22.0162 33.3523C22.4846 33.3523 22.8527 33.717 22.8527 34.1811V36.2698C22.8527 36.7339 22.4846 37.0986 22.0162 37.0986Z" fill="#2B1FC7"/>
<path d="M22.0167 43C12.2129 43 5.55437 41.3423 2.27529 38.0933C0 35.8389 0 33.3855 0 32.4572V32.3577C0 30.3022 0.267681 26.589 2.1749 24.6993C2.44259 24.4341 2.74373 24.1357 3.07833 23.8373C4.65095 22.2791 6.42433 20.5551 7.49506 18.7648C8.90038 16.4109 10.5734 14.5875 12.3468 13.4271C14.1536 12.2668 20.6783 12.2999 21.9833 12.3331C23.3217 12.2999 29.8129 12.2668 31.6198 13.4271C33.3932 14.5544 35.0996 16.4109 36.4715 18.7648C37.5422 20.5551 39.3156 22.2791 40.8882 23.8042C41.1894 24.1025 41.4905 24.4009 41.7916 24.6661C43.6989 26.5559 43.9665 30.2691 43.9665 32.3246V32.424C43.9665 33.3523 43.9665 35.8057 41.6913 38.0601C38.4791 41.3423 31.8205 43 22.0167 43ZM21.1802 13.9907C18.2023 13.9907 14.1871 14.2228 13.2502 14.8196C11.6776 15.8142 10.1719 17.4719 8.93384 19.5937C7.76274 21.5829 5.82205 23.4726 4.24943 24.9977C3.94829 25.2961 3.64715 25.5944 3.37947 25.8597C2.30875 26.9206 1.673 29.3408 1.673 32.3577V32.4572C1.673 33.3192 1.673 35.1426 3.44639 36.9329C5.48745 38.9553 10.3392 41.3423 21.9833 41.3423C33.6274 41.3423 38.5125 38.9553 40.5201 36.9329C42.327 35.1426 42.327 33.3192 42.2935 32.4572V32.3577C42.2935 29.3408 41.6578 26.9206 40.5871 25.8597C40.3194 25.5944 40.0182 25.2961 39.7171 24.9977C38.1445 23.4726 36.2038 21.5829 35.0327 19.5937C33.7612 17.4719 32.289 15.8142 30.7164 14.8196C29.7125 14.1565 24.9947 13.9576 21.9833 13.9907H21.9498C21.749 13.9907 21.4814 13.9907 21.1802 13.9907Z" fill="#2B1FC7"/>
<path d="M40.2861 25.1966C40.1188 25.1966 39.9515 25.1303 39.7842 25.0308C39.4496 24.7656 39.3492 24.3346 39.55 23.9699C39.5834 23.8373 39.8846 22.7101 39.3157 18.4333C38.68 13.7586 35.4344 12.101 31.6199 10.5759C28.1735 9.2166 22.0503 9.11714 21.9834 9.11714C21.95 9.11714 15.8268 9.2166 12.3804 10.5759C8.56592 12.101 5.32029 13.7586 4.68455 18.4333C4.11573 22.7101 4.38341 23.8373 4.45033 23.9699C4.65109 24.3346 4.55071 24.7656 4.21611 25.0308C3.84805 25.296 3.31269 25.2297 3.04501 24.865C2.40927 24.003 2.67695 20.7872 3.04501 18.2343C3.88151 12.2004 8.63284 10.3107 11.7781 9.05084C15.4922 7.55893 21.7492 7.45947 21.9834 7.45947C22.2846 7.45947 28.5081 7.55893 32.2222 9.05084C35.3674 10.3107 40.1522 12.2004 40.9553 18.2343C41.3233 20.7872 41.591 24.0362 40.9553 24.865C40.8214 25.0639 40.5538 25.1966 40.2861 25.1966Z" fill="#2B1FC7"/>
<path d="M18.5027 6.19969C16.7627 6.19969 15.3574 4.80725 15.3574 3.08327C15.3574 1.35929 16.7627 0 18.5027 0C20.2426 0 21.6479 1.39244 21.6479 3.11642C21.6479 4.8404 20.2091 6.19969 18.5027 6.19969ZM18.5027 1.65767C17.6996 1.65767 17.0304 2.32074 17.0304 3.11642C17.0304 3.9121 17.6996 4.57517 18.5027 4.57517C19.3057 4.57517 19.9749 3.9121 19.9749 3.11642C19.9749 2.32074 19.3057 1.65767 18.5027 1.65767Z" fill="#2B1FC7"/>
<path d="M25.53 6.19969C23.7901 6.19969 22.3848 4.80725 22.3848 3.08327C22.3848 1.35929 23.7901 0 25.53 0C27.2699 0 28.6753 1.39244 28.6753 3.11642C28.6753 4.8404 27.2365 6.19969 25.53 6.19969ZM25.53 1.65767C24.727 1.65767 24.0578 2.32074 24.0578 3.11642C24.0578 3.9121 24.727 4.57517 25.53 4.57517C26.3331 4.57517 27.0023 3.9121 27.0023 3.11642C27.0023 2.32074 26.3331 1.65767 25.53 1.65767Z" fill="#2B1FC7"/>
<path d="M13.8867 10.1119C13.7194 10.1119 13.5186 10.0456 13.3848 9.94612C13.0167 9.64774 12.9498 9.11728 13.2175 8.75259L16.5635 4.4758C16.8647 4.14427 17.4 4.07796 17.7681 4.37634C18.1361 4.64157 18.2031 5.17202 17.9019 5.53671L14.5559 9.8135C14.3886 10.0124 14.1209 10.1119 13.8867 10.1119Z" fill="#2B1FC7"/>
<path d="M30.1136 10.1117C29.8794 10.1117 29.6117 10.0122 29.4444 9.78015L26.0984 5.50336C25.8307 5.17183 25.8976 4.64137 26.2657 4.37614C26.6003 4.07776 27.1356 4.14407 27.4368 4.50876L30.7828 8.78555C31.0839 9.11708 31.017 9.64754 30.6489 9.94592C30.4816 10.0454 30.3143 10.1117 30.1136 10.1117Z" fill="#2B1FC7"/>
</g>
<defs>
<clipPath id="clip0_34_2129">
<rect width="44" height="43" fill="white"/>
</clipPath>
</defs>
</svg>
