<svg width="44" height="44" viewBox="0 0 44 44" fill="none" xmlns="http://www.w3.org/2000/svg">
<g clip-path="url(#clip0_34_2206)">
<path d="M22.0001 25.2297C20.2275 25.2297 18.7705 23.7727 18.7705 22.0001C18.7705 20.2275 20.2275 18.7705 22.0001 18.7705C23.7727 18.7705 25.2297 20.2275 25.2297 22.0001C25.2297 23.7727 23.7727 25.2297 22.0001 25.2297ZM22.0001 19.9846C20.8831 19.9846 19.9846 20.8831 19.9846 22.0001C19.9846 23.1171 20.8831 24.0155 22.0001 24.0155C23.1171 24.0155 24.0155 23.1171 24.0155 22.0001C24.0155 20.8831 23.1171 19.9846 22.0001 19.9846Z" fill="#2B1FC7"/>
<path d="M22.0001 25.2297C20.2275 25.2297 18.7705 23.7727 18.7705 22.0001C18.7705 20.2275 20.2275 18.7705 22.0001 18.7705C23.7727 18.7705 25.2297 20.2275 25.2297 22.0001C25.2297 23.7727 23.7727 25.2297 22.0001 25.2297ZM22.0001 19.9846C20.8831 19.9846 19.9846 20.8831 19.9846 22.0001C19.9846 23.1171 20.8831 24.0155 22.0001 24.0155C23.1171 24.0155 24.0155 23.1171 24.0155 22.0001C24.0155 20.8831 23.1171 19.9846 22.0001 19.9846Z" fill="#2B1FC7"/>
<path d="M21.9996 30.1833C17.4831 30.1833 13.8164 26.5167 13.8164 22.0001C13.8164 17.4836 17.4831 13.8169 21.9996 13.8169C26.5162 13.8169 30.1829 17.4836 30.1829 22.0001C30.1829 26.5167 26.5162 30.1833 21.9996 30.1833ZM21.9996 15.031C18.163 15.031 15.0305 18.1635 15.0305 22.0001C15.0305 25.8368 18.163 28.9692 21.9996 28.9692C25.8363 28.9692 28.9687 25.8368 28.9687 22.0001C28.9687 18.1635 25.8363 15.031 21.9996 15.031Z" fill="#2B1FC7"/>
<path d="M22.0001 40.9162C11.5586 40.9162 3.08398 32.4416 3.08398 22.0001C3.08398 11.5586 11.5586 3.08398 22.0001 3.08398C32.4416 3.08398 40.9162 11.5586 40.9162 22.0001C40.9162 32.4416 32.4416 40.9162 22.0001 40.9162ZM22.0001 4.29811C12.2385 4.29811 4.29811 12.2385 4.29811 22.0001C4.29811 31.7617 12.2385 39.7021 22.0001 39.7021C31.7617 39.7021 39.7021 31.7617 39.7021 22.0001C39.7021 12.2385 31.7617 4.29811 22.0001 4.29811Z" fill="#2B1FC7"/>
<path d="M21.9996 44.0002C21.6597 44.0002 21.3926 43.7331 21.3926 43.3931V27.1481C21.3926 26.8081 21.6597 26.541 21.9996 26.541C22.3396 26.541 22.6067 26.8081 22.6067 27.1481V43.3931C22.6067 43.7331 22.3396 44.0002 21.9996 44.0002Z" fill="#2B1FC7"/>
<path d="M21.9996 17.5563C21.6597 17.5563 21.3926 17.2892 21.3926 16.9492V0.607064C21.3926 0.267108 21.6597 0 21.9996 0C22.3396 0 22.6067 0.267108 22.6067 0.607064V16.9492C22.6067 17.2892 22.3396 17.5563 21.9996 17.5563Z" fill="#2B1FC7"/>
<path d="M16.8521 22.6072H0.607064C0.267108 22.6072 0 22.3401 0 22.0001C0 21.6602 0.267108 21.3931 0.607064 21.3931H16.8521C17.1921 21.3931 17.4592 21.6602 17.4592 22.0001C17.4592 22.3401 17.1921 22.6072 16.8521 22.6072Z" fill="#2B1FC7"/>
<path d="M43.3926 22.6072H27.0504C26.7105 22.6072 26.4434 22.3401 26.4434 22.0001C26.4434 21.6602 26.7105 21.3931 27.0504 21.3931H43.3926C43.7325 21.3931 43.9997 21.6602 43.9997 22.0001C43.9997 22.3401 43.7325 22.6072 43.3926 22.6072Z" fill="#2B1FC7"/>
</g>
<defs>
<clipPath id="clip0_34_2206">
<rect width="44" height="44" fill="white"/>
</clipPath>
</defs>
</svg>
