<svg width="44" height="50" viewBox="0 0 44 50" fill="none" xmlns="http://www.w3.org/2000/svg">
<g clip-path="url(#clip0_34_2227)">
<path d="M22.0002 32.0168C21.8158 32.0168 21.6315 31.9553 21.4778 31.8017C21.0784 31.433 11.584 22.338 11.584 11.3994C11.584 5.89944 14.3186 0 22.0002 0C29.6817 0 32.4164 5.89944 32.4164 11.3994C32.4164 22.338 22.922 31.4022 22.5225 31.8017C22.3996 31.9246 22.1845 32.0168 22.0002 32.0168ZM22.0002 1.53631C13.9806 1.53631 13.1203 8.41899 13.1203 11.3994C13.1203 20.2179 20.003 28.0531 22.0002 30.1425C23.9974 28.0531 30.8801 20.2179 30.8801 11.3994C30.8801 8.44972 30.0197 1.53631 22.0002 1.53631Z" fill="#2B1FC7"/>
<path d="M21.9994 17.7292C18.4351 17.7292 15.5469 14.841 15.5469 11.2767C15.5469 7.71249 18.4351 4.82422 21.9994 4.82422C25.5636 4.82422 28.4519 7.71249 28.4519 11.2767C28.4519 14.841 25.5636 17.7292 21.9994 17.7292ZM21.9994 6.36053C19.2955 6.36053 17.0832 8.57282 17.0832 11.2767C17.0832 13.9806 19.2955 16.1929 21.9994 16.1929C24.7033 16.1929 26.9156 13.9806 26.9156 11.2767C26.9156 8.57282 24.7033 6.36053 21.9994 6.36053Z" fill="#2B1FC7"/>
<path d="M32.6313 49.5002C32.5698 49.5002 32.5084 49.5002 32.4777 49.4695L22.0307 47.1958L11.5838 49.4695C11.4609 49.5002 11.3687 49.5002 11.2458 49.4695L0.614525 47.165C0.24581 47.1036 0 46.7656 0 46.4276V10.1706C0 9.9248 0.0921788 9.70972 0.276536 9.55609C0.460894 9.40245 0.706704 9.341 0.921788 9.40246L9.21788 11.2153C9.64805 11.3075 9.89386 11.7069 9.80168 12.1371C9.74022 12.5673 9.31006 12.8131 8.91061 12.7209L1.53631 11.1231V45.7823L11.3687 47.9332L21.8156 45.6594C21.9385 45.6287 22.0307 45.6287 22.1536 45.6594L32.6006 47.9332L42.433 45.7823V11.1231L35.0894 12.7209C34.6592 12.8131 34.2598 12.5365 34.1676 12.1371C34.0754 11.7069 34.352 11.3075 34.7514 11.2153L43.0475 9.40246C43.2626 9.341 43.5084 9.40245 43.6927 9.55609C43.8771 9.70972 43.9693 9.9248 43.9693 10.1706V46.4276C43.9693 46.7963 43.7235 47.1036 43.3548 47.1958L32.7542 49.531C32.7235 49.5002 32.662 49.5002 32.6313 49.5002Z" fill="#2B1FC7"/>
</g>
<defs>
<clipPath id="clip0_34_2227">
<rect width="44" height="49.5" fill="white"/>
</clipPath>
</defs>
</svg>
