<svg width="44" height="38" viewBox="0 0 44 38" fill="none" xmlns="http://www.w3.org/2000/svg">
<g clip-path="url(#clip0_34_1910)">
<path d="M11.159 21.2501C7.85455 21.2501 5.16016 18.5557 5.16016 15.2512V10.4471C5.16016 7.14264 7.85455 4.44824 11.159 4.44824C14.4634 4.44824 17.1578 7.14264 17.1578 10.4471V15.2512C17.1578 18.5557 14.4634 21.2501 11.159 21.2501ZM11.159 5.71918C8.56628 5.71918 6.4311 7.82895 6.4311 10.4471V15.2512C6.4311 17.844 8.54086 19.9791 11.159 19.9791C13.7771 19.9791 15.8869 17.844 15.8869 15.2512V10.4471C15.8869 7.85437 13.7771 5.71918 11.159 5.71918Z" fill="#2B1FC7"/>
<path d="M17.7678 36.3237H4.27036C1.93183 36.3237 0 34.4173 0 32.0533V27.0967C0 26.1307 0.610052 25.1648 1.77932 24.2243C2.74523 23.4618 3.88908 22.9025 5.21086 22.5213L9.40497 21.352C9.73541 21.2503 10.0913 21.4537 10.193 21.7841C10.2946 22.1146 10.0913 22.4704 9.76083 22.5721L5.56672 23.7668C4.42288 24.0972 3.40612 24.5802 2.59272 25.2411C2.00809 25.6986 1.29636 26.4103 1.29636 27.0967V32.0533C1.29636 33.7055 2.64356 35.0527 4.29578 35.0527H17.7932C19.4454 35.0527 20.7926 33.7055 20.7926 32.0533V27.0967C20.7926 26.4103 20.0809 25.6986 19.4962 25.2411C18.632 24.5802 17.6407 24.0972 16.4968 23.7668L12.4298 22.6229C12.0994 22.5213 11.896 22.1908 11.9723 21.835C12.0739 21.5045 12.4298 21.3012 12.7603 21.4028L16.8273 22.5467C18.1236 22.9025 19.2929 23.4872 20.2588 24.2497C21.4535 25.1902 22.0381 26.1562 22.0381 27.1221V32.0787C22.0381 34.4173 20.1317 36.3237 17.7678 36.3237Z" fill="#2B1FC7"/>
<path d="M9.55735 22.6226C9.20148 22.6226 8.92188 22.343 8.92188 21.9871V20.6145C8.92188 20.2586 9.20148 19.979 9.55735 19.979C9.91321 19.979 10.1928 20.2586 10.1928 20.6145V21.9871C10.2182 22.343 9.91321 22.6226 9.55735 22.6226Z" fill="#2B1FC7"/>
<path d="M12.6081 22.648C12.2523 22.648 11.9727 22.3684 11.9727 22.0125V20.6145C11.9727 20.2586 12.2523 19.979 12.6081 19.979C12.964 19.979 13.2436 20.2586 13.2436 20.6145V22.0125C13.2436 22.3684 12.964 22.648 12.6081 22.648Z" fill="#2B1FC7"/>
<path d="M11.0315 28.2148C8.9472 28.2148 7.24414 26.0034 7.24414 23.2836C7.24414 22.9786 7.26956 22.6735 7.3204 22.3685C7.37124 22.0126 7.70168 21.7839 8.05754 21.8347C8.38799 21.8601 8.61676 22.1906 8.56592 22.521C8.5405 22.7752 8.51508 23.004 8.51508 23.2582C8.51508 25.2408 9.65893 26.9185 11.0315 26.9185C12.3787 26.9185 13.548 25.2408 13.548 23.2582C13.548 23.004 13.5226 22.7752 13.4972 22.521C13.4209 22.1652 13.6751 21.8601 14.031 21.8093C14.3614 21.7585 14.6919 21.9872 14.7427 22.3431C14.7935 22.6481 14.819 22.9531 14.819 23.2582C14.819 25.978 13.1159 28.2148 11.0315 28.2148Z" fill="#2B1FC7"/>
<path d="M13.1412 11.1588C12.5565 11.1588 12.0482 11.0317 11.5398 10.8029C10.9043 10.5233 10.523 10.0912 10.1926 9.76075C9.86214 9.40488 9.63337 9.20153 9.30293 9.12527C8.54036 8.94734 7.49819 9.5574 6.27808 10.8538C6.04931 11.1079 5.64261 11.1334 5.36301 10.8792C5.10882 10.6504 5.0834 10.2437 5.33759 9.98952C6.91355 8.28645 8.31159 7.57473 9.58253 7.87975C10.3197 8.05768 10.7518 8.4898 11.1077 8.89651C11.3873 9.20153 11.6415 9.45572 12.0482 9.65907C12.7599 9.9641 13.8275 10.1674 16.1152 8.87109C16.4202 8.69315 16.8015 8.79483 16.9794 9.09986C17.1573 9.40488 17.0557 9.81158 16.7506 9.9641C15.3526 10.7521 14.1833 11.1588 13.1412 11.1588Z" fill="#2B1FC7"/>
<path d="M24.0213 16.8018C20.7169 16.8018 18.0225 14.1075 18.0225 10.803V5.99884C18.0225 2.6944 20.7169 0 24.0213 0C27.3258 0 30.0202 2.6944 30.0202 5.99884V10.803C30.0202 14.1075 27.3258 16.8018 24.0213 16.8018ZM24.0213 1.27094C21.4286 1.27094 19.2934 3.3807 19.2934 5.99884V10.803C19.2934 13.3957 21.4032 15.5309 24.0213 15.5309C26.614 15.5309 28.7492 13.4211 28.7492 10.803V5.99884C28.7238 3.40612 26.614 1.27094 24.0213 1.27094Z" fill="#2B1FC7"/>
<path d="M16.5227 20.0048C16.2939 20.0048 16.0651 19.8777 15.9381 19.649C15.7855 19.3185 15.9126 18.9372 16.2431 18.7847C16.8023 18.5051 17.4378 18.2763 18.0732 18.0984L22.2673 16.9291C22.5978 16.8275 22.9537 17.0308 23.0553 17.3613C23.1316 17.6917 22.9282 18.0476 22.5978 18.1492L18.4037 19.3185C17.8445 19.471 17.3107 19.6744 16.8023 19.9286C16.726 19.9794 16.6244 20.0048 16.5227 20.0048Z" fill="#2B1FC7"/>
<path d="M24.682 31.8754H23.2331C22.8773 31.8754 22.5977 31.5958 22.5977 31.24C22.5977 30.8841 22.8773 30.6045 23.2331 30.6045H24.682C25.0379 30.6045 25.3175 30.8841 25.3175 31.24C25.3175 31.5958 25.0124 31.8754 24.682 31.8754Z" fill="#2B1FC7"/>
<path d="M31.1896 19.9794C31.0879 19.9794 31.0117 19.954 30.91 19.9031C30.427 19.6743 29.8932 19.471 29.334 19.3185L25.267 18.1746C24.9366 18.073 24.7332 17.7171 24.8349 17.3867C24.9366 17.0562 25.2924 16.8529 25.6229 16.9545L29.6899 18.0984C30.3254 18.2763 30.91 18.5051 31.4692 18.7847C31.7742 18.9372 31.9268 19.3185 31.7742 19.6489C31.6472 19.8523 31.4184 19.9794 31.1896 19.9794Z" fill="#2B1FC7"/>
<path d="M22.4197 18.1743C22.0638 18.1743 21.7842 17.8947 21.7842 17.5389V16.1408C21.7842 15.785 22.0638 15.5054 22.4197 15.5054C22.7755 15.5054 23.0551 15.785 23.0551 16.1408V17.5389C23.0551 17.8693 22.7755 18.1743 22.4197 18.1743Z" fill="#2B1FC7"/>
<path d="M25.445 18.1998C25.0892 18.1998 24.8096 17.9202 24.8096 17.5643V16.1408C24.8096 15.785 25.0892 15.5054 25.445 15.5054C25.8009 15.5054 26.0805 15.785 26.0805 16.1408V17.5389C26.0805 17.9202 25.8009 18.1998 25.445 18.1998Z" fill="#2B1FC7"/>
<path d="M23.8685 23.7666C21.7841 23.7666 20.0811 21.5297 20.0811 18.8099C20.0811 18.5049 20.1065 18.1998 20.1573 17.8948C20.2081 17.5389 20.5386 17.3102 20.869 17.361C21.2249 17.4119 21.4537 17.7423 21.4028 18.0982C21.3774 18.3269 21.3774 18.5557 21.3774 18.8099C21.3774 20.7926 22.5213 22.4702 23.8939 22.4702C25.2411 22.4702 26.4103 20.7926 26.4103 18.8099C26.4103 18.5557 26.3849 18.3015 26.3595 18.0727C26.3087 17.7169 26.5629 17.3864 26.8933 17.3356C27.2492 17.2848 27.5796 17.5389 27.6304 17.8694C27.6813 18.1744 27.7067 18.4794 27.7067 18.7845C27.6559 21.5297 25.9528 23.7666 23.8685 23.7666Z" fill="#2B1FC7"/>
<path d="M25.9781 6.71035C25.4189 6.71035 24.8851 6.58325 24.3767 6.35448C23.7412 6.07488 23.3599 5.64276 23.0295 5.31231C22.6991 4.95645 22.4957 4.7531 22.1653 4.67684C21.3773 4.49891 20.3351 5.10896 19.115 6.40532C18.8862 6.65951 18.4795 6.68493 18.1999 6.43074C17.9457 6.20197 17.9203 5.79527 18.1745 5.51566C19.7251 3.83802 21.1739 3.12629 22.4194 3.4059C23.1566 3.58383 23.5887 4.01595 23.9446 4.42265C24.2242 4.72768 24.4784 4.98187 24.8851 5.18522C25.5714 5.49024 26.6644 5.69359 28.9267 4.39723C29.2317 4.2193 29.613 4.32098 29.7909 4.626C29.9688 4.93103 29.8672 5.31231 29.5621 5.49024C28.2149 6.30365 27.0203 6.71035 25.9781 6.71035Z" fill="#2B1FC7"/>
<path d="M34.8237 38.0013C29.7653 38.0013 25.6475 33.8835 25.6475 28.8251C25.6475 23.7668 29.7653 19.6489 34.8237 19.6489C39.882 19.6489 43.9999 23.7668 43.9999 28.8251C43.9999 33.8835 39.882 38.0013 34.8237 38.0013ZM34.8237 20.9453C30.477 20.9453 26.9438 24.4785 26.9438 28.8251C26.9438 33.1717 30.477 36.705 34.8237 36.705C39.1703 36.705 42.7035 33.1717 42.7035 28.8251C42.7035 24.4785 39.1703 20.9453 34.8237 20.9453Z" fill="#2B1FC7"/>
<path d="M33.4516 33.9594C33.2228 33.9594 33.0195 33.8323 32.9178 33.6798L29.9946 29.1807C29.7913 28.8756 29.893 28.4943 30.1726 28.291C30.4776 28.0876 30.8589 28.1893 31.0622 28.4689L33.477 32.2055L38.5862 25.4949C38.7896 25.2153 39.1963 25.1645 39.4759 25.3678C39.7555 25.5712 39.8063 25.9779 39.603 26.2575L33.9346 33.7052C33.8329 33.8831 33.655 33.9594 33.4516 33.9594Z" fill="#2B1FC7"/>
</g>
<defs>
<clipPath id="clip0_34_1910">
<rect width="44" height="38.0012" fill="white"/>
</clipPath>
</defs>
</svg>
