<svg width="44" height="45" viewBox="0 0 44 45" fill="none" xmlns="http://www.w3.org/2000/svg">
<g clip-path="url(#clip0_34_2081)">
<path d="M33.626 21.0221C33.5517 21.0221 33.4775 21.0221 33.4032 21.0221C33.1308 21.0221 32.8832 20.824 32.8089 20.5764L32.2889 18.6945C31.4471 18.5707 30.6547 18.2984 29.9119 17.927L28.4015 19.165C28.1786 19.3383 27.8815 19.3383 27.6587 19.1898C26.7178 18.546 25.9006 17.7784 25.2073 16.887C25.034 16.6642 25.034 16.367 25.2073 16.1442L26.3463 14.5595C25.9254 13.8167 25.6283 13.0491 25.4549 12.2072L23.5731 11.811C23.3008 11.7615 23.1027 11.5139 23.0779 11.2663C23.0036 10.1273 23.0779 9.01305 23.3503 7.92358C23.4493 7.62645 23.6722 7.45312 23.9445 7.42836L25.9006 7.32932C26.0492 6.93314 26.2473 6.56173 26.4454 6.19032C26.6682 5.8189 26.8911 5.47225 27.1634 5.15036L26.2968 3.39234C26.173 3.14473 26.2225 2.8476 26.4206 2.67428C27.2377 1.90669 28.1786 1.28767 29.2186 0.817216C29.4662 0.693412 29.7633 0.767694 29.9367 0.965781L31.249 2.47619C32.0661 2.22858 32.8832 2.12954 33.7251 2.12954L34.5669 0.371521C34.6907 0.123913 34.9383 -0.0246524 35.2107 0.0248693C36.325 0.198195 37.4144 0.544847 38.4049 1.04006C38.6525 1.16387 38.7763 1.43624 38.7268 1.70861L38.3801 3.63995C39.0734 4.11041 39.6924 4.70467 40.2124 5.37321L42.119 4.92751C42.3914 4.85323 42.6637 4.97704 42.7875 5.22464C43.357 6.21508 43.7532 7.25503 43.9761 8.36927C44.0256 8.64164 43.9018 8.91401 43.6542 9.03781L41.9457 9.90444C41.9952 10.7463 41.9209 11.5882 41.7228 12.4053L43.258 13.6186C43.4808 13.7919 43.5551 14.089 43.4561 14.3366C43.258 14.8566 43.0104 15.3766 42.738 15.847C42.4656 16.3175 42.119 16.788 41.7723 17.2336C41.599 17.4565 41.3019 17.506 41.0543 17.407L39.2715 16.6394C38.6525 17.2089 37.9592 17.6793 37.1916 18.026L37.2163 19.9821C37.2163 20.2545 37.043 20.5021 36.7706 20.5764C35.7307 20.8735 34.6907 21.0221 33.626 21.0221ZM29.8624 16.5899C29.9614 16.5899 30.0605 16.6146 30.1595 16.6641C31.0014 17.1346 31.9175 17.4317 32.8584 17.5308C33.106 17.5555 33.3289 17.7289 33.3784 17.9765L33.8736 19.784C34.5669 19.7593 35.2602 19.6602 35.904 19.4869L35.8793 17.6051C35.8793 17.3575 36.0278 17.1346 36.2754 17.0356C37.1668 16.6642 37.9592 16.1442 38.6525 15.4509C38.8258 15.2775 39.0982 15.228 39.3458 15.3271L41.079 16.0699C41.2771 15.7975 41.4752 15.5004 41.6485 15.2033C41.8219 14.9061 41.9704 14.609 42.119 14.2871L40.6333 13.1234C40.4352 12.9748 40.361 12.7024 40.4105 12.4548C40.6829 11.5387 40.7571 10.573 40.6581 9.60731C40.6333 9.3597 40.7571 9.1121 40.98 8.98829L42.639 8.0969C42.4656 7.42836 42.218 6.78458 41.8961 6.16556L40.1134 6.63601C39.8658 6.68553 39.6181 6.58649 39.4696 6.3884C38.9001 5.59606 38.2068 4.95227 37.3897 4.4323C37.1668 4.30849 37.0678 4.03612 37.1173 3.78852L37.464 1.93145C36.8449 1.65908 36.1764 1.43624 35.5078 1.31243L34.666 3.02093C34.5669 3.24378 34.3193 3.39234 34.0717 3.36758C33.106 3.31806 32.1651 3.44186 31.249 3.76375C31.0014 3.83804 30.7538 3.78852 30.5804 3.59043L29.3424 2.17906C28.7234 2.47619 28.1539 2.87236 27.6339 3.31806L28.4758 5.0018C28.5996 5.22464 28.5501 5.49701 28.3767 5.6951C28.0548 6.04175 27.7825 6.43793 27.5349 6.85886C27.2872 7.27979 27.0892 7.70073 26.9406 8.14642C26.8663 8.39403 26.6435 8.5426 26.3959 8.56736L24.4645 8.64164C24.3407 9.31018 24.2912 10.0035 24.2912 10.6968L26.1235 11.093C26.3711 11.1425 26.5692 11.3406 26.5939 11.5882C26.7425 12.5291 27.0892 13.4452 27.6091 14.2376C27.7329 14.4604 27.7329 14.7328 27.5844 14.9309L26.4949 16.4908C26.9406 17.0108 27.4358 17.4813 27.9806 17.9022L29.4414 16.7137C29.59 16.6146 29.7138 16.5899 29.8624 16.5899Z" fill="#2B1FC7"/>
<path d="M33.6264 14.9804C32.834 14.9804 32.0665 14.7823 31.3484 14.3614C30.3084 13.7423 29.5656 12.7767 29.2685 11.5881C28.9714 10.4244 29.1447 9.21111 29.7637 8.17115C30.3827 7.1312 31.3484 6.38837 32.5369 6.09124C33.7007 5.79411 34.914 5.96744 35.9539 6.58646C38.0833 7.84926 38.8014 10.6225 37.5386 12.7767C36.672 14.188 35.1616 14.9804 33.6264 14.9804ZM31.9674 13.2719C33.5274 14.188 35.533 13.6681 36.4491 12.1081C37.3653 10.5482 36.8453 8.54256 35.2854 7.62641C34.5425 7.18072 33.6512 7.05691 32.8093 7.27976C31.9674 7.50261 31.2494 8.02259 30.8037 8.79017C30.358 9.533 30.2342 10.4244 30.457 11.2663C30.6799 12.1329 31.2246 12.8262 31.9674 13.2719Z" fill="#2B1FC7"/>
<path d="M14.9559 44.6934C14.4112 44.6934 13.8417 44.6686 13.297 44.5944C13.0246 44.5696 12.8265 44.3715 12.7522 44.1239L12.0342 40.905C11.1428 40.6326 10.2762 40.2612 9.4838 39.7908L6.46298 41.5983C6.24014 41.7221 5.96777 41.7221 5.76968 41.5488C5.20018 41.1031 4.65544 40.6079 4.13546 40.0879C3.96214 39.8898 3.91262 39.6174 4.03642 39.3698L5.6954 36.2004C5.17542 35.4081 4.72972 34.5662 4.40783 33.6748L0.767992 33.0558C0.520383 33.0063 0.322297 32.8082 0.272775 32.5606L0.248014 32.4615C0.223253 32.3873 0.223253 32.2882 0.198492 32.2139C0.0994491 31.6692 0.0251666 31.0997 0.000405812 30.5302C-0.024355 30.2578 0.148971 30.035 0.371818 29.9359L3.73929 28.5493C3.83834 27.5341 4.03642 26.5685 4.38307 25.6276L2.05555 22.9039C1.88223 22.7058 1.85747 22.4087 1.98127 22.1858C2.32792 21.5915 2.7241 21.022 3.14503 20.4773C3.2936 20.2792 3.56597 20.1802 3.81357 20.2792L7.10676 21.3192C7.87435 20.5516 8.74098 19.9078 9.65713 19.3631L9.63237 16.1442C9.63237 15.8718 9.8057 15.6489 10.0533 15.5499C10.7218 15.3271 11.4399 15.129 12.158 14.9804C12.4056 14.9309 12.6532 15.0547 12.8018 15.2528L14.4607 17.8527C15.575 17.7784 16.6892 17.8279 17.7787 18.0507L19.5862 15.8718C19.7596 15.6737 20.0319 15.5994 20.2795 15.6985C21.0224 15.9708 21.7404 16.3175 22.409 16.6889C22.6318 16.8127 22.7556 17.0603 22.7061 17.3079L22.3347 20.0316C23.2508 20.7002 24.0679 21.4677 24.7612 22.3591L27.2868 21.8887C27.5592 21.8392 27.8068 21.963 27.9306 22.1858C28.3516 22.9039 28.6982 23.6467 28.9953 24.439C29.0944 24.6866 29.0201 24.9343 28.822 25.1076L26.9154 26.8408C26.9897 27.1132 27.0392 27.3856 27.0888 27.6332C27.2373 28.4255 27.2868 29.2674 27.2373 30.0845L29.4658 31.3473C29.6886 31.4711 29.8125 31.7187 29.7629 31.9911C29.6391 32.833 29.441 33.6748 29.1687 34.4672C29.0944 34.7148 28.8715 34.8881 28.5992 34.8881L25.9498 34.9872C25.4793 35.9033 24.9098 36.7452 24.2165 37.5128L25.1822 40.1126C25.2812 40.3603 25.2069 40.6079 25.0088 40.7812C24.3898 41.3507 23.7213 41.8707 23.028 42.3164C22.8051 42.4649 22.5328 42.4402 22.3099 42.2916L19.9824 40.5088C19.1405 40.8555 18.2739 41.1031 17.3825 41.2516C17.333 41.2516 17.2587 41.2764 17.2092 41.2764L16.1445 44.2725C16.0702 44.5201 15.8473 44.6686 15.5997 44.6934C15.4264 44.6934 15.2036 44.6934 14.9559 44.6934ZM13.8665 43.4306C14.3122 43.4554 14.7331 43.4801 15.1788 43.4801L16.2188 40.5336C16.293 40.3107 16.4911 40.1622 16.7387 40.1374C16.9121 40.1126 17.0854 40.0879 17.2339 40.0631C18.1501 39.9146 19.0167 39.6422 19.8586 39.246C20.0567 39.147 20.3043 39.1717 20.5024 39.3203L22.7556 41.0536C23.1518 40.7812 23.5232 40.4841 23.8946 40.1622L22.9289 37.587C22.8547 37.3642 22.9042 37.1166 23.0527 36.9433C23.8451 36.1262 24.5136 35.1605 24.9841 34.1205C25.0831 33.9224 25.2812 33.7739 25.5288 33.7739L28.104 33.6748C28.2525 33.2044 28.3516 32.7092 28.4506 32.2139L26.2716 30.9759C26.0736 30.8521 25.9498 30.6292 25.9498 30.3816C26.024 29.5398 25.9745 28.6731 25.826 27.856C25.7764 27.5094 25.6774 27.1627 25.6031 26.8161C25.5536 26.5932 25.6031 26.3456 25.7764 26.1971L27.6335 24.4886C27.4602 24.0429 27.2373 23.5972 27.0145 23.1762L24.6374 23.6467C24.3898 23.6962 24.167 23.5972 24.0184 23.3991C23.2756 22.4087 22.3842 21.542 21.3442 20.8487C21.1462 20.7002 21.0471 20.4773 21.0719 20.2545L21.4185 17.5803C21.0471 17.3574 20.6509 17.1841 20.2548 17.0108L18.4967 19.1402C18.3482 19.3135 18.1006 19.3878 17.8777 19.3383C16.6892 19.0659 15.4512 18.9917 14.2131 19.1402C13.9655 19.165 13.7427 19.0659 13.5941 18.8679L11.9846 16.2927C11.5885 16.367 11.2418 16.4661 10.8704 16.5899L10.8952 19.7345C10.8952 19.9573 10.7714 20.1802 10.5733 20.2792C9.50857 20.824 8.56765 21.5668 7.75055 22.4334C7.57722 22.6067 7.32961 22.681 7.10676 22.6067L3.88786 21.5915C3.66501 21.8639 3.49168 22.1363 3.2936 22.4334L5.57159 25.0828C5.72016 25.2561 5.76968 25.5038 5.67064 25.7018C5.2497 26.7666 5.00209 27.8808 4.95257 28.995C4.92781 29.2426 4.77925 29.4407 4.58116 29.5398L1.28797 30.9016C1.31273 31.2483 1.36225 31.5949 1.41177 31.9416L5.00209 32.5358C5.22494 32.5854 5.42303 32.7339 5.49731 32.9568C5.84396 33.972 6.31442 34.9376 6.9582 35.829C7.10676 36.0271 7.10676 36.2747 7.00772 36.4728L5.39827 39.5679C5.67064 39.8403 5.96777 40.0879 6.24014 40.3355L9.2362 38.5775C9.43428 38.4537 9.68189 38.4537 9.87998 38.5775C10.7714 39.147 11.7618 39.5679 12.777 39.8403C12.9998 39.8898 13.1732 40.0879 13.2227 40.3107L13.8665 43.4306Z" fill="#2B1FC7"/>
<path d="M15.427 36.8938C11.9357 36.8938 8.84057 34.3682 8.22155 30.8026C7.55301 26.8409 10.2272 23.0525 14.2137 22.3839C16.145 22.062 18.0764 22.5077 19.6611 23.622C21.2457 24.761 22.3105 26.4447 22.6324 28.3513C22.9542 30.2826 22.5086 32.214 21.3943 33.7987C20.2553 35.3833 18.5716 36.4481 16.665 36.77C16.2441 36.8442 15.8231 36.8938 15.427 36.8938ZM15.4517 23.5229C15.1051 23.5229 14.7584 23.5477 14.4365 23.5972C11.1433 24.1667 8.91485 27.2866 9.45959 30.5797C10.0291 33.8729 13.149 36.1014 16.4421 35.5567C18.0516 35.2843 19.4382 34.4177 20.3791 33.0806C21.32 31.7683 21.6914 30.1588 21.4191 28.5494C21.1467 26.9399 20.2801 25.5533 18.943 24.6124C17.903 23.8943 16.6898 23.5229 15.4517 23.5229Z" fill="#2B1FC7"/>
</g>
<defs>
<clipPath id="clip0_34_2081">
<rect width="44" height="44.6933" fill="white"/>
</clipPath>
</defs>
</svg>
