<svg width="1620" height="435" viewBox="0 0 1620 435" fill="none" xmlns="http://www.w3.org/2000/svg">
<rect width="1620" height="435" fill="url(#paint0_linear_132_2985)"/>
<mask id="mask0_132_2985" style="mask-type:alpha" maskUnits="userSpaceOnUse" x="0" y="0" width="1620" height="435">
<rect width="1620" height="435" fill="url(#paint1_linear_132_2985)"/>
</mask>
<g mask="url(#mask0_132_2985)">
<path d="M172.365 232.987L180.063 228.553L187.505 232.817L190 234.245V231.239L181.364 226.272V204.867L190 199.878V196.872L179.999 202.607L173.602 198.94L161.383 191.883V170.436L173.602 163.379L179.999 159.712L185.842 163.102L189.936 165.447V162.462L181.3 157.474V136.026L189.936 131.038V128.032L187.42 129.503L179.999 133.766L172.322 129.353L161.426 123.064V101.617L170.36 96.4575L179.999 90.8931L189.68 96.4788L189.936 96.628V93.622L188.678 92.8971L181.3 88.6333V67.2499L189.936 62.2611V59.2764H189.787L179.999 64.9474L170.275 59.3404L161.426 54.2237V32.7764L169.401 28.1713L180.063 22.0527L190 27.7876V24.7816L181.364 19.8141V-1.63321L190 -6.62197V-9.628L188.571 -8.79654L180.042 -3.89308L171.469 -8.8605L161.532 -14.6168V-36.0641L172.429 -42.3533L180.106 -46.7878L187.526 -42.5239L190.043 -41.0528V-44.0376L181.406 -49.0263V-70.4737L188.422 -74.5244L190.043 -75.4624V-78.4684L185.948 -76.102L179.999 -72.7122L173.602 -76.3791L161.383 -83.4359V-104.883L170.232 -110L179.999 -115.607L189.765 -109.957H189.936V-112.878L181.3 -117.867V-139.314L189.936 -144.282V-147.288L185.948 -144.985L179.999 -141.553L173.708 -145.177L161.49 -152.34V-163H158.888V-152.34L147.33 -145.667L140.315 -141.617L133.043 -145.88L121.741 -152.34V-163H119.14V-152.34L107.497 -145.539L100.609 -141.553L93.956 -145.39L81.9078 -152.34V-163H79.3063V-152.34L67.3648 -145.454L60.733 -141.617L54.3357 -145.284L42.2236 -152.34V-163H39.6434V-152.34L26.9982 -145.049L21.0487 -141.617L14.6515 -145.241L2.47538 -152.34V-163H-0.104861V-152.34L-11.6625 -145.667L-18.6995 -141.617L-25.9497 -145.88L-37.2728 -152.34V-163H-39.8744V-152.34L-51.56 -145.603L-58.4477 -141.617L-65.0795 -145.454L-77.0211 -152.34V-163H-79.6226V-152.34L-91.5428 -145.39L-98.1959 -141.553L-104.593 -145.22L-116.769 -152.34V-163H-119.371V-152.34L-131.995 -144.985L-137.944 -141.553L-144.341 -145.177L-156.518 -152.34V-163H-159.055V-152.34L-170.655 -145.603L-177.692 -141.553L-184.943 -145.817L-196.266 -152.34V-163H-198.867V-152.34L-210.553 -145.539L-217.441 -141.553L-224.072 -145.39L-236.014 -152.34V-163H-238.615V-152.34L-250.557 -145.454L-257.146 -141.553L-263.543 -145.22L-275.762 -152.34V-163H-278.364V-152.34L-287 -147.288V-144.282L-277.063 -150.016L-266.38 -143.813L-258.49 -139.271V-117.867L-266.678 -113.134L-277.063 -107.143L-287 -112.878V-109.872L-278.364 -104.883V-83.4359L-287 -78.4684V-75.4624L-277.063 -81.1973L-265.121 -74.3112L-258.49 -70.4737V-49.0263L-269.152 -42.865L-277.042 -38.3026L-287 -44.0376V-41.0315L-278.364 -36.0641V-14.6168L-287 -9.628V-6.62197L-285.571 -7.36814L-277.042 -12.2716L-267.808 -7.00572L-258.532 -1.63321V19.8141L-269.791 26.21L-277.106 30.4738L-287 24.7816V27.7876L-286.168 28.2779L-278.364 32.7764V54.2237L-286.893 59.2124V62.1972L-284.505 60.854L-277.063 56.5902L-268.853 61.3231L-258.49 67.2499V88.5693L-265.313 92.5134L-277.063 99.293L-287 93.622V96.628L-278.364 101.617V123.064L-286.893 128.032V131.038L-276.956 125.303L-258.383 135.962V157.41L-266.593 162.143L-276.956 168.133L-287 162.462V165.447L-278.364 170.436V191.883L-287 196.872V199.878L-277.063 194.143L-258.49 204.803V226.25L-277.063 236.91L-287 231.282V234.288L-278.364 239.276V249.936H-275.762V239.276L-265.228 233.2L-257.146 228.553L-248.936 233.286L-238.573 239.276V249.936H-235.971V239.276L-225.608 233.286L-217.398 228.553L-209.082 233.35L-198.825 239.276V249.936H-196.223V239.276L-186.499 233.669L-177.65 228.553L-168.886 233.541L-159.055 239.276V249.936H-156.454V239.276L-145.557 232.987L-137.88 228.553L-130.417 232.817L-119.307 239.212V249.872H-116.705V239.212L-106.171 233.136L-98.132 228.489L-89.9222 233.222L-79.5586 239.212V249.872H-76.9571V239.212L-66.5722 233.222L-58.3838 228.489L-50.046 233.286L-39.8104 239.212V249.872H-37.2089V239.212L-27.4851 233.605L-18.6355 228.489L-9.78601 233.541L0.0017667 239.191V249.851H2.582V239.191L13.4786 232.902L21.1553 228.467L28.6188 232.731L39.75 239.127V249.787H42.3302V239.127L52.8644 233.051L60.9249 228.403L69.1134 233.136L79.4982 239.127V249.787H81.9078V239.127L92.2714 233.136L100.481 228.403L108.798 233.2L119.055 239.127V249.787H121.656V239.127L131.359 233.52L140.229 228.403L149.015 233.477L158.803 239.127V249.787H161.404V239.127L172.365 232.987ZM178.762 136.026V157.474L170.723 162.121L160.189 168.197L149.932 162.271L141.615 157.474V136.026L160.189 125.367L178.762 136.026ZM-206.395 28.4272L-198.867 32.6911V54.1384L-207.184 58.9353L-217.441 64.8621L-227.825 58.8713L-236.014 54.1384V32.7764L-228.678 28.5125L-217.441 22.1166L-206.395 28.4272ZM-216.14 19.8994V-1.63321L-206.843 -7.00572L-197.567 -12.3569L-187.608 -6.62197L-179.078 -1.63321V19.8141L-189.741 25.9328L-197.716 30.5378L-205.03 26.2739L-216.14 19.8994ZM-216.14 67.2712L-205.755 61.2804L-197.567 56.5475L-188.696 61.6642L-178.993 67.2499V88.5693L-185.39 92.2362L-197.63 99.293L-209.38 92.5134L-216.14 88.5693V67.2712ZM-188.61 58.7434L-196.266 54.3303V32.7764L-189.357 28.8749L-177.692 22.1379L-165.73 28.8749L-159.055 32.7764V54.2237L-166.476 58.4876L-177.628 64.8834L-188.61 58.7434ZM-176.392 19.9207V-1.63321L-167.094 -7.00572L-157.818 -12.3569L-148.521 -7.00572L-139.245 -1.63321V19.8141L-150.76 26.4445L-157.818 30.5378L-165.346 26.2739L-176.392 19.9207ZM-176.392 67.2925L-166.135 61.387L-157.818 56.5688L-149.779 61.2165L-139.245 67.2499V88.5693L-145.642 92.2789L-157.797 99.293L-169.248 92.8332L-176.392 88.5693V67.2925ZM-147.668 59.4469L-156.518 54.3303V32.7764L-148.542 28.1713L-137.88 22.0527L-127.218 28.2779L-119.413 32.7764V54.2237L-128.199 59.2977L-137.987 64.9474L-147.668 59.4469ZM-136.643 19.9207V-1.63321L-126.578 -7.36814L-118.049 -12.2716L-108.751 -6.92044L-99.4754 -1.54793V19.8141L-110.735 26.21L-118.049 30.4738L-124.638 26.7429L-136.643 19.9207ZM-136.643 67.2925L-125.512 60.8967L-118.07 56.6328L-109.86 61.3657L-99.4967 67.2499V88.5693L-106.32 92.5134L-118.07 99.293L-129.201 92.8332L-136.601 88.5693L-136.643 67.2925ZM-108.751 58.9566L-116.769 54.3303V32.7764L-109.69 28.683L-98.1959 22.0527L-86.9581 28.4485L-79.6226 32.7124V54.1597L-87.7898 58.8927L-98.1959 64.8834L-108.751 58.9566ZM-96.8952 19.9207V-1.63321L-88.3655 -6.55801L-78.3218 -12.3569L-69.7922 -7.38947L-59.8551 -1.63321V19.8141L-71.5194 26.5511L-78.4285 30.5378L-86.2118 26.0181L-96.8952 19.9207ZM-96.8952 67.2925L-87.1074 61.6642L-78.3218 56.5688L-70.6238 61.0033L-59.7485 67.3991V88.5693L-67.3612 93.0677L-78.2792 99.4635L-91.0737 92.1296L-96.8952 88.5693V67.2925ZM-68.8326 59.0632L-77.0211 54.3303V32.7764L-69.6855 28.5125L-58.4477 22.1166L-47.4018 28.5125L-39.8744 32.7764V54.2237L-48.1695 59.0206L-58.4477 64.9474L-68.8326 59.0632ZM-57.147 19.9207V-1.63321L-47.8496 -7.00572L-38.5736 -12.3569L-28.6152 -6.62197L-20.0856 -1.63321V19.8141L-30.7477 25.9328L-38.7229 30.5378L-46.0371 26.2739L-57.147 19.9207ZM-57.147 67.2925L-46.7621 61.3017L-38.5736 56.5688L-29.7028 61.6855L-20.0003 67.2925V88.5693L-26.3975 92.2362L-38.6376 99.293L-50.3659 92.5134L-57.147 88.5693V67.2925ZM-29.5962 58.7647L-37.2728 54.3516V32.7764L-30.3425 28.8749L-18.6995 22.1379L-6.71533 28.8749L-0.104861 32.6911V54.1384L-7.54697 58.4023L-18.6995 64.7981L-29.5962 58.7647ZM-17.3987 19.942V-1.63321L-8.10142 -7.00572L1.1746 -12.3569L10.4719 -7.00572L19.7693 -1.63321V19.8141L8.25424 26.4445L1.1746 30.5378L-6.33151 26.2739L-17.3987 19.942ZM-17.3987 67.3138L-7.14181 61.4083L1.1746 56.5902L9.23513 61.2378L19.7693 67.3138V88.5693L13.372 92.2789L1.19591 99.293L-10.2338 92.684L-17.3987 88.5693V67.3138ZM11.3249 59.4683L2.47538 54.3516V32.7764L10.4719 28.1713L21.134 22.0527L31.7961 28.2779L39.622 32.7764V54.2237L30.8152 59.2977L21.0274 64.9474L11.3249 59.4683ZM22.3495 19.942V-1.63321L32.4145 -7.36814L40.9441 -12.2716L50.2202 -6.92044L59.5175 -1.54793V19.8141L48.2583 26.21L40.9441 30.4738L34.355 26.7429L22.3495 19.942ZM22.3495 67.3138L33.4807 60.918L40.9441 56.6541L49.1326 61.387L59.5175 67.2499V88.5693L52.6724 92.5134L40.9441 99.293L29.749 92.8971L22.3495 88.6333V67.3138ZM50.2628 58.9779L42.2236 54.3516V32.7764L49.3245 28.683L60.8183 22.0527L72.0561 28.4485L79.3916 32.7124V54.1597L71.2458 58.9566L60.8609 64.9474L50.2628 58.9779ZM62.0977 19.942V-1.63321L70.6274 -6.55801L80.6924 -12.3569L89.222 -7.38947L99.1804 -1.63321V19.8141L87.4948 26.5511L80.6071 30.5378L72.8024 26.0181L62.0977 19.942ZM62.0977 67.3138L71.8855 61.6855L80.6924 56.5902L88.3051 60.854L99.2017 67.2499V88.5693L91.525 93.0037L80.6284 99.3996L67.8339 92.0657L62.0977 88.5693V67.3138ZM90.1603 59.0845L81.9078 54.2237V32.7764L89.2434 28.5125L100.481 22.1166L111.506 28.5125L119.055 32.7764V54.2237L110.738 59.0206L100.481 64.9474L90.1603 59.0845ZM101.867 19.942V-1.63321L111.143 -7.00572L120.441 -12.3569L130.378 -6.62197L139.014 -1.63321V19.8141L128.352 25.9328L120.398 30.5378L113.062 26.2739L101.867 19.942ZM101.867 67.3138L112.231 61.3231L120.441 56.5902L129.29 61.7068L139.014 67.3138V88.5693L132.617 92.2362L120.398 99.293L108.648 92.5134L101.825 88.5693L101.867 67.3138ZM129.397 58.7861L121.741 54.3729V32.7764L128.65 28.8749L140.315 22.1379L152.278 28.8749L158.888 32.6911V54.1384L151.467 58.4023L140.315 64.7981L129.397 58.7861ZM130.356 -9.43613L121.827 -14.4249V-36.0641L131.55 -41.6711L140.4 -46.7878L149.186 -41.7138L158.973 -36.0641V-14.6168L150.444 -9.69195L140.4 -3.89308L130.356 -9.43613ZM139.014 -48.8344L129.183 -43.1635L120.441 -38.1108L112.529 -42.6731L101.867 -48.8344V-70.4737L108.499 -74.3112L120.441 -81.1973L132.723 -74.098L139.014 -70.4737V-48.8344ZM108.862 -41.7777L119.14 -35.8722V-14.6168L109.842 -9.24425L100.566 -3.89308L91.2691 -9.24425L81.9078 -14.6168V-36.0641L92.2927 -42.0549L100.481 -46.7878L108.862 -41.7777ZM99.2657 -48.8344L87.9426 -42.3107L80.6924 -38.0468L72.0348 -43.0356L62.0977 -48.7705V-70.4737L68.0471 -73.9061L80.6924 -81.1973L91.9942 -74.6523L99.2657 -70.3884V-48.8344ZM68.9854 -41.863L79.3916 -35.8722V-14.6168L70.0943 -9.24425L60.8183 -3.89308L51.5209 -9.24425L42.2236 -14.6168V-36.0641L52.8857 -42.1401L60.9249 -46.7878L68.9854 -41.863ZM59.5175 -48.8344L48.8554 -42.6731L40.9655 -38.1108L34.0778 -42.0975L22.3708 -48.8344V-70.4737L29.4078 -74.5244L40.9655 -81.1973L52.8857 -74.3112L59.5388 -70.4737L59.5175 -48.8344ZM28.5975 -42.5026L39.75 -36.1067V-14.6168L29.685 -8.79654L21.1553 -3.89308L12.6257 -8.8605L2.66729 -14.6168V-36.0641L13.5853 -42.3533L21.2406 -46.7878L28.5975 -42.5026ZM19.8759 -49.0263L8.91528 -42.6305L1.28123 -38.2174L-6.80064 -42.8863L-17.2921 -48.941V-70.4737L-10.4044 -74.4391L1.28123 -81.1973L13.5426 -74.1193L19.9399 -70.4737L19.8759 -49.0263ZM-9.78601 -41.7138L0.0017667 -36.0641V-14.6168L-8.52789 -9.69195L-18.5929 -3.89308L-28.5299 -9.628L-37.0596 -14.6168V-36.0641L-27.3358 -41.6711L-18.4863 -46.7878L-9.78601 -41.7138ZM-19.8937 -49.0263L-29.7028 -43.3553L-38.467 -38.3026L-46.3569 -42.865L-57.019 -49.0263V-70.4737L-50.3659 -74.3112L-38.4457 -81.1973L-26.163 -74.098L-19.8723 -70.4737L-19.8937 -49.0263ZM-50.0247 -41.9696L-39.7678 -36.0641V-14.6168L-49.0438 -9.24425L-58.3411 -3.89308L-67.6171 -9.24425L-77.0211 -14.6168V-36.0641L-66.6362 -42.0549L-58.4477 -46.7878L-50.0247 -41.9696ZM-59.6419 -49.0263L-70.9437 -42.5026L-78.2152 -38.2387L-86.7449 -43.2274L-96.6819 -48.9624V-70.4737L-90.7325 -73.9061L-78.1086 -81.1973L-66.7855 -74.6523L-59.5353 -70.3884L-59.6419 -49.0263ZM-90.0075 -42.0549L-79.6226 -36.0641V-14.6168L-88.8986 -9.24425L-98.1959 -3.89308L-107.472 -9.24425L-116.769 -14.6168V-36.0641L-106.107 -42.1401L-98.0893 -46.7878L-90.0075 -42.0549ZM-99.4967 -49.0263L-110.159 -42.865L-118.07 -38.3026L-124.936 -42.2894L-136.622 -49.0263V-70.4737L-129.585 -74.5244L-118.049 -81.1973L-106.107 -74.3112L-99.4754 -70.4737L-99.4967 -49.0263ZM-130.523 -42.5026L-119.371 -36.1067V-14.6168L-129.415 -8.79654L-137.944 -3.89308L-146.474 -8.8605L-156.432 -14.6168V-36.0641L-145.514 -42.3533L-137.859 -46.7878L-130.523 -42.5026ZM-139.245 -49.0263L-150.184 -42.6305L-157.818 -38.2174L-165.9 -42.9716L-176.392 -49.0263V-70.4737L-169.504 -74.4391L-157.818 -81.1973L-145.578 -74.1193L-139.181 -70.4737L-139.245 -49.0263ZM-168.907 -41.7138L-159.055 -36.0641V-14.6168L-167.585 -9.69195L-177.65 -3.89308L-187.629 -9.628L-196.266 -14.6168V-36.0641L-186.542 -41.6711L-177.692 -46.7878L-168.907 -41.7138ZM-178.993 -49.0263L-188.909 -43.3553L-197.652 -38.3026L-205.542 -42.865L-216.204 -49.0263V-70.4737L-209.572 -74.3112L-197.63 -81.1973L-185.284 -74.098L-178.993 -70.4737V-49.0263ZM-209.124 -41.9696L-198.867 -36.0641V-14.6168L-208.101 -9.24425L-217.398 -3.89308L-226.674 -9.24425L-236.014 -14.6168V-36.0641L-225.629 -42.0549L-217.441 -46.7878L-209.124 -41.9696ZM-218.763 -49.0263L-230.065 -42.5026L-237.336 -38.2387L-245.972 -43.2274L-255.909 -48.9624V-70.4737L-249.96 -73.9061L-237.336 -81.1973L-226.013 -74.6523L-218.763 -70.3884V-49.0263ZM-228.678 -7.36814L-218.763 -1.63321V19.8141L-230.448 26.5511L-237.315 30.5378L-245.098 26.0181L-255.888 19.8141V-1.63321L-247.358 -6.55801L-237.293 -12.3569L-228.678 -7.36814ZM-229.638 60.854L-218.763 67.2499V88.5693L-226.418 93.0037L-237.336 99.3996L-250.131 92.0657L-255.888 88.5693V67.2499L-246.1 61.6215L-237.315 56.5262L-229.638 60.854ZM-218.763 136.026V157.474L-227.612 162.59L-237.336 168.197L-248.467 161.802L-255.909 157.538V136.026L-237.336 125.367L-218.763 136.026ZM-225.629 129.076L-236.014 123.085V101.617L-227.612 96.756L-217.441 90.8931L-207.354 96.7133L-198.825 101.617V123.064L-209.124 129.076L-217.441 133.873L-225.629 129.076ZM-216.14 136.048L-197.567 125.388L-178.993 136.048V157.495L-186.67 161.929L-197.567 168.219L-207.93 162.228L-216.14 157.495V136.048ZM-186.542 128.692L-196.266 123.085V101.617L-188.29 97.0971L-177.628 90.9784L-166.924 97.0971L-159.055 101.617V123.064L-168.843 128.714L-177.628 133.766L-186.542 128.692ZM-176.392 136.048L-157.818 125.388L-139.245 136.048V157.495L-147.284 162.143L-157.818 168.219L-168.075 162.292L-176.392 157.495V136.048ZM-145.6 129.375L-156.518 123.085V101.617L-147.583 96.4575L-137.944 90.8931L-128.263 96.4788L-119.371 101.617V123.064L-130.523 129.46L-137.944 133.724L-145.6 129.375ZM-136.643 136.048L-118.07 125.388L-99.4967 136.048V157.495L-107.685 162.228L-118.07 168.219L-127.837 162.569L-136.643 157.495V136.048ZM-106.214 129.076L-116.876 123V101.617L-108.559 96.8199L-98.3026 90.8931L-88.1309 96.756L-79.7292 101.617V123.064L-90.0075 129.076L-98.1959 133.788L-106.214 129.076ZM-96.8952 135.962L-78.3218 125.303L-59.7485 135.962V157.41L-68.598 162.526L-78.3218 168.133L-89.4317 161.738L-96.8952 157.474V135.962ZM-66.6362 129.076L-77.0211 123.085V101.617L-68.6193 96.756L-58.4477 90.8931L-48.3614 96.7133L-39.8317 101.617V123.064L-50.1313 129.076L-58.4477 133.873L-66.6362 129.076ZM-57.147 136.048L-38.5736 125.388L-20.0003 136.048V157.495L-27.677 161.929L-38.5736 168.219L-48.9372 162.228L-57.147 157.495V136.048ZM-27.549 128.692L-37.2728 123.085V101.617L-29.2976 97.0118L-18.6355 90.8931L-7.86685 97.0971L-0.0408582 101.617V123.064L-9.78601 128.714L-18.5929 133.766L-27.549 128.692ZM-17.3987 136.048L1.1746 125.388L19.7693 136.048V157.495L11.7087 162.143L1.1746 168.219L-9.061 162.292L-17.3987 157.495V136.048ZM13.3933 129.375L2.47538 123.085V101.617L11.4102 96.4575L21.0487 90.8931L30.7512 96.4788L39.6434 101.617V123.064L28.4908 129.46L21.0487 133.724L13.3933 129.375ZM22.3495 136.048L40.9441 125.388L59.5175 136.048V157.495L51.3077 162.228L40.9441 168.219L31.1564 162.569L22.3495 157.495V136.048ZM52.779 129.076L42.117 123V101.617L50.4334 96.8199L60.7116 90.8931L70.8833 96.756L79.285 101.617V123.064L68.9854 129.076L60.8183 133.788L52.779 129.076ZM62.0977 135.962L80.6924 125.303L99.2657 135.962V157.41L90.3948 162.526L80.6924 168.133L69.5612 161.738L62.0977 157.474V135.962ZM92.378 128.991L81.9078 123.064V101.617L90.3096 96.756L100.481 90.8931L110.568 96.7133L119.097 101.617V123.064L108.862 129.076L100.566 133.873L92.378 128.991ZM101.867 135.962L120.441 125.303L139.014 135.962V157.41L131.316 161.844L120.441 168.133L110.056 162.143L101.867 157.41V135.962ZM131.465 128.607L121.741 123V101.617L129.695 97.0118L140.357 90.8931L151.019 97.0971L158.845 101.617V123.064L149.058 128.714L140.272 133.766L131.465 128.607ZM168.228 61.0459L178.762 67.122V88.5693L172.365 92.2789L160.21 99.293L148.759 92.684L141.615 88.5693V67.2499L151.851 61.3444L160.189 56.5262L168.228 61.0459ZM169.465 -7.06967L178.762 -1.69717V19.8141L167.204 26.4445L160.146 30.5378L152.619 26.2739L141.573 19.8781V-1.63321L150.849 -7.00572L160.146 -12.3569L169.465 -7.06967ZM172.429 -74.1832L178.826 -70.5376V-49.0263L167.866 -42.6305L160.253 -38.2174L152.15 -42.8863L141.615 -49.0263V-70.4737L148.503 -74.4391L160.189 -81.1973L172.429 -74.1832ZM141.615 -139.314L149.697 -143.983L160.189 -150.016L171.128 -143.621L178.762 -139.229V-117.867L170.744 -113.219L160.189 -107.143L149.911 -113.07L141.615 -117.867V-139.314ZM151.446 -109.19L158.888 -104.926V-83.4359L147.693 -77.04L140.315 -72.7762L132.638 -77.2106L121.741 -83.6064V-104.883L129.418 -109.318L140.315 -115.607L151.446 -109.19ZM101.867 -139.314L109.757 -143.813L120.419 -149.974L131.721 -143.45L138.993 -139.186V-117.867L131.316 -113.432L120.419 -107.143L110.013 -113.134L101.846 -117.867L101.867 -139.314ZM110.823 -109.701L119.14 -104.883V-83.4359L107.689 -76.8482L100.566 -72.7122L93.7214 -76.6563L81.9078 -83.4359V-104.883L90.1816 -109.701L100.566 -115.692L110.823 -109.701ZM62.0977 -139.314L68.9854 -143.28L80.6924 -150.016L90.4375 -144.345L99.2017 -139.314V-117.867L90.4375 -112.75L80.7137 -107.143L69.5612 -113.539L62.119 -117.803L62.0977 -139.314ZM71.2458 -109.701L79.4556 -104.969V-83.4359L67.706 -76.6563L60.8822 -72.7122L54.485 -76.4218L42.3089 -83.4359V-104.883L50.3481 -109.531L61.0102 -115.607L71.2458 -109.701ZM22.4135 -139.399L31.0711 -144.388L41.0081 -150.102L51.6702 -143.94L59.5815 -139.399V-117.867L51.393 -113.134L41.0081 -107.143L31.2203 -112.793L22.4135 -117.867V-139.399ZM30.9431 -110.043L39.75 -104.969V-83.4359L26.9555 -76.102L21.0914 -72.7122L14.6941 -76.3791L2.45406 -83.4359V-104.883L11.3249 -110L21.0274 -115.607L30.9431 -110.043ZM-17.3987 -139.314L-9.29557 -143.983L1.1746 -150.016L12.1352 -143.621L19.7693 -139.229V-117.867L11.7301 -113.219L1.06797 -107.143L-9.18894 -113.07L-17.5054 -117.867L-17.3987 -139.314ZM-7.6536 -109.19L-0.190143 -104.926V-83.4359L-11.3853 -77.04L-18.7848 -72.7762L-26.4402 -77.2106L-37.3581 -83.6064V-104.883L-29.6815 -109.318L-18.7848 -115.607L-7.6536 -109.19ZM-57.147 -139.314L-49.2357 -143.813L-38.5736 -149.974L-27.2505 -143.45L-20.0003 -139.186V-117.867L-27.6556 -113.432L-38.5736 -107.143L-48.9585 -113.134L-57.147 -117.867V-139.314ZM-48.1695 -109.701L-39.8531 -104.883V-83.4359L-51.2828 -76.8482L-58.4264 -72.7122L-65.2288 -76.6563L-76.9784 -83.4359V-104.883L-68.8113 -109.701L-58.4477 -115.692L-48.1695 -109.701ZM-96.8952 -139.314L-90.0075 -143.28L-78.3218 -150.016L-68.4914 -144.345L-59.7485 -139.314V-117.867L-68.598 -112.75L-78.3218 -107.143L-89.4744 -113.539L-96.8952 -117.803V-139.314ZM-87.8111 -109.701L-79.6226 -104.969V-83.4359L-91.3509 -76.6563L-98.1959 -72.7122L-104.593 -76.4218L-116.748 -83.4359V-104.883L-108.709 -109.531L-98.1746 -115.607L-87.8111 -109.701ZM-136.643 -139.314L-127.986 -144.303L-118.07 -150.016L-107.408 -143.855L-99.5181 -139.314V-117.867L-107.707 -113.134L-118.07 -107.143L-127.858 -112.793L-136.643 -117.867V-139.314ZM-128.114 -109.957L-119.328 -104.883V-83.4359L-132.123 -76.102L-137.944 -72.7122L-144.341 -76.3791L-156.581 -83.4359V-104.883L-147.732 -110L-138.008 -115.607L-128.114 -109.957ZM-176.392 -139.314L-168.288 -143.983L-157.818 -150.016L-146.858 -143.621L-139.245 -139.229V-117.867L-147.263 -113.219L-157.925 -107.143L-168.182 -113.07L-176.498 -117.867L-176.392 -139.314ZM-166.561 -109.19L-159.119 -104.926V-83.4359L-170.293 -77.04L-177.692 -72.7762L-185.348 -77.2106L-196.266 -83.6064V-104.883L-188.589 -109.318L-177.692 -115.607L-166.561 -109.19ZM-216.14 -139.314L-208.25 -143.813L-197.588 -149.974L-186.286 -143.45L-179.014 -139.186V-117.867L-186.67 -113.432L-197.567 -107.143L-207.951 -113.134L-216.14 -117.867V-139.314ZM-207.184 -109.701L-198.867 -104.883V-83.4359L-210.233 -76.8482L-217.377 -72.7122L-224.2 -76.6563L-235.95 -83.4359V-104.883L-227.825 -109.701L-217.441 -115.692L-207.184 -109.701ZM-255.888 -139.314L-249 -143.28L-237.315 -150.016L-227.484 -144.345L-218.763 -139.314V-117.867L-227.612 -112.75L-237.315 -107.143L-248.467 -113.539L-255.888 -117.803V-139.314ZM-263.543 -76.4218L-275.698 -83.4359V-104.883L-267.808 -109.531L-257.146 -115.607L-246.804 -109.701L-238.615 -104.969V-83.4359L-250.365 -76.6563L-257.146 -72.7122L-263.543 -76.4218ZM-266.486 -9.24425L-275.762 -14.6168V-36.0641L-265.1 -42.1401L-257.146 -46.7878L-248.958 -42.0549L-238.573 -36.0641V-14.6168L-247.849 -9.24425L-257.146 -3.89308L-266.486 -9.24425ZM-267.808 58.85L-275.826 54.2237V32.7764L-268.747 28.683L-257.146 22.0527L-245.908 28.4485L-238.573 32.7124V54.1597L-246.761 58.8927L-257.146 64.9474L-267.808 58.85ZM-265.271 129.204L-275.933 123.128V101.617L-267.638 96.8199L-257.146 90.8931L-246.975 96.756L-238.573 101.617V123.064L-249 129.076L-257.146 133.766L-265.271 129.204ZM-263.543 198.897L-275.698 191.883V170.436L-263.543 163.422L-257.146 159.712L-250.322 163.656L-238.573 170.436V191.883L-257.146 202.543L-263.543 198.897ZM-218.763 226.314L-237.336 236.974L-255.909 226.314V204.867L-237.336 194.207L-218.763 204.867V226.314ZM-224.286 198.599L-236.035 191.819V170.436L-224.286 163.656L-217.462 159.712L-210.233 163.848L-198.803 170.436V191.883L-217.377 202.543L-224.286 198.599ZM-179.014 226.314L-197.588 236.974L-216.161 226.314V204.867L-197.588 194.207L-179.014 204.867V226.314ZM-185.412 198.194L-196.33 191.798V170.436L-185.412 164.04L-177.756 159.606L-170.357 163.87L-159.183 170.265V191.713L-177.756 202.372L-185.412 198.194ZM-139.309 226.314L-157.882 236.974L-176.456 226.314V204.867L-157.882 194.207L-139.309 204.867V226.314ZM-144.341 198.94L-156.581 191.883V170.436L-144.341 163.379L-137.944 159.712L-132.08 163.187L-119.286 170.521V191.969L-137.859 202.628L-144.341 198.94ZM-99.5607 226.314L-118.134 236.974L-136.707 226.314V204.867L-118.134 194.207L-99.5607 204.867V226.314ZM-104.678 198.897L-116.833 191.883V170.436L-104.678 163.422L-98.2812 159.712L-91.4362 163.656L-79.7079 170.436V191.883L-98.2812 202.543L-104.678 198.897ZM-59.8978 226.314L-78.4711 236.974L-97.0444 226.314V204.867L-78.4711 194.207L-59.8978 204.867V226.314ZM-65.4207 198.599L-77.1703 191.819V170.436L-65.4207 163.656L-58.597 159.712L-51.4534 163.848L-40.0237 170.436V191.883L-58.597 202.543L-65.4207 198.599ZM-20.1496 226.314L-38.7229 236.974L-57.2962 226.314V204.867L-38.7229 194.207L-20.1496 204.867V226.314ZM-26.5468 198.194L-37.4648 191.798V170.436L-26.5468 164.04L-18.8914 159.606L-11.492 163.87L-0.29677 170.265V191.713L-18.8914 202.372L-26.5468 198.194ZM19.5774 226.314L0.982692 236.974L-17.5907 226.314V204.867L0.982692 194.207L19.5774 204.867V226.314ZM14.5235 198.94L2.28347 191.883V170.436L14.5235 163.379L20.9208 159.712L26.7849 163.102L39.5794 170.436V191.883L20.9847 202.543L14.5235 198.94ZM59.3042 226.314L40.7309 236.974L22.1362 226.314V204.867L40.7309 194.207L59.3042 204.867V226.314ZM54.1864 198.897L42.0103 191.883V170.436L54.1864 163.422L60.5837 159.712L67.4074 163.656L79.157 170.436V191.883L60.5837 202.543L54.1864 198.897ZM98.9672 226.314L80.3938 236.974L61.7992 226.314V204.867L80.3938 194.207L98.9672 204.867V226.314ZM93.4229 198.599L81.6946 191.819V170.436L93.4229 163.656L100.268 159.712L107.39 163.848L118.841 170.436V191.883L100.268 202.543L93.4229 198.599ZM138.715 226.314L120.142 236.974L101.569 226.314V204.867L120.142 194.207L138.715 204.867V226.314ZM132.318 198.194L121.421 191.798V170.436L132.318 164.04L139.995 159.606L147.373 163.87L158.568 170.265V191.713L139.995 202.372L132.318 198.194ZM141.615 226.314V204.867L160.189 194.207L178.762 204.867V226.314L160.189 236.974L141.615 226.314Z" fill="url(#paint2_radial_132_2985)"/>
<path d="M1916.36 595.987L1924.06 591.553L1931.51 595.817L1934 597.245V594.239L1925.36 589.272V567.867L1934 562.878V559.872L1924 565.607L1917.6 561.94L1905.38 554.883V533.436L1917.6 526.379L1924 522.712L1929.84 526.102L1933.94 528.447V525.462L1925.3 520.474V499.026L1933.94 494.038V491.032L1931.42 492.503L1924 496.766L1916.32 492.353L1905.43 486.064V464.617L1914.36 459.457L1924 453.893L1933.68 459.479L1933.94 459.628V456.622L1932.68 455.897L1925.3 451.633V430.25L1933.94 425.261V422.276H1933.79L1924 427.947L1914.28 422.34L1905.43 417.224V395.776L1913.4 391.171L1924.06 385.053L1934 390.788V387.782L1925.36 382.814V361.367L1934 356.378V353.372L1932.57 354.203L1924.04 359.107L1915.47 354.14L1905.53 348.383V326.936L1916.43 320.647L1924.11 316.212L1931.53 320.476L1934.04 321.947V318.962L1925.41 313.974V292.526L1932.42 288.476L1934.04 287.538V284.532L1929.95 286.898L1924 290.288L1917.6 286.621L1905.38 279.564V258.117L1914.23 253L1924 247.393L1933.77 253.043H1933.94V250.122L1925.3 245.133V223.686L1933.94 218.718V215.712L1929.95 218.015L1924 221.447L1917.71 217.823L1905.49 210.66V200H1902.89V210.66L1891.33 217.333L1884.31 221.383L1877.04 217.12L1865.74 210.66V200H1863.14V210.66L1851.5 217.461L1844.61 221.447L1837.96 217.61L1825.91 210.66V200H1823.31V210.66L1811.36 217.546L1804.73 221.383L1798.34 217.716L1786.22 210.66V200H1783.64V210.66L1771 217.951L1765.05 221.383L1758.65 217.759L1746.48 210.66V200H1743.9V210.66L1732.34 217.333L1725.3 221.383L1718.05 217.12L1706.73 210.66V200H1704.13V210.66L1692.44 217.397L1685.55 221.383L1678.92 217.546L1666.98 210.66V200H1664.38V210.66L1652.46 217.61L1645.8 221.447L1639.41 217.78L1627.23 210.66V200H1624.63V210.66L1612.01 218.015L1606.06 221.447L1599.66 217.823L1587.48 210.66V200H1584.94V210.66L1573.34 217.397L1566.31 221.447L1559.06 217.183L1547.73 210.66V200H1545.13V210.66L1533.45 217.461L1526.56 221.447L1519.93 217.61L1507.99 210.66V200H1505.38V210.66L1493.44 217.546L1486.85 221.447L1480.46 217.78L1468.24 210.66V200H1465.64V210.66L1457 215.712V218.718L1466.94 212.984L1477.62 219.187L1485.51 223.729V245.133L1477.32 249.866L1466.94 255.857L1457 250.122V253.128L1465.64 258.117V279.564L1457 284.532V287.538L1466.94 281.803L1478.88 288.689L1485.51 292.526V313.974L1474.85 320.135L1466.96 324.697L1457 318.962V321.968L1465.64 326.936V348.383L1457 353.372V356.378L1458.43 355.632L1466.96 350.728L1476.19 355.994L1485.47 361.367V382.814L1474.21 389.21L1466.89 393.474L1457 387.782V390.788L1457.83 391.278L1465.64 395.776V417.224L1457.11 422.212V425.197L1459.49 423.854L1466.94 419.59L1475.15 424.323L1485.51 430.25V451.569L1478.69 455.513L1466.94 462.293L1457 456.622V459.628L1465.64 464.617V486.064L1457.11 491.032V494.038L1467.04 488.303L1485.62 498.962V520.41L1477.41 525.143L1467.04 531.133L1457 525.462V528.447L1465.64 533.436V554.883L1457 559.872V562.878L1466.94 557.143L1485.51 567.803V589.25L1466.94 599.91L1457 594.282V597.288L1465.64 602.276V612.936H1468.24V602.276L1478.77 596.2L1486.85 591.553L1495.06 596.286L1505.43 602.276V612.936H1508.03V602.276L1518.39 596.286L1526.6 591.553L1534.92 596.35L1545.18 602.276V612.936H1547.78V602.276L1557.5 596.669L1566.35 591.553L1575.11 596.541L1584.94 602.276V612.936H1587.55V602.276L1598.44 595.987L1606.12 591.553L1613.58 595.817L1624.69 602.212V612.872H1627.29V602.212L1637.83 596.136L1645.87 591.489L1654.08 596.222L1664.44 602.212V612.872H1667.04V602.212L1677.43 596.222L1685.62 591.489L1693.95 596.286L1704.19 602.212V612.872H1706.79V602.212L1716.51 596.605L1725.36 591.489L1734.21 596.541L1744 602.191V612.851H1746.58V602.191L1757.48 595.902L1765.16 591.467L1772.62 595.731L1783.75 602.127V612.787H1786.33V602.127L1796.86 596.051L1804.92 591.403L1813.11 596.136L1823.5 602.127V612.787H1825.91V602.127L1836.27 596.136L1844.48 591.403L1852.8 596.2L1863.05 602.127V612.787H1865.66V602.127L1875.36 596.52L1884.23 591.403L1893.01 596.477L1902.8 602.127V612.787H1905.4V602.127L1916.36 595.987ZM1922.76 499.026V520.474L1914.72 525.121L1904.19 531.197L1893.93 525.271L1885.62 520.474V499.026L1904.19 488.367L1922.76 499.026ZM1537.61 391.427L1545.13 395.691V417.138L1536.82 421.935L1526.56 427.862L1516.17 421.871L1507.99 417.138V395.776L1515.32 391.512L1526.56 385.117L1537.61 391.427ZM1527.86 382.899V361.367L1537.16 355.994L1546.43 350.643L1556.39 356.378L1564.92 361.367V382.814L1554.26 388.933L1546.28 393.538L1538.97 389.274L1527.86 382.899ZM1527.86 430.271L1538.25 424.28L1546.43 419.548L1555.3 424.664L1565.01 430.25V451.569L1558.61 455.236L1546.37 462.293L1534.62 455.513L1527.86 451.569V430.271ZM1555.39 421.743L1547.73 417.33V395.776L1554.64 391.875L1566.31 385.138L1578.27 391.875L1584.94 395.776V417.224L1577.52 421.488L1566.37 427.883L1555.39 421.743ZM1567.61 382.921V361.367L1576.91 355.994L1586.18 350.643L1595.48 355.994L1604.76 361.367V382.814L1593.24 389.444L1586.18 393.538L1578.65 389.274L1567.61 382.921ZM1567.61 430.293L1577.87 424.387L1586.18 419.569L1594.22 424.216L1604.76 430.25V451.569L1598.36 455.279L1586.2 462.293L1574.75 455.833L1567.61 451.569V430.293ZM1596.33 422.447L1587.48 417.33V395.776L1595.46 391.171L1606.12 385.053L1616.78 391.278L1624.59 395.776V417.224L1615.8 422.298L1606.01 427.947L1596.33 422.447ZM1607.36 382.921V361.367L1617.42 355.632L1625.95 350.728L1635.25 356.08L1644.52 361.452V382.814L1633.27 389.21L1625.95 393.474L1619.36 389.743L1607.36 382.921ZM1607.36 430.293L1618.49 423.897L1625.93 419.633L1634.14 424.366L1644.5 430.25V451.569L1637.68 455.513L1625.93 462.293L1614.8 455.833L1607.4 451.569L1607.36 430.293ZM1635.25 421.957L1627.23 417.33V395.776L1634.31 391.683L1645.8 385.053L1657.04 391.449L1664.38 395.712V417.16L1656.21 421.893L1645.8 427.883L1635.25 421.957ZM1647.1 382.921V361.367L1655.63 356.442L1665.68 350.643L1674.21 355.611L1684.14 361.367V382.814L1672.48 389.551L1665.57 393.538L1657.79 389.018L1647.1 382.921ZM1647.1 430.293L1656.89 424.664L1665.68 419.569L1673.38 424.003L1684.25 430.399V451.569L1676.64 456.068L1665.72 462.464L1652.93 455.13L1647.1 451.569V430.293ZM1675.17 422.063L1666.98 417.33V395.776L1674.31 391.512L1685.55 385.117L1696.6 391.512L1704.13 395.776V417.224L1695.83 422.021L1685.55 427.947L1675.17 422.063ZM1686.85 382.921V361.367L1696.15 355.994L1705.43 350.643L1715.38 356.378L1723.91 361.367V382.814L1713.25 388.933L1705.28 393.538L1697.96 389.274L1686.85 382.921ZM1686.85 430.293L1697.24 424.302L1705.43 419.569L1714.3 424.685L1724 430.293V451.569L1717.6 455.236L1705.36 462.293L1693.63 455.513L1686.85 451.569V430.293ZM1714.4 421.765L1706.73 417.352V395.776L1713.66 391.875L1725.3 385.138L1737.28 391.875L1743.9 395.691V417.138L1736.45 421.402L1725.3 427.798L1714.4 421.765ZM1726.6 382.942V361.367L1735.9 355.994L1745.17 350.643L1754.47 355.994L1763.77 361.367V382.814L1752.25 389.444L1745.17 393.538L1737.67 389.274L1726.6 382.942ZM1726.6 430.314L1736.86 424.408L1745.17 419.59L1753.24 424.238L1763.77 430.314V451.569L1757.37 455.279L1745.2 462.293L1733.77 455.684L1726.6 451.569V430.314ZM1755.32 422.468L1746.48 417.352V395.776L1754.47 391.171L1765.13 385.053L1775.8 391.278L1783.62 395.776V417.224L1774.82 422.298L1765.03 427.947L1755.32 422.468ZM1766.35 382.942V361.367L1776.41 355.632L1784.94 350.728L1794.22 356.08L1803.52 361.452V382.814L1792.26 389.21L1784.94 393.474L1778.35 389.743L1766.35 382.942ZM1766.35 430.314L1777.48 423.918L1784.94 419.654L1793.13 424.387L1803.52 430.25V451.569L1796.67 455.513L1784.94 462.293L1773.75 455.897L1766.35 451.633V430.314ZM1794.26 421.978L1786.22 417.352V395.776L1793.32 391.683L1804.82 385.053L1816.06 391.449L1823.39 395.712V417.16L1815.25 421.957L1804.86 427.947L1794.26 421.978ZM1806.1 382.942V361.367L1814.63 356.442L1824.69 350.643L1833.22 355.611L1843.18 361.367V382.814L1831.49 389.551L1824.61 393.538L1816.8 389.018L1806.1 382.942ZM1806.1 430.314L1815.89 424.685L1824.69 419.59L1832.31 423.854L1843.2 430.25V451.569L1835.53 456.004L1824.63 462.4L1811.83 455.066L1806.1 451.569V430.314ZM1834.16 422.085L1825.91 417.224V395.776L1833.24 391.512L1844.48 385.117L1855.51 391.512L1863.05 395.776V417.224L1854.74 422.021L1844.48 427.947L1834.16 422.085ZM1845.87 382.942V361.367L1855.14 355.994L1864.44 350.643L1874.38 356.378L1883.01 361.367V382.814L1872.35 388.933L1864.4 393.538L1857.06 389.274L1845.87 382.942ZM1845.87 430.314L1856.23 424.323L1864.44 419.59L1873.29 424.707L1883.01 430.314V451.569L1876.62 455.236L1864.4 462.293L1852.65 455.513L1845.82 451.569L1845.87 430.314ZM1873.4 421.786L1865.74 417.373V395.776L1872.65 391.875L1884.31 385.138L1896.28 391.875L1902.89 395.691V417.138L1895.47 421.402L1884.31 427.798L1873.4 421.786ZM1874.36 353.564L1865.83 348.575V326.936L1875.55 321.329L1884.4 316.212L1893.19 321.286L1902.97 326.936V348.383L1894.44 353.308L1884.4 359.107L1874.36 353.564ZM1883.01 314.166L1873.18 319.837L1864.44 324.889L1856.53 320.327L1845.87 314.166V292.526L1852.5 288.689L1864.44 281.803L1876.72 288.902L1883.01 292.526V314.166ZM1852.86 321.222L1863.14 327.128V348.383L1853.84 353.756L1844.57 359.107L1835.27 353.756L1825.91 348.383V326.936L1836.29 320.945L1844.48 316.212L1852.86 321.222ZM1843.27 314.166L1831.94 320.689L1824.69 324.953L1816.03 319.964L1806.1 314.23V292.526L1812.05 289.094L1824.69 281.803L1835.99 288.348L1843.27 292.612V314.166ZM1812.99 321.137L1823.39 327.128V348.383L1814.09 353.756L1804.82 359.107L1795.52 353.756L1786.22 348.383V326.936L1796.89 320.86L1804.92 316.212L1812.99 321.137ZM1803.52 314.166L1792.86 320.327L1784.97 324.889L1778.08 320.902L1766.37 314.166V292.526L1773.41 288.476L1784.97 281.803L1796.89 288.689L1803.54 292.526L1803.52 314.166ZM1772.6 320.497L1783.75 326.893V348.383L1773.68 354.203L1765.16 359.107L1756.63 354.14L1746.67 348.383V326.936L1757.59 320.647L1765.24 316.212L1772.6 320.497ZM1763.88 313.974L1752.92 320.37L1745.28 324.783L1737.2 320.114L1726.71 314.059V292.526L1733.6 288.561L1745.28 281.803L1757.54 288.881L1763.94 292.526L1763.88 313.974ZM1734.21 321.286L1744 326.936V348.383L1735.47 353.308L1725.41 359.107L1715.47 353.372L1706.94 348.383V326.936L1716.66 321.329L1725.51 316.212L1734.21 321.286ZM1724.11 313.974L1714.3 319.645L1705.53 324.697L1697.64 320.135L1686.98 313.974V292.526L1693.63 288.689L1705.55 281.803L1717.84 288.902L1724.13 292.526L1724.11 313.974ZM1693.98 321.03L1704.23 326.936V348.383L1694.96 353.756L1685.66 359.107L1676.38 353.756L1666.98 348.383V326.936L1677.36 320.945L1685.55 316.212L1693.98 321.03ZM1684.36 313.974L1673.06 320.497L1665.78 324.761L1657.26 319.773L1647.32 314.038V292.526L1653.27 289.094L1665.89 281.803L1677.21 288.348L1684.46 292.612L1684.36 313.974ZM1653.99 320.945L1664.38 326.936V348.383L1655.1 353.756L1645.8 359.107L1636.53 353.756L1627.23 348.383V326.936L1637.89 320.86L1645.91 316.212L1653.99 320.945ZM1644.5 313.974L1633.84 320.135L1625.93 324.697L1619.06 320.711L1607.38 313.974V292.526L1614.41 288.476L1625.95 281.803L1637.89 288.689L1644.52 292.526L1644.5 313.974ZM1613.48 320.497L1624.63 326.893V348.383L1614.59 354.203L1606.06 359.107L1597.53 354.14L1587.57 348.383V326.936L1598.49 320.647L1606.14 316.212L1613.48 320.497ZM1604.76 313.974L1593.82 320.37L1586.18 324.783L1578.1 320.028L1567.61 313.974V292.526L1574.5 288.561L1586.18 281.803L1598.42 288.881L1604.82 292.526L1604.76 313.974ZM1575.09 321.286L1584.94 326.936V348.383L1576.42 353.308L1566.35 359.107L1556.37 353.372L1547.73 348.383V326.936L1557.46 321.329L1566.31 316.212L1575.09 321.286ZM1565.01 313.974L1555.09 319.645L1546.35 324.697L1538.46 320.135L1527.8 313.974V292.526L1534.43 288.689L1546.37 281.803L1558.72 288.902L1565.01 292.526V313.974ZM1534.88 321.03L1545.13 326.936V348.383L1535.9 353.756L1526.6 359.107L1517.33 353.756L1507.99 348.383V326.936L1518.37 320.945L1526.56 316.212L1534.88 321.03ZM1525.24 313.974L1513.94 320.497L1506.66 324.761L1498.03 319.773L1488.09 314.038V292.526L1494.04 289.094L1506.66 281.803L1517.99 288.348L1525.24 292.612V313.974ZM1515.32 355.632L1525.24 361.367V382.814L1513.55 389.551L1506.69 393.538L1498.9 389.018L1488.11 382.814V361.367L1496.64 356.442L1506.71 350.643L1515.32 355.632ZM1514.36 423.854L1525.24 430.25V451.569L1517.58 456.004L1506.66 462.4L1493.87 455.066L1488.11 451.569V430.25L1497.9 424.622L1506.69 419.526L1514.36 423.854ZM1525.24 499.026V520.474L1516.39 525.59L1506.66 531.197L1495.53 524.802L1488.09 520.538V499.026L1506.66 488.367L1525.24 499.026ZM1518.37 492.076L1507.99 486.085V464.617L1516.39 459.756L1526.56 453.893L1536.65 459.713L1545.18 464.617V486.064L1534.88 492.076L1526.56 496.873L1518.37 492.076ZM1527.86 499.048L1546.43 488.388L1565.01 499.048V520.495L1557.33 524.929L1546.43 531.219L1536.07 525.228L1527.86 520.495V499.048ZM1557.46 491.692L1547.73 486.085V464.617L1555.71 460.097L1566.37 453.978L1577.08 460.097L1584.94 464.617V486.064L1575.16 491.714L1566.37 496.766L1557.46 491.692ZM1567.61 499.048L1586.18 488.388L1604.76 499.048V520.495L1596.72 525.143L1586.18 531.219L1575.92 525.292L1567.61 520.495V499.048ZM1598.4 492.375L1587.48 486.085V464.617L1596.42 459.457L1606.06 453.893L1615.74 459.479L1624.63 464.617V486.064L1613.48 492.46L1606.06 496.724L1598.4 492.375ZM1607.36 499.048L1625.93 488.388L1644.5 499.048V520.495L1636.31 525.228L1625.93 531.219L1616.16 525.569L1607.36 520.495V499.048ZM1637.79 492.076L1627.12 486V464.617L1635.44 459.82L1645.7 453.893L1655.87 459.756L1664.27 464.617V486.064L1653.99 492.076L1645.8 496.788L1637.79 492.076ZM1647.1 498.962L1665.68 488.303L1684.25 498.962V520.41L1675.4 525.526L1665.68 531.133L1654.57 524.738L1647.1 520.474V498.962ZM1677.36 492.076L1666.98 486.085V464.617L1675.38 459.756L1685.55 453.893L1695.64 459.713L1704.17 464.617V486.064L1693.87 492.076L1685.55 496.873L1677.36 492.076ZM1686.85 499.048L1705.43 488.388L1724 499.048V520.495L1716.32 524.929L1705.43 531.219L1695.06 525.228L1686.85 520.495V499.048ZM1716.45 491.692L1706.73 486.085V464.617L1714.7 460.012L1725.36 453.893L1736.13 460.097L1743.96 464.617V486.064L1734.21 491.714L1725.41 496.766L1716.45 491.692ZM1726.6 499.048L1745.17 488.388L1763.77 499.048V520.495L1755.71 525.143L1745.17 531.219L1734.94 525.292L1726.6 520.495V499.048ZM1757.39 492.375L1746.48 486.085V464.617L1755.41 459.457L1765.05 453.893L1774.75 459.479L1783.64 464.617V486.064L1772.49 492.46L1765.05 496.724L1757.39 492.375ZM1766.35 499.048L1784.94 488.388L1803.52 499.048V520.495L1795.31 525.228L1784.94 531.219L1775.16 525.569L1766.35 520.495V499.048ZM1796.78 492.076L1786.12 486V464.617L1794.43 459.82L1804.71 453.893L1814.88 459.756L1823.28 464.617V486.064L1812.99 492.076L1804.82 496.788L1796.78 492.076ZM1806.1 498.962L1824.69 488.303L1843.27 498.962V520.41L1834.39 525.526L1824.69 531.133L1813.56 524.738L1806.1 520.474V498.962ZM1836.38 491.991L1825.91 486.064V464.617L1834.31 459.756L1844.48 453.893L1854.57 459.713L1863.1 464.617V486.064L1852.86 492.076L1844.57 496.873L1836.38 491.991ZM1845.87 498.962L1864.44 488.303L1883.01 498.962V520.41L1875.32 524.844L1864.44 531.133L1854.06 525.143L1845.87 520.41V498.962ZM1875.47 491.607L1865.74 486V464.617L1873.7 460.012L1884.36 453.893L1895.02 460.097L1902.85 464.617V486.064L1893.06 491.714L1884.27 496.766L1875.47 491.607ZM1912.23 424.046L1922.76 430.122V451.569L1916.36 455.279L1904.21 462.293L1892.76 455.684L1885.62 451.569V430.25L1895.85 424.344L1904.19 419.526L1912.23 424.046ZM1913.46 355.93L1922.76 361.303V382.814L1911.2 389.444L1904.15 393.538L1896.62 389.274L1885.57 382.878V361.367L1894.85 355.994L1904.15 350.643L1913.46 355.93ZM1916.43 288.817L1922.83 292.462V313.974L1911.87 320.37L1904.25 324.783L1896.15 320.114L1885.62 313.974V292.526L1892.5 288.561L1904.19 281.803L1916.43 288.817ZM1885.62 223.686L1893.7 219.017L1904.19 212.984L1915.13 219.379L1922.76 223.771V245.133L1914.74 249.781L1904.19 255.857L1893.91 249.93L1885.62 245.133V223.686ZM1895.45 253.81L1902.89 258.074V279.564L1891.69 285.96L1884.31 290.224L1876.64 285.789L1865.74 279.394V258.117L1873.42 253.682L1884.31 247.393L1895.45 253.81ZM1845.87 223.686L1853.76 219.187L1864.42 213.026L1875.72 219.55L1882.99 223.814V245.133L1875.32 249.568L1864.42 255.857L1854.01 249.866L1845.85 245.133L1845.87 223.686ZM1854.82 253.299L1863.14 258.117V279.564L1851.69 286.152L1844.57 290.288L1837.72 286.344L1825.91 279.564V258.117L1834.18 253.299L1844.57 247.308L1854.82 253.299ZM1806.1 223.686L1812.99 219.72L1824.69 212.984L1834.44 218.655L1843.2 223.686V245.133L1834.44 250.25L1824.71 255.857L1813.56 249.461L1806.12 245.197L1806.1 223.686ZM1815.25 253.299L1823.46 258.031V279.564L1811.71 286.344L1804.88 290.288L1798.48 286.578L1786.31 279.564V258.117L1794.35 253.469L1805.01 247.393L1815.25 253.299ZM1766.41 223.601L1775.07 218.612L1785.01 212.898L1795.67 219.06L1803.58 223.601V245.133L1795.39 249.866L1785.01 255.857L1775.22 250.207L1766.41 245.133V223.601ZM1774.94 252.957L1783.75 258.031V279.564L1770.96 286.898L1765.09 290.288L1758.69 286.621L1746.45 279.564V258.117L1755.32 253L1765.03 247.393L1774.94 252.957ZM1726.6 223.686L1734.7 219.017L1745.17 212.984L1756.14 219.379L1763.77 223.771V245.133L1755.73 249.781L1745.07 255.857L1734.81 249.93L1726.49 245.133L1726.6 223.686ZM1736.35 253.81L1743.81 258.074V279.564L1732.61 285.96L1725.22 290.224L1717.56 285.789L1706.64 279.394V258.117L1714.32 253.682L1725.22 247.393L1736.35 253.81ZM1686.85 223.686L1694.76 219.187L1705.43 213.026L1716.75 219.55L1724 223.814V245.133L1716.34 249.568L1705.43 255.857L1695.04 249.866L1686.85 245.133V223.686ZM1695.83 253.299L1704.15 258.117V279.564L1692.72 286.152L1685.57 290.288L1678.77 286.344L1667.02 279.564V258.117L1675.19 253.299L1685.55 247.308L1695.83 253.299ZM1647.1 223.686L1653.99 219.72L1665.68 212.984L1675.51 218.655L1684.25 223.686V245.133L1675.4 250.25L1665.68 255.857L1654.53 249.461L1647.1 245.197V223.686ZM1656.19 253.299L1664.38 258.031V279.564L1652.65 286.344L1645.8 290.288L1639.41 286.578L1627.25 279.564V258.117L1635.29 253.469L1645.83 247.393L1656.19 253.299ZM1607.36 223.686L1616.01 218.697L1625.93 212.984L1636.59 219.145L1644.48 223.686V245.133L1636.29 249.866L1625.93 255.857L1616.14 250.207L1607.36 245.133V223.686ZM1615.89 253.043L1624.67 258.117V279.564L1611.88 286.898L1606.06 290.288L1599.66 286.621L1587.42 279.564V258.117L1596.27 253L1605.99 247.393L1615.89 253.043ZM1567.61 223.686L1575.71 219.017L1586.18 212.984L1597.14 219.379L1604.76 223.771V245.133L1596.74 249.781L1586.08 255.857L1575.82 249.93L1567.5 245.133L1567.61 223.686ZM1577.44 253.81L1584.88 258.074V279.564L1573.71 285.96L1566.31 290.224L1558.65 285.789L1547.73 279.394V258.117L1555.41 253.682L1566.31 247.393L1577.44 253.81ZM1527.86 223.686L1535.75 219.187L1546.41 213.026L1557.71 219.55L1564.99 223.814V245.133L1557.33 249.568L1546.43 255.857L1536.05 249.866L1527.86 245.133V223.686ZM1536.82 253.299L1545.13 258.117V279.564L1533.77 286.152L1526.62 290.288L1519.8 286.344L1508.05 279.564V258.117L1516.17 253.299L1526.56 247.308L1536.82 253.299ZM1488.11 223.686L1495 219.72L1506.69 212.984L1516.52 218.655L1525.24 223.686V245.133L1516.39 250.25L1506.69 255.857L1495.53 249.461L1488.11 245.197V223.686ZM1480.46 286.578L1468.3 279.564V258.117L1476.19 253.469L1486.85 247.393L1497.2 253.299L1505.38 258.031V279.564L1493.63 286.344L1486.85 290.288L1480.46 286.578ZM1477.51 353.756L1468.24 348.383V326.936L1478.9 320.86L1486.85 316.212L1495.04 320.945L1505.43 326.936V348.383L1496.15 353.756L1486.85 359.107L1477.51 353.756ZM1476.19 421.85L1468.17 417.224V395.776L1475.25 391.683L1486.85 385.053L1498.09 391.449L1505.43 395.712V417.16L1497.24 421.893L1486.85 427.947L1476.19 421.85ZM1478.73 492.204L1468.07 486.128V464.617L1476.36 459.82L1486.85 453.893L1497.03 459.756L1505.43 464.617V486.064L1495 492.076L1486.85 496.766L1478.73 492.204ZM1480.46 561.897L1468.3 554.883V533.436L1480.46 526.422L1486.85 522.712L1493.68 526.656L1505.43 533.436V554.883L1486.85 565.543L1480.46 561.897ZM1525.24 589.314L1506.66 599.974L1488.09 589.314V567.867L1506.66 557.207L1525.24 567.867V589.314ZM1519.71 561.599L1507.96 554.819V533.436L1519.71 526.656L1526.54 522.712L1533.77 526.848L1545.2 533.436V554.883L1526.62 565.543L1519.71 561.599ZM1564.99 589.314L1546.41 599.974L1527.84 589.314V567.867L1546.41 557.207L1564.99 567.867V589.314ZM1558.59 561.194L1547.67 554.798V533.436L1558.59 527.04L1566.24 522.606L1573.64 526.87L1584.82 533.265V554.713L1566.24 565.372L1558.59 561.194ZM1604.69 589.314L1586.12 599.974L1567.54 589.314V567.867L1586.12 557.207L1604.69 567.867V589.314ZM1599.66 561.94L1587.42 554.883V533.436L1599.66 526.379L1606.06 522.712L1611.92 526.187L1624.71 533.521V554.969L1606.14 565.628L1599.66 561.94ZM1644.44 589.314L1625.87 599.974L1607.29 589.314V567.867L1625.87 557.207L1644.44 567.867V589.314ZM1639.32 561.897L1627.17 554.883V533.436L1639.32 526.422L1645.72 522.712L1652.56 526.656L1664.29 533.436V554.883L1645.72 565.543L1639.32 561.897ZM1684.1 589.314L1665.53 599.974L1646.96 589.314V567.867L1665.53 557.207L1684.1 567.867V589.314ZM1678.58 561.599L1666.83 554.819V533.436L1678.58 526.656L1685.4 522.712L1692.55 526.848L1703.98 533.436V554.883L1685.4 565.543L1678.58 561.599ZM1723.85 589.314L1705.28 599.974L1686.7 589.314V567.867L1705.28 557.207L1723.85 567.867V589.314ZM1717.45 561.194L1706.54 554.798V533.436L1717.45 527.04L1725.11 522.606L1732.51 526.87L1743.7 533.265V554.713L1725.11 565.372L1717.45 561.194ZM1763.58 589.314L1744.98 599.974L1726.41 589.314V567.867L1744.98 557.207L1763.58 567.867V589.314ZM1758.52 561.94L1746.28 554.883V533.436L1758.52 526.379L1764.92 522.712L1770.78 526.102L1783.58 533.436V554.883L1764.98 565.543L1758.52 561.94ZM1803.3 589.314L1784.73 599.974L1766.14 589.314V567.867L1784.73 557.207L1803.3 567.867V589.314ZM1798.19 561.897L1786.01 554.883V533.436L1798.19 526.422L1804.58 522.712L1811.41 526.656L1823.16 533.436V554.883L1804.58 565.543L1798.19 561.897ZM1842.97 589.314L1824.39 599.974L1805.8 589.314V567.867L1824.39 557.207L1842.97 567.867V589.314ZM1837.42 561.599L1825.69 554.819V533.436L1837.42 526.656L1844.27 522.712L1851.39 526.848L1862.84 533.436V554.883L1844.27 565.543L1837.42 561.599ZM1882.72 589.314L1864.14 599.974L1845.57 589.314V567.867L1864.14 557.207L1882.72 567.867V589.314ZM1876.32 561.194L1865.42 554.798V533.436L1876.32 527.04L1883.99 522.606L1891.37 526.87L1902.57 533.265V554.713L1883.99 565.372L1876.32 561.194ZM1885.62 589.314V567.867L1904.19 557.207L1922.76 567.867V589.314L1904.19 599.974L1885.62 589.314Z" fill="url(#paint3_radial_132_2985)"/>
</g>
<defs>
<linearGradient id="paint0_linear_132_2985" x1="810" y1="-2.24751e-05" x2="810" y2="435" gradientUnits="userSpaceOnUse">
<stop stop-color="#B4E5FF"/>
<stop offset="1" stop-color="#2EB7FF"/>
</linearGradient>
<linearGradient id="paint1_linear_132_2985" x1="0" y1="0" x2="1620" y2="435" gradientUnits="userSpaceOnUse">
<stop stop-color="#B4E5FF"/>
<stop offset="1" stop-color="#2EB7FF"/>
</linearGradient>
<radialGradient id="paint2_radial_132_2985" cx="0" cy="0" r="1" gradientUnits="userSpaceOnUse" gradientTransform="translate(-48.4787 43.468) rotate(90) scale(206.468 238.521)">
<stop stop-color="white"/>
<stop offset="1" stop-color="white" stop-opacity="0"/>
</radialGradient>
<radialGradient id="paint3_radial_132_2985" cx="0" cy="0" r="1" gradientUnits="userSpaceOnUse" gradientTransform="translate(1695.52 406.468) rotate(90) scale(206.468 238.521)">
<stop stop-color="white"/>
<stop offset="1" stop-color="white" stop-opacity="0"/>
</radialGradient>
</defs>
</svg>
