<svg width="324" height="389" viewBox="0 0 324 389" fill="none" xmlns="http://www.w3.org/2000/svg">
<rect width="324" height="388" transform="translate(0 0.277344)" fill="url(#paint0_linear_278_65)"/>
<mask id="mask0_278_65" style="mask-type:alpha" maskUnits="userSpaceOnUse" x="0" y="0" width="324" height="389">
<rect y="0.277344" width="324" height="388" rx="16" fill="url(#paint1_linear_278_65)"/>
</mask>
<g mask="url(#mask0_278_65)">
<path d="M401.136 529.889L407.188 526.4L413.039 529.755L415 530.879V528.514L408.21 524.605V507.761L415 503.835V501.47L407.138 505.983L402.108 503.097L392.502 497.544V480.666L402.108 475.113L407.138 472.228L411.731 474.895L414.95 476.741V474.392L408.16 470.466V453.589L414.95 449.663V447.297L412.972 448.455L407.138 451.81L401.102 448.338L392.536 443.388V426.511L399.56 422.451L407.138 418.072L414.749 422.468L414.95 422.585V420.22L413.961 419.649L408.16 416.294V399.467L414.95 395.541V393.192H414.832L407.138 397.655L399.493 393.243L392.536 389.216V372.339L398.806 368.715L407.188 363.9L415 368.413V366.047L408.21 362.138V345.261L415 341.335V338.97L413.877 339.624L407.171 343.483L400.432 339.574L392.62 335.044V318.166L401.186 313.217L407.221 309.728L413.055 313.083L415.034 314.241V311.892L408.244 307.966V291.089L413.759 287.901L415.034 287.163V284.797L411.815 286.66L407.138 289.327L402.108 286.441L392.502 280.888V264.011L399.46 259.984L407.138 255.572L414.816 260.018H414.95V257.72L408.16 253.794V236.916L414.95 233.007V230.642L411.815 232.454L407.138 235.155L402.192 232.303L392.586 226.666V218.277H390.541V226.666L381.455 231.917L375.939 235.104L370.223 231.749L361.338 226.666V218.277H359.292V226.666L350.139 232.018L344.724 235.155L339.494 232.135L330.022 226.666V218.277H327.977V226.666L318.589 232.085L313.375 235.104L308.346 232.219L298.824 226.666V218.277H296.795V226.666L286.854 232.403L282.177 235.104L277.147 232.252L267.575 226.666V218.277H265.547V226.666L256.46 231.917L250.928 235.104L245.228 231.749L236.326 226.666V218.277H234.281V226.666L225.094 231.967L219.679 235.104L214.466 232.085L205.078 226.666V218.277H203.033V226.666L193.661 232.135L188.431 235.155L183.402 232.269L173.829 226.666V218.277H171.784V226.666L161.859 232.454L157.182 235.155L152.153 232.303L142.581 226.666V218.277H140.586V226.666L131.466 231.967L125.934 235.155L120.234 231.799L111.332 226.666V218.277H109.287V226.666L100.1 232.018L94.6851 235.155L89.4714 232.135L80.0834 226.666V218.277H78.0381V226.666L68.6501 232.085L63.47 235.155L58.4407 232.269L48.8348 226.666V218.277H46.7895V226.666L40 230.642V233.007L47.8122 228.494L56.2111 233.376L62.4138 236.95V253.794L55.9764 257.518L47.8122 262.233L40 257.72V260.085L46.7895 264.011V280.888L40 284.797V287.163L47.8122 282.65L57.2001 288.069L62.4138 291.089V307.966L54.0317 312.815L47.8289 316.405L40 311.892V314.257L46.7895 318.166V335.044L40 338.97V341.335L41.1232 340.748L47.8289 336.889L55.0878 341.033L62.3803 345.261V362.138L53.5288 367.171L47.7786 370.527L40 366.047V368.413L40.6538 368.799L46.7895 372.339V389.216L40.0838 393.142V395.491L41.9614 394.434L47.8122 391.078L54.2664 394.803L62.4138 399.467V416.243L57.0493 419.347L47.8122 424.682L40 420.22V422.585L46.7895 426.511V443.388L40.0838 447.297V449.663L47.896 445.15L62.4977 453.538V470.416L56.0434 474.14L47.896 478.854L40 474.392V476.741L46.7895 480.666V497.544L40 501.47V503.835L47.8122 499.322L62.4138 507.711V524.588L47.8122 532.976L40 528.547V530.913L46.7895 534.839V543.227H48.8348V534.839L57.1163 530.057L63.47 526.4L69.9242 530.124L78.0717 534.839V543.227H80.1169V534.839L88.2643 530.124L94.7186 526.4L101.257 530.175L109.32 534.839V543.227H111.366V534.839L119.01 530.426L125.967 526.4L132.857 530.326L140.586 534.839V543.227H142.631V534.839L151.197 529.889L157.233 526.4L163.1 529.755L171.834 534.788V543.177H173.879V534.788L182.161 530.007L188.481 526.35L194.935 530.074L203.083 534.788V543.177H205.128V534.788L213.292 530.074L219.73 526.35L226.285 530.124L234.331 534.788V543.177H236.377V534.788L244.021 530.376L250.978 526.35L257.936 530.326L265.63 534.772V543.16H267.659V534.772L276.225 529.822L282.26 526.333L288.128 529.688L296.879 534.721V543.11H298.907V534.721L307.189 529.94L313.526 526.282L319.963 530.007L328.128 534.721V543.11H330.022V534.721L338.169 530.007L344.624 526.282L351.162 530.057L359.225 534.721V543.11H361.271V534.721L368.898 530.309L375.872 526.282L382.779 530.275L390.474 534.721V543.11H392.519V534.721L401.136 529.889ZM406.165 453.589V470.466L399.845 474.123L391.564 478.905L383.5 474.241L376.962 470.466V453.589L391.564 445.2L406.165 453.589ZM103.369 368.916L109.287 372.272V389.149L102.749 392.924L94.6851 397.588L86.5209 392.873L80.0834 389.149V372.339L85.8503 368.983L94.6851 363.95L103.369 368.916ZM95.7077 362.205V345.261L103.017 341.033L110.309 336.822L118.138 341.335L124.844 345.261V362.138L116.462 366.953L110.192 370.577L104.442 367.222L95.7077 362.205ZM95.7077 399.483L103.872 394.769L110.309 391.045L117.283 395.071L124.911 399.467V416.243L119.882 419.129L110.259 424.682L101.022 419.347L95.7077 416.243V399.483ZM117.35 392.773L111.332 389.3V372.339L116.764 369.268L125.934 363.967L135.338 369.268L140.586 372.339V389.216L134.752 392.571L125.984 397.604L117.35 392.773ZM126.956 362.222V345.261L134.266 341.033L141.558 336.822L148.867 341.033L156.16 345.261V362.138L147.107 367.356L141.558 370.577L135.64 367.222L126.956 362.222ZM126.956 399.5L135.02 394.853L141.558 391.062L147.878 394.719L156.16 399.467V416.243L151.13 419.163L141.575 424.682L132.572 419.599L126.956 416.243V399.5ZM149.538 393.326L142.581 389.3V372.339L148.85 368.715L157.233 363.9L165.615 368.799L171.75 372.339V389.216L164.844 393.209L157.149 397.655L149.538 393.326ZM158.205 362.222V345.261L166.118 340.748L172.823 336.889L180.133 341.1L187.425 345.328V362.138L178.573 367.171L172.823 370.527L167.643 367.591L158.205 362.222ZM158.205 399.5L166.956 394.467L172.807 391.112L179.261 394.836L187.408 399.467V416.243L182.044 419.347L172.807 424.682L164.056 419.599L158.238 416.243L158.205 399.5ZM180.133 392.941L173.829 389.3V372.339L179.395 369.117L188.431 363.9L197.266 368.933L203.033 372.288V389.166L196.612 392.89L188.431 397.604L180.133 392.941ZM189.453 362.222V345.261L196.159 341.385L204.055 336.822L210.761 340.731L218.573 345.261V362.138L209.403 367.44L203.971 370.577L197.852 367.02L189.453 362.222ZM189.453 399.5L197.148 395.071L204.055 391.062L210.107 394.551L218.657 399.584V416.243L212.672 419.783L204.089 424.816L194.03 419.045L189.453 416.243V399.5ZM211.515 393.024L205.078 389.3V372.339L210.845 368.983L219.679 363.95L228.363 368.983L234.281 372.339V389.216L227.76 392.991L219.679 397.655L211.515 393.024ZM220.702 362.222V345.261L228.011 341.033L235.304 336.822L243.133 341.335L249.838 345.261V362.138L241.456 366.953L235.186 370.577L229.436 367.222L220.702 362.222ZM220.702 399.5L228.866 394.786L235.304 391.062L242.278 395.088L249.905 399.5V416.243L244.876 419.129L235.253 424.682L226.033 419.347L220.702 416.243V399.5ZM242.362 392.79L236.326 389.317V372.339L241.775 369.268L250.928 363.967L260.35 369.268L265.547 372.272V389.149L259.696 392.504L250.928 397.537L242.362 392.79ZM251.951 362.239V345.261L259.26 341.033L266.552 336.822L273.862 341.033L281.171 345.261V362.138L272.118 367.356L266.552 370.577L260.651 367.222L251.951 362.239ZM251.951 399.517L260.014 394.87L266.552 391.078L272.889 394.736L281.171 399.517V416.243L276.142 419.163L266.569 424.682L257.583 419.481L251.951 416.243V399.517ZM274.532 393.343L267.575 389.317V372.339L273.862 368.715L282.244 363.9L290.626 368.799L296.778 372.339V389.216L289.855 393.209L282.16 397.655L274.532 393.343ZM283.199 362.239V345.261L291.112 340.748L297.818 336.889L305.11 341.1L312.419 345.328V362.138L303.568 367.171L297.818 370.527L292.638 367.591L283.199 362.239ZM283.199 399.517L291.95 394.484L297.818 391.129L304.255 394.853L312.419 399.467V416.243L307.038 419.347L297.818 424.682L289.016 419.649L283.199 416.294V399.517ZM305.144 392.957L298.824 389.317V372.339L304.406 369.117L313.442 363.9L322.277 368.933L328.044 372.288V389.166L321.64 392.941L313.476 397.655L305.144 392.957ZM314.448 362.239V345.261L321.154 341.385L329.066 336.822L335.772 340.731L343.601 345.261V362.138L334.414 367.44L328.999 370.577L322.864 367.02L314.448 362.239ZM314.448 399.517L322.143 395.088L329.066 391.078L335.051 394.434L343.618 399.467V416.243L337.583 419.733L329.016 424.766L318.957 418.995L314.448 416.243V399.517ZM336.51 393.041L330.022 389.216V372.339L335.789 368.983L344.624 363.95L353.291 368.983L359.225 372.339V389.216L352.687 392.991L344.624 397.655L336.51 393.041ZM345.713 362.239V345.261L353.006 341.033L360.315 336.822L368.127 341.335L374.917 345.261V362.138L366.534 366.953L360.281 370.577L354.515 367.222L345.713 362.239ZM345.713 399.517L353.861 394.803L360.315 391.078L367.272 395.105L374.917 399.517V416.243L369.887 419.129L360.281 424.682L351.044 419.347L345.68 416.243L345.713 399.517ZM367.356 392.806L361.338 389.334V372.339L366.769 369.268L375.939 363.967L385.344 369.268L390.541 372.272V389.149L384.707 392.504L375.939 397.537L367.356 392.806ZM368.11 339.121L361.405 335.195V318.166L369.049 313.754L376.006 309.728L382.913 313.721L390.608 318.166V335.044L383.902 338.919L376.006 343.483L368.11 339.121ZM374.917 308.117L367.188 312.58L360.315 316.556L354.095 312.966L345.713 308.117V291.089L350.927 288.069L360.315 282.65L369.971 288.237L374.917 291.089V308.117ZM351.212 313.67L359.292 318.317V335.044L351.983 339.272L344.691 343.483L337.381 339.272L330.022 335.044V318.166L338.186 313.452L344.624 309.728L351.212 313.67ZM343.668 308.117L334.766 313.251L329.066 316.606L322.26 312.68L314.448 308.167V291.089L319.125 288.388L329.066 282.65L337.951 287.8L343.668 291.156V308.117ZM319.863 313.603L328.044 318.317V335.044L320.735 339.272L313.442 343.483L306.133 339.272L298.824 335.044V318.166L307.206 313.385L313.526 309.728L319.863 313.603ZM312.419 308.117L304.037 312.966L297.835 316.556L292.42 313.419L283.216 308.117V291.089L288.748 287.901L297.835 282.65L307.206 288.069L312.436 291.089L312.419 308.117ZM288.111 313.1L296.879 318.133V335.044L288.966 339.624L282.26 343.483L275.555 339.574L267.726 335.044V318.166L276.309 313.217L282.328 309.728L288.111 313.1ZM281.255 307.966L272.638 312.999L266.636 316.472L260.283 312.798L252.035 308.033V291.089L257.449 287.968L266.636 282.65L276.276 288.22L281.305 291.089L281.255 307.966ZM257.936 313.721L265.63 318.166V335.044L258.925 338.919L251.012 343.483L243.2 338.97L236.494 335.044V318.166L244.139 313.754L251.096 309.728L257.936 313.721ZM249.989 307.966L242.278 312.429L235.388 316.405L229.185 312.815L220.803 307.966V291.089L226.033 288.069L235.404 282.65L245.061 288.237L250.006 291.089L249.989 307.966ZM226.301 313.519L234.365 318.166V335.044L227.073 339.272L219.763 343.483L212.471 339.272L205.078 335.044V318.166L213.242 313.452L219.679 309.728L226.301 313.519ZM218.741 307.966L209.856 313.1L204.139 316.455L197.433 312.529L189.621 308.016V291.089L194.298 288.388L204.223 282.65L213.125 287.8L218.824 291.156L218.741 307.966ZM194.868 313.452L203.033 318.166V335.044L195.74 339.272L188.431 343.483L181.138 339.272L173.829 335.044V318.166L182.211 313.385L188.515 309.728L194.868 313.452ZM187.408 307.966L179.026 312.815L172.807 316.405L167.408 313.268L158.222 307.966V291.089L163.754 287.901L172.823 282.65L182.211 288.069L187.425 291.089L187.408 307.966ZM163.016 313.1L171.784 318.133V335.044L163.888 339.624L157.182 343.483L150.477 339.574L142.648 335.044V318.166L151.231 313.217L157.249 309.728L163.016 313.1ZM156.16 307.966L147.56 312.999L141.558 316.472L135.204 312.731L126.956 307.966V291.089L132.371 287.968L141.558 282.65L151.181 288.22L156.21 291.089L156.16 307.966ZM132.841 313.721L140.586 318.166V335.044L133.88 338.919L125.967 343.483L118.122 338.97L111.332 335.044V318.166L118.976 313.754L125.934 309.728L132.841 313.721ZM124.911 307.966L117.116 312.429L110.242 316.405L104.04 312.815L95.6574 307.966V291.089L100.871 288.069L110.259 282.65L119.966 288.237L124.911 291.089V307.966ZM101.223 313.519L109.287 318.166V335.044L102.028 339.272L94.7186 343.483L87.4261 339.272L80.0834 335.044V318.166L88.2476 313.452L94.6851 309.728L101.223 313.519ZM93.6457 307.966L84.7606 313.1L79.044 316.455L72.2545 312.529L64.4423 308.016V291.089L69.1195 288.388L79.044 282.65L87.9458 287.8L93.6457 291.156V307.966ZM85.8503 340.748L93.6457 345.261V362.138L84.4589 367.44L79.0608 370.577L72.9418 367.02L64.4591 362.138V345.261L71.1648 341.385L79.0775 336.822L85.8503 340.748ZM85.0959 394.434L93.6457 399.467V416.243L87.6273 419.733L79.044 424.766L68.9854 418.995L64.4591 416.243V399.467L72.1539 395.038L79.0608 391.028L85.0959 394.434ZM93.6457 453.589V470.466L86.6885 474.493L79.044 478.905L70.293 473.872L64.4423 470.516V453.589L79.044 445.2L93.6457 453.589ZM88.2476 448.119L80.0834 443.405V426.511L86.6885 422.686L94.6851 418.072L102.615 422.652L109.32 426.511V443.388L101.223 448.119L94.6851 451.894L88.2476 448.119ZM95.7077 453.605L110.309 445.217L124.911 453.605V470.483L118.876 473.972L110.309 478.922L102.162 474.207L95.7077 470.483V453.605ZM118.976 447.817L111.332 443.405V426.511L117.602 422.954L125.984 418.139L134.4 422.954L140.586 426.511V443.388L132.891 447.834L125.984 451.81L118.976 447.817ZM126.956 453.605L141.558 445.217L156.16 453.605V470.483L149.84 474.14L141.558 478.922L133.494 474.258L126.956 470.483V453.605ZM151.164 448.354L142.581 443.405V426.511L149.605 422.451L157.182 418.072L164.793 422.468L171.784 426.511V443.388L163.016 448.421L157.182 451.777L151.164 448.354ZM158.205 453.605L172.807 445.217L187.408 453.605V470.483L180.971 474.207L172.807 478.922L165.129 474.476L158.205 470.483V453.605ZM182.128 448.119L173.745 443.338V426.511L180.283 422.736L188.347 418.072L196.344 422.686L202.949 426.511V443.388L194.868 448.119L188.431 451.827L182.128 448.119ZM189.453 453.538L204.055 445.15L218.657 453.538V470.416L211.7 474.442L204.055 478.854L195.321 473.821L189.453 470.466V453.538ZM213.242 448.119L205.078 443.405V426.511L211.683 422.686L219.679 418.072L227.609 422.652L234.315 426.511V443.388L226.218 448.119L219.679 451.894L213.242 448.119ZM220.702 453.605L235.304 445.217L249.905 453.605V470.483L243.87 473.972L235.304 478.922L227.156 474.207L220.702 470.483V453.605ZM243.971 447.817L236.326 443.405V426.511L242.596 422.887L250.978 418.072L259.444 422.954L265.597 426.511V443.388L257.936 447.834L251.012 451.81L243.971 447.817ZM251.951 453.605L266.552 445.217L281.171 453.605V470.483L274.834 474.14L266.552 478.922L258.506 474.258L251.951 470.483V453.605ZM276.158 448.354L267.575 443.405V426.511L274.599 422.451L282.177 418.072L289.804 422.468L296.795 426.511V443.388L288.027 448.421L282.177 451.777L276.158 448.354ZM283.199 453.605L297.818 445.217L312.419 453.605V470.483L305.965 474.207L297.818 478.922L290.123 474.476L283.199 470.483V453.605ZM307.122 448.119L298.74 443.338V426.511L305.278 422.736L313.358 418.072L321.355 422.686L327.96 426.511V443.388L319.863 448.119L313.442 451.827L307.122 448.119ZM314.448 453.538L329.066 445.15L343.668 453.538V470.416L336.694 474.442L329.066 478.854L320.315 473.821L314.448 470.466V453.538ZM338.253 448.052L330.022 443.388V426.511L336.627 422.686L344.624 418.072L352.553 422.652L359.259 426.511V443.388L351.212 448.119L344.691 451.894L338.253 448.052ZM345.713 453.538L360.315 445.15L374.917 453.538V470.416L368.865 473.905L360.315 478.854L352.151 474.14L345.713 470.416V453.538ZM368.982 447.75L361.338 443.338V426.511L367.591 422.887L375.973 418.072L384.355 422.954L390.507 426.511V443.388L382.813 447.834L375.906 451.81L368.982 447.75ZM397.884 394.585L406.165 399.366V416.243L401.136 419.163L391.58 424.682L382.578 419.481L376.962 416.243V399.467L385.009 394.82L391.564 391.028L397.884 394.585ZM398.856 340.983L406.165 345.211V362.138L397.079 367.356L391.53 370.577L385.612 367.222L376.928 362.189V345.261L384.221 341.033L391.53 336.822L398.856 340.983ZM401.186 288.169L406.216 291.038V307.966L397.599 312.999L391.614 316.472L385.243 312.798L376.962 307.966V291.089L382.377 287.968L391.564 282.65L401.186 288.169ZM376.962 236.916L383.316 233.242L391.564 228.494L400.164 233.527L406.165 236.983V253.794L399.862 257.451L391.564 262.233L383.483 257.569L376.962 253.794V236.916ZM384.69 260.622L390.541 263.977V280.888L381.74 285.921L375.939 289.277L369.904 285.787L361.338 280.754V264.011L367.373 260.521L375.939 255.572L384.69 260.622ZM345.713 236.916L351.916 233.376L360.298 228.528L369.183 233.662L374.9 237.017V253.794L368.865 257.283L360.298 262.233L352.117 257.518L345.697 253.794L345.713 236.916ZM352.754 260.219L359.292 264.011V280.888L350.29 286.072L344.691 289.327L339.309 286.223L330.022 280.888V264.011L336.526 260.219L344.691 255.505L352.754 260.219ZM314.448 236.916L319.863 233.796L329.066 228.494L336.728 232.957L343.618 236.916V253.794L336.728 257.82L329.083 262.233L320.315 257.2L314.465 253.844L314.448 236.916ZM321.64 260.219L328.094 263.944V280.888L318.857 286.223L313.492 289.327L308.463 286.408L298.891 280.888V264.011L305.211 260.354L313.593 255.572L321.64 260.219ZM283.25 236.849L290.056 232.923L297.868 228.427L306.25 233.276L312.47 236.849V253.794L306.032 257.518L297.868 262.233L290.173 257.787L283.25 253.794V236.849ZM289.955 259.951L296.879 263.944V280.888L286.82 286.66L282.21 289.327L277.181 286.441L267.558 280.888V264.011L274.532 259.984L282.16 255.572L289.955 259.951ZM251.951 236.916L258.321 233.242L266.552 228.494L275.169 233.527L281.171 236.983V253.794L274.851 257.451L266.469 262.233L258.405 257.569L251.867 253.794L251.951 236.916ZM259.612 260.622L265.479 263.977V280.888L256.678 285.921L250.861 289.277L244.843 285.787L236.259 280.754V264.011L242.294 260.521L250.861 255.572L259.612 260.622ZM220.702 236.916L226.922 233.376L235.304 228.528L244.206 233.662L249.905 237.017V253.794L243.887 257.283L235.304 262.233L227.14 257.518L220.702 253.794V236.916ZM227.76 260.219L234.298 264.011V280.888L225.312 286.072L219.696 289.327L214.348 286.223L205.111 280.888V264.011L211.532 260.219L219.679 255.505L227.76 260.219ZM189.453 236.916L194.868 233.796L204.055 228.494L211.784 232.957L218.657 236.916V253.794L211.7 257.82L204.055 262.233L195.287 257.2L189.453 253.844V236.916ZM196.595 260.219L203.033 263.944V280.888L193.812 286.223L188.431 289.327L183.402 286.408L173.846 280.888V264.011L180.166 260.354L188.448 255.572L196.595 260.219ZM158.205 236.916L165.011 232.991L172.807 228.494L181.189 233.343L187.391 236.916V253.794L180.954 257.518L172.807 262.233L165.112 257.787L158.205 253.794V236.916ZM164.911 260.018L171.817 264.011V280.888L161.759 286.66L157.182 289.327L152.153 286.441L142.53 280.888V264.011L149.487 259.984L157.132 255.572L164.911 260.018ZM126.956 236.916L133.327 233.242L141.558 228.494L150.175 233.527L156.16 236.983V253.794L149.856 257.451L141.474 262.233L133.411 257.569L126.872 253.794L126.956 236.916ZM134.685 260.622L140.535 263.977V280.888L131.751 285.921L125.934 289.277L119.915 285.787L111.332 280.754V264.011L117.367 260.521L125.934 255.572L134.685 260.622ZM95.7077 236.916L101.91 233.376L110.293 228.528L119.178 233.662L124.894 237.017V253.794L118.876 257.283L110.309 262.233L102.145 257.518L95.7077 253.794V236.916ZM102.749 260.219L109.287 264.011V280.888L100.351 286.072L94.7354 289.327L89.3708 286.223L80.1337 280.888V264.011L86.5209 260.219L94.6851 255.505L102.749 260.219ZM64.4591 236.916L69.8739 233.796L79.0608 228.494L86.7891 232.957L93.6457 236.916V253.794L86.6885 257.82L79.0608 262.233L70.293 257.2L64.4591 253.844V236.916ZM58.4407 286.408L48.8851 280.888V264.011L55.0878 260.354L63.47 255.572L71.6007 260.219L78.0381 263.944V280.888L68.801 286.223L63.47 289.327L58.4407 286.408ZM56.1272 339.272L48.8348 335.044V318.166L57.2169 313.385L63.47 309.728L69.9075 313.452L78.0717 318.166V335.044L70.7792 339.272L63.47 343.483L56.1272 339.272ZM55.0878 392.857L48.7845 389.216V372.339L54.3502 369.117L63.47 363.9L72.3048 368.933L78.0717 372.288V389.166L71.6342 392.89L63.47 397.655L55.0878 392.857ZM57.0828 448.22L48.7007 443.439V426.511L55.222 422.736L63.47 418.072L71.4665 422.686L78.0717 426.511V443.388L69.8739 448.119L63.47 451.81L57.0828 448.22ZM58.4407 503.063L48.8851 497.544V480.666L58.4407 475.147L63.47 472.228L68.8345 475.331L78.0717 480.666V497.544L63.47 505.932L58.4407 503.063ZM93.6457 524.638L79.044 533.027L64.4423 524.638V507.761L79.044 499.373L93.6457 507.761V524.638ZM89.3037 502.829L80.0666 497.493V480.666L89.3037 475.331L94.6683 472.228L100.351 475.482L109.337 480.666V497.544L94.7354 505.932L89.3037 502.829ZM124.894 524.638L110.293 533.027L95.6909 524.638V507.761L110.293 499.373L124.894 507.761V524.638ZM119.865 502.51L111.282 497.477V480.666L119.865 475.633L125.883 472.144L131.701 475.499L140.485 480.532V497.41L125.883 505.798L119.865 502.51ZM156.109 524.638L141.508 533.027L126.906 524.638V507.761L141.508 499.373L156.109 507.761V524.638ZM152.153 503.097L142.53 497.544V480.666L152.153 475.113L157.182 472.228L161.792 474.962L171.851 480.733V497.611L157.249 505.999L152.153 503.097ZM187.358 524.638L172.756 533.027L158.155 524.638V507.761L172.756 499.373L187.358 507.761V524.638ZM183.335 503.063L173.779 497.544V480.666L183.335 475.147L188.364 472.228L193.745 475.331L202.965 480.666V497.544L188.364 505.932L183.335 503.063ZM218.54 524.638L203.938 533.027L189.336 524.638V507.761L203.938 499.373L218.54 507.761V524.638ZM214.198 502.829L204.96 497.493V480.666L214.198 475.331L219.562 472.228L225.178 475.482L234.164 480.666V497.544L219.562 505.932L214.198 502.829ZM249.788 524.638L235.186 533.027L220.585 524.638V507.761L235.186 499.373L249.788 507.761V524.638ZM244.759 502.51L236.176 497.477V480.666L244.759 475.633L250.777 472.144L256.594 475.499L265.396 480.532V497.41L250.777 505.798L244.759 502.51ZM281.02 524.638L266.402 533.027L251.8 524.638V507.761L266.402 499.373L281.02 507.761V524.638ZM277.047 503.097L267.424 497.544V480.666L277.047 475.113L282.076 472.228L286.686 474.895L296.745 480.666V497.544L282.126 505.932L277.047 503.097ZM312.252 524.638L297.65 533.027L283.032 524.638V507.761L297.65 499.373L312.252 507.761V524.638ZM308.228 503.063L298.656 497.544V480.666L308.228 475.147L313.258 472.228L318.622 475.331L327.859 480.666V497.544L313.258 505.932L308.228 503.063ZM343.433 524.638L328.832 533.027L314.213 524.638V507.761L328.832 499.373L343.433 507.761V524.638ZM339.075 502.829L329.854 497.493V480.666L339.075 475.331L344.456 472.228L350.055 475.482L359.058 480.666V497.544L344.456 505.932L339.075 502.829ZM374.682 524.638L360.08 533.027L345.479 524.638V507.761L360.08 499.373L374.682 507.761V524.638ZM369.653 502.51L361.086 497.477V480.666L369.653 475.633L375.688 472.144L381.488 475.499L390.289 480.532V497.41L375.688 505.798L369.653 502.51ZM376.962 524.638V507.761L391.564 499.373L406.165 507.761V524.638L391.564 533.027L376.962 524.638Z" fill="url(#paint2_radial_278_65)"/>
</g>
<defs>
<linearGradient id="paint0_linear_278_65" x1="162" y1="0" x2="162" y2="388" gradientUnits="userSpaceOnUse">
<stop stop-color="#867DFD"/>
<stop offset="1" stop-color="#2B1FC7"/>
</linearGradient>
<linearGradient id="paint1_linear_278_65" x1="162" y1="0.277344" x2="162" y2="388.277" gradientUnits="userSpaceOnUse">
<stop stop-color="#867DFD"/>
<stop offset="1" stop-color="#2B1FC7"/>
</linearGradient>
<radialGradient id="paint2_radial_278_65" cx="0" cy="0" r="1" gradientUnits="userSpaceOnUse" gradientTransform="translate(227.517 380.752) rotate(90) scale(162.475 187.517)">
<stop stop-color="white"/>
<stop offset="1" stop-color="white" stop-opacity="0"/>
</radialGradient>
</defs>
</svg>
