<svg width="572" height="623" viewBox="0 0 572 623" fill="none" xmlns="http://www.w3.org/2000/svg">
<rect width="572" height="623" fill="white"/>
<g clip-path="url(#clip0_283_66)">
<path d="M554.365 403.987L562.063 399.553L569.505 403.817L572 405.245V402.239L563.364 397.272V375.867L572 370.878V367.872L561.999 373.607L555.602 369.94L543.383 362.883V341.436L555.602 334.379L561.999 330.712L567.842 334.102L571.936 336.447V333.462L563.3 328.474V307.026L571.936 302.038V299.032L569.42 300.503L561.999 304.766L554.322 300.353L543.426 294.064V272.617L552.36 267.457L561.999 261.893L571.68 267.479L571.936 267.628V264.622L570.678 263.897L563.3 259.633V238.25L571.936 233.261V230.276H571.787L561.999 235.947L552.275 230.34L543.426 225.224V203.776L551.401 199.171L562.063 193.053L572 198.788V195.782L563.364 190.814V169.367L572 164.378V161.372L570.571 162.203L562.042 167.107L553.469 162.139L543.532 156.383V134.936L554.429 128.647L562.106 124.212L569.526 128.476L572.043 129.947V126.962L563.406 121.974V100.526L570.422 96.4756L572.043 95.5376V92.5316L567.948 94.898L561.999 98.2878L555.602 94.6209L543.383 87.5641V66.1168L552.232 61.0001L561.999 55.3931L571.765 61.0427H571.936V58.122L563.3 53.1332V31.6859L571.936 26.7185V23.7124L567.948 26.0149L561.999 29.4473L555.708 25.823L543.49 18.6597V8H540.888V18.6597L529.33 25.3327L522.315 29.3834L515.043 25.1195L503.741 18.6597V8H501.14V18.6597L489.497 25.4606L482.609 29.4473L475.956 25.6099L463.908 18.6597V8H461.306V18.6597L449.365 25.5459L442.733 29.3834L436.336 25.7164L424.224 18.6597V8H421.643V18.6597L408.998 25.951L403.049 29.3834L396.651 25.7591L384.475 18.6597V8H381.895V18.6597L370.337 25.3327L363.301 29.3834L356.05 25.1195L344.727 18.6597V8H342.126V18.6597L330.44 25.3967L323.552 29.3834L316.92 25.5459L304.979 18.6597V8H302.377V18.6597L290.457 25.6099L283.804 29.4473L277.407 25.7804L265.231 18.6597V8H262.629V18.6597L250.005 26.0149L244.056 29.4473L237.659 25.823L225.482 18.6597V8H222.945V18.6597L211.345 25.3967L204.308 29.4473L197.057 25.1835L185.734 18.6597V8H183.133V18.6597L171.447 25.4606L164.559 29.4473L157.928 25.6099L145.986 18.6597V8H143.385V18.6597L131.443 25.5459L124.854 29.4473L118.457 25.7804L106.238 18.6597V8H103.636V18.6597L95 23.7124V26.7185L104.937 20.9835L115.62 27.1875L123.51 31.7285V53.1332L115.322 57.8661L104.937 63.8569L95 58.122V61.128L103.636 66.1168V87.5641L95 92.5316V95.5376L104.937 89.8027L116.879 96.6888L123.51 100.526V121.974L112.848 128.135L104.958 132.697L95 126.962V129.968L103.636 134.936V156.383L95 161.372V164.378L96.4287 163.632L104.958 158.728L114.192 163.994L123.468 169.367V190.814L112.209 197.21L104.894 201.474L95 195.782V198.788L95.8316 199.278L103.636 203.776V225.224L95.1066 230.212V233.197L97.4949 231.854L104.937 227.59L113.147 232.323L123.51 238.25V259.569L116.687 263.513L104.937 270.293L95 264.622V267.628L103.636 272.617V294.064L95.1066 299.032V302.038L105.044 296.303L123.617 306.962V328.41L115.407 333.143L105.044 339.133L95 333.462V336.447L103.636 341.436V362.883L95 367.872V370.878L104.937 365.143L123.51 375.803V397.25L104.937 407.91L95 402.282V405.288L103.636 410.276V420.936H106.238V410.276L116.772 404.2L124.854 399.553L133.064 404.286L143.427 410.276V420.936H146.029V410.276L156.392 404.286L164.602 399.553L172.918 404.35L183.175 410.276V420.936H185.777V410.276L195.501 404.669L204.35 399.553L213.114 404.541L222.945 410.276V420.936H225.546V410.276L236.443 403.987L244.12 399.553L251.583 403.817L262.693 410.212V420.872H265.295V410.212L275.829 404.136L283.868 399.489L292.078 404.222L302.441 410.212V420.872H305.043V410.212L315.428 404.222L323.616 399.489L331.954 404.286L342.19 410.212V420.872H344.791V410.212L354.515 404.605L363.364 399.489L372.214 404.541L382.002 410.191V420.851H384.582V410.191L395.479 403.902L403.155 399.467L410.619 403.731L421.75 410.127V420.787H424.33V410.127L434.864 404.051L442.925 399.403L451.113 404.136L461.498 410.127V420.787H463.908V410.127L474.271 404.136L482.481 399.403L490.798 404.2L501.055 410.127V420.787H503.656V410.127L513.359 404.52L522.229 399.403L531.015 404.477L540.803 410.127V420.787H543.404V410.127L554.365 403.987ZM560.762 307.026V328.474L552.723 333.121L542.189 339.197L531.932 333.271L523.615 328.474V307.026L542.189 296.367L560.762 307.026ZM175.605 199.427L183.133 203.691V225.138L174.816 229.935L164.559 235.862L154.175 229.871L145.986 225.138V203.776L153.322 199.512L164.559 193.117L175.605 199.427ZM165.86 190.899V169.367L175.157 163.994L184.433 158.643L194.392 164.378L202.922 169.367V190.814L192.259 196.933L184.284 201.538L176.97 197.274L165.86 190.899ZM165.86 238.271L176.245 232.28L184.433 227.548L193.304 232.664L203.007 238.25V259.569L196.61 263.236L184.37 270.293L172.62 263.513L165.86 259.569V238.271ZM193.39 229.743L185.734 225.33V203.776L192.643 199.875L204.308 193.138L216.27 199.875L222.945 203.776V225.224L215.524 229.488L204.372 235.883L193.39 229.743ZM205.608 190.921V169.367L214.906 163.994L224.182 158.643L233.479 163.994L242.755 169.367V190.814L231.24 197.444L224.182 201.538L216.654 197.274L205.608 190.921ZM205.608 238.292L215.865 232.387L224.182 227.569L232.221 232.216L242.755 238.25V259.569L236.358 263.279L224.203 270.293L212.752 263.833L205.608 259.569V238.292ZM234.332 230.447L225.482 225.33V203.776L233.458 199.171L244.12 193.053L254.782 199.278L262.587 203.776V225.224L253.801 230.298L244.013 235.947L234.332 230.447ZM245.357 190.921V169.367L255.422 163.632L263.951 158.728L273.249 164.08L282.525 169.452V190.814L271.265 197.21L263.951 201.474L257.362 197.743L245.357 190.921ZM245.357 238.292L256.488 231.897L263.93 227.633L272.14 232.366L282.503 238.25V259.569L275.68 263.513L263.93 270.293L252.799 263.833L245.399 259.569L245.357 238.292ZM273.249 229.957L265.231 225.33V203.776L272.31 199.683L283.804 193.053L295.042 199.449L302.377 203.712V225.16L294.21 229.893L283.804 235.883L273.249 229.957ZM285.105 190.921V169.367L293.634 164.442L303.678 158.643L312.208 163.611L322.145 169.367V190.814L310.481 197.551L303.572 201.538L295.788 197.018L285.105 190.921ZM285.105 238.292L294.893 232.664L303.678 227.569L311.376 232.003L322.251 238.399V259.569L314.639 264.068L303.721 270.464L290.926 263.13L285.105 259.569V238.292ZM313.167 230.063L304.979 225.33V203.776L312.314 199.512L323.552 193.117L334.598 199.512L342.126 203.776V225.224L333.831 230.021L323.552 235.947L313.167 230.063ZM324.853 190.921V169.367L334.15 163.994L343.426 158.643L353.385 164.378L361.914 169.367V190.814L351.252 196.933L343.277 201.538L335.963 197.274L324.853 190.921ZM324.853 238.292L335.238 232.302L343.426 227.569L352.297 232.686L362 238.292V259.569L355.602 263.236L343.362 270.293L331.634 263.513L324.853 259.569V238.292ZM352.404 229.765L344.727 225.352V203.776L351.658 199.875L363.301 193.138L375.285 199.875L381.895 203.691V225.138L374.453 229.402L363.301 235.798L352.404 229.765ZM364.601 190.942V169.367L373.899 163.994L383.175 158.643L392.472 163.994L401.769 169.367V190.814L390.254 197.444L383.175 201.538L375.668 197.274L364.601 190.942ZM364.601 238.314L374.858 232.408L383.175 227.59L391.235 232.238L401.769 238.314V259.569L395.372 263.279L383.196 270.293L371.766 263.684L364.601 259.569V238.314ZM393.325 230.468L384.475 225.352V203.776L392.472 199.171L403.134 193.053L413.796 199.278L421.622 203.776V225.224L412.815 230.298L403.027 235.947L393.325 230.468ZM404.349 190.942V169.367L414.414 163.632L422.944 158.728L432.22 164.08L441.517 169.452V190.814L430.258 197.21L422.944 201.474L416.355 197.743L404.349 190.942ZM404.349 238.314L415.481 231.918L422.944 227.654L431.133 232.387L441.517 238.25V259.569L434.672 263.513L422.944 270.293L411.749 263.897L404.349 259.633V238.314ZM432.263 229.978L424.224 225.352V203.776L431.325 199.683L442.818 193.053L454.056 199.449L461.392 203.712V225.16L453.246 229.957L442.861 235.947L432.263 229.978ZM444.098 190.942V169.367L452.627 164.442L462.692 158.643L471.222 163.611L481.18 169.367V190.814L469.495 197.551L462.607 201.538L454.802 197.018L444.098 190.942ZM444.098 238.314L453.885 232.686L462.692 227.59L470.305 231.854L481.202 238.25V259.569L473.525 264.004L462.628 270.4L449.834 263.066L444.098 259.569V238.314ZM472.16 230.085L463.908 225.224V203.776L471.243 199.512L482.481 193.117L493.506 199.512L501.055 203.776V225.224L492.738 230.021L482.481 235.947L472.16 230.085ZM483.867 190.942V169.367L493.143 163.994L502.441 158.643L512.378 164.378L521.014 169.367V190.814L510.352 196.933L502.398 201.538L495.062 197.274L483.867 190.942ZM483.867 238.314L494.231 232.323L502.441 227.59L511.29 232.707L521.014 238.314V259.569L514.617 263.236L502.398 270.293L490.648 263.513L483.825 259.569L483.867 238.314ZM511.397 229.786L503.741 225.373V203.776L510.65 199.875L522.315 193.138L534.278 199.875L540.888 203.691V225.138L533.467 229.402L522.315 235.798L511.397 229.786ZM512.356 161.564L503.827 156.575V134.936L513.55 129.329L522.4 124.212L531.186 129.286L540.973 134.936V156.383L532.444 161.308L522.4 167.107L512.356 161.564ZM521.014 122.166L511.184 127.837L502.441 132.889L494.529 128.327L483.867 122.166V100.526L490.499 96.6888L502.441 89.8027L514.723 96.902L521.014 100.526V122.166ZM490.862 129.222L501.14 135.128V156.383L491.842 161.756L482.566 167.107L473.269 161.756L463.908 156.383V134.936L474.293 128.945L482.481 124.212L490.862 129.222ZM481.266 122.166L469.943 128.689L462.692 132.953L454.035 127.964L444.098 122.23V100.526L450.047 97.0939L462.692 89.8027L473.994 96.3477L481.266 100.612V122.166ZM450.985 129.137L461.392 135.128V156.383L452.094 161.756L442.818 167.107L433.521 161.756L424.224 156.383V134.936L434.886 128.86L442.925 124.212L450.985 129.137ZM441.517 122.166L430.855 128.327L422.965 132.889L416.078 128.902L404.371 122.166V100.526L411.408 96.4756L422.965 89.8027L434.886 96.6888L441.539 100.526L441.517 122.166ZM410.597 128.497L421.75 134.893V156.383L411.685 162.203L403.155 167.107L394.626 162.139L384.667 156.383V134.936L395.585 128.647L403.241 124.212L410.597 128.497ZM401.876 121.974L390.915 128.37L383.281 132.783L375.199 128.114L364.708 122.059V100.526L371.596 96.5609L383.281 89.8027L395.543 96.8807L401.94 100.526L401.876 121.974ZM372.214 129.286L382.002 134.936V156.383L373.472 161.308L363.407 167.107L353.47 161.372L344.94 156.383V134.936L354.664 129.329L363.514 124.212L372.214 129.286ZM362.106 121.974L352.297 127.645L343.533 132.697L335.643 128.135L324.981 121.974V100.526L331.634 96.6888L343.554 89.8027L355.837 96.902L362.128 100.526L362.106 121.974ZM331.975 129.03L342.232 134.936V156.383L332.956 161.756L323.659 167.107L314.383 161.756L304.979 156.383V134.936L315.364 128.945L323.552 124.212L331.975 129.03ZM322.358 121.974L311.056 128.497L303.785 132.761L295.255 127.773L285.318 122.038V100.526L291.268 97.0939L303.891 89.8027L315.215 96.3477L322.465 100.612L322.358 121.974ZM291.993 128.945L302.377 134.936V156.383L293.101 161.756L283.804 167.107L274.528 161.756L265.231 156.383V134.936L275.893 128.86L283.911 124.212L291.993 128.945ZM282.503 121.974L271.841 128.135L263.93 132.697L257.064 128.711L245.378 121.974V100.526L252.415 96.4756L263.951 89.8027L275.893 96.6888L282.525 100.526L282.503 121.974ZM251.477 128.497L262.629 134.893V156.383L252.585 162.203L244.056 167.107L235.526 162.139L225.568 156.383V134.936L236.486 128.647L244.141 124.212L251.477 128.497ZM242.755 121.974L231.816 128.37L224.182 132.783L216.1 128.028L205.608 121.974V100.526L212.496 96.5609L224.182 89.8027L236.422 96.8807L242.819 100.526L242.755 121.974ZM213.093 129.286L222.945 134.936V156.383L214.415 161.308L204.35 167.107L194.371 161.372L185.734 156.383V134.936L195.458 129.329L204.308 124.212L213.093 129.286ZM203.007 121.974L193.091 127.645L184.348 132.697L176.458 128.135L165.796 121.974V100.526L172.428 96.6888L184.37 89.8027L196.716 96.902L203.007 100.526V121.974ZM172.876 129.03L183.133 134.936V156.383L173.899 161.756L164.602 167.107L155.326 161.756L145.986 156.383V134.936L156.371 128.945L164.559 124.212L172.876 129.03ZM163.237 121.974L151.935 128.497L144.664 132.761L136.028 127.773L126.091 122.038V100.526L132.04 97.0939L144.664 89.8027L155.987 96.3477L163.237 100.612V121.974ZM153.322 163.632L163.237 169.367V190.814L151.552 197.551L144.685 201.538L136.902 197.018L126.112 190.814V169.367L134.642 164.442L144.707 158.643L153.322 163.632ZM152.362 231.854L163.237 238.25V259.569L155.582 264.004L144.664 270.4L131.869 263.066L126.112 259.569V238.25L135.9 232.622L144.685 227.526L152.362 231.854ZM163.237 307.026V328.474L154.388 333.59L144.664 339.197L133.533 332.802L126.091 328.538V307.026L144.664 296.367L163.237 307.026ZM156.371 300.076L145.986 294.085V272.617L154.388 267.756L164.559 261.893L174.646 267.713L183.175 272.617V294.064L172.876 300.076L164.559 304.873L156.371 300.076ZM165.86 307.048L184.433 296.388L203.007 307.048V328.495L195.33 332.929L184.433 339.219L174.07 333.228L165.86 328.495V307.048ZM195.458 299.692L185.734 294.085V272.617L193.71 268.097L204.372 261.978L215.076 268.097L222.945 272.617V294.064L213.157 299.714L204.372 304.766L195.458 299.692ZM205.608 307.048L224.182 296.388L242.755 307.048V328.495L234.716 333.143L224.182 339.219L213.925 333.292L205.608 328.495V307.048ZM236.4 300.375L225.482 294.085V272.617L234.417 267.457L244.056 261.893L253.737 267.479L262.629 272.617V294.064L251.477 300.46L244.056 304.724L236.4 300.375ZM245.357 307.048L263.93 296.388L282.503 307.048V328.495L274.315 333.228L263.93 339.219L254.163 333.569L245.357 328.495V307.048ZM275.786 300.076L265.124 294V272.617L273.441 267.82L283.697 261.893L293.869 267.756L302.271 272.617V294.064L291.993 300.076L283.804 304.788L275.786 300.076ZM285.105 306.962L303.678 296.303L322.251 306.962V328.41L313.402 333.526L303.678 339.133L292.568 332.738L285.105 328.474V306.962ZM315.364 300.076L304.979 294.085V272.617L313.381 267.756L323.552 261.893L333.639 267.713L342.168 272.617V294.064L331.869 300.076L323.552 304.873L315.364 300.076ZM324.853 307.048L343.426 296.388L362 307.048V328.495L354.323 332.929L343.426 339.219L333.063 333.228L324.853 328.495V307.048ZM354.451 299.692L344.727 294.085V272.617L352.702 268.012L363.364 261.893L374.133 268.097L381.959 272.617V294.064L372.214 299.714L363.407 304.766L354.451 299.692ZM364.601 307.048L383.175 296.388L401.769 307.048V328.495L393.709 333.143L383.175 339.219L372.939 333.292L364.601 328.495V307.048ZM395.393 300.375L384.475 294.085V272.617L393.41 267.457L403.049 261.893L412.751 267.479L421.643 272.617V294.064L410.491 300.46L403.049 304.724L395.393 300.375ZM404.349 307.048L422.944 296.388L441.517 307.048V328.495L433.308 333.228L422.944 339.219L413.156 333.569L404.349 328.495V307.048ZM434.779 300.076L424.117 294V272.617L432.433 267.82L442.712 261.893L452.883 267.756L461.285 272.617V294.064L450.985 300.076L442.818 304.788L434.779 300.076ZM444.098 306.962L462.692 296.303L481.266 306.962V328.41L472.395 333.526L462.692 339.133L451.561 332.738L444.098 328.474V306.962ZM474.378 299.991L463.908 294.064V272.617L472.31 267.756L482.481 261.893L492.568 267.713L501.097 272.617V294.064L490.862 300.076L482.566 304.873L474.378 299.991ZM483.867 306.962L502.441 296.303L521.014 306.962V328.41L513.316 332.844L502.441 339.133L492.056 333.143L483.867 328.41V306.962ZM513.465 299.607L503.741 294V272.617L511.695 268.012L522.357 261.893L533.019 268.097L540.845 272.617V294.064L531.058 299.714L522.272 304.766L513.465 299.607ZM550.228 232.046L560.762 238.122V259.569L554.365 263.279L542.21 270.293L530.759 263.684L523.615 259.569V238.25L533.851 232.344L542.189 227.526L550.228 232.046ZM551.465 163.93L560.762 169.303V190.814L549.204 197.444L542.146 201.538L534.619 197.274L523.573 190.878V169.367L532.849 163.994L542.146 158.643L551.465 163.93ZM554.429 96.8168L560.826 100.462V121.974L549.866 128.37L542.253 132.783L534.15 128.114L523.615 121.974V100.526L530.503 96.5609L542.189 89.8027L554.429 96.8168ZM523.615 31.6859L531.697 27.0169L542.189 20.9835L553.128 27.3794L560.762 31.7712V53.1332L552.744 57.7809L542.189 63.8569L531.911 57.9301L523.615 53.1332V31.6859ZM533.446 61.8102L540.888 66.0741V87.5641L529.693 93.96L522.315 98.2238L514.638 93.7894L503.741 87.3936V66.1168L511.418 61.6823L522.315 55.3931L533.446 61.8102ZM483.867 31.6859L491.757 27.1875L502.419 21.0262L513.721 27.5499L520.993 31.8138V53.1332L513.316 57.5677L502.419 63.8569L492.013 57.8661L483.846 53.1332L483.867 31.6859ZM492.823 61.2986L501.14 66.1168V87.5641L489.689 94.1518L482.566 98.2878L475.721 94.3437L463.908 87.5641V66.1168L472.182 61.2986L482.566 55.3078L492.823 61.2986ZM444.098 31.6859L450.985 27.7205L462.692 20.9835L472.438 26.6545L481.202 31.6859V53.1332L472.438 58.2499L462.714 63.8569L451.561 57.4611L444.119 53.1972L444.098 31.6859ZM453.246 61.2986L461.456 66.0315V87.5641L449.706 94.3437L442.882 98.2878L436.485 94.5782L424.309 87.5641V66.1168L432.348 61.4691L443.01 55.3931L453.246 61.2986ZM404.413 31.6006L413.071 26.6119L423.008 20.8983L433.67 27.0596L441.581 31.6006V53.1332L433.393 57.8661L423.008 63.8569L413.22 58.2073L404.413 53.1332V31.6006ZM412.943 60.9575L421.75 66.0315V87.5641L408.956 94.898L403.091 98.2878L396.694 94.6209L384.454 87.5641V66.1168L393.325 61.0001L403.027 55.3931L412.943 60.9575ZM364.601 31.6859L372.704 27.0169L383.175 20.9835L394.135 27.3794L401.769 31.7712V53.1332L393.73 57.7809L383.068 63.8569L372.811 57.9301L364.495 53.1332L364.601 31.6859ZM374.346 61.8102L381.81 66.0741V87.5641L370.615 93.96L363.215 98.2238L355.56 93.7894L344.642 87.3936V66.1168L352.319 61.6823L363.215 55.3931L374.346 61.8102ZM324.853 31.6859L332.764 27.1875L343.426 21.0262L354.75 27.5499L362 31.8138V53.1332L354.344 57.5677L343.426 63.8569L333.042 57.8661L324.853 53.1332V31.6859ZM333.831 61.2986L342.147 66.1168V87.5641L330.717 94.1518L323.574 98.2878L316.771 94.3437L305.022 87.5641V66.1168L313.189 61.2986L323.552 55.3078L333.831 61.2986ZM285.105 31.6859L291.993 27.7205L303.678 20.9835L313.509 26.6545L322.251 31.6859V53.1332L313.402 58.2499L303.678 63.8569L292.526 57.4611L285.105 53.1972V31.6859ZM294.189 61.2986L302.377 66.0315V87.5641L290.649 94.3437L283.804 98.2878L277.407 94.5782L265.252 87.5641V66.1168L273.291 61.4691L283.825 55.3931L294.189 61.2986ZM245.357 31.6859L254.014 26.6971L263.93 20.9835L274.592 27.1448L282.482 31.6859V53.1332L274.293 57.8661L263.93 63.8569L254.142 58.2073L245.357 53.1332V31.6859ZM253.886 61.0427L262.672 66.1168V87.5641L249.877 94.898L244.056 98.2878L237.659 94.6209L225.419 87.5641V66.1168L234.268 61.0001L243.992 55.3931L253.886 61.0427ZM205.608 31.6859L213.712 27.0169L224.182 20.9835L235.142 27.3794L242.755 31.7712V53.1332L234.737 57.7809L224.075 63.8569L213.818 57.9301L205.502 53.1332L205.608 31.6859ZM215.439 61.8102L222.881 66.0741V87.5641L211.707 93.96L204.308 98.2238L196.652 93.7894L185.734 87.3936V66.1168L193.411 61.6823L204.308 55.3931L215.439 61.8102ZM165.86 31.6859L173.75 27.1875L184.412 21.0262L195.714 27.5499L202.986 31.8138V53.1332L195.33 57.5677L184.433 63.8569L174.049 57.8661L165.86 53.1332V31.6859ZM174.816 61.2986L183.133 66.1168V87.5641L171.767 94.1518L164.623 98.2878L157.8 94.3437L146.05 87.5641V66.1168L154.175 61.2986L164.559 55.3078L174.816 61.2986ZM126.112 31.6859L133 27.7205L144.685 20.9835L154.516 26.6545L163.237 31.6859V53.1332L154.388 58.2499L144.685 63.8569L133.533 57.4611L126.112 53.1972V31.6859ZM118.457 94.5782L106.302 87.5641V66.1168L114.192 61.4691L124.854 55.3931L135.196 61.2986L143.385 66.0315V87.5641L131.635 94.3437L124.854 98.2878L118.457 94.5782ZM115.514 161.756L106.238 156.383V134.936L116.9 128.86L124.854 124.212L133.042 128.945L143.427 134.936V156.383L134.151 161.756L124.854 167.107L115.514 161.756ZM114.192 229.85L106.174 225.224V203.776L113.253 199.683L124.854 193.053L136.092 199.449L143.427 203.712V225.16L135.239 229.893L124.854 235.947L114.192 229.85ZM116.729 300.204L106.067 294.128V272.617L114.362 267.82L124.854 261.893L135.025 267.756L143.427 272.617V294.064L133 300.076L124.854 304.766L116.729 300.204ZM118.457 369.897L106.302 362.883V341.436L118.457 334.422L124.854 330.712L131.678 334.656L143.427 341.436V362.883L124.854 373.543L118.457 369.897ZM163.237 397.314L144.664 407.974L126.091 397.314V375.867L144.664 365.207L163.237 375.867V397.314ZM157.714 369.599L145.965 362.819V341.436L157.714 334.656L164.538 330.712L171.767 334.848L183.197 341.436V362.883L164.623 373.543L157.714 369.599ZM202.986 397.314L184.412 407.974L165.839 397.314V375.867L184.412 365.207L202.986 375.867V397.314ZM196.588 369.194L185.67 362.798V341.436L196.588 335.04L204.244 330.606L211.643 334.87L222.817 341.265V362.713L204.244 373.372L196.588 369.194ZM242.691 397.314L224.118 407.974L205.544 397.314V375.867L224.118 365.207L242.691 375.867V397.314ZM237.659 369.94L225.419 362.883V341.436L237.659 334.379L244.056 330.712L249.92 334.187L262.714 341.521V362.969L244.141 373.628L237.659 369.94ZM282.439 397.314L263.866 407.974L245.293 397.314V375.867L263.866 365.207L282.439 375.867V397.314ZM277.322 369.897L265.167 362.883V341.436L277.322 334.422L283.719 330.712L290.564 334.656L302.292 341.436V362.883L283.719 373.543L277.322 369.897ZM322.102 397.314L303.529 407.974L284.956 397.314V375.867L303.529 365.207L322.102 375.867V397.314ZM316.579 369.599L304.83 362.819V341.436L316.579 334.656L323.403 330.712L330.547 334.848L341.976 341.436V362.883L323.403 373.543L316.579 369.599ZM361.85 397.314L343.277 407.974L324.704 397.314V375.867L343.277 365.207L361.85 375.867V397.314ZM355.453 369.194L344.535 362.798V341.436L355.453 335.04L363.109 330.606L370.508 334.87L381.703 341.265V362.713L363.109 373.372L355.453 369.194ZM401.577 397.314L382.983 407.974L364.409 397.314V375.867L382.983 365.207L401.577 375.867V397.314ZM396.523 369.94L384.283 362.883V341.436L396.523 334.379L402.921 330.712L408.785 334.102L421.579 341.436V362.883L402.985 373.543L396.523 369.94ZM441.304 397.314L422.731 407.974L404.136 397.314V375.867L422.731 365.207L441.304 375.867V397.314ZM436.186 369.897L424.01 362.883V341.436L436.186 334.422L442.584 330.712L449.407 334.656L461.157 341.436V362.883L442.584 373.543L436.186 369.897ZM480.967 397.314L462.394 407.974L443.799 397.314V375.867L462.394 365.207L480.967 375.867V397.314ZM475.423 369.599L463.695 362.819V341.436L475.423 334.656L482.268 330.712L489.39 334.848L500.841 341.436V362.883L482.268 373.543L475.423 369.599ZM520.715 397.314L502.142 407.974L483.569 397.314V375.867L502.142 365.207L520.715 375.867V397.314ZM514.318 369.194L503.422 362.798V341.436L514.318 335.04L521.995 330.606L529.373 334.87L540.568 341.265V362.713L521.995 373.372L514.318 369.194ZM523.615 397.314V375.867L542.189 365.207L560.762 375.867V397.314L542.189 407.974L523.615 397.314Z" fill="url(#paint0_radial_283_66)"/>
</g>
<defs>
<radialGradient id="paint0_radial_283_66" cx="0" cy="0" r="1" gradientUnits="userSpaceOnUse" gradientTransform="translate(333.521 214.468) rotate(90) scale(206.468 238.521)">
<stop stop-color="#FF8720"/>
<stop offset="1" stop-color="white" stop-opacity="0"/>
</radialGradient>
<clipPath id="clip0_283_66">
<rect width="477" height="413" fill="white" transform="translate(95 8)"/>
</clipPath>
</defs>
</svg>
