<svg width="573" height="624" viewBox="0 0 573 624" fill="none" xmlns="http://www.w3.org/2000/svg">
<rect x="0.396973" y="0.278809" width="572" height="623" fill="url(#paint0_linear_292_238)"/>
<path d="M553.762 483.266L561.46 478.832L568.902 483.095L571.397 484.524V481.518L562.761 476.55V455.146L571.397 450.157V447.151L561.396 452.886L554.999 449.219L542.78 442.162V420.715L554.999 413.658L561.396 409.991L567.239 413.381L571.333 415.726V412.741L562.697 407.753V386.305L571.333 381.316V378.31L568.817 379.781L561.396 384.045L553.719 379.632L542.823 373.343V351.896L551.757 346.736L561.396 341.172L571.077 346.758L571.333 346.907V343.901L570.075 343.176L562.697 338.912V317.529L571.333 312.54V309.555H571.184L561.396 315.226L551.672 309.619L542.823 304.503V283.055L550.798 278.45L561.46 272.331L571.397 278.066V275.06L562.761 270.093V248.646L571.397 243.657V240.651L569.968 241.482L561.439 246.386L552.866 241.418L542.929 235.662V214.215L553.826 207.925L561.503 203.491L568.923 207.755L571.44 209.226V206.241L562.803 201.252V179.805L569.819 175.754L571.44 174.816V171.81L567.345 174.177L561.396 177.567L554.999 173.9L542.78 166.843V145.396L551.629 140.279L561.396 134.672L571.162 140.322H571.333V137.401L562.697 132.412V110.965L571.333 105.997V102.991L567.345 105.294L561.396 108.726L555.105 105.102L542.887 97.9385V87.2788H540.285V97.9385L528.727 104.612L521.712 108.662L514.44 104.398L503.138 97.9385V87.2788H500.537V97.9385L488.894 104.739L482.006 108.726L475.353 104.889L463.305 97.9385V87.2788H460.703V97.9385L448.762 104.825L442.13 108.662L435.733 104.995L423.621 97.9385V87.2788H421.04V97.9385L408.395 105.23L402.446 108.662L396.048 105.038L383.872 97.9385V87.2788H381.292V97.9385L369.734 104.612L362.697 108.662L355.447 104.398L344.124 97.9385V87.2788H341.523V97.9385L329.837 104.675L322.949 108.662L316.317 104.825L304.376 97.9385V87.2788H301.774V97.9385L289.854 104.889L283.201 108.726L276.804 105.059L264.628 97.9385V87.2788H262.026V97.9385L249.402 105.294L243.453 108.726L237.056 105.102L224.879 97.9385V87.2788H222.342V97.9385L210.742 104.675L203.705 108.726L196.454 104.462L185.131 97.9385V87.2788H182.53V97.9385L170.844 104.739L163.956 108.726L157.325 104.889L145.383 97.9385V87.2788H142.781V97.9385L130.84 104.825L124.251 108.726L117.854 105.059L105.635 97.9385V87.2788H103.033V97.9385L94.397 102.991V105.997L104.334 100.262L115.017 106.466L122.907 111.007V132.412L114.719 137.145L104.334 143.136L94.397 137.401V140.407L103.033 145.396V166.843L94.397 171.81V174.816L104.334 169.081L116.276 175.968L122.907 179.805V201.252L112.245 207.414L104.355 211.976L94.397 206.241V209.247L103.033 214.215V235.662L94.397 240.651V243.657L95.8257 242.911L104.355 238.007L113.589 243.273L122.865 248.646V270.093L111.606 276.489L104.291 280.753L94.397 275.06V278.066L95.2286 278.557L103.033 283.055V304.503L94.5036 309.491V312.476L96.8919 311.133L104.334 306.869L112.544 311.602L122.907 317.529V338.848L116.084 342.792L104.334 349.572L94.397 343.901V346.907L103.033 351.896V373.343L94.5036 378.31V381.316L104.441 375.581L123.014 386.241V407.689L114.804 412.421L104.441 418.412L94.397 412.741V415.726L103.033 420.715V442.162L94.397 447.151V450.157L104.334 444.422L122.907 455.082V476.529L104.334 487.189L94.397 481.56V484.566L103.033 489.555V500.215H105.635V489.555L116.169 483.479L124.251 478.832L132.461 483.564L142.824 489.555V500.215H145.426V489.555L155.789 483.564L163.999 478.832L172.315 483.628L182.572 489.555V500.215H185.174V489.555L194.898 483.948L203.747 478.832L212.511 483.82L222.342 489.555V500.215H224.943V489.555L235.84 483.266L243.517 478.832L250.98 483.095L262.09 489.491V500.151H264.692V489.491L275.226 483.415L283.265 478.768L291.475 483.5L301.838 489.491V500.151H304.44V489.491L314.825 483.5L323.013 478.768L331.351 483.564L341.587 489.491V500.151H344.188V489.491L353.912 483.884L362.761 478.768L371.611 483.82L381.399 489.47V500.13H383.979V489.47L394.876 483.181L402.552 478.746L410.016 483.01L421.147 489.406V500.066H423.727V489.406L434.261 483.33L442.322 478.682L450.51 483.415L460.895 489.406V500.066H463.305V489.406L473.668 483.415L481.878 478.682L490.195 483.479L500.451 489.406V500.066H503.053V489.406L512.756 483.799L521.626 478.682L530.412 483.756L540.2 489.406V500.066H542.801V489.406L553.762 483.266ZM560.159 386.305V407.753L552.12 412.4L541.586 418.476L531.329 412.549L523.012 407.753V386.305L541.586 375.645L560.159 386.305ZM175.002 278.706L182.53 282.97V304.417L174.213 309.214L163.956 315.141L153.571 309.15L145.383 304.417V283.055L152.719 278.791L163.956 272.395L175.002 278.706ZM165.257 270.178V248.646L174.554 243.273L183.83 237.922L193.789 243.657L202.319 248.646V270.093L191.656 276.212L183.681 280.817L176.367 276.553L165.257 270.178ZM165.257 317.55L175.642 311.559L183.83 306.826L192.701 311.943L202.404 317.529V338.848L196.007 342.515L183.766 349.572L172.017 342.792L165.257 338.848V317.55ZM192.787 309.022L185.131 304.609V283.055L192.04 279.154L203.705 272.417L215.667 279.154L222.342 283.055V304.503L214.921 308.766L203.769 315.162L192.787 309.022ZM205.005 270.2V248.646L214.303 243.273L223.579 237.922L232.876 243.273L242.152 248.646V270.093L230.637 276.723L223.579 280.817L216.051 276.553L205.005 270.2ZM205.005 317.571L215.262 311.666L223.579 306.848L231.618 311.495L242.152 317.529V338.848L235.755 342.558L223.6 349.572L212.149 343.112L205.005 338.848V317.571ZM233.729 309.726L224.879 304.609V283.055L232.855 278.45L243.517 272.331L254.179 278.557L261.983 283.055V304.503L253.198 309.577L243.41 315.226L233.729 309.726ZM244.754 270.2V248.646L254.819 242.911L263.348 238.007L272.646 243.358L281.922 248.731V270.093L270.662 276.489L263.348 280.753L256.759 277.022L244.754 270.2ZM244.754 317.571L255.885 311.175L263.327 306.912L271.537 311.645L281.9 317.529V338.848L275.077 342.792L263.327 349.572L252.196 343.112L244.796 338.848L244.754 317.571ZM272.646 309.235L264.628 304.609V283.055L271.707 278.962L283.201 272.331L294.439 278.727L301.774 282.991V304.439L293.607 309.171L283.201 315.162L272.646 309.235ZM284.502 270.2V248.646L293.031 243.721L303.075 237.922L311.605 242.889L321.542 248.646V270.093L309.878 276.83L302.969 280.817L295.185 276.297L284.502 270.2ZM284.502 317.571L294.29 311.943L303.075 306.848L310.773 311.282L321.648 317.678V338.848L314.036 343.346L303.118 349.742L290.323 342.408L284.502 338.848V317.571ZM312.564 309.342L304.376 304.609V283.055L311.711 278.791L322.949 272.395L333.995 278.791L341.523 283.055V304.503L333.227 309.299L322.949 315.226L312.564 309.342ZM324.25 270.2V248.646L333.547 243.273L342.823 237.922L352.782 243.657L361.311 248.646V270.093L350.649 276.212L342.674 280.817L335.36 276.553L324.25 270.2ZM324.25 317.571L334.635 311.581L342.823 306.848L351.694 311.964L361.397 317.571V338.848L354.999 342.515L342.759 349.572L331.031 342.792L324.25 338.848V317.571ZM351.801 309.044L344.124 304.63V283.055L351.054 279.154L362.697 272.417L374.682 279.154L381.292 282.97V304.417L373.85 308.681L362.697 315.077L351.801 309.044ZM363.998 270.221V248.646L373.296 243.273L382.572 237.922L391.869 243.273L401.166 248.646V270.093L389.651 276.723L382.572 280.817L375.065 276.553L363.998 270.221ZM363.998 317.593L374.255 311.687L382.572 306.869L390.632 311.517L401.166 317.593V338.848L394.769 342.558L382.593 349.572L371.163 342.963L363.998 338.848V317.593ZM392.722 309.747L383.872 304.63V283.055L391.869 278.45L402.531 272.331L413.193 278.557L421.019 283.055V304.503L412.212 309.577L402.424 315.226L392.722 309.747ZM403.746 270.221V248.646L413.811 242.911L422.341 238.007L431.617 243.358L440.914 248.731V270.093L429.655 276.489L422.341 280.753L415.752 277.022L403.746 270.221ZM403.746 317.593L414.878 311.197L422.341 306.933L430.53 311.666L440.914 317.529V338.848L434.069 342.792L422.341 349.572L411.146 343.176L403.746 338.912V317.593ZM431.66 309.257L423.621 304.63V283.055L430.722 278.962L442.215 272.331L453.453 278.727L460.789 282.991V304.439L452.643 309.235L442.258 315.226L431.66 309.257ZM443.495 270.221V248.646L452.024 243.721L462.089 237.922L470.619 242.889L480.577 248.646V270.093L468.892 276.83L462.004 280.817L454.199 276.297L443.495 270.221ZM443.495 317.593L453.282 311.964L462.089 306.869L469.702 311.133L480.599 317.529V338.848L472.922 343.283L462.025 349.678L449.231 342.344L443.495 338.848V317.593ZM471.557 309.363L463.305 304.503V283.055L470.64 278.791L481.878 272.395L492.903 278.791L500.451 283.055V304.503L492.135 309.299L481.878 315.226L471.557 309.363ZM483.264 270.221V248.646L492.54 243.273L501.838 237.922L511.775 243.657L520.411 248.646V270.093L509.749 276.212L501.795 280.817L494.459 276.553L483.264 270.221ZM483.264 317.593L493.628 311.602L501.838 306.869L510.687 311.986L520.411 317.593V338.848L514.014 342.515L501.795 349.572L490.045 342.792L483.222 338.848L483.264 317.593ZM510.794 309.065L503.138 304.652V283.055L510.047 279.154L521.712 272.417L533.675 279.154L540.285 282.97V304.417L532.864 308.681L521.712 315.077L510.794 309.065ZM511.753 240.843L503.224 235.854V214.215L512.947 208.608L521.797 203.491L530.583 208.565L540.37 214.215V235.662L531.841 240.587L521.797 246.386L511.753 240.843ZM520.411 201.444L510.58 207.115L501.838 212.168L493.926 207.606L483.264 201.444V179.805L489.896 175.968L501.838 169.081L514.12 176.181L520.411 179.805V201.444ZM490.259 208.501L500.537 214.407V235.662L491.239 241.035L481.963 246.386L472.666 241.035L463.305 235.662V214.215L473.69 208.224L481.878 203.491L490.259 208.501ZM480.663 201.444L469.34 207.968L462.089 212.232L453.432 207.243L443.495 201.508V179.805L449.444 176.373L462.089 169.081L473.391 175.627L480.663 179.89V201.444ZM450.382 208.416L460.789 214.407V235.662L451.491 241.035L442.215 246.386L432.918 241.035L423.621 235.662V214.215L434.283 208.139L442.322 203.491L450.382 208.416ZM440.914 201.444L430.252 207.606L422.362 212.168L415.475 208.181L403.768 201.444V179.805L410.805 175.754L422.362 169.081L434.283 175.968L440.936 179.805L440.914 201.444ZM409.994 207.776L421.147 214.172V235.662L411.082 241.482L402.552 246.386L394.023 241.418L384.064 235.662V214.215L394.982 207.925L402.638 203.491L409.994 207.776ZM401.273 201.252L390.312 207.648L382.678 212.061L374.596 207.392L364.105 201.338V179.805L370.993 175.84L382.678 169.081L394.94 176.16L401.337 179.805L401.273 201.252ZM371.611 208.565L381.399 214.215V235.662L372.869 240.587L362.804 246.386L352.867 240.651L344.337 235.662V214.215L354.061 208.608L362.911 203.491L371.611 208.565ZM361.503 201.252L351.694 206.923L342.93 211.976L335.04 207.414L324.378 201.252V179.805L331.031 175.968L342.951 169.081L355.234 176.181L361.525 179.805L361.503 201.252ZM331.372 208.309L341.629 214.215V235.662L332.353 241.035L323.056 246.386L313.78 241.035L304.376 235.662V214.215L314.761 208.224L322.949 203.491L331.372 208.309ZM321.755 201.252L310.453 207.776L303.182 212.04L294.652 207.051L284.715 201.316V179.805L290.664 176.373L303.288 169.081L314.611 175.627L321.862 179.89L321.755 201.252ZM291.389 208.224L301.774 214.215V235.662L292.498 241.035L283.201 246.386L273.925 241.035L264.628 235.662V214.215L275.29 208.139L283.308 203.491L291.389 208.224ZM281.9 201.252L271.238 207.414L263.327 211.976L256.461 207.989L244.775 201.252V179.805L251.812 175.754L263.348 169.081L275.29 175.968L281.922 179.805L281.9 201.252ZM250.874 207.776L262.026 214.172V235.662L251.982 241.482L243.453 246.386L234.923 241.418L224.965 235.662V214.215L235.883 207.925L243.538 203.491L250.874 207.776ZM242.152 201.252L231.213 207.648L223.579 212.061L215.497 207.307L205.005 201.252V179.805L211.893 175.84L223.579 169.081L235.819 176.16L242.216 179.805L242.152 201.252ZM212.49 208.565L222.342 214.215V235.662L213.812 240.587L203.747 246.386L193.768 240.651L185.131 235.662V214.215L194.855 208.608L203.705 203.491L212.49 208.565ZM202.404 201.252L192.488 206.923L183.745 211.976L175.855 207.414L165.193 201.252V179.805L171.825 175.968L183.766 169.081L196.113 176.181L202.404 179.805V201.252ZM172.273 208.309L182.53 214.215V235.662L173.296 241.035L163.999 246.386L154.723 241.035L145.383 235.662V214.215L155.768 208.224L163.956 203.491L172.273 208.309ZM162.634 201.252L151.332 207.776L144.061 212.04L135.425 207.051L125.488 201.316V179.805L131.437 176.373L144.061 169.081L155.384 175.627L162.634 179.89V201.252ZM152.719 242.911L162.634 248.646V270.093L150.949 276.83L144.082 280.817L136.299 276.297L125.509 270.093V248.646L134.039 243.721L144.104 237.922L152.719 242.911ZM151.759 311.133L162.634 317.529V338.848L154.979 343.283L144.061 349.678L131.266 342.344L125.509 338.848V317.529L135.297 311.9L144.082 306.805L151.759 311.133ZM162.634 386.305V407.753L153.785 412.869L144.061 418.476L132.93 412.08L125.488 407.816V386.305L144.061 375.645L162.634 386.305ZM155.768 379.355L145.383 373.364V351.896L153.785 347.035L163.956 341.172L174.043 346.992L182.572 351.896V373.343L172.273 379.355L163.956 384.152L155.768 379.355ZM165.257 386.327L183.83 375.667L202.404 386.327V407.774L194.727 412.208L183.83 418.497L173.467 412.507L165.257 407.774V386.327ZM194.855 378.971L185.131 373.364V351.896L193.106 347.376L203.769 341.257L214.473 347.376L222.342 351.896V373.343L212.554 378.993L203.769 384.045L194.855 378.971ZM205.005 386.327L223.579 375.667L242.152 386.327V407.774L234.113 412.421L223.579 418.497L213.322 412.571L205.005 407.774V386.327ZM235.797 379.654L224.879 373.364V351.896L233.814 346.736L243.453 341.172L253.134 346.758L262.026 351.896V373.343L250.874 379.739L243.453 384.003L235.797 379.654ZM244.754 386.327L263.327 375.667L281.9 386.327V407.774L273.712 412.507L263.327 418.497L253.56 412.848L244.754 407.774V386.327ZM275.183 379.355L264.521 373.279V351.896L272.837 347.099L283.094 341.172L293.266 347.035L301.668 351.896V373.343L291.389 379.355L283.201 384.067L275.183 379.355ZM284.502 386.241L303.075 375.581L321.648 386.241V407.689L312.799 412.805L303.075 418.412L291.965 412.016L284.502 407.753V386.241ZM314.761 379.355L304.376 373.364V351.896L312.778 347.035L322.949 341.172L333.036 346.992L341.565 351.896V373.343L331.266 379.355L322.949 384.152L314.761 379.355ZM324.25 386.327L342.823 375.667L361.397 386.327V407.774L353.72 412.208L342.823 418.497L332.46 412.507L324.25 407.774V386.327ZM353.848 378.971L344.124 373.364V351.896L352.099 347.291L362.761 341.172L373.53 347.376L381.356 351.896V373.343L371.611 378.993L362.804 384.045L353.848 378.971ZM363.998 386.327L382.572 375.667L401.166 386.327V407.774L393.106 412.421L382.572 418.497L372.336 412.571L363.998 407.774V386.327ZM394.79 379.654L383.872 373.364V351.896L392.807 346.736L402.446 341.172L412.148 346.758L421.04 351.896V373.343L409.888 379.739L402.446 384.003L394.79 379.654ZM403.746 386.327L422.341 375.667L440.914 386.327V407.774L432.705 412.507L422.341 418.497L412.553 412.848L403.746 407.774V386.327ZM434.176 379.355L423.514 373.279V351.896L431.83 347.099L442.109 341.172L452.28 347.035L460.682 351.896V373.343L450.382 379.355L442.215 384.067L434.176 379.355ZM443.495 386.241L462.089 375.581L480.663 386.241V407.689L471.792 412.805L462.089 418.412L450.958 412.016L443.495 407.753V386.241ZM473.775 379.27L463.305 373.343V351.896L471.707 347.035L481.878 341.172L491.964 346.992L500.494 351.896V373.343L490.259 379.355L481.963 384.152L473.775 379.27ZM483.264 386.241L501.838 375.581L520.411 386.241V407.689L512.713 412.123L501.838 418.412L491.453 412.421L483.264 407.689V386.241ZM512.862 378.886L503.138 373.279V351.896L511.092 347.291L521.754 341.172L532.416 347.376L540.242 351.896V373.343L530.455 378.993L521.669 384.045L512.862 378.886ZM549.625 311.325L560.159 317.401V338.848L553.762 342.558L541.607 349.572L530.156 342.963L523.012 338.848V317.529L533.248 311.623L541.586 306.805L549.625 311.325ZM550.862 243.209L560.159 248.582V270.093L548.601 276.723L541.543 280.817L534.016 276.553L522.97 270.157V248.646L532.246 243.273L541.543 237.922L550.862 243.209ZM553.826 176.096L560.223 179.741V201.252L549.262 207.648L541.65 212.061L533.547 207.392L523.012 201.252V179.805L529.9 175.84L541.586 169.081L553.826 176.096ZM523.012 110.965L531.094 106.296L541.586 100.262L552.525 106.658L560.159 111.05V132.412L552.141 137.06L541.586 143.136L531.308 137.209L523.012 132.412V110.965ZM532.843 141.089L540.285 145.353V166.843L529.09 173.239L521.712 177.503L514.035 173.068L503.138 166.672V145.396L510.815 140.961L521.712 134.672L532.843 141.089ZM483.264 110.965L491.154 106.466L501.816 100.305L513.118 106.829L520.39 111.093V132.412L512.713 136.846L501.816 143.136L491.41 137.145L483.243 132.412L483.264 110.965ZM492.22 140.577L500.537 145.396V166.843L489.086 173.431L481.963 177.567L475.118 173.623L463.305 166.843V145.396L471.579 140.577L481.963 134.587L492.22 140.577ZM443.495 110.965L450.382 106.999L462.089 100.262L471.834 105.933L480.599 110.965V132.412L471.834 137.529L462.111 143.136L450.958 136.74L443.516 132.476L443.495 110.965ZM452.643 140.577L460.853 145.31V166.843L449.103 173.623L442.279 177.567L435.882 173.857L423.706 166.843V145.396L431.745 140.748L442.407 134.672L452.643 140.577ZM403.81 110.879L412.468 105.891L422.405 100.177L433.067 106.338L440.978 110.879V132.412L432.79 137.145L422.405 143.136L412.617 137.486L403.81 132.412V110.879ZM412.34 140.236L421.147 145.31V166.843L408.352 174.177L402.488 177.567L396.091 173.9L383.851 166.843V145.396L392.722 140.279L402.424 134.672L412.34 140.236ZM363.998 110.965L372.101 106.296L382.572 100.262L393.532 106.658L401.166 111.05V132.412L393.127 137.06L382.465 143.136L372.208 137.209L363.892 132.412L363.998 110.965ZM373.743 141.089L381.207 145.353V166.843L370.012 173.239L362.612 177.503L354.957 173.068L344.039 166.672V145.396L351.716 140.961L362.612 134.672L373.743 141.089ZM324.25 110.965L332.161 106.466L342.823 100.305L354.146 106.829L361.397 111.093V132.412L353.741 136.846L342.823 143.136L332.438 137.145L324.25 132.412V110.965ZM333.227 140.577L341.544 145.396V166.843L330.114 173.431L322.971 177.567L316.168 173.623L304.419 166.843V145.396L312.586 140.577L322.949 134.587L333.227 140.577ZM284.502 110.965L291.389 106.999L303.075 100.262L312.906 105.933L321.648 110.965V132.412L312.799 137.529L303.075 143.136L291.923 136.74L284.502 132.476V110.965ZM293.586 140.577L301.774 145.31V166.843L290.046 173.623L283.201 177.567L276.804 173.857L264.649 166.843V145.396L272.688 140.748L283.222 134.672L293.586 140.577ZM244.754 110.965L253.411 105.976L263.327 100.262L273.989 106.424L281.879 110.965V132.412L273.69 137.145L263.327 143.136L253.539 137.486L244.754 132.412V110.965ZM253.283 140.322L262.069 145.396V166.843L249.274 174.177L243.453 177.567L237.056 173.9L224.815 166.843V145.396L233.665 140.279L243.389 134.672L253.283 140.322ZM205.005 110.965L213.109 106.296L223.579 100.262L234.539 106.658L242.152 111.05V132.412L234.134 137.06L223.472 143.136L213.215 137.209L204.899 132.412L205.005 110.965ZM214.836 141.089L222.278 145.353V166.843L211.104 173.239L203.705 177.503L196.049 173.068L185.131 166.672V145.396L192.808 140.961L203.705 134.672L214.836 141.089ZM165.257 110.965L173.147 106.466L183.809 100.305L195.111 106.829L202.382 111.093V132.412L194.727 136.846L183.83 143.136L173.446 137.145L165.257 132.412V110.965ZM174.213 140.577L182.53 145.396V166.843L171.164 173.431L164.02 177.567L157.197 173.623L145.447 166.843V145.396L153.571 140.577L163.956 134.587L174.213 140.577ZM125.509 110.965L132.397 106.999L144.082 100.262L153.913 105.933L162.634 110.965V132.412L153.785 137.529L144.082 143.136L132.93 136.74L125.509 132.476V110.965ZM117.854 173.857L105.699 166.843V145.396L113.589 140.748L124.251 134.672L134.593 140.577L142.781 145.31V166.843L131.032 173.623L124.251 177.567L117.854 173.857ZM114.911 241.035L105.635 235.662V214.215L116.297 208.139L124.251 203.491L132.439 208.224L142.824 214.215V235.662L133.548 241.035L124.251 246.386L114.911 241.035ZM113.589 309.129L105.571 304.503V283.055L112.65 278.962L124.251 272.331L135.489 278.727L142.824 282.991V304.439L134.636 309.171L124.251 315.226L113.589 309.129ZM116.126 379.483L105.464 373.407V351.896L113.759 347.099L124.251 341.172L134.422 347.035L142.824 351.896V373.343L132.397 379.355L124.251 384.045L116.126 379.483ZM117.854 449.176L105.699 442.162V420.715L117.854 413.701L124.251 409.991L131.075 413.935L142.824 420.715V442.162L124.251 452.822L117.854 449.176ZM162.634 476.593L144.061 487.253L125.488 476.593V455.146L144.061 444.486L162.634 455.146V476.593ZM157.111 448.878L145.362 442.098V420.715L157.111 413.935L163.935 409.991L171.164 414.127L182.594 420.715V442.162L164.02 452.822L157.111 448.878ZM202.382 476.593L183.809 487.253L165.236 476.593V455.146L183.809 444.486L202.382 455.146V476.593ZM195.985 448.473L185.067 442.077V420.715L195.985 414.319L203.641 409.884L211.04 414.148L222.214 420.544V441.992L203.641 452.651L195.985 448.473ZM242.088 476.593L223.515 487.253L204.941 476.593V455.146L223.515 444.486L242.088 455.146V476.593ZM237.056 449.219L224.815 442.162V420.715L237.056 413.658L243.453 409.991L249.317 413.466L262.111 420.8V442.247L243.538 452.907L237.056 449.219ZM281.836 476.593L263.263 487.253L244.69 476.593V455.146L263.263 444.486L281.836 455.146V476.593ZM276.718 449.176L264.564 442.162V420.715L276.718 413.701L283.116 409.991L289.961 413.935L301.689 420.715V442.162L283.116 452.822L276.718 449.176ZM321.499 476.593L302.926 487.253L284.353 476.593V455.146L302.926 444.486L321.499 455.146V476.593ZM315.976 448.878L304.227 442.098V420.715L315.976 413.935L322.8 409.991L329.944 414.127L341.373 420.715V442.162L322.8 452.822L315.976 448.878ZM361.247 476.593L342.674 487.253L324.101 476.593V455.146L342.674 444.486L361.247 455.146V476.593ZM354.85 448.473L343.932 442.077V420.715L354.85 414.319L362.506 409.884L369.905 414.148L381.1 420.544V441.992L362.506 452.651L354.85 448.473ZM400.974 476.593L382.38 487.253L363.806 476.593V455.146L382.38 444.486L400.974 455.146V476.593ZM395.92 449.219L383.68 442.162V420.715L395.92 413.658L402.318 409.991L408.182 413.381L420.976 420.715V442.162L402.382 452.822L395.92 449.219ZM440.701 476.593L422.128 487.253L403.533 476.593V455.146L422.128 444.486L440.701 455.146V476.593ZM435.583 449.176L423.407 442.162V420.715L435.583 413.701L441.981 409.991L448.804 413.935L460.554 420.715V442.162L441.981 452.822L435.583 449.176ZM480.364 476.593L461.791 487.253L443.196 476.593V455.146L461.791 444.486L480.364 455.146V476.593ZM474.82 448.878L463.092 442.098V420.715L474.82 413.935L481.665 409.991L488.787 414.127L500.238 420.715V442.162L481.665 452.822L474.82 448.878ZM520.112 476.593L501.539 487.253L482.966 476.593V455.146L501.539 444.486L520.112 455.146V476.593ZM513.715 448.473L502.818 442.077V420.715L513.715 414.319L521.392 409.884L528.77 414.148L539.965 420.544V441.992L521.392 452.651L513.715 448.473ZM523.012 476.593V455.146L541.586 444.486L560.159 455.146V476.593L541.586 487.253L523.012 476.593Z" fill="url(#paint1_radial_292_238)"/>
<defs>
<linearGradient id="paint0_linear_292_238" x1="0.396973" y1="0.278809" x2="554.897" y2="623.279" gradientUnits="userSpaceOnUse">
<stop stop-color="#B7E6FF"/>
<stop offset="1" stop-color="#2EB7FF"/>
</linearGradient>
<radialGradient id="paint1_radial_292_238" cx="0" cy="0" r="1" gradientUnits="userSpaceOnUse" gradientTransform="translate(332.918 293.747) rotate(90) scale(206.468 238.521)">
<stop stop-color="white"/>
<stop offset="1" stop-color="white" stop-opacity="0"/>
</radialGradient>
</defs>
</svg>
