<svg width="325" height="261" viewBox="0 0 325 261" fill="none" xmlns="http://www.w3.org/2000/svg">
<rect y="0.62915" width="325" height="260" rx="9" fill="url(#paint0_linear_292_239)"/>
<g clip-path="url(#clip0_292_239)">
<path d="M314.698 251.231L319.076 248.709L323.308 251.134L324.727 251.947V250.237L319.816 247.412V235.239L324.727 232.402V230.693L319.04 233.954L315.402 231.869L308.453 227.856V215.658L315.402 211.645L319.04 209.56L322.363 211.488L324.691 212.821V211.124L319.779 208.287V196.09L324.691 193.253V191.543L323.26 192.38L319.04 194.805L314.674 192.295L308.477 188.718V176.521L313.558 173.587L319.04 170.422L324.545 173.599L324.691 173.684V171.974L323.975 171.562L319.779 169.137V156.977L324.691 154.139V152.442H324.606L319.04 155.667L313.51 152.478L308.477 149.569V137.371L313.013 134.753L319.076 131.273L324.727 134.534V132.825L319.816 130V117.803L324.727 114.966V113.256L323.915 113.729L319.064 116.518L314.189 113.693L308.538 110.419V98.2219L314.735 94.6452L319.1 92.1233L323.321 94.5482L324.752 95.3848V93.6874L319.84 90.8503V78.6532L323.83 76.3495L324.752 75.8161V74.1065L322.423 75.4523L319.04 77.3801L315.402 75.2947L308.453 71.2816V59.0844L313.486 56.1746L319.04 52.9859L324.594 56.1989H324.691V54.5378L319.779 51.7007V39.5036L324.691 36.6786V34.9691L322.423 36.2785L319.04 38.2306L315.462 36.1694L308.513 32.0956V26.0334H307.034V32.0956L300.461 35.8906L296.471 38.1942L292.336 35.7693L285.909 32.0956V26.0334H284.429V32.0956L277.808 35.9633L273.891 38.2306L270.107 36.0482L263.255 32.0956V26.0334H261.776V32.0956L254.985 36.0118L251.213 38.1942L247.575 36.1088L240.687 32.0956V26.0334H239.22V32.0956L232.028 36.2422L228.645 38.1942L225.007 36.133L218.082 32.0956V26.0334H216.615V32.0956L210.042 35.8906L206.04 38.1942L201.917 35.7693L195.477 32.0956V26.0334H193.998V32.0956L187.352 35.9269L183.435 38.1942L179.664 36.0118L172.873 32.0956V26.0334H171.393V32.0956L164.614 36.0482L160.83 38.2306L157.192 36.1452L150.268 32.0956V26.0334H148.788V32.0956L141.609 36.2785L138.226 38.2306L134.587 36.1694L127.663 32.0956V26.0334H126.22V32.0956L119.623 35.9269L115.621 38.2306L111.498 35.8057L105.058 32.0956V26.0334H103.579V32.0956L96.933 35.9633L93.0159 38.2306L89.2444 36.0482L82.4533 32.0956V26.0334H80.9738V32.0956L74.1826 36.0118L70.4354 38.2306L66.7973 36.1452L59.8485 32.0956V26.0334H58.369V32.0956L53.4575 34.9691V36.6786L59.1087 33.4172L65.1844 36.9454L69.6714 39.5279V51.7007L65.0146 54.3923L59.1087 57.7993L53.4575 54.5378V56.2473L58.369 59.0844V71.2816L53.4575 74.1065V75.8161L59.1087 72.5546L65.8999 76.4708L69.6714 78.6532V90.8503L63.6079 94.3542L59.1208 96.9488L53.4575 93.6874V95.3969L58.369 98.2219V110.419L53.4575 113.256V114.966L54.27 114.541L59.1208 111.753L64.3719 114.747L69.6471 117.803V130L63.244 133.637L59.0845 136.062L53.4575 132.825V134.534L53.9305 134.813L58.369 137.371V149.569L53.5182 152.406V154.103L54.8764 153.339L59.1087 150.914L63.7776 153.606L69.6714 156.977V169.101L65.7907 171.344L59.1087 175.199L53.4575 171.974V173.684L58.369 176.521V188.718L53.5182 191.543V193.253L59.1694 189.991L69.732 196.053V208.25L65.0631 210.942L59.1694 214.349L53.4575 211.124V212.821L58.369 215.658V227.856L53.4575 230.693V232.402L59.1087 229.141L69.6714 235.203V247.4L59.1087 253.462L53.4575 250.261V251.971L58.369 254.808V260.87H59.8485V254.808L65.8392 251.353L70.4354 248.709L75.1043 251.401L80.998 254.808V260.87H82.4775V254.808L88.3713 251.401L93.0402 248.709L97.7697 251.437L103.603 254.808V260.87H105.082V254.808L110.612 251.619L115.645 248.709L120.629 251.547L126.22 254.808V260.87H127.699V254.808L133.896 251.231L138.262 248.709L142.506 251.134L148.825 254.772V260.834H150.304V254.772L156.295 251.316L160.867 248.673L165.536 251.365L171.429 254.772V260.834H172.909V254.772L178.815 251.365L183.472 248.673L188.213 251.401L194.034 254.772V260.834H195.514V254.772L201.044 251.583L206.076 248.673L211.109 251.547L216.675 254.759V260.822H218.143V254.759L224.34 251.183L228.705 248.661L232.95 251.086L239.28 254.723V260.785H240.748V254.723L246.738 251.268L251.322 248.625L255.979 251.316L261.885 254.723V260.785H263.255V254.723L269.149 251.316L273.818 248.625L278.548 251.353L284.381 254.723V260.785H285.86V254.723L291.378 251.534L296.423 248.625L301.419 251.51L306.985 254.723V260.785H308.465V254.723L314.698 251.231ZM318.336 196.09V208.287L313.764 210.93L307.774 214.385L301.941 211.015L297.211 208.287V196.09L307.774 190.028L318.336 196.09ZM99.2977 134.898L103.579 137.323V149.52L98.849 152.248L93.0159 155.619L87.1101 152.212L82.4533 149.52V137.371L86.625 134.947L93.0159 131.309L99.2977 134.898ZM93.7557 130.048V117.803L99.0431 114.747L104.318 111.704L109.982 114.966L114.832 117.803V130L108.769 133.48L104.233 136.098L100.074 133.674L93.7557 130.048ZM93.7557 156.989L99.6615 153.582L104.318 150.89L109.363 153.8L114.881 156.977V169.101L111.243 171.186L104.282 175.199L97.6 171.344L93.7557 169.101V156.989ZM109.412 152.139L105.058 149.629V137.371L108.987 135.153L115.621 131.321L122.424 135.153L126.22 137.371V149.569L122 151.993L115.657 155.631L109.412 152.139ZM116.36 130.06V117.803L121.648 114.747L126.923 111.704L132.211 114.747L137.486 117.803V130L130.937 133.771L126.923 136.098L122.642 133.674L116.36 130.06ZM116.36 157.001L122.194 153.642L126.923 150.902L131.495 153.545L137.486 156.977V169.101L133.848 171.211L126.935 175.199L120.423 171.526L116.36 169.101V157.001ZM132.696 152.539L127.663 149.629V137.371L132.198 134.753L138.262 131.273L144.325 134.813L148.764 137.371V149.569L143.768 152.454L138.201 155.667L132.696 152.539ZM138.965 130.06V117.803L144.689 114.541L149.54 111.753L154.827 114.796L160.103 117.851V130L153.7 133.637L149.54 136.062L145.793 133.94L138.965 130.06ZM138.965 157.001L145.296 153.363L149.528 150.939L154.197 153.63L160.091 156.977V169.101L156.21 171.344L149.528 175.199L143.198 171.526L138.99 169.101L138.965 157.001ZM154.827 152.26L150.268 149.629V137.371L154.294 135.044L160.83 131.273L167.221 134.91L171.393 137.335V149.532L166.748 152.224L160.83 155.631L154.827 152.26ZM161.57 130.06V117.803L166.421 115.002L172.133 111.704L176.984 114.529L182.635 117.803V130L176.001 133.831L172.072 136.098L167.646 133.528L161.57 130.06ZM161.57 157.001L167.136 153.8L172.133 150.902L176.511 153.424L182.695 157.061V169.101L178.366 171.659L172.157 175.296L164.881 171.126L161.57 169.101V157.001ZM177.529 152.321L172.873 149.629V137.371L177.044 134.947L183.435 131.309L189.717 134.947L193.998 137.371V149.569L189.28 152.297L183.435 155.667L177.529 152.321ZM184.175 130.06V117.803L189.462 114.747L194.738 111.704L200.401 114.966L205.252 117.803V130L199.188 133.48L194.653 136.098L190.493 133.674L184.175 130.06ZM184.175 157.001L190.081 153.594L194.738 150.902L199.782 153.812L205.3 157.001V169.101L201.662 171.186L194.701 175.199L188.031 171.344L184.175 169.101V157.001ZM199.843 152.151L195.477 149.641V137.371L199.419 135.153L206.04 131.321L212.855 135.153L216.615 137.323V149.52L212.382 151.945L206.04 155.582L199.843 152.151ZM206.78 130.073V117.803L212.067 114.747L217.342 111.704L222.63 114.747L227.917 117.803V130L221.369 133.771L217.342 136.098L213.074 133.674L206.78 130.073ZM206.78 157.013L212.613 153.654L217.342 150.914L221.926 153.557L227.917 157.013V169.101L224.279 171.211L217.354 175.199L210.854 171.441L206.78 169.101V157.013ZM223.115 152.551L218.082 149.641V137.371L222.63 134.753L228.693 131.273L234.757 134.813L239.207 137.371V149.569L234.199 152.454L228.633 155.667L223.115 152.551ZM229.385 130.073V117.803L235.108 114.541L239.959 111.753L245.235 114.796L250.522 117.851V130L244.119 133.637L239.959 136.062L236.212 133.94L229.385 130.073ZM229.385 157.013L235.715 153.376L239.959 150.951L244.616 153.642L250.522 156.977V169.101L246.629 171.344L239.959 175.199L233.593 171.562L229.385 169.137V157.013ZM245.259 152.272L240.687 149.641V137.371L244.725 135.044L251.262 131.273L257.653 134.91L261.824 137.335V149.532L257.192 152.26L251.286 155.667L245.259 152.272ZM251.989 130.073V117.803L256.84 115.002L262.564 111.704L267.415 114.529L273.078 117.803V130L266.433 133.831L262.516 136.098L258.077 133.528L251.989 130.073ZM251.989 157.013L257.556 153.812L262.564 150.914L266.893 153.339L273.09 156.977V169.101L268.725 171.623L262.528 175.26L255.251 171.089L251.989 169.101V157.013ZM267.949 152.333L263.255 149.569V137.371L267.427 134.947L273.818 131.309L280.088 134.947L284.381 137.371V149.569L279.651 152.297L273.818 155.667L267.949 152.333ZM274.606 130.073V117.803L279.882 114.747L285.169 111.704L290.82 114.966L295.732 117.803V130L289.668 133.48L285.145 136.098L280.973 133.674L274.606 130.073ZM274.606 157.013L280.5 153.606L285.169 150.914L290.202 153.824L295.732 157.013V169.101L292.093 171.186L285.145 175.199L278.463 171.344L274.582 169.101L274.606 157.013ZM290.262 152.163L285.909 149.653V137.371L289.838 135.153L296.471 131.321L303.275 135.153L307.034 137.323V149.52L302.814 151.945L296.471 155.582L290.262 152.163ZM290.808 113.365L285.957 110.528V98.2219L291.487 95.0332L296.52 92.1233L301.516 95.0089L307.082 98.2219V110.419L302.232 113.22L296.52 116.518L290.808 113.365ZM295.732 90.9594L290.141 94.1845L285.169 97.0579L280.67 94.4633L274.606 90.9594V78.6532L278.378 76.4708L285.169 72.5546L292.154 76.592L295.732 78.6532V90.9594ZM278.584 94.9725L284.429 98.331V110.419L279.142 113.474L273.867 116.518L268.579 113.474L263.255 110.419V98.2219L269.161 94.8149L273.818 92.1233L278.584 94.9725ZM273.127 90.9594L266.687 94.6694L262.564 97.0943L257.641 94.2572L251.989 90.9958V78.6532L255.373 76.7011L262.564 72.5546L268.991 76.2768L273.127 78.7017V90.9594ZM255.906 94.924L261.824 98.331V110.419L256.537 113.474L251.262 116.518L245.974 113.474L240.687 110.419V98.2219L246.75 94.7664L251.322 92.1233L255.906 94.924ZM250.522 90.9594L244.458 94.4633L239.971 97.0579L236.054 94.7907L229.397 90.9594V78.6532L233.399 76.3495L239.971 72.5546L246.75 76.4708L250.534 78.6532L250.522 90.9594ZM232.938 94.5603L239.28 98.1976V110.419L233.556 113.729L228.705 116.518L223.855 113.693L218.191 110.419V98.2219L224.4 94.6452L228.754 92.1233L232.938 94.5603ZM227.978 90.8503L221.744 94.4876L217.403 96.9973L212.807 94.3421L206.84 90.8988V78.6532L210.757 76.398L217.403 72.5546L224.376 76.5799L228.014 78.6532L227.978 90.8503ZM211.109 95.0089L216.675 98.2219V110.419L211.825 113.22L206.101 116.518L200.449 113.256L195.599 110.419V98.2219L201.129 95.0332L206.161 92.1233L211.109 95.0089ZM205.361 90.8503L199.782 94.0753L194.798 96.9488L190.311 94.3542L184.248 90.8503V78.6532L188.031 76.4708L194.81 72.5546L201.796 76.592L205.373 78.6532L205.361 90.8503ZM188.225 94.8634L194.058 98.2219V110.419L188.783 113.474L183.496 116.518L178.221 113.474L172.873 110.419V98.2219L178.778 94.8149L183.435 92.1233L188.225 94.8634ZM182.756 90.8503L176.329 94.5603L172.193 96.9852L167.343 94.1481L161.691 90.8866V78.6532L165.075 76.7011L172.254 72.5546L178.693 76.2768L182.817 78.7017L182.756 90.8503ZM165.487 94.8149L171.393 98.2219V110.419L166.118 113.474L160.83 116.518L155.555 113.474L150.268 110.419V98.2219L156.331 94.7664L160.891 92.1233L165.487 94.8149ZM160.091 90.8503L154.027 94.3542L149.528 96.9488L145.623 94.6816L138.977 90.8503V78.6532L142.979 76.3495L149.54 72.5546L156.331 76.4708L160.103 78.6532L160.091 90.8503ZM142.446 94.5603L148.788 98.1976V110.419L143.076 113.729L138.226 116.518L133.375 113.693L127.711 110.419V98.2219L133.92 94.6452L138.274 92.1233L142.446 94.5603ZM137.486 90.8503L131.265 94.4876L126.923 96.9973L122.327 94.2936L116.36 90.8503V78.6532L120.278 76.398L126.923 72.5546L133.884 76.5799L137.522 78.6532L137.486 90.8503ZM120.617 95.0089L126.22 98.2219V110.419L121.369 113.22L115.645 116.518L109.97 113.256L105.058 110.419V98.2219L110.588 95.0332L115.621 92.1233L120.617 95.0089ZM114.881 90.8503L109.242 94.0753L104.27 96.9488L99.7828 94.3542L93.7193 90.8503V78.6532L97.4908 76.4708L104.282 72.5546L111.304 76.592L114.881 78.6532V90.8503ZM97.7455 94.8634L103.579 98.2219V110.419L98.3276 113.474L93.0402 116.518L87.7649 113.474L82.4533 110.419V98.2219L88.3591 94.8149L93.0159 92.1233L97.7455 94.8634ZM92.2641 90.8503L85.8367 94.5603L81.7014 96.9852L76.7899 94.1481L71.1387 90.8866V78.6532L74.5222 76.7011L81.7014 72.5546L88.1409 76.2768L92.2641 78.7017V90.8503ZM86.625 114.541L92.2641 117.803V130L85.6184 133.831L81.7135 136.098L77.2872 133.528L71.1509 130V117.803L76.0017 115.002L81.7257 111.704L86.625 114.541ZM86.0793 153.339L92.2641 156.977V169.101L87.9104 171.623L81.7014 175.26L74.4252 171.089L71.1509 169.101V156.977L76.7172 153.776L81.7135 150.878L86.0793 153.339ZM92.2641 196.09V208.287L87.2313 211.197L81.7014 214.385L75.3711 210.748L71.1387 208.323V196.09L81.7014 190.028L92.2641 196.09ZM88.3591 192.137L82.4533 188.73V176.521L87.2313 173.757L93.0159 170.422L98.752 173.732L103.603 176.521V188.718L97.7455 192.137L93.0159 194.865L88.3591 192.137ZM93.7557 196.102L104.318 190.04L114.881 196.102V208.299L110.515 210.821L104.318 214.397L98.4246 210.991L93.7557 208.299V196.102ZM110.588 191.919L105.058 188.73V176.521L109.594 173.951L115.657 170.471L121.745 173.951L126.22 176.521V188.718L120.653 191.931L115.657 194.805L110.588 191.919ZM116.36 196.102L126.923 190.04L137.486 196.102V208.299L132.914 210.942L126.923 214.397L121.09 211.027L116.36 208.299V196.102ZM133.872 192.307L127.663 188.73V176.521L132.744 173.587L138.226 170.422L143.731 173.599L148.788 176.521V188.718L142.446 192.355L138.226 194.78L133.872 192.307ZM138.965 196.102L149.528 190.04L160.091 196.102V208.299L155.434 210.991L149.528 214.397L143.974 211.185L138.965 208.299V196.102ZM156.271 192.137L150.207 188.682V176.521L154.937 173.793L160.77 170.422L166.554 173.757L171.332 176.521V188.718L165.487 192.137L160.83 194.817L156.271 192.137ZM161.57 196.053L172.133 189.991L182.695 196.053V208.25L177.663 211.16L172.133 214.349L165.815 210.712L161.57 208.287V196.053ZM178.778 192.137L172.873 188.73V176.521L177.651 173.757L183.435 170.422L189.171 173.732L194.022 176.521V188.718L188.165 192.137L183.435 194.865L178.778 192.137ZM184.175 196.102L194.738 190.04L205.3 196.102V208.299L200.934 210.821L194.738 214.397L188.844 210.991L184.175 208.299V196.102ZM201.007 191.919L195.477 188.73V176.521L200.013 173.902L206.076 170.422L212.2 173.951L216.651 176.521V188.718L211.109 191.931L206.101 194.805L201.007 191.919ZM206.78 196.102L217.342 190.04L227.917 196.102V208.299L223.333 210.942L217.342 214.397L211.521 211.027L206.78 208.299V196.102ZM224.291 192.307L218.082 188.73V176.521L223.163 173.587L228.645 170.422L234.163 173.599L239.22 176.521V188.718L232.877 192.355L228.645 194.78L224.291 192.307ZM229.385 196.102L239.959 190.04L250.522 196.102V208.299L245.853 210.991L239.959 214.397L234.393 211.185L229.385 208.299V196.102ZM246.69 192.137L240.626 188.682V176.521L245.356 173.793L251.201 170.422L256.986 173.757L261.764 176.521V188.718L255.906 192.137L251.262 194.817L246.69 192.137ZM251.989 196.053L262.564 189.991L273.127 196.053V208.25L268.082 211.16L262.564 214.349L256.234 210.712L251.989 208.287V196.053ZM269.21 192.089L263.255 188.718V176.521L268.033 173.757L273.818 170.422L279.554 173.732L284.405 176.521V188.718L278.584 192.137L273.867 194.865L269.21 192.089ZM274.606 196.053L285.169 189.991L295.732 196.053V208.25L291.354 210.772L285.169 214.349L279.263 210.942L274.606 208.25V196.053ZM291.439 191.87L285.909 188.682V176.521L290.432 173.902L296.496 170.422L302.559 173.951L307.01 176.521V188.718L301.443 191.931L296.447 194.805L291.439 191.87ZM312.346 153.448L318.336 156.904V169.101L314.698 171.211L307.786 175.199L301.274 171.441L297.211 169.101V156.977L303.032 153.618L307.774 150.878L312.346 153.448ZM313.049 114.711L318.336 117.766V130L311.764 133.771L307.749 136.098L303.469 133.674L297.187 130.036V117.803L302.462 114.747L307.749 111.704L313.049 114.711ZM314.735 76.5435L318.373 78.6168V90.8503L312.139 94.4876L307.81 96.9973L303.202 94.3421L297.211 90.8503V78.6532L301.128 76.398L307.774 72.5546L314.735 76.5435ZM297.211 39.5036L301.807 36.8484L307.774 33.4172L313.995 37.0545L318.336 39.5521V51.7007L313.777 54.3438L307.774 57.7993L301.928 54.4287L297.211 51.7007V39.5036ZM302.802 56.6353L307.034 59.0602V71.2816L300.667 74.9189L296.471 77.3437L292.106 74.8219L285.909 71.1846V59.0844L290.274 56.5626L296.471 52.9859L302.802 56.6353ZM274.606 39.5036L279.093 36.9454L285.157 33.4414L291.584 37.1515L295.719 39.5764V51.7007L291.354 54.2226L285.157 57.7993L279.239 54.3923L274.594 51.7007L274.606 39.5036ZM279.7 56.3443L284.429 59.0844V71.2816L277.917 75.028L273.867 77.3801L269.974 75.1371L263.255 71.2816V59.0844L267.961 56.3443L273.867 52.9374L279.7 56.3443ZM251.989 39.5036L255.906 37.2485L262.564 33.4172L268.106 36.6423L273.09 39.5036V51.7007L268.106 54.6106L262.576 57.7993L256.234 54.162L252.001 51.7371L251.989 39.5036ZM257.192 56.3443L261.861 59.0359V71.2816L255.179 75.1371L251.298 77.3801L247.66 75.2705L240.735 71.2816V59.0844L245.307 56.4413L251.371 52.9859L257.192 56.3443ZM229.421 39.4551L234.344 36.618L239.996 33.3687L246.059 36.8726L250.558 39.4551V51.7007L245.902 54.3923L239.996 57.7993L234.429 54.5863L229.421 51.7007V39.4551ZM234.272 56.1504L239.28 59.0359V71.2816L232.004 75.4523L228.669 77.3801L225.031 75.2947L218.07 71.2816V59.0844L223.115 56.1746L228.633 52.9859L234.272 56.1504ZM206.78 39.5036L211.388 36.8484L217.342 33.4172L223.576 37.0545L227.917 39.5521V51.7007L223.345 54.3438L217.282 57.7993L211.449 54.4287L206.719 51.7007L206.78 39.5036ZM212.322 56.6353L216.566 59.0602V71.2816L210.2 74.9189L205.991 77.3437L201.638 74.8219L195.429 71.1846V59.0844L199.795 56.5626L205.991 52.9859L212.322 56.6353ZM184.175 39.5036L188.674 36.9454L194.738 33.4414L201.177 37.1515L205.3 39.5764V51.7007L200.947 54.2226L194.738 57.7993L188.832 54.3923L184.175 51.7007V39.5036ZM189.28 56.3443L194.01 59.0844V71.2816L187.51 75.028L183.447 77.3801L179.579 75.1371L172.897 71.2816V59.0844L177.541 56.3443L183.435 52.9374L189.28 56.3443ZM161.57 39.5036L165.487 37.2485L172.133 33.4172L177.723 36.6423L182.695 39.5036V51.7007L177.663 54.6106L172.133 57.7993L165.79 54.162L161.57 51.7371V39.5036ZM166.736 56.3443L171.393 59.0359V71.2816L164.723 75.1371L160.83 77.3801L157.192 75.2705L150.28 71.2816V59.0844L154.852 56.4413L160.842 52.9859L166.736 56.3443ZM138.965 39.5036L143.889 36.6665L149.528 33.4172L155.591 36.9211L160.078 39.5036V51.7007L155.422 54.3923L149.528 57.7993L143.962 54.5863L138.965 51.7007V39.5036ZM143.816 56.1989L148.812 59.0844V71.2816L141.536 75.4523L138.226 77.3801L134.587 75.2947L127.627 71.2816V59.0844L132.659 56.1746L138.189 52.9859L143.816 56.1989ZM116.36 39.5036L120.969 36.8484L126.923 33.4172L133.156 37.0545L137.486 39.5521V51.7007L132.926 54.3438L126.863 57.7993L121.029 54.4287L116.3 51.7007L116.36 39.5036ZM121.951 56.6353L126.183 59.0602V71.2816L119.829 74.9189L115.621 77.3437L111.267 74.8219L105.058 71.1846V59.0844L109.424 56.5626L115.621 52.9859L121.951 56.6353ZM93.7557 39.5036L98.2427 36.9454L104.306 33.4414L110.734 37.1515L114.869 39.5764V51.7007L110.515 54.2226L104.318 57.7993L98.4125 54.3923L93.7557 51.7007V39.5036ZM98.849 56.3443L103.579 59.0844V71.2816L97.1149 75.028L93.0523 77.3801L89.1717 75.1371L82.4897 71.2816V59.0844L87.1101 56.3443L93.0159 52.9374L98.849 56.3443ZM71.1509 39.5036L75.0679 37.2485L81.7135 33.4172L87.3041 36.6423L92.2641 39.5036V51.7007L87.2313 54.6106L81.7135 57.7993L75.3711 54.162L71.1509 51.7371V39.5036ZM66.7973 75.2705L59.8849 71.2816V59.0844L64.3719 56.4413L70.4354 52.9859L76.317 56.3443L80.9738 59.0359V71.2816L74.2918 75.1371L70.4354 77.3801L66.7973 75.2705ZM65.1237 113.474L59.8485 110.419V98.2219L65.912 94.7664L70.4354 92.1233L75.0922 94.8149L80.998 98.2219V110.419L75.7228 113.474L70.4354 116.518L65.1237 113.474ZM64.3719 152.2L59.8121 149.569V137.371L63.8383 135.044L70.4354 131.273L76.8263 134.91L80.998 137.335V149.532L76.3412 152.224L70.4354 155.667L64.3719 152.2ZM65.815 192.21L59.7515 188.754V176.521L64.4689 173.793L70.4354 170.422L76.22 173.757L80.998 176.521V188.718L75.0679 192.137L70.4354 194.805L65.815 192.21ZM66.7973 231.844L59.8849 227.856V215.658L66.7973 211.669L70.4354 209.56L74.316 211.803L80.998 215.658V227.856L70.4354 233.918L66.7973 231.844ZM92.2641 247.436L81.7014 253.499L71.1387 247.436V235.239L81.7014 229.177L92.2641 235.239V247.436ZM89.1231 231.675L82.4411 227.819V215.658L89.1231 211.803L93.0038 209.56L97.1149 211.912L103.615 215.658V227.856L93.0523 233.918L89.1231 231.675ZM114.869 247.436L104.306 253.499L93.7436 247.436V235.239L104.306 229.177L114.869 235.239V247.436ZM111.231 231.444L105.022 227.807V215.658L111.231 212.021L115.584 209.499L119.792 211.924L126.147 215.561V227.759L115.584 233.821L111.231 231.444ZM137.449 247.436L126.887 253.499L116.324 247.436V235.239L126.887 229.177L137.449 235.239V247.436ZM134.587 231.869L127.627 227.856V215.658L134.587 211.645L138.226 209.56L141.56 211.536L148.837 215.707V227.904L138.274 233.966L134.587 231.869ZM160.054 247.436L149.492 253.499L138.929 247.436V235.239L149.492 229.177L160.054 235.239V247.436ZM157.144 231.844L150.231 227.856V215.658L157.144 211.669L160.782 209.56L164.675 211.803L171.344 215.658V227.856L160.782 233.918L157.144 231.844ZM182.611 247.436L172.048 253.499L161.485 247.436V235.239L172.048 229.177L182.611 235.239V247.436ZM179.47 231.675L172.788 227.819V215.658L179.47 211.803L183.35 209.56L187.413 211.912L193.913 215.658V227.856L183.35 233.918L179.47 231.675ZM205.215 247.436L194.653 253.499L184.09 247.436V235.239L194.653 229.177L205.215 235.239V247.436ZM201.577 231.444L195.368 227.807V215.658L201.577 212.021L205.931 209.499L210.139 211.924L216.506 215.561V227.759L205.931 233.821L201.577 231.444ZM227.808 247.436L217.233 253.499L206.671 247.436V235.239L217.233 229.177L227.808 235.239V247.436ZM224.934 231.869L217.973 227.856V215.658L224.934 211.645L228.572 209.56L231.907 211.488L239.183 215.658V227.856L228.608 233.918L224.934 231.869ZM250.401 247.436L239.838 253.499L229.263 247.436V235.239L239.838 229.177L250.401 235.239V247.436ZM247.49 231.844L240.566 227.856V215.658L247.49 211.669L251.128 209.56L255.009 211.803L261.691 215.658V227.856L251.128 233.918L247.49 231.844ZM272.957 247.436L262.394 253.499L251.82 247.436V235.239L262.394 229.177L272.957 235.239V247.436ZM269.804 231.675L263.134 227.819V215.658L269.804 211.803L273.697 209.56L277.747 211.912L284.259 215.658V227.856L273.697 233.918L269.804 231.675ZM295.562 247.436L284.999 253.499L274.436 247.436V235.239L284.999 229.177L295.562 235.239V247.436ZM291.924 231.444L285.727 227.807V215.658L291.924 212.021L296.289 209.499L300.485 211.924L306.852 215.561V227.759L296.289 233.821L291.924 231.444ZM297.211 247.436V235.239L307.774 229.177L318.336 235.239V247.436L307.774 253.499L297.211 247.436Z" fill="url(#paint1_radial_292_239)"/>
</g>
<defs>
<linearGradient id="paint0_linear_292_239" x1="0" y1="0.62915" x2="213.415" y2="327.077" gradientUnits="userSpaceOnUse">
<stop stop-color="#B7E6FF"/>
<stop offset="1" stop-color="#2EB7FF"/>
</linearGradient>
<radialGradient id="paint1_radial_292_239" cx="0" cy="0" r="1" gradientUnits="userSpaceOnUse" gradientTransform="translate(189.105 143.452) rotate(90) scale(117.418 135.647)">
<stop stop-color="white"/>
<stop offset="1" stop-color="white" stop-opacity="0"/>
</radialGradient>
<clipPath id="clip0_292_239">
<rect width="271.27" height="234.873" fill="white" transform="translate(53.4575 26.0334)"/>
</clipPath>
</defs>
</svg>
