<svg width="1619" height="159" viewBox="0 0 1619 159" fill="none" xmlns="http://www.w3.org/2000/svg">
<rect width="1619" height="159" fill="url(#paint0_linear_293_277)"/>
<mask id="mask0_293_277" style="mask-type:alpha" maskUnits="userSpaceOnUse" x="0" y="0" width="1619" height="159">
<rect width="1619" height="159" fill="url(#paint1_linear_293_277)"/>
</mask>
<g mask="url(#mask0_293_277)">
<path d="M95.3649 186.987L103.063 182.553L110.505 186.817L113 188.245V185.239L104.364 180.272V158.867L113 153.878V150.872L102.999 156.607L96.6017 152.94L84.383 145.883V124.436L96.6017 117.379L102.999 113.712L108.842 117.102L112.936 119.447V116.462L104.3 111.474V90.0263L112.936 85.0376V82.0316L110.42 83.5026L102.999 87.7665L95.3222 83.3534L84.4256 77.0641V55.6168L93.3604 50.4575L102.999 44.8931L112.68 50.4788L112.936 50.6281V47.622L111.678 46.8971L104.3 42.6333V21.2499L112.936 16.2611V13.2764H112.787L102.999 18.9474L93.2751 13.3404L84.4256 8.22369V-13.2236L92.4008 -17.8287L103.063 -23.9473L113 -18.2124V-21.2184L104.364 -26.1859V-47.6332L113 -52.622V-55.628L111.571 -54.7965L103.042 -49.8931L94.4693 -54.8605L84.5322 -60.6168V-82.0641L95.4289 -88.3533L103.106 -92.7878L110.526 -88.5239L113.043 -87.0528V-90.0376L104.406 -95.0263V-116.474L111.422 -120.524L113.043 -121.462V-124.468L108.948 -122.102L102.999 -118.712L96.6017 -122.379L84.383 -129.436V-150.883L93.2325 -156L102.999 -161.607L112.765 -155.957H112.936V-158.878L104.3 -163.867V-185.314L112.936 -190.282V-193.288L108.948 -190.985L102.999 -187.553L96.7083 -191.177L84.4896 -198.34V-209H81.8881V-198.34L70.3303 -191.667L63.3147 -187.617L56.0432 -191.88L44.7413 -198.34V-209H42.1398V-198.34L30.4968 -191.539L23.6091 -187.553L16.956 -191.39L4.90784 -198.34V-209H2.3063V-198.34L-9.63525 -191.454L-16.267 -187.617L-22.6643 -191.284L-34.7764 -198.34V-209H-37.3566V-198.34L-50.0019 -191.049L-55.9513 -187.617L-62.3485 -191.241L-74.5246 -198.34V-209H-77.1049V-198.34L-88.6625 -191.667L-95.6995 -187.617L-102.95 -191.88L-114.273 -198.34V-209H-116.874V-198.34L-128.56 -191.603L-135.448 -187.617L-142.08 -191.454L-154.021 -198.34V-209H-156.623V-198.34L-168.543 -191.39L-175.196 -187.553L-181.593 -191.22L-193.769 -198.34V-209H-196.371V-198.34L-208.995 -190.985L-214.944 -187.553L-221.341 -191.177L-233.518 -198.34V-209H-236.055V-198.34L-247.655 -191.603L-254.692 -187.553L-261.943 -191.817L-273.266 -198.34V-209H-275.867V-198.34L-287.553 -191.539L-294.441 -187.553L-301.072 -191.39L-313.014 -198.34V-209H-315.615V-198.34L-327.557 -191.454L-334.146 -187.553L-340.543 -191.22L-352.762 -198.34V-209H-355.364V-198.34L-364 -193.288V-190.282L-354.063 -196.016L-343.38 -189.813L-335.49 -185.271V-163.867L-343.678 -159.134L-354.063 -153.143L-364 -158.878V-155.872L-355.364 -150.883V-129.436L-364 -124.468V-121.462L-354.063 -127.197L-342.121 -120.311L-335.49 -116.474V-95.0263L-346.152 -88.865L-354.042 -84.3026L-364 -90.0376V-87.0315L-355.364 -82.0641V-60.6168L-364 -55.628V-52.622L-362.571 -53.3681L-354.042 -58.2716L-344.808 -53.0057L-335.532 -47.6332V-26.1859L-346.791 -19.79L-354.106 -15.5262L-364 -21.2184V-18.2124L-363.168 -17.722L-355.364 -13.2236V8.22369L-363.893 13.2124V16.1972L-361.505 14.854L-354.063 10.5901L-345.853 15.3231L-335.49 21.2499V42.5693L-342.313 46.5134L-354.063 53.293L-364 47.622V50.6281L-355.364 55.6168V77.0641L-363.893 82.0316V85.0376L-353.956 79.3027L-335.383 89.9624V111.41L-343.593 116.143L-353.956 122.133L-364 116.462V119.447L-355.364 124.436V145.883L-364 150.872V153.878L-354.063 148.143L-335.49 158.803V180.25L-354.063 190.91L-364 185.282V188.288L-355.364 193.276V203.936H-352.762V193.276L-342.228 187.2L-334.146 182.553L-325.936 187.286L-315.573 193.276V203.936H-312.971V193.276L-302.608 187.286L-294.398 182.553L-286.082 187.35L-275.825 193.276V203.936H-273.223V193.276L-263.499 187.669L-254.65 182.553L-245.886 187.541L-236.055 193.276V203.936H-233.454V193.276L-222.557 186.987L-214.88 182.553L-207.417 186.817L-196.307 193.212V203.872H-193.705V193.212L-183.171 187.136L-175.132 182.489L-166.922 187.222L-156.559 193.212V203.872H-153.957V193.212L-143.572 187.222L-135.384 182.489L-127.046 187.286L-116.81 193.212V203.872H-114.209V193.212L-104.485 187.605L-95.6355 182.489L-86.786 187.541L-76.9982 193.191V203.851H-74.418V193.191L-63.5214 186.902L-55.8447 182.467L-48.3812 186.731L-37.25 193.127V203.787H-34.6698V193.127L-24.1357 187.051L-16.0751 182.403L-7.88666 187.136L2.4982 193.127V203.787H4.90784V193.127L15.2714 187.136L23.4812 182.403L31.7976 187.2L42.0545 193.127V203.787H44.6561V193.127L54.3586 187.52L63.2294 182.403L72.015 187.477L81.8027 193.127V203.787H84.4043V193.127L95.3649 186.987ZM101.762 90.0263V111.474L93.7229 116.121L83.1888 122.197L72.9319 116.271L64.6155 111.474V90.0263L83.1888 79.3666L101.762 90.0263ZM-283.395 -17.5728L-275.867 -13.3089V8.13841L-284.184 12.9353L-294.441 18.8621L-304.825 12.8713L-313.014 8.13841V-13.2236L-305.678 -17.4875L-294.441 -23.8834L-283.395 -17.5728ZM-293.14 -26.1006V-47.6332L-283.843 -53.0057L-274.567 -58.3569L-264.608 -52.622L-256.078 -47.6332V-26.1859L-266.741 -20.0672L-274.716 -15.4622L-282.03 -19.7261L-293.14 -26.1006ZM-293.14 21.2712L-282.755 15.2804L-274.567 10.5475L-265.696 15.6642L-255.993 21.2499V42.5693L-262.39 46.2363L-274.63 53.293L-286.38 46.5134L-293.14 42.5693V21.2712ZM-265.61 12.7434L-273.266 8.33029V-13.2236L-266.357 -17.1251L-254.692 -23.8621L-242.73 -17.1251L-236.055 -13.2236V8.22369L-243.476 12.4876L-254.628 18.8834L-265.61 12.7434ZM-253.392 -26.0793V-47.6332L-244.094 -53.0057L-234.818 -58.3569L-225.521 -53.0057L-216.245 -47.6332V-26.1859L-227.76 -19.5555L-234.818 -15.4622L-242.346 -19.7261L-253.392 -26.0793ZM-253.392 21.2925L-243.135 15.387L-234.818 10.5688L-226.779 15.2165L-216.245 21.2499V42.5693L-222.642 46.2789L-234.797 53.293L-246.248 46.8332L-253.392 42.5693V21.2925ZM-224.668 13.4469L-233.518 8.33029V-13.2236L-225.542 -17.8287L-214.88 -23.9473L-204.218 -17.722L-196.413 -13.2236V8.22369L-205.199 13.2977L-214.987 18.9474L-224.668 13.4469ZM-213.643 -26.0793V-47.6332L-203.578 -53.3681L-195.049 -58.2716L-185.751 -52.9204L-176.475 -47.5479V-26.1859L-187.735 -19.79L-195.049 -15.5262L-201.638 -19.257L-213.643 -26.0793ZM-213.643 21.2925L-202.512 14.8967L-195.07 10.6328L-186.86 15.3657L-176.497 21.2499V42.5693L-183.32 46.5134L-195.07 53.293L-206.201 46.8332L-213.601 42.5693L-213.643 21.2925ZM-185.751 12.9566L-193.769 8.33029V-13.2236L-186.69 -17.317L-175.196 -23.9473L-163.958 -17.5515L-156.623 -13.2876V8.15974L-164.79 12.8927L-175.196 18.8834L-185.751 12.9566ZM-173.895 -26.0793V-47.6332L-165.366 -52.558L-155.322 -58.3569L-146.792 -53.3895L-136.855 -47.6332V-26.1859L-148.519 -19.4489L-155.428 -15.4622L-163.212 -19.9819L-173.895 -26.0793ZM-173.895 21.2925L-164.107 15.6642L-155.322 10.5688L-147.624 15.0033L-136.749 21.3991V42.5693L-144.361 47.0677L-155.279 53.4635L-168.074 46.1296L-173.895 42.5693V21.2925ZM-145.833 13.0632L-154.021 8.33029V-13.2236L-146.686 -17.4875L-135.448 -23.8834L-124.402 -17.4875L-116.874 -13.2236V8.22369L-125.169 13.0206L-135.448 18.9474L-145.833 13.0632ZM-134.147 -26.0793V-47.6332L-124.85 -53.0057L-115.574 -58.3569L-105.615 -52.622L-97.0856 -47.6332V-26.1859L-107.748 -20.0672L-115.723 -15.4622L-123.037 -19.7261L-134.147 -26.0793ZM-134.147 21.2925L-123.762 15.3017L-115.574 10.5688L-106.703 15.6855L-97.0003 21.2925V42.5693L-103.398 46.2363L-115.638 53.293L-127.366 46.5134L-134.147 42.5693V21.2925ZM-106.596 12.7647L-114.273 8.35161V-13.2236L-107.342 -17.1251L-95.6995 -23.8621L-83.7153 -17.1251L-77.1049 -13.3089V8.13841L-84.547 12.4023L-95.6995 18.7981L-106.596 12.7647ZM-94.3987 -26.058V-47.6332L-85.1014 -53.0057L-75.8254 -58.3569L-66.5281 -53.0057L-57.2307 -47.6332V-26.1859L-68.7458 -19.5555L-75.8254 -15.4622L-83.3315 -19.7261L-94.3987 -26.058ZM-94.3987 21.3138L-84.1418 15.4084L-75.8254 10.5901L-67.7649 15.2378L-57.2307 21.3138V42.5693L-63.628 46.2789L-75.8041 53.293L-87.2338 46.6839L-94.3987 42.5693V21.3138ZM-65.6751 13.4683L-74.5246 8.35161V-13.2236L-66.5281 -17.8287L-55.866 -23.9473L-45.2039 -17.722L-37.378 -13.2236V8.22369L-46.1848 13.2977L-55.9726 18.9474L-65.6751 13.4683ZM-54.6505 -26.058V-47.6332L-44.5855 -53.3681L-36.0559 -58.2716L-26.7798 -52.9204L-17.4825 -47.5479V-26.1859L-28.7417 -19.79L-36.0559 -15.5262L-42.645 -19.257L-54.6505 -26.058ZM-54.6505 21.3138L-43.5193 14.918L-36.0559 10.6541L-27.8674 15.387L-17.4825 21.2499V42.5693L-24.3276 46.5134L-36.0559 53.293L-47.251 46.8971L-54.6505 42.6333V21.3138ZM-26.7372 12.9779L-34.7764 8.35161V-13.2236L-27.6754 -17.317L-16.1817 -23.9473L-4.94391 -17.5515L2.3916 -13.2876V8.15974L-5.75424 12.9566L-16.1391 18.9474L-26.7372 12.9779ZM-14.9023 -26.058V-47.6332L-6.37262 -52.558L3.69235 -58.3569L12.222 -53.3895L22.1804 -47.6332V-26.1859L10.4948 -19.4489L3.60709 -15.4622L-4.19757 -19.9819L-14.9023 -26.058ZM-14.9023 21.3138L-5.1145 15.6855L3.69235 10.5901L11.3051 14.854L22.2017 21.2499V42.5693L14.525 47.0038L3.62839 53.3996L-9.16611 46.0657L-14.9023 42.5693V21.3138ZM13.1603 13.0845L4.90784 8.22369V-13.2236L12.2433 -17.4875L23.4812 -23.8834L34.5058 -17.4875L42.0545 -13.2236V8.22369L33.7381 13.0206L23.4812 18.9474L13.1603 13.0845ZM24.8672 -26.058V-47.6332L34.1433 -53.0057L43.4406 -58.3569L53.3776 -52.622L62.0139 -47.6332V-26.1859L51.3518 -20.0672L43.3979 -15.4622L36.0624 -19.7261L24.8672 -26.058ZM24.8672 21.3138L35.2308 15.3231L43.4406 10.5901L52.2901 15.7068L62.0139 21.3138V42.5693L55.6167 46.2363L43.3979 53.293L31.6483 46.5134L24.8246 42.5693L24.8672 21.3138ZM52.3967 12.7861L44.7413 8.37292V-13.2236L51.6504 -17.1251L63.3147 -23.8621L75.2776 -17.1251L81.8881 -13.3089V8.13841L74.4672 12.4023L63.3147 18.7981L52.3967 12.7861ZM53.3563 -55.4361L44.8267 -60.4249V-82.0641L54.5505 -87.6711L63.4 -92.7878L72.1855 -87.7138L81.9733 -82.0641V-60.6168L73.4437 -55.692L63.4 -49.8931L53.3563 -55.4361ZM62.0139 -94.8344L52.1835 -89.1635L43.4406 -84.1108L35.5293 -88.6731L24.8672 -94.8344V-116.474L31.4991 -120.311L43.4406 -127.197L55.7233 -120.098L62.0139 -116.474V-94.8344ZM31.8616 -87.7777L42.1398 -81.8722V-60.6168L32.8425 -55.2442L23.5665 -49.8931L14.2691 -55.2442L4.90784 -60.6168V-82.0641L15.2927 -88.0549L23.4812 -92.7878L31.8616 -87.7777ZM22.2657 -94.8344L10.9426 -88.3107L3.69235 -84.0468L-4.96524 -89.0356L-14.9023 -94.7705V-116.474L-8.95285 -119.906L3.69235 -127.197L14.9942 -120.652L22.2657 -116.388V-94.8344ZM-8.01459 -87.863L2.3916 -81.8722V-60.6168L-6.90573 -55.2442L-16.1817 -49.8931L-25.4791 -55.2442L-34.7764 -60.6168V-82.0641L-24.1143 -88.1401L-16.0751 -92.7878L-8.01459 -87.863ZM-17.4825 -94.8344L-28.1446 -88.6731L-36.0345 -84.1108L-42.9222 -88.0975L-54.6292 -94.8344V-116.474L-47.5922 -120.524L-36.0345 -127.197L-24.1143 -120.311L-17.4612 -116.474L-17.4825 -94.8344ZM-48.4025 -88.5026L-37.25 -82.1067V-60.6168L-47.315 -54.7965L-55.8447 -49.8931L-64.3743 -54.8605L-74.3327 -60.6168V-82.0641L-63.4147 -88.3533L-55.7594 -92.7878L-48.4025 -88.5026ZM-57.1241 -95.0263L-68.0847 -88.6305L-75.7188 -84.2174L-83.8006 -88.8863L-94.2921 -94.941V-116.474L-87.4044 -120.439L-75.7188 -127.197L-63.4574 -120.119L-57.0602 -116.474L-57.1241 -95.0263ZM-86.786 -87.7138L-76.9982 -82.0641V-60.6168L-85.5279 -55.692L-95.5929 -49.8931L-105.53 -55.628L-114.06 -60.6168V-82.0641L-104.336 -87.6711L-95.4863 -92.7878L-86.786 -87.7138ZM-96.8936 -95.0263L-106.703 -89.3553L-115.467 -84.3026L-123.357 -88.865L-134.019 -95.0263V-116.474L-127.366 -120.311L-115.446 -127.197L-103.163 -120.098L-96.8723 -116.474L-96.8936 -95.0263ZM-127.025 -87.9696L-116.768 -82.0641V-60.6168L-126.044 -55.2442L-135.341 -49.8931L-144.617 -55.2442L-154.021 -60.6168V-82.0641L-143.636 -88.0549L-135.448 -92.7878L-127.025 -87.9696ZM-136.642 -95.0263L-147.944 -88.5026L-155.215 -84.2387L-163.745 -89.2274L-173.682 -94.9624V-116.474L-167.732 -119.906L-155.109 -127.197L-143.785 -120.652L-136.535 -116.388L-136.642 -95.0263ZM-167.007 -88.0549L-156.623 -82.0641V-60.6168L-165.899 -55.2442L-175.196 -49.8931L-184.472 -55.2442L-193.769 -60.6168V-82.0641L-183.107 -88.1401L-175.089 -92.7878L-167.007 -88.0549ZM-176.497 -95.0263L-187.159 -88.865L-195.07 -84.3026L-201.936 -88.2894L-213.622 -95.0263V-116.474L-206.585 -120.524L-195.049 -127.197L-183.107 -120.311L-176.475 -116.474L-176.497 -95.0263ZM-207.523 -88.5026L-196.371 -82.1067V-60.6168L-206.415 -54.7965L-214.944 -49.8931L-223.474 -54.8605L-233.432 -60.6168V-82.0641L-222.514 -88.3533L-214.859 -92.7878L-207.523 -88.5026ZM-216.245 -95.0263L-227.184 -88.6305L-234.818 -84.2174L-242.9 -88.9716L-253.392 -95.0263V-116.474L-246.504 -120.439L-234.818 -127.197L-222.578 -120.119L-216.181 -116.474L-216.245 -95.0263ZM-245.907 -87.7138L-236.055 -82.0641V-60.6168L-244.585 -55.692L-254.65 -49.8931L-264.629 -55.628L-273.266 -60.6168V-82.0641L-263.542 -87.6711L-254.692 -92.7878L-245.907 -87.7138ZM-255.993 -95.0263L-265.909 -89.3553L-274.652 -84.3026L-282.542 -88.865L-293.204 -95.0263V-116.474L-286.572 -120.311L-274.63 -127.197L-262.284 -120.098L-255.993 -116.474V-95.0263ZM-286.124 -87.9696L-275.867 -82.0641V-60.6168L-285.101 -55.2442L-294.398 -49.8931L-303.674 -55.2442L-313.014 -60.6168V-82.0641L-302.629 -88.0549L-294.441 -92.7878L-286.124 -87.9696ZM-295.763 -95.0263L-307.065 -88.5026L-314.336 -84.2387L-322.972 -89.2274L-332.909 -94.9624V-116.474L-326.96 -119.906L-314.336 -127.197L-303.013 -120.652L-295.763 -116.388V-95.0263ZM-305.678 -53.3681L-295.763 -47.6332V-26.1859L-307.448 -19.4489L-314.315 -15.4622L-322.098 -19.9819L-332.888 -26.1859V-47.6332L-324.358 -52.558L-314.293 -58.3569L-305.678 -53.3681ZM-306.638 14.854L-295.763 21.2499V42.5693L-303.418 47.0038L-314.336 53.3996L-327.131 46.0657L-332.888 42.5693V21.2499L-323.1 15.6215L-314.315 10.5262L-306.638 14.854ZM-295.763 90.0263V111.474L-304.612 116.59L-314.336 122.197L-325.467 115.802L-332.909 111.538V90.0263L-314.336 79.3666L-295.763 90.0263ZM-302.629 83.0762L-313.014 77.0855V55.6168L-304.612 50.756L-294.441 44.8931L-284.354 50.7133L-275.825 55.6168V77.0641L-286.124 83.0762L-294.441 87.8731L-302.629 83.0762ZM-293.14 90.0477L-274.567 79.388L-255.993 90.0477V111.495L-263.67 115.929L-274.567 122.219L-284.93 116.228L-293.14 111.495V90.0477ZM-263.542 82.6925L-273.266 77.0855V55.6168L-265.29 51.0971L-254.628 44.9784L-243.924 51.0971L-236.055 55.6168V77.0641L-245.843 82.7138L-254.628 87.7665L-263.542 82.6925ZM-253.392 90.0477L-234.818 79.388L-216.245 90.0477V111.495L-224.284 116.143L-234.818 122.219L-245.075 116.292L-253.392 111.495V90.0477ZM-222.6 83.3747L-233.518 77.0855V55.6168L-224.583 50.4575L-214.944 44.8931L-205.263 50.4788L-196.371 55.6168V77.0641L-207.523 83.46L-214.944 87.7238L-222.6 83.3747ZM-213.643 90.0477L-195.07 79.388L-176.497 90.0477V111.495L-184.685 116.228L-195.07 122.219L-204.837 116.569L-213.643 111.495V90.0477ZM-183.214 83.0762L-193.876 77.0002V55.6168L-185.559 50.8199L-175.303 44.8931L-165.131 50.756L-156.729 55.6168V77.0641L-167.007 83.0762L-175.196 87.7878L-183.214 83.0762ZM-173.895 89.9624L-155.322 79.3027L-136.749 89.9624V111.41L-145.598 116.526L-155.322 122.133L-166.432 115.738L-173.895 111.474V89.9624ZM-143.636 83.0762L-154.021 77.0855V55.6168L-145.619 50.756L-135.448 44.8931L-125.361 50.7133L-116.832 55.6168V77.0641L-127.131 83.0762L-135.448 87.8731L-143.636 83.0762ZM-134.147 90.0477L-115.574 79.388L-97.0003 90.0477V111.495L-104.677 115.929L-115.574 122.219L-125.937 116.228L-134.147 111.495V90.0477ZM-104.549 82.6925L-114.273 77.0855V55.6168L-106.298 51.0118L-95.6355 44.8931L-84.8669 51.0971L-77.0409 55.6168V77.0641L-86.786 82.7138L-95.5929 87.7665L-104.549 82.6925ZM-94.3987 90.0477L-75.8254 79.388L-57.2307 90.0477V111.495L-65.2913 116.143L-75.8254 122.219L-86.061 116.292L-94.3987 111.495V90.0477ZM-63.6067 83.3747L-74.5246 77.0855V55.6168L-65.5898 50.4575L-55.9513 44.8931L-46.2488 50.4788L-37.3566 55.6168V77.0641L-48.5092 83.46L-55.9513 87.7238L-63.6067 83.3747ZM-54.6505 90.0477L-36.0559 79.388L-17.4825 90.0477V111.495L-25.6923 116.228L-36.0559 122.219L-45.8437 116.569L-54.6505 111.495V90.0477ZM-24.2209 83.0762L-34.883 77.0002V55.6168L-26.5666 50.8199L-16.2884 44.8931L-6.11673 50.756L2.28497 55.6168V77.0641L-8.01459 83.0762L-16.1817 87.7878L-24.2209 83.0762ZM-14.9023 89.9624L3.69235 79.3027L22.2657 89.9624V111.41L13.3948 116.526L3.69235 122.133L-7.43881 115.738L-14.9023 111.474V89.9624ZM15.378 82.991L4.90784 77.0641V55.6168L13.3096 50.756L23.4812 44.8931L33.5675 50.7133L42.0972 55.6168V77.0641L31.8616 83.0762L23.5665 87.8731L15.378 82.991ZM24.8672 89.9624L43.4406 79.3027L62.0139 89.9624V111.41L54.3159 115.844L43.4406 122.133L33.0557 116.143L24.8672 111.41V89.9624ZM54.4652 82.6072L44.7413 77.0002V55.6168L52.6953 51.0118L63.3574 44.8931L74.0194 51.0971L81.8454 55.6168V77.0641L72.0576 82.7138L63.272 87.7665L54.4652 82.6072ZM91.228 15.0459L101.762 21.122V42.5693L95.3649 46.2789L83.2101 53.293L71.7591 46.6839L64.6155 42.5693V21.2499L74.8511 15.3444L83.1888 10.5262L91.228 15.0459ZM92.4648 -53.0697L101.762 -47.6972V-26.1859L90.2045 -19.5555L83.1462 -15.4622L75.6187 -19.7261L64.5728 -26.1219V-47.6332L73.8488 -53.0057L83.1462 -58.3569L92.4648 -53.0697ZM95.4289 -120.183L101.826 -116.538V-95.0263L90.8655 -88.6305L83.2528 -84.2174L75.1496 -88.8863L64.6155 -95.0263V-116.474L71.5032 -120.439L83.1888 -127.197L95.4289 -120.183ZM64.6155 -185.314L72.6973 -189.983L83.1888 -196.016L94.1281 -189.621L101.762 -185.229V-163.867L93.7443 -159.219L83.1888 -153.143L72.9106 -159.07L64.6155 -163.867V-185.314ZM74.4459 -155.19L81.8881 -150.926V-129.436L70.6929 -123.04L63.3147 -118.776L55.638 -123.211L44.7413 -129.606V-150.883L52.4181 -155.318L63.3147 -161.607L74.4459 -155.19ZM24.8672 -185.314L32.7572 -189.813L43.4193 -195.974L54.7211 -189.45L61.9926 -185.186V-163.867L54.3159 -159.432L43.4193 -153.143L33.0131 -159.134L24.8459 -163.867L24.8672 -185.314ZM33.8234 -155.701L42.1398 -150.883V-129.436L30.6888 -122.848L23.5665 -118.712L16.7214 -122.656L4.90784 -129.436V-150.883L13.1816 -155.701L23.5665 -161.692L33.8234 -155.701ZM-14.9023 -185.314L-8.01459 -189.28L3.69235 -196.016L13.4375 -190.345L22.2017 -185.314V-163.867L13.4375 -158.75L3.71368 -153.143L-7.43881 -159.539L-14.881 -163.803L-14.9023 -185.314ZM-5.75424 -155.701L2.45557 -150.969V-129.436L-9.29404 -122.656L-16.1178 -118.712L-22.515 -122.422L-34.6911 -129.436V-150.883L-26.6519 -155.531L-15.9898 -161.607L-5.75424 -155.701ZM-54.5865 -185.399L-45.9289 -190.388L-35.9919 -196.102L-25.3298 -189.94L-17.4185 -185.399V-163.867L-25.607 -159.134L-35.9919 -153.143L-45.7797 -158.793L-54.5865 -163.867V-185.399ZM-46.0569 -156.043L-37.25 -150.969V-129.436L-50.0445 -122.102L-55.9087 -118.712L-62.3059 -122.379L-74.5459 -129.436V-150.883L-65.6751 -156L-55.9726 -161.607L-46.0569 -156.043ZM-94.3987 -185.314L-86.2956 -189.983L-75.8254 -196.016L-64.8648 -189.621L-57.2307 -185.229V-163.867L-65.27 -159.219L-75.932 -153.143L-86.1889 -159.07L-94.5054 -163.867L-94.3987 -185.314ZM-84.6536 -155.19L-77.1902 -150.926V-129.436L-88.3853 -123.04L-95.7848 -118.776L-103.44 -123.211L-114.358 -129.606V-150.883L-106.681 -155.318L-95.7848 -161.607L-84.6536 -155.19ZM-134.147 -185.314L-126.236 -189.813L-115.574 -195.974L-104.25 -189.45L-97.0003 -185.186V-163.867L-104.656 -159.432L-115.574 -153.143L-125.958 -159.134L-134.147 -163.867V-185.314ZM-125.169 -155.701L-116.853 -150.883V-129.436L-128.283 -122.848L-135.426 -118.712L-142.229 -122.656L-153.978 -129.436V-150.883L-145.811 -155.701L-135.448 -161.692L-125.169 -155.701ZM-173.895 -185.314L-167.007 -189.28L-155.322 -196.016L-145.491 -190.345L-136.749 -185.314V-163.867L-145.598 -158.75L-155.322 -153.143L-166.474 -159.539L-173.895 -163.803V-185.314ZM-164.811 -155.701L-156.623 -150.969V-129.436L-168.351 -122.656L-175.196 -118.712L-181.593 -122.422L-193.748 -129.436V-150.883L-185.709 -155.531L-175.175 -161.607L-164.811 -155.701ZM-213.643 -185.314L-204.986 -190.303L-195.07 -196.016L-184.408 -189.855L-176.518 -185.314V-163.867L-184.707 -159.134L-195.07 -153.143L-204.858 -158.793L-213.643 -163.867V-185.314ZM-205.114 -155.957L-196.328 -150.883V-129.436L-209.123 -122.102L-214.944 -118.712L-221.341 -122.379L-233.581 -129.436V-150.883L-224.732 -156L-215.008 -161.607L-205.114 -155.957ZM-253.392 -185.314L-245.288 -189.983L-234.818 -196.016L-223.858 -189.621L-216.245 -185.229V-163.867L-224.263 -159.219L-234.925 -153.143L-245.182 -159.07L-253.498 -163.867L-253.392 -185.314ZM-243.561 -155.19L-236.119 -150.926V-129.436L-247.293 -123.04L-254.692 -118.776L-262.348 -123.211L-273.266 -129.606V-150.883L-265.589 -155.318L-254.692 -161.607L-243.561 -155.19ZM-293.14 -185.314L-285.25 -189.813L-274.588 -195.974L-263.286 -189.45L-256.014 -185.186V-163.867L-263.67 -159.432L-274.567 -153.143L-284.951 -159.134L-293.14 -163.867V-185.314ZM-284.184 -155.701L-275.867 -150.883V-129.436L-287.233 -122.848L-294.377 -118.712L-301.2 -122.656L-312.95 -129.436V-150.883L-304.825 -155.701L-294.441 -161.692L-284.184 -155.701ZM-332.888 -185.314L-326 -189.28L-314.315 -196.016L-304.484 -190.345L-295.763 -185.314V-163.867L-304.612 -158.75L-314.315 -153.143L-325.467 -159.539L-332.888 -163.803V-185.314ZM-340.543 -122.422L-352.698 -129.436V-150.883L-344.808 -155.531L-334.146 -161.607L-323.804 -155.701L-315.615 -150.969V-129.436L-327.365 -122.656L-334.146 -118.712L-340.543 -122.422ZM-343.486 -55.2442L-352.762 -60.6168V-82.0641L-342.1 -88.1401L-334.146 -92.7878L-325.958 -88.0549L-315.573 -82.0641V-60.6168L-324.849 -55.2442L-334.146 -49.8931L-343.486 -55.2442ZM-344.808 12.85L-352.826 8.22369V-13.2236L-345.747 -17.317L-334.146 -23.9473L-322.908 -17.5515L-315.573 -13.2876V8.15974L-323.761 12.8927L-334.146 18.9474L-344.808 12.85ZM-342.271 83.2041L-352.933 77.1281V55.6168L-344.638 50.8199L-334.146 44.8931L-323.975 50.756L-315.573 55.6168V77.0641L-326 83.0762L-334.146 87.7665L-342.271 83.2041ZM-340.543 152.897L-352.698 145.883V124.436L-340.543 117.422L-334.146 113.712L-327.322 117.656L-315.573 124.436V145.883L-334.146 156.543L-340.543 152.897ZM-295.763 180.314L-314.336 190.974L-332.909 180.314V158.867L-314.336 148.207L-295.763 158.867V180.314ZM-301.286 152.599L-313.035 145.819V124.436L-301.286 117.656L-294.462 113.712L-287.233 117.848L-275.803 124.436V145.883L-294.377 156.543L-301.286 152.599ZM-256.014 180.314L-274.588 190.974L-293.161 180.314V158.867L-274.588 148.207L-256.014 158.867V180.314ZM-262.412 152.194L-273.33 145.798V124.436L-262.412 118.04L-254.756 113.606L-247.357 117.87L-236.183 124.265V145.713L-254.756 156.372L-262.412 152.194ZM-216.309 180.314L-234.882 190.974L-253.456 180.314V158.867L-234.882 148.207L-216.309 158.867V180.314ZM-221.341 152.94L-233.581 145.883V124.436L-221.341 117.379L-214.944 113.712L-209.08 117.187L-196.286 124.521V145.969L-214.859 156.628L-221.341 152.94ZM-176.561 180.314L-195.134 190.974L-213.707 180.314V158.867L-195.134 148.207L-176.561 158.867V180.314ZM-181.678 152.897L-193.833 145.883V124.436L-181.678 117.422L-175.281 113.712L-168.436 117.656L-156.708 124.436V145.883L-175.281 156.543L-181.678 152.897ZM-136.898 180.314L-155.471 190.974L-174.044 180.314V158.867L-155.471 148.207L-136.898 158.867V180.314ZM-142.421 152.599L-154.17 145.819V124.436L-142.421 117.656L-135.597 113.712L-128.453 117.848L-117.024 124.436V145.883L-135.597 156.543L-142.421 152.599ZM-97.1495 180.314L-115.723 190.974L-134.296 180.314V158.867L-115.723 148.207L-97.1495 158.867V180.314ZM-103.547 152.194L-114.465 145.798V124.436L-103.547 118.04L-95.8914 113.606L-88.4919 117.87L-77.2968 124.265V145.713L-95.8914 156.372L-103.547 152.194ZM-57.4226 180.314L-76.0173 190.974L-94.5907 180.314V158.867L-76.0173 148.207L-57.4226 158.867V180.314ZM-62.4765 152.94L-74.7165 145.883V124.436L-62.4765 117.379L-56.0793 113.712L-50.2151 117.102L-37.4206 124.436V145.883L-56.0153 156.543L-62.4765 152.94ZM-17.6958 180.314L-36.2691 190.974L-54.8637 180.314V158.867L-36.2691 148.207L-17.6958 158.867V180.314ZM-22.8135 152.897L-34.9897 145.883V124.436L-22.8135 117.422L-16.4163 113.712L-9.59259 117.656L2.15704 124.436V145.883L-16.4163 156.543L-22.8135 152.897ZM21.9672 180.314L3.39383 190.974L-15.2008 180.314V158.867L3.39383 148.207L21.9672 158.867V180.314ZM16.4229 152.599L4.69458 145.819V124.436L16.4229 117.656L23.2679 113.712L30.3902 117.848L41.8413 124.436V145.883L23.2679 156.543L16.4229 152.599ZM61.7154 180.314L43.142 190.974L24.5687 180.314V158.867L43.142 148.207L61.7154 158.867V180.314ZM55.3181 152.194L44.4215 145.798V124.436L55.3181 118.04L62.9948 113.606L70.373 117.87L81.5682 124.265V145.713L62.9948 156.372L55.3181 152.194ZM64.6155 180.314V158.867L83.1888 148.207L101.762 158.867V180.314L83.1888 190.974L64.6155 180.314Z" fill="url(#paint2_radial_293_277)"/>
</g>
<defs>
<linearGradient id="paint0_linear_293_277" x1="809.5" y1="0" x2="809.5" y2="159" gradientUnits="userSpaceOnUse">
<stop stop-color="#B4E5FF"/>
<stop offset="1" stop-color="#2EB7FF"/>
</linearGradient>
<linearGradient id="paint1_linear_293_277" x1="0" y1="0" x2="1127.83" y2="828.018" gradientUnits="userSpaceOnUse">
<stop stop-color="#B4E5FF"/>
<stop offset="1" stop-color="#2EB7FF"/>
</linearGradient>
<radialGradient id="paint2_radial_293_277" cx="0" cy="0" r="1" gradientUnits="userSpaceOnUse" gradientTransform="translate(-125.479 -2.53195) rotate(90) scale(206.468 238.521)">
<stop stop-color="white"/>
<stop offset="1" stop-color="white" stop-opacity="0"/>
</radialGradient>
</defs>
</svg>
