<svg width="1618" height="155" viewBox="0 0 1618 155" fill="none" xmlns="http://www.w3.org/2000/svg">
<rect width="1618" height="155" rx="40" fill="#FBFBFB"/>
<mask id="mask0_385_159" style="mask-type:alpha" maskUnits="userSpaceOnUse" x="0" y="0" width="1618" height="155">
<rect width="1618" height="155" rx="40" fill="#FBFBFB"/>
</mask>
<g mask="url(#mask0_385_159)">
<path opacity="0.4" d="M160.365 266.987L168.063 262.553L175.505 266.817L178 268.245V265.239L169.364 260.272V238.867L178 233.878V230.872L167.999 236.607L161.602 232.94L149.383 225.883V204.436L161.602 197.379L167.999 193.712L173.842 197.102L177.936 199.447V196.462L169.3 191.474V170.026L177.936 165.038V162.032L175.42 163.503L167.999 167.766L160.322 163.353L149.426 157.064V135.617L158.36 130.457L167.999 124.893L177.68 130.479L177.936 130.628V127.622L176.678 126.897L169.3 122.633V101.25L177.936 96.2611V93.2764H177.787L167.999 98.9474L158.275 93.3404L149.426 88.2237V66.7764L157.401 62.1713L168.063 56.0527L178 61.7876V58.7816L169.364 53.8141V32.3668L178 27.378V24.372L176.571 25.2035L168.042 30.1069L159.469 25.1395L149.532 19.3832V-2.0641L160.429 -8.35333L168.106 -12.7878L175.526 -8.52389L178.043 -7.05285V-10.0376L169.406 -15.0263V-36.4737L176.422 -40.5244L178.043 -41.4624V-44.4684L173.948 -42.102L167.999 -38.7122L161.602 -42.3791L149.383 -49.4359V-70.8832L158.232 -75.9999L167.999 -81.6069L177.765 -75.9573H177.936V-78.878L169.3 -83.8668V-105.314L177.936 -110.282V-113.288L173.948 -110.985L167.999 -107.553L161.708 -111.177L149.49 -118.34V-129H146.888V-118.34L135.33 -111.667L128.315 -107.617L121.043 -111.88L109.741 -118.34V-129H107.14V-118.34L95.4968 -111.539L88.6091 -107.553L81.956 -111.39L69.9078 -118.34V-129H67.3063V-118.34L55.3648 -111.454L48.733 -107.617L42.3357 -111.284L30.2236 -118.34V-129H27.6434V-118.34L14.9982 -111.049L9.04873 -107.617L2.65148 -111.241L-9.52462 -118.34V-129H-12.1049V-118.34L-23.6625 -111.667L-30.6995 -107.617L-37.9497 -111.88L-49.2728 -118.34V-129H-51.8744V-118.34L-63.56 -111.603L-70.4477 -107.617L-77.0795 -111.454L-89.0211 -118.34V-129H-91.6226V-118.34L-103.543 -111.39L-110.196 -107.553L-116.593 -111.22L-128.769 -118.34V-129H-131.371V-118.34L-143.995 -110.985L-149.944 -107.553L-156.341 -111.177L-168.518 -118.34V-129H-171.055V-118.34L-182.655 -111.603L-189.692 -107.553L-196.943 -111.817L-208.266 -118.34V-129H-210.867V-118.34L-222.553 -111.539L-229.441 -107.553L-236.072 -111.39L-248.014 -118.34V-129H-250.615V-118.34L-262.557 -111.454L-269.146 -107.553L-275.543 -111.22L-287.762 -118.34V-129H-290.364V-118.34L-299 -113.288V-110.282L-289.063 -116.016L-278.38 -109.813L-270.49 -105.271V-83.8668L-278.678 -79.1338L-289.063 -73.1431L-299 -78.878V-75.872L-290.364 -70.8832V-49.4359L-299 -44.4684V-41.4624L-289.063 -47.1973L-277.121 -40.3112L-270.49 -36.4737V-15.0263L-281.152 -8.865L-289.042 -4.30264L-299 -10.0376V-7.03153L-290.364 -2.0641V19.3832L-299 24.372V27.378L-297.571 26.6319L-289.042 21.7284L-279.808 26.9943L-270.532 32.3668V53.8141L-281.791 60.21L-289.106 64.4738L-299 58.7816V61.7876L-298.168 62.2779L-290.364 66.7764V88.2237L-298.893 93.2124V96.1972L-296.505 94.854L-289.063 90.5902L-280.853 95.3231L-270.49 101.25V122.569L-277.313 126.513L-289.063 133.293L-299 127.622V130.628L-290.364 135.617V157.064L-298.893 162.032V165.038L-288.956 159.303L-270.383 169.962V191.41L-278.593 196.143L-288.956 202.133L-299 196.462V199.447L-290.364 204.436V225.883L-299 230.872V233.878L-289.063 228.143L-270.49 238.803V260.25L-289.063 270.91L-299 265.282V268.288L-290.364 273.276V283.936H-287.762V273.276L-277.228 267.2L-269.146 262.553L-260.936 267.286L-250.573 273.276V283.936H-247.971V273.276L-237.608 267.286L-229.398 262.553L-221.082 267.35L-210.825 273.276V283.936H-208.223V273.276L-198.499 267.669L-189.65 262.553L-180.886 267.541L-171.055 273.276V283.936H-168.454V273.276L-157.557 266.987L-149.88 262.553L-142.417 266.817L-131.307 273.212V283.872H-128.705V273.212L-118.171 267.136L-110.132 262.489L-101.922 267.222L-91.5586 273.212V283.872H-88.9571V273.212L-78.5722 267.222L-70.3838 262.489L-62.046 267.286L-51.8104 273.212V283.872H-49.2089V273.212L-39.4851 267.605L-30.6355 262.489L-21.786 267.541L-11.9982 273.191V283.851H-9.418V273.191L1.47865 266.902L9.15532 262.467L16.6188 266.731L27.75 273.127V283.787H30.3302V273.127L40.8644 267.051L48.9249 262.403L57.1134 267.136L67.4982 273.127V283.787H69.9078V273.127L80.2714 267.136L88.4812 262.403L96.7976 267.2L107.055 273.127V283.787H109.656V273.127L119.359 267.52L128.229 262.403L137.015 267.477L146.803 273.127V283.787H149.404V273.127L160.365 266.987ZM166.762 170.026V191.474L158.723 196.121L148.189 202.197L137.932 196.271L129.615 191.474V170.026L148.189 159.367L166.762 170.026ZM-218.395 62.4272L-210.867 66.6911V88.1384L-219.184 92.9353L-229.441 98.8621L-239.825 92.8713L-248.014 88.1384V66.7764L-240.678 62.5125L-229.441 56.1166L-218.395 62.4272ZM-228.14 53.8994V32.3668L-218.843 26.9943L-209.567 21.6431L-199.608 27.378L-191.078 32.3668V53.8141L-201.741 59.9328L-209.716 64.5378L-217.03 60.2739L-228.14 53.8994ZM-228.14 101.271L-217.755 95.2804L-209.567 90.5475L-200.696 95.6642L-190.993 101.25V122.569L-197.39 126.236L-209.63 133.293L-221.38 126.513L-228.14 122.569V101.271ZM-200.61 92.7434L-208.266 88.3303V66.7764L-201.357 62.8749L-189.692 56.1379L-177.73 62.8749L-171.055 66.7764V88.2237L-178.476 92.4876L-189.628 98.8834L-200.61 92.7434ZM-188.392 53.9207V32.3668L-179.094 26.9943L-169.818 21.6431L-160.521 26.9943L-151.245 32.3668V53.8141L-162.76 60.4445L-169.818 64.5378L-177.346 60.2739L-188.392 53.9207ZM-188.392 101.293L-178.135 95.387L-169.818 90.5688L-161.779 95.2165L-151.245 101.25V122.569L-157.642 126.279L-169.797 133.293L-181.248 126.833L-188.392 122.569V101.293ZM-159.668 93.4469L-168.518 88.3303V66.7764L-160.542 62.1713L-149.88 56.0527L-139.218 62.2779L-131.413 66.7764V88.2237L-140.199 93.2977L-149.987 98.9474L-159.668 93.4469ZM-148.643 53.9207V32.3668L-138.578 26.6319L-130.049 21.7284L-120.751 27.0796L-111.475 32.4521V53.8141L-122.735 60.21L-130.049 64.4738L-136.638 60.7429L-148.643 53.9207ZM-148.643 101.293L-137.512 94.8967L-130.07 90.6328L-121.86 95.3657L-111.497 101.25V122.569L-118.32 126.513L-130.07 133.293L-141.201 126.833L-148.601 122.569L-148.643 101.293ZM-120.751 92.9566L-128.769 88.3303V66.7764L-121.69 62.683L-110.196 56.0527L-98.9581 62.4485L-91.6226 66.7124V88.1597L-99.7898 92.8927L-110.196 98.8834L-120.751 92.9566ZM-108.895 53.9207V32.3668L-100.366 27.442L-90.3218 21.6431L-81.7922 26.6105L-71.8551 32.3668V53.8141L-83.5194 60.5511L-90.4285 64.5378L-98.2118 60.0181L-108.895 53.9207ZM-108.895 101.293L-99.1074 95.6642L-90.3218 90.5688L-82.6238 95.0033L-71.7485 101.399V122.569L-79.3612 127.068L-90.2792 133.464L-103.074 126.13L-108.895 122.569V101.293ZM-80.8326 93.0632L-89.0211 88.3303V66.7764L-81.6855 62.5125L-70.4477 56.1166L-59.4018 62.5125L-51.8744 66.7764V88.2237L-60.1695 93.0206L-70.4477 98.9474L-80.8326 93.0632ZM-69.147 53.9207V32.3668L-59.8496 26.9943L-50.5736 21.6431L-40.6152 27.378L-32.0856 32.3668V53.8141L-42.7477 59.9328L-50.7229 64.5378L-58.0371 60.2739L-69.147 53.9207ZM-69.147 101.293L-58.7621 95.3017L-50.5736 90.5688L-41.7028 95.6855L-32.0003 101.293V122.569L-38.3975 126.236L-50.6376 133.293L-62.3659 126.513L-69.147 122.569V101.293ZM-41.5962 92.7647L-49.2728 88.3516V66.7764L-42.3425 62.8749L-30.6995 56.1379L-18.7153 62.8749L-12.1049 66.6911V88.1384L-19.547 92.4023L-30.6995 98.7981L-41.5962 92.7647ZM-29.3987 53.942V32.3668L-20.1014 26.9943L-10.8254 21.6431L-1.52807 26.9943L7.76927 32.3668V53.8141L-3.74576 60.4445L-10.8254 64.5378L-18.3315 60.2739L-29.3987 53.942ZM-29.3987 101.314L-19.1418 95.4083L-10.8254 90.5902L-2.76487 95.2378L7.76927 101.314V122.569L1.37202 126.279L-10.8041 133.293L-22.2338 126.684L-29.3987 122.569V101.314ZM-0.675113 93.4683L-9.52462 88.3516V66.7764L-1.52807 62.1713L9.13401 56.0527L19.7961 62.2779L27.622 66.7764V88.2237L18.8152 93.2977L9.02738 98.9474L-0.675113 93.4683ZM10.3495 53.942V32.3668L20.4145 26.6319L28.9441 21.7284L38.2202 27.0796L47.5175 32.4521V53.8141L36.2583 60.21L28.9441 64.4738L22.355 60.7429L10.3495 53.942ZM10.3495 101.314L21.4807 94.918L28.9441 90.6541L37.1326 95.387L47.5175 101.25V122.569L40.6724 126.513L28.9441 133.293L17.749 126.897L10.3495 122.633V101.314ZM38.2628 92.9779L30.2236 88.3516V66.7764L37.3245 62.683L48.8183 56.0527L60.0561 62.4485L67.3916 66.7124V88.1597L59.2458 92.9566L48.8609 98.9474L38.2628 92.9779ZM50.0977 53.942V32.3668L58.6274 27.442L68.6924 21.6431L77.222 26.6105L87.1804 32.3668V53.8141L75.4948 60.5511L68.6071 64.5378L60.8024 60.0181L50.0977 53.942ZM50.0977 101.314L59.8855 95.6855L68.6924 90.5902L76.3051 94.854L87.2017 101.25V122.569L79.525 127.004L68.6284 133.4L55.8339 126.066L50.0977 122.569V101.314ZM78.1603 93.0845L69.9078 88.2237V66.7764L77.2434 62.5125L88.4812 56.1166L99.5058 62.5125L107.055 66.7764V88.2237L98.7381 93.0206L88.4812 98.9474L78.1603 93.0845ZM89.8673 53.942V32.3668L99.1433 26.9943L108.441 21.6431L118.378 27.378L127.014 32.3668V53.8141L116.352 59.9328L108.398 64.5378L101.062 60.2739L89.8673 53.942ZM89.8673 101.314L100.231 95.3231L108.441 90.5902L117.29 95.7068L127.014 101.314V122.569L120.617 126.236L108.398 133.293L96.6483 126.513L89.8246 122.569L89.8673 101.314ZM117.397 92.7861L109.741 88.3729V66.7764L116.65 62.8749L128.315 56.1379L140.278 62.8749L146.888 66.6911V88.1384L139.467 92.4023L128.315 98.7981L117.397 92.7861ZM118.356 24.5639L109.827 19.5751V-2.0641L119.55 -7.67111L128.4 -12.7878L137.186 -7.71375L146.973 -2.0641V19.3832L138.444 24.308L128.4 30.1069L118.356 24.5639ZM127.014 -14.8344L117.183 -9.16347L108.441 -4.11076L100.529 -8.67313L89.8673 -14.8344V-36.4737L96.4991 -40.3112L108.441 -47.1973L120.723 -40.098L127.014 -36.4737V-14.8344ZM96.8616 -7.77771L107.14 -1.87222V19.3832L97.8425 24.7558L88.5665 30.1069L79.2691 24.7558L69.9078 19.3832V-2.0641L80.2927 -8.05486L88.4812 -12.7878L96.8616 -7.77771ZM87.2657 -14.8344L75.9426 -8.31069L68.6924 -4.04681L60.0348 -9.03555L50.0977 -14.7705V-36.4737L56.0471 -39.9061L68.6924 -47.1973L79.9942 -40.6523L87.2657 -36.3884V-14.8344ZM56.9854 -7.86299L67.3916 -1.87222V19.3832L58.0943 24.7558L48.8183 30.1069L39.5209 24.7558L30.2236 19.3832V-2.0641L40.8857 -8.14014L48.9249 -12.7878L56.9854 -7.86299ZM47.5175 -14.8344L36.8554 -8.67313L28.9655 -4.11076L22.0778 -8.0975L10.3708 -14.8344V-36.4737L17.4078 -40.5244L28.9655 -47.1973L40.8857 -40.3112L47.5388 -36.4737L47.5175 -14.8344ZM16.5975 -8.50257L27.75 -2.10674V19.3832L17.685 25.2035L9.15532 30.1069L0.625661 25.1395L-9.33271 19.3832V-2.0641L1.58527 -8.35333L9.24064 -12.7878L16.5975 -8.50257ZM7.87589 -15.0263L-3.08472 -8.63049L-10.7188 -4.21737L-18.8006 -8.88632L-29.2921 -14.941V-36.4737L-22.4044 -40.4391L-10.7188 -47.1973L1.54262 -40.1193L7.93986 -36.4737L7.87589 -15.0263ZM-21.786 -7.71375L-11.9982 -2.0641V19.3832L-20.5279 24.308L-30.5929 30.1069L-40.5299 24.372L-49.0596 19.3832V-2.0641L-39.3358 -7.67111L-30.4863 -12.7878L-21.786 -7.71375ZM-31.8937 -15.0263L-41.7028 -9.35535L-50.467 -4.30264L-58.3569 -8.865L-69.019 -15.0263V-36.4737L-62.3659 -40.3112L-50.4457 -47.1973L-38.163 -40.098L-31.8723 -36.4737L-31.8937 -15.0263ZM-62.0247 -7.96958L-51.7678 -2.0641V19.3832L-61.0438 24.7558L-70.3411 30.1069L-79.6171 24.7558L-89.0211 19.3832V-2.0641L-78.6362 -8.05486L-70.4477 -12.7878L-62.0247 -7.96958ZM-71.6419 -15.0263L-82.9437 -8.50257L-90.2152 -4.23868L-98.7449 -9.22743L-108.682 -14.9624V-36.4737L-102.732 -39.9061L-90.1086 -47.1973L-78.7855 -40.6523L-71.5353 -36.3884L-71.6419 -15.0263ZM-102.007 -8.05486L-91.6226 -2.0641V19.3832L-100.899 24.7558L-110.196 30.1069L-119.472 24.7558L-128.769 19.3832V-2.0641L-118.107 -8.14014L-110.089 -12.7878L-102.007 -8.05486ZM-111.497 -15.0263L-122.159 -8.865L-130.07 -4.30264L-136.936 -8.28938L-148.622 -15.0263V-36.4737L-141.585 -40.5244L-130.049 -47.1973L-118.107 -40.3112L-111.475 -36.4737L-111.497 -15.0263ZM-142.523 -8.50257L-131.371 -2.10674V19.3832L-141.415 25.2035L-149.944 30.1069L-158.474 25.1395L-168.432 19.3832V-2.0641L-157.514 -8.35333L-149.859 -12.7878L-142.523 -8.50257ZM-151.245 -15.0263L-162.184 -8.63049L-169.818 -4.21737L-177.9 -8.9716L-188.392 -15.0263V-36.4737L-181.504 -40.4391L-169.818 -47.1973L-157.578 -40.1193L-151.181 -36.4737L-151.245 -15.0263ZM-180.907 -7.71375L-171.055 -2.0641V19.3832L-179.585 24.308L-189.65 30.1069L-199.629 24.372L-208.266 19.3832V-2.0641L-198.542 -7.67111L-189.692 -12.7878L-180.907 -7.71375ZM-190.993 -15.0263L-200.909 -9.35535L-209.652 -4.30264L-217.542 -8.865L-228.204 -15.0263V-36.4737L-221.572 -40.3112L-209.63 -47.1973L-197.284 -40.098L-190.993 -36.4737V-15.0263ZM-221.124 -7.96958L-210.867 -2.0641V19.3832L-220.101 24.7558L-229.398 30.1069L-238.674 24.7558L-248.014 19.3832V-2.0641L-237.629 -8.05486L-229.441 -12.7878L-221.124 -7.96958ZM-230.763 -15.0263L-242.065 -8.50257L-249.336 -4.23868L-257.972 -9.22743L-267.909 -14.9624V-36.4737L-261.96 -39.9061L-249.336 -47.1973L-238.013 -40.6523L-230.763 -36.3884V-15.0263ZM-240.678 26.6319L-230.763 32.3668V53.8141L-242.448 60.5511L-249.315 64.5378L-257.098 60.0181L-267.888 53.8141V32.3668L-259.358 27.442L-249.293 21.6431L-240.678 26.6319ZM-241.638 94.854L-230.763 101.25V122.569L-238.418 127.004L-249.336 133.4L-262.131 126.066L-267.888 122.569V101.25L-258.1 95.6215L-249.315 90.5262L-241.638 94.854ZM-230.763 170.026V191.474L-239.612 196.59L-249.336 202.197L-260.467 195.802L-267.909 191.538V170.026L-249.336 159.367L-230.763 170.026ZM-237.629 163.076L-248.014 157.085V135.617L-239.612 130.756L-229.441 124.893L-219.354 130.713L-210.825 135.617V157.064L-221.124 163.076L-229.441 167.873L-237.629 163.076ZM-228.14 170.048L-209.567 159.388L-190.993 170.048V191.495L-198.67 195.929L-209.567 202.219L-219.93 196.228L-228.14 191.495V170.048ZM-198.542 162.692L-208.266 157.085V135.617L-200.29 131.097L-189.628 124.978L-178.924 131.097L-171.055 135.617V157.064L-180.843 162.714L-189.628 167.766L-198.542 162.692ZM-188.392 170.048L-169.818 159.388L-151.245 170.048V191.495L-159.284 196.143L-169.818 202.219L-180.075 196.292L-188.392 191.495V170.048ZM-157.6 163.375L-168.518 157.085V135.617L-159.583 130.457L-149.944 124.893L-140.263 130.479L-131.371 135.617V157.064L-142.523 163.46L-149.944 167.724L-157.6 163.375ZM-148.643 170.048L-130.07 159.388L-111.497 170.048V191.495L-119.685 196.228L-130.07 202.219L-139.837 196.569L-148.643 191.495V170.048ZM-118.214 163.076L-128.876 157V135.617L-120.559 130.82L-110.303 124.893L-100.131 130.756L-91.7292 135.617V157.064L-102.007 163.076L-110.196 167.788L-118.214 163.076ZM-108.895 169.962L-90.3218 159.303L-71.7485 169.962V191.41L-80.598 196.526L-90.3218 202.133L-101.432 195.738L-108.895 191.474V169.962ZM-78.6362 163.076L-89.0211 157.085V135.617L-80.6193 130.756L-70.4477 124.893L-60.3614 130.713L-51.8317 135.617V157.064L-62.1313 163.076L-70.4477 167.873L-78.6362 163.076ZM-69.147 170.048L-50.5736 159.388L-32.0003 170.048V191.495L-39.677 195.929L-50.5736 202.219L-60.9372 196.228L-69.147 191.495V170.048ZM-39.549 162.692L-49.2728 157.085V135.617L-41.2976 131.012L-30.6355 124.893L-19.8669 131.097L-12.0409 135.617V157.064L-21.786 162.714L-30.5929 167.766L-39.549 162.692ZM-29.3987 170.048L-10.8254 159.388L7.76927 170.048V191.495L-0.291262 196.143L-10.8254 202.219L-21.061 196.292L-29.3987 191.495V170.048ZM1.39333 163.375L-9.52462 157.085V135.617L-0.589798 130.457L9.04873 124.893L18.7512 130.479L27.6434 135.617V157.064L16.4908 163.46L9.04873 167.724L1.39333 163.375ZM10.3495 170.048L28.9441 159.388L47.5175 170.048V191.495L39.3077 196.228L28.9441 202.219L19.1564 196.569L10.3495 191.495V170.048ZM40.779 163.076L30.117 157V135.617L38.4334 130.82L48.7116 124.893L58.8833 130.756L67.285 135.617V157.064L56.9854 163.076L48.8183 167.788L40.779 163.076ZM50.0977 169.962L68.6924 159.303L87.2657 169.962V191.41L78.3948 196.526L68.6924 202.133L57.5612 195.738L50.0977 191.474V169.962ZM80.378 162.991L69.9078 157.064V135.617L78.3096 130.756L88.4812 124.893L98.5675 130.713L107.097 135.617V157.064L96.8616 163.076L88.5665 167.873L80.378 162.991ZM89.8673 169.962L108.441 159.303L127.014 169.962V191.41L119.316 195.844L108.441 202.133L98.0557 196.143L89.8673 191.41V169.962ZM119.465 162.607L109.741 157V135.617L117.695 131.012L128.357 124.893L139.019 131.097L146.845 135.617V157.064L137.058 162.714L128.272 167.766L119.465 162.607ZM156.228 95.0459L166.762 101.122V122.569L160.365 126.279L148.21 133.293L136.759 126.684L129.615 122.569V101.25L139.851 95.3444L148.189 90.5262L156.228 95.0459ZM157.465 26.9303L166.762 32.3028V53.8141L155.204 60.4445L148.146 64.5378L140.619 60.2739L129.573 53.8781V32.3668L138.849 26.9943L148.146 21.6431L157.465 26.9303ZM160.429 -40.1832L166.826 -36.5376V-15.0263L155.866 -8.63049L148.253 -4.21737L140.15 -8.88632L129.615 -15.0263V-36.4737L136.503 -40.4391L148.189 -47.1973L160.429 -40.1832ZM129.615 -105.314L137.697 -109.983L148.189 -116.016L159.128 -109.621L166.762 -105.229V-83.8668L158.744 -79.2191L148.189 -73.1431L137.911 -79.0699L129.615 -83.8668V-105.314ZM139.446 -75.1898L146.888 -70.9259V-49.4359L135.693 -43.04L128.315 -38.7762L120.638 -43.2106L109.741 -49.6064V-70.8832L117.418 -75.3177L128.315 -81.6069L139.446 -75.1898ZM89.8673 -105.314L97.7572 -109.813L108.419 -115.974L119.721 -109.45L126.993 -105.186V-83.8668L119.316 -79.4323L108.419 -73.1431L98.0131 -79.1338L89.8459 -83.8668L89.8673 -105.314ZM98.8234 -75.7014L107.14 -70.8832V-49.4359L95.6887 -42.8482L88.5665 -38.7122L81.7214 -42.6563L69.9078 -49.4359V-70.8832L78.1816 -75.7014L88.5665 -81.6922L98.8234 -75.7014ZM50.0977 -105.314L56.9854 -109.28L68.6924 -116.016L78.4375 -110.345L87.2017 -105.314V-83.8668L78.4375 -78.7501L68.7137 -73.1431L57.5612 -79.5389L50.119 -83.8028L50.0977 -105.314ZM59.2458 -75.7014L67.4556 -70.9685V-49.4359L55.706 -42.6563L48.8822 -38.7122L42.485 -42.4218L30.3089 -49.4359V-70.8832L38.3481 -75.5309L49.0102 -81.6069L59.2458 -75.7014ZM10.4135 -105.399L19.0711 -110.388L29.0081 -116.102L39.6702 -109.94L47.5815 -105.399V-83.8668L39.393 -79.1338L29.0081 -73.1431L19.2203 -78.7927L10.4135 -83.8668V-105.399ZM18.9431 -76.0425L27.75 -70.9685V-49.4359L14.9555 -42.102L9.09135 -38.7122L2.69411 -42.3791L-9.54594 -49.4359V-70.8832L-0.675113 -75.9999L9.02738 -81.6069L18.9431 -76.0425ZM-29.3987 -105.314L-21.2956 -109.983L-10.8254 -116.016L0.135215 -109.621L7.76927 -105.229V-83.8668L-0.269949 -79.2191L-10.932 -73.1431L-21.1889 -79.0699L-29.5054 -83.8668L-29.3987 -105.314ZM-19.6536 -75.1898L-12.1901 -70.9259V-49.4359L-23.3853 -43.04L-30.7848 -38.7762L-38.4402 -43.2106L-49.3581 -49.6064V-70.8832L-41.6815 -75.3177L-30.7848 -81.6069L-19.6536 -75.1898ZM-69.147 -105.314L-61.2357 -109.813L-50.5736 -115.974L-39.2505 -109.45L-32.0003 -105.186V-83.8668L-39.6556 -79.4323L-50.5736 -73.1431L-60.9585 -79.1338L-69.147 -83.8668V-105.314ZM-60.1695 -75.7014L-51.8531 -70.8832V-49.4359L-63.2828 -42.8482L-70.4264 -38.7122L-77.2288 -42.6563L-88.9784 -49.4359V-70.8832L-80.8113 -75.7014L-70.4477 -81.6922L-60.1695 -75.7014ZM-108.895 -105.314L-102.007 -109.28L-90.3218 -116.016L-80.4914 -110.345L-71.7485 -105.314V-83.8668L-80.598 -78.7501L-90.3218 -73.1431L-101.474 -79.5389L-108.895 -83.8028V-105.314ZM-99.8111 -75.7014L-91.6226 -70.9685V-49.4359L-103.351 -42.6563L-110.196 -38.7122L-116.593 -42.4218L-128.748 -49.4359V-70.8832L-120.709 -75.5309L-110.175 -81.6069L-99.8111 -75.7014ZM-148.643 -105.314L-139.986 -110.303L-130.07 -116.016L-119.408 -109.855L-111.518 -105.314V-83.8668L-119.707 -79.1338L-130.07 -73.1431L-139.858 -78.7927L-148.643 -83.8668V-105.314ZM-140.114 -75.9573L-131.328 -70.8832V-49.4359L-144.123 -42.102L-149.944 -38.7122L-156.341 -42.3791L-168.581 -49.4359V-70.8832L-159.732 -75.9999L-150.008 -81.6069L-140.114 -75.9573ZM-188.392 -105.314L-180.288 -109.983L-169.818 -116.016L-158.858 -109.621L-151.245 -105.229V-83.8668L-159.263 -79.2191L-169.925 -73.1431L-180.182 -79.0699L-188.498 -83.8668L-188.392 -105.314ZM-178.561 -75.1898L-171.119 -70.9259V-49.4359L-182.293 -43.04L-189.692 -38.7762L-197.348 -43.2106L-208.266 -49.6064V-70.8832L-200.589 -75.3177L-189.692 -81.6069L-178.561 -75.1898ZM-228.14 -105.314L-220.25 -109.813L-209.588 -115.974L-198.286 -109.45L-191.014 -105.186V-83.8668L-198.67 -79.4323L-209.567 -73.1431L-219.951 -79.1338L-228.14 -83.8668V-105.314ZM-219.184 -75.7014L-210.867 -70.8832V-49.4359L-222.233 -42.8482L-229.377 -38.7122L-236.2 -42.6563L-247.95 -49.4359V-70.8832L-239.825 -75.7014L-229.441 -81.6922L-219.184 -75.7014ZM-267.888 -105.314L-261 -109.28L-249.315 -116.016L-239.484 -110.345L-230.763 -105.314V-83.8668L-239.612 -78.7501L-249.315 -73.1431L-260.467 -79.5389L-267.888 -83.8028V-105.314ZM-275.543 -42.4218L-287.698 -49.4359V-70.8832L-279.808 -75.5309L-269.146 -81.6069L-258.804 -75.7014L-250.615 -70.9685V-49.4359L-262.365 -42.6563L-269.146 -38.7122L-275.543 -42.4218ZM-278.486 24.7558L-287.762 19.3832V-2.0641L-277.1 -8.14014L-269.146 -12.7878L-260.958 -8.05486L-250.573 -2.0641V19.3832L-259.849 24.7558L-269.146 30.1069L-278.486 24.7558ZM-279.808 92.85L-287.826 88.2237V66.7764L-280.747 62.683L-269.146 56.0527L-257.908 62.4485L-250.573 66.7124V88.1597L-258.761 92.8927L-269.146 98.9474L-279.808 92.85ZM-277.271 163.204L-287.933 157.128V135.617L-279.638 130.82L-269.146 124.893L-258.975 130.756L-250.573 135.617V157.064L-261 163.076L-269.146 167.766L-277.271 163.204ZM-275.543 232.897L-287.698 225.883V204.436L-275.543 197.422L-269.146 193.712L-262.322 197.656L-250.573 204.436V225.883L-269.146 236.543L-275.543 232.897ZM-230.763 260.314L-249.336 270.974L-267.909 260.314V238.867L-249.336 228.207L-230.763 238.867V260.314ZM-236.286 232.599L-248.035 225.819V204.436L-236.286 197.656L-229.462 193.712L-222.233 197.848L-210.803 204.436V225.883L-229.377 236.543L-236.286 232.599ZM-191.014 260.314L-209.588 270.974L-228.161 260.314V238.867L-209.588 228.207L-191.014 238.867V260.314ZM-197.412 232.194L-208.33 225.798V204.436L-197.412 198.04L-189.756 193.606L-182.357 197.87L-171.183 204.265V225.713L-189.756 236.372L-197.412 232.194ZM-151.309 260.314L-169.882 270.974L-188.456 260.314V238.867L-169.882 228.207L-151.309 238.867V260.314ZM-156.341 232.94L-168.581 225.883V204.436L-156.341 197.379L-149.944 193.712L-144.08 197.187L-131.286 204.521V225.969L-149.859 236.628L-156.341 232.94ZM-111.561 260.314L-130.134 270.974L-148.707 260.314V238.867L-130.134 228.207L-111.561 238.867V260.314ZM-116.678 232.897L-128.833 225.883V204.436L-116.678 197.422L-110.281 193.712L-103.436 197.656L-91.7079 204.436V225.883L-110.281 236.543L-116.678 232.897ZM-71.8978 260.314L-90.4711 270.974L-109.044 260.314V238.867L-90.4711 228.207L-71.8978 238.867V260.314ZM-77.4207 232.599L-89.1703 225.819V204.436L-77.4207 197.656L-70.597 193.712L-63.4534 197.848L-52.0237 204.436V225.883L-70.597 236.543L-77.4207 232.599ZM-32.1496 260.314L-50.7229 270.974L-69.2962 260.314V238.867L-50.7229 228.207L-32.1496 238.867V260.314ZM-38.5468 232.194L-49.4648 225.798V204.436L-38.5468 198.04L-30.8914 193.606L-23.492 197.87L-12.2968 204.265V225.713L-30.8914 236.372L-38.5468 232.194ZM7.57736 260.314L-11.0173 270.974L-29.5907 260.314V238.867L-11.0173 228.207L7.57736 238.867V260.314ZM2.52351 232.94L-9.71653 225.883V204.436L2.52351 197.379L8.92076 193.712L14.7849 197.102L27.5794 204.436V225.883L8.98473 236.543L2.52351 232.94ZM47.3042 260.314L28.7309 270.974L10.1362 260.314V238.867L28.7309 228.207L47.3042 238.867V260.314ZM42.1864 232.897L30.0103 225.883V204.436L42.1864 197.422L48.5837 193.712L55.4074 197.656L67.157 204.436V225.883L48.5837 236.543L42.1864 232.897ZM86.9672 260.314L68.3938 270.974L49.7992 260.314V238.867L68.3938 228.207L86.9672 238.867V260.314ZM81.4229 232.599L69.6946 225.819V204.436L81.4229 197.656L88.2679 193.712L95.3902 197.848L106.841 204.436V225.883L88.2679 236.543L81.4229 232.599ZM126.715 260.314L108.142 270.974L89.5687 260.314V238.867L108.142 228.207L126.715 238.867V260.314ZM120.318 232.194L109.421 225.798V204.436L120.318 198.04L127.995 193.606L135.373 197.87L146.568 204.265V225.713L127.995 236.372L120.318 232.194ZM129.615 260.314V238.867L148.189 228.207L166.762 238.867V260.314L148.189 270.974L129.615 260.314Z" fill="url(#paint0_radial_385_159)"/>
<path opacity="0.4" d="M1894.36 266.987L1902.06 262.553L1909.51 266.817L1912 268.245V265.239L1903.36 260.272V238.867L1912 233.878V230.872L1902 236.607L1895.6 232.94L1883.38 225.883V204.436L1895.6 197.379L1902 193.712L1907.84 197.102L1911.94 199.447V196.462L1903.3 191.474V170.026L1911.94 165.038V162.032L1909.42 163.503L1902 167.766L1894.32 163.353L1883.43 157.064V135.617L1892.36 130.457L1902 124.893L1911.68 130.479L1911.94 130.628V127.622L1910.68 126.897L1903.3 122.633V101.25L1911.94 96.2611V93.2764H1911.79L1902 98.9474L1892.28 93.3404L1883.43 88.2237V66.7764L1891.4 62.1713L1902.06 56.0527L1912 61.7876V58.7816L1903.36 53.8141V32.3668L1912 27.378V24.372L1910.57 25.2035L1902.04 30.1069L1893.47 25.1395L1883.53 19.3832V-2.0641L1894.43 -8.35333L1902.11 -12.7878L1909.53 -8.52389L1912.04 -7.05285V-10.0376L1903.41 -15.0263V-36.4737L1910.42 -40.5244L1912.04 -41.4624V-44.4684L1907.95 -42.102L1902 -38.7122L1895.6 -42.3791L1883.38 -49.4359V-70.8832L1892.23 -75.9999L1902 -81.6069L1911.77 -75.9573H1911.94V-78.878L1903.3 -83.8668V-105.314L1911.94 -110.282V-113.288L1907.95 -110.985L1902 -107.553L1895.71 -111.177L1883.49 -118.34V-129H1880.89V-118.34L1869.33 -111.667L1862.31 -107.617L1855.04 -111.88L1843.74 -118.34V-129H1841.14V-118.34L1829.5 -111.539L1822.61 -107.553L1815.96 -111.39L1803.91 -118.34V-129H1801.31V-118.34L1789.36 -111.454L1782.73 -107.617L1776.34 -111.284L1764.22 -118.34V-129H1761.64V-118.34L1749 -111.049L1743.05 -107.617L1736.65 -111.241L1724.48 -118.34V-129H1721.9V-118.34L1710.34 -111.667L1703.3 -107.617L1696.05 -111.88L1684.73 -118.34V-129H1682.13V-118.34L1670.44 -111.603L1663.55 -107.617L1656.92 -111.454L1644.98 -118.34V-129H1642.38V-118.34L1630.46 -111.39L1623.8 -107.553L1617.41 -111.22L1605.23 -118.34V-129H1602.63V-118.34L1590.01 -110.985L1584.06 -107.553L1577.66 -111.177L1565.48 -118.34V-129H1562.94V-118.34L1551.34 -111.603L1544.31 -107.553L1537.06 -111.817L1525.73 -118.34V-129H1523.13V-118.34L1511.45 -111.539L1504.56 -107.553L1497.93 -111.39L1485.99 -118.34V-129H1483.38V-118.34L1471.44 -111.454L1464.85 -107.553L1458.46 -111.22L1446.24 -118.34V-129H1443.64V-118.34L1435 -113.288V-110.282L1444.94 -116.016L1455.62 -109.813L1463.51 -105.271V-83.8668L1455.32 -79.1338L1444.94 -73.1431L1435 -78.878V-75.872L1443.64 -70.8832V-49.4359L1435 -44.4684V-41.4624L1444.94 -47.1973L1456.88 -40.3112L1463.51 -36.4737V-15.0263L1452.85 -8.865L1444.96 -4.30264L1435 -10.0376V-7.03153L1443.64 -2.0641V19.3832L1435 24.372V27.378L1436.43 26.6319L1444.96 21.7284L1454.19 26.9943L1463.47 32.3668V53.8141L1452.21 60.21L1444.89 64.4738L1435 58.7816V61.7876L1435.83 62.2779L1443.64 66.7764V88.2237L1435.11 93.2124V96.1972L1437.49 94.854L1444.94 90.5902L1453.15 95.3231L1463.51 101.25V122.569L1456.69 126.513L1444.94 133.293L1435 127.622V130.628L1443.64 135.617V157.064L1435.11 162.032V165.038L1445.04 159.303L1463.62 169.962V191.41L1455.41 196.143L1445.04 202.133L1435 196.462V199.447L1443.64 204.436V225.883L1435 230.872V233.878L1444.94 228.143L1463.51 238.803V260.25L1444.94 270.91L1435 265.282V268.288L1443.64 273.276V283.936H1446.24V273.276L1456.77 267.2L1464.85 262.553L1473.06 267.286L1483.43 273.276V283.936H1486.03V273.276L1496.39 267.286L1504.6 262.553L1512.92 267.35L1523.18 273.276V283.936H1525.78V273.276L1535.5 267.669L1544.35 262.553L1553.11 267.541L1562.94 273.276V283.936H1565.55V273.276L1576.44 266.987L1584.12 262.553L1591.58 266.817L1602.69 273.212V283.872H1605.29V273.212L1615.83 267.136L1623.87 262.489L1632.08 267.222L1642.44 273.212V283.872H1645.04V273.212L1655.43 267.222L1663.62 262.489L1671.95 267.286L1682.19 273.212V283.872H1684.79V273.212L1694.51 267.605L1703.36 262.489L1712.21 267.541L1722 273.191V283.851H1724.58V273.191L1735.48 266.902L1743.16 262.467L1750.62 266.731L1761.75 273.127V283.787H1764.33V273.127L1774.86 267.051L1782.92 262.403L1791.11 267.136L1801.5 273.127V283.787H1803.91V273.127L1814.27 267.136L1822.48 262.403L1830.8 267.2L1841.05 273.127V283.787H1843.66V273.127L1853.36 267.52L1862.23 262.403L1871.01 267.477L1880.8 273.127V283.787H1883.4V273.127L1894.36 266.987ZM1900.76 170.026V191.474L1892.72 196.121L1882.19 202.197L1871.93 196.271L1863.62 191.474V170.026L1882.19 159.367L1900.76 170.026ZM1515.61 62.4272L1523.13 66.6911V88.1384L1514.82 92.9353L1504.56 98.8621L1494.17 92.8713L1485.99 88.1384V66.7764L1493.32 62.5125L1504.56 56.1166L1515.61 62.4272ZM1505.86 53.8994V32.3668L1515.16 26.9943L1524.43 21.6431L1534.39 27.378L1542.92 32.3668V53.8141L1532.26 59.9328L1524.28 64.5378L1516.97 60.2739L1505.86 53.8994ZM1505.86 101.271L1516.25 95.2804L1524.43 90.5475L1533.3 95.6642L1543.01 101.25V122.569L1536.61 126.236L1524.37 133.293L1512.62 126.513L1505.86 122.569V101.271ZM1533.39 92.7434L1525.73 88.3303V66.7764L1532.64 62.8749L1544.31 56.1379L1556.27 62.8749L1562.94 66.7764V88.2237L1555.52 92.4876L1544.37 98.8834L1533.39 92.7434ZM1545.61 53.9207V32.3668L1554.91 26.9943L1564.18 21.6431L1573.48 26.9943L1582.76 32.3668V53.8141L1571.24 60.4445L1564.18 64.5378L1556.65 60.2739L1545.61 53.9207ZM1545.61 101.293L1555.87 95.387L1564.18 90.5688L1572.22 95.2165L1582.76 101.25V122.569L1576.36 126.279L1564.2 133.293L1552.75 126.833L1545.61 122.569V101.293ZM1574.33 93.4469L1565.48 88.3303V66.7764L1573.46 62.1713L1584.12 56.0527L1594.78 62.2779L1602.59 66.7764V88.2237L1593.8 93.2977L1584.01 98.9474L1574.33 93.4469ZM1585.36 53.9207V32.3668L1595.42 26.6319L1603.95 21.7284L1613.25 27.0796L1622.52 32.4521V53.8141L1611.27 60.21L1603.95 64.4738L1597.36 60.7429L1585.36 53.9207ZM1585.36 101.293L1596.49 94.8967L1603.93 90.6328L1612.14 95.3657L1622.5 101.25V122.569L1615.68 126.513L1603.93 133.293L1592.8 126.833L1585.4 122.569L1585.36 101.293ZM1613.25 92.9566L1605.23 88.3303V66.7764L1612.31 62.683L1623.8 56.0527L1635.04 62.4485L1642.38 66.7124V88.1597L1634.21 92.8927L1623.8 98.8834L1613.25 92.9566ZM1625.1 53.9207V32.3668L1633.63 27.442L1643.68 21.6431L1652.21 26.6105L1662.14 32.3668V53.8141L1650.48 60.5511L1643.57 64.5378L1635.79 60.0181L1625.1 53.9207ZM1625.1 101.293L1634.89 95.6642L1643.68 90.5688L1651.38 95.0033L1662.25 101.399V122.569L1654.64 127.068L1643.72 133.464L1630.93 126.13L1625.1 122.569V101.293ZM1653.17 93.0632L1644.98 88.3303V66.7764L1652.31 62.5125L1663.55 56.1166L1674.6 62.5125L1682.13 66.7764V88.2237L1673.83 93.0206L1663.55 98.9474L1653.17 93.0632ZM1664.85 53.9207V32.3668L1674.15 26.9943L1683.43 21.6431L1693.38 27.378L1701.91 32.3668V53.8141L1691.25 59.9328L1683.28 64.5378L1675.96 60.2739L1664.85 53.9207ZM1664.85 101.293L1675.24 95.3017L1683.43 90.5688L1692.3 95.6855L1702 101.293V122.569L1695.6 126.236L1683.36 133.293L1671.63 126.513L1664.85 122.569V101.293ZM1692.4 92.7647L1684.73 88.3516V66.7764L1691.66 62.8749L1703.3 56.1379L1715.28 62.8749L1721.9 66.6911V88.1384L1714.45 92.4023L1703.3 98.7981L1692.4 92.7647ZM1704.6 53.942V32.3668L1713.9 26.9943L1723.17 21.6431L1732.47 26.9943L1741.77 32.3668V53.8141L1730.25 60.4445L1723.17 64.5378L1715.67 60.2739L1704.6 53.942ZM1704.6 101.314L1714.86 95.4083L1723.17 90.5902L1731.24 95.2378L1741.77 101.314V122.569L1735.37 126.279L1723.2 133.293L1711.77 126.684L1704.6 122.569V101.314ZM1733.32 93.4683L1724.48 88.3516V66.7764L1732.47 62.1713L1743.13 56.0527L1753.8 62.2779L1761.62 66.7764V88.2237L1752.82 93.2977L1743.03 98.9474L1733.32 93.4683ZM1744.35 53.942V32.3668L1754.41 26.6319L1762.94 21.7284L1772.22 27.0796L1781.52 32.4521V53.8141L1770.26 60.21L1762.94 64.4738L1756.35 60.7429L1744.35 53.942ZM1744.35 101.314L1755.48 94.918L1762.94 90.6541L1771.13 95.387L1781.52 101.25V122.569L1774.67 126.513L1762.94 133.293L1751.75 126.897L1744.35 122.633V101.314ZM1772.26 92.9779L1764.22 88.3516V66.7764L1771.32 62.683L1782.82 56.0527L1794.06 62.4485L1801.39 66.7124V88.1597L1793.25 92.9566L1782.86 98.9474L1772.26 92.9779ZM1784.1 53.942V32.3668L1792.63 27.442L1802.69 21.6431L1811.22 26.6105L1821.18 32.3668V53.8141L1809.49 60.5511L1802.61 64.5378L1794.8 60.0181L1784.1 53.942ZM1784.1 101.314L1793.89 95.6855L1802.69 90.5902L1810.31 94.854L1821.2 101.25V122.569L1813.53 127.004L1802.63 133.4L1789.83 126.066L1784.1 122.569V101.314ZM1812.16 93.0845L1803.91 88.2237V66.7764L1811.24 62.5125L1822.48 56.1166L1833.51 62.5125L1841.05 66.7764V88.2237L1832.74 93.0206L1822.48 98.9474L1812.16 93.0845ZM1823.87 53.942V32.3668L1833.14 26.9943L1842.44 21.6431L1852.38 27.378L1861.01 32.3668V53.8141L1850.35 59.9328L1842.4 64.5378L1835.06 60.2739L1823.87 53.942ZM1823.87 101.314L1834.23 95.3231L1842.44 90.5902L1851.29 95.7068L1861.01 101.314V122.569L1854.62 126.236L1842.4 133.293L1830.65 126.513L1823.82 122.569L1823.87 101.314ZM1851.4 92.7861L1843.74 88.3729V66.7764L1850.65 62.8749L1862.31 56.1379L1874.28 62.8749L1880.89 66.6911V88.1384L1873.47 92.4023L1862.31 98.7981L1851.4 92.7861ZM1852.36 24.5639L1843.83 19.5751V-2.0641L1853.55 -7.67111L1862.4 -12.7878L1871.19 -7.71375L1880.97 -2.0641V19.3832L1872.44 24.308L1862.4 30.1069L1852.36 24.5639ZM1861.01 -14.8344L1851.18 -9.16347L1842.44 -4.11076L1834.53 -8.67313L1823.87 -14.8344V-36.4737L1830.5 -40.3112L1842.44 -47.1973L1854.72 -40.098L1861.01 -36.4737V-14.8344ZM1830.86 -7.77771L1841.14 -1.87222V19.3832L1831.84 24.7558L1822.57 30.1069L1813.27 24.7558L1803.91 19.3832V-2.0641L1814.29 -8.05486L1822.48 -12.7878L1830.86 -7.77771ZM1821.27 -14.8344L1809.94 -8.31069L1802.69 -4.04681L1794.03 -9.03555L1784.1 -14.7705V-36.4737L1790.05 -39.9061L1802.69 -47.1973L1813.99 -40.6523L1821.27 -36.3884V-14.8344ZM1790.99 -7.86299L1801.39 -1.87222V19.3832L1792.09 24.7558L1782.82 30.1069L1773.52 24.7558L1764.22 19.3832V-2.0641L1774.89 -8.14014L1782.92 -12.7878L1790.99 -7.86299ZM1781.52 -14.8344L1770.86 -8.67313L1762.97 -4.11076L1756.08 -8.0975L1744.37 -14.8344V-36.4737L1751.41 -40.5244L1762.97 -47.1973L1774.89 -40.3112L1781.54 -36.4737L1781.52 -14.8344ZM1750.6 -8.50257L1761.75 -2.10674V19.3832L1751.68 25.2035L1743.16 30.1069L1734.63 25.1395L1724.67 19.3832V-2.0641L1735.59 -8.35333L1743.24 -12.7878L1750.6 -8.50257ZM1741.88 -15.0263L1730.92 -8.63049L1723.28 -4.21737L1715.2 -8.88632L1704.71 -14.941V-36.4737L1711.6 -40.4391L1723.28 -47.1973L1735.54 -40.1193L1741.94 -36.4737L1741.88 -15.0263ZM1712.21 -7.71375L1722 -2.0641V19.3832L1713.47 24.308L1703.41 30.1069L1693.47 24.372L1684.94 19.3832V-2.0641L1694.66 -7.67111L1703.51 -12.7878L1712.21 -7.71375ZM1702.11 -15.0263L1692.3 -9.35535L1683.53 -4.30264L1675.64 -8.865L1664.98 -15.0263V-36.4737L1671.63 -40.3112L1683.55 -47.1973L1695.84 -40.098L1702.13 -36.4737L1702.11 -15.0263ZM1671.98 -7.96958L1682.23 -2.0641V19.3832L1672.96 24.7558L1663.66 30.1069L1654.38 24.7558L1644.98 19.3832V-2.0641L1655.36 -8.05486L1663.55 -12.7878L1671.98 -7.96958ZM1662.36 -15.0263L1651.06 -8.50257L1643.78 -4.23868L1635.26 -9.22743L1625.32 -14.9624V-36.4737L1631.27 -39.9061L1643.89 -47.1973L1655.21 -40.6523L1662.46 -36.3884L1662.36 -15.0263ZM1631.99 -8.05486L1642.38 -2.0641V19.3832L1633.1 24.7558L1623.8 30.1069L1614.53 24.7558L1605.23 19.3832V-2.0641L1615.89 -8.14014L1623.91 -12.7878L1631.99 -8.05486ZM1622.5 -15.0263L1611.84 -8.865L1603.93 -4.30264L1597.06 -8.28938L1585.38 -15.0263V-36.4737L1592.41 -40.5244L1603.95 -47.1973L1615.89 -40.3112L1622.52 -36.4737L1622.5 -15.0263ZM1591.48 -8.50257L1602.63 -2.10674V19.3832L1592.59 25.2035L1584.06 30.1069L1575.53 25.1395L1565.57 19.3832V-2.0641L1576.49 -8.35333L1584.14 -12.7878L1591.48 -8.50257ZM1582.76 -15.0263L1571.82 -8.63049L1564.18 -4.21737L1556.1 -8.9716L1545.61 -15.0263V-36.4737L1552.5 -40.4391L1564.18 -47.1973L1576.42 -40.1193L1582.82 -36.4737L1582.76 -15.0263ZM1553.09 -7.71375L1562.94 -2.0641V19.3832L1554.42 24.308L1544.35 30.1069L1534.37 24.372L1525.73 19.3832V-2.0641L1535.46 -7.67111L1544.31 -12.7878L1553.09 -7.71375ZM1543.01 -15.0263L1533.09 -9.35535L1524.35 -4.30264L1516.46 -8.865L1505.8 -15.0263V-36.4737L1512.43 -40.3112L1524.37 -47.1973L1536.72 -40.098L1543.01 -36.4737V-15.0263ZM1512.88 -7.96958L1523.13 -2.0641V19.3832L1513.9 24.7558L1504.6 30.1069L1495.33 24.7558L1485.99 19.3832V-2.0641L1496.37 -8.05486L1504.56 -12.7878L1512.88 -7.96958ZM1503.24 -15.0263L1491.94 -8.50257L1484.66 -4.23868L1476.03 -9.22743L1466.09 -14.9624V-36.4737L1472.04 -39.9061L1484.66 -47.1973L1495.99 -40.6523L1503.24 -36.3884V-15.0263ZM1493.32 26.6319L1503.24 32.3668V53.8141L1491.55 60.5511L1484.69 64.5378L1476.9 60.0181L1466.11 53.8141V32.3668L1474.64 27.442L1484.71 21.6431L1493.32 26.6319ZM1492.36 94.854L1503.24 101.25V122.569L1495.58 127.004L1484.66 133.4L1471.87 126.066L1466.11 122.569V101.25L1475.9 95.6215L1484.69 90.5262L1492.36 94.854ZM1503.24 170.026V191.474L1494.39 196.59L1484.66 202.197L1473.53 195.802L1466.09 191.538V170.026L1484.66 159.367L1503.24 170.026ZM1496.37 163.076L1485.99 157.085V135.617L1494.39 130.756L1504.56 124.893L1514.65 130.713L1523.18 135.617V157.064L1512.88 163.076L1504.56 167.873L1496.37 163.076ZM1505.86 170.048L1524.43 159.388L1543.01 170.048V191.495L1535.33 195.929L1524.43 202.219L1514.07 196.228L1505.86 191.495V170.048ZM1535.46 162.692L1525.73 157.085V135.617L1533.71 131.097L1544.37 124.978L1555.08 131.097L1562.94 135.617V157.064L1553.16 162.714L1544.37 167.766L1535.46 162.692ZM1545.61 170.048L1564.18 159.388L1582.76 170.048V191.495L1574.72 196.143L1564.18 202.219L1553.92 196.292L1545.61 191.495V170.048ZM1576.4 163.375L1565.48 157.085V135.617L1574.42 130.457L1584.06 124.893L1593.74 130.479L1602.63 135.617V157.064L1591.48 163.46L1584.06 167.724L1576.4 163.375ZM1585.36 170.048L1603.93 159.388L1622.5 170.048V191.495L1614.31 196.228L1603.93 202.219L1594.16 196.569L1585.36 191.495V170.048ZM1615.79 163.076L1605.12 157V135.617L1613.44 130.82L1623.7 124.893L1633.87 130.756L1642.27 135.617V157.064L1631.99 163.076L1623.8 167.788L1615.79 163.076ZM1625.1 169.962L1643.68 159.303L1662.25 169.962V191.41L1653.4 196.526L1643.68 202.133L1632.57 195.738L1625.1 191.474V169.962ZM1655.36 163.076L1644.98 157.085V135.617L1653.38 130.756L1663.55 124.893L1673.64 130.713L1682.17 135.617V157.064L1671.87 163.076L1663.55 167.873L1655.36 163.076ZM1664.85 170.048L1683.43 159.388L1702 170.048V191.495L1694.32 195.929L1683.43 202.219L1673.06 196.228L1664.85 191.495V170.048ZM1694.45 162.692L1684.73 157.085V135.617L1692.7 131.012L1703.36 124.893L1714.13 131.097L1721.96 135.617V157.064L1712.21 162.714L1703.41 167.766L1694.45 162.692ZM1704.6 170.048L1723.17 159.388L1741.77 170.048V191.495L1733.71 196.143L1723.17 202.219L1712.94 196.292L1704.6 191.495V170.048ZM1735.39 163.375L1724.48 157.085V135.617L1733.41 130.457L1743.05 124.893L1752.75 130.479L1761.64 135.617V157.064L1750.49 163.46L1743.05 167.724L1735.39 163.375ZM1744.35 170.048L1762.94 159.388L1781.52 170.048V191.495L1773.31 196.228L1762.94 202.219L1753.16 196.569L1744.35 191.495V170.048ZM1774.78 163.076L1764.12 157V135.617L1772.43 130.82L1782.71 124.893L1792.88 130.756L1801.28 135.617V157.064L1790.99 163.076L1782.82 167.788L1774.78 163.076ZM1784.1 169.962L1802.69 159.303L1821.27 169.962V191.41L1812.39 196.526L1802.69 202.133L1791.56 195.738L1784.1 191.474V169.962ZM1814.38 162.991L1803.91 157.064V135.617L1812.31 130.756L1822.48 124.893L1832.57 130.713L1841.1 135.617V157.064L1830.86 163.076L1822.57 167.873L1814.38 162.991ZM1823.87 169.962L1842.44 159.303L1861.01 169.962V191.41L1853.32 195.844L1842.44 202.133L1832.06 196.143L1823.87 191.41V169.962ZM1853.47 162.607L1843.74 157V135.617L1851.7 131.012L1862.36 124.893L1873.02 131.097L1880.85 135.617V157.064L1871.06 162.714L1862.27 167.766L1853.47 162.607ZM1890.23 95.0459L1900.76 101.122V122.569L1894.36 126.279L1882.21 133.293L1870.76 126.684L1863.62 122.569V101.25L1873.85 95.3444L1882.19 90.5262L1890.23 95.0459ZM1891.46 26.9303L1900.76 32.3028V53.8141L1889.2 60.4445L1882.15 64.5378L1874.62 60.2739L1863.57 53.8781V32.3668L1872.85 26.9943L1882.15 21.6431L1891.46 26.9303ZM1894.43 -40.1832L1900.83 -36.5376V-15.0263L1889.87 -8.63049L1882.25 -4.21737L1874.15 -8.88632L1863.62 -15.0263V-36.4737L1870.5 -40.4391L1882.19 -47.1973L1894.43 -40.1832ZM1863.62 -105.314L1871.7 -109.983L1882.19 -116.016L1893.13 -109.621L1900.76 -105.229V-83.8668L1892.74 -79.2191L1882.19 -73.1431L1871.91 -79.0699L1863.62 -83.8668V-105.314ZM1873.45 -75.1898L1880.89 -70.9259V-49.4359L1869.69 -43.04L1862.31 -38.7762L1854.64 -43.2106L1843.74 -49.6064V-70.8832L1851.42 -75.3177L1862.31 -81.6069L1873.45 -75.1898ZM1823.87 -105.314L1831.76 -109.813L1842.42 -115.974L1853.72 -109.45L1860.99 -105.186V-83.8668L1853.32 -79.4323L1842.42 -73.1431L1832.01 -79.1338L1823.85 -83.8668L1823.87 -105.314ZM1832.82 -75.7014L1841.14 -70.8832V-49.4359L1829.69 -42.8482L1822.57 -38.7122L1815.72 -42.6563L1803.91 -49.4359V-70.8832L1812.18 -75.7014L1822.57 -81.6922L1832.82 -75.7014ZM1784.1 -105.314L1790.99 -109.28L1802.69 -116.016L1812.44 -110.345L1821.2 -105.314V-83.8668L1812.44 -78.7501L1802.71 -73.1431L1791.56 -79.5389L1784.12 -83.8028L1784.1 -105.314ZM1793.25 -75.7014L1801.46 -70.9685V-49.4359L1789.71 -42.6563L1782.88 -38.7122L1776.48 -42.4218L1764.31 -49.4359V-70.8832L1772.35 -75.5309L1783.01 -81.6069L1793.25 -75.7014ZM1744.41 -105.399L1753.07 -110.388L1763.01 -116.102L1773.67 -109.94L1781.58 -105.399V-83.8668L1773.39 -79.1338L1763.01 -73.1431L1753.22 -78.7927L1744.41 -83.8668V-105.399ZM1752.94 -76.0425L1761.75 -70.9685V-49.4359L1748.96 -42.102L1743.09 -38.7122L1736.69 -42.3791L1724.45 -49.4359V-70.8832L1733.32 -75.9999L1743.03 -81.6069L1752.94 -76.0425ZM1704.6 -105.314L1712.7 -109.983L1723.17 -116.016L1734.14 -109.621L1741.77 -105.229V-83.8668L1733.73 -79.2191L1723.07 -73.1431L1712.81 -79.0699L1704.49 -83.8668L1704.6 -105.314ZM1714.35 -75.1898L1721.81 -70.9259V-49.4359L1710.61 -43.04L1703.22 -38.7762L1695.56 -43.2106L1684.64 -49.6064V-70.8832L1692.32 -75.3177L1703.22 -81.6069L1714.35 -75.1898ZM1664.85 -105.314L1672.76 -109.813L1683.43 -115.974L1694.75 -109.45L1702 -105.186V-83.8668L1694.34 -79.4323L1683.43 -73.1431L1673.04 -79.1338L1664.85 -83.8668V-105.314ZM1673.83 -75.7014L1682.15 -70.8832V-49.4359L1670.72 -42.8482L1663.57 -38.7122L1656.77 -42.6563L1645.02 -49.4359V-70.8832L1653.19 -75.7014L1663.55 -81.6922L1673.83 -75.7014ZM1625.1 -105.314L1631.99 -109.28L1643.68 -116.016L1653.51 -110.345L1662.25 -105.314V-83.8668L1653.4 -78.7501L1643.68 -73.1431L1632.53 -79.5389L1625.1 -83.8028V-105.314ZM1634.19 -75.7014L1642.38 -70.9685V-49.4359L1630.65 -42.6563L1623.8 -38.7122L1617.41 -42.4218L1605.25 -49.4359V-70.8832L1613.29 -75.5309L1623.83 -81.6069L1634.19 -75.7014ZM1585.36 -105.314L1594.01 -110.303L1603.93 -116.016L1614.59 -109.855L1622.48 -105.314V-83.8668L1614.29 -79.1338L1603.93 -73.1431L1594.14 -78.7927L1585.36 -83.8668V-105.314ZM1593.89 -75.9573L1602.67 -70.8832V-49.4359L1589.88 -42.102L1584.06 -38.7122L1577.66 -42.3791L1565.42 -49.4359V-70.8832L1574.27 -75.9999L1583.99 -81.6069L1593.89 -75.9573ZM1545.61 -105.314L1553.71 -109.983L1564.18 -116.016L1575.14 -109.621L1582.76 -105.229V-83.8668L1574.74 -79.2191L1564.08 -73.1431L1553.82 -79.0699L1545.5 -83.8668L1545.61 -105.314ZM1555.44 -75.1898L1562.88 -70.9259V-49.4359L1551.71 -43.04L1544.31 -38.7762L1536.65 -43.2106L1525.73 -49.6064V-70.8832L1533.41 -75.3177L1544.31 -81.6069L1555.44 -75.1898ZM1505.86 -105.314L1513.75 -109.813L1524.41 -115.974L1535.71 -109.45L1542.99 -105.186V-83.8668L1535.33 -79.4323L1524.43 -73.1431L1514.05 -79.1338L1505.86 -83.8668V-105.314ZM1514.82 -75.7014L1523.13 -70.8832V-49.4359L1511.77 -42.8482L1504.62 -38.7122L1497.8 -42.6563L1486.05 -49.4359V-70.8832L1494.17 -75.7014L1504.56 -81.6922L1514.82 -75.7014ZM1466.11 -105.314L1473 -109.28L1484.69 -116.016L1494.52 -110.345L1503.24 -105.314V-83.8668L1494.39 -78.7501L1484.69 -73.1431L1473.53 -79.5389L1466.11 -83.8028V-105.314ZM1458.46 -42.4218L1446.3 -49.4359V-70.8832L1454.19 -75.5309L1464.85 -81.6069L1475.2 -75.7014L1483.38 -70.9685V-49.4359L1471.63 -42.6563L1464.85 -38.7122L1458.46 -42.4218ZM1455.51 24.7558L1446.24 19.3832V-2.0641L1456.9 -8.14014L1464.85 -12.7878L1473.04 -8.05486L1483.43 -2.0641V19.3832L1474.15 24.7558L1464.85 30.1069L1455.51 24.7558ZM1454.19 92.85L1446.17 88.2237V66.7764L1453.25 62.683L1464.85 56.0527L1476.09 62.4485L1483.43 66.7124V88.1597L1475.24 92.8927L1464.85 98.9474L1454.19 92.85ZM1456.73 163.204L1446.07 157.128V135.617L1454.36 130.82L1464.85 124.893L1475.03 130.756L1483.43 135.617V157.064L1473 163.076L1464.85 167.766L1456.73 163.204ZM1458.46 232.897L1446.3 225.883V204.436L1458.46 197.422L1464.85 193.712L1471.68 197.656L1483.43 204.436V225.883L1464.85 236.543L1458.46 232.897ZM1503.24 260.314L1484.66 270.974L1466.09 260.314V238.867L1484.66 228.207L1503.24 238.867V260.314ZM1497.71 232.599L1485.96 225.819V204.436L1497.71 197.656L1504.54 193.712L1511.77 197.848L1523.2 204.436V225.883L1504.62 236.543L1497.71 232.599ZM1542.99 260.314L1524.41 270.974L1505.84 260.314V238.867L1524.41 228.207L1542.99 238.867V260.314ZM1536.59 232.194L1525.67 225.798V204.436L1536.59 198.04L1544.24 193.606L1551.64 197.87L1562.82 204.265V225.713L1544.24 236.372L1536.59 232.194ZM1582.69 260.314L1564.12 270.974L1545.54 260.314V238.867L1564.12 228.207L1582.69 238.867V260.314ZM1577.66 232.94L1565.42 225.883V204.436L1577.66 197.379L1584.06 193.712L1589.92 197.187L1602.71 204.521V225.969L1584.14 236.628L1577.66 232.94ZM1622.44 260.314L1603.87 270.974L1585.29 260.314V238.867L1603.87 228.207L1622.44 238.867V260.314ZM1617.32 232.897L1605.17 225.883V204.436L1617.32 197.422L1623.72 193.712L1630.56 197.656L1642.29 204.436V225.883L1623.72 236.543L1617.32 232.897ZM1662.1 260.314L1643.53 270.974L1624.96 260.314V238.867L1643.53 228.207L1662.1 238.867V260.314ZM1656.58 232.599L1644.83 225.819V204.436L1656.58 197.656L1663.4 193.712L1670.55 197.848L1681.98 204.436V225.883L1663.4 236.543L1656.58 232.599ZM1701.85 260.314L1683.28 270.974L1664.7 260.314V238.867L1683.28 228.207L1701.85 238.867V260.314ZM1695.45 232.194L1684.54 225.798V204.436L1695.45 198.04L1703.11 193.606L1710.51 197.87L1721.7 204.265V225.713L1703.11 236.372L1695.45 232.194ZM1741.58 260.314L1722.98 270.974L1704.41 260.314V238.867L1722.98 228.207L1741.58 238.867V260.314ZM1736.52 232.94L1724.28 225.883V204.436L1736.52 197.379L1742.92 193.712L1748.78 197.102L1761.58 204.436V225.883L1742.98 236.543L1736.52 232.94ZM1781.3 260.314L1762.73 270.974L1744.14 260.314V238.867L1762.73 228.207L1781.3 238.867V260.314ZM1776.19 232.897L1764.01 225.883V204.436L1776.19 197.422L1782.58 193.712L1789.41 197.656L1801.16 204.436V225.883L1782.58 236.543L1776.19 232.897ZM1820.97 260.314L1802.39 270.974L1783.8 260.314V238.867L1802.39 228.207L1820.97 238.867V260.314ZM1815.42 232.599L1803.69 225.819V204.436L1815.42 197.656L1822.27 193.712L1829.39 197.848L1840.84 204.436V225.883L1822.27 236.543L1815.42 232.599ZM1860.72 260.314L1842.14 270.974L1823.57 260.314V238.867L1842.14 228.207L1860.72 238.867V260.314ZM1854.32 232.194L1843.42 225.798V204.436L1854.32 198.04L1861.99 193.606L1869.37 197.87L1880.57 204.265V225.713L1861.99 236.372L1854.32 232.194ZM1863.62 260.314V238.867L1882.19 228.207L1900.76 238.867V260.314L1882.19 270.974L1863.62 260.314Z" fill="url(#paint1_radial_385_159)"/>
</g>
<defs>
<radialGradient id="paint0_radial_385_159" cx="0" cy="0" r="1" gradientUnits="userSpaceOnUse" gradientTransform="translate(-60.4787 77.468) rotate(90) scale(206.468 238.521)">
<stop stop-color="#FF8720"/>
<stop offset="1" stop-color="white" stop-opacity="0"/>
</radialGradient>
<radialGradient id="paint1_radial_385_159" cx="0" cy="0" r="1" gradientUnits="userSpaceOnUse" gradientTransform="translate(1673.52 77.468) rotate(90) scale(206.468 238.521)">
<stop stop-color="#FF8720"/>
<stop offset="1" stop-color="white" stop-opacity="0"/>
</radialGradient>
</defs>
</svg>
