<svg width="479" height="587" viewBox="0 0 479 587" fill="none" xmlns="http://www.w3.org/2000/svg">
<rect width="479" height="587" fill="url(#paint0_linear_234_665)"/>
<g clip-path="url(#clip0_234_665)">
<path d="M460.365 482.987L468.063 478.553L475.505 482.817L478 484.245V481.239L469.364 476.272V454.867L478 449.878V446.872L467.999 452.607L461.602 448.94L449.383 441.883V420.436L461.602 413.379L467.999 409.712L473.842 413.102L477.936 415.447V412.462L469.3 407.474V386.026L477.936 381.038V378.032L475.42 379.503L467.999 383.766L460.322 379.353L449.426 373.064V351.617L458.36 346.457L467.999 340.893L477.68 346.479L477.936 346.628V343.622L476.678 342.897L469.3 338.633V317.25L477.936 312.261V309.276H477.787L467.999 314.947L458.275 309.34L449.426 304.224V282.776L457.401 278.171L468.063 272.053L478 277.788V274.782L469.364 269.814V248.367L478 243.378V240.372L476.571 241.203L468.042 246.107L459.469 241.139L449.532 235.383V213.936L460.429 207.647L468.106 203.212L475.526 207.476L478.043 208.947V205.962L469.406 200.974V179.526L476.422 175.476L478.043 174.538V171.532L473.948 173.898L467.999 177.288L461.602 173.621L449.383 166.564V145.117L458.232 140L467.999 134.393L477.765 140.043H477.936V137.122L469.3 132.133V110.686L477.936 105.718V102.712L473.948 105.015L467.999 108.447L461.708 104.823L449.49 97.6597V87H446.888V97.6597L435.33 104.333L428.315 108.383L421.043 104.12L409.741 97.6597V87H407.14V97.6597L395.497 104.461L388.609 108.447L381.956 104.61L369.908 97.6597V87H367.306V97.6597L355.365 104.546L348.733 108.383L342.336 104.716L330.224 97.6597V87H327.643V97.6597L314.998 104.951L309.049 108.383L302.651 104.759L290.475 97.6597V87H287.895V97.6597L276.337 104.333L269.301 108.383L262.05 104.12L250.727 97.6597V87H248.126V97.6597L236.44 104.397L229.552 108.383L222.92 104.546L210.979 97.6597V87H208.377V97.6597L196.457 104.61L189.804 108.447L183.407 104.78L171.231 97.6597V87H168.629V97.6597L156.005 105.015L150.056 108.447L143.659 104.823L131.482 97.6597V87H128.945V97.6597L117.345 104.397L110.308 108.447L103.057 104.183L91.7343 97.6597V87H89.1327V97.6597L77.4471 104.461L70.5594 108.447L63.9276 104.61L51.986 97.6597V87H49.3845V97.6597L37.443 104.546L30.8538 108.447L24.4566 104.78L12.2378 97.6597V87H9.63628V97.6597L1 102.712V105.718L10.9371 99.9835L21.6205 106.187L29.5104 110.729V132.133L21.3219 136.866L10.9371 142.857L1 137.122V140.128L9.63628 145.117V166.564L1 171.532V174.538L10.9371 168.803L22.8786 175.689L29.5104 179.526V200.974L18.8483 207.135L10.9584 211.697L1 205.962V208.968L9.63628 213.936V235.383L1 240.372V243.378L2.42872 242.632L10.9584 237.728L20.1917 242.994L29.4677 248.367V269.814L18.2086 276.21L10.8944 280.474L1 274.782V277.788L1.83164 278.278L9.63628 282.776V304.224L1.10662 309.212V312.197L3.49493 310.854L10.9371 306.59L19.1469 311.323L29.5104 317.25V338.569L22.6867 342.513L10.9371 349.293L1 343.622V346.628L9.63628 351.617V373.064L1.10662 378.032V381.038L11.0437 375.303L29.617 385.962V407.41L21.4072 412.143L11.0437 418.133L1 412.462V415.447L9.63628 420.436V441.883L1 446.872V449.878L10.9371 444.143L29.5104 454.803V476.25L10.9371 486.91L1 481.282V484.288L9.63628 489.276V499.936H12.2378V489.276L22.772 483.2L30.8538 478.553L39.0636 483.286L49.4272 489.276V499.936H52.0287V489.276L62.3922 483.286L70.602 478.553L78.9185 483.35L89.1754 489.276V499.936H91.7769V489.276L101.501 483.669L110.35 478.553L119.114 483.541L128.945 489.276V499.936H131.546V489.276L142.443 482.987L150.12 478.553L157.583 482.817L168.693 489.212V499.872H171.295V489.212L181.829 483.136L189.868 478.489L198.078 483.222L208.441 489.212V499.872H211.043V489.212L221.428 483.222L229.616 478.489L237.954 483.286L248.19 489.212V499.872H250.791V489.212L260.515 483.605L269.364 478.489L278.214 483.541L288.002 489.191V499.851H290.582V489.191L301.479 482.902L309.155 478.467L316.619 482.731L327.75 489.127V499.787H330.33V489.127L340.864 483.051L348.925 478.403L357.113 483.136L367.498 489.127V499.787H369.908V489.127L380.271 483.136L388.481 478.403L396.798 483.2L407.055 489.127V499.787H409.656V489.127L419.359 483.52L428.229 478.403L437.015 483.477L446.803 489.127V499.787H449.404V489.127L460.365 482.987ZM466.762 386.026V407.474L458.723 412.121L448.189 418.197L437.932 412.271L429.615 407.474V386.026L448.189 375.367L466.762 386.026ZM81.6053 278.427L89.1327 282.691V304.138L80.8163 308.935L70.5594 314.862L60.1745 308.871L51.986 304.138V282.776L59.3216 278.512L70.5594 272.117L81.6053 278.427ZM71.8602 269.899V248.367L81.1575 242.994L90.4335 237.643L100.392 243.378L108.922 248.367V269.814L98.2595 275.933L90.2842 280.538L82.97 276.274L71.8602 269.899ZM71.8602 317.271L82.245 311.28L90.4335 306.548L99.3043 311.664L109.007 317.25V338.569L102.61 342.236L90.3695 349.293L78.6199 342.513L71.8602 338.569V317.271ZM99.3896 308.743L91.7343 304.33V282.776L98.6433 278.875L110.308 272.138L122.27 278.875L128.945 282.776V304.224L121.524 308.488L110.372 314.883L99.3896 308.743ZM111.608 269.921V248.367L120.906 242.994L130.182 237.643L139.479 242.994L148.755 248.367V269.814L137.24 276.444L130.182 280.538L122.654 276.274L111.608 269.921ZM111.608 317.292L121.865 311.387L130.182 306.569L138.221 311.216L148.755 317.25V338.569L142.358 342.279L130.203 349.293L118.752 342.833L111.608 338.569V317.292ZM140.332 309.447L131.482 304.33V282.776L139.458 278.171L150.12 272.053L160.782 278.278L168.587 282.776V304.224L159.801 309.298L150.013 314.947L140.332 309.447ZM151.357 269.921V248.367L161.422 242.632L169.951 237.728L179.249 243.08L188.525 248.452V269.814L177.265 276.21L169.951 280.474L163.362 276.743L151.357 269.921ZM151.357 317.292L162.488 310.897L169.93 306.633L178.14 311.366L188.503 317.25V338.569L181.68 342.513L169.93 349.293L158.799 342.833L151.399 338.569L151.357 317.292ZM179.249 308.957L171.231 304.33V282.776L178.31 278.683L189.804 272.053L201.042 278.449L208.377 282.712V304.16L200.21 308.893L189.804 314.883L179.249 308.957ZM191.105 269.921V248.367L199.634 243.442L209.678 237.643L218.208 242.611L228.145 248.367V269.814L216.481 276.551L209.572 280.538L201.788 276.018L191.105 269.921ZM191.105 317.292L200.893 311.664L209.678 306.569L217.376 311.003L228.251 317.399V338.569L220.639 343.068L209.721 349.464L196.926 342.13L191.105 338.569V317.292ZM219.167 309.063L210.979 304.33V282.776L218.314 278.512L229.552 272.117L240.598 278.512L248.126 282.776V304.224L239.831 309.021L229.552 314.947L219.167 309.063ZM230.853 269.921V248.367L240.15 242.994L249.426 237.643L259.385 243.378L267.914 248.367V269.814L257.252 275.933L249.277 280.538L241.963 276.274L230.853 269.921ZM230.853 317.292L241.238 311.302L249.426 306.569L258.297 311.686L268 317.292V338.569L261.602 342.236L249.362 349.293L237.634 342.513L230.853 338.569V317.292ZM258.404 308.765L250.727 304.352V282.776L257.658 278.875L269.301 272.138L281.285 278.875L287.895 282.691V304.138L280.453 308.402L269.301 314.798L258.404 308.765ZM270.601 269.942V248.367L279.899 242.994L289.175 237.643L298.472 242.994L307.769 248.367V269.814L296.254 276.444L289.175 280.538L281.668 276.274L270.601 269.942ZM270.601 317.314L280.858 311.408L289.175 306.59L297.235 311.238L307.769 317.314V338.569L301.372 342.279L289.196 349.293L277.766 342.684L270.601 338.569V317.314ZM299.325 309.468L290.475 304.352V282.776L298.472 278.171L309.134 272.053L319.796 278.278L327.622 282.776V304.224L318.815 309.298L309.027 314.947L299.325 309.468ZM310.349 269.942V248.367L320.414 242.632L328.944 237.728L338.22 243.08L347.517 248.452V269.814L336.258 276.21L328.944 280.474L322.355 276.743L310.349 269.942ZM310.349 317.314L321.481 310.918L328.944 306.654L337.133 311.387L347.517 317.25V338.569L340.672 342.513L328.944 349.293L317.749 342.897L310.349 338.633V317.314ZM338.263 308.978L330.224 304.352V282.776L337.325 278.683L348.818 272.053L360.056 278.449L367.392 282.712V304.16L359.246 308.957L348.861 314.947L338.263 308.978ZM350.098 269.942V248.367L358.627 243.442L368.692 237.643L377.222 242.611L387.18 248.367V269.814L375.495 276.551L368.607 280.538L360.802 276.018L350.098 269.942ZM350.098 317.314L359.885 311.686L368.692 306.59L376.305 310.854L387.202 317.25V338.569L379.525 343.004L368.628 349.4L355.834 342.066L350.098 338.569V317.314ZM378.16 309.085L369.908 304.224V282.776L377.243 278.512L388.481 272.117L399.506 278.512L407.055 282.776V304.224L398.738 309.021L388.481 314.947L378.16 309.085ZM389.867 269.942V248.367L399.143 242.994L408.441 237.643L418.378 243.378L427.014 248.367V269.814L416.352 275.933L408.398 280.538L401.062 276.274L389.867 269.942ZM389.867 317.314L400.231 311.323L408.441 306.59L417.29 311.707L427.014 317.314V338.569L420.617 342.236L408.398 349.293L396.648 342.513L389.825 338.569L389.867 317.314ZM417.397 308.786L409.741 304.373V282.776L416.65 278.875L428.315 272.138L440.278 278.875L446.888 282.691V304.138L439.467 308.402L428.315 314.798L417.397 308.786ZM418.356 240.564L409.827 235.575V213.936L419.55 208.329L428.4 203.212L437.186 208.286L446.973 213.936V235.383L438.444 240.308L428.4 246.107L418.356 240.564ZM427.014 201.166L417.184 206.837L408.441 211.889L400.529 207.327L389.867 201.166V179.526L396.499 175.689L408.441 168.803L420.723 175.902L427.014 179.526V201.166ZM396.862 208.222L407.14 214.128V235.383L397.842 240.756L388.566 246.107L379.269 240.756L369.908 235.383V213.936L380.293 207.945L388.481 203.212L396.862 208.222ZM387.266 201.166L375.943 207.689L368.692 211.953L360.035 206.964L350.098 201.23V179.526L356.047 176.094L368.692 168.803L379.994 175.348L387.266 179.612V201.166ZM356.985 208.137L367.392 214.128V235.383L358.094 240.756L348.818 246.107L339.521 240.756L330.224 235.383V213.936L340.886 207.86L348.925 203.212L356.985 208.137ZM347.517 201.166L336.855 207.327L328.965 211.889L322.078 207.902L310.371 201.166V179.526L317.408 175.476L328.965 168.803L340.886 175.689L347.539 179.526L347.517 201.166ZM316.597 207.497L327.75 213.893V235.383L317.685 241.203L309.155 246.107L300.626 241.139L290.667 235.383V213.936L301.585 207.647L309.241 203.212L316.597 207.497ZM307.876 200.974L296.915 207.37L289.281 211.783L281.199 207.114L270.708 201.059V179.526L277.596 175.561L289.281 168.803L301.543 175.881L307.94 179.526L307.876 200.974ZM278.214 208.286L288.002 213.936V235.383L279.472 240.308L269.407 246.107L259.47 240.372L250.94 235.383V213.936L260.664 208.329L269.514 203.212L278.214 208.286ZM268.106 200.974L258.297 206.645L249.533 211.697L241.643 207.135L230.981 200.974V179.526L237.634 175.689L249.554 168.803L261.837 175.902L268.128 179.526L268.106 200.974ZM237.975 208.03L248.232 213.936V235.383L238.956 240.756L229.659 246.107L220.383 240.756L210.979 235.383V213.936L221.364 207.945L229.552 203.212L237.975 208.03ZM228.358 200.974L217.056 207.497L209.785 211.761L201.255 206.773L191.318 201.038V179.526L197.268 176.094L209.891 168.803L221.215 175.348L228.465 179.612L228.358 200.974ZM197.993 207.945L208.377 213.936V235.383L199.101 240.756L189.804 246.107L180.528 240.756L171.231 235.383V213.936L181.893 207.86L189.911 203.212L197.993 207.945ZM188.503 200.974L177.841 207.135L169.93 211.697L163.064 207.711L151.378 200.974V179.526L158.415 175.476L169.951 168.803L181.893 175.689L188.525 179.526L188.503 200.974ZM157.477 207.497L168.629 213.893V235.383L158.585 241.203L150.056 246.107L141.526 241.139L131.568 235.383V213.936L142.486 207.647L150.141 203.212L157.477 207.497ZM148.755 200.974L137.816 207.37L130.182 211.783L122.1 207.028L111.608 200.974V179.526L118.496 175.561L130.182 168.803L142.422 175.881L148.819 179.526L148.755 200.974ZM119.093 208.286L128.945 213.936V235.383L120.415 240.308L110.35 246.107L100.371 240.372L91.7343 235.383V213.936L101.458 208.329L110.308 203.212L119.093 208.286ZM109.007 200.974L99.0911 206.645L90.3482 211.697L82.4583 207.135L71.7962 200.974V179.526L78.428 175.689L90.3695 168.803L102.716 175.902L109.007 179.526V200.974ZM78.8758 208.03L89.1327 213.936V235.383L79.8994 240.756L70.602 246.107L61.326 240.756L51.986 235.383V213.936L62.3709 207.945L70.5594 203.212L78.8758 208.03ZM69.2373 200.974L57.9355 207.497L50.664 211.761L42.0277 206.773L32.0906 201.038V179.526L38.0401 176.094L50.664 168.803L61.9871 175.348L69.2373 179.612V200.974ZM59.3216 242.632L69.2373 248.367V269.814L57.5517 276.551L50.6853 280.538L42.902 276.018L32.1119 269.814V248.367L40.6416 243.442L50.7066 237.643L59.3216 242.632ZM58.362 310.854L69.2373 317.25V338.569L61.5819 343.004L50.664 349.4L37.8695 342.066L32.1119 338.569V317.25L41.8997 311.622L50.6853 306.526L58.362 310.854ZM69.2373 386.026V407.474L60.3878 412.59L50.664 418.197L39.5327 411.802L32.0906 407.538V386.026L50.664 375.367L69.2373 386.026ZM62.3709 379.076L51.986 373.085V351.617L60.3878 346.756L70.5594 340.893L80.6457 346.713L89.1754 351.617V373.064L78.8758 379.076L70.5594 383.873L62.3709 379.076ZM71.8602 386.048L90.4335 375.388L109.007 386.048V407.495L101.33 411.929L90.4335 418.219L80.07 412.228L71.8602 407.495V386.048ZM101.458 378.692L91.7343 373.085V351.617L99.7095 347.097L110.372 340.978L121.076 347.097L128.945 351.617V373.064L119.157 378.714L110.372 383.766L101.458 378.692ZM111.608 386.048L130.182 375.388L148.755 386.048V407.495L140.716 412.143L130.182 418.219L119.925 412.292L111.608 407.495V386.048ZM142.4 379.375L131.482 373.085V351.617L140.417 346.457L150.056 340.893L159.737 346.479L168.629 351.617V373.064L157.477 379.46L150.056 383.724L142.4 379.375ZM151.357 386.048L169.93 375.388L188.503 386.048V407.495L180.315 412.228L169.93 418.219L160.163 412.569L151.357 407.495V386.048ZM181.786 379.076L171.124 373V351.617L179.441 346.82L189.697 340.893L199.869 346.756L208.271 351.617V373.064L197.993 379.076L189.804 383.788L181.786 379.076ZM191.105 385.962L209.678 375.303L228.251 385.962V407.41L219.402 412.526L209.678 418.133L198.568 411.738L191.105 407.474V385.962ZM221.364 379.076L210.979 373.085V351.617L219.381 346.756L229.552 340.893L239.639 346.713L248.168 351.617V373.064L237.869 379.076L229.552 383.873L221.364 379.076ZM230.853 386.048L249.426 375.388L268 386.048V407.495L260.323 411.929L249.426 418.219L239.063 412.228L230.853 407.495V386.048ZM260.451 378.692L250.727 373.085V351.617L258.702 347.012L269.364 340.893L280.133 347.097L287.959 351.617V373.064L278.214 378.714L269.407 383.766L260.451 378.692ZM270.601 386.048L289.175 375.388L307.769 386.048V407.495L299.709 412.143L289.175 418.219L278.939 412.292L270.601 407.495V386.048ZM301.393 379.375L290.475 373.085V351.617L299.41 346.457L309.049 340.893L318.751 346.479L327.643 351.617V373.064L316.491 379.46L309.049 383.724L301.393 379.375ZM310.349 386.048L328.944 375.388L347.517 386.048V407.495L339.308 412.228L328.944 418.219L319.156 412.569L310.349 407.495V386.048ZM340.779 379.076L330.117 373V351.617L338.433 346.82L348.712 340.893L358.883 346.756L367.285 351.617V373.064L356.985 379.076L348.818 383.788L340.779 379.076ZM350.098 385.962L368.692 375.303L387.266 385.962V407.41L378.395 412.526L368.692 418.133L357.561 411.738L350.098 407.474V385.962ZM380.378 378.991L369.908 373.064V351.617L378.31 346.756L388.481 340.893L398.568 346.713L407.097 351.617V373.064L396.862 379.076L388.566 383.873L380.378 378.991ZM389.867 385.962L408.441 375.303L427.014 385.962V407.41L419.316 411.844L408.441 418.133L398.056 412.143L389.867 407.41V385.962ZM419.465 378.607L409.741 373V351.617L417.695 347.012L428.357 340.893L439.019 347.097L446.845 351.617V373.064L437.058 378.714L428.272 383.766L419.465 378.607ZM456.228 311.046L466.762 317.122V338.569L460.365 342.279L448.21 349.293L436.759 342.684L429.615 338.569V317.25L439.851 311.344L448.189 306.526L456.228 311.046ZM457.465 242.93L466.762 248.303V269.814L455.204 276.444L448.146 280.538L440.619 276.274L429.573 269.878V248.367L438.849 242.994L448.146 237.643L457.465 242.93ZM460.429 175.817L466.826 179.462V200.974L455.866 207.37L448.253 211.783L440.15 207.114L429.615 200.974V179.526L436.503 175.561L448.189 168.803L460.429 175.817ZM429.615 110.686L437.697 106.017L448.189 99.9835L459.128 106.379L466.762 110.771V132.133L458.744 136.781L448.189 142.857L437.911 136.93L429.615 132.133V110.686ZM439.446 140.81L446.888 145.074V166.564L435.693 172.96L428.315 177.224L420.638 172.789L409.741 166.394V145.117L417.418 140.682L428.315 134.393L439.446 140.81ZM389.867 110.686L397.757 106.187L408.419 100.026L419.721 106.55L426.993 110.814V132.133L419.316 136.568L408.419 142.857L398.013 136.866L389.846 132.133L389.867 110.686ZM398.823 140.299L407.14 145.117V166.564L395.689 173.152L388.566 177.288L381.721 173.344L369.908 166.564V145.117L378.182 140.299L388.566 134.308L398.823 140.299ZM350.098 110.686L356.985 106.72L368.692 99.9835L378.438 105.655L387.202 110.686V132.133L378.438 137.25L368.714 142.857L357.561 136.461L350.119 132.197L350.098 110.686ZM359.246 140.299L367.456 145.031V166.564L355.706 173.344L348.882 177.288L342.485 173.578L330.309 166.564V145.117L338.348 140.469L349.01 134.393L359.246 140.299ZM310.413 110.601L319.071 105.612L329.008 99.8983L339.67 106.06L347.581 110.601V132.133L339.393 136.866L329.008 142.857L319.22 137.207L310.413 132.133V110.601ZM318.943 139.957L327.75 145.031V166.564L314.956 173.898L309.091 177.288L302.694 173.621L290.454 166.564V145.117L299.325 140L309.027 134.393L318.943 139.957ZM270.601 110.686L278.704 106.017L289.175 99.9835L300.135 106.379L307.769 110.771V132.133L299.73 136.781L289.068 142.857L278.811 136.93L270.495 132.133L270.601 110.686ZM280.346 140.81L287.81 145.074V166.564L276.615 172.96L269.215 177.224L261.56 172.789L250.642 166.394V145.117L258.319 140.682L269.215 134.393L280.346 140.81ZM230.853 110.686L238.764 106.187L249.426 100.026L260.75 106.55L268 110.814V132.133L260.344 136.568L249.426 142.857L239.042 136.866L230.853 132.133V110.686ZM239.831 140.299L248.147 145.117V166.564L236.717 173.152L229.574 177.288L222.771 173.344L211.022 166.564V145.117L219.189 140.299L229.552 134.308L239.831 140.299ZM191.105 110.686L197.993 106.72L209.678 99.9835L219.509 105.655L228.251 110.686V132.133L219.402 137.25L209.678 142.857L198.526 136.461L191.105 132.197V110.686ZM200.189 140.299L208.377 145.031V166.564L196.649 173.344L189.804 177.288L183.407 173.578L171.252 166.564V145.117L179.291 140.469L189.825 134.393L200.189 140.299ZM151.357 110.686L160.014 105.697L169.93 99.9835L180.592 106.145L188.482 110.686V132.133L180.293 136.866L169.93 142.857L160.142 137.207L151.357 132.133V110.686ZM159.886 140.043L168.672 145.117V166.564L155.877 173.898L150.056 177.288L143.659 173.621L131.419 166.564V145.117L140.268 140L149.992 134.393L159.886 140.043ZM111.608 110.686L119.712 106.017L130.182 99.9835L141.142 106.379L148.755 110.771V132.133L140.737 136.781L130.075 142.857L119.818 136.93L111.502 132.133L111.608 110.686ZM121.439 140.81L128.881 145.074V166.564L117.707 172.96L110.308 177.224L102.652 172.789L91.7343 166.394V145.117L99.411 140.682L110.308 134.393L121.439 140.81ZM71.8602 110.686L79.7501 106.187L90.4122 100.026L101.714 106.55L108.986 110.814V132.133L101.33 136.568L90.4335 142.857L80.0486 136.866L71.8602 132.133V110.686ZM80.8163 140.299L89.1327 145.117V166.564L77.767 173.152L70.6234 177.288L63.7996 173.344L52.05 166.564V145.117L60.1745 140.299L70.5594 134.308L80.8163 140.299ZM32.1119 110.686L38.9996 106.72L50.6853 99.9835L60.5157 105.655L69.2373 110.686V132.133L60.3878 137.25L50.6853 142.857L39.5327 136.461L32.1119 132.197V110.686ZM24.4566 173.578L12.3018 166.564V145.117L20.1917 140.469L30.8538 134.393L41.196 140.299L49.3845 145.031V166.564L37.6349 173.344L30.8538 177.288L24.4566 173.578ZM21.5138 240.756L12.2378 235.383V213.936L22.8999 207.86L30.8538 203.212L39.0423 207.945L49.4272 213.936V235.383L40.1511 240.756L30.8538 246.107L21.5138 240.756ZM20.1917 308.85L12.1739 304.224V282.776L19.2535 278.683L30.8538 272.053L42.0916 278.449L49.4272 282.712V304.16L41.2387 308.893L30.8538 314.947L20.1917 308.85ZM22.7293 379.204L12.0672 373.128V351.617L20.3623 346.82L30.8538 340.893L41.0254 346.756L49.4272 351.617V373.064L38.9996 379.076L30.8538 383.766L22.7293 379.204ZM24.4566 448.897L12.3018 441.883V420.436L24.4566 413.422L30.8538 409.712L37.6775 413.656L49.4272 420.436V441.883L30.8538 452.543L24.4566 448.897ZM69.2373 476.314L50.664 486.974L32.0906 476.314V454.867L50.664 444.207L69.2373 454.867V476.314ZM63.7143 448.599L51.9647 441.819V420.436L63.7143 413.656L70.5381 409.712L77.767 413.848L89.1967 420.436V441.883L70.6234 452.543L63.7143 448.599ZM108.986 476.314L90.4122 486.974L71.8388 476.314V454.867L90.4122 444.207L108.986 454.867V476.314ZM102.588 448.194L91.6703 441.798V420.436L102.588 414.04L110.244 409.606L117.643 413.87L128.817 420.265V441.713L110.244 452.372L102.588 448.194ZM148.691 476.314L130.118 486.974L111.544 476.314V454.867L130.118 444.207L148.691 454.867V476.314ZM143.659 448.94L131.419 441.883V420.436L143.659 413.379L150.056 409.712L155.92 413.187L168.714 420.521V441.969L150.141 452.628L143.659 448.94ZM188.439 476.314L169.866 486.974L151.293 476.314V454.867L169.866 444.207L188.439 454.867V476.314ZM183.322 448.897L171.167 441.883V420.436L183.322 413.422L189.719 409.712L196.564 413.656L208.292 420.436V441.883L189.719 452.543L183.322 448.897ZM228.102 476.314L209.529 486.974L190.956 476.314V454.867L209.529 444.207L228.102 454.867V476.314ZM222.579 448.599L210.83 441.819V420.436L222.579 413.656L229.403 409.712L236.547 413.848L247.976 420.436V441.883L229.403 452.543L222.579 448.599ZM267.85 476.314L249.277 486.974L230.704 476.314V454.867L249.277 444.207L267.85 454.867V476.314ZM261.453 448.194L250.535 441.798V420.436L261.453 414.04L269.109 409.606L276.508 413.87L287.703 420.265V441.713L269.109 452.372L261.453 448.194ZM307.577 476.314L288.983 486.974L270.409 476.314V454.867L288.983 444.207L307.577 454.867V476.314ZM302.523 448.94L290.283 441.883V420.436L302.523 413.379L308.921 409.712L314.785 413.102L327.579 420.436V441.883L308.985 452.543L302.523 448.94ZM347.304 476.314L328.731 486.974L310.136 476.314V454.867L328.731 444.207L347.304 454.867V476.314ZM342.186 448.897L330.01 441.883V420.436L342.186 413.422L348.584 409.712L355.407 413.656L367.157 420.436V441.883L348.584 452.543L342.186 448.897ZM386.967 476.314L368.394 486.974L349.799 476.314V454.867L368.394 444.207L386.967 454.867V476.314ZM381.423 448.599L369.695 441.819V420.436L381.423 413.656L388.268 409.712L395.39 413.848L406.841 420.436V441.883L388.268 452.543L381.423 448.599ZM426.715 476.314L408.142 486.974L389.569 476.314V454.867L408.142 444.207L426.715 454.867V476.314ZM420.318 448.194L409.422 441.798V420.436L420.318 414.04L427.995 409.606L435.373 413.87L446.568 420.265V441.713L427.995 452.372L420.318 448.194ZM429.615 476.314V454.867L448.189 444.207L466.762 454.867V476.314L448.189 486.974L429.615 476.314Z" fill="url(#paint1_radial_234_665)"/>
</g>
<defs>
<linearGradient id="paint0_linear_234_665" x1="0" y1="0" x2="526.006" y2="525.251" gradientUnits="userSpaceOnUse">
<stop stop-color="#887FFE"/>
<stop offset="1" stop-color="#2B1FC7"/>
</linearGradient>
<radialGradient id="paint1_radial_234_665" cx="0" cy="0" r="1" gradientUnits="userSpaceOnUse" gradientTransform="translate(239.521 293.468) rotate(90) scale(206.468 238.521)">
<stop stop-color="white"/>
<stop offset="1" stop-color="white" stop-opacity="0"/>
</radialGradient>
<clipPath id="clip0_234_665">
<rect width="477" height="413" fill="white" transform="translate(1 87)"/>
</clipPath>
</defs>
</svg>
