<svg width="1920" height="812" viewBox="0 0 1920 812" fill="none" xmlns="http://www.w3.org/2000/svg">
<rect width="1920" height="812" fill="#FBFBFB"/>
<g opacity="0.4" clip-path="url(#clip0_242_49)">
<path d="M1940.36 481.987L1948.06 477.553L1955.51 481.817L1958 483.245V480.239L1949.36 475.272V453.867L1958 448.878V445.872L1948 451.607L1941.6 447.94L1929.38 440.883V419.436L1941.6 412.379L1948 408.712L1953.84 412.102L1957.94 414.447V411.462L1949.3 406.474V385.026L1957.94 380.038V377.032L1955.42 378.503L1948 382.766L1940.32 378.353L1929.43 372.064V350.617L1938.36 345.457L1948 339.893L1957.68 345.479L1957.94 345.628V342.622L1956.68 341.897L1949.3 337.633V316.25L1957.94 311.261V308.276H1957.79L1948 313.947L1938.28 308.34L1929.43 303.224V281.776L1937.4 277.171L1948.06 271.053L1958 276.788V273.782L1949.36 268.814V247.367L1958 242.378V239.372L1956.57 240.203L1948.04 245.107L1939.47 240.14L1929.53 234.383V212.936L1940.43 206.647L1948.11 202.212L1955.53 206.476L1958.04 207.947V204.962L1949.41 199.974V178.526L1956.42 174.476L1958.04 173.538V170.532L1953.95 172.898L1948 176.288L1941.6 172.621L1929.38 165.564V144.117L1938.23 139L1948 133.393L1957.77 139.043H1957.94V136.122L1949.3 131.133V109.686L1957.94 104.718V101.712L1953.95 104.015L1948 107.447L1941.71 103.823L1929.49 96.6597V86H1926.89V96.6597L1915.33 103.333L1908.31 107.383L1901.04 103.12L1889.74 96.6597V86H1887.14V96.6597L1875.5 103.461L1868.61 107.447L1861.96 103.61L1849.91 96.6597V86H1847.31V96.6597L1835.36 103.546L1828.73 107.383L1822.34 103.716L1810.22 96.6597V86H1807.64V96.6597L1795 103.951L1789.05 107.383L1782.65 103.759L1770.48 96.6597V86H1767.9V96.6597L1756.34 103.333L1749.3 107.383L1742.05 103.12L1730.73 96.6597V86H1728.13V96.6597L1716.44 103.397L1709.55 107.383L1702.92 103.546L1690.98 96.6597V86H1688.38V96.6597L1676.46 103.61L1669.8 107.447L1663.41 103.78L1651.23 96.6597V86H1648.63V96.6597L1636.01 104.015L1630.06 107.447L1623.66 103.823L1611.48 96.6597V86H1608.94V96.6597L1597.34 103.397L1590.31 107.447L1583.06 103.183L1571.73 96.6597V86H1569.13V96.6597L1557.45 103.461L1550.56 107.447L1543.93 103.61L1531.99 96.6597V86H1529.38V96.6597L1517.44 103.546L1510.85 107.447L1504.46 103.78L1492.24 96.6597V86H1489.64V96.6597L1481 101.712V104.718L1490.94 98.9835L1501.62 105.187L1509.51 109.729V131.133L1501.32 135.866L1490.94 141.857L1481 136.122V139.128L1489.64 144.117V165.564L1481 170.532V173.538L1490.94 167.803L1502.88 174.689L1509.51 178.526V199.974L1498.85 206.135L1490.96 210.697L1481 204.962V207.968L1489.64 212.936V234.383L1481 239.372V242.378L1482.43 241.632L1490.96 236.728L1500.19 241.994L1509.47 247.367V268.814L1498.21 275.21L1490.89 279.474L1481 273.782V276.788L1481.83 277.278L1489.64 281.776V303.224L1481.11 308.212V311.197L1483.49 309.854L1490.94 305.59L1499.15 310.323L1509.51 316.25V337.569L1502.69 341.513L1490.94 348.293L1481 342.622V345.628L1489.64 350.617V372.064L1481.11 377.032V380.038L1491.04 374.303L1509.62 384.962V406.41L1501.41 411.143L1491.04 417.133L1481 411.462V414.447L1489.64 419.436V440.883L1481 445.872V448.878L1490.94 443.143L1509.51 453.803V475.25L1490.94 485.91L1481 480.282V483.288L1489.64 488.276V498.936H1492.24V488.276L1502.77 482.2L1510.85 477.553L1519.06 482.286L1529.43 488.276V498.936H1532.03V488.276L1542.39 482.286L1550.6 477.553L1558.92 482.35L1569.18 488.276V498.936H1571.78V488.276L1581.5 482.669L1590.35 477.553L1599.11 482.541L1608.94 488.276V498.936H1611.55V488.276L1622.44 481.987L1630.12 477.553L1637.58 481.817L1648.69 488.212V498.872H1651.29V488.212L1661.83 482.136L1669.87 477.489L1678.08 482.222L1688.44 488.212V498.872H1691.04V488.212L1701.43 482.222L1709.62 477.489L1717.95 482.286L1728.19 488.212V498.872H1730.79V488.212L1740.51 482.605L1749.36 477.489L1758.21 482.541L1768 488.191V498.851H1770.58V488.191L1781.48 481.902L1789.16 477.467L1796.62 481.731L1807.75 488.127V498.787H1810.33V488.127L1820.86 482.051L1828.92 477.403L1837.11 482.136L1847.5 488.127V498.787H1849.91V488.127L1860.27 482.136L1868.48 477.403L1876.8 482.2L1887.05 488.127V498.787H1889.66V488.127L1899.36 482.52L1908.23 477.403L1917.01 482.477L1926.8 488.127V498.787H1929.4V488.127L1940.36 481.987ZM1946.76 385.026V406.474L1938.72 411.121L1928.19 417.197L1917.93 411.271L1909.62 406.474V385.026L1928.19 374.367L1946.76 385.026ZM1561.61 277.427L1569.13 281.691V303.138L1560.82 307.935L1550.56 313.862L1540.17 307.871L1531.99 303.138V281.776L1539.32 277.512L1550.56 271.117L1561.61 277.427ZM1551.86 268.899V247.367L1561.16 241.994L1570.43 236.643L1580.39 242.378L1588.92 247.367V268.814L1578.26 274.933L1570.28 279.538L1562.97 275.274L1551.86 268.899ZM1551.86 316.271L1562.25 310.28L1570.43 305.548L1579.3 310.664L1589.01 316.25V337.569L1582.61 341.236L1570.37 348.293L1558.62 341.513L1551.86 337.569V316.271ZM1579.39 307.743L1571.73 303.33V281.776L1578.64 277.875L1590.31 271.138L1602.27 277.875L1608.94 281.776V303.224L1601.52 307.488L1590.37 313.883L1579.39 307.743ZM1591.61 268.921V247.367L1600.91 241.994L1610.18 236.643L1619.48 241.994L1628.76 247.367V268.814L1617.24 275.444L1610.18 279.538L1602.65 275.274L1591.61 268.921ZM1591.61 316.293L1601.87 310.387L1610.18 305.569L1618.22 310.216L1628.76 316.25V337.569L1622.36 341.279L1610.2 348.293L1598.75 341.833L1591.61 337.569V316.293ZM1620.33 308.447L1611.48 303.33V281.776L1619.46 277.171L1630.12 271.053L1640.78 277.278L1648.59 281.776V303.224L1639.8 308.298L1630.01 313.947L1620.33 308.447ZM1631.36 268.921V247.367L1641.42 241.632L1649.95 236.728L1659.25 242.08L1668.52 247.452V268.814L1657.27 275.21L1649.95 279.474L1643.36 275.743L1631.36 268.921ZM1631.36 316.293L1642.49 309.897L1649.93 305.633L1658.14 310.366L1668.5 316.25V337.569L1661.68 341.513L1649.93 348.293L1638.8 341.833L1631.4 337.569L1631.36 316.293ZM1659.25 307.957L1651.23 303.33V281.776L1658.31 277.683L1669.8 271.053L1681.04 277.449L1688.38 281.712V303.16L1680.21 307.893L1669.8 313.883L1659.25 307.957ZM1671.1 268.921V247.367L1679.63 242.442L1689.68 236.643L1698.21 241.611L1708.14 247.367V268.814L1696.48 275.551L1689.57 279.538L1681.79 275.018L1671.1 268.921ZM1671.1 316.293L1680.89 310.664L1689.68 305.569L1697.38 310.003L1708.25 316.399V337.569L1700.64 342.068L1689.72 348.464L1676.93 341.13L1671.1 337.569V316.293ZM1699.17 308.063L1690.98 303.33V281.776L1698.31 277.512L1709.55 271.117L1720.6 277.512L1728.13 281.776V303.224L1719.83 308.021L1709.55 313.947L1699.17 308.063ZM1710.85 268.921V247.367L1720.15 241.994L1729.43 236.643L1739.38 242.378L1747.91 247.367V268.814L1737.25 274.933L1729.28 279.538L1721.96 275.274L1710.85 268.921ZM1710.85 316.293L1721.24 310.302L1729.43 305.569L1738.3 310.685L1748 316.293V337.569L1741.6 341.236L1729.36 348.293L1717.63 341.513L1710.85 337.569V316.293ZM1738.4 307.765L1730.73 303.352V281.776L1737.66 277.875L1749.3 271.138L1761.28 277.875L1767.9 281.691V303.138L1760.45 307.402L1749.3 313.798L1738.4 307.765ZM1750.6 268.942V247.367L1759.9 241.994L1769.17 236.643L1778.47 241.994L1787.77 247.367V268.814L1776.25 275.444L1769.17 279.538L1761.67 275.274L1750.6 268.942ZM1750.6 316.314L1760.86 310.408L1769.17 305.59L1777.24 310.238L1787.77 316.314V337.569L1781.37 341.279L1769.2 348.293L1757.77 341.684L1750.6 337.569V316.314ZM1779.32 308.468L1770.48 303.352V281.776L1778.47 277.171L1789.13 271.053L1799.8 277.278L1807.62 281.776V303.224L1798.82 308.298L1789.03 313.947L1779.32 308.468ZM1790.35 268.942V247.367L1800.41 241.632L1808.94 236.728L1818.22 242.08L1827.52 247.452V268.814L1816.26 275.21L1808.94 279.474L1802.35 275.743L1790.35 268.942ZM1790.35 316.314L1801.48 309.918L1808.94 305.654L1817.13 310.387L1827.52 316.25V337.569L1820.67 341.513L1808.94 348.293L1797.75 341.897L1790.35 337.633V316.314ZM1818.26 307.978L1810.22 303.352V281.776L1817.32 277.683L1828.82 271.053L1840.06 277.449L1847.39 281.712V303.16L1839.25 307.957L1828.86 313.947L1818.26 307.978ZM1830.1 268.942V247.367L1838.63 242.442L1848.69 236.643L1857.22 241.611L1867.18 247.367V268.814L1855.49 275.551L1848.61 279.538L1840.8 275.018L1830.1 268.942ZM1830.1 316.314L1839.89 310.685L1848.69 305.59L1856.31 309.854L1867.2 316.25V337.569L1859.53 342.004L1848.63 348.4L1835.83 341.066L1830.1 337.569V316.314ZM1858.16 308.085L1849.91 303.224V281.776L1857.24 277.512L1868.48 271.117L1879.51 277.512L1887.05 281.776V303.224L1878.74 308.021L1868.48 313.947L1858.16 308.085ZM1869.87 268.942V247.367L1879.14 241.994L1888.44 236.643L1898.38 242.378L1907.01 247.367V268.814L1896.35 274.933L1888.4 279.538L1881.06 275.274L1869.87 268.942ZM1869.87 316.314L1880.23 310.323L1888.44 305.59L1897.29 310.707L1907.01 316.314V337.569L1900.62 341.236L1888.4 348.293L1876.65 341.513L1869.82 337.569L1869.87 316.314ZM1897.4 307.786L1889.74 303.373V281.776L1896.65 277.875L1908.31 271.138L1920.28 277.875L1926.89 281.691V303.138L1919.47 307.402L1908.31 313.798L1897.4 307.786ZM1898.36 239.564L1889.83 234.575V212.936L1899.55 207.329L1908.4 202.212L1917.19 207.286L1926.97 212.936V234.383L1918.44 239.308L1908.4 245.107L1898.36 239.564ZM1907.01 200.166L1897.18 205.837L1888.44 210.889L1880.53 206.327L1869.87 200.166V178.526L1876.5 174.689L1888.44 167.803L1900.72 174.902L1907.01 178.526V200.166ZM1876.86 207.222L1887.14 213.128V234.383L1877.84 239.756L1868.57 245.107L1859.27 239.756L1849.91 234.383V212.936L1860.29 206.945L1868.48 202.212L1876.86 207.222ZM1867.27 200.166L1855.94 206.689L1848.69 210.953L1840.03 205.964L1830.1 200.23V178.526L1836.05 175.094L1848.69 167.803L1859.99 174.348L1867.27 178.612V200.166ZM1836.99 207.137L1847.39 213.128V234.383L1838.09 239.756L1828.82 245.107L1819.52 239.756L1810.22 234.383V212.936L1820.89 206.86L1828.92 202.212L1836.99 207.137ZM1827.52 200.166L1816.86 206.327L1808.97 210.889L1802.08 206.902L1790.37 200.166V178.526L1797.41 174.476L1808.97 167.803L1820.89 174.689L1827.54 178.526L1827.52 200.166ZM1796.6 206.497L1807.75 212.893V234.383L1797.68 240.203L1789.16 245.107L1780.63 240.14L1770.67 234.383V212.936L1781.59 206.647L1789.24 202.212L1796.6 206.497ZM1787.88 199.974L1776.92 206.37L1769.28 210.783L1761.2 206.114L1750.71 200.059V178.526L1757.6 174.561L1769.28 167.803L1781.54 174.881L1787.94 178.526L1787.88 199.974ZM1758.21 207.286L1768 212.936V234.383L1759.47 239.308L1749.41 245.107L1739.47 239.372L1730.94 234.383V212.936L1740.66 207.329L1749.51 202.212L1758.21 207.286ZM1748.11 199.974L1738.3 205.645L1729.53 210.697L1721.64 206.135L1710.98 199.974V178.526L1717.63 174.689L1729.55 167.803L1741.84 174.902L1748.13 178.526L1748.11 199.974ZM1717.98 207.03L1728.23 212.936V234.383L1718.96 239.756L1709.66 245.107L1700.38 239.756L1690.98 234.383V212.936L1701.36 206.945L1709.55 202.212L1717.98 207.03ZM1708.36 199.974L1697.06 206.497L1689.78 210.761L1681.26 205.773L1671.32 200.038V178.526L1677.27 175.094L1689.89 167.803L1701.21 174.348L1708.46 178.612L1708.36 199.974ZM1677.99 206.945L1688.38 212.936V234.383L1679.1 239.756L1669.8 245.107L1660.53 239.756L1651.23 234.383V212.936L1661.89 206.86L1669.91 202.212L1677.99 206.945ZM1668.5 199.974L1657.84 206.135L1649.93 210.697L1643.06 206.711L1631.38 199.974V178.526L1638.41 174.476L1649.95 167.803L1661.89 174.689L1668.52 178.526L1668.5 199.974ZM1637.48 206.497L1648.63 212.893V234.383L1638.59 240.203L1630.06 245.107L1621.53 240.14L1611.57 234.383V212.936L1622.49 206.647L1630.14 202.212L1637.48 206.497ZM1628.76 199.974L1617.82 206.37L1610.18 210.783L1602.1 206.028L1591.61 199.974V178.526L1598.5 174.561L1610.18 167.803L1622.42 174.881L1628.82 178.526L1628.76 199.974ZM1599.09 207.286L1608.94 212.936V234.383L1600.42 239.308L1590.35 245.107L1580.37 239.372L1571.73 234.383V212.936L1581.46 207.329L1590.31 202.212L1599.09 207.286ZM1589.01 199.974L1579.09 205.645L1570.35 210.697L1562.46 206.135L1551.8 199.974V178.526L1558.43 174.689L1570.37 167.803L1582.72 174.902L1589.01 178.526V199.974ZM1558.88 207.03L1569.13 212.936V234.383L1559.9 239.756L1550.6 245.107L1541.33 239.756L1531.99 234.383V212.936L1542.37 206.945L1550.56 202.212L1558.88 207.03ZM1549.24 199.974L1537.94 206.497L1530.66 210.761L1522.03 205.773L1512.09 200.038V178.526L1518.04 175.094L1530.66 167.803L1541.99 174.348L1549.24 178.612V199.974ZM1539.32 241.632L1549.24 247.367V268.814L1537.55 275.551L1530.69 279.538L1522.9 275.018L1512.11 268.814V247.367L1520.64 242.442L1530.71 236.643L1539.32 241.632ZM1538.36 309.854L1549.24 316.25V337.569L1541.58 342.004L1530.66 348.4L1517.87 341.066L1512.11 337.569V316.25L1521.9 310.622L1530.69 305.526L1538.36 309.854ZM1549.24 385.026V406.474L1540.39 411.59L1530.66 417.197L1519.53 410.802L1512.09 406.538V385.026L1530.66 374.367L1549.24 385.026ZM1542.37 378.076L1531.99 372.085V350.617L1540.39 345.756L1550.56 339.893L1560.65 345.713L1569.18 350.617V372.064L1558.88 378.076L1550.56 382.873L1542.37 378.076ZM1551.86 385.048L1570.43 374.388L1589.01 385.048V406.495L1581.33 410.929L1570.43 417.219L1560.07 411.228L1551.86 406.495V385.048ZM1581.46 377.692L1571.73 372.085V350.617L1579.71 346.097L1590.37 339.978L1601.08 346.097L1608.94 350.617V372.064L1599.16 377.714L1590.37 382.766L1581.46 377.692ZM1591.61 385.048L1610.18 374.388L1628.76 385.048V406.495L1620.72 411.143L1610.18 417.219L1599.92 411.292L1591.61 406.495V385.048ZM1622.4 378.375L1611.48 372.085V350.617L1620.42 345.457L1630.06 339.893L1639.74 345.479L1648.63 350.617V372.064L1637.48 378.46L1630.06 382.724L1622.4 378.375ZM1631.36 385.048L1649.93 374.388L1668.5 385.048V406.495L1660.31 411.228L1649.93 417.219L1640.16 411.569L1631.36 406.495V385.048ZM1661.79 378.076L1651.12 372V350.617L1659.44 345.82L1669.7 339.893L1679.87 345.756L1688.27 350.617V372.064L1677.99 378.076L1669.8 382.788L1661.79 378.076ZM1671.1 384.962L1689.68 374.303L1708.25 384.962V406.41L1699.4 411.526L1689.68 417.133L1678.57 410.738L1671.1 406.474V384.962ZM1701.36 378.076L1690.98 372.085V350.617L1699.38 345.756L1709.55 339.893L1719.64 345.713L1728.17 350.617V372.064L1717.87 378.076L1709.55 382.873L1701.36 378.076ZM1710.85 385.048L1729.43 374.388L1748 385.048V406.495L1740.32 410.929L1729.43 417.219L1719.06 411.228L1710.85 406.495V385.048ZM1740.45 377.692L1730.73 372.085V350.617L1738.7 346.012L1749.36 339.893L1760.13 346.097L1767.96 350.617V372.064L1758.21 377.714L1749.41 382.766L1740.45 377.692ZM1750.6 385.048L1769.17 374.388L1787.77 385.048V406.495L1779.71 411.143L1769.17 417.219L1758.94 411.292L1750.6 406.495V385.048ZM1781.39 378.375L1770.48 372.085V350.617L1779.41 345.457L1789.05 339.893L1798.75 345.479L1807.64 350.617V372.064L1796.49 378.46L1789.05 382.724L1781.39 378.375ZM1790.35 385.048L1808.94 374.388L1827.52 385.048V406.495L1819.31 411.228L1808.94 417.219L1799.16 411.569L1790.35 406.495V385.048ZM1820.78 378.076L1810.12 372V350.617L1818.43 345.82L1828.71 339.893L1838.88 345.756L1847.28 350.617V372.064L1836.99 378.076L1828.82 382.788L1820.78 378.076ZM1830.1 384.962L1848.69 374.303L1867.27 384.962V406.41L1858.39 411.526L1848.69 417.133L1837.56 410.738L1830.1 406.474V384.962ZM1860.38 377.991L1849.91 372.064V350.617L1858.31 345.756L1868.48 339.893L1878.57 345.713L1887.1 350.617V372.064L1876.86 378.076L1868.57 382.873L1860.38 377.991ZM1869.87 384.962L1888.44 374.303L1907.01 384.962V406.41L1899.32 410.844L1888.44 417.133L1878.06 411.143L1869.87 406.41V384.962ZM1899.47 377.607L1889.74 372V350.617L1897.7 346.012L1908.36 339.893L1919.02 346.097L1926.85 350.617V372.064L1917.06 377.714L1908.27 382.766L1899.47 377.607ZM1936.23 310.046L1946.76 316.122V337.569L1940.36 341.279L1928.21 348.293L1916.76 341.684L1909.62 337.569V316.25L1919.85 310.344L1928.19 305.526L1936.23 310.046ZM1937.46 241.93L1946.76 247.303V268.814L1935.2 275.444L1928.15 279.538L1920.62 275.274L1909.57 268.878V247.367L1918.85 241.994L1928.15 236.643L1937.46 241.93ZM1940.43 174.817L1946.83 178.462V199.974L1935.87 206.37L1928.25 210.783L1920.15 206.114L1909.62 199.974V178.526L1916.5 174.561L1928.19 167.803L1940.43 174.817ZM1909.62 109.686L1917.7 105.017L1928.19 98.9835L1939.13 105.379L1946.76 109.771V131.133L1938.74 135.781L1928.19 141.857L1917.91 135.93L1909.62 131.133V109.686ZM1919.45 139.81L1926.89 144.074V165.564L1915.69 171.96L1908.31 176.224L1900.64 171.789L1889.74 165.394V144.117L1897.42 139.682L1908.31 133.393L1919.45 139.81ZM1869.87 109.686L1877.76 105.187L1888.42 99.0262L1899.72 105.55L1906.99 109.814V131.133L1899.32 135.568L1888.42 141.857L1878.01 135.866L1869.85 131.133L1869.87 109.686ZM1878.82 139.299L1887.14 144.117V165.564L1875.69 172.152L1868.57 176.288L1861.72 172.344L1849.91 165.564V144.117L1858.18 139.299L1868.57 133.308L1878.82 139.299ZM1830.1 109.686L1836.99 105.72L1848.69 98.9835L1858.44 104.655L1867.2 109.686V131.133L1858.44 136.25L1848.71 141.857L1837.56 135.461L1830.12 131.197L1830.1 109.686ZM1839.25 139.299L1847.46 144.031V165.564L1835.71 172.344L1828.88 176.288L1822.48 172.578L1810.31 165.564V144.117L1818.35 139.469L1829.01 133.393L1839.25 139.299ZM1790.41 109.601L1799.07 104.612L1809.01 98.8983L1819.67 105.06L1827.58 109.601V131.133L1819.39 135.866L1809.01 141.857L1799.22 136.207L1790.41 131.133V109.601ZM1798.94 138.957L1807.75 144.031V165.564L1794.96 172.898L1789.09 176.288L1782.69 172.621L1770.45 165.564V144.117L1779.32 139L1789.03 133.393L1798.94 138.957ZM1750.6 109.686L1758.7 105.017L1769.17 98.9835L1780.14 105.379L1787.77 109.771V131.133L1779.73 135.781L1769.07 141.857L1758.81 135.93L1750.49 131.133L1750.6 109.686ZM1760.35 139.81L1767.81 144.074V165.564L1756.61 171.96L1749.22 176.224L1741.56 171.789L1730.64 165.394V144.117L1738.32 139.682L1749.22 133.393L1760.35 139.81ZM1710.85 109.686L1718.76 105.187L1729.43 99.0262L1740.75 105.55L1748 109.814V131.133L1740.34 135.568L1729.43 141.857L1719.04 135.866L1710.85 131.133V109.686ZM1719.83 139.299L1728.15 144.117V165.564L1716.72 172.152L1709.57 176.288L1702.77 172.344L1691.02 165.564V144.117L1699.19 139.299L1709.55 133.308L1719.83 139.299ZM1671.1 109.686L1677.99 105.72L1689.68 98.9835L1699.51 104.655L1708.25 109.686V131.133L1699.4 136.25L1689.68 141.857L1678.53 135.461L1671.1 131.197V109.686ZM1680.19 139.299L1688.38 144.031V165.564L1676.65 172.344L1669.8 176.288L1663.41 172.578L1651.25 165.564V144.117L1659.29 139.469L1669.83 133.393L1680.19 139.299ZM1631.36 109.686L1640.01 104.697L1649.93 98.9835L1660.59 105.145L1668.48 109.686V131.133L1660.29 135.866L1649.93 141.857L1640.14 136.207L1631.36 131.133V109.686ZM1639.89 139.043L1648.67 144.117V165.564L1635.88 172.898L1630.06 176.288L1623.66 172.621L1611.42 165.564V144.117L1620.27 139L1629.99 133.393L1639.89 139.043ZM1591.61 109.686L1599.71 105.017L1610.18 98.9835L1621.14 105.379L1628.76 109.771V131.133L1620.74 135.781L1610.08 141.857L1599.82 135.93L1591.5 131.133L1591.61 109.686ZM1601.44 139.81L1608.88 144.074V165.564L1597.71 171.96L1590.31 176.224L1582.65 171.789L1571.73 165.394V144.117L1579.41 139.682L1590.31 133.393L1601.44 139.81ZM1551.86 109.686L1559.75 105.187L1570.41 99.0262L1581.71 105.55L1588.99 109.814V131.133L1581.33 135.568L1570.43 141.857L1560.05 135.866L1551.86 131.133V109.686ZM1560.82 139.299L1569.13 144.117V165.564L1557.77 172.152L1550.62 176.288L1543.8 172.344L1532.05 165.564V144.117L1540.17 139.299L1550.56 133.308L1560.82 139.299ZM1512.11 109.686L1519 105.72L1530.69 98.9835L1540.52 104.655L1549.24 109.686V131.133L1540.39 136.25L1530.69 141.857L1519.53 135.461L1512.11 131.197V109.686ZM1504.46 172.578L1492.3 165.564V144.117L1500.19 139.469L1510.85 133.393L1521.2 139.299L1529.38 144.031V165.564L1517.63 172.344L1510.85 176.288L1504.46 172.578ZM1501.51 239.756L1492.24 234.383V212.936L1502.9 206.86L1510.85 202.212L1519.04 206.945L1529.43 212.936V234.383L1520.15 239.756L1510.85 245.107L1501.51 239.756ZM1500.19 307.85L1492.17 303.224V281.776L1499.25 277.683L1510.85 271.053L1522.09 277.449L1529.43 281.712V303.16L1521.24 307.893L1510.85 313.947L1500.19 307.85ZM1502.73 378.204L1492.07 372.128V350.617L1500.36 345.82L1510.85 339.893L1521.03 345.756L1529.43 350.617V372.064L1519 378.076L1510.85 382.766L1502.73 378.204ZM1504.46 447.897L1492.3 440.883V419.436L1504.46 412.422L1510.85 408.712L1517.68 412.656L1529.43 419.436V440.883L1510.85 451.543L1504.46 447.897ZM1549.24 475.314L1530.66 485.974L1512.09 475.314V453.867L1530.66 443.207L1549.24 453.867V475.314ZM1543.71 447.599L1531.96 440.819V419.436L1543.71 412.656L1550.54 408.712L1557.77 412.848L1569.2 419.436V440.883L1550.62 451.543L1543.71 447.599ZM1588.99 475.314L1570.41 485.974L1551.84 475.314V453.867L1570.41 443.207L1588.99 453.867V475.314ZM1582.59 447.194L1571.67 440.798V419.436L1582.59 413.04L1590.24 408.606L1597.64 412.87L1608.82 419.265V440.713L1590.24 451.372L1582.59 447.194ZM1628.69 475.314L1610.12 485.974L1591.54 475.314V453.867L1610.12 443.207L1628.69 453.867V475.314ZM1623.66 447.94L1611.42 440.883V419.436L1623.66 412.379L1630.06 408.712L1635.92 412.187L1648.71 419.521V440.969L1630.14 451.628L1623.66 447.94ZM1668.44 475.314L1649.87 485.974L1631.29 475.314V453.867L1649.87 443.207L1668.44 453.867V475.314ZM1663.32 447.897L1651.17 440.883V419.436L1663.32 412.422L1669.72 408.712L1676.56 412.656L1688.29 419.436V440.883L1669.72 451.543L1663.32 447.897ZM1708.1 475.314L1689.53 485.974L1670.96 475.314V453.867L1689.53 443.207L1708.1 453.867V475.314ZM1702.58 447.599L1690.83 440.819V419.436L1702.58 412.656L1709.4 408.712L1716.55 412.848L1727.98 419.436V440.883L1709.4 451.543L1702.58 447.599ZM1747.85 475.314L1729.28 485.974L1710.7 475.314V453.867L1729.28 443.207L1747.85 453.867V475.314ZM1741.45 447.194L1730.54 440.798V419.436L1741.45 413.04L1749.11 408.606L1756.51 412.87L1767.7 419.265V440.713L1749.11 451.372L1741.45 447.194ZM1787.58 475.314L1768.98 485.974L1750.41 475.314V453.867L1768.98 443.207L1787.58 453.867V475.314ZM1782.52 447.94L1770.28 440.883V419.436L1782.52 412.379L1788.92 408.712L1794.78 412.102L1807.58 419.436V440.883L1788.98 451.543L1782.52 447.94ZM1827.3 475.314L1808.73 485.974L1790.14 475.314V453.867L1808.73 443.207L1827.3 453.867V475.314ZM1822.19 447.897L1810.01 440.883V419.436L1822.19 412.422L1828.58 408.712L1835.41 412.656L1847.16 419.436V440.883L1828.58 451.543L1822.19 447.897ZM1866.97 475.314L1848.39 485.974L1829.8 475.314V453.867L1848.39 443.207L1866.97 453.867V475.314ZM1861.42 447.599L1849.69 440.819V419.436L1861.42 412.656L1868.27 408.712L1875.39 412.848L1886.84 419.436V440.883L1868.27 451.543L1861.42 447.599ZM1906.72 475.314L1888.14 485.974L1869.57 475.314V453.867L1888.14 443.207L1906.72 453.867V475.314ZM1900.32 447.194L1889.42 440.798V419.436L1900.32 413.04L1907.99 408.606L1915.37 412.87L1926.57 419.265V440.713L1907.99 451.372L1900.32 447.194ZM1909.62 475.314V453.867L1928.19 443.207L1946.76 453.867V475.314L1928.19 485.974L1909.62 475.314Z" fill="url(#paint0_radial_242_49)"/>
</g>
<defs>
<radialGradient id="paint0_radial_242_49" cx="0" cy="0" r="1" gradientUnits="userSpaceOnUse" gradientTransform="translate(1719.52 292.468) rotate(90) scale(206.468 238.521)">
<stop stop-color="#FF8720"/>
<stop offset="1" stop-color="white" stop-opacity="0"/>
</radialGradient>
<clipPath id="clip0_242_49">
<rect width="477" height="413" fill="white" transform="translate(1481 86)"/>
</clipPath>
</defs>
</svg>
