<svg width="1619" height="268" viewBox="0 0 1619 268" fill="none" xmlns="http://www.w3.org/2000/svg">
<rect width="1619" height="268" fill="url(#paint0_linear_242_57)"/>
<mask id="mask0_242_57" style="mask-type:alpha" maskUnits="userSpaceOnUse" x="0" y="0" width="1619" height="268">
<rect width="1619" height="268" rx="16" fill="url(#paint1_linear_242_57)"/>
</mask>
<g mask="url(#mask0_242_57)">
<path d="M145.365 189.987L153.063 185.553L160.505 189.817L163 191.245V188.239L154.364 183.272V161.867L163 156.878V153.872L152.999 159.607L146.602 155.94L134.383 148.883V127.436L146.602 120.379L152.999 116.712L158.842 120.102L162.936 122.447V119.462L154.3 114.474V93.0263L162.936 88.0376V85.0316L160.42 86.5026L152.999 90.7665L145.322 86.3534L134.426 80.0641V58.6168L143.36 53.4575L152.999 47.8931L162.68 53.4788L162.936 53.6281V50.622L161.678 49.8971L154.3 45.6333V24.2499L162.936 19.2611V16.2764H162.787L152.999 21.9474L143.275 16.3404L134.426 11.2237V-10.2236L142.401 -14.8287L153.063 -20.9473L163 -15.2124V-18.2184L154.364 -23.1859V-44.6332L163 -49.622V-52.628L161.571 -51.7965L153.042 -46.8931L144.469 -51.8605L134.532 -57.6168V-79.0641L145.429 -85.3533L153.106 -89.7878L160.526 -85.5239L163.043 -84.0528V-87.0376L154.406 -92.0263V-113.474L161.422 -117.524L163.043 -118.462V-121.468L158.948 -119.102L152.999 -115.712L146.602 -119.379L134.383 -126.436V-147.883L143.232 -153L152.999 -158.607L162.765 -152.957H162.936V-155.878L154.3 -160.867V-182.314L162.936 -187.282V-190.288L158.948 -187.985L152.999 -184.553L146.708 -188.177L134.49 -195.34V-206H131.888V-195.34L120.33 -188.667L113.315 -184.617L106.043 -188.88L94.7413 -195.34V-206H92.1398V-195.34L80.4968 -188.539L73.6091 -184.553L66.956 -188.39L54.9078 -195.34V-206H52.3063V-195.34L40.3647 -188.454L33.733 -184.617L27.3357 -188.284L15.2236 -195.34V-206H12.6434V-195.34L-0.00186157 -188.049L-5.95126 -184.617L-12.3485 -188.241L-24.5246 -195.34V-206H-27.1049V-195.34L-38.6625 -188.667L-45.6995 -184.617L-52.9497 -188.88L-64.2728 -195.34V-206H-66.8744V-195.34L-78.56 -188.603L-85.4477 -184.617L-92.0795 -188.454L-104.021 -195.34V-206H-106.623V-195.34L-118.543 -188.39L-125.196 -184.553L-131.593 -188.22L-143.769 -195.34V-206H-146.371V-195.34L-158.995 -187.985L-164.944 -184.553L-171.341 -188.177L-183.518 -195.34V-206H-186.055V-195.34L-197.655 -188.603L-204.692 -184.553L-211.943 -188.817L-223.266 -195.34V-206H-225.867V-195.34L-237.553 -188.539L-244.441 -184.553L-251.072 -188.39L-263.014 -195.34V-206H-265.615V-195.34L-277.557 -188.454L-284.146 -184.553L-290.543 -188.22L-302.762 -195.34V-206H-305.364V-195.34L-314 -190.288V-187.282L-304.063 -193.016L-293.38 -186.813L-285.49 -182.271V-160.867L-293.678 -156.134L-304.063 -150.143L-314 -155.878V-152.872L-305.364 -147.883V-126.436L-314 -121.468V-118.462L-304.063 -124.197L-292.121 -117.311L-285.49 -113.474V-92.0263L-296.152 -85.865L-304.042 -81.3026L-314 -87.0376V-84.0315L-305.364 -79.0641V-57.6168L-314 -52.628V-49.622L-312.571 -50.3681L-304.042 -55.2716L-294.808 -50.0057L-285.532 -44.6332V-23.1859L-296.791 -16.79L-304.106 -12.5262L-314 -18.2184V-15.2124L-313.168 -14.722L-305.364 -10.2236V11.2237L-313.893 16.2124V19.1972L-311.505 17.854L-304.063 13.5901L-295.853 18.3231L-285.49 24.2499V45.5693L-292.313 49.5134L-304.063 56.293L-314 50.622V53.6281L-305.364 58.6168V80.0641L-313.893 85.0316V88.0376L-303.956 82.3027L-285.383 92.9624V114.41L-293.593 119.143L-303.956 125.133L-314 119.462V122.447L-305.364 127.436V148.883L-314 153.872V156.878L-304.063 151.143L-285.49 161.803V183.25L-304.063 193.91L-314 188.282V191.288L-305.364 196.276V206.936H-302.762V196.276L-292.228 190.2L-284.146 185.553L-275.936 190.286L-265.573 196.276V206.936H-262.971V196.276L-252.608 190.286L-244.398 185.553L-236.082 190.35L-225.825 196.276V206.936H-223.223V196.276L-213.499 190.669L-204.65 185.553L-195.886 190.541L-186.055 196.276V206.936H-183.454V196.276L-172.557 189.987L-164.88 185.553L-157.417 189.817L-146.307 196.212V206.872H-143.705V196.212L-133.171 190.136L-125.132 185.489L-116.922 190.222L-106.559 196.212V206.872H-103.957V196.212L-93.5722 190.222L-85.3838 185.489L-77.046 190.286L-66.8104 196.212V206.872H-64.2089V196.212L-54.4851 190.605L-45.6355 185.489L-36.786 190.541L-26.9982 196.191V206.851H-24.418V196.191L-13.5214 189.902L-5.84467 185.467L1.61877 189.731L12.75 196.127V206.787H15.3302V196.127L25.8643 190.051L33.9249 185.403L42.1133 190.136L52.4982 196.127V206.787H54.9078V196.127L65.2714 190.136L73.4812 185.403L81.7976 190.2L92.0545 196.127V206.787H94.6561V196.127L104.359 190.52L113.229 185.403L122.015 190.477L131.803 196.127V206.787H134.404V196.127L145.365 189.987ZM151.762 93.0263V114.474L143.723 119.121L133.189 125.197L122.932 119.271L114.615 114.474V93.0263L133.189 82.3666L151.762 93.0263ZM-233.395 -14.5728L-225.867 -10.3089V11.1384L-234.184 15.9353L-244.441 21.8621L-254.825 15.8713L-263.014 11.1384V-10.2236L-255.678 -14.4875L-244.441 -20.8834L-233.395 -14.5728ZM-243.14 -23.1006V-44.6332L-233.843 -50.0057L-224.567 -55.3569L-214.608 -49.622L-206.078 -44.6332V-23.1859L-216.741 -17.0672L-224.716 -12.4622L-232.03 -16.7261L-243.14 -23.1006ZM-243.14 24.2712L-232.755 18.2804L-224.567 13.5475L-215.696 18.6642L-205.993 24.2499V45.5693L-212.39 49.2363L-224.63 56.293L-236.38 49.5134L-243.14 45.5693V24.2712ZM-215.61 15.7434L-223.266 11.3303V-10.2236L-216.357 -14.1251L-204.692 -20.8621L-192.73 -14.1251L-186.055 -10.2236V11.2237L-193.476 15.4876L-204.628 21.8834L-215.61 15.7434ZM-203.392 -23.0793V-44.6332L-194.094 -50.0057L-184.818 -55.3569L-175.521 -50.0057L-166.245 -44.6332V-23.1859L-177.76 -16.5555L-184.818 -12.4622L-192.346 -16.7261L-203.392 -23.0793ZM-203.392 24.2925L-193.135 18.387L-184.818 13.5688L-176.779 18.2165L-166.245 24.2499V45.5693L-172.642 49.2789L-184.797 56.293L-196.248 49.8332L-203.392 45.5693V24.2925ZM-174.668 16.4469L-183.518 11.3303V-10.2236L-175.542 -14.8287L-164.88 -20.9473L-154.218 -14.722L-146.413 -10.2236V11.2237L-155.199 16.2977L-164.987 21.9474L-174.668 16.4469ZM-163.643 -23.0793V-44.6332L-153.578 -50.3681L-145.049 -55.2716L-135.751 -49.9204L-126.475 -44.5479V-23.1859L-137.735 -16.79L-145.049 -12.5262L-151.638 -16.257L-163.643 -23.0793ZM-163.643 24.2925L-152.512 17.8967L-145.07 13.6328L-136.86 18.3657L-126.497 24.2499V45.5693L-133.32 49.5134L-145.07 56.293L-156.201 49.8332L-163.601 45.5693L-163.643 24.2925ZM-135.751 15.9566L-143.769 11.3303V-10.2236L-136.69 -14.317L-125.196 -20.9473L-113.958 -14.5515L-106.623 -10.2876V11.1597L-114.79 15.8927L-125.196 21.8834L-135.751 15.9566ZM-123.895 -23.0793V-44.6332L-115.366 -49.558L-105.322 -55.3569L-96.7922 -50.3895L-86.8551 -44.6332V-23.1859L-98.5194 -16.4489L-105.428 -12.4622L-113.212 -16.9819L-123.895 -23.0793ZM-123.895 24.2925L-114.107 18.6642L-105.322 13.5688L-97.6238 18.0033L-86.7485 24.3991V45.5693L-94.3612 50.0677L-105.279 56.4635L-118.074 49.1296L-123.895 45.5693V24.2925ZM-95.8326 16.0632L-104.021 11.3303V-10.2236L-96.6855 -14.4875L-85.4477 -20.8834L-74.4018 -14.4875L-66.8744 -10.2236V11.2237L-75.1695 16.0206L-85.4477 21.9474L-95.8326 16.0632ZM-84.147 -23.0793V-44.6332L-74.8496 -50.0057L-65.5736 -55.3569L-55.6152 -49.622L-47.0856 -44.6332V-23.1859L-57.7477 -17.0672L-65.7229 -12.4622L-73.0371 -16.7261L-84.147 -23.0793ZM-84.147 24.2925L-73.7621 18.3017L-65.5736 13.5688L-56.7028 18.6855L-47.0003 24.2925V45.5693L-53.3975 49.2363L-65.6376 56.293L-77.3659 49.5134L-84.147 45.5693V24.2925ZM-56.5962 15.7647L-64.2728 11.3516V-10.2236L-57.3425 -14.1251L-45.6995 -20.8621L-33.7153 -14.1251L-27.1049 -10.3089V11.1384L-34.547 15.4023L-45.6995 21.7981L-56.5962 15.7647ZM-44.3987 -23.058V-44.6332L-35.1014 -50.0057L-25.8254 -55.3569L-16.5281 -50.0057L-7.23074 -44.6332V-23.1859L-18.7458 -16.5555L-25.8254 -12.4622L-33.3315 -16.7261L-44.3987 -23.058ZM-44.3987 24.3138L-34.1418 18.4084L-25.8254 13.5901L-17.7649 18.2378L-7.23074 24.3138V45.5693L-13.628 49.2789L-25.8041 56.293L-37.2338 49.6839L-44.3987 45.5693V24.3138ZM-15.6751 16.4683L-24.5246 11.3516V-10.2236L-16.5281 -14.8287L-5.866 -20.9473L4.79608 -14.722L12.622 -10.2236V11.2237L3.81516 16.2977L-5.97263 21.9474L-15.6751 16.4683ZM-4.65051 -23.058V-44.6332L5.41446 -50.3681L13.9441 -55.2716L23.2202 -49.9204L32.5175 -44.5479V-23.1859L21.2583 -16.79L13.9441 -12.5262L7.35498 -16.257L-4.65051 -23.058ZM-4.65051 24.3138L6.48068 17.918L13.9441 13.6541L22.1326 18.387L32.5175 24.2499V45.5693L25.6724 49.5134L13.9441 56.293L2.74896 49.8971L-4.65051 45.6333V24.3138ZM23.2628 15.9779L15.2236 11.3516V-10.2236L22.3246 -14.317L33.8183 -20.9473L45.0561 -14.5515L52.3916 -10.2876V11.1597L44.2458 15.9566L33.8609 21.9474L23.2628 15.9779ZM35.0977 -23.058V-44.6332L43.6274 -49.558L53.6924 -55.3569L62.222 -50.3895L72.1804 -44.6332V-23.1859L60.4948 -16.4489L53.6071 -12.4622L45.8024 -16.9819L35.0977 -23.058ZM35.0977 24.3138L44.8855 18.6855L53.6924 13.5901L61.3051 17.854L72.2017 24.2499V45.5693L64.525 50.0038L53.6284 56.3996L40.8339 49.0657L35.0977 45.5693V24.3138ZM63.1603 16.0845L54.9078 11.2237V-10.2236L62.2433 -14.4875L73.4812 -20.8834L84.5058 -14.4875L92.0545 -10.2236V11.2237L83.7381 16.0206L73.4812 21.9474L63.1603 16.0845ZM74.8672 -23.058V-44.6332L84.1433 -50.0057L93.4406 -55.3569L103.378 -49.622L112.014 -44.6332V-23.1859L101.352 -17.0672L93.3979 -12.4622L86.0624 -16.7261L74.8672 -23.058ZM74.8672 24.3138L85.2308 18.3231L93.4406 13.5901L102.29 18.7068L112.014 24.3138V45.5693L105.617 49.2363L93.3979 56.293L81.6483 49.5134L74.8246 45.5693L74.8672 24.3138ZM102.397 15.7861L94.7413 11.3729V-10.2236L101.65 -14.1251L113.315 -20.8621L125.278 -14.1251L131.888 -10.3089V11.1384L124.467 15.4023L113.315 21.7981L102.397 15.7861ZM103.356 -52.4361L94.8267 -57.4249V-79.0641L104.55 -84.6711L113.4 -89.7878L122.186 -84.7138L131.973 -79.0641V-57.6168L123.444 -52.692L113.4 -46.8931L103.356 -52.4361ZM112.014 -91.8344L102.184 -86.1635L93.4406 -81.1108L85.5293 -85.6731L74.8672 -91.8344V-113.474L81.4991 -117.311L93.4406 -124.197L105.723 -117.098L112.014 -113.474V-91.8344ZM81.8616 -84.7777L92.1398 -78.8722V-57.6168L82.8425 -52.2442L73.5665 -46.8931L64.2691 -52.2442L54.9078 -57.6168V-79.0641L65.2927 -85.0549L73.4812 -89.7878L81.8616 -84.7777ZM72.2657 -91.8344L60.9426 -85.3107L53.6924 -81.0468L45.0348 -86.0356L35.0977 -91.7705V-113.474L41.0471 -116.906L53.6924 -124.197L64.9942 -117.652L72.2657 -113.388V-91.8344ZM41.9854 -84.863L52.3916 -78.8722V-57.6168L43.0943 -52.2442L33.8183 -46.8931L24.5209 -52.2442L15.2236 -57.6168V-79.0641L25.8857 -85.1401L33.9249 -89.7878L41.9854 -84.863ZM32.5175 -91.8344L21.8554 -85.6731L13.9655 -81.1108L7.07779 -85.0975L-4.62918 -91.8344V-113.474L2.40781 -117.524L13.9655 -124.197L25.8857 -117.311L32.5388 -113.474L32.5175 -91.8344ZM1.59747 -85.5026L12.75 -79.1067V-57.6168L2.685 -51.7965L-5.84467 -46.8931L-14.3743 -51.8605L-24.3327 -57.6168V-79.0641L-13.4147 -85.3533L-5.75937 -89.7878L1.59747 -85.5026ZM-7.12411 -92.0263L-18.0847 -85.6305L-25.7188 -81.2174L-33.8006 -85.8863L-44.2921 -91.941V-113.474L-37.4044 -117.439L-25.7188 -124.197L-13.4574 -117.119L-7.06015 -113.474L-7.12411 -92.0263ZM-36.786 -84.7138L-26.9982 -79.0641V-57.6168L-35.5279 -52.692L-45.5929 -46.8931L-55.5299 -52.628L-64.0596 -57.6168V-79.0641L-54.3358 -84.6711L-45.4863 -89.7878L-36.786 -84.7138ZM-46.8936 -92.0263L-56.7028 -86.3553L-65.467 -81.3026L-73.3569 -85.865L-84.019 -92.0263V-113.474L-77.3659 -117.311L-65.4457 -124.197L-53.163 -117.098L-46.8723 -113.474L-46.8936 -92.0263ZM-77.0247 -84.9696L-66.7678 -79.0641V-57.6168L-76.0438 -52.2442L-85.3411 -46.8931L-94.6171 -52.2442L-104.021 -57.6168V-79.0641L-93.6362 -85.0549L-85.4477 -89.7878L-77.0247 -84.9696ZM-86.6419 -92.0263L-97.9437 -85.5026L-105.215 -81.2387L-113.745 -86.2274L-123.682 -91.9624V-113.474L-117.732 -116.906L-105.109 -124.197L-93.7855 -117.652L-86.5353 -113.388L-86.6419 -92.0263ZM-117.007 -85.0549L-106.623 -79.0641V-57.6168L-115.899 -52.2442L-125.196 -46.8931L-134.472 -52.2442L-143.769 -57.6168V-79.0641L-133.107 -85.1401L-125.089 -89.7878L-117.007 -85.0549ZM-126.497 -92.0263L-137.159 -85.865L-145.07 -81.3026L-151.936 -85.2894L-163.622 -92.0263V-113.474L-156.585 -117.524L-145.049 -124.197L-133.107 -117.311L-126.475 -113.474L-126.497 -92.0263ZM-157.523 -85.5026L-146.371 -79.1067V-57.6168L-156.415 -51.7965L-164.944 -46.8931L-173.474 -51.8605L-183.432 -57.6168V-79.0641L-172.514 -85.3533L-164.859 -89.7878L-157.523 -85.5026ZM-166.245 -92.0263L-177.184 -85.6305L-184.818 -81.2174L-192.9 -85.9716L-203.392 -92.0263V-113.474L-196.504 -117.439L-184.818 -124.197L-172.578 -117.119L-166.181 -113.474L-166.245 -92.0263ZM-195.907 -84.7138L-186.055 -79.0641V-57.6168L-194.585 -52.692L-204.65 -46.8931L-214.629 -52.628L-223.266 -57.6168V-79.0641L-213.542 -84.6711L-204.692 -89.7878L-195.907 -84.7138ZM-205.993 -92.0263L-215.909 -86.3553L-224.652 -81.3026L-232.542 -85.865L-243.204 -92.0263V-113.474L-236.572 -117.311L-224.63 -124.197L-212.284 -117.098L-205.993 -113.474V-92.0263ZM-236.124 -84.9696L-225.867 -79.0641V-57.6168L-235.101 -52.2442L-244.398 -46.8931L-253.674 -52.2442L-263.014 -57.6168V-79.0641L-252.629 -85.0549L-244.441 -89.7878L-236.124 -84.9696ZM-245.763 -92.0263L-257.065 -85.5026L-264.336 -81.2387L-272.972 -86.2274L-282.909 -91.9624V-113.474L-276.96 -116.906L-264.336 -124.197L-253.013 -117.652L-245.763 -113.388V-92.0263ZM-255.678 -50.3681L-245.763 -44.6332V-23.1859L-257.448 -16.4489L-264.315 -12.4622L-272.098 -16.9819L-282.888 -23.1859V-44.6332L-274.358 -49.558L-264.293 -55.3569L-255.678 -50.3681ZM-256.638 17.854L-245.763 24.2499V45.5693L-253.418 50.0038L-264.336 56.3996L-277.131 49.0657L-282.888 45.5693V24.2499L-273.1 18.6215L-264.315 13.5262L-256.638 17.854ZM-245.763 93.0263V114.474L-254.612 119.59L-264.336 125.197L-275.467 118.802L-282.909 114.538V93.0263L-264.336 82.3666L-245.763 93.0263ZM-252.629 86.0762L-263.014 80.0855V58.6168L-254.612 53.756L-244.441 47.8931L-234.354 53.7133L-225.825 58.6168V80.0641L-236.124 86.0762L-244.441 90.8731L-252.629 86.0762ZM-243.14 93.0477L-224.567 82.388L-205.993 93.0477V114.495L-213.67 118.929L-224.567 125.219L-234.93 119.228L-243.14 114.495V93.0477ZM-213.542 85.6925L-223.266 80.0855V58.6168L-215.29 54.0971L-204.628 47.9784L-193.924 54.0971L-186.055 58.6168V80.0641L-195.843 85.7138L-204.628 90.7665L-213.542 85.6925ZM-203.392 93.0477L-184.818 82.388L-166.245 93.0477V114.495L-174.284 119.143L-184.818 125.219L-195.075 119.292L-203.392 114.495V93.0477ZM-172.6 86.3747L-183.518 80.0855V58.6168L-174.583 53.4575L-164.944 47.8931L-155.263 53.4788L-146.371 58.6168V80.0641L-157.523 86.46L-164.944 90.7238L-172.6 86.3747ZM-163.643 93.0477L-145.07 82.388L-126.497 93.0477V114.495L-134.685 119.228L-145.07 125.219L-154.837 119.569L-163.643 114.495V93.0477ZM-133.214 86.0762L-143.876 80.0002V58.6168L-135.559 53.8199L-125.303 47.8931L-115.131 53.756L-106.729 58.6168V80.0641L-117.007 86.0762L-125.196 90.7878L-133.214 86.0762ZM-123.895 92.9624L-105.322 82.3027L-86.7485 92.9624V114.41L-95.598 119.526L-105.322 125.133L-116.432 118.738L-123.895 114.474V92.9624ZM-93.6362 86.0762L-104.021 80.0855V58.6168L-95.6193 53.756L-85.4477 47.8931L-75.3614 53.7133L-66.8317 58.6168V80.0641L-77.1313 86.0762L-85.4477 90.8731L-93.6362 86.0762ZM-84.147 93.0477L-65.5736 82.388L-47.0003 93.0477V114.495L-54.677 118.929L-65.5736 125.219L-75.9372 119.228L-84.147 114.495V93.0477ZM-54.549 85.6925L-64.2728 80.0855V58.6168L-56.2976 54.0118L-45.6355 47.8931L-34.8669 54.0971L-27.0409 58.6168V80.0641L-36.786 85.7138L-45.5929 90.7665L-54.549 85.6925ZM-44.3987 93.0477L-25.8254 82.388L-7.23074 93.0477V114.495L-15.2913 119.143L-25.8254 125.219L-36.061 119.292L-44.3987 114.495V93.0477ZM-13.6067 86.3747L-24.5246 80.0855V58.6168L-15.5898 53.4575L-5.95126 47.8931L3.75119 53.4788L12.6434 58.6168V80.0641L1.49084 86.46L-5.95126 90.7238L-13.6067 86.3747ZM-4.65051 93.0477L13.9441 82.388L32.5175 93.0477V114.495L24.3077 119.228L13.9441 125.219L4.15634 119.569L-4.65051 114.495V93.0477ZM25.7791 86.0762L15.117 80.0002V58.6168L23.4334 53.8199L33.7116 47.8931L43.8833 53.756L52.285 58.6168V80.0641L41.9854 86.0762L33.8183 90.7878L25.7791 86.0762ZM35.0977 92.9624L53.6924 82.3027L72.2657 92.9624V114.41L63.3948 119.526L53.6924 125.133L42.5612 118.738L35.0977 114.474V92.9624ZM65.378 85.991L54.9078 80.0641V58.6168L63.3096 53.756L73.4812 47.8931L83.5675 53.7133L92.0972 58.6168V80.0641L81.8616 86.0762L73.5665 90.8731L65.378 85.991ZM74.8672 92.9624L93.4406 82.3027L112.014 92.9624V114.41L104.316 118.844L93.4406 125.133L83.0557 119.143L74.8672 114.41V92.9624ZM104.465 85.6072L94.7413 80.0002V58.6168L102.695 54.0118L113.357 47.8931L124.019 54.0971L131.845 58.6168V80.0641L122.058 85.7138L113.272 90.7665L104.465 85.6072ZM141.228 18.0459L151.762 24.122V45.5693L145.365 49.2789L133.21 56.293L121.759 49.6839L114.615 45.5693V24.2499L124.851 18.3444L133.189 13.5262L141.228 18.0459ZM142.465 -50.0697L151.762 -44.6972V-23.1859L140.204 -16.5555L133.146 -12.4622L125.619 -16.7261L114.573 -23.1219V-44.6332L123.849 -50.0057L133.146 -55.3569L142.465 -50.0697ZM145.429 -117.183L151.826 -113.538V-92.0263L140.866 -85.6305L133.253 -81.2174L125.15 -85.8863L114.615 -92.0263V-113.474L121.503 -117.439L133.189 -124.197L145.429 -117.183ZM114.615 -182.314L122.697 -186.983L133.189 -193.016L144.128 -186.621L151.762 -182.229V-160.867L143.744 -156.219L133.189 -150.143L122.911 -156.07L114.615 -160.867V-182.314ZM124.446 -152.19L131.888 -147.926V-126.436L120.693 -120.04L113.315 -115.776L105.638 -120.211L94.7413 -126.606V-147.883L102.418 -152.318L113.315 -158.607L124.446 -152.19ZM74.8672 -182.314L82.7572 -186.813L93.4193 -192.974L104.721 -186.45L111.993 -182.186V-160.867L104.316 -156.432L93.4193 -150.143L83.0131 -156.134L74.8459 -160.867L74.8672 -182.314ZM83.8234 -152.701L92.1398 -147.883V-126.436L80.6888 -119.848L73.5665 -115.712L66.7214 -119.656L54.9078 -126.436V-147.883L63.1816 -152.701L73.5665 -158.692L83.8234 -152.701ZM35.0977 -182.314L41.9854 -186.28L53.6924 -193.016L63.4375 -187.345L72.2017 -182.314V-160.867L63.4375 -155.75L53.7137 -150.143L42.5612 -156.539L35.119 -160.803L35.0977 -182.314ZM44.2458 -152.701L52.4556 -147.969V-126.436L40.706 -119.656L33.8822 -115.712L27.485 -119.422L15.3089 -126.436V-147.883L23.3481 -152.531L34.0102 -158.607L44.2458 -152.701ZM-4.58652 -182.399L4.07108 -187.388L14.0081 -193.102L24.6702 -186.94L32.5815 -182.399V-160.867L24.393 -156.134L14.0081 -150.143L4.22034 -155.793L-4.58652 -160.867V-182.399ZM3.94315 -153.043L12.75 -147.969V-126.436L-0.0444946 -119.102L-5.90866 -115.712L-12.3059 -119.379L-24.5459 -126.436V-147.883L-15.6751 -153L-5.97263 -158.607L3.94315 -153.043ZM-44.3987 -182.314L-36.2956 -186.983L-25.8254 -193.016L-14.8648 -186.621L-7.23074 -182.229V-160.867L-15.27 -156.219L-25.932 -150.143L-36.1889 -156.07L-44.5054 -160.867L-44.3987 -182.314ZM-34.6536 -152.19L-27.1902 -147.926V-126.436L-38.3853 -120.04L-45.7848 -115.776L-53.4402 -120.211L-64.3581 -126.606V-147.883L-56.6815 -152.318L-45.7848 -158.607L-34.6536 -152.19ZM-84.147 -182.314L-76.2357 -186.813L-65.5736 -192.974L-54.2505 -186.45L-47.0003 -182.186V-160.867L-54.6556 -156.432L-65.5736 -150.143L-75.9585 -156.134L-84.147 -160.867V-182.314ZM-75.1695 -152.701L-66.8531 -147.883V-126.436L-78.2828 -119.848L-85.4264 -115.712L-92.2288 -119.656L-103.978 -126.436V-147.883L-95.8113 -152.701L-85.4477 -158.692L-75.1695 -152.701ZM-123.895 -182.314L-117.007 -186.28L-105.322 -193.016L-95.4914 -187.345L-86.7485 -182.314V-160.867L-95.598 -155.75L-105.322 -150.143L-116.474 -156.539L-123.895 -160.803V-182.314ZM-114.811 -152.701L-106.623 -147.969V-126.436L-118.351 -119.656L-125.196 -115.712L-131.593 -119.422L-143.748 -126.436V-147.883L-135.709 -152.531L-125.175 -158.607L-114.811 -152.701ZM-163.643 -182.314L-154.986 -187.303L-145.07 -193.016L-134.408 -186.855L-126.518 -182.314V-160.867L-134.707 -156.134L-145.07 -150.143L-154.858 -155.793L-163.643 -160.867V-182.314ZM-155.114 -152.957L-146.328 -147.883V-126.436L-159.123 -119.102L-164.944 -115.712L-171.341 -119.379L-183.581 -126.436V-147.883L-174.732 -153L-165.008 -158.607L-155.114 -152.957ZM-203.392 -182.314L-195.288 -186.983L-184.818 -193.016L-173.858 -186.621L-166.245 -182.229V-160.867L-174.263 -156.219L-184.925 -150.143L-195.182 -156.07L-203.498 -160.867L-203.392 -182.314ZM-193.561 -152.19L-186.119 -147.926V-126.436L-197.293 -120.04L-204.692 -115.776L-212.348 -120.211L-223.266 -126.606V-147.883L-215.589 -152.318L-204.692 -158.607L-193.561 -152.19ZM-243.14 -182.314L-235.25 -186.813L-224.588 -192.974L-213.286 -186.45L-206.014 -182.186V-160.867L-213.67 -156.432L-224.567 -150.143L-234.951 -156.134L-243.14 -160.867V-182.314ZM-234.184 -152.701L-225.867 -147.883V-126.436L-237.233 -119.848L-244.377 -115.712L-251.2 -119.656L-262.95 -126.436V-147.883L-254.825 -152.701L-244.441 -158.692L-234.184 -152.701ZM-282.888 -182.314L-276 -186.28L-264.315 -193.016L-254.484 -187.345L-245.763 -182.314V-160.867L-254.612 -155.75L-264.315 -150.143L-275.467 -156.539L-282.888 -160.803V-182.314ZM-290.543 -119.422L-302.698 -126.436V-147.883L-294.808 -152.531L-284.146 -158.607L-273.804 -152.701L-265.615 -147.969V-126.436L-277.365 -119.656L-284.146 -115.712L-290.543 -119.422ZM-293.486 -52.2442L-302.762 -57.6168V-79.0641L-292.1 -85.1401L-284.146 -89.7878L-275.958 -85.0549L-265.573 -79.0641V-57.6168L-274.849 -52.2442L-284.146 -46.8931L-293.486 -52.2442ZM-294.808 15.85L-302.826 11.2237V-10.2236L-295.747 -14.317L-284.146 -20.9473L-272.908 -14.5515L-265.573 -10.2876V11.1597L-273.761 15.8927L-284.146 21.9474L-294.808 15.85ZM-292.271 86.2041L-302.933 80.1281V58.6168L-294.638 53.8199L-284.146 47.8931L-273.975 53.756L-265.573 58.6168V80.0641L-276 86.0762L-284.146 90.7665L-292.271 86.2041ZM-290.543 155.897L-302.698 148.883V127.436L-290.543 120.422L-284.146 116.712L-277.322 120.656L-265.573 127.436V148.883L-284.146 159.543L-290.543 155.897ZM-245.763 183.314L-264.336 193.974L-282.909 183.314V161.867L-264.336 151.207L-245.763 161.867V183.314ZM-251.286 155.599L-263.035 148.819V127.436L-251.286 120.656L-244.462 116.712L-237.233 120.848L-225.803 127.436V148.883L-244.377 159.543L-251.286 155.599ZM-206.014 183.314L-224.588 193.974L-243.161 183.314V161.867L-224.588 151.207L-206.014 161.867V183.314ZM-212.412 155.194L-223.33 148.798V127.436L-212.412 121.04L-204.756 116.606L-197.357 120.87L-186.183 127.265V148.713L-204.756 159.372L-212.412 155.194ZM-166.309 183.314L-184.882 193.974L-203.456 183.314V161.867L-184.882 151.207L-166.309 161.867V183.314ZM-171.341 155.94L-183.581 148.883V127.436L-171.341 120.379L-164.944 116.712L-159.08 120.187L-146.286 127.521V148.969L-164.859 159.628L-171.341 155.94ZM-126.561 183.314L-145.134 193.974L-163.707 183.314V161.867L-145.134 151.207L-126.561 161.867V183.314ZM-131.678 155.897L-143.833 148.883V127.436L-131.678 120.422L-125.281 116.712L-118.436 120.656L-106.708 127.436V148.883L-125.281 159.543L-131.678 155.897ZM-86.8978 183.314L-105.471 193.974L-124.044 183.314V161.867L-105.471 151.207L-86.8978 161.867V183.314ZM-92.4207 155.599L-104.17 148.819V127.436L-92.4207 120.656L-85.597 116.712L-78.4534 120.848L-67.0237 127.436V148.883L-85.597 159.543L-92.4207 155.599ZM-47.1495 183.314L-65.7229 193.974L-84.2962 183.314V161.867L-65.7229 151.207L-47.1495 161.867V183.314ZM-53.5468 155.194L-64.4648 148.798V127.436L-53.5468 121.04L-45.8914 116.606L-38.4919 120.87L-27.2968 127.265V148.713L-45.8914 159.372L-53.5468 155.194ZM-7.42264 183.314L-26.0173 193.974L-44.5907 183.314V161.867L-26.0173 151.207L-7.42264 161.867V183.314ZM-12.4765 155.94L-24.7165 148.883V127.436L-12.4765 120.379L-6.07925 116.712L-0.215088 120.102L12.5794 127.436V148.883L-6.01529 159.543L-12.4765 155.94ZM32.3042 183.314L13.7309 193.974L-4.86374 183.314V161.867L13.7309 151.207L32.3042 161.867V183.314ZM27.1865 155.897L15.0103 148.883V127.436L27.1865 120.422L33.5837 116.712L40.4074 120.656L52.157 127.436V148.883L33.5837 159.543L27.1865 155.897ZM71.9672 183.314L53.3938 193.974L34.7992 183.314V161.867L53.3938 151.207L71.9672 161.867V183.314ZM66.4229 155.599L54.6946 148.819V127.436L66.4229 120.656L73.2679 116.712L80.3902 120.848L91.8413 127.436V148.883L73.2679 159.543L66.4229 155.599ZM111.715 183.314L93.142 193.974L74.5687 183.314V161.867L93.142 151.207L111.715 161.867V183.314ZM105.318 155.194L94.4215 148.798V127.436L105.318 121.04L112.995 116.606L120.373 120.87L131.568 127.265V148.713L112.995 159.372L105.318 155.194ZM114.615 183.314V161.867L133.189 151.207L151.762 161.867V183.314L133.189 193.974L114.615 183.314Z" fill="url(#paint2_radial_242_57)"/>
</g>
<defs>
<linearGradient id="paint0_linear_242_57" x1="0" y1="0" x2="1528.77" y2="528.838" gradientUnits="userSpaceOnUse">
<stop stop-color="#867DFD"/>
<stop offset="1" stop-color="#2C20C8"/>
</linearGradient>
<linearGradient id="paint1_linear_242_57" x1="0" y1="0" x2="1458.94" y2="635.474" gradientUnits="userSpaceOnUse">
<stop stop-color="#B4E5FF"/>
<stop offset="1" stop-color="#2EB7FF"/>
</linearGradient>
<radialGradient id="paint2_radial_242_57" cx="0" cy="0" r="1" gradientUnits="userSpaceOnUse" gradientTransform="translate(-75.4787 0.468048) rotate(90) scale(206.468 238.521)">
<stop stop-color="white"/>
<stop offset="1" stop-color="white" stop-opacity="0"/>
</radialGradient>
</defs>
</svg>
