<svg width="325" height="261" viewBox="0 0 325 261" fill="none" xmlns="http://www.w3.org/2000/svg">
<rect width="325" height="260" fill="url(#paint0_linear_275_56)"/>
<g clip-path="url(#clip0_275_56)">
<path d="M314.698 250.602L319.076 248.08L323.308 250.505L324.727 251.317V249.608L319.816 246.783V234.61L324.727 231.773V230.063L319.04 233.325L315.402 231.24L308.453 227.226V215.029L315.402 211.016L319.04 208.931L322.363 210.858L324.691 212.192V210.495L319.779 207.658V195.461L324.691 192.623V190.914L323.26 191.75L319.04 194.175L314.674 191.666L308.477 188.089V175.892L313.558 172.958L319.04 169.793L324.545 172.97L324.691 173.055V171.345L323.975 170.933L319.779 168.508V156.347L324.691 153.51V151.813H324.606L319.04 155.038L313.51 151.849L308.477 148.939V136.742L313.013 134.123L319.076 130.644L324.727 133.905V132.196L319.816 129.371V117.174L324.727 114.336V112.627L323.915 113.1L319.064 115.888L314.189 113.063L308.538 109.79V97.5927L314.735 94.016L319.1 91.4942L323.321 93.919L324.752 94.7556V93.0582L319.84 90.2211V78.024L323.83 75.7204L324.752 75.1869V73.4774L322.423 74.8232L319.04 76.751L315.402 74.6656L308.453 70.6524V58.4553L313.486 55.5455L319.04 52.3567L324.594 55.5697H324.691V53.9087L319.779 51.0716V38.8745L324.691 36.0495V34.3399L322.423 35.6494L319.04 37.6014L315.462 35.5403L308.513 31.4665V25.4043H307.034V31.4665L300.461 35.2614L296.471 37.565L292.336 35.1402L285.909 31.4665V25.4043H284.429V31.4665L277.808 35.3341L273.891 37.6014L270.107 35.419L263.255 31.4665V25.4043H261.776V31.4665L254.985 35.3826L251.213 37.565L247.575 35.4796L240.687 31.4665V25.4043H239.22V31.4665L232.028 35.613L228.645 37.565L225.007 35.5039L218.082 31.4665V25.4043H216.615V31.4665L210.042 35.2614L206.04 37.565L201.917 35.1402L195.477 31.4665V25.4043H193.998V31.4665L187.352 35.2978L183.435 37.565L179.664 35.3826L172.873 31.4665V25.4043H171.393V31.4665L164.614 35.419L160.83 37.6014L157.192 35.516L150.268 31.4665V25.4043H148.788V31.4665L141.609 35.6494L138.226 37.6014L134.587 35.5403L127.663 31.4665V25.4043H126.22V31.4665L119.623 35.2978L115.621 37.6014L111.498 35.1765L105.058 31.4665V25.4043H103.579V31.4665L96.933 35.3341L93.0159 37.6014L89.2444 35.419L82.4533 31.4665V25.4043H80.9738V31.4665L74.1826 35.3826L70.4354 37.6014L66.7973 35.516L59.8485 31.4665V25.4043H58.369V31.4665L53.4575 34.3399V36.0495L59.1087 32.788L65.1844 36.3162L69.6714 38.8987V51.0716L65.0146 53.7632L59.1087 57.1701L53.4575 53.9087V55.6182L58.369 58.4553V70.6524L53.4575 73.4774V75.1869L59.1087 71.9255L65.8999 75.8416L69.6714 78.024V90.2211L63.6079 93.7251L59.1208 96.3197L53.4575 93.0582V94.7678L58.369 97.5927V109.79L53.4575 112.627V114.336L54.27 113.912L59.1208 111.124L64.3719 114.118L69.6471 117.174V129.371L63.244 133.008L59.0845 135.433L53.4575 132.196V133.905L53.9305 134.184L58.369 136.742V148.939L53.5182 151.776V153.474L54.8764 152.71L59.1087 150.285L63.7776 152.977L69.6714 156.347V168.472L65.7907 170.715L59.1087 174.57L53.4575 171.345V173.055L58.369 175.892V188.089L53.5182 190.914V192.623L59.1694 189.362L69.732 195.424V207.621L65.0631 210.313L59.1694 213.72L53.4575 210.495V212.192L58.369 215.029V227.226L53.4575 230.063V231.773L59.1087 228.512L69.6714 234.574V246.771L59.1087 252.833L53.4575 249.632V251.342L58.369 254.179V260.241H59.8485V254.179L65.8392 250.723L70.4354 248.08L75.1043 250.772L80.998 254.179V260.241H82.4775V254.179L88.3713 250.772L93.0402 248.08L97.7697 250.808L103.603 254.179V260.241H105.082V254.179L110.612 250.99L115.645 248.08L120.629 250.917L126.22 254.179V260.241H127.699V254.179L133.896 250.602L138.262 248.08L142.506 250.505L148.825 254.142V260.205H150.304V254.142L156.295 250.687L160.867 248.044L165.536 250.736L171.429 254.142V260.205H172.909V254.142L178.815 250.736L183.472 248.044L188.213 250.772L194.034 254.142V260.205H195.514V254.142L201.044 250.954L206.076 248.044L211.109 250.917L216.675 254.13V260.192H218.143V254.13L224.34 250.554L228.705 248.032L232.95 250.457L239.28 254.094V260.156H240.748V254.094L246.738 250.639L251.322 247.995L255.979 250.687L261.885 254.094V260.156H263.255V254.094L269.149 250.687L273.818 247.995L278.548 250.723L284.381 254.094V260.156H285.86V254.094L291.378 250.905L296.423 247.995L301.419 250.881L306.985 254.094V260.156H308.465V254.094L314.698 250.602ZM318.336 195.461V207.658L313.764 210.301L307.774 213.756L301.941 210.386L297.211 207.658V195.461L307.774 189.398L318.336 195.461ZM99.2977 134.269L103.579 136.694V148.891L98.849 151.619L93.0159 154.989L87.1101 151.582L82.4533 148.891V136.742L86.625 134.317L93.0159 130.68L99.2977 134.269ZM93.7557 129.419V117.174L99.0431 114.118L104.318 111.075L109.982 114.336L114.832 117.174V129.371L108.769 132.85L104.233 135.469L100.074 133.044L93.7557 129.419ZM93.7557 156.359L99.6615 152.953L104.318 150.261L109.363 153.171L114.881 156.347V168.472L111.243 170.557L104.282 174.57L97.6 170.715L93.7557 168.472V156.359ZM109.412 151.51L105.058 149V136.742L108.987 134.524L115.621 130.692L122.424 134.524L126.22 136.742V148.939L122 151.364L115.657 155.002L109.412 151.51ZM116.36 129.431V117.174L121.648 114.118L126.923 111.075L132.211 114.118L137.486 117.174V129.371L130.937 133.141L126.923 135.469L122.642 133.044L116.36 129.431ZM116.36 156.372L122.194 153.013L126.923 150.273L131.495 152.916L137.486 156.347V168.472L133.848 170.581L126.935 174.57L120.423 170.897L116.36 168.472V156.372ZM132.696 151.91L127.663 149V136.742L132.198 134.123L138.262 130.644L144.325 134.184L148.764 136.742V148.939L143.768 151.825L138.201 155.038L132.696 151.91ZM138.965 129.431V117.174L144.689 113.912L149.54 111.124L154.827 114.167L160.103 117.222V129.371L153.7 133.008L149.54 135.433L145.793 133.311L138.965 129.431ZM138.965 156.372L145.296 152.734L149.528 150.309L154.197 153.001L160.091 156.347V168.472L156.21 170.715L149.528 174.57L143.198 170.897L138.99 168.472L138.965 156.372ZM154.827 151.631L150.268 149V136.742L154.294 134.414L160.83 130.644L167.221 134.281L171.393 136.706V148.903L166.748 151.595L160.83 155.002L154.827 151.631ZM161.57 129.431V117.174L166.421 114.373L172.133 111.075L176.984 113.9L182.635 117.174V129.371L176.001 133.202L172.072 135.469L167.646 132.899L161.57 129.431ZM161.57 156.372L167.136 153.171L172.133 150.273L176.511 152.795L182.695 156.432V168.472L178.366 171.03L172.157 174.667L164.881 170.496L161.57 168.472V156.372ZM177.529 151.692L172.873 149V136.742L177.044 134.317L183.435 130.68L189.717 134.317L193.998 136.742V148.939L189.28 151.667L183.435 155.038L177.529 151.692ZM184.175 129.431V117.174L189.462 114.118L194.738 111.075L200.401 114.336L205.252 117.174V129.371L199.188 132.85L194.653 135.469L190.493 133.044L184.175 129.431ZM184.175 156.372L190.081 152.965L194.738 150.273L199.782 153.183L205.3 156.372V168.472L201.662 170.557L194.701 174.57L188.031 170.715L184.175 168.472V156.372ZM199.843 151.522L195.477 149.012V136.742L199.419 134.524L206.04 130.692L212.855 134.524L216.615 136.694V148.891L212.382 151.316L206.04 154.953L199.843 151.522ZM206.78 129.443V117.174L212.067 114.118L217.342 111.075L222.63 114.118L227.917 117.174V129.371L221.369 133.141L217.342 135.469L213.074 133.044L206.78 129.443ZM206.78 156.384L212.613 153.025L217.342 150.285L221.926 152.928L227.917 156.384V168.472L224.279 170.581L217.354 174.57L210.854 170.812L206.78 168.472V156.384ZM223.115 151.922L218.082 149.012V136.742L222.63 134.123L228.693 130.644L234.757 134.184L239.207 136.742V148.939L234.199 151.825L228.633 155.038L223.115 151.922ZM229.385 129.443V117.174L235.108 113.912L239.959 111.124L245.235 114.167L250.522 117.222V129.371L244.119 133.008L239.959 135.433L236.212 133.311L229.385 129.443ZM229.385 156.384L235.715 152.746L239.959 150.322L244.616 153.013L250.522 156.347V168.472L246.629 170.715L239.959 174.57L233.593 170.933L229.385 168.508V156.384ZM245.259 151.643L240.687 149.012V136.742L244.725 134.414L251.262 130.644L257.653 134.281L261.824 136.706V148.903L257.192 151.631L251.286 155.038L245.259 151.643ZM251.989 129.443V117.174L256.84 114.373L262.564 111.075L267.415 113.9L273.078 117.174V129.371L266.433 133.202L262.516 135.469L258.077 132.899L251.989 129.443ZM251.989 156.384L257.556 153.183L262.564 150.285L266.893 152.71L273.09 156.347V168.472L268.725 170.994L262.528 174.631L255.251 170.46L251.989 168.472V156.384ZM267.949 151.704L263.255 148.939V136.742L267.427 134.317L273.818 130.68L280.088 134.317L284.381 136.742V148.939L279.651 151.667L273.818 155.038L267.949 151.704ZM274.606 129.443V117.174L279.882 114.118L285.169 111.075L290.82 114.336L295.732 117.174V129.371L289.668 132.85L285.145 135.469L280.973 133.044L274.606 129.443ZM274.606 156.384L280.5 152.977L285.169 150.285L290.202 153.195L295.732 156.384V168.472L292.093 170.557L285.145 174.57L278.463 170.715L274.582 168.472L274.606 156.384ZM290.262 151.534L285.909 149.024V136.742L289.838 134.524L296.471 130.692L303.275 134.524L307.034 136.694V148.891L302.814 151.316L296.471 154.953L290.262 151.534ZM290.808 112.736L285.957 109.899V97.5927L291.487 94.404L296.52 91.4942L301.516 94.3798L307.082 97.5927V109.79L302.232 112.591L296.52 115.888L290.808 112.736ZM295.732 90.3302L290.141 93.5553L285.169 96.4288L280.67 93.8342L274.606 90.3302V78.024L278.378 75.8416L285.169 71.9255L292.154 75.9629L295.732 78.024V90.3302ZM278.584 94.3434L284.429 97.7019V109.79L279.142 112.845L273.867 115.888L268.579 112.845L263.255 109.79V97.5927L269.161 94.1858L273.818 91.4942L278.584 94.3434ZM273.127 90.3302L266.687 94.0403L262.564 96.4652L257.641 93.6281L251.989 90.3666V78.024L255.373 76.072L262.564 71.9255L268.991 75.6476L273.127 78.0725V90.3302ZM255.906 94.2949L261.824 97.7019V109.79L256.537 112.845L251.262 115.888L245.974 112.845L240.687 109.79V97.5927L246.75 94.1373L251.322 91.4942L255.906 94.2949ZM250.522 90.3302L244.458 93.8342L239.971 96.4288L236.054 94.1615L229.397 90.3302V78.024L233.399 75.7204L239.971 71.9255L246.75 75.8416L250.534 78.024L250.522 90.3302ZM232.938 93.9312L239.28 97.5685V109.79L233.556 113.1L228.705 115.888L223.855 113.063L218.191 109.79V97.5927L224.4 94.016L228.754 91.4942L232.938 93.9312ZM227.978 90.2211L221.744 93.8584L217.403 96.3682L212.807 93.7129L206.84 90.2696V78.024L210.757 75.7689L217.403 71.9255L224.376 75.9507L228.014 78.024L227.978 90.2211ZM211.109 94.3798L216.675 97.5927V109.79L211.825 112.591L206.101 115.888L200.449 112.627L195.599 109.79V97.5927L201.129 94.404L206.161 91.4942L211.109 94.3798ZM205.361 90.2211L199.782 93.4462L194.798 96.3197L190.311 93.7251L184.248 90.2211V78.024L188.031 75.8416L194.81 71.9255L201.796 75.9629L205.373 78.024L205.361 90.2211ZM188.225 94.2343L194.058 97.5927V109.79L188.783 112.845L183.496 115.888L178.221 112.845L172.873 109.79V97.5927L178.778 94.1858L183.435 91.4942L188.225 94.2343ZM182.756 90.2211L176.329 93.9312L172.193 96.356L167.343 93.5189L161.691 90.2575V78.024L165.075 76.072L172.254 71.9255L178.693 75.6476L182.817 78.0725L182.756 90.2211ZM165.487 94.1858L171.393 97.5927V109.79L166.118 112.845L160.83 115.888L155.555 112.845L150.268 109.79V97.5927L156.331 94.1373L160.891 91.4942L165.487 94.1858ZM160.091 90.2211L154.027 93.7251L149.528 96.3197L145.623 94.0524L138.977 90.2211V78.024L142.979 75.7204L149.54 71.9255L156.331 75.8416L160.103 78.024L160.091 90.2211ZM142.446 93.9312L148.788 97.5685V109.79L143.076 113.1L138.226 115.888L133.375 113.063L127.711 109.79V97.5927L133.92 94.016L138.274 91.4942L142.446 93.9312ZM137.486 90.2211L131.265 93.8584L126.923 96.3682L122.327 93.6644L116.36 90.2211V78.024L120.278 75.7689L126.923 71.9255L133.884 75.9507L137.522 78.024L137.486 90.2211ZM120.617 94.3798L126.22 97.5927V109.79L121.369 112.591L115.645 115.888L109.97 112.627L105.058 109.79V97.5927L110.588 94.404L115.621 91.4942L120.617 94.3798ZM114.881 90.2211L109.242 93.4462L104.27 96.3197L99.7828 93.7251L93.7193 90.2211V78.024L97.4908 75.8416L104.282 71.9255L111.304 75.9629L114.881 78.024V90.2211ZM97.7455 94.2343L103.579 97.5927V109.79L98.3276 112.845L93.0402 115.888L87.7649 112.845L82.4533 109.79V97.5927L88.3591 94.1858L93.0159 91.4942L97.7455 94.2343ZM92.2641 90.2211L85.8367 93.9312L81.7014 96.356L76.7899 93.5189L71.1387 90.2575V78.024L74.5222 76.072L81.7014 71.9255L88.1409 75.6476L92.2641 78.0725V90.2211ZM86.625 113.912L92.2641 117.174V129.371L85.6184 133.202L81.7135 135.469L77.2872 132.899L71.1509 129.371V117.174L76.0017 114.373L81.7257 111.075L86.625 113.912ZM86.0793 152.71L92.2641 156.347V168.472L87.9104 170.994L81.7014 174.631L74.4252 170.46L71.1509 168.472V156.347L76.7172 153.147L81.7135 150.249L86.0793 152.71ZM92.2641 195.461V207.658L87.2313 210.568L81.7014 213.756L75.3711 210.119L71.1387 207.694V195.461L81.7014 189.398L92.2641 195.461ZM88.3591 191.508L82.4533 188.101V175.892L87.2313 173.127L93.0159 169.793L98.752 173.103L103.603 175.892V188.089L97.7455 191.508L93.0159 194.236L88.3591 191.508ZM93.7557 195.473L104.318 189.41L114.881 195.473V207.67L110.515 210.192L104.318 213.768L98.4246 210.361L93.7557 207.67V195.473ZM110.588 191.29L105.058 188.101V175.892L109.594 173.321L115.657 169.842L121.745 173.321L126.22 175.892V188.089L120.653 191.302L115.657 194.175L110.588 191.29ZM116.36 195.473L126.923 189.41L137.486 195.473V207.67L132.914 210.313L126.923 213.768L121.09 210.398L116.36 207.67V195.473ZM133.872 191.678L127.663 188.101V175.892L132.744 172.958L138.226 169.793L143.731 172.97L148.788 175.892V188.089L142.446 191.726L138.226 194.151L133.872 191.678ZM138.965 195.473L149.528 189.41L160.091 195.473V207.67L155.434 210.361L149.528 213.768L143.974 210.555L138.965 207.67V195.473ZM156.271 191.508L150.207 188.053V175.892L154.937 173.164L160.77 169.793L166.554 173.127L171.332 175.892V188.089L165.487 191.508L160.83 194.188L156.271 191.508ZM161.57 195.424L172.133 189.362L182.695 195.424V207.621L177.663 210.531L172.133 213.72L165.815 210.083L161.57 207.658V195.424ZM178.778 191.508L172.873 188.101V175.892L177.651 173.127L183.435 169.793L189.171 173.103L194.022 175.892V188.089L188.165 191.508L183.435 194.236L178.778 191.508ZM184.175 195.473L194.738 189.41L205.3 195.473V207.67L200.934 210.192L194.738 213.768L188.844 210.361L184.175 207.67V195.473ZM201.007 191.29L195.477 188.101V175.892L200.013 173.273L206.076 169.793L212.2 173.321L216.651 175.892V188.089L211.109 191.302L206.101 194.175L201.007 191.29ZM206.78 195.473L217.342 189.41L227.917 195.473V207.67L223.333 210.313L217.342 213.768L211.521 210.398L206.78 207.67V195.473ZM224.291 191.678L218.082 188.101V175.892L223.163 172.958L228.645 169.793L234.163 172.97L239.22 175.892V188.089L232.877 191.726L228.645 194.151L224.291 191.678ZM229.385 195.473L239.959 189.41L250.522 195.473V207.67L245.853 210.361L239.959 213.768L234.393 210.555L229.385 207.67V195.473ZM246.69 191.508L240.626 188.053V175.892L245.356 173.164L251.201 169.793L256.986 173.127L261.764 175.892V188.089L255.906 191.508L251.262 194.188L246.69 191.508ZM251.989 195.424L262.564 189.362L273.127 195.424V207.621L268.082 210.531L262.564 213.72L256.234 210.083L251.989 207.658V195.424ZM269.21 191.46L263.255 188.089V175.892L268.033 173.127L273.818 169.793L279.554 173.103L284.405 175.892V188.089L278.584 191.508L273.867 194.236L269.21 191.46ZM274.606 195.424L285.169 189.362L295.732 195.424V207.621L291.354 210.143L285.169 213.72L279.263 210.313L274.606 207.621V195.424ZM291.439 191.241L285.909 188.053V175.892L290.432 173.273L296.496 169.793L302.559 173.321L307.01 175.892V188.089L301.443 191.302L296.447 194.175L291.439 191.241ZM312.346 152.819L318.336 156.275V168.472L314.698 170.581L307.786 174.57L301.274 170.812L297.211 168.472V156.347L303.032 152.989L307.774 150.249L312.346 152.819ZM313.049 114.082L318.336 117.137V129.371L311.764 133.141L307.749 135.469L303.469 133.044L297.187 129.407V117.174L302.462 114.118L307.749 111.075L313.049 114.082ZM314.735 75.9144L318.373 77.9876V90.2211L312.139 93.8584L307.81 96.3682L303.202 93.7129L297.211 90.2211V78.024L301.128 75.7689L307.774 71.9255L314.735 75.9144ZM297.211 38.8745L301.807 36.2192L307.774 32.788L313.995 36.4253L318.336 38.923V51.0716L313.777 53.7147L307.774 57.1701L301.928 53.7995L297.211 51.0716V38.8745ZM302.802 56.0062L307.034 58.431V70.6524L300.667 74.2897L296.471 76.7146L292.106 74.1927L285.909 70.5554V58.4553L290.274 55.9334L296.471 52.3567L302.802 56.0062ZM274.606 38.8745L279.093 36.3162L285.157 32.8123L291.584 36.5223L295.719 38.9472V51.0716L291.354 53.5934L285.157 57.1701L279.239 53.7632L274.594 51.0716L274.606 38.8745ZM279.7 55.7152L284.429 58.4553V70.6524L277.917 74.3988L273.867 76.751L269.974 74.5079L263.255 70.6524V58.4553L267.961 55.7152L273.867 52.3082L279.7 55.7152ZM251.989 38.8745L255.906 36.6193L262.564 32.788L268.106 36.0131L273.09 38.8745V51.0716L268.106 53.9814L262.576 57.1701L256.234 53.5328L252.001 51.1079L251.989 38.8745ZM257.192 55.7152L261.861 58.4068V70.6524L255.179 74.5079L251.298 76.751L247.66 74.6413L240.735 70.6524V58.4553L245.307 55.8122L251.371 52.3567L257.192 55.7152ZM229.421 38.826L234.344 35.9889L239.996 32.7395L246.059 36.2435L250.558 38.826V51.0716L245.902 53.7632L239.996 57.1701L234.429 53.9572L229.421 51.0716V38.826ZM234.272 55.5212L239.28 58.4068V70.6524L232.004 74.8232L228.669 76.751L225.031 74.6656L218.07 70.6524V58.4553L223.115 55.5455L228.633 52.3567L234.272 55.5212ZM206.78 38.8745L211.388 36.2192L217.342 32.788L223.576 36.4253L227.917 38.923V51.0716L223.345 53.7147L217.282 57.1701L211.449 53.7995L206.719 51.0716L206.78 38.8745ZM212.322 56.0062L216.566 58.431V70.6524L210.2 74.2897L205.991 76.7146L201.638 74.1927L195.429 70.5554V58.4553L199.795 55.9334L205.991 52.3567L212.322 56.0062ZM184.175 38.8745L188.674 36.3162L194.738 32.8123L201.177 36.5223L205.3 38.9472V51.0716L200.947 53.5934L194.738 57.1701L188.832 53.7632L184.175 51.0716V38.8745ZM189.28 55.7152L194.01 58.4553V70.6524L187.51 74.3988L183.447 76.751L179.579 74.5079L172.897 70.6524V58.4553L177.541 55.7152L183.435 52.3082L189.28 55.7152ZM161.57 38.8745L165.487 36.6193L172.133 32.788L177.723 36.0131L182.695 38.8745V51.0716L177.663 53.9814L172.133 57.1701L165.79 53.5328L161.57 51.1079V38.8745ZM166.736 55.7152L171.393 58.4068V70.6524L164.723 74.5079L160.83 76.751L157.192 74.6413L150.28 70.6524V58.4553L154.852 55.8122L160.842 52.3567L166.736 55.7152ZM138.965 38.8745L143.889 36.0374L149.528 32.788L155.591 36.292L160.078 38.8745V51.0716L155.422 53.7632L149.528 57.1701L143.962 53.9572L138.965 51.0716V38.8745ZM143.816 55.5697L148.812 58.4553V70.6524L141.536 74.8232L138.226 76.751L134.587 74.6656L127.627 70.6524V58.4553L132.659 55.5455L138.189 52.3567L143.816 55.5697ZM116.36 38.8745L120.969 36.2192L126.923 32.788L133.156 36.4253L137.486 38.923V51.0716L132.926 53.7147L126.863 57.1701L121.029 53.7995L116.3 51.0716L116.36 38.8745ZM121.951 56.0062L126.183 58.431V70.6524L119.829 74.2897L115.621 76.7146L111.267 74.1927L105.058 70.5554V58.4553L109.424 55.9334L115.621 52.3567L121.951 56.0062ZM93.7557 38.8745L98.2427 36.3162L104.306 32.8123L110.734 36.5223L114.869 38.9472V51.0716L110.515 53.5934L104.318 57.1701L98.4125 53.7632L93.7557 51.0716V38.8745ZM98.849 55.7152L103.579 58.4553V70.6524L97.1149 74.3988L93.0523 76.751L89.1717 74.5079L82.4897 70.6524V58.4553L87.1101 55.7152L93.0159 52.3082L98.849 55.7152ZM71.1509 38.8745L75.0679 36.6193L81.7135 32.788L87.3041 36.0131L92.2641 38.8745V51.0716L87.2313 53.9814L81.7135 57.1701L75.3711 53.5328L71.1509 51.1079V38.8745ZM66.7973 74.6413L59.8849 70.6524V58.4553L64.3719 55.8122L70.4354 52.3567L76.317 55.7152L80.9738 58.4068V70.6524L74.2918 74.5079L70.4354 76.751L66.7973 74.6413ZM65.1237 112.845L59.8485 109.79V97.5927L65.912 94.1373L70.4354 91.4942L75.0922 94.1858L80.998 97.5927V109.79L75.7228 112.845L70.4354 115.888L65.1237 112.845ZM64.3719 151.57L59.8121 148.939V136.742L63.8383 134.414L70.4354 130.644L76.8263 134.281L80.998 136.706V148.903L76.3412 151.595L70.4354 155.038L64.3719 151.57ZM65.815 191.581L59.7515 188.125V175.892L64.4689 173.164L70.4354 169.793L76.22 173.127L80.998 175.892V188.089L75.0679 191.508L70.4354 194.175L65.815 191.581ZM66.7973 231.215L59.8849 227.226V215.029L66.7973 211.04L70.4354 208.931L74.316 211.174L80.998 215.029V227.226L70.4354 233.289L66.7973 231.215ZM92.2641 246.807L81.7014 252.869L71.1387 246.807V234.61L81.7014 228.548L92.2641 234.61V246.807ZM89.1231 231.046L82.4411 227.19V215.029L89.1231 211.174L93.0038 208.931L97.1149 211.283L103.615 215.029V227.226L93.0523 233.289L89.1231 231.046ZM114.869 246.807L104.306 252.869L93.7436 246.807V234.61L104.306 228.548L114.869 234.61V246.807ZM111.231 230.815L105.022 227.178V215.029L111.231 211.392L115.584 208.87L119.792 211.295L126.147 214.932V227.129L115.584 233.192L111.231 230.815ZM137.449 246.807L126.887 252.869L116.324 246.807V234.61L126.887 228.548L137.449 234.61V246.807ZM134.587 231.24L127.627 227.226V215.029L134.587 211.016L138.226 208.931L141.56 210.907L148.837 215.078V227.275L138.274 233.337L134.587 231.24ZM160.054 246.807L149.492 252.869L138.929 246.807V234.61L149.492 228.548L160.054 234.61V246.807ZM157.144 231.215L150.231 227.226V215.029L157.144 211.04L160.782 208.931L164.675 211.174L171.344 215.029V227.226L160.782 233.289L157.144 231.215ZM182.611 246.807L172.048 252.869L161.485 246.807V234.61L172.048 228.548L182.611 234.61V246.807ZM179.47 231.046L172.788 227.19V215.029L179.47 211.174L183.35 208.931L187.413 211.283L193.913 215.029V227.226L183.35 233.289L179.47 231.046ZM205.215 246.807L194.653 252.869L184.09 246.807V234.61L194.653 228.548L205.215 234.61V246.807ZM201.577 230.815L195.368 227.178V215.029L201.577 211.392L205.931 208.87L210.139 211.295L216.506 214.932V227.129L205.931 233.192L201.577 230.815ZM227.808 246.807L217.233 252.869L206.671 246.807V234.61L217.233 228.548L227.808 234.61V246.807ZM224.934 231.24L217.973 227.226V215.029L224.934 211.016L228.572 208.931L231.907 210.858L239.183 215.029V227.226L228.608 233.289L224.934 231.24ZM250.401 246.807L239.838 252.869L229.263 246.807V234.61L239.838 228.548L250.401 234.61V246.807ZM247.49 231.215L240.566 227.226V215.029L247.49 211.04L251.128 208.931L255.009 211.174L261.691 215.029V227.226L251.128 233.289L247.49 231.215ZM272.957 246.807L262.394 252.869L251.82 246.807V234.61L262.394 228.548L272.957 234.61V246.807ZM269.804 231.046L263.134 227.19V215.029L269.804 211.174L273.697 208.931L277.747 211.283L284.259 215.029V227.226L273.697 233.289L269.804 231.046ZM295.562 246.807L284.999 252.869L274.436 246.807V234.61L284.999 228.548L295.562 234.61V246.807ZM291.924 230.815L285.727 227.178V215.029L291.924 211.392L296.289 208.87L300.485 211.295L306.852 214.932V227.129L296.289 233.192L291.924 230.815ZM297.211 246.807V234.61L307.774 228.548L318.336 234.61V246.807L307.774 252.869L297.211 246.807Z" fill="url(#paint1_radial_275_56)"/>
</g>
<defs>
<linearGradient id="paint0_linear_275_56" x1="0" y1="0" x2="213.415" y2="326.448" gradientUnits="userSpaceOnUse">
<stop stop-color="#867DFD"/>
<stop offset="1" stop-color="#2B1FC7"/>
</linearGradient>
<radialGradient id="paint1_radial_275_56" cx="0" cy="0" r="1" gradientUnits="userSpaceOnUse" gradientTransform="translate(189.105 142.823) rotate(90) scale(117.418 135.647)">
<stop stop-color="white"/>
<stop offset="1" stop-color="white" stop-opacity="0"/>
</radialGradient>
<clipPath id="clip0_275_56">
<rect width="271.27" height="234.873" fill="white" transform="translate(53.4575 25.4043)"/>
</clipPath>
</defs>
</svg>
