<svg width="104" height="17" viewBox="0 0 104 17" fill="none" xmlns="http://www.w3.org/2000/svg">
<g clip-path="url(#clip0_511_867)">
<path d="M21.6725 16.4794C20.0966 16.4794 18.8346 16.0111 17.8863 15.0746C16.938 14.1381 16.4629 12.8975 16.4609 11.3529V4.93004C16.4609 4.87299 16.4834 4.81822 16.5235 4.77761C16.5635 4.73699 16.618 4.71378 16.675 4.71301H18.6077C18.6648 4.71378 18.7192 4.73699 18.7593 4.77761C18.7994 4.81822 18.8218 4.87299 18.8218 4.93004V11.0097C18.8218 12.0186 19.077 12.8056 19.5873 13.3706C19.8514 13.6564 20.175 13.8808 20.5354 14.0277C20.8957 14.1747 21.2839 14.2407 21.6725 14.2211C22.0651 14.2419 22.4575 14.1756 22.8215 14.027C23.1855 13.8785 23.5122 13.6513 23.7783 13.3618C24.3171 12.7026 24.5901 11.8658 24.5437 11.0156V4.93004C24.5437 4.87248 24.5666 4.81728 24.6073 4.77658C24.648 4.73588 24.7032 4.71301 24.7608 4.71301H26.6876C26.7447 4.71378 26.7991 4.73699 26.8392 4.77761C26.8792 4.81822 26.9017 4.87299 26.9017 4.93004V11.3529C26.9017 12.8975 26.4266 14.139 25.4764 15.0775C24.5261 16.016 23.2582 16.4833 21.6725 16.4794Z" fill="#FF8320"/>
<path d="M35.6724 16.4793C34.2676 16.4793 33.1414 16.1215 32.288 15.4147C31.9016 15.0969 31.5859 14.7019 31.3611 14.2549C31.1364 13.8079 31.0075 13.3189 30.9829 12.8192C30.9809 12.7864 30.9856 12.7536 30.9968 12.7227C31.008 12.6918 31.0254 12.6635 31.0479 12.6396C31.0704 12.6157 31.0976 12.5966 31.1278 12.5837C31.158 12.5707 31.1905 12.564 31.2234 12.5641H33.0857C33.1413 12.5658 33.1944 12.5875 33.2353 12.6252C33.2763 12.6629 33.3023 12.7141 33.3086 12.7693C33.3371 12.9979 33.4135 13.2179 33.5328 13.415C33.652 13.6121 33.8115 13.7818 34.0007 13.9131C34.5219 14.255 35.1378 14.4233 35.7604 14.3941C36.1467 14.3997 36.5312 14.3412 36.8983 14.2211C37.2055 14.122 37.4801 13.9416 37.6931 13.699C37.8877 13.476 37.9923 13.1885 37.9864 12.8925C37.9903 12.6949 37.9395 12.5 37.8398 12.3294C37.7481 12.1756 37.6252 12.0428 37.479 11.9394C37.2914 11.82 37.088 11.7272 36.8749 11.6637C36.644 11.587 36.409 11.5234 36.171 11.4731C35.9755 11.4281 35.7027 11.3782 35.3527 11.3235C34.9979 11.2678 34.7134 11.2179 34.5022 11.1739C34.2911 11.1299 34.0183 11.0654 33.6928 10.9715C33.4179 10.9003 33.1507 10.8021 32.8951 10.6783C32.6635 10.5539 32.4401 10.4148 32.2264 10.2618C32.0074 10.1098 31.8201 9.9165 31.675 9.69284C31.528 9.44981 31.4137 9.1885 31.3348 8.91565C31.2591 8.65497 31.2148 8.38618 31.2028 8.115C31.1701 7.59324 31.2656 7.07142 31.4808 6.595C31.696 6.11858 32.0244 5.70202 32.4375 5.38163C33.2529 4.7501 34.3214 4.43531 35.6431 4.43726C36.9648 4.43922 38.0402 4.77258 38.8692 5.43735C39.2335 5.7319 39.5311 6.1004 39.7424 6.5185C39.9537 6.9366 40.0739 7.39478 40.0951 7.86278C40.0967 7.89547 40.0916 7.92815 40.0803 7.95885C40.0689 7.98956 40.0515 8.01766 40.0291 8.04148C40.0066 8.0653 39.9796 8.08435 39.9496 8.09748C39.9196 8.11062 39.8873 8.11757 39.8546 8.11793H38.0949C38.0379 8.11671 37.9833 8.09449 37.9416 8.05552C37.9 8.01656 37.8741 7.96359 37.8691 7.90677C37.8491 7.70279 37.7866 7.50528 37.6855 7.32696C37.5845 7.14864 37.4472 6.99348 37.2825 6.87149C36.7971 6.55631 36.2238 6.40424 35.646 6.43743C35.1017 6.4089 34.561 6.54152 34.0916 6.8187C33.9156 6.9203 33.769 7.0659 33.6662 7.24121C33.5634 7.41653 33.5078 7.61556 33.5051 7.81878C33.5024 7.9726 33.5313 8.12533 33.5901 8.2675C33.6568 8.40437 33.7579 8.52159 33.8834 8.60771C34.0054 8.69801 34.1338 8.77936 34.2676 8.85113C34.4407 8.93273 34.6228 8.99376 34.8102 9.03296C35.0507 9.08869 35.2501 9.13268 35.3967 9.15907C35.5434 9.18547 35.778 9.22359 36.0771 9.26759L36.9394 9.42596C37.13 9.46115 37.4028 9.52567 37.7576 9.61659C38.0432 9.68698 38.3212 9.78521 38.5876 9.90987C38.8265 10.0336 39.0576 10.1717 39.2798 10.3234C39.5137 10.4763 39.7134 10.676 39.8663 10.91C40.0058 11.1701 40.1113 11.4471 40.1801 11.7341C40.2825 12.0786 40.3329 12.4364 40.3297 12.7957C40.3477 13.3125 40.2412 13.8261 40.0192 14.2931C39.7971 14.7601 39.4661 15.167 39.0539 15.4793C38.2034 16.146 37.0762 16.4793 35.6724 16.4793Z" fill="#FF8320"/>
<path d="M44.5781 2.71866V0.709694C44.5781 0.654468 44.6001 0.601504 44.6391 0.562454C44.6782 0.523403 44.7311 0.501465 44.7864 0.501465H46.8159C46.8432 0.501465 46.8703 0.506851 46.8955 0.517315C46.9208 0.52778 46.9438 0.543118 46.9631 0.562454C46.9824 0.581789 46.9978 0.604744 47.0082 0.630008C47.0187 0.655271 47.0241 0.682349 47.0241 0.709694V2.71866C47.0241 2.74601 47.0187 2.77308 47.0082 2.79835C46.9978 2.82361 46.9824 2.84657 46.9631 2.8659C46.9438 2.88524 46.9208 2.90058 46.8955 2.91104C46.8703 2.9215 46.8432 2.92689 46.8159 2.92689H44.7864C44.7311 2.92689 44.6782 2.90495 44.6391 2.8659C44.6001 2.82685 44.5781 2.77389 44.5781 2.71866ZM44.6192 15.9925V4.92413C44.6192 4.86812 44.6414 4.81441 44.681 4.77481C44.7206 4.73521 44.7743 4.71296 44.8303 4.71296H46.7719C46.8279 4.71296 46.8816 4.73521 46.9212 4.77481C46.9608 4.81441 46.983 4.86812 46.983 4.92413V15.9925C46.983 16.0201 46.9775 16.0474 46.9669 16.0729C46.9562 16.0983 46.9406 16.1214 46.921 16.1408C46.9014 16.1602 46.878 16.1754 46.8524 16.1857C46.8268 16.196 46.7994 16.2011 46.7719 16.2007H44.8303C44.7756 16.2 44.7234 16.1777 44.685 16.1387C44.6466 16.0998 44.625 16.0472 44.6251 15.9925H44.6192Z" fill="#FF8320"/>
<path d="M58.1988 4.45784C58.7954 4.4313 59.3905 4.53779 59.9408 4.7696C60.4912 5.00142 60.9831 5.35274 61.3809 5.79812C62.163 6.69165 62.5541 7.85499 62.5541 9.28816V15.9896C62.5541 16.0456 62.5318 16.0993 62.4922 16.1389C62.4526 16.1785 62.3989 16.2008 62.3429 16.2008H60.416C60.3881 16.2012 60.3603 16.196 60.3343 16.1855C60.3084 16.1751 60.2847 16.1596 60.2648 16.14C60.2449 16.1203 60.2291 16.0969 60.2183 16.0711C60.2075 16.0453 60.2019 16.0176 60.202 15.9896V9.75447C60.202 8.71821 59.9781 7.92831 59.5303 7.38477C59.2889 7.10496 58.9856 6.88512 58.6446 6.74261C58.3036 6.60009 57.9341 6.5388 57.5654 6.56359C57.1467 6.55293 56.7308 6.63495 56.3475 6.80379C55.9642 6.97262 55.6229 7.22409 55.3482 7.54021C54.7481 8.23574 54.4337 9.13273 54.4683 10.0507V15.9896C54.4676 16.0459 54.4447 16.0996 54.4046 16.1391C54.3645 16.1786 54.3105 16.2008 54.2542 16.2008H52.3186C52.2626 16.2008 52.2089 16.1785 52.1693 16.1389C52.1297 16.0993 52.1074 16.0456 52.1074 15.9896V4.92708C52.1074 4.87081 52.1296 4.81679 52.1691 4.77672C52.2086 4.73666 52.2623 4.71376 52.3186 4.71299H53.9844C54.0407 4.71298 54.0947 4.73514 54.1348 4.77466C54.1748 4.81417 54.1977 4.86788 54.1985 4.92415V6.30843C54.6424 5.724 55.2223 5.25685 55.8878 4.94761C56.6113 4.61187 57.4014 4.44442 58.1988 4.45784Z" fill="#FF8320"/>
<path d="M78.4524 10.4729L78.4084 11.2589H69.0909C69.192 12.1076 69.6048 12.8884 70.2493 13.4497C70.9061 13.9974 71.7408 14.2854 72.5956 14.2592C73.029 14.2623 73.4601 14.194 73.8713 14.0568C74.2548 13.9264 74.6115 13.7277 74.9242 13.4703C75.212 13.236 75.4554 12.9519 75.6427 12.6315C75.6538 12.6117 75.67 12.5953 75.6896 12.5839C75.7092 12.5726 75.7315 12.5667 75.7542 12.567H77.9655C77.9881 12.5674 78.0102 12.5732 78.03 12.584C78.0499 12.5947 78.0668 12.6101 78.0795 12.6288C78.0921 12.6475 78.1001 12.6689 78.1027 12.6914C78.1054 12.7138 78.1025 12.7365 78.0946 12.7576C77.6687 13.8646 76.9126 14.8138 75.9289 15.4764C74.9452 16.139 73.7814 16.483 72.5956 16.4617C71.8106 16.4824 71.0298 16.3399 70.3028 16.043C69.5758 15.7461 68.9184 15.3015 68.3723 14.7372C67.8201 14.1755 67.3862 13.5087 67.0966 12.7761C66.8069 12.0436 66.6673 11.2604 66.686 10.4729C66.6634 9.67919 66.8017 8.8891 67.0926 8.15021C67.3834 7.41132 67.8207 6.73891 68.3782 6.17345C68.9249 5.61015 69.5825 5.16633 70.3094 4.87002C71.0363 4.5737 71.8167 4.43133 72.6014 4.4519C73.6781 4.42769 74.7399 4.7061 75.6662 5.25549C76.5381 5.78417 77.2482 6.54195 77.7192 7.44629C78.2081 8.37975 78.4599 9.41918 78.4524 10.4729ZM72.6014 6.56352C71.7886 6.54183 70.9938 6.80538 70.3549 7.30845C69.722 7.83065 69.2898 8.55619 69.1319 9.36141H76.0885C75.965 8.81648 75.726 8.30441 75.3876 7.85981C75.0748 7.44757 74.6674 7.11663 74.1998 6.89492C73.6981 6.66762 73.1522 6.55444 72.6014 6.56352Z" fill="#FF8320"/>
<path d="M86.5553 16.4793C85.1505 16.4793 84.0243 16.1215 83.1738 15.4147C82.7843 15.0949 82.4666 14.6967 82.2412 14.246C82.0159 13.7952 81.8879 13.3021 81.8657 12.7987C81.8637 12.7688 81.8678 12.7389 81.8778 12.7107C81.8878 12.6825 81.9034 12.6566 81.9237 12.6346C81.944 12.6127 81.9686 12.5951 81.996 12.583C82.0233 12.5708 82.0528 12.5644 82.0827 12.5641H83.9861C84.037 12.5652 84.0856 12.585 84.1229 12.6196C84.1602 12.6541 84.1835 12.7012 84.1885 12.7518C84.2132 12.9861 84.2883 13.2123 84.4088 13.4149C84.5293 13.6174 84.6923 13.7914 84.8865 13.9249C85.407 14.2682 86.0234 14.4367 86.6462 14.4059C87.0324 14.4114 87.417 14.3529 87.7841 14.2328C88.0901 14.1303 88.362 13.9457 88.5701 13.699C88.7662 13.4769 88.871 13.1888 88.8634 12.8925C88.8676 12.6945 88.8158 12.4993 88.7138 12.3294C88.6249 12.1772 88.5062 12.0445 88.3648 11.9394C88.1758 11.8206 87.9716 11.7278 87.7577 11.6637C87.5268 11.587 87.2918 11.5234 87.0538 11.4731C86.8485 11.4281 86.5758 11.3782 86.2356 11.3235C85.8807 11.2678 85.5992 11.2179 85.3851 11.1739C85.171 11.1299 84.9041 11.0654 84.5756 10.9715C84.3007 10.9003 84.0335 10.8021 83.7779 10.6783C83.5463 10.5539 83.323 10.4148 83.1092 10.2618C82.8862 10.1096 82.6949 9.9153 82.5461 9.68991C82.398 9.44749 82.2835 9.18603 82.2059 8.91272C82.1278 8.65249 82.0825 8.38353 82.071 8.11207C82.0382 7.59 82.1338 7.06784 82.3496 6.59131C82.5653 6.11479 82.8946 5.69843 83.3087 5.3787C84.1201 4.74717 85.1876 4.43238 86.5113 4.43434C87.8349 4.43629 88.9103 4.76965 89.7374 5.43442C90.104 5.73183 90.4028 6.1042 90.6137 6.52657C90.8247 6.94894 90.9428 7.41153 90.9603 7.88331C90.9615 7.91282 90.9568 7.94228 90.9465 7.96996C90.9362 7.99764 90.9205 8.023 90.9003 8.04456C90.8801 8.06611 90.8558 8.08344 90.8289 8.09554C90.8019 8.10763 90.7728 8.11424 90.7433 8.115H88.9279C88.8758 8.11373 88.8261 8.09327 88.7882 8.05754C88.7503 8.02181 88.7269 7.97334 88.7226 7.92143C88.7033 7.71322 88.6396 7.51154 88.5359 7.32995C88.4322 7.14836 88.2909 6.99104 88.1214 6.86856C87.6347 6.55371 87.0606 6.40171 86.4819 6.4345C85.9376 6.40597 85.3969 6.53859 84.9276 6.81577C84.7515 6.91737 84.6049 7.06297 84.5021 7.23828C84.3993 7.4136 84.3438 7.61263 84.341 7.81585C84.3369 7.96979 84.3659 8.1228 84.4261 8.26457C84.4912 8.40244 84.5926 8.52003 84.7193 8.60478C84.84 8.69561 84.9674 8.77699 85.1006 8.8482C85.2737 8.9298 85.4558 8.99083 85.6432 9.03003C85.8837 9.08575 86.0831 9.12975 86.2297 9.15614C86.3764 9.18254 86.6139 9.22066 86.9101 9.26466L87.7724 9.42303C87.963 9.45822 88.2358 9.52274 88.5906 9.61366C88.8762 9.68405 89.1542 9.78228 89.4206 9.90694C89.6595 10.0307 89.8906 10.1687 90.1128 10.3205C90.3467 10.4734 90.5464 10.6731 90.6993 10.907C90.8503 11.164 90.9686 11.4389 91.0512 11.7253C91.1512 12.0702 91.2006 12.4278 91.1979 12.7869C91.2159 13.3037 91.1094 13.8173 90.8873 14.2843C90.6653 14.7513 90.3343 15.1582 89.9221 15.4705C89.0814 16.143 87.9591 16.4793 86.5553 16.4793Z" fill="#FF8320"/>
<path d="M99.3401 16.4793C97.9382 16.4793 96.8091 16.1215 95.9586 15.4147C95.5697 15.0944 95.2524 14.6961 95.0271 14.2455C94.8017 13.7948 94.6735 13.302 94.6506 12.7987C94.6494 12.7688 94.6542 12.7389 94.6646 12.7109C94.6751 12.6829 94.691 12.6572 94.7115 12.6354C94.7319 12.6135 94.7565 12.596 94.7838 12.5837C94.8111 12.5715 94.8406 12.5648 94.8705 12.5641H96.7827C96.8341 12.5659 96.8832 12.5861 96.9209 12.6211C96.9586 12.6561 96.9824 12.7035 96.988 12.7547C97.0123 12.9845 97.085 13.2065 97.2012 13.4061C97.3175 13.6058 97.4747 13.7786 97.6625 13.9131C98.1835 14.2555 98.7996 14.4239 99.4222 14.3941C99.8085 14.3999 100.193 14.3414 100.56 14.2211C100.87 14.1243 101.147 13.9436 101.361 13.699C101.557 13.4769 101.662 13.1888 101.654 12.8925C101.658 12.6945 101.606 12.4993 101.505 12.3294C101.414 12.1767 101.293 12.0439 101.15 11.9394C100.961 11.8195 100.757 11.7267 100.543 11.6637C100.313 11.5867 100.079 11.5231 99.8416 11.4731C99.6363 11.4281 99.3636 11.3782 99.0234 11.3235C98.6832 11.2687 98.3987 11.2189 98.1699 11.1739C97.9588 11.1328 97.6889 11.0654 97.3634 10.9715C97.0883 10.9008 96.8211 10.8025 96.5657 10.6783C96.3362 10.5546 96.1148 10.4165 95.9029 10.2647C95.6798 10.1125 95.4885 9.91823 95.3398 9.69284C95.1916 9.45042 95.0772 9.18896 94.9996 8.91565C94.9224 8.65529 94.8781 8.38633 94.8676 8.115C94.8336 7.59309 94.9285 7.07084 95.1438 6.5942C95.3591 6.11756 95.6882 5.70115 96.1023 5.38163C96.9157 4.7501 97.9842 4.43531 99.3078 4.43726C100.632 4.43922 101.702 4.77258 102.519 5.43735C102.886 5.73441 103.185 6.10625 103.396 6.52804C103.608 6.94983 103.727 7.41187 103.745 7.8833C103.746 7.91345 103.741 7.94352 103.731 7.97175C103.72 7.99998 103.704 8.02579 103.683 8.04766C103.662 8.06953 103.638 8.08701 103.61 8.09908C103.582 8.11115 103.552 8.11756 103.522 8.11793H101.713C101.66 8.11603 101.61 8.09504 101.572 8.05889C101.533 8.02273 101.509 7.97388 101.505 7.92143C101.483 7.71253 101.417 7.51068 101.311 7.32954C101.204 7.14839 101.06 6.99219 100.889 6.87149C100.404 6.59613 99.8575 6.447 99.2999 6.43777C98.7424 6.42855 98.1915 6.55953 97.6977 6.8187C97.5205 6.91894 97.373 7.06423 97.27 7.23985C97.167 7.41547 97.1122 7.61519 97.1112 7.81878C97.1085 7.9726 97.1375 8.12533 97.1962 8.2675C97.2629 8.40437 97.364 8.52159 97.4895 8.60771C97.6106 8.69794 97.738 8.77929 97.8708 8.85113C98.0439 8.93273 98.226 8.99376 98.4133 9.03296C98.6568 9.08869 98.8533 9.13268 98.9999 9.15907C99.1465 9.18547 99.3812 9.22359 99.6803 9.26759L100.54 9.42596C100.733 9.46115 101.006 9.52567 101.361 9.61659C101.646 9.68748 101.924 9.78569 102.191 9.90987C102.429 10.0337 102.659 10.1718 102.88 10.3234C103.115 10.4755 103.314 10.6754 103.467 10.91C103.618 11.1669 103.736 11.4418 103.818 11.7282C103.921 12.0727 103.971 12.4305 103.968 12.7899C103.986 13.3067 103.88 13.8202 103.658 14.2873C103.435 14.7543 103.104 15.1611 102.692 15.4734C101.863 16.144 100.746 16.4793 99.3401 16.4793Z" fill="#FF8320"/>
<path d="M10.4349 6.153C9.8792 5.58753 9.21232 5.14338 8.47635 4.84859C7.74038 4.55379 6.95129 4.41476 6.15888 4.44025C4.77361 4.40908 3.42479 4.88581 2.36677 5.78054V0.680397C2.36687 0.656959 2.3582 0.63433 2.34246 0.616962C2.32672 0.599595 2.30505 0.588745 2.28172 0.586548H0.0938496C0.0689591 0.586548 0.0450881 0.596436 0.0274879 0.614036C0.0098877 0.631636 0 0.655507 0 0.680397L0 16.1157C0.000367373 16.1275 0.00311216 16.1392 0.00807044 16.1499C0.0130287 16.1606 0.0200988 16.1702 0.0288585 16.1782C0.0376182 16.1861 0.0478879 16.1922 0.0590542 16.1961C0.0702206 16.2 0.0820546 16.2016 0.0938496 16.2008H2.0031C2.01466 16.2012 2.02618 16.1993 2.037 16.1952C2.04783 16.1911 2.05775 16.185 2.06619 16.1771C2.07463 16.1692 2.08144 16.1597 2.08621 16.1492C2.09099 16.1386 2.09364 16.1273 2.09402 16.1157V14.9074C2.63483 15.424 3.27226 15.8287 3.96979 16.0985C4.66732 16.3682 5.41123 16.4977 6.15888 16.4794C6.95279 16.5043 7.74327 16.3647 8.48065 16.0695C9.21803 15.7742 9.88638 15.3297 10.4437 14.7637C11.0027 14.1977 11.4408 13.5238 11.7312 12.7832C12.0216 12.0425 12.1583 11.2506 12.133 10.4554C12.1563 9.66062 12.0179 8.86938 11.7259 8.12976C11.434 7.39015 10.9948 6.7176 10.4349 6.153ZM8.64296 13.1507C8.29271 13.504 7.87341 13.7815 7.41121 13.9656C6.949 14.1498 6.45381 14.2368 5.95652 14.2211C5.45919 14.2324 4.96475 14.1426 4.50311 13.9573C4.04147 13.772 3.62223 13.4949 3.27075 13.1429C2.91927 12.7908 2.64286 12.3712 2.45824 11.9092C2.27363 11.4473 2.18464 10.9527 2.19667 10.4554C2.1882 9.7841 2.35716 9.12244 2.68644 8.53737C3.00133 7.96876 3.46986 7.50024 4.03847 7.18535C4.62242 6.85328 5.28484 6.68413 5.95652 6.69557C6.45409 6.67977 6.94956 6.76696 7.41186 6.95167C7.87415 7.13639 8.29328 7.41464 8.64296 7.76897C8.99033 8.12291 9.26285 8.5432 9.44425 9.00475C9.62565 9.46631 9.71221 9.95968 9.69877 10.4554C9.71256 10.9525 9.62619 11.4473 9.44481 11.9104C9.26342 12.3734 8.99073 12.7952 8.64296 13.1507Z" fill="#FF8320"/>
</g>
<defs>
<clipPath id="clip0_511_867">
<rect width="104" height="15.9779" fill="white" transform="translate(0 0.501465)"/>
</clipPath>
</defs>
</svg>
