<svg width="46" height="44" viewBox="0 0 46 44" fill="none" xmlns="http://www.w3.org/2000/svg">
<path d="M31.3334 38.5V34.8333C31.3334 32.8884 30.5607 31.0232 29.1855 29.6479C27.8102 28.2726 25.9449 27.5 24 27.5H13C11.0551 27.5 9.18984 28.2726 7.81457 29.6479C6.4393 31.0232 5.66669 32.8884 5.66669 34.8333V38.5" stroke="#CBC7FF" stroke-width="2" stroke-linecap="round" stroke-linejoin="round"/>
<path d="M18.5 20.1667C22.5501 20.1667 25.8334 16.8834 25.8334 12.8333C25.8334 8.78324 22.5501 5.5 18.5 5.5C14.4499 5.5 11.1667 8.78324 11.1667 12.8333C11.1667 16.8834 14.4499 20.1667 18.5 20.1667Z" stroke="#CBC7FF" stroke-width="2" stroke-linecap="round" stroke-linejoin="round"/>
<path d="M31.3334 20.1667L35 23.8333L42.3334 16.5" stroke="#CBC7FF" stroke-width="2" stroke-linecap="round" stroke-linejoin="round"/>
<path d="M29.3334 38.5V34.8333C29.3334 32.8884 28.5607 31.0232 27.1855 29.6479C25.8102 28.2726 23.9449 27.5 22 27.5H11C9.0551 27.5 7.18984 28.2726 5.81457 29.6479C4.4393 31.0232 3.66669 32.8884 3.66669 34.8333V38.5" stroke="#2B1FC7" stroke-width="2" stroke-linecap="round" stroke-linejoin="round"/>
<path d="M16.5 20.1667C20.5501 20.1667 23.8334 16.8834 23.8334 12.8333C23.8334 8.78324 20.5501 5.5 16.5 5.5C12.4499 5.5 9.16669 8.78324 9.16669 12.8333C9.16669 16.8834 12.4499 20.1667 16.5 20.1667Z" stroke="#2B1FC7" stroke-width="2" stroke-linecap="round" stroke-linejoin="round"/>
<path d="M29.3334 20.1667L33 23.8333L40.3334 16.5" stroke="#2B1FC7" stroke-width="2" stroke-linecap="round" stroke-linejoin="round"/>
</svg>
