<svg width="46" height="44" viewBox="0 0 46 44" fill="none" xmlns="http://www.w3.org/2000/svg">
<path d="M31.4635 29.4635L39.2424 37.2424M15.178 4.10486L16.6025 9.41602M11.416 14.6025L6.10303 13.178M27.575 7.42503L23.6847 11.3154M13.3135 21.6847L9.42686 25.575M18.5 16.5L27.6667 38.5L30.919 28.919L40.5 25.6667L18.5 16.5Z" stroke="#CBC7FF" stroke-width="2" stroke-linecap="round" stroke-linejoin="round"/>
<path d="M29.4635 29.4635L37.2424 37.2424M13.178 4.10486L14.6025 9.41602M9.41603 14.6025L4.10303 13.178M25.575 7.42503L21.6847 11.3154M11.3135 21.6847L7.42686 25.575M16.5 16.5L25.6667 38.5L28.919 28.919L38.5 25.6667L16.5 16.5Z" stroke="#2B1FC7" stroke-width="2" stroke-linecap="round" stroke-linejoin="round"/>
</svg>
