<svg width="46" height="44" viewBox="0 0 46 44" fill="none" xmlns="http://www.w3.org/2000/svg">
<path d="M10.25 30.25C7.50004 32.56 6.58337 39.4167 6.58337 39.4167C6.58337 39.4167 13.44 38.5 15.75 35.75C17.0517 34.21 17.0334 31.845 15.585 30.415C14.8724 29.7349 13.9337 29.3419 12.9491 29.3114C11.9645 29.281 11.0033 29.6152 10.25 30.25V30.25ZM24 27.5L18.5 22C19.4756 19.469 20.7041 17.0428 22.1667 14.7584C24.3029 11.3429 27.2773 8.53064 30.8072 6.58921C34.3371 4.64779 38.3049 3.64173 42.3334 3.66671C42.3334 8.65338 40.9034 17.4167 31.3334 23.8334C29.0177 25.2977 26.5609 26.5261 24 27.5V27.5Z" stroke="#CBC7FF" stroke-width="2" stroke-linecap="round" stroke-linejoin="round"/>
<path d="M18.5 22.0001H9.33337C9.33337 22.0001 10.3417 16.4451 13 14.6667C15.97 12.6867 22.1667 14.6667 22.1667 14.6667M24 27.5001V36.6667C24 36.6667 29.555 35.6584 31.3334 33.0001C33.3134 30.0301 31.3334 23.8334 31.3334 23.8334" stroke="#CBC7FF" stroke-width="2" stroke-linecap="round" stroke-linejoin="round"/>
<path d="M8.25004 30.25C5.50004 32.56 4.58337 39.4167 4.58337 39.4167C4.58337 39.4167 11.44 38.5 13.75 35.75C15.0517 34.21 15.0334 31.845 13.585 30.415C12.8724 29.7349 11.9337 29.3419 10.9491 29.3114C9.9645 29.281 9.00331 29.6152 8.25004 30.25V30.25ZM22 27.5L16.5 22C17.4756 19.469 18.7041 17.0428 20.1667 14.7584C22.3029 11.3429 25.2773 8.53064 28.8072 6.58921C32.3371 4.64779 36.3049 3.64173 40.3334 3.66671C40.3334 8.65338 38.9034 17.4167 29.3334 23.8334C27.0177 25.2977 24.5609 26.5261 22 27.5V27.5Z" stroke="#2B1FC7" stroke-width="2" stroke-linecap="round" stroke-linejoin="round"/>
<path d="M16.5 22.0001H7.33337C7.33337 22.0001 8.34171 16.4451 11 14.6667C13.97 12.6867 20.1667 14.6667 20.1667 14.6667M22 27.5001V36.6667C22 36.6667 27.555 35.6584 29.3334 33.0001C31.3134 30.0301 29.3334 23.8334 29.3334 23.8334" stroke="#2B1FC7" stroke-width="2" stroke-linecap="round" stroke-linejoin="round"/>
</svg>
