<svg width="191" height="325" viewBox="0 0 191 325" fill="none" xmlns="http://www.w3.org/2000/svg">
<g clip-path="url(#clip0_647_2197)">
<path d="M177.136 311.612L183.188 308.123L189.039 311.478L191 312.602V310.236L184.21 306.327V289.484L191 285.558V283.192L183.138 287.705L178.108 284.82L168.502 279.267V262.389L178.108 256.836L183.138 253.95L187.731 256.618L190.95 258.463V256.115L184.16 252.189V235.311L190.95 231.386V229.02L188.972 230.178L183.138 233.533L177.102 230.06L168.536 225.111V208.234L175.56 204.174L183.138 199.795L190.749 204.19L190.95 204.308V201.942L189.961 201.372L184.16 198.016V181.189L190.95 177.264V174.915H190.832L183.138 179.377L175.493 174.965L168.536 170.939V154.061L174.806 150.438L183.188 145.623L191 150.136V147.77L184.21 143.861V126.984L191 123.058V120.692L189.877 121.347L183.171 125.205L176.432 121.296L168.62 116.766V99.889L177.186 94.9399L183.221 91.4503L189.055 94.8057L191.034 95.9633V93.6145L184.244 89.6887V72.8113L189.759 69.6237L191.034 68.8855V66.52L187.815 68.3822L183.138 71.0497L178.108 68.1641L168.502 62.611V45.7335L175.46 41.7071L183.138 37.2948L190.816 41.7407H190.95V39.4422L184.16 35.5165V18.639L190.95 14.73V12.3645L187.815 14.1764L183.138 16.8775L178.192 14.0254L168.586 8.3884V0H166.541V8.3884L157.455 13.6395L151.939 16.8271L146.223 13.4718L137.338 8.3884V0H135.292V8.3884L126.139 13.7402L120.724 16.8775L115.494 13.8576L106.022 8.3884V0H103.977V8.3884L94.5887 13.8073L89.375 16.8271L84.3457 13.9415L74.8236 8.3884V0H72.7951V8.3884L62.8539 14.1261L58.1767 16.8271L53.1474 13.9751L43.575 8.3884V0H41.5465V8.3884L32.4603 13.6395L26.9281 16.8271L21.2282 13.4718L12.3264 8.3884V0H10.2812V8.3884L1.09435 13.6899L-4.32053 16.8271L-9.53421 13.8073L-18.9222 8.3884V0H-20.9675V8.3884L-30.3387 13.8576L-35.5691 16.8775L-40.5984 13.9918L-50.1708 8.3884V0H-52.216V8.3884L-62.1405 14.1764L-66.8177 16.8775L-71.847 14.0254L-81.4194 8.3884V0H-83.4144V8.3884L-92.5341 13.6899L-98.0663 16.8775L-103.766 13.5221L-112.668 8.3884V0H-114.713V8.3884L-123.9 13.7402L-129.315 16.8775L-134.529 13.8576L-143.917 8.3884V0H-145.962V8.3884L-155.35 13.8073L-160.53 16.8775L-165.559 13.9918L-175.165 8.3884V0H-177.21V8.3884L-184 12.3645V14.73L-176.188 10.2171L-167.789 15.0991L-161.586 18.6726V35.5165L-168.024 39.2409L-176.188 43.9552L-184 39.4422V41.8078L-177.21 45.7335V62.611L-184 66.52V68.8855L-176.188 64.3726L-166.8 69.7915L-161.586 72.8113V89.6887L-169.968 94.5372L-176.171 98.1275L-184 93.6145V95.98L-177.21 99.889V116.766L-184 120.692V123.058L-182.877 122.471L-176.171 118.612L-168.912 122.756L-161.62 126.984V143.861L-170.471 148.894L-176.221 152.249L-184 147.77V150.136L-183.346 150.521L-177.21 154.061V170.939L-183.916 174.865V177.213L-182.039 176.156L-176.188 172.801L-169.734 176.525L-161.586 181.189V197.966L-166.951 201.07L-176.188 206.405L-184 201.942V204.308L-177.21 208.234V225.111L-183.916 229.02V231.386L-176.104 226.873L-161.502 235.261V252.138L-167.957 255.863L-176.104 260.577L-184 256.115V258.463L-177.21 262.389V279.267L-184 283.192V285.558L-176.188 281.045L-161.586 289.433V306.311L-176.188 314.699L-184 310.27V312.636L-177.21 316.561V324.95H-175.165V316.561L-166.884 311.78L-160.53 308.123L-154.076 311.847L-145.928 316.561V324.95H-143.883V316.561L-135.736 311.847L-129.281 308.123L-122.743 311.897L-114.68 316.561V324.95H-112.634V316.561L-104.99 312.149L-98.0328 308.123L-91.1427 312.048L-83.4144 316.561V324.95H-81.3691V316.561L-72.8026 311.612L-66.7674 308.123L-60.8999 311.478L-52.1658 316.511V324.899H-50.1205V316.511L-41.839 311.73L-35.5188 308.072L-29.0646 311.797L-20.9172 316.511V324.899H-18.8719V316.511L-10.7077 311.797L-4.27023 308.072L2.28461 311.847L10.3314 316.511V324.899H12.3767V316.511L20.0212 312.099L26.9784 308.072L33.9355 312.048L41.6303 316.494V324.883H43.6588V316.494L52.2254 311.545L58.2605 308.055L64.128 311.411L72.8789 316.444V324.832H74.9074V316.444L83.189 311.662L89.5259 308.005L95.9633 311.73L104.128 316.444V324.832H106.022V316.444L114.169 311.73L120.624 308.005L127.162 311.78L135.225 316.444V324.832H137.271V316.444L144.898 312.032L151.872 308.005L158.779 311.998L166.474 316.444V324.832H168.519V316.444L177.136 311.612ZM182.165 235.311V252.189L175.845 255.846L167.564 260.628L159.5 255.964L152.962 252.189V235.311L167.564 226.923L182.165 235.311ZM-120.631 150.639L-114.713 153.994V170.872L-121.251 174.646L-129.315 179.31L-137.479 174.596L-143.917 170.872V154.061L-138.15 150.706L-129.315 145.673L-120.631 150.639ZM-128.292 143.928V126.984L-120.983 122.756L-113.691 118.545L-105.862 123.058L-99.156 126.984V143.861L-107.538 148.676L-113.808 152.3L-119.558 148.944L-128.292 143.928ZM-128.292 181.206L-120.128 176.492L-113.691 172.767L-106.717 176.794L-99.089 181.189V197.966L-104.118 200.852L-113.741 206.405L-122.978 201.07L-128.292 197.966V181.206ZM-106.65 174.495L-112.668 171.023V154.061L-107.236 150.991L-98.0663 145.69L-88.6616 150.991L-83.4144 154.061V170.939L-89.2483 174.294L-98.016 179.327L-106.65 174.495ZM-97.0437 143.945V126.984L-89.7345 122.756L-82.442 118.545L-75.1328 122.756L-67.8404 126.984V143.861L-76.8931 149.079L-82.442 152.3L-88.3598 148.944L-97.0437 143.945ZM-97.0437 181.223L-88.9801 176.576L-82.442 172.784L-76.1219 176.442L-67.8404 181.189V197.966L-72.8696 200.885L-82.4253 206.405L-91.4277 201.322L-97.0437 197.966V181.223ZM-74.4622 175.049L-81.4194 171.023V154.061L-75.1496 150.438L-66.7674 145.623L-58.3853 150.521L-52.2496 154.061V170.939L-59.1565 174.932L-66.8513 179.377L-74.4622 175.049ZM-65.7951 143.945V126.984L-57.8824 122.471L-51.1767 118.612L-43.8674 122.823L-36.575 127.051V143.861L-45.4265 148.894L-51.1767 152.249L-56.3568 149.313L-65.7951 143.945ZM-65.7951 181.223L-57.0442 176.19L-51.1934 172.835L-44.7392 176.559L-36.5918 181.189V197.966L-41.9563 201.07L-51.1934 206.405L-59.9444 201.322L-65.7616 197.966L-65.7951 181.223ZM-43.8674 174.663L-50.1708 171.023V154.061L-44.6051 150.84L-35.5691 145.623L-26.7344 150.656L-20.9675 154.011V170.888L-27.3882 174.613L-35.5691 179.327L-43.8674 174.663ZM-34.5465 143.945V126.984L-27.8408 123.108L-19.9448 118.545L-13.2391 122.454L-5.42697 126.984V143.861L-14.597 149.162L-20.0287 152.3L-26.1476 148.743L-34.5465 143.945ZM-34.5465 181.223L-26.8517 176.794L-19.9448 172.784L-13.8929 176.274L-5.34315 181.307V197.966L-11.328 201.506L-19.9113 206.539L-29.9699 200.768L-34.5465 197.966V181.223ZM-12.4847 174.747L-18.9222 171.023V154.061L-13.1553 150.706L-4.32053 145.673L4.36337 150.706L10.2812 154.061V170.939L3.75986 174.714L-4.32053 179.377L-12.4847 174.747ZM-3.29791 143.945V126.984L4.01132 122.756L11.3038 118.545L19.1327 123.058L25.8384 126.984V143.861L17.4563 148.676L11.1864 152.3L5.43628 148.944L-3.29791 143.945ZM-3.29791 181.223L4.8663 176.509L11.3038 172.784L18.2777 176.811L25.9055 181.223V197.966L20.8762 200.852L11.2535 206.405L2.03313 201.07L-3.29791 197.966V181.223ZM18.3615 174.512L12.3264 171.039V154.061L17.7748 150.991L26.9281 145.69L36.3496 150.991L41.5465 153.994V170.872L35.6958 174.227L26.9281 179.26L18.3615 174.512ZM27.9507 143.962V126.984L35.2599 122.756L42.5524 118.545L49.8616 122.756L57.1708 126.984V143.861L48.1181 149.079L42.5524 152.3L36.6514 148.944L27.9507 143.962ZM27.9507 181.24L36.0143 176.593L42.5524 172.801L48.8893 176.458L57.1708 181.24V197.966L52.1415 200.885L42.5691 206.405L33.5835 201.204L27.9507 197.966V181.24ZM50.5322 175.066L43.575 171.039V154.061L49.8616 150.438L58.2437 145.623L66.6259 150.521L72.7784 154.061V170.939L65.8547 174.932L58.1599 179.377L50.5322 175.066ZM59.1993 143.962V126.984L67.112 122.471L73.8177 118.612L81.1102 122.823L88.4194 127.051V143.861L79.5679 148.894L73.8177 152.249L68.6376 149.313L59.1993 143.962ZM59.1993 181.24L67.9502 176.207L73.8177 172.851L80.2552 176.576L88.4194 181.189V197.966L83.0381 201.07L73.8177 206.405L65.0165 201.372L59.1993 198.016V181.24ZM81.1437 174.68L74.8236 171.039V154.061L80.4061 150.84L89.442 145.623L98.2768 150.656L104.044 154.011V170.888L97.6398 174.663L89.4756 179.377L81.1437 174.68ZM90.4479 143.962V126.984L97.1536 123.108L105.066 118.545L111.772 122.454L119.601 126.984V143.861L110.414 149.162L104.999 152.3L98.8636 148.743L90.4479 143.962ZM90.4479 181.24L98.1427 176.811L105.066 172.801L111.051 176.156L119.618 181.189V197.966L113.583 201.456L105.016 206.489L94.9575 200.718L90.4479 197.966V181.24ZM112.51 174.764L106.022 170.939V154.061L111.789 150.706L120.624 145.673L129.291 150.706L135.225 154.061V170.939L128.687 174.714L120.624 179.377L112.51 174.764ZM121.713 143.962V126.984L129.006 122.756L136.315 118.545L144.127 123.058L150.917 126.984V143.861L142.534 148.676L136.281 152.3L130.515 148.944L121.713 143.962ZM121.713 181.24L129.861 176.525L136.315 172.801L143.272 176.827L150.917 181.24V197.966L145.887 200.852L136.281 206.405L127.044 201.07L121.68 197.966L121.713 181.24ZM143.356 174.529L137.338 171.056V154.061L142.769 150.991L151.939 145.69L161.344 150.991L166.541 153.994V170.872L160.707 174.227L151.939 179.26L143.356 174.529ZM144.11 120.843L137.405 116.917V99.889L145.049 95.4767L152.006 91.4503L158.913 95.4432L166.608 99.889V116.766L159.902 120.642L152.006 125.205L144.11 120.843ZM150.917 89.8397L143.188 94.3024L136.315 98.2785L130.095 94.6882L121.713 89.8397V72.8113L126.927 69.7915L136.315 64.3726L145.971 69.9592L150.917 72.8113V89.8397ZM127.212 95.3928L135.292 100.04V116.766L127.983 120.994L120.691 125.205L113.381 120.994L106.022 116.766V99.889L114.186 95.1747L120.624 91.4503L127.212 95.3928ZM119.668 89.8397L110.766 94.9734L105.066 98.3288L98.26 94.403L90.4479 89.8901V72.8113L95.1251 70.1102L105.066 64.3726L113.951 69.523L119.668 72.8784V89.8397ZM95.8628 95.3257L104.044 100.04V116.766L96.7345 120.994L89.442 125.205L82.1328 120.994L74.8236 116.766V99.889L83.2057 95.1076L89.5259 91.4503L95.8628 95.3257ZM88.4194 89.8397L80.0373 94.6882L73.8345 98.2785L68.4197 95.1412L59.2161 89.8397V72.8113L64.7483 69.6237L73.8345 64.3726L83.2057 69.7915L88.4362 72.8113L88.4194 89.8397ZM64.1112 94.8224L72.8789 99.8555V116.766L64.9662 121.347L58.2605 125.205L51.5548 121.296L43.7259 116.766V99.889L52.3092 94.9399L58.3276 91.4503L64.1112 94.8224ZM57.2547 89.6887L48.6378 94.7218L42.6362 98.1946L36.2825 94.5205L28.0345 89.7558V72.8113L33.4494 69.6908L42.6362 64.3726L52.2757 69.9425L57.3049 72.8113L57.2547 89.6887ZM33.9355 95.4432L41.6303 99.889V116.766L34.9246 120.642L27.0119 125.205L19.1997 120.692L12.494 116.766V99.889L20.1385 95.4767L27.0957 91.4503L33.9355 95.4432ZM25.9893 89.6887L18.2777 94.1514L11.3876 98.1275L5.18481 94.5372L-3.19733 89.6887V72.8113L2.03313 69.7915L11.4044 64.3726L21.0606 69.9592L26.006 72.8113L25.9893 89.6887ZM2.30136 95.2419L10.365 99.889V116.766L3.07251 120.994L-4.23669 125.205L-11.5292 120.994L-18.9222 116.766V99.889L-10.758 95.1747L-4.32053 91.4503L2.30136 95.2419ZM-5.25932 89.6887L-14.1444 94.8224L-19.861 98.1778L-26.5667 94.252L-34.3789 89.7391V72.8113L-29.7016 70.1102L-19.7772 64.3726L-10.8754 69.523L-5.17551 72.8784L-5.25932 89.6887ZM-29.1317 95.1747L-20.9675 99.889V116.766L-28.2599 120.994L-35.5691 125.205L-42.8616 120.994L-50.1708 116.766V99.889L-41.7887 95.1076L-35.4853 91.4503L-29.1317 95.1747ZM-36.5918 89.6887L-44.9739 94.5372L-51.1934 98.1275L-56.5915 94.9902L-65.7784 89.6887V72.8113L-60.2461 69.6237L-51.1767 64.3726L-41.7887 69.7915L-36.575 72.8113L-36.5918 89.6887ZM-60.9838 94.8224L-52.216 99.8555V116.766L-60.112 121.347L-66.8177 125.205L-73.5234 121.296L-81.3524 116.766V99.889L-72.7691 94.9399L-66.7507 91.4503L-60.9838 94.8224ZM-67.8404 89.6887L-76.4404 94.7218L-82.442 98.1946L-88.7957 94.4533L-97.0437 89.6887V72.8113L-91.6289 69.6908L-82.442 64.3726L-72.8193 69.9425L-67.7901 72.8113L-67.8404 89.6887ZM-91.1595 95.4432L-83.4144 99.889V116.766L-90.1201 120.642L-98.0328 125.205L-105.878 120.692L-112.668 116.766V99.889L-105.024 95.4767L-98.0663 91.4503L-91.1595 95.4432ZM-99.089 89.6887L-106.884 94.1514L-113.758 98.1275L-119.96 94.5372L-128.343 89.6887V72.8113L-123.129 69.7915L-113.741 64.3726L-104.034 69.9592L-99.089 72.8113V89.6887ZM-122.777 95.2419L-114.713 99.889V116.766L-121.972 120.994L-129.281 125.205L-136.574 120.994L-143.917 116.766V99.889L-135.752 95.1747L-129.315 91.4503L-122.777 95.2419ZM-130.354 89.6887L-139.239 94.8224L-144.956 98.1778L-151.746 94.252L-159.558 89.7391V72.8113L-154.88 70.1102L-144.956 64.3726L-136.054 69.523L-130.354 72.8784V89.6887ZM-138.15 122.471L-130.354 126.984V143.861L-139.541 149.162L-144.939 152.3L-151.058 148.743L-159.541 143.861V126.984L-152.835 123.108L-144.922 118.545L-138.15 122.471ZM-138.904 176.156L-130.354 181.189V197.966L-136.373 201.456L-144.956 206.489L-155.015 200.718L-159.541 197.966V181.189L-151.846 176.76L-144.939 172.751L-138.904 176.156ZM-130.354 235.311V252.189L-137.312 256.215L-144.956 260.628L-153.707 255.594L-159.558 252.239V235.311L-144.956 226.923L-130.354 235.311ZM-135.752 229.842L-143.917 225.128V208.234L-137.312 204.408L-129.315 199.795L-121.385 204.375L-114.68 208.234V225.111L-122.777 229.842L-129.315 233.617L-135.752 229.842ZM-128.292 235.328L-113.691 226.94L-99.089 235.328V252.206L-105.124 255.695L-113.691 260.644L-121.838 255.93L-128.292 252.206V235.328ZM-105.024 229.54L-112.668 225.128V208.234L-106.398 204.677L-98.016 199.862L-89.6004 204.677L-83.4144 208.234V225.111L-91.1092 229.557L-98.016 233.533L-105.024 229.54ZM-97.0437 235.328L-82.442 226.94L-67.8404 235.328V252.206L-74.1605 255.863L-82.442 260.644L-90.5057 255.98L-97.0437 252.206V235.328ZM-72.8361 230.077L-81.4194 225.128V208.234L-74.3952 204.174L-66.8177 199.795L-59.2067 204.19L-52.216 208.234V225.111L-60.9838 230.144L-66.8177 233.499L-72.8361 230.077ZM-65.7951 235.328L-51.1934 226.94L-36.5918 235.328V252.206L-43.0292 255.93L-51.1934 260.644L-58.8715 256.198L-65.7951 252.206V235.328ZM-41.8725 229.842L-50.2546 225.061V208.234L-43.7166 204.459L-35.653 199.795L-27.6564 204.408L-21.0513 208.234V225.111L-29.1317 229.842L-35.5691 233.55L-41.8725 229.842ZM-34.5465 235.261L-19.9448 226.873L-5.34315 235.261V252.138L-12.3003 256.165L-19.9448 260.577L-28.679 255.544L-34.5465 252.189V235.261ZM-10.758 229.842L-18.9222 225.128V208.234L-12.3171 204.408L-4.32053 199.795L3.60898 204.375L10.3147 208.234V225.111L2.21754 229.842L-4.32053 233.617L-10.758 229.842ZM-3.29791 235.328L11.3038 226.94L25.9055 235.328V252.206L19.8703 255.695L11.3038 260.644L3.15634 255.93L-3.29791 252.206V235.328ZM19.9709 229.54L12.3264 225.128V208.234L18.5962 204.61L26.9784 199.795L35.4443 204.677L41.5968 208.234V225.111L33.9355 229.557L27.0119 233.533L19.9709 229.54ZM27.9507 235.328L42.5524 226.94L57.1708 235.328V252.206L50.8339 255.863L42.5524 260.644L34.5055 255.98L27.9507 252.206V235.328ZM52.1583 230.077L43.575 225.128V208.234L50.5992 204.174L58.1767 199.795L65.8044 204.19L72.7951 208.234V225.111L64.0274 230.144L58.1767 233.499L52.1583 230.077ZM59.1993 235.328L73.8177 226.94L88.4194 235.328V252.206L81.9652 255.93L73.8177 260.644L66.1229 256.198L59.1993 252.206V235.328ZM83.1219 229.842L74.7398 225.061V208.234L81.2779 204.459L89.3582 199.795L97.3548 204.408L103.96 208.234V225.111L95.8628 229.842L89.442 233.55L83.1219 229.842ZM90.4479 235.261L105.066 226.873L119.668 235.261V252.138L112.694 256.165L105.066 260.577L96.3154 255.544L90.4479 252.189V235.261ZM114.253 229.775L106.022 225.111V208.234L112.627 204.408L120.624 199.795L128.553 204.375L135.259 208.234V225.111L127.212 229.842L120.691 233.617L114.253 229.775ZM121.713 235.261L136.315 226.873L150.917 235.261V252.138L144.865 255.628L136.315 260.577L128.151 255.863L121.713 252.138V235.261ZM144.982 229.473L137.338 225.061V208.234L143.591 204.61L151.973 199.795L160.355 204.677L166.507 208.234V225.111L158.813 229.557L151.906 233.533L144.982 229.473ZM173.884 176.307L182.165 181.089V197.966L177.136 200.885L167.58 206.405L158.578 201.204L152.962 197.966V181.189L161.009 176.542L167.564 172.751L173.884 176.307ZM174.856 122.705L182.165 126.933V143.861L173.079 149.079L167.53 152.3L161.612 148.944L152.928 143.911V126.984L160.221 122.756L167.53 118.545L174.856 122.705ZM177.186 69.8921L182.216 72.7609V89.6887L173.599 94.7218L167.614 98.1946L161.243 94.5205L152.962 89.6887V72.8113L158.377 69.6908L167.564 64.3726L177.186 69.8921ZM152.962 18.639L159.316 14.9649L167.564 10.2171L176.164 15.2501L182.165 18.7061V35.5165L175.862 39.1738L167.564 43.9552L159.483 39.2912L152.962 35.5165V18.639ZM160.69 42.3446L166.541 45.7V62.611L157.74 67.644L151.939 70.9994L145.904 67.5098L137.338 62.4768V45.7335L143.373 42.244L151.939 37.2948L160.69 42.3446ZM121.713 18.639L127.916 15.0991L136.298 10.2506L145.183 15.3843L150.9 18.7397V35.5165L144.865 39.006L136.298 43.9552L128.117 39.2409L121.697 35.5165L121.713 18.639ZM128.754 41.942L135.292 45.7335V62.611L126.29 67.795L120.691 71.0497L115.309 67.946L106.022 62.611V45.7335L112.526 41.942L120.691 37.2277L128.754 41.942ZM90.4479 18.639L95.8628 15.5185L105.066 10.2171L112.728 14.6797L119.618 18.639V35.5165L112.728 39.5429L105.083 43.9552L96.3154 38.9222L90.4647 35.5668L90.4479 18.639ZM97.6398 41.942L104.094 45.6664V62.611L94.8569 67.946L89.4923 71.0497L84.463 68.1306L74.8907 62.611V45.7335L81.2108 42.0762L89.5929 37.2948L97.6398 41.942ZM59.2496 18.5719L66.0559 14.6461L73.868 10.15L82.2502 14.9985L88.4697 18.5719V35.5165L82.0323 39.2409L73.868 43.9552L66.1732 39.5093L59.2496 35.5165V18.5719ZM65.9553 41.6736L72.8789 45.6664V62.611L62.8204 68.3822L58.2102 71.0497L53.1809 68.1641L43.5582 62.611V45.7335L50.5322 41.7071L58.1599 37.2948L65.9553 41.6736ZM27.9507 18.639L34.3211 14.9649L42.5524 10.2171L51.1692 15.2501L57.1708 18.7061V35.5165L50.8507 39.1738L42.4686 43.9552L34.4049 39.2912L27.8669 35.5165L27.9507 18.639ZM35.612 42.3446L41.4795 45.7V62.611L32.6782 67.644L26.861 70.9994L20.8427 67.5098L12.2593 62.4768V45.7335L18.2945 42.244L26.861 37.2948L35.612 42.3446ZM-3.29791 18.639L2.92163 15.0991L11.3038 10.2506L20.2056 15.3843L25.9055 18.7397V35.5165L19.8871 39.006L11.3038 43.9552L3.13957 39.2409L-3.29791 35.5165V18.639ZM3.75986 41.942L10.2979 45.7335V62.611L1.31227 67.795L-4.30376 71.0497L-9.65157 67.946L-18.8887 62.611V45.7335L-12.468 41.942L-4.32053 37.2277L3.75986 41.942ZM-34.5465 18.639L-29.1317 15.5185L-19.9448 10.2171L-12.2165 14.6797L-5.34315 18.639V35.5165L-12.3003 39.5429L-19.9448 43.9552L-28.7126 38.9222L-34.5465 35.5668V18.639ZM-27.4049 41.942L-20.9675 45.6664V62.611L-30.1878 67.946L-35.5691 71.0497L-40.5984 68.1306L-50.1541 62.611V45.7335L-43.8339 42.0762L-35.5524 37.2948L-27.4049 41.942ZM-65.7951 18.639L-58.9888 14.7132L-51.1934 10.2171L-42.8113 15.0656L-36.6085 18.639V35.5165L-43.046 39.2409L-51.1934 43.9552L-58.8882 39.5093L-65.7951 35.5165V18.639ZM-59.0894 41.7407L-52.1825 45.7335V62.611L-62.2411 68.3822L-66.8177 71.0497L-71.847 68.1641L-81.4697 62.611V45.7335L-74.5125 41.7071L-66.868 37.2948L-59.0894 41.7407ZM-97.0437 18.639L-90.6733 14.9649L-82.442 10.2171L-73.8252 15.2501L-67.8404 18.7061V35.5165L-74.1437 39.1738L-82.5259 43.9552L-90.5895 39.2912L-97.1275 35.5165L-97.0437 18.639ZM-89.3154 42.3446L-83.4647 45.7V62.611L-92.2491 67.644L-98.0663 70.9994L-104.085 67.5098L-112.668 62.4768V45.7335L-106.633 42.244L-98.0663 37.2948L-89.3154 42.3446ZM-128.292 18.639L-122.09 15.0991L-113.707 10.2506L-104.822 15.3843L-99.1057 18.7397V35.5165L-105.124 39.006L-113.691 43.9552L-121.855 39.2409L-128.292 35.5165V18.639ZM-121.251 41.942L-114.713 45.7335V62.611L-123.649 67.795L-129.265 71.0497L-134.629 67.946L-143.866 62.611V45.7335L-137.479 41.942L-129.315 37.2277L-121.251 41.942ZM-159.541 18.639L-154.126 15.5185L-144.939 10.2171L-137.211 14.6797L-130.354 18.639V35.5165L-137.312 39.5429L-144.939 43.9552L-153.707 38.9222L-159.541 35.5668V18.639ZM-165.559 68.1306L-175.115 62.611V45.7335L-168.912 42.0762L-160.53 37.2948L-152.399 41.942L-145.962 45.6664V62.611L-155.199 67.946L-160.53 71.0497L-165.559 68.1306ZM-167.873 120.994L-175.165 116.766V99.889L-166.783 95.1076L-160.53 91.4503L-154.093 95.1747L-145.928 99.889V116.766L-153.221 120.994L-160.53 125.205L-167.873 120.994ZM-168.912 174.579L-175.216 170.939V154.061L-169.65 150.84L-160.53 145.623L-151.695 150.656L-145.928 154.011V170.888L-152.366 174.613L-160.53 179.377L-168.912 174.579ZM-166.917 229.943L-175.299 225.161V208.234L-168.778 204.459L-160.53 199.795L-152.533 204.408L-145.928 208.234V225.111L-154.126 229.842L-160.53 233.533L-166.917 229.943ZM-165.559 284.786L-175.115 279.267V262.389L-165.559 256.869L-160.53 253.95L-155.165 257.054L-145.928 262.389V279.267L-160.53 287.655L-165.559 284.786ZM-130.354 306.361L-144.956 314.749L-159.558 306.361V289.484L-144.956 281.095L-130.354 289.484V306.361ZM-134.696 284.551L-143.933 279.216V262.389L-134.696 257.054L-129.332 253.95L-123.649 257.205L-114.663 262.389V279.267L-129.265 287.655L-134.696 284.551ZM-99.1057 306.361L-113.707 314.749L-128.309 306.361V289.484L-113.707 281.095L-99.1057 289.484V306.361ZM-104.135 284.232L-112.718 279.199V262.389L-104.135 257.356L-98.1166 253.866L-92.2994 257.222L-83.515 262.255V279.132L-98.1166 287.521L-104.135 284.232ZM-67.8906 306.361L-82.4923 314.749L-97.094 306.361V289.484L-82.4923 281.095L-67.8906 289.484V306.361ZM-71.847 284.82L-81.4697 279.267V262.389L-71.847 256.836L-66.8177 253.95L-62.2076 256.685L-52.149 262.456V279.334L-66.7507 287.722L-71.847 284.82ZM-36.642 306.361L-51.2437 314.749L-65.8454 306.361V289.484L-51.2437 281.095L-36.642 289.484V306.361ZM-40.6655 284.786L-50.2211 279.267V262.389L-40.6655 256.869L-35.6362 253.95L-30.2549 257.054L-21.0345 262.389V279.267L-35.6362 287.655L-40.6655 284.786ZM-5.46049 306.361L-20.0622 314.749L-34.6639 306.361V289.484L-20.0622 281.095L-5.46049 289.484V306.361ZM-9.80244 284.551L-19.0396 279.216V262.389L-9.80244 257.054L-4.43788 253.95L1.17815 257.205L10.1638 262.389V279.267L-4.43788 287.655L-9.80244 284.551ZM25.7881 306.361L11.1864 314.749L-3.41525 306.361V289.484L11.1864 281.095L25.7881 289.484V306.361ZM20.7588 284.232L12.1755 279.199V262.389L20.7588 257.356L26.7772 253.866L32.5944 257.222L41.3956 262.255V279.132L26.7772 287.521L20.7588 284.232ZM57.02 306.361L42.4015 314.749L27.7998 306.361V289.484L42.4015 281.095L57.02 289.484V306.361ZM53.0468 284.82L43.4241 279.267V262.389L53.0468 256.836L58.0761 253.95L62.6863 256.618L72.7448 262.389V279.267L58.1264 287.655L53.0468 284.82ZM88.2518 306.361L73.6501 314.749L59.0317 306.361V289.484L73.6501 281.095L88.2518 289.484V306.361ZM84.2284 284.786L74.6559 279.267V262.389L84.2284 256.869L89.2576 253.95L94.6222 257.054L103.859 262.389V279.267L89.2576 287.655L84.2284 284.786ZM119.433 306.361L104.832 314.749L90.2132 306.361V289.484L104.832 281.095L119.433 289.484V306.361ZM115.075 284.551L105.854 279.216V262.389L115.075 257.054L120.456 253.95L126.055 257.205L135.058 262.389V279.267L120.456 287.655L115.075 284.551ZM150.682 306.361L136.08 314.749L121.479 306.361V289.484L136.08 281.095L150.682 289.484V306.361ZM145.653 284.232L137.086 279.199V262.389L145.653 257.356L151.688 253.866L157.488 257.222L166.289 262.255V279.132L151.688 287.521L145.653 284.232ZM152.962 306.361V289.484L167.564 281.095L182.165 289.484V306.361L167.564 314.749L152.962 306.361Z" fill="url(#paint0_radial_647_2197)"/>
</g>
<defs>
<radialGradient id="paint0_radial_647_2197" cx="0" cy="0" r="1" gradientUnits="userSpaceOnUse" gradientTransform="translate(3.51677 162.475) rotate(90) scale(162.475 187.517)">
<stop stop-color="#FFC38F"/>
<stop offset="1" stop-color="white" stop-opacity="0"/>
</radialGradient>
<clipPath id="clip0_647_2197">
<rect width="375" height="325" fill="white" transform="translate(-184)"/>
</clipPath>
</defs>
</svg>
