<svg width="477" height="413" viewBox="0 0 477 413" fill="none" xmlns="http://www.w3.org/2000/svg">
<g clip-path="url(#clip0_234_170)">
<path d="M459.365 395.987L467.063 391.553L474.505 395.817L477 397.245V394.239L468.364 389.272V367.867L477 362.878V359.872L466.999 365.607L460.602 361.94L448.383 354.883V333.436L460.602 326.379L466.999 322.712L472.842 326.102L476.936 328.447V325.462L468.3 320.474V299.026L476.936 294.038V291.032L474.42 292.503L466.999 296.766L459.322 292.353L448.426 286.064V264.617L457.36 259.457L466.999 253.893L476.68 259.479L476.936 259.628V256.622L475.678 255.897L468.3 251.633V230.25L476.936 225.261V222.276H476.787L466.999 227.947L457.275 222.34L448.426 217.224V195.776L456.401 191.171L467.063 185.053L477 190.788V187.782L468.364 182.814V161.367L477 156.378V153.372L475.571 154.203L467.042 159.107L458.469 154.14L448.532 148.383V126.936L459.429 120.647L467.106 116.212L474.526 120.476L477.043 121.947V118.962L468.406 113.974V92.5263L475.422 88.4756L477.043 87.5376V84.5316L472.948 86.898L466.999 90.2878L460.602 86.6209L448.383 79.5641V58.1168L457.232 53.0001L466.999 47.3931L476.765 53.0427H476.936V50.122L468.3 45.1332V23.6859L476.936 18.7185V15.7124L472.948 18.0149L466.999 21.4473L460.708 17.823L448.49 10.6597V0H445.888V10.6597L434.33 17.3327L427.315 21.3834L420.043 17.1195L408.741 10.6597V0H406.14V10.6597L394.497 17.4606L387.609 21.4473L380.956 17.6099L368.908 10.6597V0H366.306V10.6597L354.365 17.5459L347.733 21.3834L341.336 17.7164L329.224 10.6597V0H326.643V10.6597L313.998 17.951L308.049 21.3834L301.651 17.7591L289.475 10.6597V0H286.895V10.6597L275.337 17.3327L268.3 21.3834L261.05 17.1195L249.727 10.6597V0H247.126V10.6597L235.44 17.3967L228.552 21.3834L221.92 17.5459L209.979 10.6597V0H207.377V10.6597L195.457 17.6099L188.804 21.4473L182.407 17.7804L170.231 10.6597V0H167.629V10.6597L155.005 18.0149L149.056 21.4473L142.659 17.823L130.482 10.6597V0H127.945V10.6597L116.345 17.3967L109.308 21.4473L102.057 17.1835L90.7343 10.6597V0H88.1327V10.6597L76.4471 17.4606L69.5594 21.4473L62.9276 17.6099L50.986 10.6597V0H48.3845V10.6597L36.443 17.5459L29.8538 21.4473L23.4566 17.7804L11.2378 10.6597V0H8.63628V10.6597L0 15.7124V18.7185L9.93705 12.9835L20.6205 19.1875L28.5104 23.7285V45.1332L20.3219 49.8662L9.93705 55.8569L0 50.122V53.128L8.63628 58.1168V79.5641L0 84.5316V87.5376L9.93705 81.8027L21.8786 88.6888L28.5104 92.5263V113.974L17.8483 120.135L9.95838 124.697L0 118.962V121.968L8.63628 126.936V148.383L0 153.372V156.378L1.42872 155.632L9.95838 150.728L19.1917 155.994L28.4677 161.367V182.814L17.2086 189.21L9.89441 193.474L0 187.782V190.788L0.831642 191.278L8.63628 195.776V217.224L0.106621 222.212V225.197L2.49493 223.854L9.93705 219.59L18.1469 224.323L28.5104 230.25V251.569L21.6867 255.513L9.93705 262.293L0 256.622V259.628L8.63628 264.617V286.064L0.106621 291.032V294.038L10.0437 288.303L28.617 298.962V320.41L20.4072 325.143L10.0437 331.133L0 325.462V328.447L8.63628 333.436V354.883L0 359.872V362.878L9.93705 357.143L28.5104 367.803V389.25L9.93705 399.91L0 394.282V397.288L8.63628 402.276V412.936H11.2378V402.276L21.772 396.2L29.8538 391.553L38.0636 396.286L48.4271 402.276V412.936H51.0287V402.276L61.3922 396.286L69.602 391.553L77.9185 396.35L88.1754 402.276V412.936H90.7769V402.276L100.501 396.669L109.35 391.553L118.114 396.541L127.945 402.276V412.936H130.546V402.276L141.443 395.987L149.12 391.553L156.583 395.817L167.693 402.212V412.872H170.295V402.212L180.829 396.136L188.868 391.489L197.078 396.222L207.441 402.212V412.872H210.043V402.212L220.428 396.222L228.616 391.489L236.954 396.286L247.19 402.212V412.872H249.791V402.212L259.515 396.605L268.364 391.489L277.214 396.541L287.002 402.191V412.851H289.582V402.191L300.479 395.902L308.155 391.467L315.619 395.731L326.75 402.127V412.787H329.33V402.127L339.864 396.051L347.925 391.403L356.113 396.136L366.498 402.127V412.787H368.908V402.127L379.271 396.136L387.481 391.403L395.798 396.2L406.055 402.127V412.787H408.656V402.127L418.359 396.52L427.229 391.403L436.015 396.477L445.803 402.127V412.787H448.404V402.127L459.365 395.987ZM465.762 299.026V320.474L457.723 325.121L447.189 331.197L436.932 325.271L428.615 320.474V299.026L447.189 288.367L465.762 299.026ZM80.6053 191.427L88.1327 195.691V217.138L79.8163 221.935L69.5594 227.862L59.1745 221.871L50.986 217.138V195.776L58.3216 191.512L69.5594 185.117L80.6053 191.427ZM70.8602 182.899V161.367L80.1575 155.994L89.4335 150.643L99.3919 156.378L107.922 161.367V182.814L97.2595 188.933L89.2842 193.538L81.97 189.274L70.8602 182.899ZM70.8602 230.271L81.245 224.28L89.4335 219.548L98.3043 224.664L108.007 230.25V251.569L101.61 255.236L89.3695 262.293L77.6199 255.513L70.8602 251.569V230.271ZM98.3896 221.743L90.7343 217.33V195.776L97.6433 191.875L109.308 185.138L121.27 191.875L127.945 195.776V217.224L120.524 221.488L109.372 227.883L98.3896 221.743ZM110.608 182.921V161.367L119.906 155.994L129.182 150.643L138.479 155.994L147.755 161.367V182.814L136.24 189.444L129.182 193.538L121.654 189.274L110.608 182.921ZM110.608 230.293L120.865 224.387L129.182 219.569L137.221 224.216L147.755 230.25V251.569L141.358 255.279L129.203 262.293L117.752 255.833L110.608 251.569V230.293ZM139.332 222.447L130.482 217.33V195.776L138.458 191.171L149.12 185.053L159.782 191.278L167.587 195.776V217.224L158.801 222.298L149.013 227.947L139.332 222.447ZM150.357 182.921V161.367L160.422 155.632L168.951 150.728L178.249 156.08L187.525 161.452V182.814L176.265 189.21L168.951 193.474L162.362 189.743L150.357 182.921ZM150.357 230.293L161.488 223.897L168.93 219.633L177.14 224.366L187.503 230.25V251.569L180.68 255.513L168.93 262.293L157.799 255.833L150.399 251.569L150.357 230.293ZM178.249 221.957L170.231 217.33V195.776L177.31 191.683L188.804 185.053L200.042 191.449L207.377 195.712V217.16L199.21 221.893L188.804 227.883L178.249 221.957ZM190.105 182.921V161.367L198.634 156.442L208.678 150.643L217.208 155.611L227.145 161.367V182.814L215.481 189.551L208.572 193.538L200.788 189.018L190.105 182.921ZM190.105 230.293L199.893 224.664L208.678 219.569L216.376 224.003L227.251 230.399V251.569L219.639 256.068L208.721 262.464L195.926 255.13L190.105 251.569V230.293ZM218.167 222.063L209.979 217.33V195.776L217.314 191.512L228.552 185.117L239.598 191.512L247.126 195.776V217.224L238.831 222.021L228.552 227.947L218.167 222.063ZM229.853 182.921V161.367L239.15 155.994L248.426 150.643L258.385 156.378L266.914 161.367V182.814L256.252 188.933L248.277 193.538L240.963 189.274L229.853 182.921ZM229.853 230.293L240.238 224.302L248.426 219.569L257.297 224.685L267 230.293V251.569L260.602 255.236L248.362 262.293L236.634 255.513L229.853 251.569V230.293ZM257.404 221.765L249.727 217.352V195.776L256.658 191.875L268.3 185.138L280.285 191.875L286.895 195.691V217.138L279.453 221.402L268.3 227.798L257.404 221.765ZM269.601 182.942V161.367L278.899 155.994L288.175 150.643L297.472 155.994L306.769 161.367V182.814L295.254 189.444L288.175 193.538L280.668 189.274L269.601 182.942ZM269.601 230.314L279.858 224.408L288.175 219.59L296.235 224.238L306.769 230.314V251.569L300.372 255.279L288.196 262.293L276.766 255.684L269.601 251.569V230.314ZM298.325 222.468L289.475 217.352V195.776L297.472 191.171L308.134 185.053L318.796 191.278L326.622 195.776V217.224L317.815 222.298L308.027 227.947L298.325 222.468ZM309.35 182.942V161.367L319.414 155.632L327.944 150.728L337.22 156.08L346.517 161.452V182.814L335.258 189.21L327.944 193.474L321.355 189.743L309.35 182.942ZM309.35 230.314L320.481 223.918L327.944 219.654L336.133 224.387L346.517 230.25V251.569L339.672 255.513L327.944 262.293L316.749 255.897L309.35 251.633V230.314ZM337.263 221.978L329.224 217.352V195.776L336.325 191.683L347.818 185.053L359.056 191.449L366.392 195.712V217.16L358.246 221.957L347.861 227.947L337.263 221.978ZM349.098 182.942V161.367L357.627 156.442L367.692 150.643L376.222 155.611L386.18 161.367V182.814L374.495 189.551L367.607 193.538L359.802 189.018L349.098 182.942ZM349.098 230.314L358.886 224.685L367.692 219.59L375.305 223.854L386.202 230.25V251.569L378.525 256.004L367.628 262.4L354.834 255.066L349.098 251.569V230.314ZM377.16 222.085L368.908 217.224V195.776L376.243 191.512L387.481 185.117L398.506 191.512L406.055 195.776V217.224L397.738 222.021L387.481 227.947L377.16 222.085ZM388.867 182.942V161.367L398.143 155.994L407.441 150.643L417.378 156.378L426.014 161.367V182.814L415.352 188.933L407.398 193.538L400.062 189.274L388.867 182.942ZM388.867 230.314L399.231 224.323L407.441 219.59L416.29 224.707L426.014 230.314V251.569L419.617 255.236L407.398 262.293L395.648 255.513L388.825 251.569L388.867 230.314ZM416.397 221.786L408.741 217.373V195.776L415.65 191.875L427.315 185.138L439.278 191.875L445.888 195.691V217.138L438.467 221.402L427.315 227.798L416.397 221.786ZM417.356 153.564L408.827 148.575V126.936L418.55 121.329L427.4 116.212L436.186 121.286L445.973 126.936V148.383L437.444 153.308L427.4 159.107L417.356 153.564ZM426.014 114.166L416.183 119.837L407.441 124.889L399.529 120.327L388.867 114.166V92.5263L395.499 88.6888L407.441 81.8027L419.723 88.902L426.014 92.5263V114.166ZM395.862 121.222L406.14 127.128V148.383L396.842 153.756L387.566 159.107L378.269 153.756L368.908 148.383V126.936L379.293 120.945L387.481 116.212L395.862 121.222ZM386.266 114.166L374.943 120.689L367.692 124.953L359.035 119.964L349.098 114.23V92.5263L355.047 89.0939L367.692 81.8027L378.994 88.3477L386.266 92.6116V114.166ZM355.985 121.137L366.392 127.128V148.383L357.094 153.756L347.818 159.107L338.521 153.756L329.224 148.383V126.936L339.886 120.86L347.925 116.212L355.985 121.137ZM346.517 114.166L335.855 120.327L327.965 124.889L321.078 120.902L309.371 114.166V92.5263L316.408 88.4756L327.965 81.8027L339.886 88.6888L346.539 92.5263L346.517 114.166ZM315.597 120.497L326.75 126.893V148.383L316.685 154.203L308.155 159.107L299.626 154.14L289.667 148.383V126.936L300.585 120.647L308.241 116.212L315.597 120.497ZM306.876 113.974L295.915 120.37L288.281 124.783L280.199 120.114L269.708 114.059V92.5263L276.596 88.5609L288.281 81.8027L300.543 88.8807L306.94 92.5263L306.876 113.974ZM277.214 121.286L287.002 126.936V148.383L278.472 153.308L268.407 159.107L258.47 153.372L249.94 148.383V126.936L259.664 121.329L268.514 116.212L277.214 121.286ZM267.106 113.974L257.297 119.645L248.533 124.697L240.643 120.135L229.981 113.974V92.5263L236.634 88.6888L248.554 81.8027L260.837 88.902L267.128 92.5263L267.106 113.974ZM236.975 121.03L247.232 126.936V148.383L237.956 153.756L228.659 159.107L219.383 153.756L209.979 148.383V126.936L220.364 120.945L228.552 116.212L236.975 121.03ZM227.358 113.974L216.056 120.497L208.785 124.761L200.255 119.773L190.318 114.038V92.5263L196.268 89.0939L208.891 81.8027L220.215 88.3477L227.465 92.6116L227.358 113.974ZM196.993 120.945L207.377 126.936V148.383L198.101 153.756L188.804 159.107L179.528 153.756L170.231 148.383V126.936L180.893 120.86L188.911 116.212L196.993 120.945ZM187.503 113.974L176.841 120.135L168.93 124.697L162.064 120.711L150.378 113.974V92.5263L157.415 88.4756L168.951 81.8027L180.893 88.6888L187.525 92.5263L187.503 113.974ZM156.477 120.497L167.629 126.893V148.383L157.585 154.203L149.056 159.107L140.526 154.14L130.568 148.383V126.936L141.486 120.647L149.141 116.212L156.477 120.497ZM147.755 113.974L136.816 120.37L129.182 124.783L121.1 120.028L110.608 113.974V92.5263L117.496 88.5609L129.182 81.8027L141.422 88.8807L147.819 92.5263L147.755 113.974ZM118.093 121.286L127.945 126.936V148.383L119.415 153.308L109.35 159.107L99.3705 153.372L90.7343 148.383V126.936L100.458 121.329L109.308 116.212L118.093 121.286ZM108.007 113.974L98.0911 119.645L89.3482 124.697L81.4583 120.135L70.7962 113.974V92.5263L77.428 88.6888L89.3695 81.8027L101.716 88.902L108.007 92.5263V113.974ZM77.8758 121.03L88.1327 126.936V148.383L78.8994 153.756L69.602 159.107L60.326 153.756L50.986 148.383V126.936L61.3709 120.945L69.5594 116.212L77.8758 121.03ZM68.2373 113.974L56.9355 120.497L49.664 124.761L41.0277 119.773L31.0906 114.038V92.5263L37.0401 89.0939L49.664 81.8027L60.9871 88.3477L68.2373 92.6116V113.974ZM58.3216 155.632L68.2373 161.367V182.814L56.5517 189.551L49.6853 193.538L41.902 189.018L31.1119 182.814V161.367L39.6416 156.442L49.7066 150.643L58.3216 155.632ZM57.362 223.854L68.2373 230.25V251.569L60.5819 256.004L49.664 262.4L36.8695 255.066L31.1119 251.569V230.25L40.8997 224.622L49.6853 219.526L57.362 223.854ZM68.2373 299.026V320.474L59.3878 325.59L49.664 331.197L38.5327 324.802L31.0906 320.538V299.026L49.664 288.367L68.2373 299.026ZM61.3709 292.076L50.986 286.085V264.617L59.3878 259.756L69.5594 253.893L79.6457 259.713L88.1754 264.617V286.064L77.8758 292.076L69.5594 296.873L61.3709 292.076ZM70.8602 299.048L89.4335 288.388L108.007 299.048V320.495L100.33 324.929L89.4335 331.219L79.07 325.228L70.8602 320.495V299.048ZM100.458 291.692L90.7343 286.085V264.617L98.7095 260.097L109.372 253.978L120.076 260.097L127.945 264.617V286.064L118.157 291.714L109.372 296.766L100.458 291.692ZM110.608 299.048L129.182 288.388L147.755 299.048V320.495L139.716 325.143L129.182 331.219L118.925 325.292L110.608 320.495V299.048ZM141.4 292.375L130.482 286.085V264.617L139.417 259.457L149.056 253.893L158.737 259.479L167.629 264.617V286.064L156.477 292.46L149.056 296.724L141.4 292.375ZM150.357 299.048L168.93 288.388L187.503 299.048V320.495L179.315 325.228L168.93 331.219L159.163 325.569L150.357 320.495V299.048ZM180.786 292.076L170.124 286V264.617L178.441 259.82L188.697 253.893L198.869 259.756L207.271 264.617V286.064L196.993 292.076L188.804 296.788L180.786 292.076ZM190.105 298.962L208.678 288.303L227.251 298.962V320.41L218.402 325.526L208.678 331.133L197.568 324.738L190.105 320.474V298.962ZM220.364 292.076L209.979 286.085V264.617L218.381 259.756L228.552 253.893L238.639 259.713L247.168 264.617V286.064L236.869 292.076L228.552 296.873L220.364 292.076ZM229.853 299.048L248.426 288.388L267 299.048V320.495L259.323 324.929L248.426 331.219L238.063 325.228L229.853 320.495V299.048ZM259.451 291.692L249.727 286.085V264.617L257.702 260.012L268.364 253.893L279.133 260.097L286.959 264.617V286.064L277.214 291.714L268.407 296.766L259.451 291.692ZM269.601 299.048L288.175 288.388L306.769 299.048V320.495L298.709 325.143L288.175 331.219L277.939 325.292L269.601 320.495V299.048ZM300.393 292.375L289.475 286.085V264.617L298.41 259.457L308.049 253.893L317.751 259.479L326.643 264.617V286.064L315.491 292.46L308.049 296.724L300.393 292.375ZM309.35 299.048L327.944 288.388L346.517 299.048V320.495L338.308 325.228L327.944 331.219L318.156 325.569L309.35 320.495V299.048ZM339.779 292.076L329.117 286V264.617L337.433 259.82L347.712 253.893L357.883 259.756L366.285 264.617V286.064L355.985 292.076L347.818 296.788L339.779 292.076ZM349.098 298.962L367.692 288.303L386.266 298.962V320.41L377.395 325.526L367.692 331.133L356.561 324.738L349.098 320.474V298.962ZM379.378 291.991L368.908 286.064V264.617L377.31 259.756L387.481 253.893L397.568 259.713L406.097 264.617V286.064L395.862 292.076L387.566 296.873L379.378 291.991ZM388.867 298.962L407.441 288.303L426.014 298.962V320.41L418.316 324.844L407.441 331.133L397.056 325.143L388.867 320.41V298.962ZM418.465 291.607L408.741 286V264.617L416.695 260.012L427.357 253.893L438.019 260.097L445.845 264.617V286.064L436.058 291.714L427.272 296.766L418.465 291.607ZM455.228 224.046L465.762 230.122V251.569L459.365 255.279L447.21 262.293L435.759 255.684L428.615 251.569V230.25L438.851 224.344L447.189 219.526L455.228 224.046ZM456.465 155.93L465.762 161.303V182.814L454.204 189.444L447.146 193.538L439.619 189.274L428.573 182.878V161.367L437.849 155.994L447.146 150.643L456.465 155.93ZM459.429 88.8168L465.826 92.4624V113.974L454.866 120.37L447.253 124.783L439.15 120.114L428.615 113.974V92.5263L435.503 88.5609L447.189 81.8027L459.429 88.8168ZM428.615 23.6859L436.697 19.0169L447.189 12.9835L458.128 19.3794L465.762 23.7712V45.1332L457.744 49.7809L447.189 55.8569L436.911 49.9301L428.615 45.1332V23.6859ZM438.446 53.8102L445.888 58.0741V79.5641L434.693 85.96L427.315 90.2238L419.638 85.7894L408.741 79.3936V58.1168L416.418 53.6823L427.315 47.3931L438.446 53.8102ZM388.867 23.6859L396.757 19.1875L407.419 13.0262L418.721 19.5499L425.993 23.8138V45.1332L418.316 49.5677L407.419 55.8569L397.013 49.8662L388.846 45.1332L388.867 23.6859ZM397.823 53.2986L406.14 58.1168V79.5641L394.689 86.1518L387.566 90.2878L380.721 86.3437L368.908 79.5641V58.1168L377.182 53.2986L387.566 47.3078L397.823 53.2986ZM349.098 23.6859L355.985 19.7205L367.692 12.9835L377.438 18.6545L386.202 23.6859V45.1332L377.438 50.2499L367.714 55.8569L356.561 49.4611L349.119 45.1972L349.098 23.6859ZM358.246 53.2986L366.456 58.0315V79.5641L354.706 86.3437L347.882 90.2878L341.485 86.5782L329.309 79.5641V58.1168L337.348 53.4691L348.01 47.3931L358.246 53.2986ZM309.413 23.6006L318.071 18.6119L328.008 12.8983L338.67 19.0596L346.581 23.6006V45.1332L338.393 49.8662L328.008 55.8569L318.22 50.2073L309.413 45.1332V23.6006ZM317.943 52.9575L326.75 58.0315V79.5641L313.955 86.898L308.091 90.2878L301.694 86.6209L289.454 79.5641V58.1168L298.325 53.0001L308.027 47.3931L317.943 52.9575ZM269.601 23.6859L277.704 19.0169L288.175 12.9835L299.135 19.3794L306.769 23.7712V45.1332L298.73 49.7809L288.068 55.8569L277.811 49.9301L269.495 45.1332L269.601 23.6859ZM279.346 53.8102L286.81 58.0741V79.5641L275.615 85.96L268.215 90.2238L260.56 85.7894L249.642 79.3936V58.1168L257.319 53.6823L268.215 47.3931L279.346 53.8102ZM229.853 23.6859L237.764 19.1875L248.426 13.0262L259.75 19.5499L267 23.8138V45.1332L259.344 49.5677L248.426 55.8569L238.042 49.8662L229.853 45.1332V23.6859ZM238.831 53.2986L247.147 58.1168V79.5641L235.717 86.1518L228.574 90.2878L221.771 86.3437L210.022 79.5641V58.1168L218.189 53.2986L228.552 47.3078L238.831 53.2986ZM190.105 23.6859L196.993 19.7205L208.678 12.9835L218.509 18.6545L227.251 23.6859V45.1332L218.402 50.2499L208.678 55.8569L197.526 49.4611L190.105 45.1972V23.6859ZM199.189 53.2986L207.377 58.0315V79.5641L195.649 86.3437L188.804 90.2878L182.407 86.5782L170.252 79.5641V58.1168L178.291 53.4691L188.825 47.3931L199.189 53.2986ZM150.357 23.6859L159.014 18.6971L168.93 12.9835L179.592 19.1448L187.482 23.6859V45.1332L179.293 49.8662L168.93 55.8569L159.142 50.2073L150.357 45.1332V23.6859ZM158.886 53.0427L167.672 58.1168V79.5641L154.877 86.898L149.056 90.2878L142.659 86.6209L130.419 79.5641V58.1168L139.268 53.0001L148.992 47.3931L158.886 53.0427ZM110.608 23.6859L118.712 19.0169L129.182 12.9835L140.142 19.3794L147.755 23.7712V45.1332L139.737 49.7809L129.075 55.8569L118.818 49.9301L110.502 45.1332L110.608 23.6859ZM120.439 53.8102L127.881 58.0741V79.5641L116.707 85.96L109.308 90.2238L101.652 85.7894L90.7343 79.3936V58.1168L98.411 53.6823L109.308 47.3931L120.439 53.8102ZM70.8602 23.6859L78.7501 19.1875L89.4122 13.0262L100.714 19.5499L107.986 23.8138V45.1332L100.33 49.5677L89.4335 55.8569L79.0486 49.8662L70.8602 45.1332V23.6859ZM79.8163 53.2986L88.1327 58.1168V79.5641L76.767 86.1518L69.6234 90.2878L62.7996 86.3437L51.05 79.5641V58.1168L59.1745 53.2986L69.5594 47.3078L79.8163 53.2986ZM31.1119 23.6859L37.9996 19.7205L49.6853 12.9835L59.5157 18.6545L68.2373 23.6859V45.1332L59.3878 50.2499L49.6853 55.8569L38.5327 49.4611L31.1119 45.1972V23.6859ZM23.4566 86.5782L11.3018 79.5641V58.1168L19.1917 53.4691L29.8538 47.3931L40.196 53.2986L48.3845 58.0315V79.5641L36.6349 86.3437L29.8538 90.2878L23.4566 86.5782ZM20.5138 153.756L11.2378 148.383V126.936L21.8999 120.86L29.8538 116.212L38.0423 120.945L48.4271 126.936V148.383L39.1511 153.756L29.8538 159.107L20.5138 153.756ZM19.1917 221.85L11.1739 217.224V195.776L18.2535 191.683L29.8538 185.053L41.0916 191.449L48.4271 195.712V217.16L40.2387 221.893L29.8538 227.947L19.1917 221.85ZM21.7293 292.204L11.0672 286.128V264.617L19.3623 259.82L29.8538 253.893L40.0254 259.756L48.4271 264.617V286.064L37.9996 292.076L29.8538 296.766L21.7293 292.204ZM23.4566 361.897L11.3018 354.883V333.436L23.4566 326.422L29.8538 322.712L36.6775 326.656L48.4271 333.436V354.883L29.8538 365.543L23.4566 361.897ZM68.2373 389.314L49.664 399.974L31.0906 389.314V367.867L49.664 357.207L68.2373 367.867V389.314ZM62.7143 361.599L50.9647 354.819V333.436L62.7143 326.656L69.5381 322.712L76.767 326.848L88.1967 333.436V354.883L69.6234 365.543L62.7143 361.599ZM107.986 389.314L89.4122 399.974L70.8388 389.314V367.867L89.4122 357.207L107.986 367.867V389.314ZM101.588 361.194L90.6703 354.798V333.436L101.588 327.04L109.244 322.606L116.643 326.87L127.817 333.265V354.713L109.244 365.372L101.588 361.194ZM147.691 389.314L129.118 399.974L110.544 389.314V367.867L129.118 357.207L147.691 367.867V389.314ZM142.659 361.94L130.419 354.883V333.436L142.659 326.379L149.056 322.712L154.92 326.187L167.714 333.521V354.969L149.141 365.628L142.659 361.94ZM187.439 389.314L168.866 399.974L150.293 389.314V367.867L168.866 357.207L187.439 367.867V389.314ZM182.322 361.897L170.167 354.883V333.436L182.322 326.422L188.719 322.712L195.564 326.656L207.292 333.436V354.883L188.719 365.543L182.322 361.897ZM227.102 389.314L208.529 399.974L189.956 389.314V367.867L208.529 357.207L227.102 367.867V389.314ZM221.579 361.599L209.83 354.819V333.436L221.579 326.656L228.403 322.712L235.547 326.848L246.976 333.436V354.883L228.403 365.543L221.579 361.599ZM266.85 389.314L248.277 399.974L229.704 389.314V367.867L248.277 357.207L266.85 367.867V389.314ZM260.453 361.194L249.535 354.798V333.436L260.453 327.04L268.109 322.606L275.508 326.87L286.703 333.265V354.713L268.109 365.372L260.453 361.194ZM306.577 389.314L287.983 399.974L269.409 389.314V367.867L287.983 357.207L306.577 367.867V389.314ZM301.524 361.94L289.283 354.883V333.436L301.524 326.379L307.921 322.712L313.785 326.102L326.579 333.436V354.883L307.985 365.543L301.524 361.94ZM346.304 389.314L327.731 399.974L309.136 389.314V367.867L327.731 357.207L346.304 367.867V389.314ZM341.186 361.897L329.01 354.883V333.436L341.186 326.422L347.584 322.712L354.407 326.656L366.157 333.436V354.883L347.584 365.543L341.186 361.897ZM385.967 389.314L367.394 399.974L348.799 389.314V367.867L367.394 357.207L385.967 367.867V389.314ZM380.423 361.599L368.695 354.819V333.436L380.423 326.656L387.268 322.712L394.39 326.848L405.841 333.436V354.883L387.268 365.543L380.423 361.599ZM425.715 389.314L407.142 399.974L388.569 389.314V367.867L407.142 357.207L425.715 367.867V389.314ZM419.318 361.194L408.421 354.798V333.436L419.318 327.04L426.995 322.606L434.373 326.87L445.568 333.265V354.713L426.995 365.372L419.318 361.194ZM428.615 389.314V367.867L447.189 357.207L465.762 367.867V389.314L447.189 399.974L428.615 389.314Z" fill="url(#paint0_radial_234_170)"/>
</g>
<defs>
<radialGradient id="paint0_radial_234_170" cx="0" cy="0" r="1" gradientUnits="userSpaceOnUse" gradientTransform="translate(238.521 206.468) rotate(90) scale(206.468 238.521)">
<stop stop-color="#FFC38F"/>
<stop offset="1" stop-color="white" stop-opacity="0"/>
</radialGradient>
<clipPath id="clip0_234_170">
<rect width="477" height="413" fill="white"/>
</clipPath>
</defs>
</svg>
