<svg width="20" height="20" viewBox="0 0 20 20" fill="none" xmlns="http://www.w3.org/2000/svg">
<circle cx="10" cy="10" r="10" fill="#FF8720"/>
<path d="M8.5 12.256C8.50914 12.5814 8.64481 12.8904 8.87818 13.1173C9.11155 13.3443 9.42423 13.4713 9.74976 13.4714C10.0753 13.4714 10.388 13.3445 10.6215 13.1177C10.8549 12.8908 10.9907 12.5819 11 12.2565V4.24346C10.9908 3.91806 10.8551 3.60908 10.6216 3.38217C10.3882 3.15526 10.0755 3.02832 9.75 3.02832C9.42447 3.02832 9.11177 3.15526 8.87835 3.38217C8.64494 3.60908 8.5092 3.91806 8.5 4.24346V12.256ZM8.5 15.75C8.5 16.4375 9.0625 17 9.75 17C10.4375 17 11 16.4375 11 15.75C11 15.0625 10.4375 14.5 9.75 14.5C9.4188 14.501 9.10147 14.6331 8.86728 14.8672C8.63309 15.1014 8.50105 15.4188 8.5 15.75Z" fill="white"/>
</svg>
