<svg width="244" height="221" viewBox="0 0 244 221" fill="none" xmlns="http://www.w3.org/2000/svg">
<path d="M225.173 113.394C224.822 114.025 225.509 112.842 225.135 113.423L224.918 113.773C224.734 114.068 224.544 114.354 224.353 114.639C223.963 115.209 223.55 115.759 223.129 116.307C222.708 116.856 222.242 117.363 221.773 117.858C221.615 118.086 221.42 118.285 221.196 118.448L221.474 118.179L221.177 118.462L220.733 118.87C219.704 119.789 218.613 120.636 217.466 121.403C216.965 121.734 216.416 122.063 215.886 122.386C215.259 122.759 216.508 122.055 215.886 122.386L215.524 122.582C215.186 122.761 214.845 122.927 214.504 123.092C213.279 123.682 212.016 124.189 210.723 124.609C210.39 124.716 210.063 124.819 209.733 124.909L209.229 125.047C209.028 125.099 208.558 125.152 209.267 125.018C208.589 125.114 207.921 125.322 207.241 125.435C205.882 125.668 204.508 125.801 203.13 125.833C202.919 125.842 201.811 125.915 202.661 125.848C202.348 125.853 202.036 125.837 201.725 125.799C201.002 125.765 200.283 125.696 199.564 125.598C198.845 125.499 198.344 125.41 197.74 125.285C197.403 125.216 197.062 125.141 196.727 125.055C196.706 125.026 196.008 124.845 196.496 124.996C196.984 125.147 196.155 124.892 196.069 124.867C194.76 124.456 193.487 123.941 192.26 123.328C191.98 123.185 191.697 123.037 191.419 122.886C191.394 122.853 190.761 122.539 191.204 122.77C191.647 123 191.038 122.669 190.999 122.646C190.4 122.278 189.813 121.885 189.245 121.478C188.113 120.664 187.042 119.767 186.041 118.796C186.005 118.748 185.514 118.254 185.876 118.635C186.237 119.017 185.771 118.496 185.735 118.448C185.519 118.22 185.322 118.008 185.094 117.744C184.603 117.189 184.136 116.617 183.685 116.025C183.304 115.516 182.922 115.007 182.583 114.466C182.375 114.188 182.196 113.879 182.012 113.575C181.909 113.437 181.819 113.287 181.742 113.125C181.591 112.923 181.139 112.391 181.652 113.005C181.294 112.477 181.003 111.907 180.784 111.308C180.468 110.637 180.18 109.953 179.915 109.259C179.649 108.566 179.439 107.996 179.262 107.379C179.16 107.043 179.062 106.703 178.973 106.365C178.924 106.199 178.775 105.861 179.005 106.506C178.938 106.299 178.887 106.087 178.851 105.872C178.549 104.5 178.354 103.106 178.267 101.704C178.244 101.354 178.219 100.99 178.224 100.648L178.221 100.223C178.197 99.4912 178.192 100.875 178.218 100.15C178.245 99.4252 178.286 98.7413 178.365 98.0369C178.444 97.3325 178.537 96.7457 178.671 96.1049C178.731 95.805 178.799 95.5062 178.872 95.2038C178.906 95.1786 179.093 94.4982 178.931 94.9722L179.068 94.5546C179.476 93.2671 179.997 92.018 180.624 90.8216C180.751 90.5364 180.902 90.2626 181.075 90.0033C180.588 90.6236 181.007 90.1221 181.118 89.9709L181.335 89.6205C181.726 89.0122 182.153 88.4218 182.598 87.8555C183.043 87.2891 183.424 86.8464 183.864 86.3736L184.151 86.0761C184.641 85.5505 183.624 86.5536 184.151 86.0761L184.903 85.3993C185.407 84.9609 185.935 84.5499 186.484 84.1683L187.231 83.6752L187.649 83.422C188.241 83.0525 187.012 83.7424 187.649 83.422C188.286 83.1017 188.745 82.8846 189.322 82.6542C189.595 82.5474 189.874 82.4503 190.149 82.3567L190.704 82.1876L190.892 82.1372C191.204 82.0532 191.141 82.07 190.701 82.1828C190.701 82.1828 192.312 81.9117 192.43 81.8985C192.751 81.8674 193.08 81.8458 193.408 81.8326C193.468 81.8326 194.14 81.8087 193.614 81.8278C193.089 81.847 193.942 81.8447 194.03 81.8531C194.645 81.8987 195.255 81.9846 195.858 82.1101L196.364 82.2253C196.797 82.3129 195.663 82.0008 196.319 82.2145C196.683 82.3309 197.024 82.4354 197.388 82.5902C197.969 82.8147 198.535 83.2299 199.142 83.4196C198.665 83.2827 198.776 83.1915 199.004 83.3355L199.537 83.686C199.819 83.872 200.099 84.0748 200.369 84.2849C200.914 84.7058 201.436 85.1552 201.934 85.6314C202.202 85.8798 202.099 85.6122 201.826 85.4874C201.964 85.593 202.085 85.7202 202.183 85.8642C202.452 86.1626 202.702 86.4554 202.932 86.7427C203.371 87.2913 203.782 87.8621 204.162 88.4528C204.332 88.6784 204.458 88.9364 204.603 89.18C204.989 89.8052 204.293 88.5572 204.628 89.2136C204.725 89.4032 204.827 89.5892 204.907 89.7548C205.523 91.0391 206.023 92.3756 206.403 93.7485C206.458 93.9321 206.615 94.2117 206.375 93.6117C206.427 93.7823 206.466 93.9568 206.489 94.1337C206.556 94.4433 206.633 94.7757 206.668 95.0721C206.79 95.807 206.87 96.5482 206.909 97.2921C206.929 97.6521 206.945 98.0073 206.958 98.3576C206.955 98.4728 206.936 99.2672 206.958 98.5376L206.946 99.0116C206.908 99.7904 206.846 100.587 206.739 101.365C206.633 102.142 206.464 102.937 206.297 103.714C206.217 104.097 206.123 104.482 206.035 104.864L205.914 105.322C205.733 106.081 206.096 104.735 205.867 105.5C205.408 107.021 204.867 108.516 204.247 109.978C203.616 111.456 202.905 112.897 202.134 114.308C201.965 114.623 201.791 114.941 201.609 115.258L201.311 115.781C201.643 115.224 201.403 115.614 201.349 115.752C200.891 116.501 200.437 117.254 199.958 117.996C196.72 123.005 192.979 127.671 188.793 131.922L187.993 132.724C187.843 132.874 187.584 132.979 188.094 132.649C187.978 132.746 187.87 132.852 187.77 132.967C187.174 133.542 186.574 134.111 185.959 134.671C184.879 135.66 183.772 136.634 182.639 137.573C180.334 139.498 177.972 141.277 175.516 142.961C174.272 143.812 173.019 144.632 171.723 145.432C171.115 145.808 170.501 146.178 169.88 146.544L168.997 147.056L168.507 147.333C167.798 147.738 168.878 147.138 168.317 147.439C165.733 148.852 163.098 150.168 160.401 151.351C157.704 152.534 154.81 153.655 151.949 154.609C150.512 155.086 149.068 155.527 147.616 155.93C146.961 156.117 146.306 156.293 145.651 156.459L145.526 156.493L145.086 156.606L143.765 156.914C137.957 158.244 132.033 159.004 126.077 159.185C125.353 159.219 124.645 159.225 123.928 159.229L122.921 159.235L122.625 159.232L122.103 159.226C120.635 159.187 119.166 159.118 117.695 159.007C114.73 158.784 111.778 158.409 108.852 157.884C107.378 157.619 105.904 157.32 104.429 156.986C103.737 156.823 103.049 156.656 102.359 156.476L101.404 156.202C100.665 156.006 102.013 156.375 101.277 156.162L100.63 155.98C97.7885 155.151 94.9934 154.187 92.2446 153.088C89.4959 151.99 86.8031 150.759 84.1663 149.396C82.833 148.709 81.5214 147.99 80.2182 147.242C79.7418 146.977 80.2182 147.242 80.3046 147.297C80.1102 147.188 79.917 147.07 79.7382 146.972C79.5594 146.874 79.2246 146.667 78.969 146.506C78.2621 146.084 77.5673 145.637 76.8713 145.199C71.8797 141.993 67.1928 138.335 62.8699 134.271C62.3478 133.785 61.8317 133.287 61.3241 132.79L60.6076 132.075C60.5824 132.041 60.0531 131.516 60.412 131.884C60.7708 132.252 60.1287 131.586 60.0687 131.526C59.0534 130.473 58.0612 129.397 57.0923 128.298C55.1319 126.078 53.28 123.769 51.5364 121.371C49.7696 118.946 48.118 116.434 46.608 113.861C46.4351 113.571 46.2707 113.282 46.1026 112.988L45.8253 112.498C45.5516 112.013 45.8505 112.532 45.9045 112.604C45.4724 111.908 45.1087 111.153 44.7365 110.427C44.0595 109.134 43.4161 107.817 42.8122 106.492C41.6069 103.866 40.5352 101.184 39.597 98.447C39.4529 98.0803 39.238 97.7455 38.9646 97.4619C38.6911 97.1782 38.3645 96.9511 38.0034 96.7936C37.6422 96.6361 37.2536 96.5513 36.8598 96.544C36.4659 96.5367 36.0745 96.6071 35.7079 96.7511C34.979 97.0575 34.3964 97.6333 34.0815 98.3586C33.7665 99.0839 33.7434 99.9028 34.017 100.645C38.1576 112.545 44.6591 123.487 53.1314 132.815C61.7046 142.309 72.0016 150.089 83.4755 155.743C94.7747 161.334 107.108 164.526 119.699 165.117C132.536 165.626 145.345 163.573 157.379 159.079C169.26 154.658 180.177 147.988 189.531 139.432C194.305 135.089 198.615 130.261 202.388 125.024C206.246 119.64 209.735 113.775 211.537 107.36C213.338 100.945 213.536 93.8512 210.52 87.6818C207.649 81.8544 202.505 76.9964 195.885 76.0286C182.96 74.1422 172.728 87.2329 172.298 99.1151C171.837 111.756 179.379 124.199 191.01 129.389C202.158 134.364 216.156 131.462 224.93 123.126C227.215 120.961 229.162 118.466 230.708 115.724C231.478 114.351 230.5 112.308 229.104 111.796C227.436 111.172 226 111.926 225.173 113.394Z" fill="#FF8720"/>
<path d="M59.2399 105.802C51.7367 99.2187 44.2344 92.6293 36.7329 86.0343C35.0911 84.5953 32.0774 85.7758 31.9291 87.9874L29.6942 119.196L29.0677 128.008C28.9673 129.583 29.9228 131.237 31.6134 131.401C33.1385 131.555 34.8876 130.528 35.006 128.857C35.7553 118.453 36.4991 108.048 37.2373 97.6429L37.8674 88.8363L33.0601 90.7846C40.5656 97.3716 48.0679 103.961 55.5671 110.553C56.1977 111.035 56.9934 111.247 57.78 111.143C58.5666 111.04 59.28 110.629 59.764 110C60.2341 109.364 60.4408 108.572 60.3412 107.787C60.2415 107.003 59.8432 106.286 59.2291 105.788L59.2399 105.802Z" fill="#FF8720"/>
</svg>
