<svg width="30" height="24" viewBox="0 0 30 24" fill="none" xmlns="http://www.w3.org/2000/svg">
<path d="M21.9156 8.64935H20.3571C20.0844 8.64935 19.8701 8.43507 19.8701 8.16234C19.8701 7.88961 20.0844 7.67533 20.3571 7.67533H21.4286V0.974026H0.974026V7.67533H15.6039C15.8766 7.67533 16.0909 7.88961 16.0909 8.16234C16.0909 8.43507 15.8766 8.64935 15.6039 8.64935H0.487013C0.214286 8.64935 0 8.43507 0 8.16234V0.487013C0 0.214286 0.214286 0 0.487013 0H21.9156C22.1883 0 22.4026 0.214286 22.4026 0.487013V8.16234C22.3831 8.43507 22.1688 8.64935 21.9156 8.64935Z" fill="#FF8720"/>
<path d="M21.9156 10.013C21.6428 10.013 21.4286 9.77919 21.4286 9.52594V8.64932H20.3571C20.0844 8.64932 19.8701 8.43503 19.8701 8.16231C19.8701 7.88958 20.0844 7.67529 20.3571 7.67529H21.9156C22.1883 7.67529 22.4026 7.88958 22.4026 8.16231V9.52594C22.3831 9.77919 22.1688 10.013 21.9156 10.013Z" fill="#FF8720"/>
<path d="M18.526 16.3246H0.487013C0.214286 16.3246 0 16.1104 0 15.8376V8.16231C0 7.88958 0.214286 7.67529 0.487013 7.67529H15.6039C15.8766 7.67529 16.0909 7.88958 16.0909 8.16231C16.0909 8.43503 15.8766 8.64932 15.6039 8.64932H0.974026V15.3506H18.526C18.7987 15.3506 19.013 15.5649 19.013 15.8376C19.013 16.1104 18.7987 16.3246 18.526 16.3246Z" fill="#FF8720"/>
<path d="M21.9156 23.9999H0.487013C0.214286 23.9999 0 23.7857 0 23.5129V15.8376C0 15.5649 0.214286 15.3506 0.487013 15.3506H18.526C18.7987 15.3506 19.013 15.5649 19.013 15.8376C19.013 16.1103 18.7987 16.3246 18.526 16.3246H0.974026V23.0259H21.4286V19.0714C21.4286 18.7986 21.6429 18.5844 21.9156 18.5844C22.1883 18.5844 22.4026 18.7986 22.4026 19.0714V23.5129C22.3831 23.7857 22.1688 23.9999 21.9156 23.9999Z" fill="#FF8720"/>
<path d="M4.53862 6.37021C3.40875 6.37021 2.49316 5.45462 2.49316 4.32475C2.49316 3.19488 3.40875 2.2793 4.53862 2.2793C5.66849 2.2793 6.58407 3.19488 6.58407 4.32475C6.58407 5.45462 5.66849 6.37021 4.53862 6.37021ZM4.53862 3.25332C3.9542 3.25332 3.46719 3.74034 3.46719 4.32475C3.46719 4.90917 3.9542 5.39618 4.53862 5.39618C5.12303 5.39618 5.61005 4.90917 5.61005 4.32475C5.61005 3.74034 5.14251 3.25332 4.53862 3.25332Z" fill="#FF8720"/>
<path d="M4.53862 14.0455C3.40875 14.0455 2.49316 13.1299 2.49316 12C2.49316 10.8702 3.40875 9.95459 4.53862 9.95459C5.66849 9.95459 6.58407 10.8702 6.58407 12C6.58407 13.1299 5.66849 14.0455 4.53862 14.0455ZM4.53862 10.9286C3.9542 10.9286 3.46719 11.4156 3.46719 12C3.46719 12.5845 3.9542 13.0715 4.53862 13.0715C5.12303 13.0715 5.61005 12.5845 5.61005 12C5.61005 11.4156 5.14251 10.9286 4.53862 10.9286Z" fill="#FF8720"/>
<path d="M4.53862 21.7208C3.40875 21.7208 2.49316 20.8052 2.49316 19.6753C2.49316 18.5455 3.40875 17.6299 4.53862 17.6299C5.66849 17.6299 6.58407 18.5455 6.58407 19.6753C6.58407 20.8052 5.66849 21.7208 4.53862 21.7208ZM4.53862 18.6039C3.9542 18.6039 3.46719 19.0909 3.46719 19.6753C3.46719 20.2598 3.9542 20.7468 4.53862 20.7468C5.12303 20.7468 5.61005 20.2598 5.61005 19.6753C5.61005 19.0909 5.14251 18.6039 4.53862 18.6039Z" fill="#FF8720"/>
<path d="M19.0133 4.81167H14.1237C13.851 4.81167 13.6367 4.59739 13.6367 4.32466C13.6367 4.05193 13.851 3.83765 14.1237 3.83765H19.0133C19.2861 3.83765 19.5004 4.05193 19.5004 4.32466C19.5004 4.59739 19.2861 4.81167 19.0133 4.81167Z" fill="#FF8720"/>
<path d="M15.6043 12.487H14.1237C13.851 12.487 13.6367 12.2727 13.6367 12C13.6367 11.7272 13.851 11.5129 14.1237 11.5129H15.6237C15.8965 11.5129 16.1107 11.7272 16.1107 12C16.0913 12.2727 15.877 12.487 15.6043 12.487Z" fill="#FF8720"/>
<path d="M19.0133 20.1623H14.1237C13.851 20.1623 13.6367 19.948 13.6367 19.6752C13.6367 19.4025 13.851 19.1882 14.1237 19.1882H19.0133C19.2861 19.1882 19.5004 19.4025 19.5004 19.6752C19.5004 19.948 19.2861 20.1623 19.0133 20.1623Z" fill="#FF8720"/>
<path d="M22.0519 17.9611C21.8961 17.9611 21.7597 17.8832 21.6623 17.7663L16.4805 11.026C15.8182 10.1689 15.9935 8.9416 16.8312 8.29874C17.6883 7.65588 18.9156 7.81173 19.5584 8.64939L21.6623 11.3961L26.3766 3.35069C26.9221 2.41562 28.1104 2.12341 29.0455 2.64939C29.9805 3.19484 30.2727 4.38316 29.7468 5.31822L22.461 17.7273C22.3831 17.8637 22.2273 17.9611 22.0714 17.9611H22.0519ZM18.0195 8.86368C17.8052 8.86368 17.6104 8.92212 17.4351 9.05848C17.0065 9.38965 16.9286 9.99355 17.2597 10.4221L21.9935 16.5974L28.9091 4.81173C29.1818 4.34419 29.026 3.75978 28.5584 3.48705C28.0909 3.21432 27.5065 3.37017 27.2338 3.8377L22.1494 12.5065C22.0714 12.6429 21.9156 12.7403 21.7597 12.7403C21.6039 12.7598 21.4481 12.6819 21.3507 12.5455L18.8182 9.2338C18.6039 9.00004 18.3117 8.86368 18.0195 8.86368Z" fill="#FF8720"/>
</svg>
