<svg width="106" height="26" viewBox="0 0 106 26" fill="none" xmlns="http://www.w3.org/2000/svg">
<path d="M9.68562 4.83434C9.80669 4.58882 9.99406 4.38209 10.2265 4.23753C10.459 4.09297 10.7273 4.01636 11.001 4.01636C11.2748 4.01636 11.5431 4.09297 11.7755 4.23753C12.008 4.38209 12.1954 4.58882 12.3164 4.83434L14.3551 8.96301L18.9128 9.62484C19.1837 9.66418 19.4382 9.77858 19.6475 9.95507C19.8568 10.1316 20.0125 10.3631 20.0971 10.6235C20.1816 10.8839 20.1915 11.1628 20.1257 11.4286C20.06 11.6943 19.9211 11.9364 19.7249 12.1273L16.4268 15.3412L17.2059 19.8805C17.2523 20.1501 17.2223 20.4274 17.1194 20.6809C17.0164 20.9343 16.8446 21.154 16.6234 21.3149C16.4021 21.4759 16.1403 21.5718 15.8674 21.5917C15.5946 21.6117 15.3216 21.5549 15.0793 21.4278L11.0001 19.2828L6.92278 21.4278C6.68049 21.5549 6.40749 21.6117 6.13463 21.5917C5.86176 21.5718 5.59992 21.4759 5.37869 21.3149C5.15746 21.154 4.98566 20.9343 4.88271 20.6809C4.77977 20.4274 4.74977 20.1501 4.79612 19.8805L5.57345 15.3412L2.27528 12.1273C2.07905 11.9363 1.94024 11.6941 1.87457 11.4282C1.8089 11.1623 1.819 10.8833 1.90372 10.6228C1.98844 10.3624 2.14439 10.1309 2.35393 9.95447C2.56346 9.77809 2.81819 9.6639 3.08928 9.62484L7.64695 8.96484L9.68378 4.83434H9.68562Z" fill="white"/>
<g clip-path="url(#clip0_57_27)">
<path d="M69.4442 7.58946C66.0201 7.58946 63.2278 10.1288 63.2278 13.6272C63.2278 17.1257 66.0201 19.6696 69.4442 19.6696C72.8683 19.6696 75.6605 17.1042 75.6605 13.6272C75.6605 10.1503 72.8699 7.58946 69.4442 7.58946ZM69.4442 17.2886C67.569 17.2886 65.9492 15.7792 65.9492 13.6272C65.9492 11.4753 67.569 9.96737 69.4442 9.96737C71.3193 9.96737 72.9392 11.4553 72.9392 13.6272C72.9392 15.7992 71.3209 17.2886 69.4442 17.2886ZM55.8927 7.58946C52.4671 7.58946 49.6764 10.1288 49.6764 13.6272C49.6764 17.1257 52.4671 19.6696 55.8927 19.6696C59.3184 19.6696 62.1059 17.1042 62.1059 13.6272C62.1059 10.1503 59.309 7.58946 55.8864 7.58946M55.8864 17.2886C54.0097 17.2886 52.3914 15.7792 52.3914 13.6272C52.3914 11.4753 54.0097 9.96737 55.8864 9.96737C57.7631 9.96737 59.3799 11.4553 59.3799 13.6272C59.3799 15.7992 57.7616 17.2886 55.8864 17.2886ZM39.757 9.44168V12.004H46.0427C45.8552 13.4443 45.3636 14.4972 44.6135 15.232C43.698 16.1266 42.2672 17.1072 39.757 17.1072C35.887 17.1072 32.86 14.0653 32.86 10.2902C32.86 6.51502 35.887 3.46847 39.757 3.46847C41.5229 3.44537 43.2266 4.10394 44.4969 5.3007L46.35 3.49306C44.7758 2.0282 42.6895 0.90918 39.757 0.90918C34.4562 0.90918 30 5.11779 30 10.2856C30 15.4533 34.4562 19.6619 39.757 19.6619C42.6186 19.6619 44.7758 18.7397 46.4634 17.0289C48.1968 15.338 48.7388 12.9586 48.7388 11.0341C48.7422 10.5 48.6936 9.96683 48.5939 9.44168H39.757ZM105.716 11.4307C105.201 10.0811 103.632 7.58792 100.417 7.58792C97.2026 7.58792 94.5742 10.0381 94.5742 13.6272C94.5742 17.0089 97.2042 19.6696 100.72 19.6696C101.74 19.6746 102.745 19.4325 103.646 18.9652C104.547 18.4979 105.314 17.8199 105.88 16.992L103.769 15.6193C103.066 16.6261 102.105 17.2886 100.72 17.2886C99.3346 17.2886 98.3561 16.6738 97.7179 15.4579L105.998 12.1193L105.716 11.4307ZM97.2735 13.4443C97.2042 11.111 99.1266 9.92126 100.51 9.92126C101.589 9.92126 102.505 10.45 102.809 11.2047L97.2735 13.4443ZM90.5435 19.3022H93.2664V1.54708H90.5435V19.3022ZM86.0857 8.93597H85.9927C85.3813 8.23043 84.209 7.58946 82.7325 7.58946C79.6361 7.58946 76.7998 10.244 76.7998 13.6503C76.7998 17.0565 79.6361 19.6696 82.7356 19.6696C84.2121 19.6696 85.3845 19.0271 85.9959 18.2954H86.0888V19.1654C86.0888 21.4711 84.8282 22.7115 82.7798 22.7115C81.1142 22.7115 80.0805 21.5449 79.6614 20.5596L77.2898 21.5218C77.9721 23.1235 79.7764 25.091 82.7798 25.091C85.9691 25.091 88.6652 23.2588 88.6652 18.7996V7.95529H86.0857V8.93597ZM82.9673 17.2886C81.0906 17.2886 79.5195 15.7515 79.5195 13.6503C79.5195 11.5229 81.0953 9.96122 82.9673 9.96122C84.8393 9.96122 86.2764 11.5168 86.2764 13.6503C86.2764 15.7546 84.8235 17.2886 82.9673 17.2886Z" fill="white"/>
</g>
<defs>
<clipPath id="clip0_57_27">
<rect width="76" height="24.1818" fill="white" transform="translate(30 0.90918)"/>
</clipPath>
</defs>
</svg>
