<svg width="38" height="38" viewBox="0 0 38 38" fill="none" xmlns="http://www.w3.org/2000/svg">
<path d="M11.1048 8.3125H4.49543C3.0259 8.3125 1.71527 9.38688 1.57465 10.8438C1.53533 11.235 1.57847 11.6301 1.7013 12.0036C1.82412 12.3771 2.02389 12.7207 2.28772 13.0122C2.55156 13.3037 2.87358 13.5367 3.23301 13.6961C3.59245 13.8555 3.98131 13.9377 4.37449 13.9375H33.062C33.6587 13.9375 34.231 14.1746 34.653 14.5965C35.0749 15.0185 35.312 15.5908 35.312 16.1875V17.875" stroke="white" stroke-width="1.2" stroke-linecap="round" stroke-linejoin="round"/>
<path d="M33.0629 11.125V10.5625C33.0629 9.96576 32.8258 9.39347 32.4039 8.97151C31.9819 8.54955 31.4096 8.3125 30.8129 8.3125H28.7246" stroke="white" stroke-width="1.2" stroke-linecap="round" stroke-linejoin="round"/>
<path d="M35.3125 32.5V34.1875C35.3125 34.7842 35.0754 35.3565 34.6535 35.7785C34.2315 36.2004 33.6592 36.4375 33.0625 36.4375H4.9375C4.04239 36.4375 3.18395 36.0819 2.55101 35.449C1.91808 34.8161 1.5625 33.9576 1.5625 33.0625V11.125" stroke="white" stroke-width="1.2" stroke-linecap="round" stroke-linejoin="round"/>
<path d="M25.1875 25.75C25.4982 25.75 25.75 25.4982 25.75 25.1875C25.75 24.8768 25.4982 24.625 25.1875 24.625C24.8768 24.625 24.625 24.8768 24.625 25.1875C24.625 25.4982 24.8768 25.75 25.1875 25.75Z" stroke="white" stroke-width="1.2" stroke-miterlimit="10"/>
<path d="M34.75 29.125H25.1875C24.1432 29.125 23.1417 28.7102 22.4033 27.9717C21.6648 27.2333 21.25 26.2318 21.25 25.1875C21.25 24.1432 21.6648 23.1417 22.4033 22.4033C23.1417 21.6648 24.1432 21.25 25.1875 21.25H34.75C35.1976 21.25 35.6268 21.4278 35.9432 21.7443C36.2597 22.0607 36.4375 22.4899 36.4375 22.9375V27.4375C36.4375 27.8851 36.2597 28.3143 35.9432 28.6307C35.6268 28.9472 35.1976 29.125 34.75 29.125V29.125Z" stroke="white" stroke-width="1.2" stroke-linecap="round" stroke-linejoin="round"/>
<path d="M21.6172 7.1875L23.5888 11.2333" stroke="white" stroke-width="1.2" stroke-linecap="round" stroke-linejoin="round"/>
<path d="M20.5781 10.1954L24.6239 8.22388" stroke="white" stroke-width="1.2" stroke-linecap="round" stroke-linejoin="round"/>
<path d="M5.5 10.9295L25.5728 1.5625L30.0334 11.1222" stroke="white" stroke-width="1.2" stroke-linecap="round" stroke-linejoin="round"/>
</svg>
