<svg width="143" height="44" viewBox="0 0 143 44" fill="none" xmlns="http://www.w3.org/2000/svg">
<path d="M53.672 3.16V19H49.88L44.336 9.688L42.968 7.096H42.944L43.04 9.832V19H40.064V3.16H43.832L49.376 12.448L50.744 15.064H50.792L50.696 12.328V3.16H53.672ZM71.0302 3.16V12.76C71.0302 14.92 70.4542 16.544 69.3022 17.632C68.1502 18.704 66.4702 19.24 64.2622 19.24C62.0542 19.24 60.3742 18.704 59.2222 17.632C58.0702 16.544 57.4942 14.92 57.4942 12.76V3.16H60.8062V12.616C60.8062 13.944 61.0862 14.928 61.6462 15.568C62.2222 16.208 63.0942 16.528 64.2622 16.528C65.4302 16.528 66.2942 16.208 66.8542 15.568C67.4142 14.928 67.6942 13.944 67.6942 12.616V3.16H71.0302ZM92.0773 3.16V19H89.0773V10.744L89.2453 6.112H89.1973L84.8053 19H82.0933L77.7253 6.112H77.6773L77.8453 10.744V19H74.8453V3.16H79.6453L82.5013 11.8L83.5093 15.376H83.5573L84.5893 11.824L87.4213 3.16H92.0773ZM96.1968 19V3.16H103.133C105.053 3.16 106.469 3.536 107.381 4.288C108.293 5.04 108.749 6.104 108.749 7.48C108.749 8.328 108.493 9.08 107.981 9.736C107.469 10.392 106.717 10.808 105.725 10.984V11.008C106.829 11.168 107.677 11.584 108.269 12.256C108.861 12.928 109.157 13.728 109.157 14.656C109.157 16.016 108.661 17.08 107.669 17.848C106.693 18.616 105.261 19 103.373 19H96.1968ZM99.4128 16.504H103.085C103.981 16.504 104.645 16.32 105.077 15.952C105.509 15.584 105.725 15.072 105.725 14.416C105.725 13.744 105.509 13.232 105.077 12.88C104.645 12.528 103.981 12.352 103.085 12.352H99.4128V16.504ZM99.4128 9.808H102.701C104.445 9.808 105.317 9.128 105.317 7.768C105.317 6.408 104.445 5.728 102.701 5.728H99.4128V9.808ZM112.322 19V3.16H124.202V5.824H115.634V9.76H122.378V12.304H115.634V16.336H124.538V19H112.322ZM134.493 3.16C136.285 3.16 137.693 3.592 138.717 4.456C139.741 5.32 140.253 6.48 140.253 7.936C140.253 9.488 139.741 10.68 138.717 11.512C137.693 12.328 136.293 12.736 134.517 12.736L134.181 12.928H130.773V19H127.509V3.16H134.493ZM134.109 10.408C135.037 10.408 135.725 10.224 136.173 9.856C136.637 9.472 136.869 8.888 136.869 8.104C136.869 7.32 136.637 6.744 136.173 6.376C135.725 5.992 135.037 5.8 134.109 5.8H130.773V10.408H134.109ZM136.053 11.104L141.189 19H137.469L133.221 12.064L136.053 11.104ZM46.904 24.92C48.472 24.92 49.824 25.248 50.96 25.904C52.096 26.56 52.968 27.496 53.576 28.712C54.2 29.928 54.512 31.384 54.512 33.08C54.512 34.776 54.2 36.232 53.576 37.448C52.968 38.664 52.096 39.6 50.96 40.256C49.824 40.912 48.472 41.24 46.904 41.24C45.336 41.24 43.976 40.912 42.824 40.256C41.688 39.6 40.808 38.664 40.184 37.448C39.576 36.232 39.272 34.776 39.272 33.08C39.272 31.384 39.576 29.928 40.184 28.712C40.808 27.496 41.688 26.56 42.824 25.904C43.976 25.248 45.336 24.92 46.904 24.92ZM46.904 27.632C46.008 27.632 45.248 27.84 44.624 28.256C44 28.672 43.52 29.288 43.184 30.104C42.864 30.904 42.704 31.896 42.704 33.08C42.704 34.248 42.864 35.24 43.184 36.056C43.52 36.872 44 37.488 44.624 37.904C45.248 38.32 46.008 38.528 46.904 38.528C47.784 38.528 48.536 38.32 49.16 37.904C49.784 37.488 50.256 36.872 50.576 36.056C50.912 35.24 51.08 34.248 51.08 33.08C51.08 31.896 50.912 30.904 50.576 30.104C50.256 29.288 49.784 28.672 49.16 28.256C48.536 27.84 47.784 27.632 46.904 27.632ZM71.4611 25.16V41H67.6691L62.1251 31.688L60.7571 29.096H60.7331L60.8291 31.832V41H57.8531V25.16H61.6211L67.1651 34.448L68.5331 37.064H68.5811L68.4851 34.328V25.16H71.4611ZM75.5953 41V25.16H87.4753V27.824H78.9073V31.76H85.6512V34.304H78.9073V38.336H87.8113V41H75.5953ZM101.431 38.336H109.783V41H98.1187V25.16H101.431V38.336ZM126.285 41H122.853L121.533 37.136H115.461L114.141 41H110.757L116.541 25.16H120.501L126.285 41ZM116.205 34.688H120.789L118.485 27.776L116.205 34.688ZM128.634 41V25.16H135.57C137.49 25.16 138.906 25.536 139.818 26.288C140.73 27.04 141.186 28.104 141.186 29.48C141.186 30.328 140.93 31.08 140.418 31.736C139.906 32.392 139.154 32.808 138.162 32.984V33.008C139.266 33.168 140.114 33.584 140.706 34.256C141.298 34.928 141.594 35.728 141.594 36.656C141.594 38.016 141.098 39.08 140.106 39.848C139.13 40.616 137.698 41 135.81 41H128.634ZM131.85 38.504H135.522C136.418 38.504 137.082 38.32 137.514 37.952C137.946 37.584 138.162 37.072 138.162 36.416C138.162 35.744 137.946 35.232 137.514 34.88C137.082 34.528 136.418 34.352 135.522 34.352H131.85V38.504ZM131.85 31.808H135.138C136.882 31.808 137.754 31.128 137.754 29.768C137.754 28.408 136.882 27.728 135.138 27.728H131.85V31.808Z" fill="white"/>
<path d="M16.2857 3L14.7857 4.83588L19.6428 8.64885L19.3571 10.626L18.7857 14.0153L16.2857 15.0038L13.7143 15.9924L11.7143 14.3683L9.42857 12.6031L10.3571 6.60114L8 6.24809L7.07142 12.25L1.35714 14.5095L2.21428 16.6279L7.92856 14.4389L10.7857 16.6985L12.2143 17.8282L11.6429 21.5706L11.4286 23.124L9.07143 24.042L6.28572 25.1718L1.49999 21.3588L0 23.1947L5.92857 27.7843L6.57143 27.5725L12.2857 25.313L14.7143 27.2901L16.5714 28.7023L16.1428 31.5973L15.7857 34.0687L10 36.2576L10.8571 38.4466L16.6429 36.2576L21.4286 40L22.9286 38.2347L18.0714 34.4217L18.5714 31.4561L18.9286 29.0553L21.3571 28.0668L24 27.0782L28.8571 30.8912L30.2857 29.0553L25.5 25.2424L25.8571 22.5592L26.2857 19.876L32 17.687L31.1428 15.4981L25.4286 17.687L23.4286 16.1336L21.1428 14.3683L21.4286 12.3206L21.9286 9.0019L27.7143 6.74236L26.8571 4.55343L21.0714 6.81298L16.2857 3ZM21.7857 17.8282L23.9286 19.5229L23.6428 21.7118L23.1429 24.8893L20.5 25.9485L18.0714 26.8664L15.6429 24.9599L13.7857 23.4771L14.2143 20.4408L14.5714 18.1107L17.1429 17.1221L19.6428 16.1336L21.7857 17.8282Z" fill="white"/>
</svg>
