<?xml version="1.0" encoding="UTF-8"?>
<svg id="_Шар_1" data-name="Шар 1" xmlns="http://www.w3.org/2000/svg" viewBox="0 0 973 467.5">
  <defs>
    <style>
      .cls-1 {
        fill: #ff8320;
      }

      .cls-2 {
        fill: #130e54;
      }
    </style>
  </defs>
  <path class="cls-2" d="M64.05,39.25c12.54,0,22.51,4.2,29.92,12.61,7.4,8.4,11.11,19.34,11.11,32.82v64.23c0,.45-.36,.81-.81,.81h-20.59c-.45,0-.81-.36-.81-.81v-59.83c0-9.74-2.1-17.18-6.3-22.31-4.2-5.14-10.38-7.71-18.52-7.71s-15.35,3.07-20.81,9.21c-5.47,6.13-8.21,14.01-8.21,23.62v57.03c0,.45-.36,.81-.81,.81H7.62c-.45,0-.81-.36-.81-.81V42.47c0-.45,.36-.81,.81-.81H25.81c.45,0,.81,.36,.81,.81v14.19c4.14-5.47,9.45-9.74,15.92-12.81,6.47-3.07,13.64-4.61,21.51-4.61Z"/>
  <path class="cls-2" d="M219.85,152.34c-14.81,0-26.69-4.41-35.62-13.21-8.94-8.81-13.42-20.48-13.42-35.02V42.42c0-.42,.34-.76,.76-.76h20.7c.42,0,.76,.34,.76,.76v58.48c0,9.48,2.4,16.88,7.21,22.22,4.8,5.34,11.33,8.01,19.61,8.01s15.01-2.7,19.81-8.11c4.81-5.4,7.21-12.77,7.21-22.12V42.42c0-.42,.34-.76,.76-.76h20.7c.42,0,.76,.34,.76,.76v61.69c0,14.54-4.47,26.22-13.41,35.02-8.94,8.8-20.88,13.21-35.83,13.21Z"/>
  <path class="cls-2" d="M457.16,39.25c11.23,.06,20.35,3.93,27.36,11.61,7.07,7.74,10.61,17.81,10.61,30.22v67.88c0,.43-.35,.77-.77,.77h-20.67c-.43,0-.77-.35-.77-.77v-62.47c0-5.74-.83-10.67-2.5-14.81-1.67-4.13-4.07-7.27-7.21-9.41-3.14-2.14-6.9-3.2-11.31-3.2-7.34,0-13.41,2.97-18.21,8.91-4.81,5.93-7.21,13.51-7.21,22.71v58.27c0,.43-.35,.77-.77,.77h-20.27c-.43,0-.77-.35-.77-.77v-62.47c0-8.8-1.8-15.58-5.4-20.31-3.6-4.73-8.8-7.1-15.61-7.1-7.21,0-13.24,2.97-18.11,8.91-4.88,5.93-7.31,13.51-7.31,22.71v58.27c0,.43-.35,.77-.77,.77h-20.67c-.43,0-.77-.35-.77-.77V42.43c0-.43,.35-.77,.77-.77h18.05c.43,0,.77,.35,.77,.77l.02,13.23c5.07-6.38,11.44-11,19.12-13.87,3.89-1.45,8.01-2.28,12.15-2.48,8.17-.4,15.36,1.26,21.56,4.95,5.61,3.34,10.01,7.94,13.21,13.81,4.47-6.79,10.55-11.88,18.24-15.28,5.41-2.39,11.33-3.57,17.24-3.53Z"/>
  <path class="cls-2" d="M620.1,39.05c16.28,0,29.72,5.37,40.33,16.11,10.61,10.75,15.91,24.25,15.91,40.53s-5.31,29.8-15.91,40.53c-10.61,10.75-24.05,16.12-40.33,16.12-15.08,0-27.82-4.94-38.23-14.81l.02,11.39c0,.45-.36,.82-.81,.82h-18.02c-.45,0-.81-.36-.81-.81V3.64c0-.45,.36-.81,.81-.81h20.59c.45,0,.81,.36,.81,.81V51.66c10.01-8.4,21.88-12.61,35.63-12.61Zm-27.12,81.86c6.74,6.81,15.17,10.21,25.32,10.21s18.54-3.37,25.22-10.11c6.67-6.73,10-15.17,10-25.32s-3.34-18.57-10-25.32c-6.68-6.74-15.08-10.11-25.22-10.11-6.67,0-12.71,1.53-18.11,4.6-5.4,3.07-9.64,7.31-12.71,12.71-3.07,5.4-4.6,11.45-4.6,18.11,0,10.01,3.36,18.41,10.11,25.22Z"/>
  <path class="cls-2" d="M839.73,95.89c0,1.83-.11,4.06-.34,6.68-.03,.4-.38,.73-.78,.73h-86.94c1.33,8.67,4.97,15.55,10.91,20.61,5.93,5.07,13.31,7.6,22.12,7.6,4.27,0,8.27-.63,12.01-1.9,3.73-1.27,7.03-3.07,9.91-5.4,2.76-2.25,5.05-4.95,6.88-8.12,.14-.24,.39-.38,.66-.38h21.82c.55,0,.94,.57,.74,1.09-4.29,10.96-10.96,19.56-20,25.83-9.34,6.47-20.01,9.71-32.02,9.71-15.88,0-29.12-5.41-39.73-16.21-10.61-10.81-15.91-24.28-15.91-40.43s5.3-29.62,15.91-40.43c10.61-10.81,23.85-16.21,39.73-16.21,10.8,0,20.42,2.57,28.82,7.71,8.4,5.14,14.88,12.01,19.41,20.61,4.54,8.61,6.81,18.11,6.81,28.52Zm-55.04-36.82c-8.28,0-15.31,2.34-21.11,7-5.81,4.68-9.64,11.08-11.51,19.22h65.45c-1.33-5.47-3.54-10.17-6.61-14.11-3.07-3.93-6.84-6.94-11.3-9.01-4.47-2.07-9.44-3.1-14.91-3.1Z"/>
  <path class="cls-2" d="M952.29,41.06h8.8c.44,0,.8,.36,.8,.8v19.42c0,.44-.36,.8-.8,.8h-10.81c-18.41,0-27.62,10-27.62,30.02v56.84c0,.44-.36,.8-.8,.8h-20.62c-.44,0-.8-.36-.8-.8V42.46c0-.44,.36-.8,.8-.8h17.27c.44,0,.8,.36,.8,.8l-.05,14c7.74-10.27,18.74-15.41,33.02-15.41Z"/>
  <path class="cls-2" d="M102.98,234.62c0,1,.63,1.86,1.56,2.22,1.91,.74,3.74,1.61,5.53,2.62,7.65,4.25,13.61,10.13,17.86,17.64,4.32,7.51,6.45,15.87,6.45,25.16,0,13.96-4.75,25.72-14.31,35.22-9.49,9.5-21.4,14.24-35.57,14.24s-26.15-4.75-35.64-14.24c-6.41-6.34-10.66-13.73-12.7-22.16-.26-1.08-1.2-1.86-2.31-1.86H6.22c-1.71,0-3.07,1.52-2.83,3.21,2.45,17.13,9.61,31.92,21.28,44.27,.35,.43,.78,.85,1.2,1.28,15.66,15.94,35.22,23.95,58.6,23.95s42.87-8.01,58.53-23.95c15.66-15.94,23.46-35.93,23.46-59.95,0-20.69-5.81-38.34-17.36-52.93-1.84-2.34-3.83-4.61-5.95-6.8-10.42-10.68-22.66-17.79-36.72-21.27-1.76-.43-3.46,.95-3.46,2.77v30.59Z"/>
  <path class="cls-2" d="M294.28,204.51v95.15l-68.76-95.66c-.16-.23-.42-.36-.7-.36h-29.51c-.48,0-.87,.39-.87,.87v155.65c0,.48,.39,.87,.87,.87h31.78c.48,0,.87-.39,.87-.87v-97.42l71.09,98.01c.13,.18,.33,.28,.55,.28h27.06c.48,0,.87-.39,.87-.87V204.51c0-.48-.39-.87-.87-.87h-31.5c-.48,0-.87,.39-.87,.87Z"/>
  <path class="cls-2" d="M397.67,329.29v-32.31h53.58c.47,0,.85-.38,.85-.85v-29.14c0-.47-.38-.85-.85-.85h-53.58v-31.04h59.39c.47,0,.85-.38,.85-.85v-29.77c0-.47-.38-.85-.85-.85h-92.7c-.47,0-.85,.38-.85,.85v155.7c0,.47,.38,.85,.85,.85h95.18c.47,0,.85-.38,.85-.85v-30.06c0-.47-.38-.85-.85-.85h-61.87Z"/>
  <g>
    <path class="cls-2" d="M577.09,329.29v-124.75c0-.49-.4-.89-.89-.89h-32.38c-.49,0-.89,.4-.89,.89v155.62c0,.49,.4,.89,.89,.89h92.62c.49,0,.89-.4,.89-.89v-29.97c0-.49-.4-.89-.89-.89h-59.35Z"/>
    <path class="cls-2" d="M753.39,203.65h-30.97c-.34,0-.65,.21-.78,.53l-61,155.72c-.21,.55,.19,1.14,.78,1.14h34.19c.35,0,.67-.22,.79-.55l10.57-29.35h62.78l10.78,29.36c.12,.33,.43,.55,.78,.55h35.03c.59,0,1-.6,.77-1.15l-62.96-155.72c-.13-.32-.43-.52-.77-.52Zm-35.58,97.79l20.41-56.19,20.69,56.19h-41.1Z"/>
    <path class="cls-2" d="M964.26,293.22c-3.83-6.52-9.21-11.55-16.09-15.16,5.53-3.9,9.92-8.86,13.04-14.81,3.19-6.02,4.75-12.4,4.75-19.13,0-11.55-4.54-21.19-13.54-28.91-8.93-7.65-20.2-11.55-33.66-11.55h-64.32c-.48,0-.88,.39-.88,.88v155.63c0,.48,.39,.88,.88,.88h66.09c13.61,0,25.3-4.46,34.94-13.25,9.71-8.86,14.53-19.56,14.53-32.17,0-8.36-1.91-15.87-5.74-22.39Zm-77.24-60.59h28.35c2.69,0,5.1,.43,7.3,1.28,2.2,.78,4.04,1.98,5.53,3.47,1.49,1.49,2.62,3.26,3.47,5.31,.85,1.98,1.28,4.25,1.28,6.8,0,4.96-1.63,9-4.75,12.05-3.19,3.05-7.44,4.61-12.83,4.61h-28.35v-33.52Zm43.65,92.19c-3.47,3.33-7.94,4.96-13.53,4.96h-30.12v-35.29h30.12c5.6,0,10.06,1.63,13.53,4.96,3.4,3.26,5.17,7.44,5.17,12.54s-1.77,9.57-5.17,12.82Z"/>
  </g>
  <path class="cls-1" d="M6.66,198.08H76.23c1.7,0,3.08,1.38,3.08,3.08v27.86c0,1.7-1.38,3.08-3.08,3.08H39.19c-2.57,0-4.66,2.09-4.66,4.66v29.96c0,1.7-1.38,3.08-3.08,3.08H5.08c-1.7,0-3.08-1.38-3.08-3.08v-63.98c0-2.57,2.09-4.66,4.66-4.66Z"/>
  <g>
    <path class="cls-1" d="M630.74,463.74c-6.37,0-11.48-1.9-15.33-5.69-3.85-3.79-5.77-8.81-5.77-15.07v-26c0-.48,.39-.87,.87-.87h7.82c.48,0,.87,.39,.87,.87v24.62c0,4.08,1.04,7.26,3.1,9.56,2.07,2.3,4.88,3.44,8.44,3.44s6.46-1.16,8.52-3.49c2.07-2.32,3.1-5.49,3.1-9.51v-24.62c0-.48,.39-.87,.87-.87h7.82c.48,0,.87,.39,.87,.87v26c0,6.26-1.92,11.28-5.77,15.07-3.85,3.79-8.99,5.69-15.41,5.69Z"/>
    <path class="cls-1" d="M687.4,463.74c-5.68,0-10.25-1.44-13.69-4.31-3.2-2.66-4.96-6.16-5.29-10.5-.04-.55,.42-1.04,.97-1.04h7.54c.47,0,.84,.37,.91,.84,.28,1.95,1.22,3.5,2.81,4.63,1.81,1.29,4.18,1.94,7.1,1.94,1.72,0,3.26-.23,4.61-.69,1.35-.46,2.42-1.15,3.23-2.07,.8-.92,1.21-2.01,1.21-3.27,0-.86-.2-1.62-.6-2.28-.4-.66-.89-1.19-1.46-1.59-.57-.4-1.39-.77-2.45-1.12-1.06-.34-2.01-.6-2.84-.78-.83-.17-1.94-.37-3.32-.6-1.44-.23-2.58-.43-3.44-.6s-1.95-.44-3.27-.82c-1.32-.37-2.4-.78-3.23-1.21-.83-.43-1.74-.99-2.71-1.68-.98-.69-1.74-1.46-2.28-2.32-.55-.86-1.01-1.91-1.38-3.14-.3-1-.48-2.08-.54-3.24-.22-4.34,1.57-8.41,5-11.07,3.29-2.54,7.62-3.82,12.97-3.82s9.73,1.35,13,4.05c3.02,2.49,4.67,5.77,4.95,9.82,.04,.54-.42,1.03-.97,1.03h-7.18c-.48,0-.85-.38-.91-.86-.23-1.77-1.04-3.16-2.43-4.18-1.61-1.17-3.82-1.76-6.63-1.76-2.64,0-4.74,.52-6.29,1.55-1.55,1.03-2.32,2.38-2.32,4.04,0,.69,.11,1.29,.34,1.81,.23,.52,.62,.98,1.16,1.38,.54,.4,1.06,.73,1.55,.99,.49,.26,1.22,.5,2.2,.73,.98,.23,1.78,.4,2.41,.52,.63,.12,1.55,.26,2.76,.43,1.55,.29,2.71,.5,3.49,.64,.77,.14,1.88,.4,3.32,.78,1.43,.37,2.55,.76,3.36,1.16,.8,.4,1.74,.96,2.8,1.68,1.06,.72,1.86,1.52,2.41,2.41,.54,.89,1.02,2,1.42,3.32,.4,1.32,.6,2.76,.6,4.3,0,4.54-1.72,8.15-5.17,10.85-3.44,2.7-8.01,4.05-13.69,4.05Z"/>
    <path class="cls-1" d="M723.48,408.03v-8.12c0-.47,.38-.85,.85-.85h8.21c.47,0,.85,.38,.85,.85v8.12c0,.47-.38,.85-.85,.85h-8.21c-.47,0-.85-.38-.85-.85Zm.17,53.73v-44.8c0-.47,.38-.85,.85-.85h7.86c.47,0,.85,.38,.85,.85v44.8c0,.47-.38,.85-.85,.85h-7.86c-.47,0-.85-.38-.85-.85Z"/>
    <path class="cls-1" d="M778.59,415.08c5.4,0,9.69,1.81,12.87,5.43,3.19,3.62,4.78,8.32,4.78,14.12v27.13c0,.48-.39,.86-.86,.86h-7.84c-.48,0-.86-.39-.86-.86v-25.23c0-4.19-.91-7.39-2.71-9.6s-4.47-3.32-7.97-3.32-6.6,1.32-8.96,3.96c-2.35,2.64-3.53,6.03-3.53,10.16v24.03c0,.48-.39,.86-.86,.86h-7.84c-.48,0-.86-.39-.86-.86v-44.78c0-.48,.39-.86,.86-.86h6.75c.47,0,.86,.38,.86,.85l.06,5.61c1.78-2.35,4.06-4.19,6.85-5.51,2.78-1.32,5.87-1.98,9.26-1.98Z"/>
    <path class="cls-1" d="M860.58,439.45l-.17,3.19h-37.72c.57,3.73,2.14,6.69,4.69,8.87,2.55,2.18,5.73,3.27,9.52,3.27,1.84,0,3.56-.27,5.17-.82,1.61-.54,3.03-1.32,4.26-2.33,1.16-.94,2.13-2.07,2.91-3.4,.09-.16,.26-.26,.45-.26h8.96c.39,0,.66,.41,.52,.77-1.85,4.57-4.68,8.17-8.48,10.81-4.02,2.78-8.61,4.18-13.78,4.18-6.83,0-12.53-2.33-17.1-6.98-4.56-4.65-6.85-10.45-6.85-17.4s2.28-12.75,6.85-17.4c4.57-4.65,10.26-6.98,17.1-6.98,4.65,0,8.78,1.11,12.4,3.32,3.62,2.21,6.4,5.17,8.35,8.87,1.95,3.7,2.93,7.79,2.93,12.27Zm-23.68-15.84c-3.56,0-6.59,1.01-9.09,3.01-2.5,2.01-4.15,4.77-4.95,8.27h28.16c-.57-2.35-1.52-4.38-2.84-6.07-1.32-1.69-2.94-2.99-4.87-3.88-1.92-.89-4.06-1.33-6.42-1.33Z"/>
    <path class="cls-1" d="M893.38,463.74c-5.68,0-10.25-1.44-13.69-4.31-3.22-2.68-4.98-6.21-5.3-10.59-.04-.5,.39-.95,.89-.95h7.7c.43,0,.77,.34,.82,.76,.27,1.99,1.21,3.56,2.82,4.7,1.81,1.29,4.18,1.94,7.1,1.94,1.72,0,3.26-.23,4.61-.69,1.35-.46,2.42-1.15,3.23-2.07,.8-.92,1.21-2.01,1.21-3.27,0-.86-.2-1.62-.6-2.28-.4-.66-.89-1.19-1.46-1.59-.57-.4-1.39-.77-2.45-1.12-1.06-.34-2.01-.6-2.84-.78-.83-.17-1.94-.37-3.32-.6-1.44-.23-2.58-.43-3.44-.6s-1.95-.44-3.27-.82c-1.32-.37-2.4-.78-3.23-1.21-.83-.43-1.74-.99-2.71-1.68-.98-.69-1.74-1.46-2.28-2.32-.55-.86-1.01-1.91-1.38-3.14-.3-1-.48-2.08-.54-3.24-.22-4.34,1.57-8.41,5-11.07,3.29-2.54,7.62-3.82,12.97-3.82s9.73,1.35,13,4.05c3.04,2.51,4.7,5.81,4.96,9.91,.03,.5-.39,.94-.89,.94h-7.35c-.44,0-.78-.35-.83-.78-.22-1.8-1.03-3.22-2.44-4.26-1.61-1.17-3.82-1.76-6.63-1.76-2.64,0-4.74,.52-6.29,1.55-1.55,1.03-2.32,2.38-2.32,4.04,0,.69,.11,1.29,.34,1.81,.23,.52,.62,.98,1.16,1.38,.54,.4,1.06,.73,1.55,.99,.49,.26,1.22,.5,2.2,.73,.98,.23,1.78,.4,2.41,.52,.63,.12,1.55,.26,2.76,.43,1.55,.29,2.71,.5,3.49,.64,.77,.14,1.88,.4,3.32,.78,1.43,.37,2.55,.76,3.36,1.16,.8,.4,1.74,.96,2.8,1.68,1.06,.72,1.86,1.52,2.41,2.41,.54,.89,1.02,2,1.42,3.32,.4,1.32,.6,2.76,.6,4.3,0,4.54-1.72,8.15-5.17,10.85-3.44,2.7-8.01,4.05-13.69,4.05Z"/>
    <path class="cls-1" d="M945.14,463.74c-5.68,0-10.25-1.44-13.69-4.31-3.21-2.68-4.98-6.2-5.29-10.58-.04-.5,.39-.96,.9-.96h7.68c.44,0,.77,.34,.83,.77,.27,1.98,1.21,3.55,2.81,4.69,1.81,1.29,4.18,1.94,7.1,1.94,1.72,0,3.26-.23,4.61-.69,1.35-.46,2.42-1.15,3.23-2.07,.8-.92,1.21-2.01,1.21-3.27,0-.86-.2-1.62-.6-2.28-.4-.66-.89-1.19-1.46-1.59-.57-.4-1.39-.77-2.45-1.12-1.06-.34-2.01-.6-2.84-.78-.83-.17-1.94-.37-3.32-.6-1.44-.23-2.58-.43-3.44-.6-.86-.17-1.95-.44-3.27-.82-1.32-.37-2.4-.78-3.23-1.21-.83-.43-1.74-.99-2.71-1.68-.98-.69-1.74-1.46-2.28-2.32-.55-.86-1.01-1.91-1.38-3.14-.3-1-.48-2.08-.54-3.24-.22-4.34,1.57-8.41,5-11.07,3.29-2.54,7.62-3.82,12.97-3.82s9.73,1.35,13,4.05c3.04,2.51,4.69,5.81,4.96,9.9,.03,.5-.39,.95-.9,.95h-7.33c-.44,0-.78-.35-.84-.79-.22-1.8-1.03-3.22-2.44-4.25-1.61-1.17-3.82-1.76-6.63-1.76-2.64,0-4.74,.52-6.29,1.55-1.55,1.03-2.32,2.38-2.32,4.04,0,.69,.11,1.29,.34,1.81,.23,.52,.62,.98,1.16,1.38,.54,.4,1.06,.73,1.55,.99,.49,.26,1.22,.5,2.2,.73,.98,.23,1.78,.4,2.41,.52,.63,.12,1.55,.26,2.76,.43,1.55,.29,2.71,.5,3.49,.64,.77,.14,1.88,.4,3.32,.78,1.43,.37,2.55,.76,3.36,1.16,.8,.4,1.74,.96,2.8,1.68,1.06,.72,1.86,1.52,2.41,2.41,.54,.89,1.02,2,1.42,3.32,.4,1.32,.6,2.76,.6,4.3,0,4.54-1.72,8.15-5.17,10.85-3.44,2.7-8.01,4.05-13.69,4.05Z"/>
    <path class="cls-1" d="M585.24,421.95c-4.55-4.65-10.33-6.94-17.34-6.94-5.92,0-11.01,1.81-15.32,5.44v-20.66c0-.21-.17-.38-.34-.38h-8.86c-.21,0-.38,.17-.38,.38v62.48c0,.21,.17,.34,.38,.34h7.73c.21,0,.38-.14,.38-.34l-.03-4.89c4.48,4.24,9.95,6.36,16.45,6.36,7.01,0,12.79-2.33,17.34-6.94,4.58-4.62,6.84-10.43,6.84-17.44s-2.26-12.79-6.84-17.41Zm-7.25,28.32c-2.87,2.91-6.5,4.34-10.88,4.34s-7.97-1.47-10.88-4.38c-2.91-2.94-4.34-6.57-4.34-10.88,0-2.84,.65-5.44,1.98-7.76,1.3-2.33,3.15-4.17,5.47-5.47,2.33-1.33,4.89-1.98,7.76-1.98,4.38,0,8,1.44,10.88,4.34,2.84,2.91,4.28,6.53,4.28,10.88s-1.44,8-4.28,10.91Z"/>
  </g>
</svg>