<?xml version="1.0" encoding="UTF-8"?>
<svg id="_Шар_1" data-name="Шар 1" xmlns="http://www.w3.org/2000/svg" viewBox="0 0 808.5 304">
  <defs>
    <style>
      .cls-1 {
        fill: #fff;
      }
    </style>
  </defs>
  <path class="cls-1" d="M54.62,33.12c10.39,0,18.65,3.48,24.78,10.45,6.13,6.96,9.2,16.02,9.2,27.19v53.2c0,.37-.3,.67-.67,.67h-17.05c-.37,0-.67-.3-.67-.67v-49.55c0-8.07-1.74-14.23-5.22-18.48-3.48-4.26-8.6-6.38-15.34-6.38s-12.71,2.54-17.24,7.63c-4.53,5.08-6.8,11.6-6.8,19.56v47.23c0,.37-.3,.67-.67,.67H7.89c-.37,0-.67-.3-.67-.67V35.78c0-.37,.3-.67,.67-.67h15.06c.37,0,.67,.3,.67,.67v11.76c3.43-4.53,7.82-8.07,13.19-10.61,5.36-2.54,11.3-3.82,17.82-3.82Z"/>
  <path class="cls-1" d="M183.65,126.78c-12.26,0-22.11-3.65-29.5-10.94-7.41-7.3-11.11-16.96-11.11-29.01V35.74c0-.35,.28-.63,.63-.63h17.15c.35,0,.63,.28,.63,.63v48.43c0,7.85,1.99,13.98,5.97,18.4,3.97,4.42,9.38,6.63,16.24,6.63s12.43-2.24,16.41-6.72c3.99-4.47,5.97-10.58,5.97-18.32V35.74c0-.35,.28-.63,.63-.63h17.14c.35,0,.63,.28,.63,.63v51.09c0,12.05-3.7,21.71-11.11,29.01-7.41,7.29-17.29,10.94-29.67,10.94Z"/>
  <path class="cls-1" d="M380.2,33.12c9.3,.05,16.85,3.26,22.66,9.62,5.86,6.41,8.79,14.75,8.79,25.03v56.22c0,.35-.29,.64-.64,.64h-17.12c-.35,0-.64-.29-.64-.64v-51.74c0-4.75-.69-8.84-2.07-12.26-1.38-3.42-3.37-6.02-5.97-7.79-2.6-1.77-5.72-2.65-9.37-2.65-6.08,0-11.11,2.46-15.08,7.38-3.98,4.92-5.97,11.19-5.97,18.81v48.26c0,.35-.29,.64-.64,.64h-16.79c-.35,0-.64-.29-.64-.64v-51.74c0-7.29-1.49-12.9-4.47-16.82-2.98-3.92-7.29-5.88-12.93-5.88-5.97,0-10.97,2.46-15,7.38-4.04,4.92-6.05,11.19-6.05,18.81v48.26c0,.35-.29,.64-.64,.64h-17.12c-.35,0-.64-.29-.64-.64V35.75c0-.35,.29-.64,.64-.64h14.95c.35,0,.64,.29,.64,.64l.02,10.96c4.2-5.28,9.48-9.11,15.84-11.49,3.22-1.2,6.63-1.89,10.06-2.06,6.76-.33,12.72,1.04,17.86,4.1,4.64,2.76,8.29,6.58,10.94,11.44,3.7-5.62,8.74-9.84,15.1-12.66,4.48-1.98,9.38-2.95,14.28-2.93Z"/>
  <path class="cls-1" d="M515.15,32.95c13.48,0,24.61,4.45,33.4,13.34,8.78,8.9,13.18,20.09,13.18,33.57s-4.39,24.68-13.18,33.57c-8.79,8.9-19.92,13.35-33.4,13.35-12.49,0-23.04-4.09-31.66-12.27l.02,9.44c0,.37-.3,.68-.67,.68h-14.92c-.37,0-.67-.3-.67-.67V3.62c0-.37,.3-.67,.67-.67h17.05c.37,0,.67,.3,.67,.67V43.39c8.29-6.96,18.13-10.44,29.51-10.44Zm-22.46,67.8c5.58,5.64,12.57,8.45,20.97,8.45s15.36-2.79,20.89-8.37c5.52-5.57,8.28-12.57,8.28-20.97s-2.76-15.38-8.28-20.97c-5.53-5.58-12.49-8.37-20.89-8.37-5.53,0-10.53,1.27-15,3.81-4.47,2.55-7.99,6.05-10.53,10.53-2.55,4.47-3.81,9.48-3.81,15,0,8.29,2.78,15.25,8.37,20.89Z"/>
  <path class="cls-1" d="M697.05,80.03c0,1.52-.09,3.36-.28,5.53-.03,.34-.31,.61-.65,.61h-72.01c1.1,7.18,4.11,12.88,9.03,17.07,4.92,4.2,11.02,6.3,18.32,6.3,3.53,0,6.85-.52,9.95-1.57,3.09-1.05,5.82-2.54,8.2-4.47,2.28-1.86,4.18-4.1,5.7-6.73,.11-.2,.32-.32,.54-.32h18.07c.46,0,.78,.48,.61,.9-3.56,9.08-9.07,16.2-16.56,21.39-7.74,5.36-16.57,8.04-26.52,8.04-13.15,0-24.12-4.48-32.9-13.43-8.79-8.95-13.18-20.11-13.18-33.49s4.39-24.53,13.18-33.48c8.78-8.95,19.75-13.43,32.9-13.43,8.95,0,16.91,2.13,23.87,6.38,6.96,4.26,12.32,9.95,16.08,17.07,3.76,7.13,5.64,15,5.64,23.62Zm-45.59-30.5c-6.85,0-12.68,1.93-17.49,5.8-4.81,3.87-7.99,9.18-9.53,15.91h54.21c-1.11-4.53-2.93-8.42-5.47-11.69-2.54-3.26-5.66-5.74-9.36-7.46-3.7-1.71-7.82-2.57-12.35-2.57Z"/>
  <path class="cls-1" d="M790.28,34.61h7.29c.37,0,.66,.3,.66,.66v16.08c0,.37-.3,.66-.66,.66h-8.95c-15.25,0-22.88,8.28-22.88,24.86v47.08c0,.37-.3,.66-.66,.66h-17.08c-.37,0-.66-.3-.66-.66V35.77c0-.37,.3-.66,.66-.66h14.3c.37,0,.66,.3,.66,.67l-.04,11.6c6.41-8.51,15.52-12.76,27.35-12.76Z"/>
  <g>
    <path class="cls-1" d="M86.86,194.93c0,.82,.52,1.54,1.29,1.84,1.58,.61,3.1,1.34,4.58,2.17,6.34,3.52,11.27,8.39,14.79,14.61,3.58,6.22,5.34,13.15,5.34,20.84,0,11.56-3.93,21.3-11.86,29.17-7.86,7.86-17.72,11.8-29.46,11.8s-21.66-3.93-29.52-11.8c-5.31-5.25-8.83-11.37-10.52-18.36-.22-.9-.99-1.54-1.91-1.54H6.72c-1.42,0-2.54,1.26-2.34,2.66,2.03,14.19,7.96,26.44,17.63,36.66,.29,.35,.64,.7,1,1.06,12.97,13.21,29.17,19.84,48.54,19.84s35.51-6.63,48.48-19.84c12.97-13.21,19.43-29.76,19.43-49.65,0-17.14-4.81-31.75-14.38-43.84-1.53-1.94-3.17-3.82-4.93-5.63-8.63-8.85-18.77-14.74-30.41-17.61-1.46-.36-2.86,.79-2.86,2.29v25.34Z"/>
    <path class="cls-1" d="M245.3,169.99v78.81l-56.95-79.23c-.13-.19-.35-.3-.58-.3h-24.44c-.4,0-.72,.32-.72,.72v128.92c0,.4,.32,.72,.72,.72h26.32c.4,0,.72-.32,.72-.72v-80.69l58.87,81.17c.11,.15,.27,.23,.45,.23h22.41c.4,0,.72-.32,.72-.72V169.99c0-.4-.32-.72-.72-.72h-26.09c-.4,0-.72,.32-.72,.72Z"/>
    <path class="cls-1" d="M330.93,273.33v-26.76h44.37c.39,0,.7-.31,.7-.7v-24.13c0-.39-.31-.7-.7-.7h-44.37v-25.71h49.19c.39,0,.7-.31,.7-.7v-24.66c0-.39-.31-.7-.7-.7h-76.78c-.39,0-.7,.31-.7,.7v128.95c0,.39,.31,.7,.7,.7h78.83c.39,0,.7-.31,.7-.7v-24.89c0-.39-.31-.7-.7-.7h-51.24Z"/>
    <g>
      <path class="cls-1" d="M479.53,273.33v-103.32c0-.41-.33-.73-.73-.73h-26.82c-.41,0-.73,.33-.73,.73v128.88c0,.41,.33,.73,.73,.73h76.71c.41,0,.73-.33,.73-.73v-24.83c0-.41-.33-.73-.73-.73h-49.15Z"/>
      <path class="cls-1" d="M625.54,169.27h-25.65c-.28,0-.54,.17-.64,.44l-50.52,128.97c-.18,.45,.16,.94,.64,.94h28.32c.29,0,.55-.18,.65-.46l8.76-24.31h52l8.93,24.31c.1,.27,.36,.45,.65,.45h29.01c.49,0,.82-.5,.64-.95l-52.15-128.97c-.11-.26-.36-.43-.64-.43Zm-29.47,80.99l16.9-46.54,17.14,46.54h-34.04Z"/>
      <path class="cls-1" d="M800.19,243.45c-3.17-5.4-7.63-9.57-13.32-12.56,4.58-3.23,8.22-7.34,10.8-12.27,2.64-4.99,3.93-10.27,3.93-15.85,0-9.57-3.76-17.55-11.21-23.95-7.4-6.34-16.73-9.57-27.88-9.57h-53.27c-.4,0-.73,.33-.73,.73v128.9c0,.4,.33,.73,.73,.73h54.74c11.27,0,20.95-3.7,28.93-10.98,8.04-7.34,12.03-16.2,12.03-26.65,0-6.93-1.58-13.15-4.75-18.55Zm-63.97-50.18h23.48c2.23,0,4.23,.35,6.04,1.06,1.82,.64,3.35,1.64,4.58,2.88,1.23,1.23,2.17,2.7,2.88,4.4,.7,1.64,1.06,3.52,1.06,5.63,0,4.11-1.35,7.45-3.93,9.98-2.64,2.52-6.16,3.81-10.62,3.81h-23.48v-27.76Zm36.15,76.36c-2.88,2.76-6.57,4.11-11.21,4.11h-24.94v-29.23h24.94c4.64,0,8.33,1.35,11.21,4.11,2.82,2.7,4.28,6.16,4.28,10.39s-1.47,7.92-4.28,10.62Z"/>
    </g>
    <path class="cls-1" d="M7.09,164.66h57.62c1.41,0,2.55,1.14,2.55,2.55v23.07c0,1.41-1.14,2.55-2.55,2.55h-30.68c-2.13,0-3.86,1.73-3.86,3.86v24.82c0,1.41-1.14,2.55-2.55,2.55H5.78c-1.41,0-2.55-1.14-2.55-2.55v-52.99c0-2.13,1.73-3.86,3.86-3.86Z"/>
  </g>
</svg>