<?xml version="1.0" encoding="UTF-8"?>
<svg id="_Шар_1" data-name="Шар 1" xmlns="http://www.w3.org/2000/svg" viewBox="0 0 735.5 745">
  <defs>
    <style>
      .cls-1 {
        fill: #2eb3ff;
      }

      .cls-2 {
        fill: #130e54;
      }
    </style>
  </defs>
  <g>
    <path class="cls-2" d="M52.41,32.23c9.51,0,17.07,3.19,22.69,9.57,5.61,6.37,8.42,14.67,8.42,24.89v48.71c0,.34-.28,.62-.62,.62h-15.62c-.34,0-.62-.28-.62-.62v-45.37c0-7.39-1.59-13.03-4.78-16.92-3.19-3.9-7.87-5.84-14.04-5.84s-11.64,2.33-15.78,6.98c-4.15,4.65-6.22,10.62-6.22,17.91v43.25c0,.34-.28,.62-.62,.62H9.62c-.34,0-.62-.28-.62-.62V34.67c0-.34,.28-.62,.62-.62h13.79c.34,0,.62,.28,.62,.62v10.76c3.14-4.15,7.16-7.39,12.07-9.71,4.9-2.33,10.34-3.49,16.31-3.49Z"/>
    <path class="cls-2" d="M170.55,117.99c-11.23,0-20.24-3.34-27.01-10.02-6.78-6.68-10.17-15.53-10.17-26.56V34.63c0-.32,.26-.57,.57-.57h15.7c.32,0,.57,.26,.57,.57v44.35c0,7.19,1.82,12.8,5.47,16.85,3.64,4.05,8.59,6.07,14.87,6.07s11.39-2.05,15.02-6.15c3.65-4.1,5.47-9.69,5.47-16.77V34.63c0-.32,.26-.57,.57-.57h15.69c.32,0,.57,.26,.57,.57v46.78c0,11.03-3.39,19.88-10.17,26.56-6.78,6.68-15.83,10.02-27.17,10.02Z"/>
    <path class="cls-2" d="M350.51,32.23c8.51,.04,15.43,2.98,20.75,8.81,5.36,5.87,8.05,13.51,8.05,22.92v51.47c0,.32-.26,.59-.59,.59h-15.67c-.32,0-.59-.26-.59-.59v-47.38c0-4.35-.63-8.09-1.9-11.23-1.27-3.13-3.09-5.51-5.46-7.13-2.38-1.62-5.24-2.43-8.58-2.43-5.57,0-10.17,2.25-13.81,6.75-3.64,4.5-5.46,10.24-5.46,17.22v44.19c0,.32-.26,.59-.59,.59h-15.37c-.32,0-.59-.26-.59-.59v-47.38c0-6.68-1.36-11.81-4.1-15.4-2.73-3.59-6.68-5.39-11.84-5.39-5.46,0-10.04,2.25-13.74,6.75-3.7,4.5-5.54,10.24-5.54,17.22v44.19c0,.32-.26,.59-.59,.59h-15.67c-.32,0-.59-.26-.59-.59V34.65c0-.32,.26-.59,.59-.59h13.69c.32,0,.59,.26,.59,.59v10.03c3.86-4.84,8.69-8.34,14.51-10.52,2.95-1.1,6.07-1.73,9.21-1.88,6.19-.3,11.65,.95,16.35,3.75,4.25,2.53,7.59,6.02,10.02,10.48,3.39-5.15,8-9.01,13.83-11.59,4.1-1.81,8.59-2.7,13.08-2.68Z"/>
    <path class="cls-2" d="M474.07,32.08c12.34,0,22.54,4.07,30.58,12.22,8.04,8.15,12.07,18.39,12.07,30.73s-4.02,22.59-12.07,30.73c-8.05,8.15-18.24,12.22-30.58,12.22-11.44,0-21.1-3.75-28.99-11.23l.02,8.64c0,.34-.28,.62-.62,.62h-13.66c-.34,0-.62-.28-.62-.62V5.23c0-.34,.28-.62,.62-.62h15.61c.34,0,.62,.28,.62,.62V41.64c7.59-6.37,16.6-9.56,27.02-9.56Zm-20.57,62.08c5.11,5.16,11.51,7.74,19.2,7.74s14.06-2.55,19.13-7.67c5.06-5.1,7.59-11.51,7.59-19.2s-2.53-14.09-7.59-19.2c-5.06-5.11-11.44-7.66-19.13-7.66-5.06,0-9.64,1.16-13.74,3.49-4.1,2.33-7.31,5.54-9.64,9.64-2.33,4.1-3.49,8.68-3.49,13.74,0,7.59,2.55,13.96,7.66,19.13Z"/>
    <path class="cls-2" d="M640.63,75.19c0,1.39-.09,3.08-.26,5.06-.03,.31-.29,.56-.59,.56h-65.93c1.01,6.58,3.77,11.79,8.27,15.63,4.5,3.84,10.09,5.77,16.77,5.77,3.24,0,6.27-.48,9.11-1.44,2.83-.96,5.33-2.33,7.51-4.1,2.09-1.7,3.83-3.76,5.22-6.16,.1-.18,.29-.29,.5-.29h16.55c.42,0,.71,.44,.56,.83-3.26,8.31-8.31,14.84-15.17,19.59-7.08,4.91-15.18,7.36-24.28,7.36-12.04,0-22.08-4.1-30.13-12.29-8.05-8.2-12.07-18.42-12.07-30.66s4.02-22.46,12.07-30.66c8.04-8.2,18.08-12.29,30.13-12.29,8.19,0,15.48,1.95,21.86,5.84,6.37,3.9,11.28,9.11,14.72,15.63,3.44,6.53,5.16,13.74,5.16,21.63Zm-41.74-27.92c-6.28,0-11.61,1.77-16.01,5.31-4.4,3.55-7.31,8.4-8.73,14.57h49.63c-1.01-4.15-2.68-7.71-5.01-10.7-2.33-2.98-5.19-5.26-8.57-6.83-3.39-1.57-7.16-2.35-11.31-2.35Z"/>
    <path class="cls-2" d="M725.99,33.6h6.68c.34,0,.61,.27,.61,.61v14.73c0,.34-.27,.61-.61,.61h-8.19c-13.96,0-20.95,7.59-20.95,22.77v43.1c0,.34-.27,.61-.61,.61h-15.64c-.34,0-.61-.27-.61-.61V34.67c0-.34,.27-.61,.61-.61h13.09c.34,0,.61,.27,.61,.61l-.04,10.62c5.87-7.79,14.21-11.69,25.04-11.69Z"/>
  </g>
  <path class="cls-2" d="M79.31,684.17v-197.79c0-.78-.63-1.4-1.4-1.4H26.56c-.78,0-1.4,.63-1.4,1.4v246.71c0,.78,.63,1.4,1.4,1.4H173.4c.78,0,1.4-.63,1.4-1.4v-47.52c0-.78-.63-1.4-1.4-1.4H79.31Z"/>
  <path class="cls-2" d="M377.32,484.98h-49.1c-.54,0-1.03,.33-1.23,.84l-96.71,246.88c-.34,.87,.3,1.81,1.23,1.81h54.2c.56,0,1.06-.35,1.24-.87l16.76-46.54h99.54l17.1,46.54c.19,.52,.69,.87,1.24,.87h55.54c.94,0,1.58-.95,1.23-1.82l-99.82-246.88c-.2-.5-.69-.83-1.23-.83Zm-56.4,155.04l32.36-89.09,32.81,89.09h-65.16Z"/>
  <path class="cls-2" d="M720.15,626.98c-6.07-10.34-14.61-18.31-25.5-24.04,8.76-6.18,15.73-14.04,20.67-23.48,5.06-9.55,7.53-19.66,7.53-30.33,0-18.31-7.19-33.59-21.46-45.84-14.16-12.13-32.02-18.31-53.37-18.31h-101.97c-.77,0-1.39,.62-1.39,1.39v246.74c0,.77,.62,1.39,1.39,1.39h104.78c21.57,0,40.11-7.08,55.39-21.01,15.39-14.04,23.03-31.01,23.03-51.01,0-13.26-3.03-25.16-9.1-35.5Zm-122.46-96.06h44.94c4.27,0,8.09,.67,11.57,2.02,3.48,1.23,6.4,3.14,8.76,5.5,2.36,2.36,4.16,5.17,5.5,8.43,1.35,3.15,2.02,6.74,2.02,10.78,0,7.86-2.58,14.27-7.53,19.1-5.06,4.83-11.8,7.3-20.33,7.3h-44.94v-53.14Zm69.21,146.16c-5.5,5.28-12.58,7.86-21.46,7.86h-47.75v-55.95h47.75c8.88,0,15.95,2.58,21.46,7.87,5.39,5.17,8.2,11.79,8.2,19.89s-2.81,15.17-8.2,20.33Z"/>
  <path class="cls-2" d="M166.65,227.18c0,1.58,1,2.95,2.47,3.53,3.03,1.18,5.93,2.56,8.77,4.15,12.13,6.74,21.57,16.07,28.31,27.97,6.85,11.91,10.22,25.17,10.22,39.88,0,22.13-7.53,40.78-22.69,55.84-15.05,15.05-33.93,22.58-56.4,22.58s-41.46-7.53-56.51-22.58c-10.16-10.05-16.9-21.77-20.13-35.14-.41-1.71-1.9-2.95-3.66-2.95H13.24c-2.71,0-4.86,2.41-4.48,5.09,3.89,27.15,15.23,50.61,33.74,70.18,.56,.67,1.23,1.35,1.91,2.02,24.83,25.28,55.84,37.97,92.91,37.97s67.97-12.7,92.8-37.97c24.83-25.28,37.19-56.96,37.19-95.05,0-32.81-9.21-60.78-27.52-83.92-2.92-3.71-6.07-7.3-9.44-10.79-16.52-16.94-35.93-28.21-58.22-33.71-2.79-.69-5.48,1.51-5.48,4.38v48.5Z"/>
  <path class="cls-2" d="M469.93,179.44v150.85l-109.01-151.66c-.26-.36-.67-.57-1.12-.57h-46.79c-.76,0-1.37,.62-1.37,1.37v246.77c0,.76,.62,1.37,1.37,1.37h50.39c.76,0,1.37-.62,1.37-1.37v-154.45l112.7,155.38c.2,.28,.53,.44,.87,.44h42.9c.76,0,1.37-.62,1.37-1.37V179.44c0-.76-.62-1.37-1.37-1.37h-49.94c-.76,0-1.37,.62-1.37,1.37Z"/>
  <path class="cls-2" d="M633.84,377.26v-51.23h84.94c.74,0,1.34-.6,1.34-1.34v-46.19c0-.74-.6-1.34-1.34-1.34h-84.94v-49.21h94.15c.74,0,1.34-.6,1.34-1.34v-47.2c0-.74-.6-1.34-1.34-1.34h-146.97c-.74,0-1.34,.6-1.34,1.34v246.84c0,.74,.6,1.34,1.34,1.34h150.9c.74,0,1.34-.6,1.34-1.34v-47.65c0-.74-.6-1.34-1.34-1.34h-98.09Z"/>
  <path class="cls-1" d="M13.94,169.25H124.24c2.7,0,4.88,2.19,4.88,4.88v44.17c0,2.7-2.19,4.88-4.88,4.88h-58.73c-4.08,0-7.39,3.31-7.39,7.39v47.5c0,2.7-2.19,4.88-4.88,4.88H11.43c-2.7,0-4.88-2.19-4.88-4.88v-101.43c0-4.08,3.31-7.39,7.39-7.39Z"/>
</svg>