<svg width="143" height="61" viewBox="0 0 143 61" fill="none" xmlns="http://www.w3.org/2000/svg">
<path d="M53.672 20.16V36H49.88L44.336 26.688L42.968 24.096H42.944L43.04 26.832V36H40.064V20.16H43.832L49.376 29.448L50.744 32.064H50.792L50.696 29.328V20.16H53.672ZM61.529 36.24C60.729 36.24 60.009 36.096 59.369 35.808C58.729 35.52 58.217 35.064 57.833 34.44C57.465 33.8 57.281 32.976 57.281 31.968V24H60.569V31.176C60.569 32.104 60.761 32.752 61.145 33.12C61.529 33.472 62.081 33.648 62.801 33.648C63.137 33.648 63.465 33.592 63.785 33.48C64.105 33.352 64.385 33.16 64.625 32.904C64.881 32.648 65.081 32.32 65.225 31.92C65.369 31.504 65.441 31.016 65.441 30.456V24H68.729V36H65.801L65.681 33.912C65.281 34.712 64.729 35.304 64.025 35.688C63.337 36.056 62.505 36.24 61.529 36.24ZM72.1889 36V24H75.1409L75.2609 26.16C75.6609 25.36 76.2049 24.76 76.8929 24.36C77.5969 23.96 78.3729 23.76 79.2209 23.76C80.0849 23.76 80.8609 23.96 81.5489 24.36C82.2529 24.76 82.7809 25.352 83.1329 26.136C83.3889 25.608 83.7329 25.168 84.1649 24.816C84.5969 24.464 85.0769 24.2 85.6049 24.024C86.1329 23.848 86.6689 23.76 87.2129 23.76C87.9969 23.76 88.7089 23.92 89.3489 24.24C90.0049 24.56 90.5249 25.04 90.9089 25.68C91.2929 26.32 91.4849 27.136 91.4849 28.128V36H88.1969V28.776C88.1969 27.896 88.0049 27.272 87.6209 26.904C87.2369 26.536 86.7409 26.352 86.1329 26.352C85.6529 26.352 85.2049 26.472 84.7889 26.712C84.3889 26.952 84.0689 27.312 83.8289 27.792C83.6049 28.256 83.4929 28.84 83.4929 29.544V36H80.2049V28.776C80.2049 27.896 80.0049 27.272 79.6049 26.904C79.2209 26.536 78.7249 26.352 78.1169 26.352C77.7009 26.352 77.2849 26.464 76.8689 26.688C76.4689 26.912 76.1329 27.264 75.8609 27.744C75.6049 28.224 75.4769 28.856 75.4769 29.64V36H72.1889ZM101.932 36.24C101.196 36.24 100.524 36.088 99.9164 35.784C99.3244 35.464 98.8284 35.032 98.4284 34.488C98.0444 33.928 97.7804 33.304 97.6364 32.616L97.9724 32.184L97.7804 36H94.8764V18.744H98.1644V27.384L97.8524 26.88C98.1084 25.984 98.5964 25.24 99.3164 24.648C100.036 24.056 100.94 23.76 102.028 23.76C102.972 23.76 103.828 24.008 104.596 24.504C105.364 25 105.964 25.712 106.396 26.64C106.844 27.568 107.068 28.696 107.068 30.024C107.068 31.32 106.844 32.432 106.396 33.36C105.964 34.288 105.356 35 104.572 35.496C103.804 35.992 102.924 36.24 101.932 36.24ZM100.948 33.72C101.828 33.72 102.516 33.408 103.012 32.784C103.524 32.144 103.78 31.216 103.78 30C103.78 28.784 103.532 27.864 103.036 27.24C102.54 26.6 101.852 26.28 100.972 26.28C100.396 26.28 99.9004 26.432 99.4844 26.736C99.0684 27.04 98.7404 27.472 98.5004 28.032C98.2764 28.592 98.1644 29.256 98.1644 30.024C98.1644 30.808 98.2764 31.48 98.5004 32.04C98.7404 32.584 99.0684 33 99.4844 33.288C99.9164 33.576 100.404 33.72 100.948 33.72ZM115.491 36.24C114.227 36.24 113.123 35.992 112.179 35.496C111.251 35 110.531 34.288 110.019 33.36C109.507 32.432 109.251 31.312 109.251 30C109.251 28.688 109.507 27.568 110.019 26.64C110.531 25.712 111.243 25 112.155 24.504C113.083 24.008 114.139 23.76 115.323 23.76C116.539 23.76 117.571 24.008 118.419 24.504C119.267 24.984 119.915 25.648 120.363 26.496C120.811 27.328 121.035 28.28 121.035 29.352C121.035 29.672 121.027 29.976 121.011 30.264C120.995 30.552 120.971 30.808 120.939 31.032H111.363V28.752H119.499L117.915 29.328C117.915 28.32 117.683 27.544 117.219 27C116.771 26.456 116.131 26.184 115.299 26.184C114.691 26.184 114.163 26.328 113.715 26.616C113.283 26.904 112.955 27.336 112.731 27.912C112.507 28.472 112.395 29.184 112.395 30.048C112.395 30.896 112.515 31.6 112.755 32.16C113.011 32.704 113.363 33.112 113.811 33.384C114.275 33.656 114.827 33.792 115.467 33.792C116.171 33.792 116.739 33.656 117.171 33.384C117.603 33.112 117.939 32.736 118.179 32.256L120.795 33.264C120.539 33.888 120.147 34.424 119.619 34.872C119.107 35.32 118.491 35.664 117.771 35.904C117.067 36.128 116.307 36.24 115.491 36.24ZM123.822 36V24H126.678L126.894 26.352C127.214 25.52 127.678 24.88 128.286 24.432C128.91 23.984 129.686 23.76 130.614 23.76C130.886 23.76 131.134 23.784 131.358 23.832C131.582 23.88 131.766 23.944 131.91 24.024L131.526 26.784C131.366 26.72 131.166 26.672 130.926 26.64C130.702 26.608 130.406 26.592 130.038 26.592C129.558 26.592 129.094 26.712 128.646 26.952C128.198 27.176 127.83 27.528 127.542 28.008C127.254 28.472 127.11 29.064 127.11 29.784V36H123.822ZM46.904 41.92C48.472 41.92 49.824 42.248 50.96 42.904C52.096 43.56 52.968 44.496 53.576 45.712C54.2 46.928 54.512 48.384 54.512 50.08C54.512 51.776 54.2 53.232 53.576 54.448C52.968 55.664 52.096 56.6 50.96 57.256C49.824 57.912 48.472 58.24 46.904 58.24C45.336 58.24 43.976 57.912 42.824 57.256C41.688 56.6 40.808 55.664 40.184 54.448C39.576 53.232 39.272 51.776 39.272 50.08C39.272 48.384 39.576 46.928 40.184 45.712C40.808 44.496 41.688 43.56 42.824 42.904C43.976 42.248 45.336 41.92 46.904 41.92ZM46.904 44.632C46.008 44.632 45.248 44.84 44.624 45.256C44 45.672 43.52 46.288 43.184 47.104C42.864 47.904 42.704 48.896 42.704 50.08C42.704 51.248 42.864 52.24 43.184 53.056C43.52 53.872 44 54.488 44.624 54.904C45.248 55.32 46.008 55.528 46.904 55.528C47.784 55.528 48.536 55.32 49.16 54.904C49.784 54.488 50.256 53.872 50.576 53.056C50.912 52.24 51.08 51.248 51.08 50.08C51.08 48.896 50.912 47.904 50.576 47.104C50.256 46.288 49.784 45.672 49.16 45.256C48.536 44.84 47.784 44.632 46.904 44.632ZM57.4468 58V46H60.3988L60.5908 49.6L60.1828 49.216C60.3748 48.432 60.6788 47.784 61.0948 47.272C61.5108 46.76 62.0148 46.384 62.6068 46.144C63.2148 45.888 63.8788 45.76 64.5988 45.76C65.4308 45.76 66.1668 45.92 66.8068 46.24C67.4628 46.56 67.9748 47.048 68.3428 47.704C68.7268 48.344 68.9188 49.152 68.9188 50.128V58H65.6308V51.064C65.6308 50.04 65.4308 49.336 65.0308 48.952C64.6308 48.552 64.1108 48.352 63.4708 48.352C63.0228 48.352 62.5828 48.464 62.1508 48.688C61.7348 48.896 61.3908 49.24 61.1188 49.72C60.8628 50.2 60.7348 50.84 60.7348 51.64V58H57.4468ZM77.8741 58.24C76.6101 58.24 75.5061 57.992 74.5621 57.496C73.6341 57 72.9141 56.288 72.4021 55.36C71.8901 54.432 71.6341 53.312 71.6341 52C71.6341 50.688 71.8901 49.568 72.4021 48.64C72.9141 47.712 73.6261 47 74.5381 46.504C75.4661 46.008 76.5221 45.76 77.7061 45.76C78.9221 45.76 79.9541 46.008 80.8021 46.504C81.6501 46.984 82.2981 47.648 82.7461 48.496C83.1941 49.328 83.4181 50.28 83.4181 51.352C83.4181 51.672 83.4101 51.976 83.3941 52.264C83.3781 52.552 83.3541 52.808 83.3221 53.032H73.7461V50.752H81.8821L80.2981 51.328C80.2981 50.32 80.0661 49.544 79.6021 49C79.1541 48.456 78.5141 48.184 77.6821 48.184C77.0741 48.184 76.5461 48.328 76.0981 48.616C75.6661 48.904 75.3381 49.336 75.1141 49.912C74.8901 50.472 74.7781 51.184 74.7781 52.048C74.7781 52.896 74.8981 53.6 75.1381 54.16C75.3941 54.704 75.7461 55.112 76.1941 55.384C76.6581 55.656 77.2101 55.792 77.8501 55.792C78.5541 55.792 79.1221 55.656 79.5541 55.384C79.9861 55.112 80.3221 54.736 80.5621 54.256L83.1781 55.264C82.9221 55.888 82.5301 56.424 82.0021 56.872C81.4901 57.32 80.8741 57.664 80.1541 57.904C79.4501 58.128 78.6901 58.24 77.8741 58.24ZM97.1885 55.336H105.541V58H93.8765V42.16H97.1885V55.336ZM114.795 50.344C114.795 49.656 114.595 49.12 114.195 48.736C113.811 48.352 113.299 48.16 112.659 48.16C112.067 48.16 111.547 48.312 111.099 48.616C110.651 48.92 110.323 49.424 110.115 50.128L107.307 49.264C107.579 48.208 108.171 47.36 109.083 46.72C110.011 46.08 111.251 45.76 112.803 45.76C113.859 45.76 114.779 45.928 115.563 46.264C116.347 46.584 116.955 47.072 117.387 47.728C117.835 48.384 118.059 49.208 118.059 50.2V55.072C118.059 55.68 118.347 55.984 118.923 55.984C119.195 55.984 119.451 55.944 119.691 55.864L119.499 57.904C119.083 58.112 118.563 58.216 117.939 58.216C117.379 58.216 116.875 58.12 116.427 57.928C115.979 57.736 115.627 57.448 115.371 57.064C115.115 56.664 114.987 56.168 114.987 55.576V55.48L115.563 55.384C115.467 55.992 115.203 56.512 114.771 56.944C114.339 57.36 113.811 57.68 113.187 57.904C112.579 58.128 111.947 58.24 111.291 58.24C110.475 58.24 109.771 58.12 109.179 57.88C108.587 57.624 108.131 57.256 107.811 56.776C107.491 56.296 107.331 55.704 107.331 55C107.331 54.104 107.619 53.376 108.195 52.816C108.771 52.24 109.595 51.848 110.667 51.64L115.179 50.728L115.155 52.768L112.275 53.344C111.731 53.456 111.315 53.608 111.027 53.8C110.755 53.976 110.619 54.272 110.619 54.688C110.619 55.088 110.763 55.392 111.051 55.6C111.355 55.808 111.715 55.912 112.131 55.912C112.467 55.912 112.795 55.872 113.115 55.792C113.435 55.712 113.723 55.584 113.979 55.408C114.235 55.232 114.435 54.992 114.579 54.688C114.723 54.384 114.795 54.016 114.795 53.584V50.344ZM128.792 58.24C128.056 58.24 127.384 58.088 126.776 57.784C126.184 57.464 125.688 57.032 125.288 56.488C124.904 55.928 124.64 55.304 124.496 54.616L124.832 54.184L124.64 58H121.736V40.744H125.024V49.384L124.712 48.88C124.968 47.984 125.456 47.24 126.176 46.648C126.896 46.056 127.8 45.76 128.888 45.76C129.832 45.76 130.688 46.008 131.456 46.504C132.224 47 132.824 47.712 133.256 48.64C133.704 49.568 133.928 50.696 133.928 52.024C133.928 53.32 133.704 54.432 133.256 55.36C132.824 56.288 132.216 57 131.432 57.496C130.664 57.992 129.784 58.24 128.792 58.24ZM127.808 55.72C128.688 55.72 129.376 55.408 129.872 54.784C130.384 54.144 130.64 53.216 130.64 52C130.64 50.784 130.392 49.864 129.896 49.24C129.4 48.6 128.712 48.28 127.832 48.28C127.256 48.28 126.76 48.432 126.344 48.736C125.928 49.04 125.6 49.472 125.36 50.032C125.136 50.592 125.024 51.256 125.024 52.024C125.024 52.808 125.136 53.48 125.36 54.04C125.6 54.584 125.928 55 126.344 55.288C126.776 55.576 127.264 55.72 127.808 55.72Z" fill="#130E54"/>
<path d="M16.2857 20L14.7857 21.8359L19.6428 25.6488L19.3571 27.626L18.7857 31.0153L16.2857 32.0038L13.7143 32.9924L11.7143 31.3683L9.42857 29.6031L10.3571 23.6011L8 23.2481L7.07142 29.25L1.35714 31.5095L2.21428 33.6279L7.92856 31.4389L10.7857 33.6985L12.2143 34.8282L11.6429 38.5706L11.4286 40.124L9.07143 41.042L6.28572 42.1718L1.49999 38.3588L0 40.1947L5.92857 44.7844L6.57143 44.5725L12.2857 42.313L14.7143 44.2901L16.5714 45.7023L16.1428 48.5973L15.7857 51.0687L10 53.2576L10.8571 55.4466L16.6429 53.2576L21.4286 57L22.9286 55.2347L18.0714 51.4218L18.5714 48.4561L18.9286 46.0553L21.3571 45.0668L24 44.0782L28.8571 47.8912L30.2857 46.0553L25.5 42.2424L25.8571 39.5592L26.2857 36.876L32 34.687L31.1428 32.4981L25.4286 34.687L23.4286 33.1336L21.1428 31.3683L21.4286 29.3206L21.9286 26.0019L27.7143 23.7424L26.8571 21.5534L21.0714 23.813L16.2857 20ZM21.7857 34.8282L23.9286 36.5229L23.6428 38.7118L23.1429 41.8893L20.5 42.9485L18.0714 43.8664L15.6429 41.9599L13.7857 40.4771L14.2143 37.4408L14.5714 35.1107L17.1429 34.1221L19.6428 33.1336L21.7857 34.8282Z" fill="#130E54"/>
<rect x="79" width="55" height="13" rx="4" fill="#2B1FC7"/>
<path d="M89.52 2.9C89.9933 2.9 90.4 2.98333 90.74 3.15C91.0867 3.31667 91.3567 3.55333 91.55 3.86C91.7433 4.16667 91.84 4.53667 91.84 4.97C91.84 5.39667 91.7433 5.76667 91.55 6.08C91.3567 6.38667 91.0867 6.62333 90.74 6.79C90.4 6.95667 89.9933 7.04 89.52 7.04H88.05V9.5H86.98V2.9H89.52ZM89.35 6.12C89.8233 6.12 90.17 6.02333 90.39 5.83C90.6167 5.63 90.73 5.34333 90.73 4.97C90.73 4.59 90.6167 4.30333 90.39 4.11C90.17 3.91 89.8233 3.81 89.35 3.81H88.05V6.12H89.35ZM93.0995 9.5V4.5H94.0095L94.1095 5.4C94.2429 5.07333 94.4395 4.82667 94.6995 4.66C94.9662 4.48667 95.2929 4.4 95.6795 4.4C95.7795 4.4 95.8795 4.41 95.9795 4.43C96.0795 4.44333 96.1629 4.46667 96.2295 4.5L96.0795 5.44C96.0062 5.41333 95.9229 5.39333 95.8295 5.38C95.7429 5.36 95.6229 5.35 95.4695 5.35C95.2629 5.35 95.0595 5.40667 94.8595 5.52C94.6595 5.62667 94.4929 5.79 94.3595 6.01C94.2329 6.23 94.1695 6.51 94.1695 6.85V9.5H93.0995ZM99.2832 4.4C99.7699 4.4 100.2 4.50333 100.573 4.71C100.947 4.91667 101.237 5.21667 101.443 5.61C101.657 5.99667 101.763 6.46 101.763 7C101.763 7.54 101.657 8.00667 101.443 8.4C101.237 8.78667 100.947 9.08333 100.573 9.29C100.2 9.49667 99.7699 9.6 99.2832 9.6C98.7965 9.6 98.3665 9.49667 97.9932 9.29C97.6199 9.08333 97.3265 8.78667 97.1132 8.4C96.8999 8.00667 96.7932 7.54 96.7932 7C96.7932 6.46 96.8999 5.99667 97.1132 5.61C97.3265 5.21667 97.6199 4.91667 97.9932 4.71C98.3665 4.50333 98.7965 4.4 99.2832 4.4ZM99.2832 5.24C98.9832 5.24 98.7265 5.31 98.5132 5.45C98.3065 5.58333 98.1465 5.78 98.0332 6.04C97.9199 6.3 97.8632 6.62 97.8632 7C97.8632 7.37333 97.9199 7.69333 98.0332 7.96C98.1465 8.22 98.3065 8.42 98.5132 8.56C98.7265 8.69333 98.9832 8.76 99.2832 8.76C99.5832 8.76 99.8365 8.69333 100.043 8.56C100.25 8.42 100.41 8.22 100.523 7.96C100.637 7.69333 100.693 7.37333 100.693 7C100.693 6.62 100.637 6.3 100.523 6.04C100.41 5.78 100.25 5.58333 100.043 5.45C99.8365 5.31 99.5832 5.24 99.2832 5.24ZM106.37 4.5H107.49L105.5 9.5H104.33L102.33 4.5H103.5L104.92 8.57L106.37 4.5ZM108.942 3.66C108.709 3.66 108.529 3.60333 108.402 3.49C108.282 3.37 108.222 3.20333 108.222 2.99C108.222 2.77667 108.282 2.61333 108.402 2.5C108.529 2.38667 108.709 2.33 108.942 2.33C109.169 2.33 109.342 2.38667 109.462 2.5C109.589 2.61333 109.652 2.77667 109.652 2.99C109.652 3.20333 109.589 3.37 109.462 3.49C109.342 3.60333 109.169 3.66 108.942 3.66ZM109.472 4.5V9.5H108.402V4.5H109.472ZM113.066 9.6C112.653 9.6 112.276 9.49667 111.936 9.29C111.603 9.08333 111.34 8.78667 111.146 8.4C110.953 8.01333 110.856 7.55 110.856 7.01C110.856 6.45 110.96 5.97667 111.166 5.59C111.373 5.20333 111.65 4.91 111.996 4.71C112.343 4.50333 112.723 4.4 113.136 4.4C113.563 4.4 113.923 4.51667 114.216 4.75C114.51 4.98333 114.706 5.28667 114.806 5.66L114.686 5.77V2.25H115.756V9.5H114.806L114.726 8.14L114.866 8.15C114.82 8.45 114.71 8.71 114.536 8.93C114.363 9.14333 114.146 9.31 113.886 9.43C113.633 9.54333 113.36 9.6 113.066 9.6ZM113.296 8.74C113.583 8.74 113.83 8.66667 114.036 8.52C114.243 8.37333 114.403 8.16667 114.516 7.9C114.63 7.63333 114.686 7.31333 114.686 6.94C114.686 6.59333 114.63 6.29667 114.516 6.05C114.403 5.79667 114.243 5.60333 114.036 5.47C113.836 5.33667 113.603 5.27 113.336 5.27C112.89 5.27 112.543 5.42333 112.296 5.73C112.05 6.03667 111.926 6.46 111.926 7C111.926 7.54 112.046 7.96667 112.286 8.28C112.526 8.58667 112.863 8.74 113.296 8.74ZM119.616 9.6C119.116 9.6 118.676 9.49667 118.296 9.29C117.916 9.08333 117.619 8.78667 117.406 8.4C117.199 8.00667 117.096 7.54 117.096 7C117.096 6.46 117.199 5.99667 117.406 5.61C117.619 5.21667 117.913 4.91667 118.286 4.71C118.659 4.50333 119.083 4.4 119.556 4.4C120.043 4.4 120.456 4.5 120.796 4.7C121.136 4.9 121.396 5.17333 121.576 5.52C121.756 5.86667 121.846 6.26 121.846 6.7C121.846 6.82 121.843 6.93333 121.836 7.04C121.829 7.14667 121.819 7.24 121.806 7.32H117.786V6.5H121.336L120.806 6.66C120.806 6.20667 120.693 5.86 120.466 5.62C120.239 5.37333 119.929 5.25 119.536 5.25C119.249 5.25 118.999 5.31667 118.786 5.45C118.573 5.58333 118.409 5.78333 118.296 6.05C118.183 6.31 118.126 6.63 118.126 7.01C118.126 7.38333 118.186 7.7 118.306 7.96C118.426 8.22 118.596 8.41667 118.816 8.55C119.036 8.68333 119.296 8.75 119.596 8.75C119.929 8.75 120.199 8.68667 120.406 8.56C120.613 8.43333 120.776 8.25667 120.896 8.03L121.746 8.43C121.626 8.67 121.463 8.88 121.256 9.06C121.056 9.23333 120.816 9.36667 120.536 9.46C120.256 9.55333 119.949 9.6 119.616 9.6ZM123.197 9.5V4.5H124.107L124.207 5.4C124.341 5.07333 124.537 4.82667 124.797 4.66C125.064 4.48667 125.391 4.4 125.777 4.4C125.877 4.4 125.977 4.41 126.077 4.43C126.177 4.44333 126.261 4.46667 126.327 4.5L126.177 5.44C126.104 5.41333 126.021 5.39333 125.927 5.38C125.841 5.36 125.721 5.35 125.567 5.35C125.361 5.35 125.157 5.40667 124.957 5.52C124.757 5.62667 124.591 5.79 124.457 6.01C124.331 6.23 124.267 6.51 124.267 6.85V9.5H123.197Z" fill="white"/>
</svg>
