<svg width="103" height="49" viewBox="0 0 103 49" fill="none" xmlns="http://www.w3.org/2000/svg">
<path d="M6.60017 9.902C7.9346 9.902 8.99623 10.3454 9.78507 11.2323C10.5739 12.1191 10.9679 13.274 10.967 14.6968V21.4756C10.9667 21.4984 10.9574 21.5201 10.941 21.5361C10.9247 21.5521 10.9026 21.561 10.8797 21.561H8.6956C8.68402 21.5613 8.67249 21.5594 8.66167 21.5553C8.65086 21.5512 8.64098 21.5449 8.63261 21.537C8.62425 21.529 8.61755 21.5195 8.61293 21.509C8.6083 21.4985 8.60583 21.4871 8.60567 21.4756V15.1607C8.60567 14.1336 8.38126 13.3504 7.93246 12.811C7.48365 12.2716 6.82671 11.9989 5.96164 11.993C5.54297 11.9827 5.12722 12.0646 4.74425 12.2327C4.36128 12.4008 4.02061 12.651 3.74673 12.9652C3.16431 13.6125 2.87352 14.4433 2.87438 15.4576V21.4756C2.87404 21.4984 2.86469 21.5201 2.84834 21.5361C2.832 21.5521 2.80997 21.561 2.78702 21.561H0.602936C0.591251 21.5615 0.57958 21.5597 0.568617 21.5557C0.557654 21.5516 0.547622 21.5454 0.539114 21.5375C0.530607 21.5295 0.523799 21.5199 0.519093 21.5093C0.514387 21.4987 0.511879 21.4872 0.511719 21.4756V10.2409C0.512056 10.2182 0.521409 10.1965 0.537757 10.1805C0.554104 10.1645 0.576133 10.1556 0.599082 10.1556H2.53135C2.55418 10.1556 2.57608 10.1646 2.59222 10.1806C2.60836 10.1966 2.61743 10.2183 2.61743 10.2409V11.7394C3.06301 11.1594 3.64475 10.6962 4.31202 10.39C5.02819 10.0592 5.8102 9.89244 6.60017 9.902Z" fill="#130E54"/>
<path d="M23.1783 21.8367C21.6032 21.8367 20.3399 21.372 19.3883 20.4427C18.4367 19.5134 17.9609 18.2816 17.9609 16.7475V10.2363C17.9609 10.2257 17.963 10.2153 17.9671 10.2056C17.9712 10.1958 17.9771 10.187 17.9846 10.1795C17.9922 10.1721 18.0011 10.1662 18.0109 10.1621C18.0207 10.1581 18.0312 10.156 18.0419 10.156H20.2452C20.2665 10.1563 20.2867 10.1649 20.3016 10.18C20.3165 10.195 20.3249 10.2152 20.3249 10.2363V16.4073C20.3249 17.4071 20.5818 18.1886 21.0957 18.7518C21.6096 19.315 22.3047 19.5966 23.1809 19.5966C24.0768 19.5966 24.7796 19.3116 25.2892 18.7416C25.7988 18.1716 26.0557 17.3935 26.06 16.4073V10.2363C26.06 10.2152 26.0684 10.195 26.0833 10.18C26.0982 10.1649 26.1184 10.1563 26.1397 10.156H28.343C28.3643 10.1563 28.3845 10.1649 28.3994 10.18C28.4143 10.195 28.4227 10.2152 28.4227 10.2363V16.7462C28.4227 18.2804 27.9473 19.5121 26.9966 20.4414C26.0459 21.3707 24.7731 21.8358 23.1783 21.8367Z" fill="#130E54"/>
<path d="M48.4341 9.90174C49.6272 9.90768 50.5977 10.3159 51.3454 11.1263C52.0931 11.9366 52.4695 12.9985 52.4747 14.3118V21.4754C52.4747 21.497 52.466 21.5177 52.4506 21.533C52.4352 21.5483 52.4143 21.5569 52.3925 21.5569H50.1891C50.1781 21.5573 50.1671 21.5554 50.1569 21.5515C50.1466 21.5475 50.1372 21.5416 50.1293 21.534C50.1214 21.5264 50.1151 21.5172 50.1108 21.5072C50.1065 21.4971 50.1043 21.4863 50.1043 21.4754V14.8864C50.1202 14.353 50.033 13.8214 49.8474 13.3204C49.6963 12.9205 49.4278 12.5748 49.0765 12.3278C48.7195 12.0958 48.2993 11.9779 47.8727 11.9902C47.4969 11.9855 47.1253 12.0689 46.7882 12.2336C46.4511 12.3984 46.1579 12.6398 45.9327 12.9382C45.4188 13.5634 45.1619 14.3623 45.1619 15.335V21.4754C45.1619 21.497 45.1532 21.5177 45.1378 21.533C45.1224 21.5483 45.1015 21.5569 45.0796 21.5569H42.9264C42.9046 21.5569 42.8837 21.5483 42.8683 21.533C42.8528 21.5177 42.8442 21.497 42.8442 21.4754V14.8864C42.8442 13.9571 42.6527 13.2423 42.2699 12.7419C41.887 12.2416 41.3333 11.9919 40.6087 11.9927C39.8378 11.9927 39.1955 12.3062 38.6816 12.9331C38.1677 13.56 37.9069 14.3589 37.8992 15.3299V21.4754C37.8992 21.497 37.8905 21.5177 37.8751 21.533C37.8597 21.5483 37.8387 21.5569 37.8169 21.5569H35.6213C35.5995 21.5569 35.5786 21.5483 35.5631 21.533C35.5477 21.5177 35.5391 21.497 35.5391 21.4754V10.2369C35.5391 10.2152 35.5477 10.1945 35.5631 10.1792C35.5786 10.1639 35.5995 10.1553 35.6213 10.1553H37.5484C37.5703 10.1553 37.5914 10.1639 37.607 10.1791C37.6226 10.1944 37.6316 10.2151 37.6319 10.2369V11.6385C38.161 10.9735 38.8653 10.4667 39.667 10.1744C40.0817 10.0218 40.5176 9.93329 40.9594 9.91193C41.7598 9.85467 42.559 10.0366 43.254 10.4344C43.8479 10.7839 44.334 11.288 44.6595 11.892C45.1336 11.1776 45.8086 10.6168 46.6008 10.2789C47.1783 10.0265 47.8031 9.89798 48.4341 9.90174Z" fill="#130E54"/>
<path d="M65.7698 9.88049C67.5017 9.88049 68.932 10.4471 70.0609 11.5803C71.1898 12.7135 71.7542 14.1393 71.7542 15.8578C71.7542 17.5771 71.1898 19.003 70.0609 20.1353C68.932 21.2677 67.5017 21.8347 65.7698 21.8364C64.1639 21.8364 62.808 21.3152 61.7023 20.2729V21.4745C61.7025 21.4859 61.7003 21.4973 61.696 21.5079C61.6917 21.5185 61.6852 21.5281 61.6771 21.5362C61.6689 21.5442 61.6592 21.5506 61.6486 21.5549C61.6379 21.5592 61.6264 21.5613 61.6149 21.5612H59.7006C59.6892 21.5613 59.6779 21.5592 59.6673 21.555C59.6567 21.5508 59.6471 21.5446 59.6389 21.5366C59.6308 21.5287 59.6244 21.5192 59.62 21.5088C59.6155 21.4983 59.6133 21.4871 59.6133 21.4758V6.14323C59.6133 6.12059 59.6223 6.09888 59.6385 6.08287C59.6546 6.06686 59.6765 6.05786 59.6994 6.05786H61.8912C61.914 6.05786 61.9359 6.06686 61.952 6.08287C61.9682 6.09888 61.9772 6.12059 61.9772 6.14323V11.2108C63.0436 10.3239 64.3078 9.88049 65.7698 9.88049ZM62.8843 18.5196C63.6012 19.2383 64.5005 19.5972 65.5822 19.5963C66.664 19.5955 67.5586 19.24 68.2661 18.5298C68.9753 17.8205 69.3303 16.9286 69.3312 15.854C69.332 14.7794 68.977 13.8874 68.2661 13.1781C67.5561 12.4671 66.6614 12.1116 65.5822 12.1116C64.908 12.1028 64.2434 12.2702 63.6551 12.5971C63.0864 12.9147 62.617 13.3816 62.2984 13.9465C61.9682 14.5297 61.7993 15.189 61.8089 15.8578C61.7965 16.3507 61.8855 16.8408 62.0704 17.2985C62.2552 17.7561 62.5322 18.1716 62.8843 18.5196Z" fill="#130E54"/>
<path d="M89.1406 15.8793C89.1406 16.0717 89.1278 16.3074 89.1034 16.5839C89.1018 16.6045 89.0924 16.6238 89.0772 16.638C89.062 16.6521 89.042 16.6601 89.0211 16.6603H79.7709C79.9122 17.5769 80.2977 18.3024 80.9272 18.8367C81.5567 19.371 82.3413 19.6382 83.2809 19.6382C83.7173 19.6421 84.1514 19.5746 84.5656 19.4381C84.9482 19.312 85.305 19.1191 85.6191 18.8686C85.9137 18.6292 86.1618 18.3386 86.3514 18.011C86.3584 17.9985 86.3686 17.9881 86.3811 17.9809C86.3935 17.9738 86.4077 17.9701 86.4221 17.9702H88.7436C88.7574 17.9703 88.7709 17.9737 88.783 17.9802C88.7951 17.9866 88.8055 17.9959 88.8132 18.0071C88.8209 18.0184 88.8257 18.0314 88.8273 18.045C88.8288 18.0585 88.827 18.0722 88.822 18.0849C88.4068 19.203 87.6507 20.1651 86.6588 20.8374C85.6669 21.5097 84.4885 21.8588 83.2873 21.8362C81.5983 21.8362 80.1893 21.2658 79.0604 20.1249C77.9316 18.9841 77.3659 17.5616 77.3633 15.8576C77.3633 14.1544 77.9277 12.7324 79.0566 11.5915C80.1855 10.4507 81.5944 9.88028 83.2834 9.88028C84.3622 9.86142 85.4247 10.1431 86.3501 10.6932C87.2268 11.2173 87.9414 11.9701 88.416 12.8696C88.9033 13.7985 89.1521 14.8322 89.1406 15.8793ZM83.2834 11.9929C82.4702 11.9703 81.6749 12.2319 81.0364 12.732C80.4044 13.2471 79.9718 13.9635 79.812 14.7592H86.7754C86.6534 14.2194 86.4159 13.7119 86.0791 13.271C85.7617 12.8622 85.3491 12.536 84.8765 12.3204C84.3761 12.0967 83.8322 11.9849 83.2834 11.9929Z" fill="#130E54"/>
<path d="M101.114 10.0925H102.051C102.073 10.0929 102.095 10.1018 102.111 10.1175C102.126 10.1332 102.135 10.1544 102.136 10.1766V12.2256C102.136 12.248 102.127 12.2695 102.111 12.2855C102.095 12.3015 102.074 12.3106 102.051 12.3109H100.895C98.9359 12.3109 97.956 13.3668 97.9552 15.4786V21.4763C97.9552 21.4986 97.9462 21.52 97.9303 21.5358C97.9144 21.5515 97.8929 21.5604 97.8704 21.5604H95.6825C95.6601 21.5601 95.6387 21.5511 95.6229 21.5354C95.607 21.5197 95.598 21.4985 95.5977 21.4763V10.2403C95.598 10.2181 95.607 10.1969 95.6229 10.1812C95.6387 10.1655 95.6601 10.1566 95.6825 10.1562H97.5209C97.5433 10.1566 97.5647 10.1655 97.5805 10.1812C97.5964 10.1969 97.6054 10.2181 97.6057 10.2403V11.7184C98.4245 10.6353 99.5941 10.0934 101.114 10.0925Z" fill="#130E54"/>
<path d="M10.7436 30.5219C10.7444 30.573 10.7606 30.6226 10.7902 30.6644C10.8197 30.7062 10.8612 30.7382 10.9094 30.7564C11.1122 30.8333 11.3089 30.9253 11.4978 31.0316C12.2948 31.463 12.9533 32.1081 13.3979 32.8932C13.8609 33.702 14.0977 34.6187 14.084 35.5487C14.084 37.0216 13.5765 38.2606 12.5616 39.2655C11.5505 40.267 10.2837 40.7678 8.77668 40.7678C7.26967 40.7678 5.99391 40.267 4.9828 39.2655C4.3194 38.6275 3.85132 37.8165 3.63253 36.9261C3.61936 36.8708 3.58792 36.8214 3.54323 36.7859C3.49854 36.7503 3.44314 36.7306 3.38586 36.7298H0.447623C0.404561 36.7299 0.361996 36.739 0.322762 36.7566C0.283528 36.7742 0.248524 36.7999 0.220081 36.8319C0.191639 36.864 0.17041 36.9017 0.157807 36.9426C0.145204 36.9834 0.141517 37.0264 0.146991 37.0688C0.386099 38.8224 1.17901 40.4559 2.41201 41.7349C2.44927 41.7795 2.49552 41.8254 2.54049 41.87C4.20639 43.552 6.28512 44.3946 8.77668 44.398C11.2563 44.398 13.3376 43.552 15.0039 41.87C16.6702 40.188 17.5002 38.078 17.5002 35.5436C17.5002 33.3596 16.8843 31.4971 15.6527 29.9562C15.4539 29.7066 15.2425 29.4671 15.0193 29.2388C13.9582 28.1389 12.6029 27.3619 11.1124 26.9987C11.0682 26.9885 11.0222 26.9884 10.9779 26.9983C10.9337 27.0082 10.8922 27.028 10.8568 27.0561C10.8213 27.0841 10.7927 27.1198 10.7731 27.1604C10.7535 27.201 10.7434 27.2455 10.7436 27.2905V30.5219Z" fill="#130E54"/>
<path d="M31.1015 27.3371V37.3779L23.7848 27.2836C23.7763 27.2718 23.7651 27.2623 23.7522 27.2556C23.7392 27.249 23.7249 27.2455 23.7103 27.2454H20.5691C20.5445 27.2454 20.521 27.255 20.5037 27.2722C20.4863 27.2894 20.4766 27.3128 20.4766 27.3371V43.7744C20.4766 43.7987 20.4863 43.8221 20.5037 43.8393C20.521 43.8565 20.5445 43.8661 20.5691 43.8661H23.9518C23.9639 43.8661 23.9759 43.8638 23.987 43.8591C23.9982 43.8545 24.0083 43.8477 24.0168 43.8392C24.0253 43.8307 24.032 43.8205 24.0365 43.8094C24.041 43.7983 24.0432 43.7864 24.043 43.7744V33.4877L31.6064 43.8305C31.613 43.8395 31.6217 43.8469 31.6318 43.852C31.6418 43.857 31.6529 43.8597 31.6642 43.8598H34.5446C34.5567 43.8598 34.5687 43.8574 34.5798 43.8528C34.591 43.8481 34.6011 43.8414 34.6096 43.8328C34.6181 43.8243 34.6248 43.8142 34.6293 43.803C34.6338 43.7919 34.636 43.78 34.6358 43.768V27.3371C34.636 27.3251 34.6338 27.3132 34.6293 27.3021C34.6248 27.291 34.6181 27.2808 34.6096 27.2723C34.6011 27.2638 34.591 27.257 34.5798 27.2524C34.5687 27.2477 34.5567 27.2454 34.5446 27.2454H31.194C31.1694 27.2454 31.1459 27.255 31.1286 27.2722C31.1112 27.2894 31.1015 27.3128 31.1015 27.3371Z" fill="#130E54"/>
<path d="M42.0994 40.5103V37.0992H47.7999C47.8237 37.0992 47.8466 37.0898 47.8635 37.0731C47.8803 37.0563 47.8898 37.0337 47.8898 37.01V33.9353C47.8898 33.9117 47.8803 33.889 47.8635 33.8723C47.8466 33.8555 47.8237 33.8461 47.7999 33.8461H42.0994V30.5714H48.4178C48.4417 30.5714 48.4646 30.562 48.4814 30.5453C48.4983 30.5286 48.5078 30.5059 48.5078 30.4822V27.3375C48.5078 27.3138 48.4983 27.2911 48.4814 27.2744C48.4646 27.2577 48.4417 27.2483 48.4178 27.2483H38.5548C38.5309 27.2483 38.508 27.2577 38.4912 27.2744C38.4743 27.2911 38.4648 27.3138 38.4648 27.3375V43.7748C38.4648 43.7984 38.4743 43.8211 38.4912 43.8378C38.508 43.8546 38.5309 43.864 38.5548 43.864H48.6825C48.7063 43.864 48.7292 43.8546 48.7461 43.8378C48.7629 43.8211 48.7724 43.7984 48.7724 43.7748V40.5994C48.7724 40.5758 48.7629 40.5531 48.7461 40.5364C48.7292 40.5197 48.7063 40.5103 48.6825 40.5103H42.0994Z" fill="#130E54"/>
<path d="M61.1932 40.5092V27.3428C61.1932 27.3181 61.1833 27.2944 61.1657 27.277C61.1481 27.2596 61.1242 27.2498 61.0994 27.2498H57.6537C57.6287 27.2498 57.6047 27.2595 57.5869 27.2769C57.5691 27.2943 57.5589 27.318 57.5586 27.3428V43.766C57.5589 43.7908 57.5691 43.8145 57.5869 43.8319C57.6047 43.8493 57.6287 43.8591 57.6537 43.8591H67.5077C67.5327 43.8591 67.5567 43.8493 67.5745 43.8319C67.5923 43.8145 67.6025 43.7908 67.6028 43.766V40.6022C67.6025 40.5774 67.5923 40.5537 67.5745 40.5363C67.5567 40.5189 67.5327 40.5092 67.5077 40.5092H61.1932Z" fill="#130E54"/>
<path d="M79.9523 27.2501H76.6569C76.6392 27.2501 76.6218 27.2555 76.6071 27.2655C76.5925 27.2755 76.5812 27.2897 76.5747 27.3061L70.0842 43.7434C70.0789 43.7568 70.077 43.7713 70.0787 43.7855C70.0804 43.7998 70.0856 43.8135 70.0939 43.8253C70.1021 43.8371 70.1131 43.8467 70.126 43.8533C70.1389 43.86 70.1532 43.8633 70.1677 43.8632H73.8048C73.8231 43.8632 73.841 43.8575 73.8559 43.847C73.8709 43.8365 73.8822 43.8217 73.8883 43.8046L75.0138 40.707H81.6945L82.8418 43.8058C82.8481 43.8227 82.8595 43.8373 82.8744 43.8476C82.8893 43.8578 82.9071 43.8633 82.9253 43.8632H86.6511C86.6656 43.8632 86.6799 43.8597 86.6928 43.8529C86.7056 43.8461 86.7166 43.8363 86.7247 43.8244C86.7328 43.8124 86.7378 43.7987 86.7393 43.7843C86.7408 43.77 86.7388 43.7555 86.7333 43.7421L80.041 27.3048C80.0341 27.2875 80.0218 27.2727 80.0058 27.2629C79.9899 27.253 79.9711 27.2485 79.9523 27.2501ZM76.1675 37.5711L78.3387 31.641L80.5408 37.5711H76.1675Z" fill="#130E54"/>
<path d="M102.397 36.7018C101.991 36.0181 101.398 35.463 100.686 35.1014C101.268 34.6987 101.744 34.1629 102.073 33.5392C102.408 32.9179 102.581 32.2239 102.578 31.5196C102.578 30.3015 102.095 29.2834 101.138 28.4692C100.181 27.655 98.9886 27.2498 97.5561 27.2498H90.7058C90.6935 27.2498 90.6814 27.2522 90.6701 27.2569C90.6588 27.2615 90.6485 27.2684 90.6399 27.2771C90.6313 27.2857 90.6245 27.296 90.62 27.3073C90.6154 27.3186 90.6131 27.3306 90.6133 27.3428V43.766C90.6133 43.7905 90.623 43.814 90.6403 43.8314C90.6576 43.8488 90.6811 43.8587 90.7058 43.8591H97.7385C99.1133 43.8844 100.445 43.3823 101.455 42.4574C102.488 41.523 103.002 40.3915 102.997 39.0629C103.015 38.2367 102.808 37.4209 102.397 36.7018ZM94.1746 30.3079H97.1899C97.4531 30.3055 97.7144 30.3513 97.9608 30.4429C98.1824 30.5196 98.3835 30.6451 98.5492 30.8099C98.7086 30.9705 98.834 31.1611 98.9179 31.3705C99.0125 31.5979 99.0588 31.8421 99.0541 32.0879C99.0632 32.3234 99.023 32.5581 98.9361 32.7774C98.8492 32.9967 98.7175 33.1958 98.5492 33.3621C98.21 33.6832 97.7565 33.8476 97.1835 33.8476H94.1746V30.3079ZM98.819 40.0377C98.4503 40.3894 97.9749 40.5614 97.3788 40.5614H94.1746V36.8369H97.3788C97.9749 36.8369 98.4503 37.0089 98.819 37.3606C98.9995 37.5305 99.1418 37.7362 99.2368 37.9643C99.3317 38.1924 99.3772 38.4378 99.3702 38.6845C99.3784 38.9358 99.3335 39.186 99.2383 39.4191C99.1432 39.6521 98.9999 39.8629 98.8177 40.0377H98.819Z" fill="#130E54"/>
<path d="M0.495915 26.6628H7.89867C7.98489 26.6638 8.06723 26.6985 8.12784 26.7594C8.18844 26.8202 8.22243 26.9022 8.22242 26.9878V29.9274C8.22242 30.0135 8.18791 30.0962 8.12647 30.1571C8.06503 30.2181 7.9817 30.2523 7.89481 30.2523H3.95704C3.82552 30.2523 3.69938 30.3041 3.60638 30.3963C3.51337 30.4886 3.46113 30.6137 3.46113 30.7441V33.9067C3.46113 33.9929 3.42661 34.0755 3.36517 34.1365C3.30373 34.1974 3.2204 34.2316 3.13351 34.2316H0.327612C0.240724 34.2316 0.157395 34.1974 0.0959554 34.1365C0.0345162 34.0755 0 33.9929 0 33.9067L0 27.1534C0.000340162 27.0232 0.0527383 26.8984 0.145704 26.8064C0.238669 26.7145 0.364612 26.6628 0.495915 26.6628Z" fill="#130E54"/>
</svg>
