<?xml version="1.0" encoding="UTF-8"?>
<svg id="_Шар_1" data-name="Шар 1" xmlns="http://www.w3.org/2000/svg" viewBox="0 0 973 483.5">
  <defs>
    <style>
      .cls-1 {
        fill: #2b1fc3;
      }

      .cls-2 {
        fill: #130e54;
      }
    </style>
  </defs>
  <g>
    <path class="cls-1" d="M567.45,416.13c4.5,0,8.54,1.03,12.14,3.08,3.6,2.05,6.41,4.9,8.43,8.56,2.02,3.65,3.03,7.73,3.03,12.22,0,6.86-2.23,12.55-6.7,17.07-4.47,4.52-10.1,6.79-16.91,6.79-5.68,0-10.58-1.72-14.72-5.16-.15-.13-.37-.03-.37,.17v19.4c0,.47-.38,.86-.86,.86h-7.65c-.47,0-.86-.38-.86-.86v-60.17c0-.47,.38-.86,.86-.86h6.5c.28,0,.53,.18,.61,.45l.12,5.12c4.39-4.44,9.84-6.66,16.36-6.66Zm-11.38,34.52c2.81,2.84,6.37,4.26,10.66,4.26s7.86-1.42,10.67-4.26c2.81-2.84,4.21-6.39,4.21-10.66s-1.41-7.83-4.21-10.67c-2.81-2.83-6.35-4.26-10.62-4.26-2.81,0-5.37,.65-7.67,1.94-2.31,1.29-4.09,3.08-5.35,5.36-1.27,2.27-1.9,4.82-1.9,7.63,0,4.27,1.4,7.83,4.21,10.66Z"/>
    <path class="cls-1" d="M632.45,416.97h4.05v8.85h-4.89c-7.76,0-11.64,4.21-11.64,12.65v23.43c0,.47-.38,.85-.85,.85h-7.66c-.47,0-.85-.38-.85-.85v-43.83c0-.47,.38-.85,.85-.85h6.07c.45,0,.84,.3,.95,.74l.06,5.5c3.26-4.33,7.9-6.49,13.91-6.49Z"/>
    <path class="cls-1" d="M690.49,457.06c-4.64,4.52-10.44,6.79-17.41,6.79s-12.77-2.26-17.41-6.79c-4.64-4.52-6.95-10.21-6.95-17.07,0-4.5,1.05-8.57,3.16-12.22,2.11-3.65,5.03-6.51,8.77-8.56,3.74-2.05,7.88-3.08,12.44-3.08s8.7,1.03,12.43,3.08c3.74,2.05,6.66,4.9,8.77,8.56,2.11,3.65,3.16,7.73,3.16,12.22,0,6.86-2.32,12.55-6.95,17.07Zm-17.41-2.15c2.87,0,5.42-.63,7.67-1.9,2.25-1.27,4.01-3.03,5.27-5.31,1.27-2.27,1.9-4.85,1.9-7.71,0-4.33-1.39-7.9-4.17-10.71-2.78-2.81-6.34-4.22-10.66-4.22s-7.88,1.41-10.67,4.22c-2.78,2.81-4.17,6.38-4.17,10.71s1.39,7.9,4.17,10.71c2.78,2.81,6.34,4.21,10.67,4.21Z"/>
    <path class="cls-1" d="M747.19,417.22h8c.53,0,.89,.54,.69,1.02l-18.11,44.04c-.11,.28-.38,.46-.69,.46h-7.61c-.3,0-.57-.18-.68-.45l-18.6-44.04c-.21-.49,.15-1.03,.68-1.03h8.25c.3,0,.57,.18,.69,.46l13.13,32.5c.12,.3,.55,.3,.68,0l12.89-32.49c.11-.28,.38-.47,.69-.47Z"/>
    <path class="cls-1" d="M773.49,409.24v-7.81c0-.5,.4-.9,.9-.9h7.9c.5,0,.9,.4,.9,.9v7.81c0,.5-.4,.9-.9,.9h-7.9c-.5,0-.9-.4-.9-.9Zm.17,52.61v-43.73c0-.5,.4-.9,.9-.9h7.56c.5,0,.9,.4,.9,.9v43.73c0,.5-.4,.9-.9,.9h-7.56c-.5,0-.9-.4-.9-.9Z"/>
    <path class="cls-1" d="M841.98,400.87h7.77c.44,0,.79,.35,.79,.79v60.3c0,.44-.35,.79-.79,.79h-6.51s-.28-.04-.38-.13-.2-.38-.2-.38l-.38-4.63c-4.38,4.16-9.75,6.24-16.1,6.24-6.86,0-12.52-2.26-16.99-6.79-4.47-4.52-6.7-10.21-6.7-17.07s2.23-12.55,6.7-17.07c4.47-4.52,10.13-6.79,16.99-6.79,5.47,0,10.24,1.58,14.31,4.75,.29,.22,.7,.04,.7-.32v-18.89c0-.44,.35-.79,.79-.79Zm-25.66,49.78c2.81,2.84,6.35,4.26,10.62,4.26s7.83-1.42,10.66-4.26c2.84-2.84,4.26-6.39,4.26-10.66,0-2.81-.65-5.36-1.94-7.63-1.29-2.28-3.08-4.06-5.36-5.36-2.27-1.29-4.82-1.94-7.63-1.94s-5.35,.65-7.63,1.94c-2.28,1.29-4.05,3.08-5.31,5.36-1.26,2.27-1.9,4.82-1.9,7.63,0,4.27,1.41,7.83,4.22,10.66Z"/>
    <path class="cls-1" d="M916.64,440.07c0,.84-.05,1.89-.17,3.12h-36.51c-.21,0-.38,.21-.35,.42,.61,3.46,2.12,6.21,4.53,8.26,2.5,2.14,5.61,3.2,9.32,3.2,1.8,0,3.48-.27,5.06-.8,1.57-.53,2.96-1.29,4.17-2.28,1.08-.88,1.99-1.92,2.74-3.14,.16-.27,.45-.44,.77-.44h7.95c.67,0,1.14,.7,.88,1.31-1.81,4.21-4.5,7.55-8.08,10.02-3.93,2.73-8.43,4.09-13.49,4.09-6.69,0-12.27-2.27-16.74-6.83-4.47-4.55-6.7-10.23-6.7-17.03s2.23-12.48,6.7-17.03c4.47-4.55,10.05-6.83,16.74-6.83,4.55,0,8.6,1.08,12.14,3.25,3.54,2.16,6.27,5.06,8.18,8.68,1.91,3.63,2.87,7.63,2.87,12.01Zm-23.18-15.51c-3.49,0-6.45,.98-8.9,2.95-2.34,1.88-3.92,4.43-4.74,7.65-.05,.22,.12,.44,.34,.44h27.12c-.56-2.3-1.49-4.29-2.78-5.94-1.29-1.65-2.88-2.92-4.76-3.79-1.89-.87-3.98-1.31-6.28-1.31Z"/>
    <path class="cls-1" d="M957.95,416.97h4.05v8.85h-4.89c-7.75,0-11.63,4.21-11.63,12.65v23.44c0,.46-.37,.84-.84,.84h-7.68c-.46,0-.84-.37-.84-.84v-43.85c0-.46,.37-.84,.84-.84h5.96c.48,0,.91,.33,1.03,.8l.1,5.44c3.26-4.33,7.9-6.49,13.91-6.49Z"/>
  </g>
  <path class="cls-2" d="M64.05,39.25c12.54,0,22.51,4.2,29.92,12.61,7.4,8.4,11.11,19.34,11.11,32.82v64.23c0,.45-.36,.81-.81,.81h-20.59c-.45,0-.81-.36-.81-.81v-59.83c0-9.74-2.1-17.18-6.3-22.31-4.2-5.14-10.38-7.71-18.52-7.71s-15.35,3.07-20.81,9.21c-5.47,6.13-8.21,14.01-8.21,23.62v57.03c0,.45-.36,.81-.81,.81H7.62c-.45,0-.81-.36-.81-.81V42.47c0-.45,.36-.81,.81-.81H25.81c.45,0,.81,.36,.81,.81v14.19c4.14-5.47,9.45-9.74,15.92-12.81,6.47-3.07,13.64-4.61,21.51-4.61Z"/>
  <path class="cls-2" d="M219.85,152.34c-14.81,0-26.69-4.41-35.62-13.21-8.94-8.81-13.42-20.48-13.42-35.02V42.42c0-.42,.34-.76,.76-.76h20.7c.42,0,.76,.34,.76,.76v58.48c0,9.48,2.4,16.88,7.21,22.22,4.8,5.34,11.33,8.01,19.61,8.01s15.01-2.7,19.81-8.11c4.81-5.4,7.21-12.77,7.21-22.12V42.42c0-.42,.34-.76,.76-.76h20.7c.42,0,.76,.34,.76,.76v61.69c0,14.54-4.47,26.22-13.41,35.02-8.94,8.8-20.88,13.21-35.83,13.21Z"/>
  <path class="cls-2" d="M457.16,39.25c11.23,.06,20.35,3.93,27.36,11.61,7.07,7.74,10.61,17.81,10.61,30.22v67.88c0,.43-.35,.77-.77,.77h-20.67c-.43,0-.77-.35-.77-.77v-62.47c0-5.74-.83-10.67-2.5-14.81-1.67-4.13-4.07-7.27-7.21-9.41-3.14-2.14-6.9-3.2-11.31-3.2-7.34,0-13.41,2.97-18.21,8.91-4.81,5.93-7.21,13.51-7.21,22.71v58.27c0,.43-.35,.77-.77,.77h-20.27c-.43,0-.77-.35-.77-.77v-62.47c0-8.8-1.8-15.58-5.4-20.31-3.6-4.73-8.8-7.1-15.61-7.1-7.21,0-13.24,2.97-18.11,8.91-4.88,5.93-7.31,13.51-7.31,22.71v58.27c0,.43-.35,.77-.77,.77h-20.67c-.43,0-.77-.35-.77-.77V42.43c0-.43,.35-.77,.77-.77h18.05c.43,0,.77,.35,.77,.77l.02,13.23c5.07-6.38,11.44-11,19.12-13.87,3.89-1.45,8.01-2.28,12.15-2.48,8.17-.4,15.36,1.26,21.56,4.95,5.61,3.34,10.01,7.94,13.21,13.81,4.47-6.79,10.55-11.88,18.24-15.28,5.41-2.39,11.33-3.57,17.24-3.53Z"/>
  <path class="cls-2" d="M620.1,39.05c16.28,0,29.72,5.37,40.33,16.11,10.61,10.75,15.91,24.25,15.91,40.53s-5.31,29.8-15.91,40.53c-10.61,10.75-24.05,16.12-40.33,16.12-15.08,0-27.82-4.94-38.23-14.81l.02,11.39c0,.45-.36,.82-.81,.82h-18.02c-.45,0-.81-.36-.81-.81V3.64c0-.45,.36-.81,.81-.81h20.59c.45,0,.81,.36,.81,.81V51.66c10.01-8.4,21.88-12.61,35.63-12.61Zm-27.12,81.86c6.74,6.81,15.17,10.21,25.32,10.21s18.54-3.37,25.22-10.11c6.67-6.73,10-15.17,10-25.32s-3.34-18.57-10-25.32c-6.68-6.74-15.08-10.11-25.22-10.11-6.67,0-12.71,1.53-18.11,4.6-5.4,3.07-9.64,7.31-12.71,12.71-3.07,5.4-4.6,11.45-4.6,18.11,0,10.01,3.36,18.41,10.11,25.22Z"/>
  <path class="cls-2" d="M839.73,95.89c0,1.83-.11,4.06-.34,6.68-.03,.4-.38,.73-.78,.73h-86.94c1.33,8.67,4.97,15.55,10.91,20.61,5.93,5.07,13.31,7.6,22.12,7.6,4.27,0,8.27-.63,12.01-1.9,3.73-1.27,7.03-3.07,9.91-5.4,2.76-2.25,5.05-4.95,6.88-8.12,.14-.24,.39-.38,.66-.38h21.82c.55,0,.94,.57,.74,1.09-4.29,10.96-10.96,19.56-20,25.83-9.34,6.47-20.01,9.71-32.02,9.71-15.88,0-29.12-5.41-39.73-16.21-10.61-10.81-15.91-24.28-15.91-40.43s5.3-29.62,15.91-40.43c10.61-10.81,23.85-16.21,39.73-16.21,10.8,0,20.42,2.57,28.82,7.71,8.4,5.14,14.88,12.01,19.41,20.61,4.54,8.61,6.81,18.11,6.81,28.52Zm-55.04-36.82c-8.28,0-15.31,2.34-21.11,7-5.81,4.68-9.64,11.08-11.51,19.22h65.45c-1.33-5.47-3.54-10.17-6.61-14.11-3.07-3.93-6.84-6.94-11.3-9.01-4.47-2.07-9.44-3.1-14.91-3.1Z"/>
  <path class="cls-2" d="M952.29,41.06h8.8c.44,0,.8,.36,.8,.8v19.42c0,.44-.36,.8-.8,.8h-10.81c-18.41,0-27.62,10-27.62,30.02v56.84c0,.44-.36,.8-.8,.8h-20.62c-.44,0-.8-.36-.8-.8V42.46c0-.44,.36-.8,.8-.8h17.27c.44,0,.8,.36,.8,.8l-.05,14c7.74-10.27,18.74-15.41,33.02-15.41Z"/>
  <path class="cls-2" d="M102.98,234.62c0,1,.63,1.86,1.56,2.22,1.91,.74,3.74,1.61,5.53,2.62,7.65,4.25,13.61,10.13,17.86,17.64,4.32,7.51,6.45,15.87,6.45,25.16,0,13.96-4.75,25.72-14.31,35.22-9.49,9.5-21.4,14.24-35.57,14.24s-26.15-4.75-35.64-14.24c-6.41-6.34-10.66-13.73-12.7-22.16-.26-1.08-1.2-1.86-2.31-1.86H6.22c-1.71,0-3.07,1.52-2.83,3.21,2.45,17.13,9.61,31.92,21.28,44.27,.35,.43,.78,.85,1.2,1.28,15.66,15.94,35.22,23.95,58.6,23.95s42.87-8.01,58.53-23.95c15.66-15.94,23.46-35.93,23.46-59.95,0-20.69-5.81-38.34-17.36-52.93-1.84-2.34-3.83-4.61-5.95-6.8-10.42-10.68-22.66-17.79-36.72-21.27-1.76-.43-3.46,.95-3.46,2.77v30.59Z"/>
  <path class="cls-2" d="M294.28,204.51v95.15l-68.76-95.66c-.16-.23-.42-.36-.7-.36h-29.51c-.48,0-.87,.39-.87,.87v155.65c0,.48,.39,.87,.87,.87h31.78c.48,0,.87-.39,.87-.87v-97.42l71.09,98.01c.13,.18,.33,.28,.55,.28h27.06c.48,0,.87-.39,.87-.87V204.51c0-.48-.39-.87-.87-.87h-31.5c-.48,0-.87,.39-.87,.87Z"/>
  <path class="cls-2" d="M397.67,329.29v-32.31h53.58c.47,0,.85-.38,.85-.85v-29.14c0-.47-.38-.85-.85-.85h-53.58v-31.04h59.39c.47,0,.85-.38,.85-.85v-29.77c0-.47-.38-.85-.85-.85h-92.7c-.47,0-.85,.38-.85,.85v155.7c0,.47,.38,.85,.85,.85h95.18c.47,0,.85-.38,.85-.85v-30.06c0-.47-.38-.85-.85-.85h-61.87Z"/>
  <g>
    <path class="cls-2" d="M577.09,329.29v-124.75c0-.49-.4-.89-.89-.89h-32.38c-.49,0-.89,.4-.89,.89v155.62c0,.49,.4,.89,.89,.89h92.62c.49,0,.89-.4,.89-.89v-29.97c0-.49-.4-.89-.89-.89h-59.35Z"/>
    <path class="cls-2" d="M753.39,203.65h-30.97c-.34,0-.65,.21-.78,.53l-61,155.72c-.21,.55,.19,1.14,.78,1.14h34.19c.35,0,.67-.22,.79-.55l10.57-29.35h62.78l10.78,29.36c.12,.33,.43,.55,.78,.55h35.03c.59,0,1-.6,.77-1.15l-62.96-155.72c-.13-.32-.43-.52-.77-.52Zm-35.58,97.79l20.41-56.19,20.69,56.19h-41.1Z"/>
    <path class="cls-2" d="M964.26,293.22c-3.83-6.52-9.21-11.55-16.09-15.16,5.53-3.9,9.92-8.86,13.04-14.81,3.19-6.02,4.75-12.4,4.75-19.13,0-11.55-4.54-21.19-13.54-28.91-8.93-7.65-20.2-11.55-33.66-11.55h-64.32c-.48,0-.88,.39-.88,.88v155.63c0,.48,.39,.88,.88,.88h66.09c13.61,0,25.3-4.46,34.94-13.25,9.71-8.86,14.53-19.56,14.53-32.17,0-8.36-1.91-15.87-5.74-22.39Zm-77.24-60.59h28.35c2.69,0,5.1,.43,7.3,1.28,2.2,.78,4.04,1.98,5.53,3.47,1.49,1.49,2.62,3.26,3.47,5.31,.85,1.98,1.28,4.25,1.28,6.8,0,4.96-1.63,9-4.75,12.05-3.19,3.05-7.44,4.61-12.83,4.61h-28.35v-33.52Zm43.65,92.19c-3.47,3.33-7.94,4.96-13.53,4.96h-30.12v-35.29h30.12c5.6,0,10.06,1.63,13.53,4.96,3.4,3.26,5.17,7.44,5.17,12.54s-1.77,9.57-5.17,12.82Z"/>
  </g>
  <path class="cls-1" d="M6.66,198.08H76.23c1.7,0,3.08,1.38,3.08,3.08v27.86c0,1.7-1.38,3.08-3.08,3.08H39.19c-2.57,0-4.66,2.09-4.66,4.66v29.96c0,1.7-1.38,3.08-3.08,3.08H5.08c-1.7,0-3.08-1.38-3.08-3.08v-63.98c0-2.57,2.09-4.66,4.66-4.66Z"/>
</svg>