<?xml version="1.0" encoding="UTF-8"?>
<svg id="_Шар_1" data-name="Шар 1" xmlns="http://www.w3.org/2000/svg" viewBox="0 0 973 483.5">
  <defs>
    <style>
      .cls-1 {
        fill: #2eb3ff;
      }

      .cls-2 {
        fill: #130e54;
      }
    </style>
  </defs>
  <g>
    <path class="cls-1" d="M567.8,415.79c4.56,0,8.66,1.04,12.31,3.12,3.65,2.08,6.5,4.97,8.55,8.68,2.05,3.71,3.08,7.84,3.08,12.4,0,6.95-2.27,12.72-6.8,17.31-4.53,4.59-10.25,6.88-17.14,6.88-5.93,0-11.03-1.85-15.31-5.56v21.04h-9.49v-62.77h6.41l1.8,5.64c4.45-4.5,9.98-6.76,16.59-6.76Zm-11.54,35.02c2.85,2.88,6.45,4.32,10.82,4.32s7.96-1.44,10.82-4.32c2.85-2.88,4.27-6.49,4.27-10.82s-1.42-7.94-4.27-10.82c-2.85-2.88-6.44-4.32-10.77-4.32-2.85,0-5.45,.66-7.78,1.97-2.34,1.31-4.15,3.12-5.43,5.43-1.28,2.31-1.92,4.89-1.92,7.74,0,4.33,1.43,7.94,4.28,10.82Z"/>
    <path class="cls-1" d="M658.61,416.9h7.35v46.18h-7.69l-.94-5.65c-4.45,4.51-10,6.76-16.67,6.76s-12.64-2.31-17.23-6.93c-4.59-4.62-6.88-10.39-6.88-17.31s2.29-12.69,6.88-17.27c4.59-4.59,10.33-6.88,17.23-6.88s12.4,2.28,16.84,6.84l1.11-5.73Zm-28.09,33.9c2.88,2.88,6.5,4.32,10.86,4.32s7.95-1.44,10.77-4.32c2.82-2.88,4.23-6.5,4.23-10.86s-1.41-7.96-4.23-10.82c-2.82-2.85-6.43-4.28-10.82-4.28-2.85,0-5.43,.66-7.74,1.97-2.31,1.31-4.12,3.12-5.43,5.43-1.31,2.31-1.96,4.89-1.96,7.74,0,4.33,1.44,7.94,4.32,10.82Z"/>
    <path class="cls-1" d="M718.13,454.44h5.21v8.64h-7.01c-3.36,0-6.27-.66-8.72-1.97-2.45-1.31-4.33-3.21-5.65-5.69-1.31-2.48-1.96-5.4-1.96-8.76v-21.64h-8.29v-1.79l16.08-17.1h1.62v10.78h13.68v8.12h-13.6v20.86c0,2.74,.74,4.85,2.22,6.33,1.48,1.48,3.62,2.22,6.41,2.22Z"/>
    <path class="cls-1" d="M750.45,409.72v-9.75h9.83v9.75h-9.83Zm.17,53.36v-46.18h9.49v46.18h-9.49Z"/>
    <path class="cls-1" d="M835.53,440.08c0,.85-.06,1.91-.17,3.17h-37.45c.57,3.71,2.12,6.64,4.66,8.81,2.54,2.17,5.69,3.25,9.45,3.25,1.82,0,3.53-.27,5.13-.81,1.59-.54,3.01-1.31,4.23-2.31,1.22-1,2.24-2.21,3.04-3.63h10c-1.83,4.9-4.74,8.74-8.72,11.5-3.99,2.77-8.55,4.15-13.68,4.15-6.79,0-12.44-2.31-16.98-6.93-4.53-4.62-6.8-10.37-6.8-17.27s2.27-12.66,6.8-17.27c4.53-4.62,10.19-6.93,16.98-6.93,4.62,0,8.72,1.1,12.31,3.29,3.59,2.2,6.35,5.13,8.29,8.81,1.94,3.68,2.91,7.74,2.91,12.18Zm-23.51-15.74c-3.54,0-6.55,1-9.02,2.99-2.48,2-4.12,4.73-4.92,8.21h27.96c-.57-2.33-1.51-4.35-2.82-6.03-1.31-1.68-2.92-2.96-4.83-3.85-1.91-.88-4.04-1.33-6.37-1.33Z"/>
    <path class="cls-1" d="M888.12,415.88c5.35,0,9.62,1.79,12.78,5.38,3.17,3.59,4.75,8.27,4.75,14.03v27.79h-9.5v-25.91c0-4.16-.89-7.34-2.69-9.54-1.8-2.19-4.44-3.29-7.91-3.29s-6.55,1.31-8.89,3.94c-2.34,2.62-3.51,5.98-3.51,10.09v24.71h-9.49v-46.18h6.59l1.88,6.41c1.77-2.33,4.03-4.16,6.8-5.47,2.76-1.31,5.83-1.96,9.19-1.96Z"/>
    <path class="cls-1" d="M956.78,454.44h5.22v8.64h-7.01c-3.36,0-6.27-.66-8.72-1.97-2.45-1.31-4.33-3.21-5.64-5.69-1.31-2.48-1.97-5.4-1.97-8.76v-21.64h-8.29v-1.79l16.07-17.1h1.63v10.78h13.68v8.12h-13.6v20.86c0,2.74,.74,4.85,2.22,6.33,1.48,1.48,3.62,2.22,6.41,2.22Z"/>
  </g>
  <path class="cls-2" d="M64.05,39.25c12.54,0,22.51,4.2,29.92,12.61,7.4,8.4,11.11,19.34,11.11,32.82v64.23c0,.45-.36,.81-.81,.81h-20.59c-.45,0-.81-.36-.81-.81v-59.83c0-9.74-2.1-17.18-6.3-22.31-4.2-5.14-10.38-7.71-18.52-7.71s-15.35,3.07-20.81,9.21c-5.47,6.13-8.21,14.01-8.21,23.62v57.03c0,.45-.36,.81-.81,.81H7.62c-.45,0-.81-.36-.81-.81V42.47c0-.45,.36-.81,.81-.81H25.81c.45,0,.81,.36,.81,.81v14.19c4.14-5.47,9.45-9.74,15.92-12.81,6.47-3.07,13.64-4.61,21.51-4.61Z"/>
  <path class="cls-2" d="M219.85,152.34c-14.81,0-26.69-4.41-35.62-13.21-8.94-8.81-13.42-20.48-13.42-35.02V42.42c0-.42,.34-.76,.76-.76h20.7c.42,0,.76,.34,.76,.76v58.48c0,9.48,2.4,16.88,7.21,22.22,4.8,5.34,11.33,8.01,19.61,8.01s15.01-2.7,19.81-8.11c4.81-5.4,7.21-12.77,7.21-22.12V42.42c0-.42,.34-.76,.76-.76h20.7c.42,0,.76,.34,.76,.76v61.69c0,14.54-4.47,26.22-13.41,35.02-8.94,8.8-20.88,13.21-35.83,13.21Z"/>
  <path class="cls-2" d="M457.16,39.25c11.23,.06,20.35,3.93,27.36,11.61,7.07,7.74,10.61,17.81,10.61,30.22v67.88c0,.43-.35,.77-.77,.77h-20.67c-.43,0-.77-.35-.77-.77v-62.47c0-5.74-.83-10.67-2.5-14.81-1.67-4.13-4.07-7.27-7.21-9.41-3.14-2.14-6.9-3.2-11.31-3.2-7.34,0-13.41,2.97-18.21,8.91-4.81,5.93-7.21,13.51-7.21,22.71v58.27c0,.43-.35,.77-.77,.77h-20.27c-.43,0-.77-.35-.77-.77v-62.47c0-8.8-1.8-15.58-5.4-20.31-3.6-4.73-8.8-7.1-15.61-7.1-7.21,0-13.24,2.97-18.11,8.91-4.88,5.93-7.31,13.51-7.31,22.71v58.27c0,.43-.35,.77-.77,.77h-20.67c-.43,0-.77-.35-.77-.77V42.43c0-.43,.35-.77,.77-.77h18.05c.43,0,.77,.35,.77,.77l.02,13.23c5.07-6.38,11.44-11,19.12-13.87,3.89-1.45,8.01-2.28,12.15-2.48,8.17-.4,15.36,1.26,21.56,4.95,5.61,3.34,10.01,7.94,13.21,13.81,4.47-6.79,10.55-11.88,18.24-15.28,5.41-2.39,11.33-3.57,17.24-3.53Z"/>
  <path class="cls-2" d="M620.1,39.05c16.28,0,29.72,5.37,40.33,16.11,10.61,10.75,15.91,24.25,15.91,40.53s-5.31,29.8-15.91,40.53c-10.61,10.75-24.05,16.12-40.33,16.12-15.08,0-27.82-4.94-38.23-14.81l.02,11.39c0,.45-.36,.82-.81,.82h-18.02c-.45,0-.81-.36-.81-.81V3.64c0-.45,.36-.81,.81-.81h20.59c.45,0,.81,.36,.81,.81V51.66c10.01-8.4,21.88-12.61,35.63-12.61Zm-27.12,81.86c6.74,6.81,15.17,10.21,25.32,10.21s18.54-3.37,25.22-10.11c6.67-6.73,10-15.17,10-25.32s-3.34-18.57-10-25.32c-6.68-6.74-15.08-10.11-25.22-10.11-6.67,0-12.71,1.53-18.11,4.6-5.4,3.07-9.64,7.31-12.71,12.71-3.07,5.4-4.6,11.45-4.6,18.11,0,10.01,3.36,18.41,10.11,25.22Z"/>
  <path class="cls-2" d="M839.73,95.89c0,1.83-.11,4.06-.34,6.68-.03,.4-.38,.73-.78,.73h-86.94c1.33,8.67,4.97,15.55,10.91,20.61,5.93,5.07,13.31,7.6,22.12,7.6,4.27,0,8.27-.63,12.01-1.9,3.73-1.27,7.03-3.07,9.91-5.4,2.76-2.25,5.05-4.95,6.88-8.12,.14-.24,.39-.38,.66-.38h21.82c.55,0,.94,.57,.74,1.09-4.29,10.96-10.96,19.56-20,25.83-9.34,6.47-20.01,9.71-32.02,9.71-15.88,0-29.12-5.41-39.73-16.21-10.61-10.81-15.91-24.28-15.91-40.43s5.3-29.62,15.91-40.43c10.61-10.81,23.85-16.21,39.73-16.21,10.8,0,20.42,2.57,28.82,7.71,8.4,5.14,14.88,12.01,19.41,20.61,4.54,8.61,6.81,18.11,6.81,28.52Zm-55.04-36.82c-8.28,0-15.31,2.34-21.11,7-5.81,4.68-9.64,11.08-11.51,19.22h65.45c-1.33-5.47-3.54-10.17-6.61-14.11-3.07-3.93-6.84-6.94-11.3-9.01-4.47-2.07-9.44-3.1-14.91-3.1Z"/>
  <path class="cls-2" d="M952.29,41.06h8.8c.44,0,.8,.36,.8,.8v19.42c0,.44-.36,.8-.8,.8h-10.81c-18.41,0-27.62,10-27.62,30.02v56.84c0,.44-.36,.8-.8,.8h-20.62c-.44,0-.8-.36-.8-.8V42.46c0-.44,.36-.8,.8-.8h17.27c.44,0,.8,.36,.8,.8l-.05,14c7.74-10.27,18.74-15.41,33.02-15.41Z"/>
  <path class="cls-2" d="M102.98,234.62c0,1,.63,1.86,1.56,2.22,1.91,.74,3.74,1.61,5.53,2.62,7.65,4.25,13.61,10.13,17.86,17.64,4.32,7.51,6.45,15.87,6.45,25.16,0,13.96-4.75,25.72-14.31,35.22-9.49,9.5-21.4,14.24-35.57,14.24s-26.15-4.75-35.64-14.24c-6.41-6.34-10.66-13.73-12.7-22.16-.26-1.08-1.2-1.86-2.31-1.86H6.22c-1.71,0-3.07,1.52-2.83,3.21,2.45,17.13,9.61,31.92,21.28,44.27,.35,.43,.78,.85,1.2,1.28,15.66,15.94,35.22,23.95,58.6,23.95s42.87-8.01,58.53-23.95c15.66-15.94,23.46-35.93,23.46-59.95,0-20.69-5.81-38.34-17.36-52.93-1.84-2.34-3.83-4.61-5.95-6.8-10.42-10.68-22.66-17.79-36.72-21.27-1.76-.43-3.46,.95-3.46,2.77v30.59Z"/>
  <path class="cls-2" d="M294.28,204.51v95.15l-68.76-95.66c-.16-.23-.42-.36-.7-.36h-29.51c-.48,0-.87,.39-.87,.87v155.65c0,.48,.39,.87,.87,.87h31.78c.48,0,.87-.39,.87-.87v-97.42l71.09,98.01c.13,.18,.33,.28,.55,.28h27.06c.48,0,.87-.39,.87-.87V204.51c0-.48-.39-.87-.87-.87h-31.5c-.48,0-.87,.39-.87,.87Z"/>
  <path class="cls-2" d="M397.67,329.29v-32.31h53.58c.47,0,.85-.38,.85-.85v-29.14c0-.47-.38-.85-.85-.85h-53.58v-31.04h59.39c.47,0,.85-.38,.85-.85v-29.77c0-.47-.38-.85-.85-.85h-92.7c-.47,0-.85,.38-.85,.85v155.7c0,.47,.38,.85,.85,.85h95.18c.47,0,.85-.38,.85-.85v-30.06c0-.47-.38-.85-.85-.85h-61.87Z"/>
  <g>
    <path class="cls-2" d="M577.09,329.29v-124.75c0-.49-.4-.89-.89-.89h-32.38c-.49,0-.89,.4-.89,.89v155.62c0,.49,.4,.89,.89,.89h92.62c.49,0,.89-.4,.89-.89v-29.97c0-.49-.4-.89-.89-.89h-59.35Z"/>
    <path class="cls-2" d="M753.39,203.65h-30.97c-.34,0-.65,.21-.78,.53l-61,155.72c-.21,.55,.19,1.14,.78,1.14h34.19c.35,0,.67-.22,.79-.55l10.57-29.35h62.78l10.78,29.36c.12,.33,.43,.55,.78,.55h35.03c.59,0,1-.6,.77-1.15l-62.96-155.72c-.13-.32-.43-.52-.77-.52Zm-35.58,97.79l20.41-56.19,20.69,56.19h-41.1Z"/>
    <path class="cls-2" d="M964.26,293.22c-3.83-6.52-9.21-11.55-16.09-15.16,5.53-3.9,9.92-8.86,13.04-14.81,3.19-6.02,4.75-12.4,4.75-19.13,0-11.55-4.54-21.19-13.54-28.91-8.93-7.65-20.2-11.55-33.66-11.55h-64.32c-.48,0-.88,.39-.88,.88v155.63c0,.48,.39,.88,.88,.88h66.09c13.61,0,25.3-4.46,34.94-13.25,9.71-8.86,14.53-19.56,14.53-32.17,0-8.36-1.91-15.87-5.74-22.39Zm-77.24-60.59h28.35c2.69,0,5.1,.43,7.3,1.28,2.2,.78,4.04,1.98,5.53,3.47,1.49,1.49,2.62,3.26,3.47,5.31,.85,1.98,1.28,4.25,1.28,6.8,0,4.96-1.63,9-4.75,12.05-3.19,3.05-7.44,4.61-12.83,4.61h-28.35v-33.52Zm43.65,92.19c-3.47,3.33-7.94,4.96-13.53,4.96h-30.12v-35.29h30.12c5.6,0,10.06,1.63,13.53,4.96,3.4,3.26,5.17,7.44,5.17,12.54s-1.77,9.57-5.17,12.82Z"/>
  </g>
  <path class="cls-1" d="M6.66,198.08H76.23c1.7,0,3.08,1.38,3.08,3.08v27.86c0,1.7-1.38,3.08-3.08,3.08H39.19c-2.57,0-4.66,2.09-4.66,4.66v29.96c0,1.7-1.38,3.08-3.08,3.08H5.08c-1.7,0-3.08-1.38-3.08-3.08v-63.98c0-2.57,2.09-4.66,4.66-4.66Z"/>
</svg>