<svg width="146" height="172" viewBox="0 0 146 172" fill="none" xmlns="http://www.w3.org/2000/svg">
<g clip-path="url(#clip0_951_7457)">
<path d="M137.17 4.52778C137.466 5.18676 136.929 3.92863 137.17 4.57577L137.322 4.95924C137.449 5.28279 137.564 5.60638 137.678 5.92996C137.902 6.58315 138.096 7.24243 138.284 7.90772C138.472 8.57301 138.6 9.25047 138.716 9.92197C138.805 10.1845 138.849 10.4603 138.845 10.7374L138.796 10.3536L138.845 10.7614L138.906 11.3611C139.028 12.7352 139.055 14.1161 138.985 15.4938C138.95 16.0938 138.886 16.7298 138.828 17.3479C138.752 18.0739 138.934 16.6517 138.828 17.3479L138.769 17.7559C138.71 18.134 138.639 18.5061 138.568 18.8782C138.309 20.213 137.96 21.5287 137.524 22.8163C137.411 23.1466 137.298 23.4708 137.173 23.7891L136.982 24.2756C136.904 24.4677 136.666 24.8763 136.982 24.2276C136.653 24.8284 136.421 25.4889 136.105 26.1017C135.48 27.3301 134.765 28.511 133.967 29.6351C133.848 29.8094 133.244 30.7409 133.698 30.0198C133.516 30.2738 133.316 30.5149 133.1 30.7413C132.64 31.3005 132.155 31.8358 131.647 32.3532C131.138 32.8705 130.767 33.2195 130.306 33.6288C130.049 33.8575 129.786 34.0862 129.516 34.3029C129.48 34.303 128.918 34.7546 129.331 34.4534C129.744 34.1523 129.043 34.6642 128.971 34.7184C127.86 35.5218 126.686 36.2353 125.461 36.8521C125.18 36.9909 124.892 37.1297 124.604 37.2625C124.562 37.2627 123.933 37.5824 124.383 37.3652C124.832 37.1479 124.203 37.4377 124.161 37.4558C123.508 37.7156 122.842 37.9515 122.177 38.1634C120.847 38.5842 119.488 38.9069 118.111 39.129C118.051 39.1292 117.361 39.2272 117.883 39.1657C118.405 39.1042 117.709 39.1662 117.649 39.1664C117.337 39.2033 117.049 39.2341 116.701 39.2591C115.963 39.3212 115.225 39.3534 114.481 39.3616C113.845 39.3634 113.209 39.3653 112.573 39.3131C112.225 39.3141 111.871 39.2732 111.517 39.2382C111.345 39.2387 111.171 39.2213 110.994 39.1858C110.742 39.1865 110.046 39.2305 110.844 39.1862C110.207 39.1572 109.576 39.0503 108.965 38.8678C108.239 38.7199 107.518 38.5421 106.803 38.3402C106.089 38.1383 105.506 37.9661 104.905 37.7399C104.575 37.6209 104.245 37.4959 103.92 37.3648C103.758 37.3053 103.398 37.2224 104.052 37.4244C103.846 37.3536 103.646 37.268 103.452 37.1683C102.171 36.5903 100.937 35.914 99.7613 35.1455C99.4667 34.9544 99.1601 34.7574 98.8895 34.5482L98.5467 34.2973C97.9454 33.8791 99.052 34.7097 98.4866 34.2554C97.9212 33.8012 97.3979 33.3588 96.8804 32.8745C96.3629 32.3901 95.9476 31.9654 95.5141 31.4748C95.3095 31.2474 95.1108 31.0141 94.912 30.7747C94.9119 30.7327 94.4782 30.1761 94.7615 30.5892L94.5084 30.23C93.7204 29.1329 93.0303 27.9687 92.446 26.7509C92.293 26.4789 92.1637 26.1943 92.0595 25.9002C92.2657 26.6614 92.1139 26.026 92.0593 25.8462L91.9082 25.4628C91.6542 24.7857 91.4361 24.0905 91.2481 23.3952C91.06 22.6999 90.9324 22.1304 90.8165 21.4949L90.7493 21.0872C90.6212 20.3797 90.8174 21.7948 90.7493 21.0872L90.6564 20.0797C90.6064 19.4131 90.5924 18.7444 90.6145 18.0763L90.6659 17.1824L90.7125 16.6964C90.7705 16.0004 90.5885 17.3986 90.7125 16.6964C90.8365 15.9942 90.937 15.496 91.0973 14.8957C91.1745 14.6135 91.2637 14.3313 91.3529 14.0551L91.5493 13.5087L91.6208 13.3285C91.7399 13.0282 91.7161 13.0883 91.5433 13.5087C91.5433 13.5087 92.2891 12.0549 92.3489 11.9527C92.5161 11.6763 92.6953 11.3999 92.8805 11.1294C92.9164 11.0813 93.2988 10.5283 93 10.9611C92.7013 11.3938 93.2093 10.7085 93.2691 10.6424C93.6728 10.1773 94.1065 9.73924 94.5675 9.33089L94.9625 8.99382C95.2917 8.69893 94.3637 9.42147 94.9266 9.02392C95.238 8.80106 95.5254 8.59028 95.8669 8.39133C96.394 8.05987 97.0654 7.85396 97.5804 7.48055C97.1853 7.78163 97.1788 7.63768 97.4306 7.54097L98.03 7.32328C98.3477 7.20838 98.6774 7.10544 99.0072 7.0145C99.6704 6.82912 100.343 6.67899 101.022 6.56473C101.382 6.4977 101.106 6.42052 100.842 6.56526C101.01 6.51726 101.184 6.49649 101.358 6.50377C101.758 6.46661 102.142 6.4415 102.51 6.42843C103.212 6.40439 103.915 6.41636 104.616 6.46427C104.898 6.46345 105.18 6.51661 105.463 6.54578C106.195 6.60963 104.778 6.42181 105.505 6.54566C105.715 6.58104 105.925 6.61042 106.105 6.64589C107.503 6.91975 108.873 7.31723 110.201 7.83365C110.381 7.89911 110.699 7.94017 110.075 7.77403C110.243 7.83407 110.405 7.90783 110.561 7.99456C110.85 8.12569 111.162 8.26274 111.421 8.41195C112.083 8.75381 112.725 9.13244 113.344 9.54607C113.645 9.74515 113.939 9.94424 114.228 10.1433C114.318 10.2151 114.944 10.7051 114.372 10.2509L114.745 10.5437C115.347 11.0399 115.948 11.566 116.508 12.1162C117.068 12.6665 117.604 13.2767 118.127 13.8751C118.386 14.1682 118.639 14.4734 118.892 14.7726L119.187 15.1437C119.687 15.7421 118.826 14.6469 119.302 15.2873C120.247 16.5642 121.122 17.8912 121.924 19.2627C122.732 20.652 123.462 22.0835 124.132 23.5452C124.283 23.8687 124.434 24.1982 124.579 24.5337L124.821 25.0848C124.573 24.4857 124.742 24.9111 124.821 25.0369C125.147 25.8517 125.48 26.6665 125.788 27.4934C127.868 33.0841 129.373 38.8723 130.279 44.7682L130.444 45.8894C130.475 46.0993 130.404 46.3694 130.444 45.7635C130.452 45.9147 130.473 46.0651 130.505 46.2132C130.61 47.0347 130.708 47.8562 130.788 48.6837C130.937 50.141 131.055 51.6103 131.131 53.0797C131.296 56.0785 131.311 59.0357 131.193 62.0113C131.132 63.5172 131.04 65.0111 130.906 66.5291C130.844 67.2411 130.775 67.9551 130.697 68.6712L130.58 69.6853L130.509 70.2433C130.41 71.0534 130.574 69.8293 130.48 70.4594C130.068 73.3759 129.549 76.2747 128.885 79.1439C128.221 82.0132 127.39 85.0029 126.444 87.867C125.968 89.304 125.458 90.7251 124.914 92.1304C124.672 92.7669 124.422 93.3975 124.164 94.0221L124.116 94.1422L123.943 94.5626L123.401 95.8059C120.995 101.257 118.064 106.461 114.649 111.344C114.243 111.945 113.825 112.516 113.4 113.093L112.802 113.904L112.623 114.139L112.306 114.554C111.398 115.708 110.465 116.845 109.496 117.957C107.545 120.201 105.481 122.344 103.31 124.376C102.217 125.399 101.096 126.402 99.9463 127.385C99.4016 127.842 98.8568 128.294 98.3001 128.739L97.5097 129.341C96.9111 129.817 98.0127 128.956 97.402 129.42L96.8691 129.829C94.506 131.612 92.0626 133.276 89.5388 134.823C87.015 136.37 84.4189 137.793 81.7504 139.093C80.4021 139.751 79.0418 140.373 77.6634 140.97C77.166 141.194 77.6634 140.97 77.7593 140.934C77.5555 141.025 77.3457 141.109 77.16 141.194C76.9742 141.278 76.6086 141.423 76.3269 141.532C75.5657 141.846 74.7924 142.137 74.0252 142.433C68.4709 144.518 62.7367 146.089 56.8949 147.126C56.1932 147.254 55.4855 147.37 54.7837 147.48L53.7821 147.626C53.74 147.627 53.0023 147.737 53.5121 147.669C54.022 147.602 53.1042 147.718 53.0203 147.731C51.5686 147.915 50.1129 148.067 48.6531 148.187C45.7015 148.432 42.7434 148.536 39.779 148.501C36.7785 148.468 33.7777 148.291 30.8124 147.963C30.4763 147.928 30.1461 147.887 29.8099 147.846L29.2517 147.776C28.6994 147.706 29.2937 147.776 29.3837 147.776C28.5674 147.706 27.7448 147.546 26.9403 147.411C25.4995 147.181 24.0585 146.909 22.6355 146.602C19.8094 145.998 17.0189 145.254 14.264 144.371C13.8839 144.267 13.4871 144.239 13.0962 144.289C12.7053 144.338 12.328 144.464 11.9859 144.66C11.6438 144.855 11.3435 145.116 11.1022 145.428C10.861 145.739 10.6834 146.095 10.5797 146.475C10.3897 147.242 10.5031 148.053 10.8963 148.739C11.2895 149.425 11.9323 149.933 12.6907 150.158C24.7063 153.951 37.3647 155.279 49.9064 154.062C62.6422 152.864 75.0347 149.26 86.4256 143.44C97.6616 137.723 107.592 129.744 115.593 120.003C123.674 110.015 129.684 98.5194 133.274 86.1854C136.832 74.0181 138.009 61.2792 136.741 48.6664C136.113 42.2426 134.818 35.9016 132.875 29.7462C130.865 23.4356 128.248 17.1328 124.182 11.8539C120.116 6.57503 114.547 2.17634 107.798 0.906332C101.41 -0.274749 94.441 0.945285 89.7082 5.67395C80.4701 14.9087 84.8493 30.936 94.1181 38.3832C103.976 46.3085 118.46 47.6999 129.573 41.477C140.225 35.5134 146.266 22.5569 144.827 10.54C144.457 7.41418 143.621 4.36139 142.346 1.48342C141.706 0.045635 139.484 -0.391779 138.238 0.421658C136.741 1.38579 136.488 2.98815 137.17 4.52778Z" fill="#FFC38F"/>
<path d="M31.9016 133.018C22.1386 135.098 12.3715 137.174 2.60043 139.246C0.465514 139.702 -0.389479 142.823 1.29491 144.264L24.9792 164.71L31.6688 170.479C32.8719 171.502 34.7688 171.724 35.9113 170.467C36.9461 169.336 37.1683 167.32 35.8989 166.226C28.0061 159.407 20.1093 152.591 12.2086 145.78L5.52499 140.011L4.21347 145.03C13.9805 142.95 23.7476 140.874 33.5147 138.802C34.2778 138.584 34.9236 138.073 35.3107 137.38C35.6978 136.688 35.7947 135.87 35.5801 135.106C35.3514 134.35 34.8395 133.71 34.1509 133.321C33.4624 132.932 32.6503 132.823 31.8836 133.018L31.9016 133.018Z" fill="#FFC38F"/>
</g>
<defs>
<clipPath id="clip0_951_7457">
<rect width="171" height="145" fill="white" transform="translate(145) rotate(89.8329)"/>
</clipPath>
</defs>
</svg>
