<svg width="148" height="45" viewBox="0 0 148 45" fill="none" xmlns="http://www.w3.org/2000/svg">
<g clip-path="url(#clip0_329_933)">
<path d="M91.4418 35.0229C82.9115 41.2852 70.5474 44.6263 59.9022 44.6263C44.9758 44.6263 31.5382 39.1278 21.3721 29.9826C20.5734 29.2634 21.2891 28.2834 22.2475 28.8434C33.2187 35.2011 46.7841 39.0259 60.7967 39.0259C70.2471 39.0259 80.6432 37.0785 90.2022 33.0373C91.6463 32.4264 92.8539 33.9792 91.4418 35.0229Z" fill="#716E98"/>
<path d="M94.9882 30.9818C93.902 29.5944 87.7806 30.3263 85.033 30.6508C84.196 30.7527 84.0682 30.0272 84.8222 29.5053C89.6975 26.0878 97.6974 27.0742 98.6303 28.2198C99.5632 29.3717 98.3875 37.3586 93.8061 41.1707C93.1032 41.7562 92.4323 41.4443 92.7454 40.6679C93.7742 38.1096 96.0809 32.3755 94.9882 30.9818Z" fill="#716E98"/>
<path d="M85.2246 5.37903V2.05698C85.2246 1.55421 85.608 1.21692 86.068 1.21692H101.001C101.48 1.21692 101.863 1.56058 101.863 2.05698V4.90173C101.857 5.37903 101.454 6.00271 100.739 6.98914L93.0009 17.9927C95.8763 17.9227 98.9114 18.349 101.518 19.8128C102.106 20.1437 102.266 20.6274 102.311 21.1047V24.6495C102.311 25.1332 101.774 25.6996 101.212 25.4068C96.6175 23.0076 90.5153 22.7466 85.4354 25.4323C84.9179 25.7123 84.3748 25.1523 84.3748 24.6686V21.302C84.3748 20.761 84.3811 19.8382 84.9243 19.0173L93.889 6.21273H86.0872C85.608 6.21273 85.2246 5.87543 85.2246 5.37903Z" fill="#716E98"/>
<path d="M30.7523 26.1069H26.2092C25.7747 26.075 25.4297 25.7505 25.3977 25.3368V2.11426C25.3977 1.64968 25.7875 1.28056 26.2731 1.28056H30.5095C30.9504 1.29964 31.3018 1.63695 31.3338 2.05698V5.09265H31.4168C32.5222 2.15881 34.5989 0.790527 37.3976 0.790527C40.241 0.790527 42.0174 2.15881 43.2953 5.09265C44.3943 2.15881 46.8927 0.790527 49.57 0.790527C51.4742 0.790527 53.5572 1.57331 54.8288 3.3298C56.2664 5.28357 55.9725 8.12196 55.9725 10.6103L55.9661 25.2668C55.9661 25.7314 55.5764 26.1069 55.0907 26.1069H50.554C50.1004 26.075 49.7362 25.7123 49.7362 25.2668V12.9587C49.7362 11.9786 49.8256 9.53479 49.6084 8.60563C49.2697 7.04643 48.2537 6.6073 46.9375 6.6073C45.8384 6.6073 44.6883 7.33917 44.2218 8.51017C43.7554 9.68116 43.8001 11.6413 43.8001 12.9587V25.2668C43.8001 25.7314 43.4103 26.1069 42.9247 26.1069H38.388C37.9279 26.075 37.5701 25.7123 37.5701 25.2668L37.5637 12.9587C37.5637 10.3685 37.9918 6.55639 34.765 6.55639C31.4999 6.55639 31.6277 10.273 31.6277 12.9587V25.2668C31.6277 25.7314 31.2379 26.1069 30.7523 26.1069Z" fill="#716E98"/>
<path d="M114.72 0.790527C121.461 0.790527 125.109 6.55639 125.109 13.8878C125.109 20.971 121.077 26.5905 114.72 26.5905C108.1 26.5905 104.496 20.8247 104.496 13.6396C104.496 6.41002 108.145 0.790527 114.72 0.790527ZM114.758 5.53178C111.41 5.53178 111.199 10.0757 111.199 12.9078C111.199 15.7461 111.154 21.8047 114.72 21.8047C118.24 21.8047 118.407 16.9171 118.407 13.9387C118.407 11.9786 118.323 9.63661 117.729 7.7783C117.218 6.16182 116.202 5.53178 114.758 5.53178Z" fill="#716E98"/>
<path d="M133.85 26.1069H129.326C128.873 26.075 128.509 25.7123 128.509 25.2668L128.502 2.03789C128.541 1.61149 128.918 1.28056 129.378 1.28056H133.588C133.985 1.29964 134.31 1.56695 134.4 1.9297V5.48086H134.483C135.755 2.30518 137.537 0.790527 140.675 0.790527C142.713 0.790527 144.7 1.5224 145.978 3.52708C147.167 5.3854 147.167 8.51017 147.167 10.7567V25.375C147.115 25.7823 146.738 26.1069 146.291 26.1069H141.735C141.32 26.075 140.975 25.7696 140.93 25.375V12.7614C140.93 10.2221 141.224 6.50548 138.087 6.50548C136.981 6.50548 135.965 7.24371 135.461 8.36379C134.822 9.78299 134.739 11.1958 134.739 12.7614V25.2668C134.732 25.7314 134.336 26.1069 133.85 26.1069Z" fill="#716E98"/>
<path d="M73.3205 15.0142V14.0342C70.0362 14.0342 66.5666 14.7342 66.5666 18.5908C66.5666 20.5446 67.5826 21.8684 69.327 21.8684C70.6049 21.8684 71.7487 21.0856 72.4707 19.8128C73.3653 18.2472 73.3205 16.7771 73.3205 15.0142ZM77.902 26.0432C77.6017 26.3105 77.1672 26.3296 76.8285 26.1514C75.3205 24.904 75.0522 24.3249 74.2215 23.1348C71.7295 25.6677 69.9659 26.425 66.7327 26.425C62.9117 26.425 59.9341 24.0767 59.9341 19.3736C59.9341 15.7016 61.9341 13.2005 64.7775 11.9786C67.2439 10.8967 70.688 10.7057 73.3205 10.4066V9.82113C73.3205 8.7456 73.4036 7.47278 72.771 6.54363C72.2151 5.70993 71.1544 5.36627 70.2215 5.36627C68.4899 5.36627 66.9436 6.25088 66.5666 8.08374C66.4899 8.49104 66.1896 8.89198 65.7807 8.91107L61.3718 8.44012C61.0012 8.3574 60.5922 8.05828 60.6945 7.49188C61.7104 2.1715 66.5347 0.567749 70.8541 0.567749C73.065 0.567749 75.9531 1.15325 77.6975 2.82064C79.9083 4.87624 79.6975 7.61916 79.6975 10.6039V17.6553C79.6975 19.7746 80.5793 20.7037 81.4099 21.8493C81.7039 22.2566 81.7678 22.7466 81.3971 23.0521C80.4706 23.8221 78.8221 25.254 77.9147 26.0559L77.902 26.0432" fill="#716E98"/>
<path d="M13.7622 15.0144V14.0343C10.4779 14.0343 7.00826 14.7343 7.00826 18.591C7.00826 20.5447 8.02422 21.8685 9.76862 21.8685C11.0466 21.8685 12.1903 21.0857 12.9124 19.8129C13.8069 18.2473 13.7622 16.7772 13.7622 15.0144ZM18.3436 26.0433C18.0433 26.3106 17.6088 26.3297 17.2701 26.1515C15.7622 24.9041 15.4938 24.325 14.6631 23.1349C12.1712 25.6678 10.4076 26.4252 7.17439 26.4252C3.35334 26.4252 0.375732 24.0768 0.375732 19.3738C0.375732 15.7017 2.37571 13.2006 5.21914 11.9787C7.68557 10.8968 11.1296 10.7059 13.7622 10.4068V9.82126C13.7622 8.74572 13.8453 7.47291 13.2127 6.54375C12.6568 5.71005 11.5961 5.36639 10.6632 5.36639C8.93157 5.36639 7.38525 6.251 7.00826 8.08386C6.93158 8.49116 6.63127 8.8921 6.22233 8.91119L1.81342 8.44025C1.44281 8.35752 1.03387 8.0584 1.13611 7.492C2.15207 2.17163 6.97631 0.567871 11.2958 0.567871C13.5066 0.567871 16.3948 1.15337 18.1391 2.82076C20.35 4.87636 20.1391 7.61928 20.1391 10.604V17.6554C20.1391 19.7747 21.0209 20.7038 21.8516 21.8494C22.1455 22.2567 22.2094 22.7467 21.8388 23.0522C20.9123 23.8223 19.2637 25.2542 18.3564 26.056L18.3436 26.0433" fill="#716E98"/>
</g>
<defs>
<clipPath id="clip0_329_933">
<rect width="146.967" height="44.1801" fill="white" transform="translate(0.286865 0.508057)"/>
</clipPath>
</defs>
</svg>
