<svg width="148" height="41" viewBox="0 0 148 41" fill="none" xmlns="http://www.w3.org/2000/svg">
<g clip-path="url(#clip0_329_848)">
<path d="M20.972 37.525C18.7612 37.9128 16.5115 38.029 14.1843 38.3387L7.08596 17.573V39.2299C4.87515 39.4623 2.85823 39.7722 0.763672 40.0821V0.410156H6.65956L14.7272 22.9197V0.410156H20.972V37.525ZM33.1902 14.9385C35.5952 14.9385 39.28 14.8222 41.4908 14.8222V21.0208C38.7367 21.0208 35.5175 21.0208 33.1902 21.1371V30.3579C36.8364 30.1255 40.4824 29.8153 44.167 29.699V35.665L26.984 37.0212V0.410156H44.167V6.60891H33.1902V14.9385ZM67.2457 6.60905H60.807V35.1232C58.7124 35.1232 56.6179 35.1232 54.6012 35.2005V6.60905H48.1626V0.410156H67.246L67.2457 6.60905ZM77.3304 14.5124H85.8251V20.711H77.3304V34.7746H71.2403V0.410156H88.5789V6.60891H77.3304V14.5124ZM98.6637 29.3505C102.193 29.4278 105.762 29.6994 109.214 29.8928V36.0142C103.667 35.6653 98.1207 35.317 92.4578 35.2005V0.410156H98.6637V29.3505ZM114.45 36.4404C116.428 36.5568 118.523 36.673 120.54 36.9051V0.410156H114.45V36.4404ZM147.73 0.410156L139.856 19.2776L147.73 40.0821C145.403 39.7722 143.076 39.346 140.748 38.9585L136.288 27.4911L131.75 38.029C129.5 37.6412 127.328 37.525 125.079 37.215L133.069 19.045L125.854 0.410156H132.525L136.598 10.8318L140.942 0.410156H147.73V0.410156Z" fill="#716E98"/>
</g>
<defs>
<clipPath id="clip0_329_848">
<rect width="146.967" height="39.672" fill="white" transform="translate(0.763672 0.410156)"/>
</clipPath>
</defs>
</svg>
