<svg width="64" height="34" viewBox="0 0 64 34" fill="none" xmlns="http://www.w3.org/2000/svg">
<g clip-path="url(#clip0_298_754)">
<path d="M32.6948 17.9047C32.6071 17.893 32.5375 17.8758 32.4682 17.8756C31.7948 17.8736 31.1213 17.8736 30.4478 17.8756C30.2347 17.8756 30.2119 17.9005 30.2115 18.1228C30.2103 19.1327 30.2103 20.1425 30.2115 21.1523C30.2115 21.206 30.2141 21.2601 30.2115 21.3138C30.2034 21.4461 30.187 21.4691 30.0594 21.4698C29.4323 21.4726 28.8051 21.4726 28.1777 21.4698C28.0353 21.4698 28.022 21.451 28.0192 21.3025C28.0161 21.141 28.0192 20.9794 28.0192 20.8178V12.8C28.0192 12.7596 28.0192 12.7192 28.0192 12.6788C28.0192 12.6053 28.0565 12.5669 28.1278 12.5633C28.1674 12.5612 28.207 12.5606 28.2466 12.5606H29.9699C30.016 12.5606 30.0624 12.5618 30.1085 12.5645C30.1705 12.5679 30.2076 12.6012 30.2096 12.6654C30.2123 12.726 30.2127 12.7866 30.2127 12.8472C30.2127 13.783 30.2127 14.7187 30.2127 15.6545C30.2127 15.9526 30.2127 15.9536 30.5138 15.954C31.1476 15.954 31.7815 15.954 32.4153 15.954C32.4615 15.954 32.5076 15.9524 32.554 15.951C32.6491 15.9483 32.7011 15.9045 32.696 15.8013C32.6934 15.7476 32.696 15.6937 32.696 15.6397C32.696 14.7107 32.696 13.7817 32.696 12.8527C32.696 12.8256 32.696 12.7987 32.696 12.7719C32.6984 12.5683 32.7025 12.5626 32.9139 12.5614C33.1975 12.5596 33.4816 12.5614 33.7656 12.5602C34.0758 12.5602 34.386 12.5582 34.6966 12.5602C34.8748 12.5614 34.8871 12.574 34.8875 12.7567C34.8893 13.302 34.8875 13.8473 34.8875 14.3926C34.8875 16.6477 34.8875 18.903 34.8875 21.1583C34.8875 21.479 34.9073 21.4708 34.5882 21.4704C34.0273 21.4704 33.4661 21.4704 32.9046 21.4704C32.7006 21.4704 32.6964 21.4647 32.6962 21.2522C32.6962 20.2222 32.6962 19.1922 32.6962 18.1622L32.6948 17.9047Z" fill="#A19FBB"/>
<path d="M63.3677 21.4516C63.2847 21.459 63.2217 21.4697 63.1585 21.4699C62.5247 21.4711 61.8908 21.4711 61.257 21.4699C61.055 21.4699 61.051 21.4687 60.9924 21.2754C60.8537 20.8194 60.7214 20.362 60.5849 19.9055C60.5196 19.6864 60.5182 19.6846 60.3029 19.6834C59.5634 19.6822 58.8239 19.6822 58.0844 19.6834C57.8778 19.6834 57.8786 19.6864 57.8154 19.8946C57.6749 20.3571 57.534 20.8193 57.3925 21.2813C57.3353 21.4671 57.3331 21.4681 57.1473 21.4685C56.6258 21.47 56.1042 21.47 55.5825 21.4685C55.5316 21.4685 55.4807 21.4598 55.4009 21.4526C56.3269 18.4716 57.2473 15.5076 58.1704 12.536C58.2409 12.5317 58.2989 12.5253 58.357 12.5253C59.0568 12.5245 59.7567 12.5245 60.4566 12.5253C60.6707 12.5253 60.6744 12.5253 60.7339 12.7246C61.1537 14.1049 61.5727 15.4856 61.9911 16.8666C62.325 17.9645 62.6603 19.0618 62.9969 20.1586C63.1103 20.5307 63.2232 20.9032 63.3356 21.276C63.3492 21.334 63.3599 21.3925 63.3677 21.4516ZM59.2336 15.0058C59.1063 15.2017 58.4188 17.6694 58.4306 17.8433H60.0119C59.7659 16.8937 59.4969 15.974 59.2336 15.0058Z" fill="#A19FBB"/>
<path d="M46.9785 21.4529C47.1322 20.9555 47.2725 20.5011 47.4143 20.0466C47.8433 18.6631 48.2725 17.2794 48.7018 15.8955C49.0278 14.8453 49.354 13.7951 49.6803 12.7449C49.6943 12.7001 49.7001 12.6482 49.727 12.6131C49.7584 12.5753 49.7989 12.5466 49.8445 12.5298C49.8791 12.5165 49.9227 12.5266 49.9623 12.5266H52.0421C52.2459 12.5266 52.2485 12.5266 52.3054 12.7136C52.7156 14.0615 53.125 15.4096 53.5334 16.7579C53.8927 17.9388 54.2532 19.1193 54.6147 20.2993C54.7165 20.6329 54.8186 20.9658 54.9186 21.3008C54.9301 21.3507 54.9386 21.4013 54.9441 21.4523C54.8911 21.4611 54.8376 21.4671 54.7839 21.4703C54.1305 21.4713 53.4769 21.4713 52.8229 21.4703C52.6177 21.4703 52.6165 21.4683 52.5545 21.2574C52.422 20.8068 52.2919 20.3556 52.1584 19.9055C52.0928 19.6847 52.0907 19.6845 51.8763 19.6833C51.1369 19.6833 50.3974 19.6833 49.6579 19.6833C49.4489 19.6833 49.4485 19.6851 49.3863 19.8921C49.2512 20.3419 49.1177 20.7921 48.9813 21.2415C48.9121 21.4691 48.9098 21.4691 48.6824 21.4693C48.1938 21.4701 47.7052 21.4701 47.2166 21.4693C47.1489 21.4697 47.0795 21.4604 46.9785 21.4529ZM49.9742 17.8176C50.1741 17.8782 51.416 17.8725 51.56 17.819C51.543 17.5716 50.8608 15.1673 50.7546 15.0259C50.4811 15.9668 50.2208 16.89 49.974 17.8168L49.9742 17.8176Z" fill="#A19FBB"/>
<path d="M40.7231 17.0156C40.7231 15.6288 40.7231 14.2423 40.7231 12.8562C40.7231 12.5549 40.7245 12.5547 41.0152 12.5547C42.1509 12.5547 43.2861 12.5543 44.4209 12.5535C44.9108 12.5535 45.4022 12.5765 45.8633 12.7554C46.7881 13.1147 47.382 13.7844 47.5583 14.79C47.6928 15.5574 47.5713 16.2958 47.174 16.9657C46.7307 17.713 46.0606 18.1256 45.2103 18.1856C44.5731 18.2306 43.9319 18.2185 43.2925 18.2316C43.2331 18.2328 43.1737 18.2342 43.1142 18.2316C43.0168 18.229 42.9661 18.2742 42.9657 18.3752C42.9657 18.4223 42.9641 18.4693 42.9641 18.5166C42.9641 19.4117 42.9641 20.307 42.9641 21.2027C42.9641 21.2497 42.9629 21.297 42.9627 21.344C42.9627 21.426 42.9224 21.4682 42.8417 21.4705C42.8021 21.4717 42.7625 21.4731 42.7228 21.4731H40.9798C40.9402 21.4731 40.9005 21.4715 40.8609 21.4709C40.7742 21.4695 40.7248 21.4281 40.7235 21.3362C40.7235 21.2756 40.7217 21.215 40.7217 21.1544C40.7225 19.775 40.7229 18.3954 40.7231 17.0156ZM42.9326 16.4546C43.0207 16.4618 43.0978 16.4747 43.1747 16.4735C43.5767 16.4653 43.979 16.4596 44.3805 16.4408C45.1439 16.4049 45.4715 15.7743 45.3523 15.146C45.2632 14.6753 44.9338 14.4061 44.3992 14.36C43.9794 14.3241 43.5557 14.3338 43.1338 14.3265C43.0703 14.3265 43.0065 14.343 42.9326 14.3533V16.4546Z" fill="#A19FBB"/>
<path d="M23.5089 18.0292C22.9806 17.6903 22.4458 17.3447 21.8014 17.1773C21.8795 17.0642 21.9829 17.0529 22.0671 17.0125C22.4008 16.8522 22.7405 16.7021 23.0695 16.5341C23.5344 16.2976 23.6297 15.8434 23.4791 15.4017C23.3677 15.0669 23.143 14.7834 22.8453 14.6021C22.3535 14.2992 21.8214 14.1049 21.2441 14.0693C20.4876 14.0227 19.7294 13.9997 18.9737 13.9429C17.9936 13.8692 17.0145 13.7658 16.0832 13.4192C15.4723 13.1922 14.9001 12.884 14.4366 12.4046C14.3217 12.2843 14.2226 12.1494 14.1415 12.0033C13.9149 11.5981 13.7386 11.17 13.6633 10.7071C13.6039 10.3456 13.6465 9.98467 13.6841 9.62255C13.7546 8.94255 14.1042 8.44411 14.5988 8.00888C15.0793 7.58577 15.6266 7.34584 16.2428 7.23254C16.4742 7.18993 16.6966 7.09844 16.9276 7.05219C17.3507 6.96736 17.7793 6.93768 18.2048 7.03199C18.6861 7.13782 19.0797 7.40239 19.3948 7.78107C19.5561 7.97495 19.5335 8.10421 19.3376 8.25931C19.0924 8.454 18.7984 8.53761 18.5031 8.61072C18.3561 8.64708 18.206 8.66768 18.0552 8.68989C17.8905 8.71522 17.7221 8.68373 17.5769 8.60042C17.2875 8.43785 16.967 8.38635 16.6477 8.34434C16.4272 8.31505 16.2317 8.40937 16.0719 8.56306C15.6163 8.99869 15.3786 9.53833 15.3533 10.1723C15.342 10.4443 15.4111 10.7059 15.4973 10.9599C15.5527 11.1241 15.6738 11.2427 15.8106 11.341C16.469 11.8148 17.1936 12.1158 18 12.2028C18.4516 12.2515 18.9028 12.3056 19.355 12.3494C19.624 12.3755 19.8948 12.3803 20.1637 12.4056C20.531 12.4401 20.898 12.4793 21.2639 12.5268C21.7147 12.5855 22.1661 12.6502 22.5973 12.8053C23.1099 12.9897 23.6109 13.2068 24.0102 13.5949C24.5434 14.113 24.939 14.7138 24.9808 15.496C24.9944 15.7501 25.0182 16.0068 24.9988 16.2592C24.9718 16.6068 24.7738 16.8867 24.5777 17.1579C24.3552 17.4655 23.8816 17.8446 23.5089 18.0292ZM18.2931 7.63061C18.412 7.63364 18.5171 7.56901 18.5243 7.48923C18.5318 7.40401 18.4187 7.32867 18.2892 7.33291C18.1667 7.33675 18.0649 7.40542 18.0655 7.48358C18.0661 7.56174 18.1717 7.62758 18.2931 7.63061Z" fill="#A19FBB"/>
<path d="M20.7515 7.1633C20.459 7.02495 20.2857 6.79815 20.1375 6.54792C20.069 6.43139 20.0898 6.35121 20.2058 6.27325C20.3379 6.18459 20.479 6.11027 20.6141 6.02645C21.0421 5.76108 21.4919 5.52498 21.8913 5.22043C22.4171 4.81933 22.7679 4.27787 22.9014 3.60716C22.954 3.35748 22.9811 3.10294 22.9823 2.84758C22.9823 2.64683 23.0044 2.44588 23.0219 2.24554C23.0396 2.03544 23.1356 1.84027 23.2903 1.70024C23.5113 1.49262 23.7591 1.33671 24.0503 1.24542C24.716 1.03619 25.375 1.1089 26.0132 1.32722C26.6245 1.53625 27.2235 1.78829 27.8133 2.05428C28.4274 2.33157 29.0257 2.64683 29.6287 2.95038C29.7396 3.0096 29.8456 3.07789 29.9456 3.15456C30.1486 3.303 30.1173 3.56253 29.9353 3.69501C29.6412 3.90889 29.3286 4.03835 28.9679 4.05854C28.7049 4.07329 28.443 4.1161 28.1802 4.12438C27.9956 4.12733 27.8111 4.11287 27.6291 4.08116C27.2403 4.01835 26.8606 4.05612 26.505 4.21607C26.0049 4.44106 25.5095 4.67917 25.0258 4.93849C24.39 5.2794 23.7662 5.64374 23.1401 6.00323C22.7422 6.23165 22.3246 6.41382 21.898 6.57619C21.4987 6.72847 21.0966 6.87954 20.7515 7.1633Z" fill="#A19FBB"/>
<path d="M19.1697 7.16436C18.7934 6.84688 18.3398 6.69581 17.8951 6.52919C17.2345 6.28199 16.6379 5.91058 16.0298 5.55856C15.2441 5.10395 14.449 4.66589 13.6206 4.29489C13.1837 4.09899 12.7346 4.01093 12.2539 4.08344C11.7013 4.16665 11.1496 4.09656 10.6028 4.0071C10.3336 3.96287 10.1157 3.80251 9.91583 3.62599C9.77876 3.50482 9.79421 3.31861 9.94455 3.18511C10.0393 3.10152 10.1437 3.02997 10.2553 2.97204C10.7844 2.69798 11.3109 2.41746 11.8496 2.1642C12.3646 1.92184 12.8915 1.70777 13.4174 1.49126C13.9968 1.25335 14.5981 1.10208 15.227 1.13096C15.6814 1.15116 16.1142 1.26345 16.4771 1.56882C16.6678 1.72917 16.8495 1.89963 16.8869 2.16501C16.915 2.36394 16.941 2.5663 16.9364 2.76645C16.9281 3.15707 16.9848 3.54631 17.104 3.91763C17.2823 4.4809 17.622 4.93329 18.093 5.26794C18.4658 5.53271 18.8655 5.75689 19.2555 5.99702C19.4021 6.0877 19.5548 6.16828 19.7 6.26119C19.8339 6.34662 19.8499 6.4274 19.7758 6.56615C19.6526 6.79901 19.4284 7.02379 19.1697 7.16436Z" fill="#A19FBB"/>
<path d="M36.623 21.4541V12.5384C36.7003 12.5335 36.7643 12.5262 36.8283 12.5262C37.4093 12.5254 37.9903 12.5254 38.5713 12.5262C38.809 12.5262 38.8104 12.5262 38.8104 12.773V20.2226C38.8104 20.5659 38.8118 20.9093 38.8104 21.2526C38.8104 21.459 38.8003 21.4695 38.5977 21.4701C38.0034 21.472 37.4092 21.472 36.815 21.4701C36.7579 21.4699 36.6985 21.4606 36.623 21.4541Z" fill="#A19FBB"/>
<path d="M15.7739 13.7363L17.6952 14.2948C17.5675 14.3553 17.425 14.42 17.2838 14.4886C17.0097 14.6219 16.7993 14.8293 16.6195 15.0769C16.2053 15.6467 16.479 16.3327 16.8986 16.5971C17.1 16.7239 17.3072 16.8526 17.5284 16.9328C17.8996 17.0671 18.2811 17.1723 18.6644 17.2709C18.8286 17.3131 19.0041 17.3137 19.1748 17.3232C19.7542 17.3557 20.337 17.3553 20.9126 17.4201C21.8338 17.5239 22.6974 17.78 23.3227 18.558C23.6117 18.9172 23.7607 19.3341 23.8702 19.774C23.9918 20.2625 23.9281 20.7331 23.748 21.194C23.6809 21.3656 23.5896 21.5171 23.4384 21.628C23.2144 21.7922 22.9947 21.9622 22.7709 22.1315C22.3748 21.8643 22.044 21.5213 21.5417 21.4135C21.7443 21.3327 21.9095 21.2677 22.0735 21.2C22.7501 20.9207 22.8533 20.1644 22.5093 19.6154C22.2242 19.1612 21.8047 18.9086 21.2887 18.7965C20.9102 18.7147 20.5293 18.7013 20.1476 18.7157C19.445 18.7417 18.7498 18.6692 18.0626 18.542C17.6435 18.4642 17.2321 18.3299 16.8263 18.193C16.0274 17.9228 15.4219 17.409 15.0487 16.6329C14.9893 16.5095 14.9439 16.364 14.9443 16.2289C14.9443 15.8737 14.9443 15.5134 15.0008 15.1644C15.0925 14.5949 15.4274 14.1487 15.7739 13.7363Z" fill="#A19FBB"/>
<path d="M11.6129 4.48788C11.2057 4.64117 10.802 4.80537 10.3904 4.94512C9.47726 5.25514 8.56235 5.5603 7.64367 5.85294C7.10213 6.02542 6.54257 6.12155 5.97984 6.19789C5.53575 6.25848 5.09384 6.3429 4.64797 6.37824C3.90559 6.43701 3.16241 6.48508 2.41784 6.3639C2.03912 6.3023 1.66376 6.23364 1.30861 6.08116C0.918603 5.91292 0.641099 5.61665 0.390137 5.23958C0.54424 5.21535 0.66467 5.19253 0.786288 5.17799C1.26405 5.12063 1.7426 5.07034 2.21976 5.00894C3.01722 4.90655 3.8115 4.78457 4.59826 4.61169C5.37749 4.44042 6.15989 4.28471 6.9413 4.12496C7.43391 4.02398 7.91187 3.87332 8.38725 3.71154C8.64297 3.6245 8.90799 3.56674 9.16747 3.49181C9.26651 3.46333 9.3291 3.48313 9.37169 3.58572C9.58303 4.09547 10.0184 4.28814 10.5045 4.3964C10.6921 4.43506 10.8822 4.45963 11.0734 4.46991C11.2487 4.48183 11.4255 4.47233 11.6016 4.47233L11.6129 4.48788Z" fill="#A19FBB"/>
<path d="M28.3238 4.44531C28.3502 4.44295 28.3767 4.44295 28.4031 4.44531C28.7337 4.5059 29.0617 4.45541 29.3847 4.39866C29.766 4.33161 30.1271 4.20094 30.3795 3.87356C30.4438 3.78995 30.4914 3.69281 30.5431 3.5997C30.6136 3.47226 30.6237 3.46095 30.761 3.49872C31.0664 3.58153 31.375 3.65746 31.6739 3.75925C32.3004 3.97212 32.9416 4.1244 33.5877 4.25527C34.3887 4.41684 35.1864 4.5986 35.9904 4.7426C36.6836 4.86701 37.3836 4.95628 38.0818 5.05281C38.5374 5.11583 38.997 5.16389 39.4543 5.21984C39.4654 5.22105 39.4741 5.23418 39.506 5.2572C39.4505 5.34202 39.4024 5.43634 39.3359 5.51409C39.0801 5.81239 38.7832 6.04869 38.4011 6.1638C38.0143 6.28013 37.6233 6.36981 37.2208 6.39485C36.8791 6.41626 36.5363 6.43807 36.1942 6.43201C35.5747 6.42072 34.9569 6.36348 34.3455 6.26075C33.7998 6.16986 33.2496 6.09433 32.7134 5.96144C32.1061 5.81078 31.5077 5.6181 30.9137 5.41816C30.1257 5.15258 29.3457 4.86277 28.5627 4.58164C28.4775 4.55114 28.3961 4.50994 28.3127 4.47379L28.3238 4.44531Z" fill="#A19FBB"/>
<path d="M21.9503 12.2C22.3798 12.1537 22.8003 12.0432 23.1982 11.872C23.5574 11.718 23.896 11.5185 24.2062 11.2781C24.3187 11.1902 24.4063 11.0828 24.4512 10.9438C24.6889 10.2103 24.5976 9.52504 24.1541 8.89492C24.076 8.78659 23.989 8.68524 23.8941 8.59198C23.6938 8.39001 23.4514 8.30055 23.1713 8.35467C22.8866 8.40981 22.6012 8.46333 22.3427 8.61136C22.208 8.68622 22.0532 8.71457 21.9014 8.69215C21.5272 8.64449 21.159 8.56875 20.8193 8.39304C20.7189 8.34305 20.6249 8.2805 20.5396 8.20684C20.4273 8.10585 20.4133 7.99356 20.4899 7.86209C20.5395 7.77484 20.6012 7.69538 20.6731 7.6262C21.2383 7.09948 21.8915 6.86844 22.6575 7.02455C23.077 7.10998 23.5015 7.17542 23.9156 7.28246C24.2074 7.35779 24.4879 7.4826 24.7686 7.59711C24.8717 7.64232 24.9678 7.70297 25.0534 7.77706C25.2317 7.9255 25.4028 8.08445 25.5761 8.23996C25.9608 8.5845 26.1644 9.02761 26.2391 9.53534C26.2664 9.72094 26.2733 9.90937 26.2904 10.0966C26.3401 10.6419 26.1927 11.1444 25.9853 11.6404C25.7476 12.2101 25.3515 12.6245 24.8381 12.9329C24.6961 13.0182 24.5489 13.0945 24.4063 13.1789C24.3296 13.2244 24.2662 13.2213 24.1884 13.1704C23.6239 12.799 22.997 12.5694 22.3677 12.3456C22.2389 12.2994 22.1082 12.2547 21.9503 12.2ZM21.5542 7.63205C21.672 7.63205 21.7822 7.55874 21.782 7.48159C21.7818 7.40444 21.6655 7.33113 21.5522 7.33295C21.4242 7.33517 21.3284 7.4 21.3296 7.48381C21.3308 7.56763 21.4292 7.63246 21.5536 7.63205H21.5542Z" fill="#A19FBB"/>
<path d="M21.7945 25.8979C21.5073 25.6234 21.1533 25.4851 20.7672 25.4C21.0206 25.2627 21.2599 25.1407 21.4916 25.0054C21.7408 24.86 21.9197 24.6514 21.9997 24.3626C22.0421 24.2097 22.0541 24.0562 22.008 23.9049C21.9571 23.7385 21.9062 23.5703 21.8337 23.4129C21.7309 23.1841 21.5525 22.9994 21.3298 22.8909C20.8504 22.6542 20.3531 22.5399 19.8159 22.6194C19.6152 22.6489 19.4075 22.6358 19.2032 22.6293C18.4838 22.6065 17.7846 22.4781 17.1456 22.1273C16.753 21.912 16.4171 21.6224 16.2014 21.2055C16.0877 20.9864 16.0324 20.7612 16.0103 20.5148C15.9524 19.8774 16.1453 19.3071 16.432 18.7589C16.5797 18.4762 16.6938 18.4427 16.9771 18.5695C17.3449 18.7343 17.7169 18.8888 18.1556 18.9615C18.0893 19.0136 18.0506 19.0548 18.0035 19.0791C17.5905 19.2909 17.3772 19.6387 17.3255 20.1C17.3187 20.1606 17.2991 20.2181 17.2932 20.2781C17.2579 20.6334 17.3865 20.9042 17.6866 21.0969C17.9867 21.2895 18.3204 21.3949 18.6686 21.4479C18.9745 21.4945 19.2827 21.5305 19.5911 21.5531C19.8597 21.5733 20.1308 21.5575 20.3994 21.5763C20.7286 21.5991 21.0545 21.6529 21.3637 21.7783C21.6521 21.8947 21.9254 22.047 22.1774 22.2317C22.3571 22.3589 22.5029 22.5297 22.6016 22.7287C22.6838 22.8971 22.7821 23.0575 22.8639 23.2261C23.0909 23.6941 23.0853 24.1671 22.8985 24.65C22.6848 25.2017 22.292 25.5818 21.7945 25.8979Z" fill="#A19FBB"/>
<path d="M25.7881 5.02558C26.0035 4.8177 26.2551 4.65263 26.5299 4.53886C26.8468 4.40637 27.1758 4.42778 27.505 4.44313C27.5444 4.44605 27.5827 4.45733 27.6175 4.47625C28.599 4.99105 29.6254 5.39356 30.6712 5.74719C31.2401 5.93946 31.8027 6.15374 32.3789 6.31955C32.9929 6.49606 33.6216 6.61421 34.2542 6.71236C34.8431 6.80345 35.4318 6.8497 36.0264 6.83031C36.0725 6.83036 36.1184 6.83557 36.1633 6.84586C36.1869 6.85071 36.2083 6.86606 36.2705 6.89696C36.1338 6.96704 36.0274 7.02621 35.9175 7.07751C35.555 7.24615 35.1705 7.33683 34.7799 7.40388C33.9629 7.54384 33.1417 7.56363 32.3171 7.49496C31.1326 7.396 30.001 7.08236 28.8888 6.6641C27.9756 6.32076 27.1106 5.8825 26.2625 5.40365C26.1981 5.36966 26.1366 5.33021 26.0787 5.28571C25.9866 5.21058 25.9006 5.12717 25.7881 5.02558Z" fill="#A19FBB"/>
<path d="M3.65137 6.86801C3.76645 6.85185 3.84152 6.8361 3.91699 6.83206C4.01602 6.8266 4.11506 6.82681 4.2141 6.83084C4.62957 6.84627 5.04546 6.81566 5.45445 6.73956C6.03838 6.63474 6.62746 6.55052 7.20207 6.40673C7.77016 6.26535 8.32695 6.07066 8.88156 5.8786C9.51817 5.65826 10.1492 5.42176 10.7783 5.1786C11.1107 5.04995 11.4336 4.89464 11.7584 4.746C11.9385 4.6636 12.1132 4.56908 12.2912 4.48183C12.3259 4.46263 12.3636 4.44978 12.4026 4.44386C12.872 4.40064 13.3262 4.43801 13.734 4.71308C13.8699 4.80477 14.0161 4.88434 14.1177 5.0346C13.9937 5.17582 13.8475 5.29505 13.6851 5.38743C12.9843 5.77701 12.2889 6.1777 11.5389 6.4659C10.6817 6.7955 9.82341 7.11945 8.92018 7.30444C8.00837 7.49473 7.0767 7.56726 6.14712 7.52034C5.58023 7.49005 5.01631 7.41936 4.472 7.24567C4.2343 7.16994 4.00612 7.06027 3.77497 6.96293C3.74129 6.94919 3.71535 6.9185 3.65137 6.86801Z" fill="#A19FBB"/>
<path d="M16.2183 6.1078C15.8998 6.28431 15.6094 6.45457 15.3109 6.60887C14.4461 7.05621 13.5714 7.48195 12.6742 7.85961C12.0352 8.12883 11.3811 8.3007 10.6871 8.35119C9.91892 8.40753 9.17356 8.33826 8.44326 8.0949C8.28876 8.0434 8.13327 7.98806 7.97461 7.85032C8.16496 7.8174 8.32342 7.78974 8.48208 7.76247C10.0162 7.50255 11.478 7.02228 12.853 6.27543C13.1264 6.12699 13.4076 5.99268 13.6836 5.85131C13.9442 5.71842 14.1958 5.57159 14.4067 5.36256C14.5256 5.24421 14.6424 5.22119 14.8142 5.28501C15.1936 5.42237 15.554 5.60933 15.8864 5.84121C15.9937 5.91594 16.092 6.0052 16.2183 6.1078Z" fill="#A19FBB"/>
<path d="M23.7129 6.09926C24.0838 5.77131 24.5096 5.51409 24.9699 5.33989C25.0255 5.31868 25.0858 5.30717 25.1371 5.27829C25.2646 5.20639 25.373 5.22437 25.4758 5.32777C25.7927 5.64546 26.1888 5.83267 26.5788 6.02959C27.0863 6.28729 27.5944 6.54499 28.112 6.78028C29.0243 7.19511 29.9814 7.46937 30.9585 7.67275C31.2736 7.73838 31.5923 7.78827 31.9233 7.84805C31.8837 7.93651 31.8045 7.95711 31.7367 7.98942C31.4309 8.13907 31.1029 8.21905 30.7731 8.28146C30.126 8.40263 29.4775 8.3786 28.824 8.31094C28.1821 8.2443 27.5979 8.00699 27.0152 7.75797C25.9319 7.29743 24.8759 6.77258 23.8527 6.18611C23.8131 6.1643 23.7749 6.13966 23.7129 6.09926Z" fill="#A19FBB"/>
<path d="M19.9227 3.3739C19.0947 3.42823 18.2786 2.67956 18.262 1.7364C18.2459 0.807783 18.9568 0.0138731 19.8981 -6.22269e-05C20.8978 -0.0146034 21.5691 0.845146 21.5803 1.66996C21.5938 2.63311 20.7678 3.42924 19.9227 3.3739Z" fill="#A19FBB"/>
<path d="M18.4721 22.8982C18.3533 23.0721 18.2321 23.2306 18.1295 23.4005C17.83 23.8963 17.8773 24.5749 18.3658 24.9394C18.5392 25.0725 18.7264 25.1858 18.9242 25.2771C19.2518 25.4221 19.6063 25.4742 19.9577 25.5346C20.321 25.597 20.6862 25.6594 21.0402 25.76C21.4364 25.8729 21.7388 26.1437 21.947 26.4986C22.0339 26.647 22.0682 26.8403 22.0841 27.0172C22.133 27.5661 22.0246 28.1013 21.9102 28.6343C21.7844 29.2248 21.6588 29.8156 21.5283 30.4053C21.4356 30.8232 21.2821 31.2132 21.003 31.5432C20.8296 31.7475 20.6512 31.8152 20.3976 31.7633C20.4602 31.7201 20.5109 31.6825 20.5646 31.6486C20.7415 31.5389 20.8538 31.379 20.9263 31.1841C21.0481 30.8551 21.1147 30.5125 21.1585 30.1662C21.2296 29.6068 21.2922 29.0461 21.3528 28.4855C21.3831 28.2051 21.4201 27.9234 21.4187 27.6425C21.4187 27.4169 21.3791 27.1879 21.3288 26.9669C21.284 26.7692 21.1527 26.6254 20.9653 26.5408C20.6732 26.4089 20.3673 26.3388 20.0492 26.3103C19.7151 26.2792 19.3793 26.2479 19.0495 26.1875C18.5332 26.0952 18.0491 25.8679 17.6446 25.5279C17.0444 25.0251 16.7675 24.1142 16.9993 23.4366C17.0753 23.2145 17.1532 22.9923 17.2457 22.7774C17.3382 22.5625 17.4223 22.546 17.6392 22.6249C17.9053 22.7223 18.1772 22.8025 18.4721 22.8982Z" fill="#A19FBB"/>
<path d="M40.9445 23.907C40.914 23.9938 40.8829 24.0803 40.8532 24.1675C40.453 25.3419 40.053 26.5163 39.653 27.6909C39.6356 27.7418 39.6122 27.7919 39.5993 27.8428C39.5736 27.9476 39.5054 27.9753 39.4078 27.9759C39.3101 27.9765 39.2529 27.942 39.219 27.8406C38.9986 27.1786 38.7728 26.5183 38.5481 25.8579C38.3407 25.2487 38.1327 24.6396 37.9242 24.0306C37.9097 23.9884 37.887 23.9498 37.8594 23.8902C37.7911 23.967 37.8149 24.0431 37.8147 24.1096C37.8127 25.3079 37.812 26.5058 37.8127 27.7033V27.9438C37.7513 27.9575 37.7136 27.9708 37.6766 27.9733C37.472 27.9858 37.4492 27.9648 37.4492 27.7548C37.4492 26.3141 37.4492 24.8739 37.4492 23.4342C37.4492 23.2361 37.456 23.229 37.6491 23.2274C38.0331 23.2239 37.9605 23.2072 38.065 23.5138C38.4707 24.7006 38.8767 25.8873 39.283 27.0737C39.3084 27.1477 39.3424 27.2185 39.3727 27.2906L39.4169 27.2961C39.4452 27.2341 39.4791 27.1749 39.5013 27.1101C39.6753 26.6026 39.8482 26.0946 40.0198 25.5861C40.2635 24.8683 40.5072 24.1507 40.7509 23.4332C40.7723 23.3702 40.8019 23.31 40.8316 23.2385H41.3592C41.3681 23.2983 41.3741 23.3585 41.3771 23.4188C41.3781 24.873 41.3781 26.3265 41.3771 27.7796C41.3771 27.9541 41.2234 28.0421 41.07 27.9561C41.0425 27.9404 41.0225 27.8955 41.0164 27.8596C41.0073 27.8073 41.0132 27.7523 41.0132 27.698C41.0132 26.4997 41.0128 25.3018 41.012 24.1043V23.9145L40.9445 23.907Z" fill="#A19FBB"/>
<path d="M59.3503 27.9697C59.2186 27.9697 59.1001 27.9827 58.9867 27.9641C58.9346 27.9554 58.8785 27.893 58.848 27.8407C58.5679 27.3689 58.2924 26.8943 58.0161 26.4201C57.7772 26.0093 57.5387 25.5986 57.3006 25.1881C57.0971 24.8372 56.8935 24.4866 56.6896 24.1361C56.6534 24.0715 56.6061 24.0141 56.5499 23.9667C56.4949 24.41 56.5176 24.8488 56.5133 25.2867C56.5089 25.7245 56.5133 26.1618 56.5133 26.5994V27.9447C56.4507 27.9566 56.4016 27.9728 56.352 27.9744C56.1692 27.9808 56.1502 27.9621 56.15 27.7704C56.1492 26.3233 56.1492 24.8759 56.15 23.4282C56.15 23.2366 56.1601 23.2388 56.3558 23.2251C56.5329 23.2123 56.6373 23.2707 56.7322 23.4367C57.4205 24.6394 58.1217 25.8342 58.8195 27.0316C58.8581 27.0981 58.9025 27.1609 58.9441 27.2253L58.9928 27.2134C58.996 27.1375 59.0019 27.0615 59.0019 26.9858C59.0019 25.8279 59.0019 24.67 59.0019 23.512C59.0019 23.2063 59.0302 23.1843 59.3515 23.2576L59.3503 27.9697Z" fill="#A19FBB"/>
<path d="M32.4471 25.5894C32.4236 25.0896 32.5022 24.6014 32.7268 24.1476C33.0006 23.594 33.4187 23.2042 34.0359 23.1188C35.1728 22.9615 35.9275 23.5058 36.2399 24.5325C36.4807 25.3238 36.471 26.128 36.1519 26.9016C35.9036 27.5038 35.4826 27.9316 34.8331 28.0685C33.9541 28.2545 33.1891 27.9259 32.7534 27.0969C32.5079 26.6281 32.4249 26.1222 32.4471 25.5894ZM36.0192 25.6058C36.0192 25.4846 36.0273 25.3634 36.0178 25.2422C35.9869 24.8553 35.8865 24.4905 35.6882 24.1541C35.1206 23.1913 33.7075 23.1263 33.1194 24.1799C32.9288 24.5212 32.8367 24.8886 32.8025 25.2727C32.7504 25.8449 32.8062 26.4065 33.0655 26.9242C33.3347 27.4612 33.7635 27.7805 34.3728 27.787C35.0463 27.794 35.5179 27.4402 35.811 26.8046C35.984 26.4271 36.0291 26.0192 36.0192 25.6058Z" fill="#A19FBB"/>
<path d="M31.5767 24.5619H31.2621C31.2471 24.5251 31.2338 24.4875 31.2225 24.4494C31.0838 23.8839 30.7237 23.5553 30.1695 23.4648C29.6444 23.3792 29.1542 23.4672 28.7646 23.878C28.513 24.143 28.3855 24.4732 28.311 24.8272C28.1913 25.3885 28.2059 25.971 28.3536 26.5253C28.491 27.0476 28.7626 27.4707 29.2831 27.6785C29.8366 27.8995 30.5706 27.7795 30.945 27.3322C31.09 27.1572 31.1918 26.9495 31.2421 26.7263C31.3089 26.4451 31.3104 26.4455 31.6079 26.4807C31.6147 26.5071 31.6325 26.5391 31.6289 26.5683C31.5194 27.4386 30.9872 27.994 30.1703 28.0994C29.7795 28.1499 29.4053 28.1196 29.0466 27.9621C28.4688 27.7064 28.1501 27.2205 27.9901 26.6271C27.8108 25.9606 27.8023 25.2841 27.9798 24.6138C28.1442 23.9929 28.4682 23.4779 29.0803 23.2493C29.7641 22.994 30.4445 23.0207 31.0547 23.4838C31.3716 23.7241 31.5362 24.0644 31.5895 24.4615C31.5927 24.4851 31.5834 24.512 31.5767 24.5619Z" fill="#A19FBB"/>
<path d="M55.262 27.9622C55.1815 27.9683 55.1298 27.9753 55.0783 27.9751C54.912 27.9751 54.8953 27.9628 54.8371 27.7974C54.7058 27.4242 54.577 27.0502 54.4445 26.6771C54.3869 26.5146 54.3839 26.5125 54.2193 26.5123C53.6251 26.511 53.0312 26.511 52.4378 26.5123C52.272 26.5123 52.2696 26.5146 52.2106 26.6739C52.0834 27.0201 51.958 27.3668 51.8343 27.714C51.7315 28.002 51.714 28.0127 51.384 27.9483C51.4133 27.859 51.4395 27.7708 51.4708 27.6843C51.9874 26.2601 52.5042 24.8361 53.0211 23.4124C53.0859 23.2337 53.0926 23.2282 53.2753 23.2246C53.3081 23.2246 53.3412 23.2246 53.3743 23.2246C53.5526 23.2282 53.5581 23.2317 53.6187 23.3971C53.7772 23.8317 53.9356 24.2665 54.0941 24.7014C54.4661 25.7285 54.8376 26.756 55.2087 27.7837C55.2253 27.8338 55.2384 27.8847 55.262 27.9622ZM54.2223 26.1371C54.1601 25.8113 53.4179 23.8059 53.3006 23.6576C53.2719 23.7172 53.243 23.7657 53.2242 23.8178C52.9655 24.5355 52.708 25.2537 52.4517 25.9723C52.433 26.0242 52.4348 26.0836 52.4277 26.1363C52.5862 26.1795 53.7098 26.2021 54.0834 26.173C54.1262 26.1696 54.1688 26.1516 54.2223 26.1371Z" fill="#A19FBB"/>
<path d="M42.6389 23.2422C42.7296 23.235 42.7815 23.2271 42.8336 23.2269C43.3617 23.2269 43.8902 23.2184 44.4182 23.2325C44.6026 23.2394 44.7848 23.2752 44.9584 23.3388C45.353 23.4801 45.5881 23.7813 45.6437 24.2012C45.676 24.4277 45.6755 24.6578 45.6423 24.8842C45.5726 25.3202 45.3011 25.6001 44.8966 25.7474C44.6452 25.8389 44.3844 25.873 44.1187 25.8742C43.8349 25.8742 43.5511 25.8742 43.267 25.8764C43.1896 25.8764 43.1121 25.8873 43.0077 25.8952C43.006 26.1343 43.0036 26.3597 43.0026 26.5861C43.0026 26.8083 43.0026 27.0304 43.0026 27.2526V27.9336C42.9588 27.9506 42.9354 27.9659 42.9111 27.9683C42.6587 27.9948 42.6391 27.9762 42.6391 27.7195V23.242L42.6389 23.2422ZM43.0168 23.5525V25.5151C43.0716 25.5244 43.1268 25.5308 43.1822 25.5341C43.5322 25.5341 43.882 25.5389 44.232 25.5295C44.3703 25.5241 44.5075 25.5032 44.6413 25.4672C45.0267 25.3683 45.2628 25.1239 45.2989 24.7101C45.3112 24.5636 45.3083 24.4161 45.2904 24.2702C45.2484 23.9269 45.0489 23.7047 44.7278 23.6151C44.5498 23.5666 44.3669 23.539 44.1827 23.5329C43.8731 23.5199 43.5625 23.5286 43.2518 23.531C43.1809 23.5308 43.1097 23.5434 43.017 23.5525H43.0168Z" fill="#A19FBB"/>
<path d="M19.3621 10.2539C19.3621 9.92447 19.3492 9.59447 19.3673 9.26608C19.3774 9.08149 19.4322 8.8981 19.4786 8.71715C19.5697 8.36129 19.5253 8.40168 19.8819 8.39966C20.2701 8.39744 20.2669 8.39966 20.379 8.77875C20.4457 9.00394 20.4768 9.23853 20.4711 9.47369C20.4608 9.96426 20.4652 10.4552 20.4579 10.9458C20.4537 11.2211 20.4399 11.4963 20.4266 11.7714C20.4198 11.9128 20.4002 11.9342 20.2602 11.9376C20.0423 11.9427 19.8244 11.9419 19.6065 11.9392C19.4283 11.9372 19.416 11.9239 19.411 11.7441C19.3968 11.2476 19.3836 10.7509 19.3714 10.2541L19.3621 10.2539Z" fill="#A19FBB"/>
<path d="M19.3753 31.7425C19.2327 31.7997 19.1178 31.7728 19.0101 31.6989C18.8469 31.5874 18.7377 31.4275 18.6365 31.2605C18.4499 30.9523 18.3562 30.6091 18.2812 30.2603C18.1342 29.5779 17.9888 28.8949 17.8493 28.2106C17.7715 27.8269 17.7305 27.4398 17.7503 27.0477C17.7557 26.886 17.7923 26.7269 17.8581 26.5796C17.9238 26.4323 18.0174 26.2996 18.1334 26.1892L18.8211 26.5435C18.7694 26.5921 18.7211 26.6323 18.6787 26.6782C18.5266 26.8432 18.4608 27.05 18.4497 27.2669C18.434 27.5488 18.436 27.8314 18.4557 28.1131C18.4923 28.5883 18.5464 29.0623 18.6024 29.5357C18.6609 30.0291 18.7104 30.5241 18.8528 31.0032C18.9354 31.2811 19.0465 31.5337 19.3179 31.6743C19.3383 31.6834 19.3494 31.71 19.3753 31.7425Z" fill="#A19FBB"/>
<path d="M20.1307 26.6651C20.1397 26.7424 20.149 26.782 20.1482 26.8216C20.1385 27.3594 20.126 27.8975 20.1173 28.4355C20.1105 28.8596 20.1095 29.2837 20.1034 29.7078C20.0911 30.5485 20.0779 31.3893 20.0638 32.2301C20.0622 32.3435 20.0835 32.456 20.1262 32.5607C20.2648 32.915 20.2627 33.2676 20.0767 33.6109C20.0541 33.6588 20.0358 33.7086 20.0218 33.7598C19.997 33.8441 19.9632 33.9254 19.921 34.0021C19.8505 33.7345 19.6797 33.5136 19.6504 33.2347C19.6239 32.981 19.6419 32.7411 19.7425 32.5054C19.7724 32.4349 19.7778 32.3491 19.7768 32.2705C19.7659 31.4296 19.7506 30.5888 19.7386 29.7478C19.7314 29.2631 19.73 28.7784 19.7223 28.2937C19.7148 27.8229 19.7005 27.3524 19.6928 26.8816C19.6894 26.672 19.6962 26.6691 19.9039 26.6677C19.9741 26.6645 20.0448 26.6651 20.1307 26.6651Z" fill="#A19FBB"/>
<path d="M63.3911 23.5141C62.9241 23.5565 62.463 23.4991 61.9795 23.5515V23.8037C61.9795 25.0155 61.9795 26.2272 61.9795 27.439C61.9795 27.5467 61.9795 27.6543 61.9795 27.7621C61.9775 27.9566 61.8662 28.0352 61.6873 27.9625C61.6708 27.9538 61.6563 27.9417 61.6448 27.9268C61.6333 27.912 61.625 27.8948 61.6205 27.8765C61.6093 27.8181 61.6152 27.7553 61.6152 27.6947V23.5636C61.3716 23.5002 61.1398 23.5371 60.9128 23.5306C60.6858 23.5242 60.4533 23.5294 60.2073 23.5294V23.2063H63.3911V23.5141Z" fill="#A19FBB"/>
<path d="M46.7707 23.2388H47.1046C47.1399 23.4516 47.1179 23.6586 47.1217 23.8636C47.1256 24.0723 47.1227 24.2807 47.1227 24.4897V27.6201C47.3924 27.651 47.6476 27.6322 47.9013 27.6355C48.1651 27.6387 48.429 27.6355 48.6936 27.6355H49.4814V27.9586C49.4085 27.9647 49.3383 27.9754 49.2684 27.9754C48.5097 27.9762 47.751 27.9762 46.9923 27.9754C46.9527 27.9754 46.9131 27.9744 46.8735 27.9729C46.8034 27.9703 46.763 27.9354 46.7608 27.8615C46.7596 27.8211 46.7608 27.7807 46.7608 27.7403C46.7608 26.3074 46.7608 24.8745 46.7608 23.4413C46.7596 23.3818 46.7659 23.3228 46.7707 23.2388Z" fill="#A19FBB"/>
<path d="M19.4981 16.937C19.5144 16.0461 19.4344 15.1914 19.4672 14.3196H20.3699C20.4158 15.184 20.3178 16.0439 20.3461 16.9273C20.0613 16.958 19.7966 16.9473 19.4981 16.937Z" fill="#A19FBB"/>
<path d="M19.6175 4.14027C19.5111 4.14027 19.4273 4.14289 19.3439 4.14027C19.1837 4.13421 19.1082 4.05948 19.1062 3.90842C19.1043 3.76159 19.1815 3.67919 19.3423 3.67778C19.731 3.67427 20.1197 3.67488 20.5084 3.67959C20.6629 3.68141 20.7318 3.75432 20.7372 3.8961C20.7427 4.04878 20.6726 4.12391 20.5104 4.13683C20.4205 4.1441 20.3305 4.14976 20.2388 4.15703C20.2388 4.39635 20.2317 4.61609 20.2406 4.83522C20.2527 5.12301 20.2777 5.4106 20.2967 5.6982C20.302 5.7804 20.266 5.82543 20.1824 5.82543C20.0239 5.82543 19.8655 5.82846 19.7082 5.82543C19.5509 5.8224 19.5347 5.79514 19.546 5.62852C19.5724 5.24722 19.5959 4.86564 19.6167 4.4838C19.6224 4.38262 19.6175 4.28164 19.6175 4.14027Z" fill="#A19FBB"/>
<path d="M50.6216 27.9492C50.6001 27.9581 50.5778 27.9648 50.5551 27.9694C50.3011 27.9932 50.2839 27.9775 50.2839 27.7192C50.2839 26.299 50.2839 24.8785 50.2839 23.4578C50.2839 23.4309 50.2855 23.4039 50.2839 23.377C50.2773 23.2775 50.3174 23.2237 50.42 23.2262C50.4847 23.2276 50.5497 23.2262 50.6085 23.2262C50.6565 23.3835 50.666 27.7252 50.6216 27.9492Z" fill="#A19FBB"/>
<path d="M19.5758 21.2172C19.5758 21.0128 19.5788 20.8457 19.5758 20.6789C19.5655 20.2021 19.5524 19.7253 19.5411 19.2484C19.5399 19.1947 19.5322 19.1378 19.5473 19.0883C19.5582 19.0517 19.5998 18.9994 19.6297 18.998C19.8206 18.9895 20.0117 18.9913 20.2029 18.9936C20.2797 18.9936 20.3001 19.0503 20.2998 19.1182C20.2998 19.2999 20.3009 19.4817 20.297 19.6635C20.2877 20.0934 20.2754 20.5234 20.2645 20.9532C20.2631 21.0069 20.2645 21.0608 20.2611 21.1148C20.2578 21.1768 20.2273 21.2171 20.1621 21.2176C19.9795 21.218 19.7964 21.2172 19.5758 21.2172Z" fill="#A19FBB"/>
<path d="M19.6607 25.1644C19.6435 24.4079 19.6269 23.6699 19.6096 22.9043C19.8008 22.9043 19.963 22.9005 20.1246 22.9043C20.1858 22.9043 20.2197 22.9447 20.2211 23.0095C20.2211 23.0432 20.2227 23.077 20.2221 23.1105C20.2089 23.763 20.1957 24.4155 20.1825 25.0681C20.1797 25.0988 20.175 25.1292 20.1684 25.1592C20.0091 25.2058 19.8497 25.1953 19.6607 25.1644Z" fill="#A19FBB"/>
</g>
<defs>
<clipPath id="clip0_298_754">
<rect width="63" height="34" fill="white" transform="translate(0.391113)"/>
</clipPath>
</defs>
</svg>
