<svg width="86" height="27" viewBox="0 0 86 27" fill="none" xmlns="http://www.w3.org/2000/svg">
<path d="M7.42993 0.877776C7.42993 0.533556 7.68751 0.275391 8.03095 0.275391C8.37438 0.275391 8.63196 0.533556 8.63196 0.877776C8.63196 1.222 8.37438 1.48016 8.03095 1.48016C7.68751 1.48016 7.42993 1.222 7.42993 0.877776Z" fill="#A19FBB"/>
<path d="M5.54199 0.877911C5.54199 0.705801 5.71371 0.533691 5.88543 0.533691C6.05715 0.533691 6.22886 0.705801 6.22886 0.877911C6.22886 1.05002 6.05715 1.22213 5.88543 1.22213C5.71371 1.22213 5.54199 1.05002 5.54199 0.877911Z" fill="#A19FBB"/>
<path d="M11.8103 0.877776C11.8103 0.533556 12.0679 0.275391 12.4113 0.275391C12.7548 0.275391 13.0123 0.533556 13.0123 0.877776C13.0123 1.222 12.7548 1.48016 12.4113 1.48016C12.0679 1.48016 11.8103 1.222 11.8103 0.877776Z" fill="#A19FBB"/>
<path d="M9.40601 0.877884C9.40601 0.447609 9.74944 0.017334 10.2646 0.017334C10.6939 0.017334 11.1232 0.361554 11.1232 0.877884C11.1232 1.30816 10.7798 1.73843 10.2646 1.73843C9.74944 1.73843 9.40601 1.30816 9.40601 0.877884Z" fill="#A19FBB"/>
<path d="M3.13745 3.02939C3.13745 2.68517 3.39503 2.427 3.73846 2.427C4.0819 2.427 4.33948 2.68517 4.33948 3.02939C4.33948 3.37361 4.0819 3.63177 3.73846 3.63177C3.39503 3.63177 3.13745 3.37361 3.13745 3.02939Z" fill="#A19FBB"/>
<path d="M11.8103 3.02939C11.8103 2.68517 12.0679 2.427 12.4113 2.427C12.7548 2.427 13.0123 2.68517 13.0123 3.02939C13.0123 3.37361 12.7548 3.63177 12.4113 3.63177C12.0679 3.63177 11.8103 3.37361 11.8103 3.02939Z" fill="#A19FBB"/>
<path d="M14.2131 3.02928C14.2131 2.85717 14.3849 2.68506 14.5566 2.68506C14.7283 2.68506 14.9 2.85717 14.9 3.02928C14.9 3.20139 14.7283 3.3735 14.5566 3.3735C14.3849 3.3735 14.2131 3.20139 14.2131 3.02928Z" fill="#A19FBB"/>
<path d="M9.57812 3.02939C9.57812 2.68517 9.8357 2.427 10.1791 2.427C10.5226 2.427 10.7802 2.68517 10.7802 3.02939C10.7802 3.37361 10.5226 3.63177 10.1791 3.63177C9.8357 3.63177 9.57812 3.37361 9.57812 3.02939Z" fill="#A19FBB"/>
<path d="M7.42993 3.02939C7.42993 2.68517 7.68751 2.427 8.03095 2.427C8.37438 2.427 8.63196 2.68517 8.63196 3.02939C8.63196 3.37361 8.37438 3.63177 8.03095 3.63177C7.68751 3.63177 7.42993 3.37361 7.42993 3.02939Z" fill="#A19FBB"/>
<path d="M5.02686 3.02925C5.02686 2.59898 5.37029 2.1687 5.88545 2.1687C6.31474 2.1687 6.74404 2.51292 6.74404 3.02925C6.74404 3.45953 6.4006 3.8898 5.88545 3.8898C5.45615 3.8898 5.02686 3.54558 5.02686 3.02925Z" fill="#A19FBB"/>
<path d="M5.28442 11.6349C5.28442 11.2906 5.542 11.0325 5.88544 11.0325C6.22887 11.0325 6.48645 11.2906 6.48645 11.6349C6.48645 11.9791 6.22887 12.2372 5.88544 12.2372C5.542 12.2372 5.28442 11.9791 5.28442 11.6349Z" fill="#A19FBB"/>
<path d="M11.9812 11.6345C11.9812 11.4624 12.1529 11.2903 12.3246 11.2903C12.4964 11.2903 12.6681 11.4624 12.6681 11.6345C12.6681 11.8066 12.4964 11.9787 12.3246 11.9787C12.1529 11.9787 11.9812 11.8927 11.9812 11.6345Z" fill="#A19FBB"/>
<path d="M13.9556 11.6349C13.9556 11.2906 14.2131 11.0325 14.5566 11.0325C14.9 11.0325 15.1576 11.2906 15.1576 11.6349C15.1576 11.9791 14.9 12.2372 14.5566 12.2372C14.2131 12.2372 13.9556 11.9791 13.9556 11.6349Z" fill="#A19FBB"/>
<path d="M3.13745 11.6349C3.13745 11.2906 3.39503 11.0325 3.73846 11.0325C4.0819 11.0325 4.33948 11.2906 4.33948 11.6349C4.33948 11.9791 4.0819 12.2372 3.73846 12.2372C3.39503 12.2372 3.13745 11.9791 3.13745 11.6349Z" fill="#A19FBB"/>
<path d="M16.1011 11.6349C16.1011 11.2906 16.3587 11.0325 16.7021 11.0325C17.0455 11.0325 17.3031 11.2906 17.3031 11.6349C17.3031 11.9791 17.0455 12.2372 16.7021 12.2372C16.3587 12.2372 16.1011 11.9791 16.1011 11.6349Z" fill="#A19FBB"/>
<path d="M0.991943 11.6349C0.991943 11.2906 1.24952 11.0325 1.59296 11.0325C1.93639 11.0325 2.19397 11.2906 2.19397 11.6349C2.19397 11.9791 1.93639 12.2372 1.59296 12.2372C1.24952 12.2372 0.991943 11.9791 0.991943 11.6349Z" fill="#A19FBB"/>
<path d="M7.42993 11.6349C7.42993 11.2906 7.68751 11.0325 8.03095 11.0325C8.37438 11.0325 8.63196 11.2906 8.63196 11.6349C8.63196 11.9791 8.37438 12.2372 8.03095 12.2372C7.68751 12.2372 7.42993 11.9791 7.42993 11.6349Z" fill="#A19FBB"/>
<path d="M9.57812 11.6349C9.57812 11.2906 9.8357 11.0325 10.1791 11.0325C10.5226 11.0325 10.7802 11.2906 10.7802 11.6349C10.7802 11.9791 10.5226 12.2372 10.1791 12.2372C9.8357 12.2372 9.57812 11.9791 9.57812 11.6349Z" fill="#A19FBB"/>
<path d="M7.68701 13.7861C7.68701 13.614 7.85873 13.4419 8.03045 13.4419C8.20217 13.4419 8.37388 13.614 8.37388 13.7861C8.37388 13.9582 8.20217 14.1303 8.03045 14.1303C7.85873 14.2164 7.68701 14.0443 7.68701 13.7861Z" fill="#A19FBB"/>
<path d="M9.57812 13.786C9.57812 13.4418 9.8357 13.1836 10.1791 13.1836C10.5226 13.1836 10.7802 13.5278 10.7802 13.786C10.7802 14.1302 10.5226 14.3884 10.1791 14.3884C9.8357 14.3884 9.57812 14.1302 9.57812 13.786Z" fill="#A19FBB"/>
<path d="M5.02686 13.7861C5.02686 13.3558 5.37029 12.9255 5.88545 12.9255C6.31474 12.9255 6.74404 13.2698 6.74404 13.7861C6.74404 14.2164 6.4006 14.6466 5.88545 14.6466C5.45615 14.6466 5.02686 14.3024 5.02686 13.7861Z" fill="#A19FBB"/>
<path d="M11.8103 13.786C11.8103 13.4418 12.0679 13.1836 12.4113 13.1836C12.7548 13.1836 13.0123 13.4418 13.0123 13.786C13.0123 14.1302 12.7548 14.3884 12.4113 14.3884C12.0679 14.3884 11.8103 14.1302 11.8103 13.786Z" fill="#A19FBB"/>
<path d="M13.9556 13.786C13.9556 13.4418 14.2131 13.1836 14.5566 13.1836C14.9 13.1836 15.1576 13.4418 15.1576 13.786C15.1576 14.1302 14.9 14.3884 14.5566 14.3884C14.2131 14.3884 13.9556 14.1302 13.9556 13.786Z" fill="#A19FBB"/>
<path d="M3.13745 13.786C3.13745 13.4418 3.39503 13.1836 3.73846 13.1836C4.0819 13.1836 4.33948 13.4418 4.33948 13.786C4.33948 14.1302 4.0819 14.3884 3.73846 14.3884C3.39503 14.3884 3.13745 14.1302 3.13745 13.786Z" fill="#A19FBB"/>
<path d="M3.13745 5.18075C3.13745 4.83653 3.39503 4.57837 3.73846 4.57837C4.0819 4.57837 4.33948 4.83653 4.33948 5.18075C4.33948 5.52497 4.0819 5.78314 3.73846 5.78314C3.39503 5.78314 3.13745 5.52497 3.13745 5.18075Z" fill="#A19FBB"/>
<path d="M7.42993 5.18075C7.42993 4.83653 7.68751 4.57837 8.03095 4.57837C8.37438 4.57837 8.63196 4.83653 8.63196 5.18075C8.63196 5.52497 8.37438 5.78314 8.03095 5.78314C7.68751 5.78314 7.42993 5.52497 7.42993 5.18075Z" fill="#A19FBB"/>
<path d="M5.28442 5.18075C5.28442 4.83653 5.542 4.57837 5.88544 4.57837C6.22887 4.57837 6.48645 4.83653 6.48645 5.18075C6.48645 5.52497 6.22887 5.78314 5.88544 5.78314C5.542 5.78314 5.28442 5.52497 5.28442 5.18075Z" fill="#A19FBB"/>
<path d="M11.8103 5.18075C11.8103 4.83653 12.0679 4.57837 12.4113 4.57837C12.7548 4.57837 13.0123 4.83653 13.0123 5.18075C13.0123 5.52497 12.7548 5.78314 12.4113 5.78314C12.0679 5.78314 11.8103 5.52497 11.8103 5.18075Z" fill="#A19FBB"/>
<path d="M16.1011 5.18075C16.1011 4.83653 16.3587 4.57837 16.7021 4.57837C17.0455 4.57837 17.3031 4.83653 17.3031 5.18075C17.3031 5.52497 17.0455 5.78314 16.7021 5.78314C16.3587 5.78314 16.1011 5.52497 16.1011 5.18075Z" fill="#A19FBB"/>
<path d="M0.991943 5.18075C0.991943 4.83653 1.24952 4.57837 1.59296 4.57837C1.85053 4.57837 2.19397 4.83653 2.19397 5.18075C2.19397 5.52497 1.93639 5.78314 1.59296 5.78314C1.24952 5.78314 0.991943 5.52497 0.991943 5.18075Z" fill="#A19FBB"/>
<path d="M9.83569 5.18065C9.83569 5.00854 10.0074 4.83643 10.1791 4.83643C10.3508 4.83643 10.5226 5.00854 10.5226 5.18065C10.5226 5.35276 10.3508 5.52487 10.1791 5.52487C10.0074 5.52487 9.83569 5.35276 9.83569 5.18065Z" fill="#A19FBB"/>
<path d="M13.9556 5.18075C13.9556 4.83653 14.2131 4.57837 14.5566 4.57837C14.9 4.57837 15.1576 4.83653 15.1576 5.18075C15.1576 5.52497 14.9 5.78314 14.5566 5.78314C14.2131 5.78314 13.9556 5.52497 13.9556 5.18075Z" fill="#A19FBB"/>
<path d="M1.16455 7.33201C1.16455 7.1599 1.33627 6.98779 1.50799 6.98779C1.67971 6.98779 1.85142 7.1599 1.85142 7.33201C1.85142 7.50412 1.67971 7.67623 1.50799 7.67623C1.33627 7.67623 1.16455 7.50412 1.16455 7.33201Z" fill="#A19FBB"/>
<path d="M5.54199 7.33201C5.54199 7.1599 5.71371 6.98779 5.88543 6.98779C6.05715 6.98779 6.22886 7.1599 6.22886 7.33201C6.22886 7.50412 6.05715 7.67623 5.88543 7.67623C5.71371 7.67623 5.54199 7.50412 5.54199 7.33201Z" fill="#A19FBB"/>
<path d="M9.57812 7.33188C9.57812 6.98766 9.8357 6.72949 10.1791 6.72949C10.5226 6.72949 10.7802 6.98766 10.7802 7.33188C10.7802 7.6761 10.5226 7.93426 10.1791 7.93426C9.8357 7.93426 9.57812 7.6761 9.57812 7.33188Z" fill="#A19FBB"/>
<path d="M13.9556 7.33188C13.9556 6.98766 14.2131 6.72949 14.5566 6.72949C14.9 6.72949 15.1576 6.98766 15.1576 7.33188C15.1576 7.6761 14.9 7.93426 14.5566 7.93426C14.2131 7.93426 13.9556 7.6761 13.9556 7.33188Z" fill="#A19FBB"/>
<path d="M11.8103 7.33188C11.8103 6.98766 12.0679 6.72949 12.4113 6.72949C12.7548 6.72949 13.0123 6.98766 13.0123 7.33188C13.0123 7.6761 12.7548 7.93426 12.4113 7.93426C12.0679 7.93426 11.8103 7.6761 11.8103 7.33188Z" fill="#A19FBB"/>
<path d="M3.13745 7.33188C3.13745 6.98766 3.39503 6.72949 3.73846 6.72949C4.0819 6.72949 4.33948 6.98766 4.33948 7.33188C4.33948 7.6761 4.0819 7.93426 3.73846 7.93426C3.39503 7.93426 3.13745 7.6761 3.13745 7.33188Z" fill="#A19FBB"/>
<path d="M7.17261 7.33223C7.17261 6.90195 7.51604 6.47168 8.0312 6.47168C8.46049 6.47168 8.88979 6.8159 8.88979 7.33223C8.88979 7.7625 8.54635 8.19278 8.0312 8.19278C7.6019 8.19278 7.17261 7.7625 7.17261 7.33223Z" fill="#A19FBB"/>
<path d="M15.844 7.33223C15.844 6.90195 16.1874 6.47168 16.7026 6.47168C17.1319 6.47168 17.5612 6.8159 17.5612 7.33223C17.5612 7.7625 17.2177 8.19278 16.7026 8.19278C16.2733 8.19278 15.844 7.7625 15.844 7.33223Z" fill="#A19FBB"/>
<path d="M3.13745 9.48349C3.13745 9.13927 3.39503 8.8811 3.73846 8.8811C4.0819 8.8811 4.33948 9.13927 4.33948 9.48349C4.33948 9.82771 4.0819 10.0859 3.73846 10.0859C3.39503 10.0859 3.13745 9.82771 3.13745 9.48349Z" fill="#A19FBB"/>
<path d="M7.42993 9.48349C7.42993 9.13927 7.68751 8.8811 8.03095 8.8811C8.37438 8.8811 8.63196 9.13927 8.63196 9.48349C8.63196 9.82771 8.37438 10.0859 8.03095 10.0859C7.68751 10.0859 7.42993 9.82771 7.42993 9.48349Z" fill="#A19FBB"/>
<path d="M11.8103 9.48349C11.8103 9.13927 12.0679 8.8811 12.4113 8.8811C12.7548 8.8811 13.0123 9.13927 13.0123 9.48349C13.0123 9.82771 12.7548 10.0859 12.4113 10.0859C12.0679 10.0859 11.8103 9.82771 11.8103 9.48349Z" fill="#A19FBB"/>
<path d="M16.1011 9.48349C16.1011 9.13927 16.3587 8.8811 16.7021 8.8811C17.0455 8.8811 17.3031 9.13927 17.3031 9.48349C17.3031 9.82771 17.0455 10.0859 16.7021 10.0859C16.3587 10.0859 16.1011 9.82771 16.1011 9.48349Z" fill="#A19FBB"/>
<path d="M9.40601 9.48335C9.40601 9.05308 9.74944 8.6228 10.2646 8.6228C10.6939 8.6228 11.1232 8.96702 11.1232 9.48335C11.1232 9.91363 10.7798 10.3439 10.2646 10.3439C9.74944 10.3439 9.40601 9.91363 9.40601 9.48335Z" fill="#A19FBB"/>
<path d="M0.734375 9.48335C0.734375 9.05308 1.07781 8.6228 1.59297 8.6228C2.10812 8.6228 2.45156 8.96702 2.45156 9.48335C2.45156 9.91363 2.10812 10.3439 1.59297 10.3439C1.07781 10.3439 0.734375 9.91363 0.734375 9.48335Z" fill="#A19FBB"/>
<path d="M5.28442 9.48349C5.28442 9.13927 5.542 8.8811 5.88544 8.8811C6.22887 8.8811 6.48645 9.13927 6.48645 9.48349C6.48645 9.82771 6.22887 10.0859 5.88544 10.0859C5.542 10.0859 5.28442 9.82771 5.28442 9.48349Z" fill="#A19FBB"/>
<path d="M13.9556 9.48349C13.9556 9.13927 14.2131 8.8811 14.5566 8.8811C14.9 8.8811 15.1576 9.13927 15.1576 9.48349C15.1576 9.82771 14.9 10.0859 14.5566 10.0859C14.2131 10.0859 13.9556 9.82771 13.9556 9.48349Z" fill="#A19FBB"/>
<path d="M5.28442 16.0235C5.28442 15.6793 5.542 15.4211 5.88544 15.4211C6.22887 15.4211 6.48645 15.6793 6.48645 16.0235C6.48645 16.3677 6.22887 16.6259 5.88544 16.6259C5.542 16.6259 5.28442 16.2817 5.28442 16.0235Z" fill="#A19FBB"/>
<path d="M9.83569 16.0234C9.83569 15.8513 10.0074 15.6792 10.1791 15.6792C10.3508 15.6792 10.5226 15.8513 10.5226 16.0234C10.5226 16.1955 10.3508 16.3676 10.1791 16.3676C10.0074 16.3676 9.83569 16.1955 9.83569 16.0234Z" fill="#A19FBB"/>
<path d="M7.17261 16.0236C7.17261 15.5934 7.51604 15.1631 8.0312 15.1631C8.46049 15.1631 8.88979 15.5073 8.88979 16.0236C8.88979 16.4539 8.54635 16.8842 8.0312 16.8842C7.6019 16.7981 7.17261 16.4539 7.17261 16.0236Z" fill="#A19FBB"/>
<path d="M11.8103 16.0235C11.8103 15.6793 12.0679 15.4211 12.4113 15.4211C12.7548 15.4211 13.0123 15.6793 13.0123 16.0235C13.0123 16.3677 12.7548 16.6259 12.4113 16.6259C12.0679 16.6259 11.8103 16.2817 11.8103 16.0235Z" fill="#A19FBB"/>
<path d="M29.7543 0.705566C31.9008 0.705566 33.5321 1.48006 34.9917 2.68483C35.1635 2.85694 35.1635 3.11511 34.9917 3.28722L34.3907 3.8896C34.219 4.14777 34.0473 4.06171 33.7897 3.8896C32.6735 2.943 31.1281 2.25456 29.6685 2.25456C26.2341 2.25456 23.6583 5.18043 23.6583 8.53657C23.6583 11.8927 26.2341 14.7325 29.6685 14.7325C31.5574 14.7325 32.6735 13.958 33.7897 13.0975C34.0473 12.9254 34.219 12.9254 34.3049 13.0114L34.9917 13.6138C35.1635 13.7859 35.1635 14.0441 34.9917 14.2162C33.5321 15.6791 31.6432 16.2815 29.7543 16.2815C25.4614 16.2815 21.9412 12.8393 21.9412 8.53657C21.9412 4.23382 25.3755 0.705566 29.7543 0.705566Z" fill="#A19FBB"/>
<path d="M36.28 15.5931L42.8912 0.963731C42.977 0.791621 43.0629 0.705566 43.2346 0.705566H43.4063C43.578 0.705566 43.7498 0.791621 43.7498 0.963731L50.275 15.5931C50.4468 15.8512 50.275 16.1955 49.9316 16.1955H49.073C48.9013 16.1955 48.7296 16.0234 48.7296 15.9373L47.0983 12.323H39.3709L37.8255 15.9373C37.7396 16.0234 37.6538 16.1955 37.482 16.1955H36.6234C36.28 16.1094 36.1083 15.8512 36.28 15.5931ZM46.5831 10.9461C45.4669 8.62263 44.4366 6.21309 43.4063 3.8896H43.2346L40.0578 11.0322H46.5831V10.9461Z" fill="#A19FBB"/>
<path d="M52.6777 1.39414C52.6777 1.13598 52.8494 0.963867 53.1069 0.963867H57.9151C60.5767 0.963867 62.7232 3.11524 62.7232 5.78295C62.7232 8.45065 60.5767 10.6881 57.9151 10.6881H54.309V15.7653C54.309 16.0235 54.1373 16.1956 53.8797 16.1956H53.0211C52.7635 16.1956 52.5918 16.0235 52.5918 15.7653V1.39414H52.6777ZM57.7433 9.05304C59.5464 9.05304 61.006 7.5901 61.006 5.69689C61.006 3.97579 59.4605 2.59891 57.7433 2.59891H54.309V9.05304H57.7433Z" fill="#A19FBB"/>
<path d="M0.819327 25.834L3.91025 18.9496C3.91025 18.8635 3.99611 18.8635 4.08197 18.8635H4.16783C4.25369 18.8635 4.33955 18.9496 4.33955 18.9496L7.43048 25.834C7.51633 26.0061 7.43048 26.0921 7.25876 26.0921H6.82946C6.7436 26.0921 6.65774 26.0061 6.65774 26.0061L5.88501 24.371H2.27893L1.5062 26.0061C1.5062 26.0921 1.42034 26.0921 1.33448 26.0921H0.991046C0.819327 26.0921 0.733468 25.92 0.819327 25.834ZM5.62743 23.6826C5.11228 22.5639 4.68299 21.4452 4.16783 20.3265H4.08197L2.62237 23.6826H5.62743Z" fill="#A19FBB"/>
<path d="M11.6386 18.8635C12.6689 18.8635 13.4417 19.2077 14.1285 19.8101C14.2144 19.8962 14.2144 19.9822 14.1285 20.0683L13.871 20.3265C13.7851 20.4125 13.6992 20.4125 13.6134 20.3265C13.0982 19.8962 12.3255 19.552 11.6386 19.552C10.0073 19.552 8.80527 20.9288 8.80527 22.4778C8.80527 24.0268 10.0073 25.4037 11.6386 25.4037C12.4972 25.4037 13.0124 25.0595 13.6134 24.6292C13.6992 24.5432 13.7851 24.5432 13.871 24.6292L14.2144 24.8874C14.3003 24.9734 14.3003 25.0595 14.2144 25.1455C13.5275 25.834 12.6689 26.0921 11.7245 26.0921C9.66386 26.0921 8.03254 24.4571 8.03254 22.4778C7.94668 20.4986 9.578 18.8635 11.6386 18.8635Z" fill="#A19FBB"/>
<path d="M18.7646 18.8635C19.7949 18.8635 20.5676 19.2077 21.2545 19.8101C21.3404 19.8962 21.3404 19.9822 21.2545 20.0683L20.9969 20.3265C20.9111 20.4125 20.8252 20.4125 20.7394 20.3265C20.2242 19.8962 19.4515 19.552 18.7646 19.552C17.1333 19.552 15.9312 20.9288 15.9312 22.4778C15.9312 24.0268 17.1333 25.4037 18.7646 25.4037C19.6232 25.4037 20.1383 25.0595 20.7394 24.6292C20.8252 24.5432 20.9111 24.5432 20.9969 24.6292L21.3404 24.8874C21.4262 24.9734 21.4262 25.0595 21.3404 25.1455C20.6535 25.834 19.7949 26.0921 18.8505 26.0921C16.7898 26.0921 15.1585 24.4571 15.1585 22.4778C15.0727 20.4986 16.704 18.8635 18.7646 18.8635Z" fill="#A19FBB"/>
<path d="M22.7998 19.2075C22.7998 19.1215 22.8857 19.0354 22.9715 19.0354H25.6332C26.8352 19.0354 27.8655 19.982 27.8655 21.1868C27.8655 22.1334 27.2645 22.9079 26.4059 23.2521L27.7796 25.8337C27.8655 26.0059 27.7796 26.0919 27.6079 26.0919H27.0928C27.0069 26.0919 26.921 26.0059 26.921 26.0059L25.5473 23.3382H23.5725V25.9198C23.5725 26.0059 23.4867 26.0919 23.4008 26.0919H22.9715C22.8857 26.0919 22.7998 26.0059 22.7998 25.9198V19.2075ZM25.5473 22.6497C26.32 22.6497 27.0069 21.9613 27.0069 21.1868C27.0069 20.4123 26.32 19.7238 25.5473 19.7238H23.5725V22.6497H25.5473Z" fill="#A19FBB"/>
<path d="M29.4968 19.2075C29.4968 19.1215 29.5827 19.0354 29.6685 19.0354H33.7039C33.7898 19.0354 33.8756 19.1215 33.8756 19.2075V19.4657C33.8756 19.5517 33.7898 19.6378 33.7039 19.6378H30.2696V22.1334H33.1888C33.2746 22.1334 33.3605 22.2194 33.3605 22.3055V22.5637C33.3605 22.6497 33.2746 22.7358 33.1888 22.7358H30.2696V25.3174H33.7039C33.7898 25.3174 33.8756 25.4035 33.8756 25.4895V25.7477C33.8756 25.8337 33.7898 25.9198 33.7039 25.9198H29.6685C29.5827 25.9198 29.4968 25.8337 29.4968 25.7477V19.2075Z" fill="#A19FBB"/>
<path d="M35.5063 19.2075C35.5063 19.1215 35.5922 19.0354 35.6781 19.0354H37.9104C39.8852 19.0354 41.4306 20.6704 41.4306 22.5637C41.4306 24.5429 39.7993 26.0919 37.9104 26.0919H35.6781C35.5922 26.0919 35.5063 26.0059 35.5063 25.9198V19.2075ZM37.8245 25.4035C39.4559 25.4035 40.6579 24.1987 40.6579 22.5637C40.6579 20.9286 39.4559 19.7238 37.8245 19.7238H36.2791V25.4895H37.8245V25.4035Z" fill="#A19FBB"/>
<path d="M43.062 19.2075C43.062 19.1215 43.1479 19.0354 43.2337 19.0354H43.663C43.7489 19.0354 43.8347 19.1215 43.8347 19.2075V25.9198C43.8347 26.0059 43.7489 26.0919 43.663 26.0919H43.2337C43.1479 26.0919 43.062 26.0059 43.062 25.9198V19.2075Z" fill="#A19FBB"/>
<path d="M46.9262 19.6378H45.1231C45.0373 19.6378 44.9514 19.5517 44.9514 19.4657V19.2075C44.9514 19.1215 45.0373 19.0354 45.1231 19.0354H49.4161C49.5019 19.0354 49.5878 19.1215 49.5878 19.2075V19.4657C49.5878 19.5517 49.5019 19.6378 49.4161 19.6378H47.6989V25.9198C47.6989 26.0059 47.613 26.0919 47.5272 26.0919H47.1838C47.0979 26.0919 47.012 26.0059 47.012 25.9198V19.6378H46.9262Z" fill="#A19FBB"/>
<path d="M50.7883 19.2075C50.7883 19.1215 50.8742 19.0354 50.96 19.0354H54.9954C55.0813 19.0354 55.1671 19.1215 55.1671 19.2075V19.4657C55.1671 19.5517 55.0813 19.6378 54.9954 19.6378H51.5611V22.1334H54.4803C54.5661 22.1334 54.652 22.2194 54.652 22.3055V22.5637C54.652 22.6497 54.5661 22.7358 54.4803 22.7358H51.5611V25.3174H54.9954C55.0813 25.3174 55.1671 25.4035 55.1671 25.4895V25.7477C55.1671 25.8337 55.0813 25.9198 54.9954 25.9198H50.96C50.8742 25.9198 50.7883 25.8337 50.7883 25.7477V19.2075Z" fill="#A19FBB"/>
<path d="M56.7993 19.2075C56.7993 19.1215 56.8852 19.0354 56.971 19.0354H59.2034C61.1781 19.0354 62.7236 20.6704 62.7236 22.5637C62.7236 24.5429 61.0923 26.0919 59.2034 26.0919H56.971C56.8852 26.0919 56.7993 26.0059 56.7993 25.9198V19.2075ZM59.1175 25.4035C60.7488 25.4035 61.9509 24.1987 61.9509 22.5637C61.9509 20.9286 60.7488 19.7238 59.1175 19.7238H57.572V25.4895H59.1175V25.4035Z" fill="#A19FBB"/>
<path d="M85.3912 9.91382L69.9365 26.5224L62.4668 17.8309L70.7093 22.3918L85.3912 9.91382Z" fill="#A19FBB"/>
</svg>
