<svg width="148" height="40" viewBox="0 0 148 40" fill="none" xmlns="http://www.w3.org/2000/svg">
<path d="M41.1531 14.6999C36.0425 9.86163 29.6961 9.61028 25.549 10.1339C26.1275 8.32104 26.9073 6.5787 27.8739 4.93953L28.4813 4.01795C28.5023 3.95511 28.4604 3.89228 28.3975 3.91322L22.9309 6.25907L21.2553 0.457283C21.2134 0.394447 21.1086 0.394447 21.0877 0.457283L19.3911 6.25907L13.9245 3.91322C13.8616 3.87133 13.8198 3.95511 13.8407 3.997L14.4481 4.93953C15.4166 6.58054 16.2032 8.3223 16.794 10.1339C12.6259 9.61028 6.27952 9.86163 1.16892 14.6999L0.959473 14.9094L1.08514 15.1817C2.18202 17.0539 3.72098 18.6288 5.56739 19.7687C4.9012 20.4679 4.29841 21.2249 3.76611 22.0307L3.49383 22.4287L3.93368 22.6172C5.70764 23.3236 7.59581 23.6999 9.50507 23.7273C12.0185 23.7273 14.867 22.9732 16.8358 20.1457C18.8047 17.3181 18.6581 14.0506 17.9459 11.1393C18.9345 11.3148 19.9079 11.5669 20.8573 11.8933H21.4647C22.4142 11.5669 23.3876 11.3148 24.3761 11.1393C23.6639 14.0506 23.5592 17.4019 25.4862 20.1457C29.8009 26.3245 38.3046 22.6591 38.3883 22.6172L38.8282 22.4287L38.5768 22.0307C38.0163 21.2212 37.4004 20.4514 36.7337 19.7268C38.587 18.6068 40.1342 17.0453 41.2369 15.1817L41.3625 14.9094L41.1531 14.6999ZM4.75053 22.0517C5.23569 21.3989 5.7603 20.7763 6.32141 20.1876C8.0604 21.0917 9.99582 21.5521 11.9556 21.528C12.8619 21.5228 13.7659 21.4387 14.6576 21.2767C11.1807 24.0205 6.27952 22.5962 4.75053 22.0517ZM16.1656 19.6849L15.7886 20.1876C11.9766 21.1929 9.06522 20.6483 6.88693 19.6011C9.08617 17.4019 12.7097 14.6581 17.548 13.9669C17.6737 15.9566 17.3595 17.9674 16.1656 19.6849ZM17.4642 13.15C12.207 13.8831 8.37403 16.8782 6.11196 19.1822C4.42526 18.167 3.00951 16.7585 1.98578 15.077C6.94977 10.5319 13.1286 10.4481 17.0244 10.9927C17.2231 11.7002 17.3701 12.4212 17.4642 13.15ZM21.2553 11.0974H21.0668C19.9739 10.7339 18.8531 10.4607 17.7155 10.2805C17.2292 8.66056 16.5764 7.0953 15.7676 5.60977L19.9148 7.39011L21.1715 3.11731L22.4072 7.39011L26.5544 5.60977C25.7456 7.0953 25.0928 8.66056 24.6065 10.2805C23.4689 10.4607 22.3481 10.7339 21.2553 11.0974ZM24.774 13.9669C29.5705 14.6581 33.173 17.36 35.3722 19.5383C33.194 20.5855 30.2616 21.1301 26.5125 20.1247L26.1774 19.6849C24.9625 17.9674 24.6484 15.9566 24.774 13.9669ZM37.5715 22.0517C36.0425 22.6172 31.0785 24.0624 27.6016 21.2348C31.0995 21.8841 33.8852 21.2348 35.9797 20.1457C36.5438 20.7523 37.0751 21.3885 37.5715 22.0517ZM36.1682 19.1194C33.9061 16.8154 30.0731 13.8831 24.8578 13.15C24.962 12.4229 25.1089 11.7025 25.2977 10.9927C29.1934 10.4481 35.3722 10.5319 40.3362 15.056C39.2928 16.7251 37.8632 18.1187 36.1682 19.1194Z" fill="#716E98"/>
<path d="M27.4351 24.1671L27.2466 24.0833C22.1779 21.5071 21.5914 18.491 21.5705 18.3025C21.5495 18.114 21.5286 18.0302 21.5076 17.9673C21.4867 17.9045 20.8583 17.7788 20.8164 17.9464C20.7745 18.114 20.7745 18.1558 20.7536 18.2396C20.7569 18.3032 20.7498 18.3668 20.7327 18.4281C20.586 19.0355 19.6854 21.7375 15.0775 24.0833L14.889 24.1671L14.8471 24.3975C14.8471 24.4813 13.6323 34.6187 20.9421 39.1009L21.1725 39.2475L21.382 39.1009C28.6918 34.6187 27.477 24.4813 27.477 24.3975L27.4351 24.1671ZM21.1725 38.2841C15.0984 34.3464 15.5383 26.1359 15.643 24.7117C19.1199 22.9104 20.5651 20.8787 21.1725 19.622C21.759 20.8787 23.2042 22.8894 26.6811 24.7117C26.8067 26.1359 27.2256 34.3464 21.1725 38.2841Z" fill="#716E98"/>
<path d="M103.066 38.8914V22.1772H104.365V37.7394H114.837V38.8914H103.066Z" fill="#716E98"/>
<path d="M130.945 38.8914V33.0477H119.132V38.8914H117.875V28.9425C117.875 24.4184 120.494 21.8212 125.039 21.8212C129.584 21.8212 132.244 24.4184 132.244 28.9425V38.8914H130.945ZM125.018 22.9731C121.269 22.9731 119.132 25.1305 119.132 28.9425V31.9167H130.945V28.9425C130.945 25.1305 128.788 22.9731 125.018 22.9731Z" fill="#716E98"/>
<path d="M134.169 38.8914V22.1772H142.233C145.04 22.1772 146.799 23.7481 146.799 26.2615C146.799 27.9581 145.962 29.2776 144.495 29.906L144.307 29.9898V30.4715L144.537 30.5343C146.422 31.0161 147.595 32.587 147.595 34.5977C147.595 37.2368 145.794 38.8914 142.924 38.8914H134.169ZM135.468 37.7394H142.673C144.935 37.7394 146.276 36.4827 146.276 34.3463C146.276 32.2099 144.851 30.9323 142.736 30.9323H135.468V37.7394ZM135.468 29.8013H142.087C144.16 29.8013 145.501 28.5236 145.501 26.5548C145.501 24.5859 144.223 23.3083 142.024 23.3083H135.468V29.8013Z" fill="#716E98"/>
<path d="M52.4426 39.3941C47.3948 39.3941 43.7085 35.8125 43.7085 30.8695C43.7085 25.9265 47.3948 22.3448 52.4426 22.3448C57.4904 22.3448 61.1767 25.9265 61.1767 30.8695C61.1767 35.8125 57.5113 39.3941 52.4426 39.3941ZM52.4426 23.4549C48.1279 23.4549 44.9861 26.5758 44.9861 30.8695C44.9861 35.1632 48.1279 38.2841 52.4426 38.2841C56.7573 38.2841 59.92 35.1632 59.92 30.8695C59.92 26.5758 56.7782 23.4549 52.4426 23.4549Z" fill="#716E98"/>
<path d="M75.3357 39.0591V28.8588C75.3357 25.2144 73.2831 23.1408 69.6805 23.1408C66.078 23.1408 64.0044 25.2144 64.0044 28.8588V39.0591H62.7058V28.8588C62.7058 24.5651 65.3239 22.0098 69.6805 22.0098C74.0371 22.0098 76.6343 24.5651 76.6343 28.8588V39.0591H75.3357Z" fill="#716E98"/>
<path d="M80.0278 39.059V22.3448H92.1131V23.4759H81.3264V30.0108H90.5842V31.1418H81.3264V37.928H92.1131V39.059H80.0278Z" fill="#716E98"/>
<path d="M52.3602 25.3347L51.9086 25.8959L53.371 27.0615L53.2849 27.6659L53.1129 28.7019L52.3602 29.0041L51.586 29.3063L50.9838 28.8098L50.2956 28.2702L50.5752 26.4355L49.8655 26.3276L49.5859 28.1623L47.8654 28.853L48.1235 29.5005L49.844 28.8314L50.7042 29.5221L51.1343 29.8675L50.9623 31.0115L50.8978 31.4863L50.1881 31.7669L49.3493 32.1123L47.9084 30.9467L47.4568 31.5079L49.2418 32.9109L49.4353 32.8462L51.1558 32.1555L51.887 32.7598L52.4462 33.1915L52.3172 34.0765L52.2096 34.832L50.4676 35.5011L50.7257 36.1702L52.4677 35.5011L53.9086 36.6451L54.3602 36.1054L52.8978 34.9399L53.0484 34.0333L53.1559 33.2994L53.8871 32.9973L54.6828 32.6951L56.1453 33.8606L56.5754 33.2994L55.1345 32.1339L55.242 31.3137L55.371 30.4934L57.0915 29.8243L56.8335 29.1552L55.113 29.8243L54.5108 29.3495L53.8226 28.8098L53.9086 28.1839L54.0592 27.1694L55.8012 26.4787L55.5431 25.8096L53.8011 26.5003L52.3602 25.3347ZM54.0161 29.8675L54.6613 30.3855L54.5753 31.0546L54.4248 32.0259L53.629 32.3497L52.8978 32.6303L52.1666 32.0475L51.6075 31.5943L51.7365 30.6661L51.844 29.9538L52.6183 29.6516L53.371 29.3495L54.0161 29.8675Z" fill="#716E98"/>
<path d="M58.2228 19.5383V9.75698C58.2228 6.30104 56.2539 4.31126 52.8189 4.31126C49.3839 4.31126 47.4151 6.30104 47.4151 9.75698V19.5383H46.1375V9.75698C46.1375 7.74625 46.7449 6.09159 47.8549 4.96056C48.965 3.82952 50.7244 3.20117 52.8189 3.20117C54.9134 3.20117 56.6309 3.80858 57.7829 4.96056C58.9349 6.11254 59.5004 7.74625 59.5004 9.75698V19.5383H58.2228Z" fill="#716E98"/>
<path d="M69.3663 19.8524C67.2718 19.8524 65.5543 19.245 64.4023 18.093C63.2503 16.9411 62.6848 15.3073 62.6848 13.2966V3.51526H63.9415V13.2966C63.9415 16.7526 65.9104 18.7423 69.3453 18.7423C72.7803 18.7423 74.7282 16.7526 74.7282 13.2966V3.51526H75.943V13.2966C75.943 15.3073 75.3566 16.962 74.2465 18.093C73.1364 19.2241 71.4189 19.8524 69.3663 19.8524Z" fill="#716E98"/>
<path d="M98.1455 19.5383V8.81445C98.1455 6.0497 96.5746 4.31126 94.0193 4.31126C91.464 4.31126 89.8932 6.09159 89.8932 8.81445V19.5383H88.6365V8.81445C88.6365 6.09159 87.0027 4.31126 84.5103 4.31126C82.0178 4.31126 80.3841 6.0497 80.3841 8.81445V19.5383H79.1064V8.81445C79.1064 7.03412 79.6301 5.56797 80.6145 4.58355C81.5989 3.59913 82.8556 3.20117 84.3846 3.20117C86.5838 3.20117 88.2176 4.22748 89.0135 6.11254L89.2648 6.71995L89.5162 6.11254C90.3121 4.22748 91.9458 3.20117 94.145 3.20117C95.695 3.20117 96.9935 3.68291 97.9151 4.58355C98.8367 5.48419 99.4232 7.03412 99.4232 8.81445V19.5383H98.1455Z" fill="#716E98"/>
<path d="M102.982 19.5382V3.51526H110.711C113.413 3.51526 115.089 5.0233 115.089 7.45293C115.089 9.06571 114.293 10.3434 112.889 10.9508L112.722 11.0136V11.4534L112.931 11.5163C114.733 11.9771 115.864 13.4851 115.864 15.433C115.864 16.6269 115.466 17.6532 114.712 18.3653C113.958 19.0775 112.764 19.5382 111.381 19.5382H102.982ZM104.26 18.4072H111.151C113.287 18.4072 114.565 17.1924 114.565 15.1817C114.565 13.1709 113.204 11.9352 111.193 11.9352H104.26V18.4072ZM104.26 10.8251H110.585C112.554 10.8251 113.832 9.61028 113.832 7.72522C113.832 5.84016 112.617 4.64629 110.502 4.64629H104.26V10.8251Z" fill="#716E98"/>
<path d="M118.755 19.5382V3.51526H130.358V4.64629H120.033V10.846H128.892V11.9561H120.033V18.4072H130.358V19.5382H118.755Z" fill="#716E98"/>
<path d="M144.998 19.5382L140.516 13.2547H135.049V19.5382H133.771V3.51526H140.83C142.61 3.51526 143.972 3.97605 144.893 4.89763C145.815 5.81922 146.171 6.92931 146.171 8.35357C146.171 10.9717 144.768 12.6892 142.212 13.15L141.773 13.2338L146.506 19.5382H144.998ZM135.049 12.1237H140.851C144.181 12.1237 144.872 10.092 144.872 8.35357C144.872 6.61513 144.181 4.64629 140.851 4.64629H135.049V12.1237Z" fill="#716E98"/>
</svg>
