<svg width="148" height="51" viewBox="0 0 148 51" fill="none" xmlns="http://www.w3.org/2000/svg">
<path d="M74.2217 20.8932L79.1881 6.30884H82.5138L87.2778 20.8932H84.4912L83.4797 17.7475H78.064L77.0299 20.8932H74.2217ZM78.7382 15.7468H82.8505L80.8056 9.47706L78.7382 15.7468Z" fill="#716E98"/>
<path d="M88.5225 20.8932V5.47717H91.174V20.8932H88.5225Z" fill="#716E98"/>
<path d="M93.5708 20.8932V5.47717H96.2224V20.8932H93.5708Z" fill="#716E98"/>
<path d="M100.164 7.99384C99.6465 7.99384 99.2446 7.85731 98.956 7.58346C98.6674 7.31039 98.5239 6.93027 98.5239 6.44309C98.5239 5.97143 98.6682 5.5944 98.956 5.31358C99.2446 5.03275 99.6472 4.89233 100.164 4.89233C100.673 4.89233 101.074 5.03275 101.366 5.31358C101.658 5.5944 101.805 5.97065 101.805 6.44309C101.805 6.93027 101.659 7.31039 101.366 7.58346C101.074 7.85731 100.674 7.99384 100.164 7.99384ZM98.8381 20.8932V9.94877H101.49V20.8925L98.8381 20.8932Z" fill="#716E98"/>
<path d="M107.557 21.2075C106.62 21.2075 105.839 21.0446 105.214 20.7188C104.588 20.393 104.118 19.964 103.803 19.4326C103.489 18.9004 103.331 18.324 103.331 17.7019C103.331 17.013 103.513 16.4343 103.876 15.9657C104.239 15.4979 104.755 15.1457 105.422 14.9091C106.088 14.6733 106.875 14.5554 107.782 14.5554C108.374 14.5554 108.934 14.6004 109.461 14.6904C109.989 14.7803 110.515 14.9006 111.04 15.0495V16.6003C110.628 16.4653 110.178 16.3606 109.692 16.2853C109.204 16.2108 108.747 16.1728 108.321 16.1728C107.692 16.1728 107.175 16.2892 106.77 16.5212C106.366 16.7531 106.163 17.1464 106.163 17.7011C106.163 18.1053 106.328 18.4536 106.658 18.746C106.987 19.0385 107.512 19.1844 108.231 19.1844C108.778 19.1844 109.242 19.0649 109.624 18.8252C110.006 18.5855 110.296 18.286 110.494 17.9261C110.693 17.5669 110.792 17.2069 110.792 16.8478H111.421C111.421 17.6344 111.275 18.3589 110.983 19.0222C110.691 19.6847 110.259 20.2153 109.685 20.6125C109.113 21.0089 108.403 21.2075 107.557 21.2075ZM111.13 20.8934L110.792 18.2418V13.8595C110.792 13.0954 110.636 12.5298 110.326 12.1629C110.015 11.796 109.489 11.6121 108.747 11.6121C108.32 11.6121 107.949 11.6757 107.635 11.803C107.32 11.9302 107.079 12.1117 106.91 12.3483C106.742 12.5842 106.658 12.8704 106.658 13.2079H103.758C103.758 12.384 103.957 11.7114 104.354 11.1909C104.751 10.6703 105.322 10.2887 106.068 10.0451C106.813 9.80148 107.706 9.67969 108.747 9.67969C109.692 9.67969 110.515 9.83174 111.219 10.1351C111.923 10.4384 112.47 10.9046 112.86 11.5338C113.249 12.1629 113.444 12.9681 113.444 13.9495V20.8934H111.13Z" fill="#716E98"/>
<path d="M115.536 20.8934V9.99387H117.851L118.187 12.1513V20.8926H115.536V20.8934ZM123.019 20.8934V14.5111C123.019 13.702 122.824 13.0915 122.435 12.6796C122.045 12.2676 121.535 12.0613 120.906 12.0613C120.374 12.0613 119.904 12.2071 119.496 12.4996C119.087 12.7921 118.767 13.2319 118.535 13.8199C118.303 14.408 118.186 15.1403 118.186 16.0169H117.31C117.31 14.6011 117.486 13.4235 117.838 12.4833C118.19 11.5431 118.688 10.841 119.332 10.3763C119.976 9.91164 120.732 9.67969 121.602 9.67969C122.501 9.67969 123.252 9.87983 123.855 10.2809C124.458 10.682 124.912 11.2452 125.215 11.9721C125.518 12.699 125.67 13.5453 125.67 14.5111V20.8934H123.019Z" fill="#716E98"/>
<path d="M131.87 21.2075C130.956 21.2075 130.108 20.9694 129.325 20.4938C128.542 20.0183 127.909 19.348 127.426 18.4823C126.942 17.6173 126.701 16.6003 126.701 15.432C126.701 14.1962 126.942 13.1497 127.426 12.2917C127.909 11.4345 128.542 10.7844 129.325 10.3422C130.108 9.9 130.956 9.67969 131.87 9.67969C132.582 9.67969 133.209 9.79372 133.752 10.0226C134.295 10.2514 134.757 10.5586 135.14 10.9442C135.522 11.3305 135.821 11.7587 136.039 12.2304C136.256 12.7021 136.394 13.1784 136.455 13.6578L133.781 13.7253C133.661 13.2459 133.438 12.8487 133.112 12.5345C132.786 12.2195 132.365 12.0628 131.848 12.0628C131.421 12.0628 131.02 12.1808 130.645 12.4166C130.27 12.6524 129.966 13.0178 129.73 13.512C129.494 14.0061 129.375 14.6469 129.375 15.4335C129.375 16.1829 129.486 16.8066 129.707 17.3047C129.928 17.8027 130.225 18.1774 130.6 18.4288C130.975 18.6793 131.391 18.805 131.848 18.805C132.522 18.805 133.013 18.6421 133.319 18.3163C133.626 17.9904 133.78 17.5545 133.78 17.0076H136.454C136.454 17.7787 136.278 18.4831 135.926 19.12C135.574 19.7569 135.057 20.2642 134.375 20.6428C133.695 21.0183 132.859 21.2075 131.87 21.2075Z" fill="#716E98"/>
<path d="M142.356 21.2075C141.428 21.2075 140.577 20.9678 139.806 20.4884C139.034 20.009 138.416 19.3364 137.952 18.4714C137.487 17.6064 137.255 16.5933 137.255 15.432C137.255 14.2334 137.485 13.204 137.946 12.3421C138.407 11.481 139.023 10.8216 139.795 10.3647C140.566 9.90776 141.42 9.67969 142.356 9.67969C143.225 9.67969 143.976 9.85346 144.609 10.2018C145.242 10.5501 145.751 11.0218 146.137 11.6175C146.523 12.2133 146.784 12.8851 146.919 13.6345C147.054 14.3839 147.061 15.155 146.941 15.9494H139.368V14.5111H145.065L144.548 14.8478C144.57 14.4956 144.553 14.1403 144.497 13.7804C144.442 13.4204 144.335 13.0915 144.177 12.7913C144.02 12.4918 143.797 12.2498 143.508 12.0667C143.22 11.8829 142.851 11.7913 142.401 11.7913C141.862 11.7913 141.405 11.9263 141.031 12.1955C140.656 12.4655 140.371 12.8324 140.176 13.2971C139.982 13.7618 139.884 14.2854 139.884 14.8703V15.9261C139.884 16.5405 139.975 17.0836 140.159 17.5552C140.343 18.0269 140.616 18.3977 140.98 18.6677C141.343 18.9377 141.802 19.0719 142.356 19.0719C142.874 19.0719 143.307 18.9524 143.66 18.7127C144.012 18.473 144.236 18.1138 144.334 17.6344H147.008C146.895 18.3388 146.632 18.9586 146.216 19.4939C145.8 20.0292 145.262 20.4488 144.604 20.7522C143.944 21.0563 143.195 21.2075 142.356 21.2075Z" fill="#716E98"/>
<path d="M74.8643 31.0168H76.1675V37.3091H83.4714V31.0168H84.7413V44.8937H83.4714V38.4107H76.1675V44.8937H74.8643V31.0168ZM91.2352 45.1404C90.3058 45.1404 89.4882 44.9022 88.7799 44.4267C88.0716 43.9512 87.5154 43.2956 87.1112 42.4601C86.7063 41.6246 86.5046 40.672 86.5046 39.6007C86.5046 38.4324 86.7047 37.4285 87.1058 36.5892C87.5061 35.7506 88.0608 35.1059 88.7683 34.6567C89.4765 34.2076 90.2981 33.9826 91.2344 33.9826C92.0211 33.9826 92.6898 34.1416 93.2398 34.4605C93.7906 34.7793 94.2343 35.2114 94.571 35.7583C94.9077 36.3052 95.1458 36.9227 95.2839 37.6124C95.4228 38.302 95.4771 39.0134 95.4468 39.7473H87.5705V38.8482H94.6493L94.1327 39.1849C94.1552 38.6977 94.1265 38.2128 94.0481 37.7295C93.9698 37.2462 93.8232 36.8025 93.6098 36.3983C93.3965 35.9941 93.0986 35.6683 92.7161 35.4209C92.3345 35.1734 91.8434 35.05 91.2445 35.05C90.4804 35.05 89.8435 35.2463 89.3346 35.6396C88.8257 36.0329 88.4448 36.5426 88.1942 37.1679C87.9429 37.7931 87.818 38.4619 87.818 39.1732V39.724C87.818 40.5401 87.9436 41.2748 88.1942 41.9264C88.4448 42.5781 88.8234 43.0947 89.3292 43.4772C89.8349 43.8596 90.4695 44.0505 91.2337 44.0505C92.0203 44.0505 92.6626 43.8581 93.1607 43.4717C93.6587 43.0862 93.9566 42.5183 94.0536 41.7697H95.4468C95.3343 42.4811 95.0853 43.0885 94.6998 43.5897C94.3134 44.0916 93.8247 44.4756 93.2336 44.7417C92.644 45.007 91.9768 45.1404 91.2352 45.1404ZM100.471 45.1404C99.6173 45.1404 98.9129 44.9853 98.359 44.6742C97.8044 44.3631 97.3925 43.9643 97.1233 43.4772C96.8541 42.99 96.7191 42.4888 96.7191 41.9714C96.7191 41.2228 96.9006 40.6231 97.2637 40.174C97.6275 39.7248 98.1139 39.399 98.7244 39.1965C99.335 38.994 100.003 38.8932 100.73 38.8932C101.277 38.8932 101.844 38.9552 102.432 39.0786C103.02 39.2019 103.584 39.3726 104.123 39.5898V40.4664C103.658 40.264 103.123 40.1034 102.516 39.9831C101.91 39.8637 101.359 39.8032 100.865 39.8032C100.101 39.8032 99.449 39.9676 98.9098 40.2973C98.3707 40.627 98.1007 41.1848 98.1007 41.9714C98.1007 42.5633 98.3009 43.0652 98.7019 43.4772C99.1022 43.8891 99.7484 44.0955 100.64 44.0955C101.246 44.0955 101.805 43.9496 102.314 43.6572C102.823 43.3647 103.233 43.0016 103.544 42.5672C103.855 42.1328 104.01 41.6945 104.01 41.2523H104.336C104.336 41.9342 104.177 42.5711 103.859 43.1622C103.54 43.7541 103.091 44.232 102.511 44.595C101.93 44.9589 101.25 45.1404 100.471 45.1404ZM104.18 44.8929L104.01 42.6797V37.9607C104.01 36.8894 103.779 36.1291 103.314 35.68C102.849 35.2308 102.187 35.0058 101.325 35.0058C100.845 35.0058 100.399 35.0749 99.9874 35.2137C99.5754 35.3526 99.2457 35.5729 98.9983 35.877C98.7516 36.1803 98.6275 36.5791 98.6275 37.0732H97.1442C97.1442 36.3169 97.3312 35.7118 97.7059 35.2587C98.0798 34.8057 98.584 34.4799 99.217 34.2813C99.8501 34.0827 100.552 33.9834 101.324 33.9834C102.088 33.9834 102.77 34.1168 103.369 34.3821C103.968 34.6482 104.442 35.0749 104.79 35.6629C105.138 36.2509 105.313 37.0244 105.313 37.9832V44.8937H104.18V44.8929ZM107.404 44.8929V29.6119H108.707V44.8929H107.404ZM110.055 35.1742V34.2301H116.763V35.1742H110.055ZM114.741 45.1404C114.186 45.1404 113.694 45.0318 113.263 44.8146C112.832 44.5974 112.495 44.2754 112.251 43.8488C112.008 43.4221 111.886 42.8938 111.886 42.2646V31.196H113.156V42.2414C113.156 43.4547 113.718 44.0613 114.842 44.0613C115.171 44.0613 115.486 44.0241 115.786 43.9488C116.085 43.8744 116.422 43.7689 116.797 43.6339L116.977 44.5888C116.61 44.7533 116.243 44.8867 115.876 44.9876C115.508 45.09 115.13 45.1404 114.741 45.1404ZM118.066 44.8929V29.6119H119.369V44.8929H118.066ZM125.785 44.8929V38.6116C125.785 37.4805 125.514 36.6155 124.971 36.0159C124.428 35.417 123.681 35.1168 122.729 35.1168C122.032 35.1168 121.431 35.3076 120.925 35.69C120.419 36.0725 120.034 36.6078 119.768 37.2967C119.502 37.9855 119.369 38.7908 119.369 39.7124H118.797C118.797 38.5441 118.956 37.5309 119.274 36.6729C119.592 35.8157 120.064 35.1524 120.689 34.6839C121.315 34.2161 122.092 33.9818 123.021 33.9818C123.844 33.9818 124.558 34.1657 125.161 34.5326C125.764 34.8996 126.23 35.4294 126.56 36.1222C126.889 36.8149 127.054 37.645 127.054 38.6108V44.8922H125.785V44.8929Z" fill="#716E98"/>
<path d="M18.5088 21.0965C18.5398 23.0909 17.5034 24.9528 15.789 25.9752L15.7843 25.9799L9.22911 29.8975C8.17717 30.5259 7.83429 31.8889 8.46343 32.9408L11.6154 38.2114L15.1699 44.1576V44.1599C14.9636 44.2817 14.7549 44.3926 14.5423 44.4927C14.3825 44.5656 14.2204 44.6347 14.0606 44.6944C13.952 44.7363 13.8434 44.7743 13.7347 44.8077C13.5152 44.8791 13.2957 44.9388 13.0761 44.9877C12.9078 45.021 12.741 45.052 12.5727 45.0761C12.3508 45.1048 12.1266 45.125 11.9047 45.1358C11.8496 45.1358 11.7938 45.1382 11.7387 45.1405C11.3485 45.1451 10.9575 45.1203 10.572 45.0629C10.4634 45.0451 10.3571 45.0272 10.2461 45.0032C10.1399 44.9807 10.0289 44.9566 9.92187 44.9303C8.20278 44.4974 6.64969 43.4105 5.66835 41.7667L1.3776 34.5916L1.37295 34.5831C0.452116 33.0455 0.19689 31.2908 0.525814 29.6601L0.590202 29.3715L0.597184 29.3514C0.621233 29.2451 0.652263 29.1365 0.68407 29.0317C1.16737 27.4407 2.22396 26.014 3.76153 25.0955L10.9474 20.8001C11.0172 20.7582 11.0886 20.7156 11.1608 20.6775C11.4245 20.5364 11.5851 20.2586 11.5688 19.96C11.5642 19.8777 11.5618 19.7932 11.5618 19.7109L11.4331 11.3397L18.3622 11.2357L18.5088 21.0965Z" fill="#716E98"/>
<path d="M44.4042 33.9379L40.333 41.2394L40.3283 41.2525C39.454 42.8142 38.0631 43.9126 36.4875 44.4456L36.2059 44.5325L36.1857 44.5395C36.0794 44.5705 35.9708 44.5969 35.8638 44.624C34.244 45.001 32.4822 44.7993 30.9183 43.9274L23.6059 39.8515C23.5307 39.8096 23.4554 39.767 23.3817 39.7227C23.1319 39.5715 22.8154 39.5777 22.5672 39.7328C22.4958 39.7778 22.426 39.822 22.3523 39.8647L15.1703 44.1578L11.6157 38.2115L20.0754 33.1528L20.0801 33.1505C21.793 32.1257 23.9224 32.0946 25.6664 33.0659L25.671 33.0682L32.341 36.7865C33.4116 37.383 34.763 36.999 35.3595 35.9285L38.3486 30.5648L41.7231 24.5123C41.9318 24.6302 42.1335 24.7544 42.3243 24.8893C42.4686 24.9894 42.6059 25.0934 42.7394 25.2043C42.8301 25.2772 42.9194 25.3509 43.0031 25.4308C43.1715 25.5837 43.3359 25.7435 43.4849 25.9126C43.6005 26.039 43.7114 26.1678 43.8154 26.3005C43.9527 26.4804 44.0814 26.662 44.1994 26.8505C44.2304 26.8994 44.2591 26.9436 44.2878 26.9924C44.4895 27.3299 44.6602 27.6805 44.8021 28.0397C44.8425 28.1437 44.8797 28.2461 44.9154 28.3524C44.9511 28.4586 44.9844 28.5657 45.0155 28.6696C45.5003 30.3771 45.3343 32.2676 44.4042 33.9379Z" fill="#716E98"/>
<path opacity="0.5" d="M18.5088 21.0965C18.5398 23.0909 17.5034 24.9528 15.789 25.9752L15.7843 25.9799L9.22911 29.8975C8.17717 30.5259 7.83429 31.8889 8.46343 32.9408L11.6154 38.2114L15.1699 44.1576V44.1599C14.9636 44.2817 14.7549 44.3926 14.5423 44.4927C14.3825 44.5656 14.2204 44.6347 14.0606 44.6944C13.952 44.7363 13.8434 44.7743 13.7347 44.8077C13.5152 44.8791 13.2957 44.9388 13.0761 44.9877C12.9078 45.021 12.741 45.052 12.5727 45.0761C12.3508 45.1048 12.1266 45.125 11.9047 45.1358C11.8496 45.1358 11.7938 45.1382 11.7387 45.1405C11.3485 45.1451 10.9575 45.1203 10.572 45.0629C10.4634 45.0451 10.3571 45.0272 10.2461 45.0032C10.1399 44.9807 10.0289 44.9566 9.92187 44.9303C8.20278 44.4974 6.64969 43.4105 5.66835 41.7667L1.3776 34.5916L1.37295 34.5831C0.452116 33.0455 0.19689 31.2908 0.525814 29.6601L0.590202 29.3715L0.597184 29.3514C0.621233 29.2451 0.652263 29.1365 0.68407 29.0317C1.16737 27.4407 2.22396 26.014 3.76153 25.0955L10.9474 20.8001C11.0172 20.7582 11.0886 20.7156 11.1608 20.6775C11.4245 20.5364 11.5851 20.2586 11.5688 19.96C11.5642 19.8777 11.5618 19.7932 11.5618 19.7109L11.4331 11.3397L18.3622 11.2357L18.5088 21.0965Z" fill="#716E98"/>
<path opacity="0.3" d="M41.7253 24.5131L38.3508 30.5656L29.7375 25.7644H29.7351C27.9912 24.7923 26.8997 22.9646 26.871 20.9702V20.9655L26.7539 13.3258C26.7352 12.1008 25.7268 11.1226 24.5018 11.1412L18.3624 11.2343L11.4333 11.3383C11.4286 11.1009 11.438 10.8635 11.4597 10.6284C11.4752 10.4554 11.4954 10.2825 11.5241 10.1118C11.5442 9.9962 11.5644 9.88294 11.5885 9.772C11.6373 9.54548 11.6947 9.32594 11.7661 9.11105C11.8173 8.94891 11.8747 8.78911 11.9391 8.63396C12.0237 8.42528 12.1191 8.22125 12.2207 8.0242C12.2471 7.97533 12.2719 7.92646 12.2983 7.87759C12.4891 7.53625 12.7063 7.21198 12.9507 6.90788C13.0197 6.821 13.0903 6.73721 13.164 6.65265C13.237 6.57042 13.313 6.48819 13.3906 6.40829C14.624 5.13449 16.3439 4.33623 18.2561 4.30519L26.6158 4.17874H26.629C28.4194 4.15237 30.0656 4.80866 31.3146 5.90714L31.5295 6.10885L31.545 6.12203C31.6249 6.19728 31.7025 6.27719 31.7777 6.35942C32.9158 7.57271 33.6217 9.19949 33.6481 10.99L33.7745 19.3612V19.4768C33.7745 19.8585 33.9848 20.2099 34.3214 20.3899C34.3517 20.4062 34.3812 20.4217 34.413 20.4395L41.7253 24.5131Z" fill="url(#paint0_linear_329_942)"/>
<path d="M41.7253 24.5131L38.3508 30.5656L29.7375 25.7644H29.7351C27.9912 24.7923 26.8997 22.9646 26.871 20.9702V20.9655L26.7539 13.3258C26.7352 12.1008 25.7268 11.1226 24.5018 11.1412L18.3624 11.2343L11.4333 11.3383C11.4286 11.1009 11.438 10.8635 11.4597 10.6284C11.4752 10.4554 11.4954 10.2825 11.5241 10.1118C11.5442 9.9962 11.5644 9.88294 11.5885 9.772C11.6373 9.54548 11.6947 9.32594 11.7661 9.11105C11.8173 8.94891 11.8747 8.78911 11.9391 8.63396C12.0237 8.42528 12.1191 8.22125 12.2207 8.0242C12.2471 7.97533 12.2719 7.92646 12.2983 7.87759C12.4891 7.53625 12.7063 7.21198 12.9507 6.90788C13.0197 6.821 13.0903 6.73721 13.164 6.65265C13.237 6.57042 13.313 6.48819 13.3906 6.40829C14.624 5.13449 16.3439 4.33623 18.2561 4.30519L26.6158 4.17874H26.629C28.4194 4.15237 30.0656 4.80866 31.3146 5.90714L31.5295 6.10885L31.545 6.12203C31.6249 6.19728 31.7025 6.27719 31.7777 6.35942C32.9158 7.57271 33.6217 9.19949 33.6481 10.99L33.7745 19.3612V19.4768C33.7745 19.8585 33.9848 20.2099 34.3214 20.3899C34.3517 20.4062 34.3812 20.4217 34.413 20.4395L41.7253 24.5131Z" fill="#716E98"/>
<path d="M57.8521 0.803223V50.411" stroke="#BABABA" stroke-miterlimit="10"/>
<defs>
<linearGradient id="paint0_linear_329_942" x1="11.4321" y1="17.3718" x2="41.7253" y2="17.3718" gradientUnits="userSpaceOnUse">
<stop offset="0.7" stop-color="white" stop-opacity="0"/>
<stop offset="1"/>
</linearGradient>
</defs>
</svg>
