<svg width="148" height="27" viewBox="0 0 148 27" fill="none" xmlns="http://www.w3.org/2000/svg">
<path d="M13.273 5.16174C8.72351 5.16174 5.0354 8.97629 5.0354 13.682V23.8009C5.38934 24.1108 5.75998 24.4011 6.14564 24.6705V13.6615C6.15678 9.59948 9.34239 6.31042 13.2726 6.31042C17.2028 6.31042 20.3845 9.59588 20.3992 13.6543V24.6705C20.785 24.4012 21.1557 24.1109 21.5098 23.8009V13.6827C21.5105 8.97665 17.8224 5.16174 13.273 5.16174Z" fill="#716E98"/>
<path d="M13.2721 7.45923C9.94926 7.45923 7.25573 10.2454 7.25537 13.6821V25.3632C7.61456 25.5629 7.98476 25.7448 8.36597 25.9088V13.6738C8.37064 10.8751 10.5653 8.60934 13.2721 8.60934C15.9789 8.60934 18.1778 10.8815 18.1778 13.6843V25.9091C18.5576 25.7453 18.9278 25.5635 19.2884 25.3635V13.6828C19.2884 10.2454 16.5945 7.45923 13.2721 7.45923Z" fill="#716E98"/>
<path d="M24.8421 13.6828V19.2947C25.6298 17.5427 26.0353 15.6429 26.0317 13.722C26.0317 6.43301 20.3206 0.524414 13.2731 0.524414C6.22549 0.524414 0.515168 6.43373 0.515168 13.722C0.511051 15.6408 0.915094 17.5386 1.70048 19.2893V13.6472H1.70263C1.72095 7.0544 6.89322 1.71547 13.2716 1.71547C19.65 1.71547 24.827 7.05799 24.8421 13.6544V13.6824V13.6828Z" fill="#716E98"/>
<path d="M13.2733 2.86401C7.5084 2.86401 2.83325 7.68751 2.81421 13.6471V21.2852C3.15117 21.7828 3.52175 22.2569 3.92337 22.704V13.65C3.94061 8.32471 8.11902 4.01305 13.2715 4.01305C18.424 4.01305 22.6053 8.32686 22.6211 13.6543V13.6823V22.704C23.0233 22.2561 23.3944 21.7812 23.7317 21.2827V13.6827C23.7317 7.70763 19.0494 2.86401 13.2733 2.86401Z" fill="#716E98"/>
<path d="M13.2728 17.6884C11.3397 17.6884 9.7413 16.209 9.47729 14.2852V17.3634C10.2287 18.7283 11.6468 19.2182 13.2728 19.2182C14.8988 19.2182 16.3165 18.7268 17.068 17.3637V14.2852C16.804 16.209 15.2056 17.6884 13.2728 17.6884Z" fill="#716E98"/>
<path d="M9.47729 19.3131V21.261C10.1192 23.452 16.203 23.4804 17.068 21.261V19.3127C16.7558 21.7398 9.69748 21.6959 9.47729 19.3131Z" fill="#716E98"/>
<path d="M9.47729 23.1962V25.144C10.1192 27.3351 16.203 27.3634 17.068 25.144V23.1958C16.7558 25.6228 9.69748 25.5783 9.47729 23.1962Z" fill="#716E98"/>
<path d="M35.2212 15.6659V14.3509H39.0853V14.6448C39.0853 15.8942 38.809 16.8967 38.2563 17.6522C37.928 18.1002 37.4713 18.5013 36.886 18.8555C36.3008 19.2096 35.5772 19.3868 34.7151 19.3871C33.3849 19.3871 32.2655 18.9347 31.3567 18.0301C30.4013 17.0789 29.9236 15.9176 29.9236 14.546C29.9236 13.194 30.3685 12.0566 31.2583 11.1337C32.1764 10.1826 33.3568 9.70703 34.7995 9.70703C35.8675 9.70703 36.8183 10.0054 37.6518 10.6021C38.0466 10.8739 38.3933 11.2095 38.6776 11.5953L37.6662 12.5608C36.954 11.5349 35.9985 11.022 34.7995 11.022C33.8063 11.022 32.9842 11.3572 32.3334 12.0277C31.6825 12.6982 31.357 13.5422 31.3567 14.5596C31.3567 15.5577 31.68 16.3924 32.3265 17.0639C32.9731 17.7353 33.7834 18.0705 34.7575 18.0696C35.4972 18.0696 36.1198 17.8434 36.6253 17.3911C37.1308 16.9387 37.4399 16.3629 37.5527 15.6634L35.2212 15.6659Z" fill="#716E98"/>
<path d="M46.758 9.87451V11.2175H43.0203V13.4416H46.6455V14.7846H43.0203V17.8624H46.758V19.2051H41.5857V9.87451H46.758Z" fill="#716E98"/>
<path d="M54.0638 11.2175H51.914V19.2051H50.4805V11.2175H48.3308V9.87451H54.0638V11.2175Z" fill="#716E98"/>
<path d="M56.031 9.87451H57.703C58.8081 9.87451 59.6324 10.0564 60.176 10.4201C60.9159 10.9144 61.286 11.6465 61.2862 12.6165C61.2862 13.2784 61.0966 13.8426 60.7173 14.309C60.338 14.7755 59.8341 15.0786 59.2055 15.2185L62.1282 19.2054H60.3998L57.7159 15.3866H57.4645V19.2051H56.0314L56.031 9.87451ZM57.4642 11.1895V14.1553H57.9124C58.0338 14.1553 58.1559 14.1506 58.2777 14.1413C58.4465 14.123 58.6134 14.0902 58.7766 14.0432C58.97 13.9946 59.1549 13.9167 59.3247 13.8123C59.4792 13.7146 59.615 13.5631 59.7321 13.3579C59.8491 13.1527 59.9077 12.9101 59.9077 12.6302C59.9077 11.67 59.2566 11.1897 57.9544 11.1895H57.4642Z" fill="#716E98"/>
<path d="M69.4079 9.87451V11.2175H65.6706V13.4416H69.2962V14.7846H65.6706V17.8624H69.4086V19.2051H64.2363V9.87451H69.4079Z" fill="#716E98"/>
<path d="M77.1651 11.2734L76.0129 11.9448C75.9182 11.7198 75.7742 11.519 75.5915 11.3571C75.3104 11.1332 74.9731 11.0214 74.5797 11.0217C74.158 11.0217 73.8325 11.1288 73.6031 11.3431C73.4921 11.4437 73.4039 11.567 73.3446 11.7045C73.2852 11.8421 73.256 11.9907 73.259 12.1405C73.259 12.6257 73.5961 13.0034 74.2705 13.2737L75.2119 13.6502C76.6817 14.2488 77.4166 15.1632 77.4166 16.3933C77.4166 17.2793 77.1333 17.9997 76.5667 18.5545C76.0002 19.1093 75.2764 19.3868 74.3955 19.3871C73.4855 19.3871 72.7501 19.0746 72.1893 18.4496C71.7348 17.9463 71.4588 17.3073 71.4038 16.6314L72.8229 16.3236C72.8168 16.7529 72.9553 17.1718 73.2163 17.5128C73.5163 17.8862 73.9234 18.0727 74.4375 18.0725C74.8776 18.0725 75.2453 17.9278 75.5405 17.6386C75.8358 17.3493 75.9833 16.9717 75.9831 16.5057C75.9831 16.0768 75.8589 15.7457 75.6106 15.5122C75.3623 15.2787 75.0368 15.0783 74.6343 14.9109L73.7364 14.533C72.4624 14.0015 71.8254 13.2134 71.8251 12.1689C71.8251 11.4984 72.0711 10.9202 72.5629 10.4344C73.0547 9.94853 73.7222 9.70608 74.5654 9.70703C75.324 9.70703 75.9516 9.9168 76.4482 10.3363C76.7424 10.6023 76.9853 10.9199 77.1651 11.2734Z" fill="#716E98"/>
<path d="M79.9182 9.87451H81.3514V15.4983C81.3514 16.2257 81.4497 16.7619 81.6463 17.1067C81.8057 17.3682 82.0399 17.5944 82.3488 17.7852C82.6632 17.973 83.0225 18.0722 83.3887 18.0722C83.7548 18.0722 84.1142 17.973 84.4285 17.7852C84.7376 17.5936 84.9718 17.3675 85.1311 17.1067C85.3279 16.7619 85.4263 16.2257 85.4263 15.4983V9.87451H86.8595V15.8772C86.8595 16.8564 86.5691 17.6631 85.9884 18.2974C85.3139 19.0249 84.4473 19.3886 83.3887 19.3886C82.33 19.3886 81.4635 19.0249 80.7892 18.2974C80.2083 17.6633 79.918 16.8566 79.9182 15.8772V9.87451Z" fill="#716E98"/>
<path d="M89.8115 9.87451H91.2457V17.8624H93.9996V19.2051H89.8115V9.87451Z" fill="#716E98"/>
<path d="M100.8 11.2175H98.6499V19.2051H97.2167V11.2175H95.0667V9.87451H100.8V11.2175Z" fill="#716E98"/>
<path d="M108.65 11.2175H106.5V19.2051H105.066V11.2175H102.917V9.87451H108.65V11.2175Z" fill="#716E98"/>
<path d="M111.277 11.0913C112.204 10.1682 113.366 9.70654 114.761 9.7063C116.156 9.70606 117.318 10.1677 118.245 11.0913C119.172 12.0149 119.636 13.1667 119.636 14.5467C119.636 15.9267 119.172 17.0785 118.245 18.002C117.318 18.9256 116.156 19.3873 114.761 19.3871C113.366 19.3868 112.204 18.9251 111.277 18.002C110.35 17.0789 109.887 15.9276 109.887 14.5481C109.887 13.1686 110.35 12.0163 111.277 11.0913ZM112.289 17.0858C112.935 17.7435 113.759 18.0723 114.762 18.0721C115.764 18.0718 116.588 17.7431 117.235 17.0858C117.881 16.4282 118.205 15.5819 118.205 14.5467C118.205 13.5115 117.881 12.6651 117.235 12.0076C116.588 11.3503 115.764 11.0215 114.762 11.0213C113.759 11.021 112.935 11.3498 112.289 12.0076C111.642 12.6654 111.319 13.5117 111.319 14.5467C111.319 15.5816 111.642 16.428 112.289 17.0858Z" fill="#716E98"/>
<path d="M122.139 9.87451H124.106C124.846 9.87451 125.493 9.93749 126.046 10.0634C126.605 10.1928 127.132 10.4381 127.59 10.7836C128.159 11.2085 128.615 11.7655 128.919 12.4064C129.234 13.0594 129.391 13.7733 129.391 14.5482C129.391 16.1804 128.763 17.4348 127.508 18.3114C127.002 18.666 126.487 18.9038 125.964 19.0248C125.44 19.1457 124.812 19.2063 124.081 19.2065H122.141L122.139 9.87451ZM123.572 11.2175V17.8624H124.19C125.258 17.8624 126.087 17.6432 126.678 17.2048C127.53 16.5611 127.956 15.6751 127.956 14.5468C127.956 13.969 127.837 13.4422 127.597 12.9664C127.358 12.4906 127.056 12.1222 126.691 11.8612C126.091 11.4323 125.257 11.2179 124.189 11.2179L123.572 11.2175Z" fill="#716E98"/>
<path d="M138.101 19.205L137.118 16.9547H133.113L132.087 19.2068H130.543L135.208 9.32922L139.649 19.2068L138.101 19.205ZM133.703 15.6099H136.541L135.15 12.4491L133.703 15.6099Z" fill="#716E98"/>
<path d="M142.64 19.2051V15.1764L139.563 9.87451H141.193L143.357 13.61L145.521 9.87451H147.151L144.074 15.1764V19.2051H142.64Z" fill="#716E98"/>
</svg>
