<svg width="147" height="44" viewBox="0 0 147 44" fill="none" xmlns="http://www.w3.org/2000/svg">
<path d="M121.705 1.23304C114.314 0.436989 103.453 0.380129 94.4691 1.17618C89.977 1.57421 85.9399 2.14282 82.9832 2.93887C82.0734 3.16632 81.2205 3.45062 80.5381 3.73492C80.0264 3.73492 79.5715 3.73492 79.1166 3.73492C79.0029 3.22318 78.8892 2.76829 78.7186 2.42712C78.548 2.0291 78.2637 1.68793 77.8657 1.57421C77.4676 1.46049 77.0127 1.63107 76.6716 1.91537C76.2736 2.25654 75.9324 2.59771 75.7618 2.93887C75.7049 3.10945 75.6481 3.3369 75.7049 3.50748C75.7618 3.73492 75.8755 3.84865 76.0461 4.01923C76.3304 4.24667 76.7284 4.3604 77.1833 4.47412C77.5245 4.53098 77.9225 4.58784 78.3206 4.58784C78.3206 4.75842 78.3774 4.929 78.3774 5.09959C78.0931 5.44075 77.9225 5.83878 77.9225 6.23681C77.9225 7.31717 77.8088 9.25044 77.6382 11.6955C77.5814 12.2072 77.5814 12.719 77.5245 13.2307C77.2971 16.3581 77.0696 19.9972 77.0696 23.5225C77.0696 26.9911 77.2402 30.4027 77.9225 32.9046C78.2637 34.1555 78.7186 35.2359 79.2872 35.9751C79.8558 36.6574 80.5381 37.0554 81.3342 37.1692C81.6185 41.4906 85.485 43.6513 89.1241 43.7082C91.0006 43.7082 92.9338 43.1396 94.3553 41.9455C95.72 40.8083 96.6298 39.1024 96.6866 36.8849C98.8474 36.7711 101.634 36.6006 104.647 36.4868C105.955 36.6006 107.32 36.7143 108.684 36.828H108.798C113.347 37.2829 118.123 37.7378 122.729 36.8849C123.923 36.8849 124.89 36.7143 125.629 36.5437H125.686C125.743 36.5437 125.743 36.5437 125.799 36.5437C126.084 36.4868 126.368 36.43 126.596 36.3731C126.709 36.3731 126.823 36.3162 126.88 36.3162C127.164 40.5808 130.689 43.1964 134.158 43.4239C135.921 43.5376 137.74 43.0827 139.105 41.8886C139.844 41.2063 140.47 40.2965 140.811 39.2162C141.209 38.477 141.493 37.6809 141.607 36.7143C143.313 36.828 145.189 36.0319 146.213 33.985C147.122 32.1654 147.35 29.3224 146.326 25.3989C146.099 23.9774 145.701 22.3853 145.132 20.5658V20.5089L145.075 20.452C144.564 19.656 143.824 19.2011 143.028 18.9168C141.436 18.0639 139.617 17.5521 137.74 17.3247C135.409 15.562 132.907 11.9798 130.974 3.39376C130.803 2.59771 130.348 2.08596 129.666 1.80165C129.041 1.51735 128.244 1.46049 127.335 1.40363C126.766 1.40363 126.084 1.40363 125.401 1.40363C125.06 1.40363 124.662 1.40363 124.321 1.40363C123.98 1.40363 123.639 1.40363 123.241 1.40363C122.843 1.40363 122.274 1.34676 121.705 1.23304ZM122.274 2.3134C122.615 2.3134 123.013 2.3134 123.354 2.37026C125.06 2.59771 126.539 2.88201 127.619 3.22318C128.358 3.45062 128.927 3.67806 129.268 3.96237C129.666 4.18981 129.78 4.41726 129.78 4.58784C130.405 9.42102 131.486 12.6621 132.793 14.8228C133.476 15.9032 134.158 16.6992 134.954 17.3247C134.67 17.3247 134.385 17.3247 134.044 17.3816C130.803 17.5521 127.676 18.2913 125.345 19.0874C125.345 18.6894 125.288 18.2345 125.231 17.7796C125.06 16.3581 124.776 14.7091 124.378 13.0601C124.321 12.6052 124.264 12.0935 124.15 11.5817C123.752 8.34066 122.956 4.929 122.274 2.3134ZM106.524 1.51735C102.486 1.51735 98.3356 1.74479 94.5259 2.08596C90.4319 2.42712 86.736 2.93887 83.9498 3.6212C85.9968 3.45062 88.3281 3.22318 90.8868 2.99573C91.7966 2.88201 92.7632 2.82515 93.7299 2.71143C97.8807 2.25654 102.316 1.80165 106.524 1.51735ZM80.7087 4.6447C83.3812 4.58784 86.9634 4.24667 90.9437 3.84865C91.8535 3.73493 92.8201 3.67806 93.7867 3.56434C97.9944 3.10945 102.543 2.65457 106.865 2.37026C112.039 1.97224 116.929 1.85851 120.511 2.19968C120.739 2.93887 120.966 3.73492 121.194 4.6447C121.876 7.03286 122.672 9.87591 123.298 12.5484C123.354 12.7758 123.411 12.9464 123.468 13.1738C123.639 14.3679 123.696 15.4483 123.752 16.4718C123.809 17.8933 123.696 19.0874 123.411 19.8834C123.354 19.9972 123.298 20.1109 123.241 20.2246C122.843 19.5991 122.445 19.1442 121.99 18.8599C121.478 18.5188 120.909 18.3482 120.398 18.3482C119.943 18.3482 119.431 18.5756 119.204 18.9737C118.919 19.3717 119.033 19.8834 119.317 20.3383C119.602 20.7932 120.17 21.1912 121.023 21.5324C121.705 21.8167 122.388 21.8736 122.956 21.6461C123.184 22.2147 123.354 22.9539 123.468 23.8637C123.752 26.3087 123.411 29.9478 121.876 35.2359C117.157 35.179 110.561 35.4065 104.761 35.6908C101.975 35.5202 99.3022 35.4633 96.7435 35.9182C96.3455 31.4262 92.5927 29.0949 88.9536 29.0949C87.0203 29.0949 85.1439 29.7204 83.7223 30.9713C82.5283 32.0517 81.6754 33.6438 81.4479 35.6339C81.3342 35.4633 81.1636 35.2359 81.0499 35.0084C80.595 34.0418 80.2538 32.6203 79.9695 30.8576C79.5146 27.3891 79.4578 22.7265 79.4578 18.1776C79.4578 17.3816 79.4578 16.5855 79.4578 15.7894C79.4578 12.0935 79.5146 8.62497 79.2872 6.06622C79.2872 5.83878 79.2303 5.6682 79.2303 5.49761C79.4009 5.38389 79.5715 5.21331 79.7989 5.09959C80.1401 4.929 80.4244 4.81528 80.7087 4.6447ZM78.7186 10.2739C78.6617 10.7857 78.6617 11.2974 78.6049 11.866C78.548 12.3778 78.548 12.8895 78.4911 13.4013C78.2637 16.5286 78.0363 20.1677 78.0363 23.6363C78.0363 27.1048 78.2068 30.4027 78.8323 32.7909C79.1166 33.985 79.5715 34.8947 80.0832 35.5202C80.3107 35.8045 80.5381 35.9751 80.7656 36.1457C80.595 35.9182 80.4813 35.6908 80.3107 35.4065C79.7989 34.3261 79.4009 32.7909 79.1735 31.0282C78.6617 27.4459 78.6617 22.7833 78.6617 18.1776C78.6617 17.3816 78.6617 16.5855 78.6617 15.7894C78.7186 13.8562 78.7186 11.9798 78.7186 10.2739ZM82.3577 37.1692C82.4145 37.9084 82.5851 38.5338 82.8694 39.1593C82.5851 38.5907 82.4145 37.9084 82.3577 37.1692ZM94.071 31.8811C92.7632 30.6302 90.8868 29.9478 89.0673 29.9478C87.3614 29.9478 85.6556 30.5164 84.4047 31.6537C83.2675 32.6772 82.4714 34.2693 82.3577 36.3731C82.3577 36.3731 82.3577 36.3731 82.4145 36.3731C82.4714 34.383 83.3243 32.8477 84.5184 31.8242C85.8262 30.7439 87.532 30.2321 89.2947 30.2321C90.9437 30.2321 92.7064 30.8007 94.071 31.8811ZM111.357 36.2594C115.11 36.6006 118.862 36.7711 122.558 36.1457V36.0888C122.445 36.0888 122.388 36.0888 122.274 36.0888C119.26 36.0319 115.337 36.0888 111.357 36.2594ZM127.05 35.4065C126.254 35.2928 125.117 35.2359 123.752 35.179C124.321 33.132 124.492 30.5733 124.605 28.242C124.605 27.6165 124.662 26.9911 124.662 26.4224C124.662 25.6264 124.719 24.9441 124.776 24.2617C124.833 23.1814 124.89 22.3853 125.06 21.8736C127.392 20.9638 130.917 19.8266 134.556 19.5423C138.252 19.2011 141.891 19.7697 144.507 22.1579C145.018 23.4088 145.416 24.6029 145.701 25.6264C146.326 29.2086 146.042 31.4262 145.36 32.7909C144.905 33.7006 144.279 34.2124 143.597 34.4967C143.028 34.7241 142.403 34.7241 141.891 34.6673C141.607 32.3928 140.583 30.687 139.162 29.6067C137.683 28.4694 135.864 28.0146 134.044 28.1283C131.599 28.2989 129.211 29.6635 127.96 31.9948C127.392 32.8477 127.05 34.0418 127.05 35.4065ZM140.185 38.8181C139.901 39.3867 139.503 39.8416 139.105 40.2397C137.911 41.3769 136.262 41.9455 134.613 42.0023C131.258 42.0592 128.017 39.8985 127.903 35.9182C127.903 34.4967 128.188 33.2458 128.756 32.2223C129.041 31.7674 129.325 31.3693 129.666 31.0282C130.746 29.9478 132.282 29.4361 133.817 29.4361C136.887 29.4929 140.128 31.6537 140.526 36.0888C140.526 37.1692 140.413 38.0789 140.185 38.8181ZM140.754 33.4163C139.844 31.1419 138.138 29.6635 136.205 29.038C137.058 29.2655 137.911 29.6067 138.65 30.1753C139.56 30.9145 140.299 31.9948 140.754 33.4163ZM141.834 35.8614C142.915 35.9182 144.109 35.5202 144.962 34.5536C144.62 34.8379 144.222 35.0653 143.824 35.2359C143.142 35.5202 142.46 35.5202 141.834 35.4633C141.891 35.5771 141.891 35.7476 141.834 35.8614ZM136.376 17.211C134.385 15.2777 132.395 11.9798 130.803 5.78192C131.429 9.76219 132.395 12.4347 133.533 14.2542C134.442 15.7326 135.409 16.6424 136.376 17.211ZM130.348 3.73492C130.178 3.50748 130.007 3.3369 129.723 3.22318C129.268 2.88201 128.586 2.65457 127.846 2.42712C127.733 2.37026 127.619 2.37026 127.448 2.3134C128.301 2.3134 128.984 2.42712 129.439 2.65457C129.893 2.82515 130.178 3.16632 130.291 3.67806C130.348 3.67806 130.348 3.67806 130.348 3.73492ZM137.399 18.6325C136.432 18.5756 135.466 18.6325 134.442 18.6894C131.031 18.9737 127.676 19.9972 125.288 20.9069C125.345 20.6226 125.345 20.2815 125.345 19.9403C127.676 19.1442 130.86 18.4051 134.101 18.2345C134.84 18.1776 135.523 18.1776 136.262 18.2345C136.603 18.2913 136.944 18.4619 137.399 18.6325C137.342 18.5756 137.342 18.6325 137.399 18.6325ZM124.492 20.1677C124.435 20.6795 124.378 21.0775 124.264 21.4187C124.207 21.6461 124.15 21.8736 124.094 22.1579C123.98 21.7598 123.866 21.4187 123.752 21.1344C123.923 20.9069 124.094 20.6226 124.207 20.3383C124.321 20.2815 124.378 20.2246 124.492 20.1677ZM124.492 19.258C124.492 19.258 124.492 19.2011 124.492 19.1442C124.492 19.2011 124.492 19.258 124.492 19.258ZM121.592 19.5423C121.99 19.7697 122.388 20.2246 122.729 20.8501C122.445 20.9638 122.047 21.0207 121.478 20.7363C120.682 20.3952 120.284 20.054 120.113 19.8266C119.943 19.5991 120 19.4285 120 19.4285C120.056 19.3717 120.227 19.258 120.511 19.2011C120.796 19.2011 121.194 19.258 121.592 19.5423ZM77.2402 2.65457C77.5245 2.42712 77.6382 2.48398 77.6382 2.48398C77.6951 2.48398 77.8088 2.59771 77.9225 2.88201C78.0362 3.10945 78.0931 3.39376 78.2068 3.79179C77.8657 3.79179 77.5814 3.73492 77.3539 3.67806C76.899 3.6212 76.6716 3.50748 76.6147 3.45062C76.6147 3.45062 76.6147 3.45062 76.5579 3.39376C76.5579 3.39376 76.5579 3.39376 76.5579 3.3369C76.6716 3.22318 76.8422 2.99573 77.2402 2.65457ZM83.2106 36.7711C83.1537 34.781 83.8929 33.3595 85.0301 32.3928C86.1674 31.4262 87.6458 30.9713 89.2379 31.0282C92.3652 31.085 95.4357 33.0183 95.4926 36.5437C95.5494 38.3064 94.8102 39.671 93.673 40.5808C92.5358 41.4906 91.0005 42.0023 89.4653 42.0592C87.9301 42.1161 86.3379 41.718 85.2007 40.8083C84.0066 39.9554 83.2675 38.6475 83.2106 36.7711Z" fill="#716E98"/>
<path d="M91.9671 37.5672C91.7966 38.3064 91.3417 38.9888 90.6593 39.4437C90.0339 39.8985 89.2947 40.126 88.6123 39.9554C87.93 39.7848 87.3045 39.2731 86.9065 38.5339C86.5085 37.7947 86.3379 36.9418 86.5085 36.2594C86.6791 35.5771 87.1908 34.9516 87.93 34.5536C88.6692 34.1556 89.5221 33.985 90.2045 34.1556C91.626 34.4968 92.3083 36.032 91.9671 37.5672Z" stroke="#716E98" stroke-width="1.5"/>
<path d="M136.831 34.4966C137.229 35.1221 137.399 35.9181 137.342 36.7142C137.229 37.5102 136.888 38.1925 136.319 38.5906C135.75 38.9886 134.897 39.1023 134.044 38.9317C133.192 38.7612 132.452 38.3063 132.054 37.7377C131.656 37.1691 131.599 36.373 131.827 35.5201C132.054 34.6672 132.566 33.928 133.135 33.53C134.386 32.677 135.978 33.1888 136.831 34.4966Z" stroke="#716E98" stroke-width="1.5"/>
<path d="M90.8868 36.6005C90.8868 37.1122 90.7162 37.6808 90.3182 38.1357C89.977 38.5906 89.5221 38.8749 89.0103 38.8749C88.5555 38.8749 87.9869 38.6475 87.5888 38.1926C87.1908 37.7377 86.9065 37.1691 86.9065 36.6573C86.9065 36.2024 87.1339 35.6338 87.5888 35.2358C88.0437 34.8378 88.6123 34.5535 89.1241 34.5535C90.0907 34.5535 90.8299 35.4632 90.8868 36.6005Z" stroke="#716E98" stroke-width="1.5"/>
<path d="M135.636 34.4397C136.034 34.7808 136.319 35.4063 136.432 36.0886C136.546 36.771 136.432 37.3964 136.148 37.7376C135.807 38.0788 135.295 38.3062 134.67 38.3062C134.044 38.3062 133.476 38.1356 133.078 37.7945C132.736 37.4533 132.509 36.9415 132.509 36.3161C132.509 35.6906 132.68 35.122 133.021 34.724C133.76 33.9279 134.897 33.7573 135.636 34.4397Z" stroke="#716E98" stroke-width="1.5"/>
<path d="M84.8596 11.6384C85.5988 11.809 86.2243 11.8658 86.3949 11.6952C86.3949 11.6952 86.4517 11.6384 86.4517 11.4109C86.4517 11.1835 86.4517 10.9561 86.5086 10.7855C86.3949 10.7286 86.2811 10.6718 86.1674 10.6718C85.8262 10.558 85.4282 10.7855 84.9165 11.0698C84.9165 11.0698 84.8596 11.0698 84.8596 11.1266C84.8596 11.1835 84.8596 11.2404 84.8596 11.2972C84.8596 11.3541 84.8596 11.5247 84.8596 11.6384Z" fill="#716E98"/>
<path d="M93.1045 11.0697C93.1045 11.0129 93.1045 10.956 93.1045 10.8423C93.1045 11.4678 93.0477 12.4344 92.5928 13.1736C92.8771 12.8893 93.1614 12.0364 93.1045 11.0697Z" fill="#716E98"/>
<path d="M90.0908 6.06604C87.5321 6.06604 85.3713 7.94245 84.9165 10.3875C85.4282 10.1032 85.8831 9.93259 86.338 10.1032C86.4517 10.16 86.5654 10.16 86.6223 10.2169C86.7929 9.81886 87.0203 9.42084 87.3046 9.07967C87.4183 8.85223 87.5321 8.62478 87.7026 8.4542C87.987 8.1699 88.385 8.05617 88.8967 7.99931C89.6359 7.71501 90.4888 7.60129 91.3417 7.71501C92.6495 8.11303 93.4456 9.30711 93.5593 10.9561C93.6162 12.0933 93.275 13.458 92.479 13.7991C92.1947 13.856 91.9104 13.9129 91.6829 13.9697C91.228 14.254 90.6594 14.3677 90.0339 14.3677C89.7496 14.3677 89.4085 14.3109 89.0104 14.254C87.8732 14.0266 87.1909 13.7423 86.8497 13.2305C86.5654 12.8325 86.6223 12.4345 86.6791 12.0364C86.338 12.3207 85.6556 12.3207 84.8027 12.1502C85.2576 14.5383 87.3615 16.3579 89.9202 16.4147C92.8201 16.4147 95.1514 14.0834 95.1514 11.2404C95.322 8.39734 92.9907 6.06604 90.0908 6.06604Z" fill="#716E98"/>
<path d="M91.5692 13.4579C91.6829 13.401 91.7398 13.3442 91.7967 13.2305C92.8202 12.207 92.4221 10.16 92.4221 10.16V10.0462C92.3084 9.5345 92.1947 8.79531 90.6026 8.62473C90.034 8.56786 89.5222 8.511 89.1811 8.56786C88.7262 8.73845 88.3281 8.96589 88.0438 9.30706L87.987 9.36392C87.9301 9.5345 87.9301 9.76194 87.9301 10.0462C87.9301 10.3306 87.9301 10.6717 87.8733 10.956C87.8164 11.8089 87.7027 12.6619 88.2713 13.1736C88.7262 13.6853 89.8634 13.7422 91.5692 13.4579Z" fill="#716E98"/>
<path d="M87.2479 10.3307C87.191 10.3876 87.191 10.5016 87.134 10.5585L87.191 10.6155C87.2479 10.5016 87.2479 10.3876 87.2479 10.3307Z" fill="#716E98"/>
<path d="M84.0635 11.4678C84.3478 11.3541 84.6321 11.1835 84.9164 11.0698C84.9164 10.8423 84.9733 10.6149 84.9733 10.3875C84.9164 10.4443 84.8027 10.4443 84.7459 10.5012C84.2341 10.7855 83.6655 11.0698 82.9263 11.1835C82.1871 11.0129 81.5048 10.8992 80.8225 10.8992C80.3676 10.7286 79.8558 10.4443 79.2872 10.1031L78.946 10.558C79.2303 10.7286 79.4578 10.8992 79.6852 11.0129C79.4009 11.0698 79.1735 11.1835 78.946 11.3541L79.2303 11.809C79.6284 11.5815 80.1401 11.4678 80.6519 11.4678C81.5048 11.7521 82.1871 11.809 82.8126 11.7521C83.1538 11.809 83.4949 11.9227 83.7792 11.9796C84.1773 12.0933 84.5753 12.1501 84.9164 12.207C84.8596 12.0364 84.8596 11.809 84.8596 11.6384C84.6321 11.5815 84.3478 11.5247 84.0635 11.4678Z" fill="#716E98"/>
<path d="M86.7929 12.1502C86.7361 12.5482 86.7361 12.9462 86.9635 13.3442C87.3047 13.7991 87.987 14.1403 89.1242 14.3677C89.4654 14.4246 89.8066 14.4815 90.1477 14.4815C90.7732 14.4815 91.3418 14.3677 91.7967 14.0834C92.081 14.0266 92.3084 13.9697 92.5928 13.9129C93.3319 13.6286 93.6731 12.2639 93.6731 11.0698C93.6163 9.42084 92.8202 8.1699 91.4555 7.82873C90.6026 7.71501 89.7497 7.82873 89.0105 8.11304C88.4988 8.1699 88.1007 8.28362 87.8164 8.56793C87.6459 8.73851 87.5321 8.90909 87.4184 9.1934C87.0772 9.53456 86.8498 9.93259 86.7361 10.3306C86.6224 10.2738 86.5655 10.2738 86.4518 10.2169C85.9969 10.0463 85.542 10.2738 85.0302 10.5012C84.9734 10.7286 84.9734 10.9561 84.9734 11.1835C84.9734 11.1835 85.0302 11.1835 85.0302 11.1267C85.542 10.8424 85.94 10.6718 86.2812 10.7286C86.3949 10.7855 86.5086 10.8424 86.6224 10.8424C86.5655 11.0698 86.5655 11.2973 86.5655 11.4678C86.5655 11.6953 86.5086 11.6953 86.5086 11.7521C86.2812 11.9227 85.6557 11.8659 84.9734 11.6953C84.9734 11.9227 85.0302 12.0933 85.0302 12.2639C85.7694 12.3776 86.4518 12.4345 86.7929 12.1502ZM93.1045 10.8424C93.1045 10.8992 93.1045 11.0129 93.1045 11.0698C93.1614 12.0364 92.8771 12.8894 92.5928 13.2305C93.0476 12.4345 93.1045 11.4678 93.1045 10.8424ZM87.8164 11.0129C87.8164 10.6718 87.8733 10.3875 87.8733 10.1032C87.8733 9.81887 87.8733 9.59142 87.9302 9.42084L87.987 9.36398C88.3282 9.07968 88.7262 8.79537 89.1242 8.62479C89.5223 8.62479 89.9772 8.62479 90.5458 8.68165C92.1379 8.85223 92.3085 9.59142 92.3653 10.1032V10.2169C92.3653 10.2169 92.7633 12.2639 91.7398 13.2874C91.683 13.3442 91.5693 13.458 91.5124 13.5148C89.8066 13.7991 88.6694 13.7423 88.1007 13.2874C87.6459 12.7188 87.7027 11.8659 87.8164 11.0129ZM87.2478 10.3306C87.2478 10.4443 87.2478 10.5581 87.2478 10.6718L87.191 10.6149C87.191 10.4443 87.2478 10.3875 87.2478 10.3306Z" fill="white"/>
<path d="M1.21695 14.3677C1.50126 14.652 1.84242 14.8794 2.18359 15.05C2.58161 15.2206 3.0365 15.2774 3.49139 15.2774C3.94628 15.2774 4.3443 15.2206 4.74233 15.05C5.14036 14.8794 5.48152 14.7088 5.70897 14.4245C5.99327 14.1402 6.22072 13.799 6.3913 13.4579C6.56188 13.0599 6.61874 12.6618 6.61874 12.1501V9.36389H3.43453V10.7854H5.0835V12.2069C5.0835 12.4344 5.02664 12.6618 4.96977 12.8324C4.91291 13.003 4.79919 13.1736 4.62861 13.3442C4.51489 13.4579 4.3443 13.5716 4.11686 13.6853C3.71883 13.8559 3.15022 13.8559 2.7522 13.6853C2.63848 13.6285 2.46789 13.4579 2.35417 13.3442C2.24045 13.1736 2.12673 13.003 2.06987 12.8324C2.01301 12.605 1.95614 12.4344 1.95614 12.2069V7.77179C1.95614 7.54434 2.01301 7.3169 2.06987 7.14631C2.06987 6.91887 2.18359 6.74829 2.35417 6.63457C2.46789 6.46398 2.63848 6.35026 2.86592 6.2934C3.0365 6.17968 3.32081 6.17968 3.54825 6.17968C3.94628 6.17968 4.28744 6.2934 4.51489 6.46398C4.79919 6.69143 4.91291 6.91887 5.02664 7.26004L5.0835 7.43062L6.56188 6.91887L6.50502 6.74829C6.33444 6.06596 5.93641 5.55421 5.42466 5.21304C4.91291 4.87188 4.28744 4.70129 3.54825 4.70129C3.0365 4.70129 2.63848 4.75815 2.24045 4.92874C1.84242 5.09932 1.50126 5.32676 1.27381 5.61107C0.989508 5.89537 0.818925 6.23654 0.648342 6.63457C0.53462 7.03259 0.420898 7.43062 0.420898 7.88551V12.1501C0.420898 12.605 0.477759 13.0599 0.648342 13.4579C0.762064 13.7422 0.932647 14.0834 1.21695 14.3677Z" fill="#716E98"/>
<path d="M12.4757 10.4445C13.0443 10.217 13.4423 9.87586 13.7266 9.42097C14.0109 8.90922 14.1815 8.34062 14.1815 7.65828C14.1815 6.69165 13.9541 5.95246 13.4423 5.44071C12.9306 4.92896 12.2482 4.64465 11.3953 4.64465H8.04053V15.1639H9.57577V10.6719H10.9973L12.7031 15.1639H14.3521L12.4757 10.4445ZM11.1679 9.30725H9.51891V6.06618H11.111C11.6228 6.06618 12.0208 6.1799 12.2482 6.4642C12.4757 6.74851 12.5894 7.14654 12.5894 7.65828C12.5894 8.17003 12.4757 8.56806 12.1914 8.85236C12.0208 9.19353 11.6796 9.30725 11.1679 9.30725Z" fill="#716E98"/>
<path d="M21.1187 13.6854H16.911V10.5581H20.4932V9.19343H16.911V6.12294H21.1187V4.70142H15.4326V15.1638H21.1187V13.6854Z" fill="#716E98"/>
<path d="M27.771 13.6854H23.5633V10.5581H27.1456V9.19343H23.5633V6.12294H27.771V4.70142H22.0281V15.1638H27.771V13.6854Z" fill="#716E98"/>
<path d="M30.2164 8.22679L31.0125 9.76204L33.9692 15.1638H35.3907V4.70142H33.8555V11.6953L33.0026 10.0463L30.1027 4.70142H28.6812V15.1638H30.2164V8.22679Z" fill="#716E98"/>
<path d="M42.4982 13.6854H38.461V4.70142H36.9258V15.1638H42.4982V13.6854Z" fill="#716E98"/>
<path d="M44.9435 4.70142H43.4082V15.1638H44.9435V4.70142Z" fill="#716E98"/>
<path d="M49.3783 10.7856H51.0273V12.2072C51.0273 12.4346 50.9705 12.662 50.9136 12.8326C50.8567 13.0032 50.743 13.1738 50.5724 13.3444C50.4587 13.4581 50.2881 13.5718 50.0607 13.6855C49.6627 13.8561 49.094 13.8561 48.696 13.6855C48.4686 13.5718 48.3549 13.4581 48.1843 13.2875C48.0705 13.1169 47.9568 12.9464 47.9 12.7758C47.8431 12.5483 47.7862 12.3777 47.7862 12.1503V7.77201C47.7862 7.54456 47.8431 7.31712 47.9 7.14654C47.9568 6.91909 48.0705 6.74851 48.1843 6.63479C48.298 6.4642 48.4686 6.35048 48.696 6.29362C48.8666 6.1799 49.1509 6.1799 49.3783 6.1799C49.7764 6.1799 50.1175 6.29362 50.345 6.4642C50.6293 6.69165 50.743 6.91909 50.8567 7.26026L50.9136 7.43084L52.392 6.91909V6.69165C52.2214 6.00932 51.8234 5.49757 51.3116 5.1564C50.7999 4.81524 50.1744 4.64465 49.4352 4.64465C48.9235 4.64465 48.5254 4.70151 48.1274 4.8721C47.7294 5.04268 47.3882 5.27012 47.1608 5.55443C46.8765 5.83873 46.7059 6.1799 46.5353 6.57793C46.4216 6.97595 46.3079 7.37398 46.3079 7.82887V12.0934C46.3079 12.5483 46.3647 13.0032 46.5353 13.4012C46.7059 13.7993 46.8765 14.1404 47.1608 14.4247C47.4451 14.709 47.7862 14.9365 48.1274 15.1071C48.5254 15.2777 48.9803 15.3345 49.4352 15.3345C49.8901 15.3345 50.2881 15.2777 50.6862 15.1071C51.0842 14.9365 51.4253 14.7659 51.6528 14.4816C51.9371 14.1973 52.1645 13.8561 52.3351 13.515C52.5057 13.1169 52.5626 12.7189 52.5626 12.2072V9.42097H49.3783V10.7856Z" fill="#716E98"/>
<path d="M55.4625 10.5581H58.5898V15.1638H60.1251V4.70142H58.5898V9.19343H55.4625V4.70142H53.9272V15.1638H55.4625V10.5581Z" fill="#716E98"/>
<path d="M60.7505 4.70142V6.12294H63.0818V15.1638H64.617V6.12294H66.9483V4.70142H60.7505Z" fill="#716E98"/>
<path d="M0.364258 22.6696H4.74255V39.8984H7.24443V22.6696H11.6227V20.3951H0.364258V22.6696Z" fill="#716E98"/>
<path d="M14.5227 39.8984H24.9283V37.5103H16.9677V31.1419H23.7342V28.9243H16.9677V22.7264H24.9283V20.3951H14.5227V39.8984Z" fill="#716E98"/>
<path d="M38.3473 31.0281C38.0061 30.5733 37.5512 30.1752 36.9257 29.8341C36.3571 29.4929 35.6179 29.2086 34.8219 28.9243C34.1964 28.7537 33.6278 28.5263 33.1161 28.3557C32.6043 28.1851 32.1494 27.9577 31.7514 27.6733C31.3534 27.4459 31.0691 27.1616 30.8416 26.8204C30.6142 26.4793 30.5004 26.0812 30.5004 25.5695C30.5004 24.7166 30.7279 23.9774 31.2396 23.4088C31.6945 22.8402 32.4906 22.5559 33.5141 22.5559C34.367 22.5559 35.0493 22.6696 35.6179 22.9539C36.1297 23.2382 36.6414 23.6931 36.9826 24.3185L37.0395 24.3754L39.0865 22.9539L39.1433 22.897L39.0865 22.8402C38.6316 22.0441 38.0061 21.4186 37.0963 20.9069C36.2434 20.3951 35.0493 20.1108 33.6278 20.1108C32.7749 20.1108 31.9788 20.2246 31.2965 20.5089C30.6142 20.7932 29.9887 21.1343 29.5338 21.6461C29.0221 22.101 28.6809 22.6696 28.3966 23.3519C28.1123 23.9774 27.9986 24.7166 27.9986 25.5126C27.9986 26.2518 28.1123 26.9342 28.2829 27.4459C28.4535 28.0145 28.7946 28.5263 29.2495 28.9243C29.7044 29.3792 30.2161 29.7203 30.8985 30.0615C31.5808 30.4027 32.3769 30.687 33.3435 30.9713C33.8552 31.1419 34.3101 31.3124 34.765 31.483C35.163 31.6536 35.5611 31.8811 35.8454 32.1654C36.1297 32.3928 36.3571 32.734 36.5277 33.0751C36.6983 33.4163 36.7552 33.8712 36.7552 34.3829C36.7552 35.2927 36.5277 36.0319 36.016 36.6574C35.5042 37.226 34.6513 37.5672 33.5141 37.5672C32.5474 37.5672 31.7514 37.3397 31.1259 36.8848C30.5004 36.4299 29.9887 35.8613 29.6475 35.2359V35.2927L27.5437 36.5437L27.4868 36.6005L27.5437 36.6574C28.0554 37.7377 28.7946 38.5907 29.8181 39.2161C30.8416 39.8416 32.0926 40.1259 33.6278 40.1259C35.4474 40.1259 36.9257 39.6141 37.8924 38.6475C38.9159 37.6809 39.4276 36.3162 39.4276 34.6104C39.4276 33.8712 39.3708 33.2457 39.2002 32.6771C38.9727 31.9948 38.6884 31.483 38.3473 31.0281Z" fill="#716E98"/>
<path d="M41.4749 22.6696H45.8531V39.8984H48.355V22.6696H52.7333V20.3951H41.4749V22.6696Z" fill="#716E98"/>
<path d="M65.7545 31.0281C65.4133 30.5733 64.9584 30.1752 64.3329 29.8341C63.7643 29.4929 63.0251 29.2086 62.2291 28.9243C61.6036 28.7537 61.035 28.5263 60.5233 28.3557C60.0115 28.1851 59.5566 27.9577 59.1586 27.6733C58.7606 27.4459 58.4763 27.1616 58.2488 26.8204C58.0214 26.4793 57.9076 26.0812 57.9076 25.5695C57.9076 24.7166 58.1351 23.9774 58.6468 23.4088C59.1017 22.8402 59.8978 22.5559 60.9213 22.5559C61.7742 22.5559 62.4565 22.6696 63.0251 22.9539C63.5369 23.2382 64.0486 23.6931 64.3898 24.3185L64.4467 24.3754L66.4937 22.9539L66.5505 22.897L66.4937 22.8402C66.0388 22.0441 65.4133 21.4186 64.5035 20.9069C63.6506 20.3951 62.4565 20.1108 61.035 20.1108C60.1821 20.1108 59.386 20.2246 58.7037 20.5089C58.0214 20.7932 57.3959 21.1343 56.941 21.6461C56.4293 22.101 56.0881 22.6696 55.8038 23.3519C55.5195 23.9774 55.4058 24.7166 55.4058 25.5126C55.4058 26.2518 55.5195 26.9342 55.6901 27.4459C55.8607 28.0145 56.2018 28.5263 56.6567 28.9243C57.1116 29.3792 57.6233 29.7203 58.3057 30.0615C58.988 30.4027 59.7841 30.687 60.7507 30.9713C61.2624 31.1419 61.7173 31.3124 62.1722 31.483C62.5702 31.6536 62.9683 31.8811 63.2526 32.1654C63.5369 32.3928 63.7643 32.734 63.9349 33.0751C64.1055 33.4163 64.1624 33.8712 64.1624 34.3829C64.1624 35.2927 63.9349 36.0319 63.4232 36.6574C62.9114 37.226 62.0585 37.5672 60.9213 37.5672C59.9546 37.5672 59.1586 37.3397 58.5331 36.8848C57.9076 36.4299 57.3959 35.8613 57.0547 35.2359L56.9979 35.179L54.894 36.4299L54.8372 36.4868L54.894 36.5437C55.4058 37.624 56.145 38.4769 57.1685 39.1024C58.192 39.7279 59.4429 40.0122 60.9781 40.0122C62.7977 40.0122 64.2761 39.5004 65.2427 38.5338C66.2662 37.5672 66.778 36.2025 66.778 34.4967C66.778 33.7575 66.7211 33.132 66.5505 32.5634C66.3799 31.9948 66.0956 31.483 65.7545 31.0281Z" fill="#716E98"/>
</svg>
