<svg width="118" height="42" viewBox="0 0 118 42" fill="none" xmlns="http://www.w3.org/2000/svg">
<g clip-path="url(#clip0_329_850)">
<path d="M7.51598 29.4856C8.0075 30.7963 8.68799 31.917 9.55759 32.8477C10.4272 33.7785 11.4574 34.4908 12.6482 34.9847C13.8392 35.4786 15.1341 35.7255 16.5329 35.7255C17.8941 35.7255 19.17 35.469 20.3609 34.9561C21.5519 34.4431 22.5915 33.7214 23.4799 32.7907C24.3684 31.8599 25.0584 30.7488 25.5499 29.4571C26.0414 28.1654 26.2871 26.7219 26.2871 25.1262V0.508423H32.2417V40.3982H26.3438V36.6941C25.0206 38.0997 23.461 39.1824 21.6652 39.9424C19.8693 40.7021 17.9318 41.082 15.8524 41.082C13.7352 41.082 11.7598 40.7116 9.92613 39.9708C8.09257 39.23 6.50459 38.1758 5.16254 36.8081C3.8205 35.4404 2.7618 33.7975 1.98682 31.8789C1.21171 29.9604 0.824219 27.8235 0.824219 25.468V0.508423H6.77877V25.1262C6.77877 26.7219 7.02446 28.1748 7.51598 29.4856Z" fill="#716E98"/>
<path d="M42.5057 0.508423V15.0397C43.829 13.71 45.3602 12.6559 47.0993 11.877C48.8384 11.0982 50.7288 10.7088 52.7703 10.7088C54.8875 10.7088 56.8722 11.1076 58.7248 11.9054C60.5773 12.7032 62.184 13.7859 63.5451 15.1537C64.9062 16.5214 65.9838 18.1359 66.7777 19.9974C67.5716 21.859 67.9685 23.8345 67.9685 25.924C67.9685 28.0133 67.5716 29.9793 66.7777 31.8218C65.9838 33.6644 64.9062 35.2695 63.5451 36.637C62.184 38.0047 60.5773 39.0875 58.7248 39.8853C56.8722 40.6831 54.8874 41.0819 52.7703 41.0819C50.7287 41.0819 48.829 40.6925 47.071 39.9137C45.3129 39.1349 43.7723 38.0806 42.449 36.751V40.3981H36.7781V0.508423H42.5057ZM43.1579 29.8559C43.6682 31.0717 44.3772 32.1354 45.2846 33.0472C46.1919 33.9589 47.2505 34.6808 48.4603 35.2127C49.6702 35.7445 50.9745 36.0105 52.3734 36.0105C53.7345 36.0105 55.0198 35.7445 56.2296 35.2127C57.4394 34.6808 58.4884 33.9591 59.3771 33.0472C60.2655 32.1355 60.9743 31.0717 61.5036 29.8559C62.0329 28.6402 62.2976 27.3296 62.2976 25.924C62.2976 24.5183 62.0329 23.1981 61.5036 21.9634C60.9743 20.7287 60.2655 19.6555 59.3771 18.7438C58.4885 17.8321 57.4395 17.1197 56.2296 16.6069C55.0197 16.0941 53.7344 15.8375 52.3734 15.8375C51.0124 15.8375 49.7269 16.0939 48.5171 16.6069C47.3074 17.1198 46.2488 17.8321 45.3413 18.7438C44.434 19.6555 43.7157 20.7287 43.1864 21.9634C42.6571 23.1981 42.3924 24.5183 42.3924 25.924C42.3923 27.3296 42.6475 28.6402 43.1579 29.8559Z" fill="#716E98"/>
<path d="M71.2004 20.0545C71.9564 18.2309 72.9963 16.6259 74.3194 15.2392C75.6425 13.8526 77.2117 12.7604 79.0264 11.9626C80.8411 11.1648 82.8071 10.766 84.9242 10.766C87.0036 10.766 88.9318 11.1459 90.7087 11.9056C92.4856 12.6654 94.0167 13.7197 95.3022 15.0684C96.5876 16.4169 97.5896 18.0126 98.3078 19.8551C99.0261 21.6977 99.3853 23.7017 99.3853 25.8672V27.7477H75.8507C76.0398 28.9254 76.4179 30.0176 76.9849 31.0242C77.5521 32.0309 78.2608 32.9048 79.1115 33.6456C79.9621 34.3865 80.9262 34.9659 82.0037 35.3836C83.0813 35.8015 84.2248 36.0105 85.4347 36.0105C88.8752 36.0105 91.654 34.5858 93.7712 31.7365L97.911 34.8137C96.4743 36.7512 94.6975 38.2709 92.5803 39.3725C90.4631 40.4742 88.0813 41.0251 85.4348 41.0251C83.2798 41.0251 81.2666 40.6451 79.3952 39.8854C77.5237 39.1257 75.8981 38.0618 74.5182 36.6941C73.1382 35.3264 72.0513 33.7213 71.2574 31.8789C70.4634 30.0364 70.0664 28.0323 70.0664 25.8669C70.0662 23.8155 70.4444 21.878 71.2004 20.0545ZM79.1682 17.8035C77.5614 19.1521 76.4934 20.9472 75.9641 23.1886H93.601C93.1095 20.9472 92.0603 19.1521 90.4535 17.8035C88.8467 16.4549 86.9658 15.7806 84.8109 15.7806C82.6559 15.7806 80.775 16.4549 79.1682 17.8035Z" fill="#716E98"/>
<path d="M110.103 18.4588C108.893 19.7885 108.288 21.593 108.288 23.8725V40.3984H102.561V11.3358H108.232V14.9259C108.95 13.7482 109.886 12.8174 111.039 12.1336C112.192 11.4496 113.562 11.1077 115.15 11.1077H117.135V16.4643H114.753C112.863 16.4644 111.313 17.1292 110.103 18.4588Z" fill="#716E98"/>
</g>
<defs>
<clipPath id="clip0_329_850">
<rect width="116.311" height="40.5736" fill="white" transform="translate(0.824219 0.508423)"/>
</clipPath>
</defs>
</svg>
