<svg width="148" height="63" viewBox="0 0 148 63" fill="none" xmlns="http://www.w3.org/2000/svg">
<path d="M126.591 27.6655C124.134 28.236 117.647 28.553 117.647 28.553L116.85 31.1309C116.85 31.1309 120.062 30.8562 122.413 31.0886C122.413 31.0886 123.169 31.0252 123.253 31.9339C123.295 32.8636 123.19 33.8356 123.19 33.8356C123.19 33.8356 123.127 34.4061 122.35 34.554C121.447 34.7019 115.359 34.9766 115.359 34.9766L114.372 38.3153C114.372 38.3153 114.015 39.076 114.834 38.8646C115.59 38.6533 121.972 37.4278 122.812 37.5968C123.693 37.8081 124.701 39.0337 124.407 40.1325C124.071 41.4637 117.689 45.563 113.826 45.2883C113.826 45.2883 111.79 45.4151 110.09 42.647C108.452 40.0057 110.656 35.04 110.656 35.04C110.656 35.04 109.67 32.7157 110.404 31.8705C110.404 31.8705 110.824 31.5112 112.084 31.4056L113.658 28.1515C113.658 28.1515 111.874 28.2572 110.824 26.9471C109.859 25.6792 109.775 25.1298 110.53 24.7918C111.328 24.3691 118.718 23.0379 123.798 23.207C123.798 23.207 125.583 22.9957 127.157 26.1018C127.157 26.1018 127.871 27.3697 126.612 27.6655M107.444 40.1747C106.815 41.7173 105.072 43.3443 102.973 42.3512C100.831 41.3369 97.4514 34.4061 97.4514 34.4061C97.4514 34.4061 96.1918 31.8282 95.9399 31.9127C95.9399 31.9127 95.667 31.4056 95.52 34.2371C95.3101 37.0474 95.562 42.5202 94.4073 43.3866C93.3577 44.2318 92.098 43.8726 91.3842 42.8794C90.7964 41.8863 90.5445 39.4986 90.8804 35.3359C91.2583 31.1732 92.203 26.7358 93.3996 25.3623C94.6593 23.9677 95.667 24.9819 96.0448 25.3623C96.0448 25.3623 97.6613 26.8414 100.391 31.2154L100.852 32.0184C100.852 32.0184 103.33 36.1811 103.582 36.1599C103.582 36.1599 103.791 36.3713 103.959 36.2022C104.211 36.1388 104.127 34.7865 104.127 34.7865C104.127 34.7865 103.666 30.2857 101.356 22.6787C101.356 22.6787 101.02 21.7067 101.251 20.777C101.461 19.9317 102.364 20.3544 102.364 20.3544C102.364 20.3544 105.849 22.0448 107.549 27.75C109.229 33.4552 108.095 38.6322 107.465 40.1747M90.3556 25.5313C90.0197 26.123 89.8727 26.9471 88.4241 27.1795C88.4241 27.1795 74.3584 28.1726 73.6656 29.1658C73.6656 29.1658 73.2038 29.7574 73.9595 29.9053C74.7573 30.0744 77.9483 30.497 79.4599 30.5815C81.0974 30.5815 86.5977 30.6238 88.6131 33.1172C88.6131 33.1172 89.7677 34.3005 89.7258 36.984C89.6838 39.731 89.2009 40.703 88.1302 41.6961C87.0176 42.6259 77.4865 46.9365 71.3353 40.3438C71.3353 40.3438 68.5222 37.1742 72.322 34.7653C72.322 34.7653 75.0512 33.0749 82.0421 35.04C82.0421 35.04 84.1414 35.8007 84.0575 36.5826C83.9315 37.4278 82.315 38.273 79.9637 38.2307C77.6964 38.1673 76.0169 37.0686 76.3528 37.2587C76.6677 37.3644 73.8965 35.9064 73.0358 36.8995C72.1961 37.8293 72.406 38.3786 73.2457 38.9492C75.3451 40.1747 83.5956 39.731 86.0519 36.9629C86.0519 36.9629 87.0386 35.843 85.548 34.9344C84.0785 34.0892 79.7958 33.5609 78.1373 33.4975C76.5627 33.413 70.6635 33.4975 69.7818 31.955C69.7818 31.955 68.942 30.8562 69.8658 27.8557C70.8315 24.6861 77.6964 23.4605 80.6775 23.207C80.6775 23.207 88.865 22.8689 90.3975 24.5593C90.3975 24.5593 90.6075 24.9397 90.3556 25.5102M67.1366 44.105C66.1499 44.8446 64.0505 44.5276 63.4417 43.6824C62.8539 42.9428 62.644 40.0268 62.7489 35.4415C62.8959 30.7505 62.9589 25.0031 64.0085 24.0733C65.0582 23.1647 65.688 23.9677 66.1079 24.5805C66.5278 25.2144 67.0736 25.9117 67.1576 27.3697C67.2836 28.8488 67.6404 36.4558 67.6404 36.4558C67.6404 36.4558 68.1023 43.3866 67.1576 44.105M69.236 19.3824C66.3388 20.3755 64.3654 20.0585 62.6859 19.319C61.9512 20.6502 61.5103 21.0517 60.9645 21.1362C60.1247 21.2207 59.3899 19.8684 59.285 19.4457C59.117 19.1288 58.7181 18.5583 59.201 17.2693C57.5635 15.7902 57.4375 13.8039 57.7314 12.4727C58.1093 10.909 60.8805 5.03477 69.2779 4.33746C69.2779 4.33746 73.3927 4.04164 74.1065 6.2392H74.2324C74.2324 6.2392 78.2212 6.2392 78.1373 9.83138C78.1373 13.4236 73.7286 17.9032 69.236 19.4457M72.9728 9.15521C70.3276 9.57782 66.2549 13.1277 64.3025 16.0649C67.3045 16.6143 72.553 16.403 74.9042 11.6275C74.9042 11.6275 76.0169 8.62695 72.9728 9.15521ZM61.3633 11.4796C60.5236 12.853 60.4816 13.6771 60.8805 14.2265C61.8672 12.7474 63.6097 10.423 66.2339 8.60582C64.2185 8.81712 62.518 9.66234 61.3633 11.4796ZM132.889 43.9571C130.957 48.7326 129.32 53.5715 128.375 60.8192C128.375 60.8192 128.165 62.2349 127.01 61.7701C125.856 61.3475 123.966 59.4457 123.547 56.7622C123.127 53.2545 124.68 47.338 127.85 40.534C126.926 39.0548 126.276 36.8573 126.801 33.7722C126.801 33.7722 127.64 28.067 133.309 22.9111C133.309 22.9111 133.98 22.3406 134.358 22.5308C134.82 22.7421 134.631 24.5593 134.253 25.4891C133.917 26.3765 131.398 30.7717 131.398 30.7717C131.398 30.7717 129.824 33.7722 130.264 36.1177C133.246 31.5112 140.027 22.1716 144.225 25.1298C146.891 27.0316 146.891 33.1594 144.897 36.7093C143.323 39.5197 138.872 45.3306 132.931 43.9782M141.664 29.6095C140.11 31.2999 137.339 34.5118 135.156 38.8646C137.465 38.6111 139.712 37.3221 140.404 36.6671C141.517 35.6739 144.078 32.9904 143.679 29.4405C143.679 29.4405 143.427 27.581 141.664 29.6095ZM47.6125 46.4505C40.1808 48.7326 33.1689 47.6761 29.348 46.6618C29.2431 48.2254 29.0751 48.8805 28.8232 49.1341C28.5293 49.4721 26.094 50.8668 24.7504 48.8805C24.1626 47.9296 23.8687 46.218 23.7008 44.6544C15.0934 40.7241 11.1046 34.9344 10.9786 34.7231C10.7687 34.5118 8.81627 32.4621 10.7687 29.9265C12.5951 27.6444 18.6413 25.3411 24.0576 24.4325C24.2676 19.7838 24.7714 16.1917 25.4222 14.6069C26.199 12.7051 27.1857 14.3956 28.0674 15.6634C28.7812 16.6143 29.2221 20.6924 29.2641 23.9465C32.791 23.7775 34.9324 24.0311 38.8582 24.7918C44.0226 25.6792 47.4656 28.3417 47.1926 31.3422C46.9407 34.3005 44.2535 35.526 43.2038 35.6106C42.1542 35.6951 40.4747 34.9132 40.4747 34.9132C39.299 34.3639 40.3697 33.8567 41.7343 33.2651C43.2458 32.5255 42.9099 31.7859 42.9099 31.7859C42.3641 30.0955 35.6671 28.9756 29.0121 28.9756C29.0121 32.6734 29.1591 38.8013 29.2641 42.3723C33.9247 43.2598 37.4096 43.0696 37.4096 43.0696C37.4096 43.0696 54.4145 42.5836 54.8973 31.6592C55.4221 20.7136 37.8925 10.2329 24.9814 6.93651C12.0913 3.5345 4.78549 5.94338 4.15568 6.26033C3.46289 6.59842 4.0927 6.7252 4.0927 6.7252C4.0927 6.7252 4.78549 6.83086 6.04511 7.25347C7.30473 7.67608 6.29703 8.30999 6.29703 8.30999C4.0927 9.07069 1.63644 8.62695 1.15359 7.61268C0.670737 6.61955 1.4685 5.71094 2.41321 4.37972C3.29494 3.00624 4.30264 3.0485 4.30264 3.0485C20.2578 -2.55107 39.7399 7.4859 39.7399 7.4859C57.9624 16.741 61.0694 27.6232 60.7335 31.8493C60.4396 36.012 58.8441 43.0485 47.6125 46.4716M12.5531 31.3422C10.7477 32.1874 12.0073 33.5398 12.0073 33.5398C15.4083 37.1953 19.565 39.4986 23.5538 40.9354C24.0157 34.5963 23.9737 32.3353 23.9737 29.1446C17.8015 29.5672 14.2326 30.5815 12.5531 31.3422Z" fill="#716E98"/>
</svg>
