<svg width="148" height="57" viewBox="0 0 148 57" fill="none" xmlns="http://www.w3.org/2000/svg">
<path d="M29.4017 9.45271L28.0002 9.8809L25.6846 2.31003L27.086 1.88184L29.4017 9.45271Z" fill="#716E98"/>
<path d="M37.5497 1.03137L34.4538 8.93456L33.2336 8.9293L30.21 0.998535L31.7507 1.0051L33.8522 7.0379L36.009 1.02481L37.5497 1.03137Z" fill="#716E98"/>
<path d="M94.3328 8.70084L93.043 9.39698L90.2256 4.18248L91.2829 10.3479L90.1914 10.9377L85.614 6.67414L88.4314 11.8886L87.1415 12.5861L83.3784 5.62073L85.1293 4.67503L89.8525 9.00556L88.8188 2.68118L90.5697 1.73547L94.3328 8.70084Z" fill="#716E98"/>
<path d="M99.9316 8.16182L95.7101 8.63467L94.8301 0.766948L99.0516 0.29541L99.2105 1.71002L96.4457 2.01869L96.6492 3.83654L99.2972 3.54101L99.4548 4.95562L96.8069 5.24984L97.0091 7.05718L99.774 6.74851L99.9316 8.16182Z" fill="#716E98"/>
<path d="M107.457 9.62228L106.033 9.27289L103.879 3.23616L102.605 8.43227L101.181 8.08288L103.067 0.393799L104.491 0.743184L106.645 6.77992L107.919 1.58512L109.343 1.9345L107.457 9.62228Z" fill="#716E98"/>
<path d="M115.167 6.54763L113.885 5.83704L110.739 11.5191L109.457 10.8085L112.603 5.12776L111.321 4.41717L112.01 3.172L115.858 5.30245L115.167 6.54763Z" fill="#716E98"/>
<path d="M11.0267 44.7799C11.0267 49.4138 9.60678 52.6817 6.77099 54.585C5.08186 55.6988 3.12478 56.2557 0.898438 56.2557V49.3061C2.1909 49.4847 3.05385 49.0001 3.48467 47.8508C3.73555 47.2045 3.86164 46.18 3.86164 44.7799V16.4403H11.0267V44.7799ZM11.0267 12.9924H3.86033V6.4198H11.0253V12.9924H11.0267Z" fill="#716E98"/>
<path d="M49.0744 29.2592C49.0744 33.6265 47.5665 37.3489 44.5495 40.4277C41.5324 43.5065 37.7614 45.0446 33.2352 45.0446C28.7444 45.0446 24.9826 43.5157 21.9485 40.454C18.9131 37.3936 17.396 33.6607 17.396 29.2579C17.396 24.8551 18.896 21.1052 21.8947 18.008C24.8933 14.9121 28.6735 13.3635 33.2352 13.3635C37.7601 13.3635 41.5324 14.9029 44.5495 17.9817C47.5652 21.0618 49.0744 24.821 49.0744 29.2592ZM41.9081 29.2592C41.9081 26.7242 41.1174 24.574 39.5373 22.8061C37.9558 21.0382 35.8556 20.1542 33.2339 20.1542C30.6477 20.1542 28.5553 21.0382 26.9568 22.8061C25.3583 24.574 24.5597 26.7255 24.5597 29.2592C24.5597 31.7942 25.3491 33.9273 26.9305 35.6598C28.5106 37.3922 30.6122 38.2565 33.2339 38.2565C35.7833 38.2565 37.8678 37.3817 39.4834 35.6322C41.1003 33.8826 41.9081 31.7574 41.9081 29.2592Z" fill="#716E98"/>
<path d="M82.3932 19.3759C82.3932 23.7432 80.8854 27.4656 77.8683 30.5444C74.8513 33.6232 71.0803 35.1613 66.554 35.1613C62.0633 35.1613 58.3015 33.6324 55.2674 30.5707C52.2319 27.5103 50.7148 23.7774 50.7148 19.3746C50.7148 14.9718 52.2148 11.2218 55.2135 8.12467C58.2122 5.02881 61.9923 3.48022 66.554 3.48022C71.079 3.48022 74.8513 5.01962 77.8683 8.09841C80.8854 11.1772 82.3932 14.9377 82.3932 19.3759ZM75.2282 19.3759C75.2282 16.8409 74.4375 14.6907 72.8574 12.9228C71.276 11.1549 69.1757 10.2709 66.554 10.2709C63.9678 10.2709 61.8754 11.1549 60.2769 12.9228C58.6784 14.6907 57.8799 16.8422 57.8799 19.3759C57.8799 21.9109 58.6693 24.044 60.2507 25.7765C61.8308 27.5089 63.9323 28.3732 66.554 28.3732C69.1035 28.3732 71.188 27.4984 72.8036 25.7489C74.4205 23.9993 75.2282 21.8741 75.2282 19.3759Z" fill="#716E98"/>
<path d="M116.14 29.7169C116.218 33.1818 115.412 36.2593 113.721 38.9506C112.03 41.6419 109.486 43.6279 106.093 44.9085C101.186 46.7592 96.6915 46.599 92.6105 44.4278C89.0155 42.5325 86.4805 39.6244 85.0015 35.705C83.5988 31.9879 83.5843 28.2826 84.9543 24.5891C86.5514 20.2756 89.7865 17.1995 94.6595 15.3619C98.1205 14.0563 101.44 13.8501 104.617 14.7406C107.794 15.6338 110.43 17.4319 112.527 20.1377L104.965 22.9906C103.858 21.9884 102.623 21.3881 101.264 21.1911C99.9029 20.9941 98.4673 21.1806 96.9555 21.7507C94.3666 22.7266 92.6315 24.308 91.7476 26.491C90.8623 28.6753 90.8623 30.9371 91.7436 33.2751C92.663 35.7142 94.188 37.4664 96.3184 38.5329C98.4476 39.5995 100.79 39.6507 103.344 38.6866C104.923 38.0903 106.137 37.2878 106.984 36.2777C107.831 35.2676 108.362 34.0303 108.578 32.5671L116.14 29.7169Z" fill="#716E98"/>
<path d="M147.534 16.4413L130.401 56.2567H122.697L128.192 43.4871L117.255 16.4413H125.391L132.232 35.5681L139.399 16.4413H147.534Z" fill="#716E98"/>
<path d="M55.7167 40.5404L54.4715 39.7668L51.046 45.2847L49.8008 44.5111L53.2263 38.9931L51.9812 38.2195L52.7311 37.0111L56.4667 39.3307L55.7167 40.5404Z" fill="#716E98"/>
<path d="M59.6557 48.7656L57.9337 48.214L56.8698 44.8055L55.9582 47.5809L54.562 47.133L56.9801 39.5936L59.1605 40.2924C60.2612 40.6457 60.9494 41.2066 61.2266 41.9776C61.4078 42.4846 61.4078 43.0244 61.2253 43.5945C61.0269 44.2131 60.6697 44.686 60.1522 45.0143C59.6347 45.3427 59.0607 45.4399 58.4302 45.3046L59.6557 48.7656ZM59.8028 43.228C59.9525 42.7591 59.8658 42.3756 59.5427 42.0774C59.3575 41.9053 59.0988 41.7674 58.7664 41.6597L57.9416 41.3944L57.2231 43.6352L58.048 43.9005C58.3882 44.0095 58.6745 44.0489 58.9083 44.0187C59.3509 43.9675 59.6491 43.7035 59.8028 43.228Z" fill="#716E98"/>
<path d="M66.6766 49.2175L62.4302 49.1098L62.6311 41.1948L66.8776 41.3025L66.8421 42.725L64.0615 42.6541L64.0155 44.4838L66.6793 44.5508L66.6438 45.9733L63.9801 45.9063L63.9341 47.7241L66.7147 47.795L66.6766 49.2175Z" fill="#716E98"/>
<path d="M76.8711 46.9032L75.3212 47.359L73.9644 45.6278L71.172 46.4487L70.9684 48.6383L69.4185 49.0941L70.3484 40.5696L71.478 40.2373L76.8711 46.9032ZM73.0305 44.4181L71.5174 42.4545L71.3059 44.9251L73.0305 44.4181Z" fill="#716E98"/>
<path d="M79.064 38.1858L77.7873 38.9043L80.9738 44.5627L79.6971 45.2825L76.5106 39.6241L75.2339 40.3425L74.5352 39.1026L78.3666 36.9446L79.064 38.1858Z" fill="#716E98"/>
</svg>
