<svg width="104" height="20" viewBox="0 0 104 20" fill="none" xmlns="http://www.w3.org/2000/svg">
<g clip-path="url(#clip0_511_672)">
<path d="M6.15563 3.9701C7.22558 3.95928 8.27931 4.23488 9.20985 4.76891C10.1066 5.27806 10.8425 6.03346 11.3325 6.94775C11.8422 7.89658 12.1021 8.96198 12.0872 10.0416C12.1114 10.8439 11.9742 11.6428 11.6838 12.3898C11.3934 13.1369 10.9559 13.8165 10.3979 14.3874C9.84462 14.9559 9.18121 15.4029 8.44922 15.7004C7.71723 15.9978 6.93241 16.1394 6.14383 16.1162C4.7546 16.1419 3.40547 15.6448 2.35848 14.7212V19.9999H0V4.25028H1.59197L2.03713 5.6631C2.57128 5.10934 3.21282 4.67313 3.92153 4.3818C4.63023 4.09047 5.39083 3.95031 6.15563 3.9701ZM3.29008 12.757C3.64006 13.1146 4.05915 13.3955 4.52122 13.5821C4.98329 13.7688 5.47843 13.8572 5.97579 13.8419C6.47268 13.857 6.96732 13.7685 7.42888 13.5818C7.89043 13.3951 8.30902 13.1144 8.65856 12.757C9.00989 12.4015 9.28595 11.9774 9.46993 11.5106C9.65392 11.0438 9.74197 10.544 9.72872 10.0416C9.74295 9.53995 9.65622 9.04057 9.47378 8.57381C9.29134 8.10704 9.017 7.68261 8.6674 7.32629C8.31678 6.97155 7.89759 6.69371 7.436 6.51012C6.97441 6.32652 6.48034 6.24111 5.98464 6.25922C5.30925 6.25059 4.64343 6.42119 4.05363 6.75401C3.48548 7.06918 3.01809 7.54173 2.70635 8.11615C2.38391 8.71032 2.21935 9.37888 2.22876 10.0565C2.21637 10.5558 2.304 11.0524 2.48639 11.5164C2.66879 11.9805 2.94216 12.4025 3.29008 12.757Z" fill="#2EB3FF"/>
<path d="M28.6963 4.25028H30.5212V15.836H28.6108L28.375 14.4202C27.8393 14.9746 27.1963 15.4113 26.4862 15.7031C25.776 15.9949 25.014 16.1355 24.2476 16.1162C23.4546 16.1383 22.6656 15.9951 21.9297 15.6957C21.1938 15.3962 20.5267 14.9468 19.9699 14.3755C19.4079 13.8072 18.9664 13.1289 18.6724 12.3822C18.3784 11.6355 18.2381 10.8361 18.26 10.0327C18.2386 9.23217 18.3785 8.4356 18.6711 7.69144C18.9638 6.94728 19.4031 6.27109 19.9624 5.70399C20.5216 5.13688 21.1891 4.69073 21.9243 4.39265C22.6595 4.09458 23.4469 3.95081 24.2388 3.97011C25.0153 3.94757 25.7879 4.08857 26.5075 4.38413C27.2272 4.67969 27.8782 5.12336 28.4192 5.68695L28.6963 4.25028ZM21.7241 12.757C22.0763 13.114 22.4971 13.3944 22.9605 13.581C23.4238 13.7675 23.9201 13.8563 24.4186 13.8419C24.9143 13.8577 25.4078 13.7695 25.868 13.5828C26.3283 13.396 26.7452 13.1148 27.0925 12.757C27.4401 12.3979 27.7123 11.9714 27.8927 11.5033C28.073 11.0351 28.1579 10.5349 28.1421 10.0327C28.1587 9.53175 28.0742 9.03264 27.8938 8.56579C27.7133 8.09894 27.4407 7.67416 27.0925 7.31735C26.7406 6.96414 26.3206 6.68793 25.8585 6.50589C25.3965 6.32386 24.9023 6.23989 24.4068 6.25923C23.735 6.24945 23.0727 6.4202 22.4876 6.75401C21.9218 7.07327 21.4544 7.54474 21.1374 8.11616C20.8099 8.70871 20.6422 9.37784 20.651 10.0565C20.6386 10.5568 20.7273 11.0544 20.9119 11.5187C21.0964 11.9831 21.3728 12.4045 21.7241 12.757Z" fill="#2EB3FF"/>
<path d="M43.4697 13.6691H44.761V15.836H43.0216C42.2711 15.8558 41.5276 15.6868 40.8577 15.3442C40.2576 15.0242 39.7688 14.5259 39.4573 13.9165C39.1173 13.2353 38.9492 12.4796 38.968 11.7168V6.28612H36.9043V5.83605L40.8931 1.54395H41.297V4.25035H44.6932V6.28612H41.3235V11.5231C41.3034 11.8114 41.3408 12.1008 41.4335 12.3743C41.5262 12.6477 41.6722 12.8995 41.863 13.1147C42.0798 13.3122 42.334 13.4631 42.6102 13.5584C42.8863 13.6537 43.1787 13.6914 43.4697 13.6691Z" fill="#2EB3FF"/>
<path d="M51.4922 2.44709V0H53.9332V2.44709H51.4922ZM51.5335 15.8361V4.25037H53.8919V15.8361H51.5335Z" fill="#2EB3FF"/>
<path d="M72.6078 10.0626C72.6078 10.2772 72.6078 10.5425 72.5665 10.8584H63.2682C63.3632 11.718 63.7779 12.5089 64.4282 13.0707C65.0786 13.6325 65.916 13.9232 66.7706 13.8838C67.2032 13.8867 67.6334 13.8182 68.0442 13.6811C68.4252 13.5565 68.7816 13.3648 69.0966 13.1148C69.4023 12.8619 69.6575 12.5523 69.8484 12.2027H72.3336C71.9335 13.3662 71.1803 14.3724 70.1814 15.0778C69.1825 15.7832 67.9888 16.1518 66.7706 16.1312C65.9875 16.1514 65.2088 16.0071 64.4836 15.7075C63.7585 15.4079 63.1027 14.9594 62.5578 14.3905C62.0024 13.8202 61.5668 13.1423 61.277 12.3976C60.9872 11.6529 60.8493 10.8566 60.8714 10.0567C60.8505 9.25684 60.989 8.46093 61.2787 7.71637C61.5684 6.9718 62.0034 6.29382 62.5578 5.72283C63.1029 5.15428 63.7587 4.70628 64.4839 4.40717C65.209 4.10806 65.9877 3.96435 66.7706 3.98512C67.8461 3.96497 68.9055 4.25108 69.8278 4.81076C70.7035 5.34232 71.4175 6.10752 71.8914 7.02238C72.3731 7.9611 72.6191 9.00516 72.6078 10.0626ZM66.7706 6.11627C65.962 6.08951 65.1699 6.35118 64.533 6.85547C63.8983 7.38612 63.4667 8.124 63.3125 8.94191H70.2523C70.1283 8.39279 69.8901 7.87664 69.5536 7.42775C69.2347 7.01453 68.8235 6.68358 68.3537 6.46202C67.8572 6.23146 67.3169 6.11346 66.7706 6.11627Z" fill="#2EB3FF"/>
<path d="M85.6619 3.99114C86.2569 3.96413 86.8503 4.07158 87.3991 4.30567C87.9478 4.53975 88.438 4.89458 88.834 5.34434C89.6202 6.24449 90.0133 7.41687 90.0133 8.86148V15.8361H87.6548V9.3354C87.6548 8.29218 87.4327 7.49735 86.9885 6.9509C86.7466 6.66928 86.4434 6.44817 86.1027 6.30492C85.7621 6.16167 85.3932 6.10018 85.0251 6.12526C84.6079 6.11493 84.1935 6.19802 83.8118 6.36858C83.43 6.53915 83.0903 6.79297 82.817 7.11185C82.2265 7.81298 81.9191 8.71337 81.9561 9.63346V15.8361H79.5977V4.25045H81.2309L81.6997 5.85701C82.1421 5.26713 82.7212 4.79629 83.386 4.48592C84.0982 4.15011 84.8761 3.98099 85.6619 3.99114Z" fill="#2EB3FF"/>
<path d="M102.705 13.6691H103.999V15.836H102.26C101.509 15.8558 100.766 15.6868 100.096 15.3442C99.4957 15.0235 99.0062 14.5255 98.6927 13.9165C98.3549 13.2346 98.1879 12.4793 98.2062 11.7168V6.28612H96.1426V5.83605L100.131 1.54395H100.529V4.25035H103.926V6.28612H100.562V11.5231C100.544 11.8126 100.584 12.1028 100.68 12.3763C100.776 12.6498 100.925 12.9009 101.119 13.1147C101.333 13.3097 101.584 13.4592 101.856 13.5544C102.129 13.6497 102.417 13.6887 102.705 13.6691Z" fill="#2EB3FF"/>
</g>
<defs>
<clipPath id="clip0_511_672">
<rect width="104" height="20" fill="white"/>
</clipPath>
</defs>
</svg>
