<svg width="44" height="50" viewBox="0 0 44 50" fill="none" xmlns="http://www.w3.org/2000/svg">
<path d="M21.9999 32.0168C21.8156 32.0168 21.6312 31.9553 21.4776 31.8017C21.0782 31.433 11.5837 22.338 11.5837 11.3994C11.5837 5.89944 14.3184 0 21.9999 0C29.6815 0 32.4161 5.89944 32.4161 11.3994C32.4161 22.338 22.9217 31.4022 22.5223 31.8017C22.3994 31.9246 22.1843 32.0168 21.9999 32.0168ZM21.9999 1.53631C13.9804 1.53631 13.1201 8.41899 13.1201 11.3994C13.1201 20.2179 20.0027 28.0531 21.9999 30.1425C23.9971 28.0531 30.8798 20.2179 30.8798 11.3994C30.8798 8.44972 30.0195 1.53631 21.9999 1.53631Z" fill="#2B1FC7"/>
<path d="M22 17.729C18.4358 17.729 15.5475 14.8407 15.5475 11.2765C15.5475 7.71224 18.4358 4.82397 22 4.82397C25.5642 4.82397 28.4525 7.71224 28.4525 11.2765C28.4525 14.8407 25.5642 17.729 22 17.729ZM22 6.36029C19.2961 6.36029 17.0838 8.57258 17.0838 11.2765C17.0838 13.9804 19.2961 16.1927 22 16.1927C24.7039 16.1927 26.9162 13.9804 26.9162 11.2765C26.9162 8.57258 24.7039 6.36029 22 6.36029Z" fill="#2B1FC7"/>
<path d="M32.6313 49.5C32.5698 49.5 32.5084 49.5 32.4777 49.4693L22.0307 47.1955L11.5838 49.4693C11.4609 49.5 11.3687 49.5 11.2458 49.4693L0.614525 47.1648C0.24581 47.1033 0 46.7653 0 46.4274V10.1704C0 9.92456 0.0921788 9.70947 0.276536 9.55584C0.460894 9.40221 0.706704 9.34076 0.921788 9.40221L9.21788 11.2151C9.64805 11.3072 9.89386 11.7067 9.80168 12.1368C9.74022 12.567 9.31006 12.8128 8.91061 12.7206L1.53631 11.1229V45.7821L11.3687 47.9329L21.8156 45.6592C21.9385 45.6285 22.0307 45.6285 22.1536 45.6592L32.6006 47.9329L42.433 45.7821V11.1229L35.0894 12.7206C34.6592 12.8128 34.2598 12.5363 34.1676 12.1368C34.0754 11.7067 34.352 11.3072 34.7514 11.2151L43.0475 9.40221C43.2626 9.34076 43.5084 9.40221 43.6927 9.55584C43.8771 9.70947 43.9693 9.92456 43.9693 10.1704V46.4274C43.9693 46.7961 43.7235 47.1033 43.3548 47.1955L32.7542 49.5307C32.7235 49.5 32.662 49.5 32.6313 49.5Z" fill="#2B1FC7"/>
</svg>
