<svg width="44" height="46" viewBox="0 0 44 46" fill="none" xmlns="http://www.w3.org/2000/svg">
<path d="M25.7932 31.8002C24.8023 31.8002 23.8115 31.6144 22.8516 31.2428C18.7643 29.6017 16.7826 24.9571 18.3927 20.8698C19.1978 18.8881 20.715 17.3399 22.6658 16.5039C24.6165 15.6369 26.784 15.6369 28.7657 16.411C32.853 18.0521 34.8347 22.6967 33.2245 26.784C31.986 29.9114 28.9825 31.8002 25.7932 31.8002ZM25.8241 17.4019C24.9571 17.4019 24.0901 17.5876 23.2851 17.9283C21.7059 18.5785 20.4673 19.848 19.848 21.4272C18.5166 24.7404 20.1267 28.487 23.4399 29.7875C26.7221 31.088 30.4687 29.5088 31.8002 26.1957C33.1316 22.9135 31.5215 19.1359 28.2084 17.8354C27.4343 17.5567 26.6292 17.4019 25.8241 17.4019Z" fill="#2B1FC7"/>
<path d="M5.48068 32.2646C4.79946 32.2646 4.11825 32.1407 3.43704 31.8621C0.61931 30.7474 -0.743111 27.5271 0.371597 24.7403C1.51727 21.9226 4.70657 20.5602 7.52431 21.6749C10.342 22.7896 11.7045 26.0099 10.5898 28.7966C10.0324 30.159 9.01058 31.2118 7.64816 31.8001C6.96695 32.1098 6.22381 32.2646 5.48068 32.2646ZM5.48068 22.8206C3.93247 22.8206 2.44619 23.7495 1.82691 25.2977C1.02184 27.3103 2.01269 29.6017 4.02536 30.4068C5.01621 30.8093 6.06899 30.7783 7.02888 30.3758C7.98877 29.9733 8.73191 29.1992 9.13444 28.2083C9.93951 26.1956 8.94866 23.9043 6.93599 23.0992C6.47153 22.9134 5.9761 22.8206 5.48068 22.8206Z" fill="#2B1FC7"/>
<path d="M38.5194 45.4553C37.8382 45.4553 37.157 45.3315 36.4758 45.0528C35.1133 44.4954 34.0606 43.4736 33.4723 42.1112C32.8839 40.7797 32.8839 39.2625 33.4103 37.9001C33.9677 36.5377 34.9895 35.4849 36.3519 34.8966C37.6834 34.3083 39.2006 34.3082 40.563 34.8346C43.3808 35.9493 44.7432 39.1387 43.6285 41.9564C42.7615 44.1548 40.6869 45.4553 38.5194 45.4553ZM38.5194 36.0422C37.993 36.0422 37.4666 36.1351 36.9712 36.3519C36.0113 36.7544 35.2682 37.5285 34.8656 38.5194C34.4631 39.5102 34.4941 40.563 34.8966 41.5229C35.2991 42.4828 36.0732 43.2259 37.0641 43.6284C39.0768 44.4335 41.3681 43.4427 42.1732 41.43C42.9782 39.4173 41.9874 37.126 39.9747 36.3209C39.5103 36.1351 39.0148 36.0422 38.5194 36.0422Z" fill="#2B1FC7"/>
<path d="M33.1316 10.9614C32.4504 10.9614 31.7692 10.8375 31.088 10.5589C29.7565 10.0325 28.6728 8.97968 28.1154 7.64822C27.5271 6.2858 27.4961 4.79953 28.0535 3.4371C29.1682 0.619371 32.3575 -0.74305 35.1752 0.371658C37.993 1.48637 39.3554 4.70663 38.2407 7.4934C37.3737 9.66089 35.33 10.9614 33.1316 10.9614ZM33.1626 1.54829C31.6144 1.54829 30.1281 2.47722 29.5088 4.02542C29.1063 4.98531 29.1063 6.06905 29.5398 7.02894C29.9423 7.98883 30.7164 8.73197 31.7072 9.1345C33.7199 9.93957 36.0113 8.94872 36.8163 6.93605C37.6214 4.92338 36.6305 2.63204 34.6179 1.82697C34.1224 1.64119 33.627 1.54829 33.1626 1.54829Z" fill="#2B1FC7"/>
<path d="M10.1562 26.877C9.78466 26.877 9.44405 26.5983 9.38212 26.2267C9.3202 25.7932 9.59887 25.3907 10.0324 25.3288L18.5785 24.0902C19.012 24.0283 19.3835 24.3379 19.4455 24.7404C19.5074 25.1739 19.2287 25.5765 18.7952 25.6384L10.2491 26.877C10.2182 26.877 10.1872 26.877 10.1562 26.877Z" fill="#2B1FC7"/>
<path d="M28.487 17.8973C28.3941 17.8973 28.3012 17.8663 28.2083 17.8353C27.8058 17.6805 27.62 17.216 27.7749 16.8445L30.6855 9.56791C30.8403 9.16537 31.3048 8.97959 31.7073 9.13441C32.1098 9.28923 32.2956 9.75369 32.1408 10.1562L29.1992 17.4328C29.0753 17.7115 28.7967 17.8973 28.487 17.8973Z" fill="#2B1FC7"/>
<path d="M35.6088 37.0332C35.392 37.0332 35.1443 36.9403 34.9895 36.7235L29.6637 29.9734C29.385 29.6328 29.4469 29.1373 29.7875 28.8896C30.1281 28.6109 30.6235 28.6729 30.8713 29.0135L36.1971 35.7946C36.4758 36.1352 36.4138 36.6306 36.0732 36.8784C35.9494 37.0022 35.7636 37.0332 35.6088 37.0332Z" fill="#2B1FC7"/>
</svg>
