<svg width="44" height="39" viewBox="0 0 44 39" fill="none" xmlns="http://www.w3.org/2000/svg">
<path d="M11.1589 21.2501C7.85443 21.2501 5.16003 18.5557 5.16003 15.2512V10.4471C5.16003 7.14264 7.85443 4.44824 11.1589 4.44824C14.4633 4.44824 17.1577 7.14264 17.1577 10.4471V15.2512C17.1577 18.5557 14.4633 21.2501 11.1589 21.2501ZM11.1589 5.71918C8.56616 5.71918 6.43098 7.82895 6.43098 10.4471V15.2512C6.43098 17.844 8.54074 19.9791 11.1589 19.9791C13.777 19.9791 15.8868 17.844 15.8868 15.2512V10.4471C15.8868 7.85437 13.777 5.71918 11.1589 5.71918Z" fill="#2B1FC7"/>
<path d="M17.7678 36.3234H4.27036C1.93183 36.3234 0 34.417 0 32.0531V27.0964C0 26.1305 0.610052 25.1646 1.77932 24.2241C2.74523 23.4615 3.88908 22.9023 5.21086 22.521L9.40497 21.3517C9.73541 21.2501 10.0913 21.4534 10.193 21.7839C10.2946 22.1143 10.0913 22.4702 9.76083 22.5719L5.56672 23.7665C4.42288 24.097 3.40612 24.5799 2.59272 25.2408C2.00809 25.6984 1.29636 26.4101 1.29636 27.0964V32.0531C1.29636 33.7053 2.64356 35.0525 4.29578 35.0525H17.7932C19.4454 35.0525 20.7926 33.7053 20.7926 32.0531V27.0964C20.7926 26.4101 20.0809 25.6984 19.4962 25.2408C18.632 24.5799 17.6407 24.097 16.4968 23.7665L12.4298 22.6227C12.0994 22.521 11.896 22.1906 11.9723 21.8347C12.0739 21.5043 12.4298 21.3009 12.7603 21.4026L16.8273 22.5464C18.1236 22.9023 19.2929 23.4869 20.2588 24.2495C21.4535 25.19 22.0381 26.1559 22.0381 27.1218V32.0785C22.0381 34.417 20.1317 36.3234 17.7678 36.3234Z" fill="#2B1FC7"/>
<path d="M9.55747 22.6228C9.2016 22.6228 8.922 22.3432 8.922 21.9873V20.6147C8.922 20.2589 9.2016 19.9792 9.55747 19.9792C9.91333 19.9792 10.1929 20.2589 10.1929 20.6147V21.9873C10.2184 22.3432 9.91333 22.6228 9.55747 22.6228Z" fill="#2B1FC7"/>
<path d="M12.6077 22.6482C12.2519 22.6482 11.9723 22.3686 11.9723 22.0128V20.6147C11.9723 20.2589 12.2519 19.9792 12.6077 19.9792C12.9636 19.9792 13.2432 20.2589 13.2432 20.6147V22.0128C13.2432 22.3686 12.9636 22.6482 12.6077 22.6482Z" fill="#2B1FC7"/>
<path d="M11.0318 28.2148C8.94742 28.2148 7.24435 26.0034 7.24435 23.2836C7.24435 22.9786 7.26977 22.6735 7.32061 22.3685C7.37145 22.0126 7.70189 21.7839 8.05776 21.8347C8.3882 21.8601 8.61697 22.1906 8.56613 22.521C8.54071 22.7752 8.5153 23.004 8.5153 23.2582C8.5153 25.2408 9.65914 26.9185 11.0318 26.9185C12.379 26.9185 13.5482 25.2408 13.5482 23.2582C13.5482 23.004 13.5228 22.7752 13.4974 22.521C13.4211 22.1652 13.6753 21.8601 14.0312 21.8093C14.3616 21.7585 14.6921 21.9872 14.7429 22.3431C14.7937 22.6481 14.8192 22.9531 14.8192 23.2582C14.8192 25.978 13.1161 28.2148 11.0318 28.2148Z" fill="#2B1FC7"/>
<path d="M13.1415 11.1588C12.5569 11.1588 12.0485 11.0317 11.5401 10.8029C10.9047 10.5233 10.5234 10.0912 10.193 9.76075C9.86251 9.40488 9.63374 9.20153 9.30329 9.12527C8.54073 8.94734 7.49855 9.5574 6.27845 10.8538C6.04968 11.1079 5.64298 11.1334 5.36337 10.8792C5.10918 10.6504 5.08377 10.2437 5.33795 9.98952C6.91392 8.28645 8.31196 7.57473 9.5829 7.87975C10.32 8.05768 10.7522 8.4898 11.108 8.89651C11.3876 9.20153 11.6418 9.45572 12.0485 9.65907C12.7603 9.9641 13.8278 10.1674 16.1155 8.87109C16.4206 8.69315 16.8018 8.79483 16.9798 9.09986C17.1577 9.40488 17.056 9.81158 16.751 9.9641C15.353 10.7521 14.1837 11.1588 13.1415 11.1588Z" fill="#2B1FC7"/>
<path d="M24.0208 16.8018C20.7163 16.8018 18.0219 14.1075 18.0219 10.803V5.99884C18.0219 2.6944 20.7163 0 24.0208 0C27.3252 0 30.0196 2.6944 30.0196 5.99884V10.803C30.0196 14.1075 27.3252 16.8018 24.0208 16.8018ZM24.0208 1.27094C21.4281 1.27094 19.2929 3.3807 19.2929 5.99884V10.803C19.2929 13.3957 21.4026 15.5309 24.0208 15.5309C26.6135 15.5309 28.7487 13.4211 28.7487 10.803V5.99884C28.7233 3.40612 26.6135 1.27094 24.0208 1.27094Z" fill="#2B1FC7"/>
<path d="M16.5222 20.0046C16.2935 20.0046 16.0647 19.8775 15.9376 19.6487C15.7851 19.3183 15.9122 18.937 16.2426 18.7845C16.8018 18.5049 17.4373 18.2761 18.0728 18.0982L22.2669 16.9289C22.5973 16.8272 22.9532 17.0306 23.0549 17.361C23.1311 17.6915 22.9278 18.0473 22.5973 18.149L18.4032 19.3183C17.844 19.4708 17.3102 19.6741 16.8018 19.9283C16.7256 19.9792 16.6239 20.0046 16.5222 20.0046Z" fill="#2B1FC7"/>
<path d="M24.6817 31.8752H23.2328C22.8769 31.8752 22.5973 31.5956 22.5973 31.2397C22.5973 30.8839 22.8769 30.6042 23.2328 30.6042H24.6817C25.0375 30.6042 25.3171 30.8839 25.3171 31.2397C25.3171 31.5956 25.0121 31.8752 24.6817 31.8752Z" fill="#2B1FC7"/>
<path d="M31.1889 19.9791C31.0872 19.9791 31.011 19.9537 30.9093 19.9029C30.4263 19.6741 29.8925 19.4708 29.3333 19.3182L25.2663 18.1744C24.9359 18.0727 24.7325 17.7169 24.8342 17.3864C24.9359 17.056 25.2917 16.8526 25.6222 16.9543L29.6892 18.0981C30.3247 18.2761 30.9093 18.5048 31.4685 18.7844C31.7735 18.937 31.9261 19.3182 31.7735 19.6487C31.6464 19.852 31.4177 19.9791 31.1889 19.9791Z" fill="#2B1FC7"/>
<path d="M22.4194 18.1743C22.0635 18.1743 21.7839 17.8947 21.7839 17.5389V16.1408C21.7839 15.785 22.0635 15.5054 22.4194 15.5054C22.7753 15.5054 23.0549 15.785 23.0549 16.1408V17.5389C23.0549 17.8693 22.7753 18.1743 22.4194 18.1743Z" fill="#2B1FC7"/>
<path d="M25.4442 18.1998C25.0884 18.1998 24.8088 17.9202 24.8088 17.5643V16.1408C24.8088 15.785 25.0884 15.5054 25.4442 15.5054C25.8001 15.5054 26.0797 15.785 26.0797 16.1408V17.5389C26.0797 17.9202 25.8001 18.1998 25.4442 18.1998Z" fill="#2B1FC7"/>
<path d="M23.8683 23.7666C21.7839 23.7666 20.0809 21.5297 20.0809 18.8099C20.0809 18.5049 20.1063 18.1998 20.1571 17.8948C20.208 17.5389 20.5384 17.3102 20.8689 17.361C21.2247 17.4119 21.4535 17.7423 21.4027 18.0982C21.3772 18.3269 21.3772 18.5557 21.3772 18.8099C21.3772 20.7926 22.5211 22.4702 23.8937 22.4702C25.2409 22.4702 26.4102 20.7926 26.4102 18.8099C26.4102 18.5557 26.3847 18.3015 26.3593 18.0727C26.3085 17.7169 26.5627 17.3864 26.8931 17.3356C27.249 17.2848 27.5794 17.5389 27.6303 17.8694C27.6811 18.1744 27.7065 18.4794 27.7065 18.7845C27.6557 21.5297 25.9526 23.7666 23.8683 23.7666Z" fill="#2B1FC7"/>
<path d="M25.9781 6.71059C25.4188 6.71059 24.885 6.5835 24.3767 6.35473C23.7412 6.07512 23.3599 5.643 23.0295 5.31256C22.699 4.95669 22.4957 4.75334 22.1652 4.67708C21.3772 4.49915 20.3351 5.1092 19.115 6.40557C18.8862 6.65975 18.4795 6.68517 18.1999 6.43098C17.9457 6.20221 17.9203 5.79551 18.1745 5.51591C19.725 3.83826 21.1739 3.12654 22.4194 3.40614C23.1566 3.58407 23.5887 4.01619 23.9445 4.4229C24.2242 4.72792 24.4783 4.98211 24.885 5.18546C25.5714 5.49049 26.6644 5.69384 28.9266 4.39748C29.2317 4.21955 29.6129 4.32122 29.7909 4.62625C29.9688 4.93127 29.8671 5.31256 29.5621 5.49049C28.2149 6.30389 27.0202 6.71059 25.9781 6.71059Z" fill="#2B1FC7"/>
<path d="M34.8238 38.0011C29.7655 38.0011 25.6476 33.8832 25.6476 28.8249C25.6476 23.7665 29.7655 19.6487 34.8238 19.6487C39.8822 19.6487 44 23.7665 44 28.8249C44 33.8832 39.8822 38.0011 34.8238 38.0011ZM34.8238 20.945C30.4772 20.945 26.944 24.4783 26.944 28.8249C26.944 33.1715 30.4772 36.7047 34.8238 36.7047C39.1704 36.7047 42.7036 33.1715 42.7036 28.8249C42.7036 24.4783 39.1704 20.945 34.8238 20.945Z" fill="#2B1FC7"/>
<path d="M33.4512 33.9596C33.2224 33.9596 33.0191 33.8325 32.9174 33.68L29.9942 29.1809C29.7909 28.8759 29.8925 28.4946 30.1722 28.2912C30.4772 28.0879 30.8585 28.1896 31.0618 28.4692L33.4766 32.2057L38.5858 25.4952C38.7891 25.2156 39.1958 25.1647 39.4754 25.3681C39.7551 25.5714 39.8059 25.9781 39.6025 26.2577L33.9341 33.7055C33.8325 33.8834 33.6545 33.9596 33.4512 33.9596Z" fill="#2B1FC7"/>
</svg>
