<svg width="44" height="36" viewBox="0 0 44 36" fill="none" xmlns="http://www.w3.org/2000/svg">
<path d="M32.1429 12.6857H29.8571C29.4571 12.6857 29.1429 12.3714 29.1429 11.9714C29.1429 11.5714 29.4571 11.2571 29.8571 11.2571H31.4286V1.42857H1.42857V11.2571H22.8857C23.2857 11.2571 23.6 11.5714 23.6 11.9714C23.6 12.3714 23.2857 12.6857 22.8857 12.6857H0.714286C0.314286 12.6857 0 12.3714 0 11.9714V0.714286C0 0.314286 0.314286 0 0.714286 0H32.1429C32.5429 0 32.8571 0.314286 32.8571 0.714286V11.9714C32.8286 12.3714 32.5143 12.6857 32.1429 12.6857Z" fill="#2B1FC7"/>
<path d="M32.1429 14.6857C31.7429 14.6857 31.4286 14.3428 31.4286 13.9714V12.6857H29.8571C29.4571 12.6857 29.1429 12.3714 29.1429 11.9714C29.1429 11.5714 29.4571 11.2571 29.8571 11.2571H32.1429C32.5429 11.2571 32.8571 11.5714 32.8571 11.9714V13.9714C32.8286 14.3428 32.5143 14.6857 32.1429 14.6857Z" fill="#2B1FC7"/>
<path d="M27.1714 23.9428H0.714286C0.314286 23.9428 0 23.6285 0 23.2285V11.9714C0 11.5714 0.314286 11.2571 0.714286 11.2571H22.8857C23.2857 11.2571 23.6 11.5714 23.6 11.9714C23.6 12.3714 23.2857 12.6857 22.8857 12.6857H1.42857V22.5142H27.1714C27.5714 22.5142 27.8857 22.8285 27.8857 23.2285C27.8857 23.6285 27.5714 23.9428 27.1714 23.9428Z" fill="#2B1FC7"/>
<path d="M32.1429 35.2001H0.714286C0.314286 35.2001 0 34.8858 0 34.4858V23.2287C0 22.8287 0.314286 22.5144 0.714286 22.5144H27.1714C27.5714 22.5144 27.8857 22.8287 27.8857 23.2287C27.8857 23.6287 27.5714 23.943 27.1714 23.943H1.42857V33.7715H31.4286V27.9715C31.4286 27.5715 31.7429 27.2573 32.1429 27.2573C32.5429 27.2573 32.8571 27.5715 32.8571 27.9715V34.4858C32.8286 34.8858 32.5143 35.2001 32.1429 35.2001Z" fill="#2B1FC7"/>
<path d="M6.65714 9.34277C4.99999 9.34277 3.65714 7.99992 3.65714 6.34277C3.65714 4.68563 4.99999 3.34277 6.65714 3.34277C8.31428 3.34277 9.65714 4.68563 9.65714 6.34277C9.65714 7.99992 8.31428 9.34277 6.65714 9.34277ZM6.65714 4.77134C5.79999 4.77134 5.08571 5.48563 5.08571 6.34277C5.08571 7.19992 5.79999 7.9142 6.65714 7.9142C7.51428 7.9142 8.22856 7.19992 8.22856 6.34277C8.22856 5.48563 7.54285 4.77134 6.65714 4.77134Z" fill="#2B1FC7"/>
<path d="M6.65714 20.6001C4.99999 20.6001 3.65714 19.2572 3.65714 17.6001C3.65714 15.943 4.99999 14.6001 6.65714 14.6001C8.31428 14.6001 9.65714 15.943 9.65714 17.6001C9.65714 19.2572 8.31428 20.6001 6.65714 20.6001ZM6.65714 16.0287C5.79999 16.0287 5.08571 16.743 5.08571 17.6001C5.08571 18.4572 5.79999 19.1715 6.65714 19.1715C7.51428 19.1715 8.22856 18.4572 8.22856 17.6001C8.22856 16.743 7.54285 16.0287 6.65714 16.0287Z" fill="#2B1FC7"/>
<path d="M6.65714 31.8572C4.99999 31.8572 3.65714 30.5143 3.65714 28.8572C3.65714 27.2 4.99999 25.8572 6.65714 25.8572C8.31428 25.8572 9.65714 27.2 9.65714 28.8572C9.65714 30.5143 8.31428 31.8572 6.65714 31.8572ZM6.65714 27.2857C5.79999 27.2857 5.08571 28 5.08571 28.8572C5.08571 29.7143 5.79999 30.4286 6.65714 30.4286C7.51428 30.4286 8.22856 29.7143 8.22856 28.8572C8.22856 28 7.54285 27.2857 6.65714 27.2857Z" fill="#2B1FC7"/>
<path d="M27.8857 7.05723H20.7143C20.3143 7.05723 20 6.74295 20 6.34295C20 5.94295 20.3143 5.62866 20.7143 5.62866H27.8857C28.2857 5.62866 28.6 5.94295 28.6 6.34295C28.6 6.74295 28.2857 7.05723 27.8857 7.05723Z" fill="#2B1FC7"/>
<path d="M22.8857 18.3143H20.7143C20.3143 18.3143 20 18 20 17.6C20 17.2 20.3143 16.8857 20.7143 16.8857H22.9143C23.3143 16.8857 23.6286 17.2 23.6286 17.6C23.6 18 23.2857 18.3143 22.8857 18.3143Z" fill="#2B1FC7"/>
<path d="M27.8857 29.5714H20.7143C20.3143 29.5714 20 29.2571 20 28.8571C20 28.4571 20.3143 28.1428 20.7143 28.1428H27.8857C28.2857 28.1428 28.6 28.4571 28.6 28.8571C28.6 29.2571 28.2857 29.5714 27.8857 29.5714Z" fill="#2B1FC7"/>
<path d="M32.3428 26.343C32.1143 26.343 31.9143 26.2287 31.7714 26.0573L24.1714 16.1716C23.2 14.9144 23.4571 13.1144 24.6857 12.1716C25.9428 11.2287 27.7428 11.4573 28.6857 12.6858L31.7714 16.7144L38.6857 4.91441C39.4857 3.54298 41.2286 3.11441 42.6 3.88584C43.9714 4.68584 44.4 6.42869 43.6286 7.80012L32.9428 26.0001C32.8286 26.2001 32.6 26.343 32.3714 26.343H32.3428ZM26.4286 13.0001C26.1143 13.0001 25.8286 13.0858 25.5714 13.2858C24.9428 13.7716 24.8286 14.6573 25.3143 15.2858L32.2571 24.343L42.4 7.05726C42.8 6.37155 42.5714 5.51441 41.8857 5.11441C41.2 4.71441 40.3428 4.94298 39.9428 5.62869L32.4857 18.343C32.3714 18.543 32.1428 18.6858 31.9143 18.6858C31.6857 18.7144 31.4571 18.6001 31.3143 18.4001L27.6 13.543C27.2857 13.2001 26.8571 13.0001 26.4286 13.0001Z" fill="#2B1FC7"/>
</svg>
