<svg width="44" height="44" viewBox="0 0 44 44" fill="none" xmlns="http://www.w3.org/2000/svg">
<path d="M20.4707 28.4926L11.8853 28.3853C11.6975 28.3853 11.5366 28.3048 11.4024 28.1707C11.2683 28.0365 11.2146 27.8756 11.2146 27.6878C11.2683 24.039 14.4878 22.8853 16.2048 22.778C16.2317 22.778 16.2317 22.778 16.2585 22.778C18.2975 22.778 19.9073 21.1951 19.9341 19.2097C19.9341 18.2439 19.5853 17.3317 18.9146 16.6341C18.2439 15.9365 17.3317 15.5609 16.3658 15.5341C16.339 15.5341 16.339 15.5341 16.3122 15.5341C15.3731 15.5341 14.4609 15.9097 13.7902 16.5536C13.0926 17.2243 12.717 18.1365 12.6902 19.1024C12.6902 19.478 12.3683 19.7463 12.0195 19.7731C11.6439 19.7731 11.3487 19.478 11.3487 19.1024C11.3756 17.7878 11.8853 16.5268 12.8512 15.6146C13.7634 14.6756 15.0244 14.139 16.3658 14.1926C17.6805 14.2195 18.9414 14.7292 19.8536 15.6951C20.7658 16.6341 21.2756 17.8951 21.2487 19.2097C21.2219 21.9463 18.9414 24.1195 16.2317 24.0926C16.1512 24.0926 13.0926 24.3609 12.6366 27.0439L20.4975 27.1512C20.8731 27.1512 21.1683 27.4463 21.1683 27.8219C21.1414 28.1975 20.8463 28.4926 20.4707 28.4926Z" fill="#2B1FC7"/>
<path d="M30.8 22.6706L24.1463 22.5901C23.7707 22.5901 23.4756 22.295 23.4756 21.9194L23.5561 14.9438C23.5561 14.5682 23.8512 14.2462 24.2268 14.273C24.6024 14.273 24.8975 14.5682 24.8975 14.9438L24.8439 21.2755L30.8268 21.356C31.2024 21.356 31.4975 21.6511 31.4975 22.0267C31.4707 22.3755 31.1756 22.6706 30.8 22.6706Z" fill="#2B1FC7"/>
<path d="M30.7194 28.5999C30.3438 28.5999 30.0487 28.3047 30.0487 27.9291L30.2097 15.0242C30.2097 14.6486 30.5048 14.3535 30.8804 14.3535C31.256 14.3535 31.5511 14.6486 31.5511 15.0242L31.3902 27.9291C31.3902 28.3316 31.095 28.5999 30.7194 28.5999Z" fill="#2B1FC7"/>
<path d="M0.670732 22.6707C0.295122 22.6707 0 22.3756 0 22C0 9.87317 9.87317 0 22 0C29.9415 0 37.2659 4.29268 41.1829 11.2146C41.3707 11.5366 41.2634 11.939 40.9415 12.1268C40.6195 12.3146 40.2171 12.2073 40.0293 11.8854C36.3537 5.36585 29.4585 1.34146 22 1.34146C10.5976 1.34146 1.34146 10.6244 1.34146 22C1.34146 22.3756 1.04634 22.6707 0.670732 22.6707Z" fill="#2B1FC7"/>
<path d="M42.4976 16.017C40.8073 14.2731 38.3659 12.2341 36.2463 11.2414L40.2976 10.9731L43.2488 8.18286C42.5512 10.4097 42.3366 13.5755 42.4976 16.017Z" fill="black"/>
<path d="M42.8732 16.8757L42.2562 16.2318C40.8074 14.7293 38.3122 12.583 36.1122 11.5366L34.9318 10.9732L40.1635 10.6513L43.9732 7.05615L43.5708 8.2903C42.8464 10.6244 42.7122 13.8976 42.8196 15.9903L42.8732 16.8757ZM37.4269 11.483C39.1171 12.4757 40.8074 13.8976 42.0952 15.1586C42.0415 13.361 42.1757 11.161 42.6049 9.22932L40.4318 11.2952L37.4269 11.483Z" fill="#2B1FC7"/>
<path d="M21.9999 44.0001C14.0316 44.0001 6.68043 39.6806 2.79019 32.7318C2.60238 32.4098 2.73653 32.0074 3.05848 31.8196C3.38043 31.6318 3.78287 31.7659 3.97067 32.0879C7.61945 38.6074 14.5414 42.6586 21.9999 42.6586C33.4024 42.6586 42.6585 33.3757 42.6585 22.0001C42.6585 21.6245 42.9536 21.3293 43.3292 21.3293C43.7048 21.3293 43.9999 21.6245 43.9999 22.0001C43.9999 34.1269 34.1268 44.0001 21.9999 44.0001Z" fill="#2B1FC7"/>
<path d="M1.50241 27.9561C3.19266 29.7268 5.63412 31.739 7.7268 32.7585L3.67558 33L0.724365 35.7902C1.42193 33.5365 1.63656 30.3707 1.50241 27.9561Z" fill="black"/>
<path d="M0 36.8903L0.402439 35.6561C1.15366 33.322 1.2878 30.0488 1.18049 27.9561L1.12683 27.0439L1.7439 27.6878C3.19268 29.2171 5.66098 31.3635 7.8878 32.4098L9.04146 32.9732L3.80976 33.2952L0 36.8903ZM1.87805 28.7878C1.90488 30.5854 1.79756 32.8122 1.36829 34.7171L3.56829 32.6513L6.57317 32.4635C4.8561 31.4708 3.16585 30.0488 1.87805 28.7878Z" fill="#2B1FC7"/>
</svg>
