<svg width="44" height="43" viewBox="0 0 44 43" fill="none" xmlns="http://www.w3.org/2000/svg">
<path d="M22.0167 43C12.2129 43 5.55437 41.3423 2.27529 38.0933C0 35.8389 0 33.3855 0 32.4572V32.3577C0 30.3022 0.267681 26.589 2.1749 24.6993C2.44259 24.4341 2.74373 24.1357 3.07833 23.8373C4.65095 22.2791 6.42433 20.5551 7.49506 18.7648C8.90038 16.4109 10.5734 14.5875 12.3468 13.4271C14.1536 12.2668 20.6783 12.2999 21.9833 12.3331C23.3217 12.2999 29.8129 12.2668 31.6198 13.4271C33.3932 14.5544 35.0996 16.4109 36.4715 18.7648C37.5422 20.5551 39.3156 22.2791 40.8882 23.8042C41.1894 24.1025 41.4905 24.4009 41.7916 24.6661C43.6989 26.5559 43.9665 30.2691 43.9665 32.3246V32.424C43.9665 33.3523 43.9665 35.8057 41.6913 38.0601C38.4791 41.3423 31.8205 43 22.0167 43ZM21.1802 13.9907C18.2023 13.9907 14.1871 14.2228 13.2502 14.8196C11.6776 15.8142 10.1719 17.4719 8.93384 19.5937C7.76274 21.5829 5.82205 23.4726 4.24943 24.9977C3.94829 25.2961 3.64715 25.5944 3.37947 25.8597C2.30875 26.9206 1.673 29.3408 1.673 32.3577V32.4572C1.673 33.3192 1.673 35.1426 3.44639 36.9329C5.48745 38.9553 10.3392 41.3423 21.9833 41.3423C33.6274 41.3423 38.5125 38.9553 40.5201 36.9329C42.327 35.1426 42.327 33.3192 42.2935 32.4572V32.3577C42.2935 29.3408 41.6578 26.9206 40.5871 25.8597C40.3194 25.5944 40.0182 25.2961 39.7171 24.9977C38.1445 23.4726 36.2038 21.5829 35.0327 19.5937C33.7612 17.4719 32.289 15.8142 30.7164 14.8196C29.7125 14.1565 24.9947 13.9576 21.9833 13.9907H21.9498C21.749 13.9907 21.4814 13.9907 21.1802 13.9907Z" fill="#2B1FC7"/>
<path d="M40.286 25.1966C40.1187 25.1966 39.9514 25.1303 39.7841 25.0308C39.4495 24.7656 39.3491 24.3346 39.5498 23.9699C39.5833 23.8373 39.8844 22.7101 39.3156 18.4333C38.6799 13.7586 35.4342 12.101 31.6198 10.5759C28.1734 9.2166 22.0502 9.11714 21.9833 9.11714C21.9498 9.11714 15.8266 9.2166 12.3802 10.5759C8.5658 12.101 5.32017 13.7586 4.68443 18.4333C4.11561 22.7101 4.38329 23.8373 4.45021 23.9699C4.65097 24.3346 4.55059 24.7656 4.21599 25.0308C3.84793 25.296 3.31257 25.2297 3.04488 24.865C2.40914 24.003 2.67682 20.7872 3.04488 18.2343C3.88139 12.2004 8.63272 10.3107 11.778 9.05084C15.492 7.55893 21.7491 7.45947 21.9833 7.45947C22.2844 7.45947 28.508 7.55893 32.2221 9.05084C35.3673 10.3107 40.1521 12.2004 40.9552 18.2343C41.3232 20.7872 41.5909 24.0362 40.9552 24.865C40.8213 25.0639 40.5536 25.1966 40.286 25.1966Z" fill="#2B1FC7"/>
<path d="M18.5034 6.19969C16.7635 6.19969 15.3582 4.80725 15.3582 3.08327C15.3582 1.35929 16.7635 0 18.5034 0C20.2433 0 21.6486 1.39244 21.6486 3.11642C21.6486 4.8404 20.2099 6.19969 18.5034 6.19969ZM18.5034 1.65767C17.7004 1.65767 17.0312 2.32074 17.0312 3.11642C17.0312 3.9121 17.7004 4.57517 18.5034 4.57517C19.3064 4.57517 19.9756 3.9121 19.9756 3.11642C19.9756 2.32074 19.3064 1.65767 18.5034 1.65767Z" fill="#2B1FC7"/>
<path d="M25.53 6.19969C23.7901 6.19969 22.3848 4.80725 22.3848 3.08327C22.3848 1.35929 23.7901 0 25.53 0C27.2699 0 28.6753 1.39244 28.6753 3.11642C28.6753 4.8404 27.2365 6.19969 25.53 6.19969ZM25.53 1.65767C24.727 1.65767 24.0578 2.32074 24.0578 3.11642C24.0578 3.9121 24.727 4.57517 25.53 4.57517C26.3331 4.57517 27.0023 3.9121 27.0023 3.11642C27.0023 2.32074 26.3331 1.65767 25.53 1.65767Z" fill="#2B1FC7"/>
<path d="M13.886 10.1119C13.7187 10.1119 13.5179 10.0456 13.3841 9.94612C13.016 9.64774 12.9491 9.11728 13.2168 8.75259L16.5628 4.4758C16.8639 4.14427 17.3993 4.07796 17.7673 4.37634C18.1354 4.64157 18.2023 5.17202 17.9012 5.53671L14.5552 9.8135C14.3879 10.0124 14.1202 10.1119 13.886 10.1119Z" fill="#2B1FC7"/>
<path d="M30.1141 10.1117C29.8798 10.1117 29.6122 10.0122 29.4449 9.78015L26.0989 5.50336C25.8312 5.17183 25.8981 4.64137 26.2662 4.37614C26.6008 4.07776 27.1361 4.14407 27.4373 4.50876L30.7833 8.78555C31.0844 9.11708 31.0175 9.64754 30.6494 9.94592C30.4821 10.0454 30.3148 10.1117 30.1141 10.1117Z" fill="#2B1FC7"/>
</svg>
