<svg width="44" height="44" viewBox="0 0 44 44" fill="none" xmlns="http://www.w3.org/2000/svg">
<path d="M22 25.2297C20.2273 25.2297 18.7704 23.7727 18.7704 22.0001C18.7704 20.2275 20.2273 18.7705 22 18.7705C23.7726 18.7705 25.2295 20.2275 25.2295 22.0001C25.2295 23.7727 23.7726 25.2297 22 25.2297ZM22 19.9846C20.883 19.9846 19.9845 20.8831 19.9845 22.0001C19.9845 23.1171 20.883 24.0155 22 24.0155C23.117 24.0155 24.0154 23.1171 24.0154 22.0001C24.0154 20.8831 23.117 19.9846 22 19.9846Z" fill="#2B1FC7"/>
<path d="M22 25.2297C20.2273 25.2297 18.7704 23.7727 18.7704 22.0001C18.7704 20.2275 20.2273 18.7705 22 18.7705C23.7726 18.7705 25.2295 20.2275 25.2295 22.0001C25.2295 23.7727 23.7726 25.2297 22 25.2297ZM22 19.9846C20.883 19.9846 19.9845 20.8831 19.9845 22.0001C19.9845 23.1171 20.883 24.0155 22 24.0155C23.117 24.0155 24.0154 23.1171 24.0154 22.0001C24.0154 20.8831 23.117 19.9846 22 19.9846Z" fill="#2B1FC7"/>
<path d="M22 30.1833C17.4834 30.1833 13.8168 26.5167 13.8168 22.0001C13.8168 17.4836 17.4834 13.8169 22 13.8169C26.5166 13.8169 30.1832 17.4836 30.1832 22.0001C30.1832 26.5167 26.5166 30.1833 22 30.1833ZM22 15.031C18.1634 15.031 15.0309 18.1635 15.0309 22.0001C15.0309 25.8368 18.1634 28.9692 22 28.9692C25.8366 28.9692 28.9691 25.8368 28.9691 22.0001C28.9691 18.1635 25.8366 15.031 22 15.031Z" fill="#2B1FC7"/>
<path d="M22 40.9162C11.5585 40.9162 3.08386 32.4416 3.08386 22.0001C3.08386 11.5586 11.5585 3.08398 22 3.08398C32.4415 3.08398 40.9161 11.5586 40.9161 22.0001C40.9161 32.4416 32.4415 40.9162 22 40.9162ZM22 4.29811C12.2384 4.29811 4.29799 12.2385 4.29799 22.0001C4.29799 31.7617 12.2384 39.7021 22 39.7021C31.7616 39.7021 39.702 31.7617 39.702 22.0001C39.702 12.2385 31.7616 4.29811 22 4.29811Z" fill="#2B1FC7"/>
<path d="M22 43.9999C21.6601 43.9999 21.3929 43.7328 21.3929 43.3929V27.1478C21.3929 26.8079 21.6601 26.5408 22 26.5408C22.34 26.5408 22.6071 26.8079 22.6071 27.1478V43.3929C22.6071 43.7328 22.34 43.9999 22 43.9999Z" fill="#2B1FC7"/>
<path d="M22 17.5563C21.6601 17.5563 21.3929 17.2892 21.3929 16.9492V0.607064C21.3929 0.267108 21.6601 0 22 0C22.34 0 22.6071 0.267108 22.6071 0.607064V16.9492C22.6071 17.2892 22.34 17.5563 22 17.5563Z" fill="#2B1FC7"/>
<path d="M16.8521 22.607H0.607064C0.267108 22.607 0 22.3398 0 21.9999C0 21.6599 0.267108 21.3928 0.607064 21.3928H16.8521C17.1921 21.3928 17.4592 21.6599 17.4592 21.9999C17.4592 22.3398 17.1921 22.607 16.8521 22.607Z" fill="#2B1FC7"/>
<path d="M43.393 22.607H27.0508C26.7108 22.607 26.4437 22.3398 26.4437 21.9999C26.4437 21.6599 26.7108 21.3928 27.0508 21.3928H43.393C43.7329 21.3928 44 21.6599 44 21.9999C44 22.3398 43.7329 22.607 43.393 22.607Z" fill="#2B1FC7"/>
</svg>
