<svg width="44" height="48" viewBox="0 0 44 48" fill="none" xmlns="http://www.w3.org/2000/svg">
<path d="M29.1814 34.3598C29.0511 34.3598 28.9208 34.3272 28.7906 34.2621L21.9837 30.6796L15.1769 34.2621C14.9164 34.3924 14.5581 34.3924 14.3302 34.197C14.0696 34.0016 13.9393 33.7084 14.0045 33.4153L15.3072 25.8594L9.80314 20.4856C9.60773 20.2577 9.51002 19.932 9.60773 19.6389C9.70543 19.3457 9.96598 19.1178 10.2591 19.0852L17.8475 17.9779L21.2347 11.1059C21.4952 10.5523 22.4071 10.5523 22.7002 11.1059L26.0874 17.9779L33.6758 19.0852C33.9689 19.1178 34.2295 19.3457 34.3272 19.6389C34.4249 19.932 34.3272 20.2577 34.1318 20.4856L28.6928 25.8269L29.9956 33.3828C30.0607 33.6759 29.9304 34.0016 29.6699 34.1644C29.5071 34.2947 29.3442 34.3598 29.1814 34.3598ZM21.9837 28.9534C22.114 28.9534 22.2443 28.986 22.3746 29.0511L28.074 32.0474L26.9993 25.6966C26.9667 25.436 27.0319 25.1429 27.2273 24.9801L31.852 20.4856L25.4686 19.5412C25.208 19.5086 24.98 19.3132 24.8498 19.0852L21.9837 13.288L19.1503 19.0852C19.02 19.3132 18.792 19.5086 18.5315 19.5412L12.1481 20.4531L16.7728 24.9475C16.9682 25.1429 17.0659 25.4035 17.0008 25.664L15.8934 32.0474L21.5929 29.0511C21.7232 28.986 21.8535 28.9534 21.9837 28.9534Z" fill="#2B1FC7"/>
<path d="M21.9837 47.4523C21.5277 47.4523 21.1695 47.094 21.1695 46.6381V39.4404C21.1695 38.9845 21.5277 38.6262 21.9837 38.6262C22.4397 38.6262 22.7979 38.9845 22.7979 39.4404V46.6381C22.7979 47.0615 22.4397 47.4523 21.9837 47.4523Z" fill="#2B1FC7"/>
<path d="M21.9837 6.28571C21.5277 6.28571 21.1695 5.92746 21.1695 5.4715V0.814212C21.1695 0.358253 21.5603 0 21.9837 0C22.4397 0 22.7979 0.358253 22.7979 0.814212V5.4715C22.7979 5.92746 22.4397 6.28571 21.9837 6.28571Z" fill="#2B1FC7"/>
<path d="M43.1858 25.7617H38.5936C38.1377 25.7617 37.7794 25.4035 37.7794 24.9475C37.7794 24.4916 38.1377 24.1333 38.5936 24.1333H43.1858C43.6417 24.1333 44 24.4916 44 24.9475C44 25.4035 43.6417 25.7617 43.1858 25.7617Z" fill="#2B1FC7"/>
<path d="M5.40637 25.7617H0.814212C0.358253 25.7617 0 25.4035 0 24.9475C0 24.4916 0.358253 24.1333 0.814212 24.1333H5.40637C5.86232 24.1333 6.22058 24.4916 6.22058 24.9475C6.22058 25.4035 5.86232 25.7617 5.40637 25.7617Z" fill="#2B1FC7"/>
<path d="M41.7854 44.7491C41.59 44.7491 41.362 44.6839 41.1991 44.5211L34.4575 37.7794C34.1318 37.4537 34.1318 36.9326 34.4575 36.6395C34.7831 36.3138 35.3042 36.3138 35.5974 36.6395L42.339 43.3812C42.6647 43.7069 42.6647 44.228 42.339 44.5211C42.2088 44.6514 42.0133 44.7491 41.7854 44.7491Z" fill="#2B1FC7"/>
<path d="M10.1939 13.9719C9.99852 13.9719 9.77054 13.9067 9.60769 13.7439L1.62842 5.73206C1.30273 5.40638 1.30273 4.88528 1.62842 4.59216C1.9541 4.26648 2.4752 4.26648 2.76832 4.59216L10.7802 12.604C11.1058 12.9297 11.1058 13.4508 10.7802 13.7439C10.6173 13.8742 10.4219 13.9719 10.1939 13.9719Z" fill="#2B1FC7"/>
<path d="M2.21465 44.7491C2.01924 44.7491 1.79126 44.684 1.62842 44.5211C1.30273 44.1955 1.30273 43.6744 1.62842 43.3812L8.30495 36.7047C8.63064 36.379 9.15173 36.379 9.44485 36.7047C9.77054 37.0304 9.77054 37.5515 9.44485 37.8446L2.76832 44.5211C2.60547 44.6514 2.41006 44.7491 2.21465 44.7491Z" fill="#2B1FC7"/>
<path d="M33.4153 14.3301C33.2199 14.3301 32.9919 14.265 32.829 14.1022C32.5034 13.7765 32.5034 13.2554 32.829 12.9623L41.1991 4.59216C41.5248 4.26648 42.0459 4.26648 42.339 4.59216C42.6647 4.91785 42.6647 5.43894 42.339 5.73206L33.9689 14.1022C33.8387 14.2324 33.6433 14.3301 33.4153 14.3301Z" fill="#2B1FC7"/>
</svg>
