<svg width="44" height="51" viewBox="0 0 44 51" fill="none" xmlns="http://www.w3.org/2000/svg">
<path d="M20.5863 30.0108C20.174 30.0108 19.85 29.7752 19.3494 29.4218C19.1727 29.304 18.996 29.1567 18.7603 29.0095C13.5769 25.4459 11.3681 23.885 11.3681 23.885C11.2503 23.7966 10.838 23.5315 10.7496 23.0309C10.7202 22.8247 10.7202 22.5008 10.9852 22.1179L11.3387 21.6172C11.8982 20.822 12.1927 20.3508 12.7523 20.2625C13.2235 20.1741 13.5769 20.3803 14.0776 20.7042L20.0267 12.1634C23.2664 7.53958 23.2664 7.53958 23.4431 7.30397L23.502 7.21561C24.3266 6.06702 25.5047 5.5958 26.9478 5.83141C26.9772 5.83141 27.0067 5.80196 27.0067 5.80196C28.0964 4.29995 28.8621 3.15136 29.4217 2.32672C30.5703 0.618558 30.9237 0.117888 31.5716 8.35834e-05C32.0723 -0.0882698 32.4551 0.235693 32.6907 0.4124C33.2503 0.854167 33.7215 1.14868 34.0749 1.41374C34.664 1.7966 35.1057 2.09111 35.2235 2.62123C35.3119 3.09245 35.0763 3.50477 34.8407 3.82873C34.1338 4.80062 33.4565 5.77251 32.7791 6.77385C32.3079 7.45122 31.8367 8.1286 31.3654 8.80597C31.3065 8.83543 31.3065 8.83543 31.2771 8.86488C31.2771 8.86488 31.2771 8.89433 31.3065 8.89433C32.1017 10.1018 32.0723 11.3977 31.2182 12.6346L21.7938 26.0938C22.2356 26.3589 22.6184 26.6239 22.7363 27.0951C22.8541 27.6253 22.5301 28.0965 22.4123 28.2437C22.2061 28.5088 22.0589 28.7444 21.9411 28.9211C21.5288 29.5101 21.2931 29.893 20.7925 29.9813C20.7041 30.0108 20.6452 30.0108 20.5863 30.0108ZM12.34 22.7658C12.8407 23.1192 15.079 24.6801 19.6144 27.802C19.85 27.9787 20.0562 28.0965 20.2329 28.2437C20.3213 28.3026 20.4391 28.391 20.5274 28.4499C20.5863 28.3615 20.6747 28.2437 20.7336 28.1259C20.8514 27.9492 20.9986 27.7136 21.2048 27.478C21.087 27.3896 20.9692 27.3307 20.8808 27.2718C20.7041 27.1835 20.5274 27.0951 20.3507 26.9773C20.174 26.8595 20.0562 26.7123 19.9973 26.5061C19.9678 26.2999 19.9973 26.0938 20.1151 25.9171L30.0107 11.7805C30.5114 11.0737 30.5408 10.3963 30.0696 9.71896C29.5689 8.92378 29.8634 8.33476 30.1285 7.95189C30.5997 7.27451 31.0709 6.62659 31.5421 5.94921C32.2195 4.94787 32.9263 3.97599 33.6332 2.97465C33.6626 2.9452 33.6626 2.9452 33.6626 2.91575C33.5743 2.82739 33.427 2.73904 33.2798 2.65069C32.8969 2.38563 32.3962 2.06166 31.7483 1.56099C31.5127 1.82605 31.1004 2.41508 30.6292 3.1219C30.0696 3.94654 29.2744 5.09513 28.1553 6.65604C27.8902 7.03891 27.2717 7.39232 26.7416 7.27451C25.8581 7.09781 25.2101 7.33342 24.7095 8.04024L24.6211 8.1286C24.4444 8.39366 24.4444 8.39366 21.2342 12.988L14.8433 22.1473C14.6077 22.5008 14.1365 22.5891 13.8126 22.3535L13.4886 22.1179C13.3119 22.0001 13.1352 21.8528 13.0174 21.7939C12.8996 21.9412 12.7229 22.2062 12.5462 22.4419L12.34 22.7658Z" fill="#2B1FC7"/>
<path d="M35.2825 28.4498C34.9585 28.4498 34.664 28.2142 34.5756 27.8902C33.9277 25.328 32.573 22.9719 30.6292 21.087C30.1874 20.6747 30.0696 20.1151 29.9518 19.585C29.834 19.0843 29.7162 18.6131 29.3922 18.2008C29.1272 17.8768 29.1861 17.4351 29.4806 17.17C29.8045 16.9049 30.2463 16.9638 30.5114 17.2584C31.0709 17.9652 31.2477 18.672 31.3949 19.261C31.4833 19.6144 31.5422 19.909 31.66 20.0268C33.7805 22.1178 35.2825 24.7095 35.9893 27.5368C36.0776 27.9197 35.842 28.332 35.4592 28.4203C35.4003 28.4498 35.3414 28.4498 35.2825 28.4498Z" fill="#2B1FC7"/>
<path d="M34.5756 50.5381H7.51003C5.77241 50.5381 5.27174 50.0375 5.27174 48.2998C5.27174 47.0629 5.27174 46.3561 5.74296 45.8849C6.24363 45.3842 6.921 45.3842 8.1874 45.3842H13.2824C10.8969 44.0589 8.98258 42.2918 7.45113 39.9946C6.21418 39.9946 5.21284 39.9946 4.38821 40.0241C1.44309 40.0535 0.824619 40.0535 0.353401 39.5823C0.0294384 39.2583 -1.27479e-05 38.846 -1.27479e-05 38.5221C-1.27479e-05 38.3159 -1.27442e-05 38.1098 -0.0294639 37.9625C-0.058915 37.3735 -0.0883662 36.8139 0.353401 36.3427C1.00133 35.6653 2.12047 35.6653 6.8032 35.7242C9.42435 35.7537 12.9879 35.7831 18.1124 35.7537C18.4953 35.7537 18.996 35.7831 19.3788 36.1954C19.7912 36.6372 19.7028 37.2262 19.7028 37.4324C19.6733 37.8152 19.6733 38.1098 19.7028 38.3454C19.7322 38.7577 19.7617 39.2289 19.3788 39.5823C18.9076 40.0535 18.2597 40.0535 15.8447 40.0241C15.5502 40.0241 15.2557 40.0241 14.9023 40.0241C17.5823 41.7911 20.8219 42.2329 23.826 41.2905C24.2088 41.1727 24.6211 41.3788 24.7389 41.7617C24.8567 42.1446 24.6506 42.5569 24.2677 42.6747C20.6747 43.8233 16.7871 43.1753 13.6653 40.9371C13.6064 40.9076 13.5475 40.8487 13.5181 40.7898C13.2824 40.4953 12.664 40.0535 12.3989 39.9063C12.1044 39.7296 11.9866 39.4056 12.075 39.0816C12.1633 38.7577 12.4873 38.5515 12.8112 38.5515C14.0776 38.5515 15.079 38.5515 15.8741 38.581C16.9638 38.581 17.8474 38.6104 18.2597 38.5515C18.2597 38.5221 18.2597 38.4632 18.2597 38.4337C18.2597 38.1392 18.2302 37.7563 18.2891 37.2851C18.2891 37.2557 18.2891 37.2557 18.2891 37.2557C18.2597 37.2557 18.2302 37.2557 18.2008 37.2557C13.0763 37.3146 9.48325 37.2557 6.8621 37.2262C3.91699 37.1968 1.94376 37.1673 1.502 37.3735C1.502 37.4913 1.502 37.7269 1.502 37.9036C1.502 38.0803 1.53145 38.2865 1.53145 38.5221C1.53145 38.5221 1.53145 38.5221 1.53145 38.5515C1.97321 38.6104 3.03345 38.6104 4.41766 38.581C5.33064 38.581 6.47924 38.5515 7.89289 38.5515C8.15795 38.5515 8.39356 38.6693 8.51137 38.9049C10.514 42.0562 13.3119 44.2061 17.1111 45.4725C17.4645 45.5903 17.6707 45.9438 17.6118 46.2972C17.5529 46.6506 17.2584 46.9156 16.8755 46.9156H8.1874C7.56893 46.9156 6.921 46.9156 6.77375 47.004C6.7443 47.0924 6.7443 47.7403 6.7443 48.3588C6.7443 48.9183 6.77375 49.0656 6.8032 49.1245C6.8032 49.095 6.95046 49.1245 7.51003 49.1245H34.5756C34.9879 49.1245 35.3119 49.4484 35.3119 49.8608C35.3119 50.2142 34.9879 50.5381 34.5756 50.5381Z" fill="#2B1FC7"/>
<path d="M31.4538 29.1273C31.1298 29.1273 30.8353 28.9212 30.747 28.5972C30.2168 26.948 29.2155 25.6227 28.1258 24.209C28.0964 24.209 28.0375 24.1796 28.008 24.1796C27.5957 24.2385 27.0656 24.2385 26.5649 24.1796C26.182 24.1207 25.8875 23.7672 25.9464 23.3549C25.9759 22.9426 26.3587 22.6775 26.7711 22.707C27.1539 22.7659 27.5662 22.7659 27.8313 22.707C28.2731 22.6775 28.921 22.8248 29.245 23.2371C30.423 24.7686 31.5421 26.2117 32.1312 28.1555C32.249 28.5383 32.0428 28.9506 31.6305 29.0684C31.601 29.1273 31.5127 29.1273 31.4538 29.1273Z" fill="#2B1FC7"/>
<path d="M34.4873 48.3294C29.245 48.3294 24.9745 44.059 24.9745 38.8167C24.9745 33.5744 29.245 29.304 34.4873 29.304C39.7296 29.304 44 33.5744 44 38.8167C44 44.059 39.7296 48.3294 34.4873 48.3294ZM34.4873 30.806C30.0696 30.806 26.4471 34.399 26.4471 38.8461C26.4471 43.2932 30.0401 46.8863 34.4873 46.8863C38.9049 46.8863 42.5274 43.2932 42.5274 38.8461C42.5274 34.399 38.9344 30.806 34.4873 30.806Z" fill="#2B1FC7"/>
<path d="M33.2798 42.9693C33.1031 42.9693 32.8969 42.9104 32.7496 42.7632L29.2744 39.2879C28.9799 38.9934 28.9799 38.5222 29.2744 38.2571C29.5689 37.9626 30.0401 37.9626 30.3052 38.2571L33.2503 41.2022L38.6399 35.8127C38.9344 35.5182 39.4056 35.5182 39.6707 35.8127C39.9652 36.1072 39.9652 36.5784 39.6707 36.8435L33.7804 42.7337C33.6626 42.9104 33.4859 42.9693 33.2798 42.9693Z" fill="#2B1FC7"/>
</svg>
