<svg width="44" height="40" viewBox="0 0 44 40" fill="none" xmlns="http://www.w3.org/2000/svg">
<path d="M32.3193 10.7138H7.7363C7.38003 10.7138 7.1001 10.4339 7.1001 10.0776C7.1001 9.72134 7.38003 9.44141 7.7363 9.44141H32.3193C32.6756 9.44141 32.9555 9.72134 32.9555 10.0776C32.9555 10.4339 32.6756 10.7138 32.3193 10.7138Z" fill="#2B1FC7"/>
<path d="M25.6773 17.3303H7.7363C7.38003 17.3303 7.1001 17.0503 7.1001 16.6941C7.1001 16.3378 7.38003 16.0579 7.7363 16.0579H25.6773C26.0336 16.0579 26.3135 16.3378 26.3135 16.6941C26.3135 17.0503 26.0336 17.3303 25.6773 17.3303Z" fill="#2B1FC7"/>
<path d="M8.80509 32.5992C8.72875 32.5992 8.6524 32.5737 8.55061 32.5483C8.32157 32.4465 8.16888 32.2175 8.16888 31.963V26.7461H5.08965C2.29034 26.7461 0 24.4558 0 21.6564V5.08965C0 2.29034 2.29034 0 5.08965 0H34.9913C37.7906 0 40.081 2.29034 40.081 5.08965V21.6819C40.081 24.4812 37.7906 26.7715 34.9913 26.7715H14.9127L9.26316 32.4211C9.11047 32.5483 8.95778 32.5992 8.80509 32.5992ZM5.08965 1.27241C2.97744 1.27241 1.27241 2.97744 1.27241 5.08965V21.6819C1.27241 23.7941 2.97744 25.4991 5.08965 25.4991H8.80509C9.16137 25.4991 9.4413 25.7791 9.4413 26.1353V30.4361L14.2001 25.6773C14.3274 25.55 14.48 25.4991 14.6582 25.4991H34.9913C37.1035 25.4991 38.8086 23.7941 38.8086 21.6819V5.08965C38.8086 2.97744 37.1035 1.27241 34.9913 1.27241H5.08965Z" fill="#2B1FC7"/>
<path d="M38.4014 39.0631C38.2487 39.0631 38.0706 38.9868 37.9433 38.885L34.5842 35.5258H22.4708C20.6385 35.5258 19.1371 34.0244 19.1371 32.1921V28.4258C19.1371 28.0695 19.417 27.7896 19.7733 27.7896C20.1296 27.7896 20.4095 28.0695 20.4095 28.4258V32.1921C20.4095 33.3373 21.3511 34.2534 22.4708 34.2534H34.8386C35.0168 34.2534 35.1695 34.3298 35.2967 34.4315L37.7652 36.9V34.8642C37.7652 34.5079 38.0451 34.228 38.4014 34.228H40.6663C41.8115 34.228 42.7276 33.2864 42.7276 32.1667V22.0637C42.7276 21.2239 42.2186 20.4605 41.4552 20.1551C41.1244 20.0278 40.9717 19.6461 41.1244 19.3153C41.2516 18.9845 41.6333 18.8318 41.9641 18.9845C43.2111 19.5189 44.0255 20.7149 44.0255 22.0637V32.1667C44.0255 33.9989 42.524 35.5004 40.6917 35.5004H39.0631V38.4269C39.0631 38.6814 38.9104 38.9104 38.6813 39.0122C38.5795 39.0377 38.4777 39.0631 38.4014 39.0631Z" fill="#2B1FC7"/>
</svg>
