<svg width="44" height="42" viewBox="0 0 44 42" fill="none" xmlns="http://www.w3.org/2000/svg">
<path d="M28.3082 41.3716H0.657103C0.446828 41.3716 0.236553 41.2664 0.105131 41.0824C-6.16489e-06 40.8984 -0.0262905 40.6882 0.0525625 40.4779L7.17562 22.184V15.4815H6.07168C5.7037 15.4815 5.41457 15.1923 5.41457 14.8244V9.17322C5.41457 8.80524 5.7037 8.51611 6.07168 8.51611H22.7885C23.1565 8.51611 23.4456 8.80524 23.4456 9.17322V14.8506C23.4456 15.2186 23.1565 15.5078 22.7885 15.5078H22.1577V21.816C22.1577 22.184 21.8686 22.4731 21.5006 22.4731C21.1326 22.4731 20.8435 22.184 20.8435 21.816V14.8506C20.8435 14.4827 21.1326 14.1935 21.5006 14.1935H22.1577V9.83033H6.72879V14.1935H7.80645C8.17443 14.1935 8.46355 14.4827 8.46355 14.8506V22.3154C8.46355 22.3943 8.43727 22.4731 8.41099 22.552L1.60334 40.0573H27.73C27.8088 39.9785 27.8877 39.8996 27.9928 39.8733C28.3345 39.7419 28.7025 39.9259 28.8339 40.2676L28.9128 40.5042C28.9916 40.7144 28.9653 40.9247 28.8339 41.1087C28.7288 41.2664 28.5448 41.3716 28.3082 41.3716Z" fill="#2B1FC7"/>
<path d="M11.7228 6.49233C10.3823 6.49233 9.30469 5.41467 9.30469 4.07417C9.30469 2.73366 10.3823 1.65601 11.7228 1.65601C13.0633 1.65601 14.141 2.73366 14.141 4.07417C14.1673 5.38838 13.0633 6.49233 11.7228 6.49233ZM11.7228 2.94394C11.1183 2.94394 10.6189 3.44334 10.6189 4.04788C10.6189 4.65242 11.1183 5.15182 11.7228 5.15182C12.3274 5.15182 12.8268 4.65242 12.8268 4.04788C12.8531 3.44334 12.3537 2.94394 11.7228 2.94394Z" fill="#2B1FC7"/>
<path d="M18.2151 4.10036C17.0849 4.10036 16.1649 3.18041 16.1649 2.05018C16.1649 0.919952 17.0849 0 18.2151 0C19.3453 0 20.2653 0.919952 20.2653 2.05018C20.2653 3.18041 19.3453 4.10036 18.2151 4.10036ZM18.2151 1.31422C17.8208 1.31422 17.4791 1.65591 17.4791 2.05018C17.4791 2.44444 17.8208 2.78614 18.2151 2.78614C18.6094 2.78614 18.9511 2.44444 18.9511 2.05018C18.9511 1.65591 18.6094 1.31422 18.2151 1.31422Z" fill="#2B1FC7"/>
<path d="M31.2784 41.5293C24.2605 41.5293 18.5568 35.8256 18.5568 28.8077C18.5568 23.9976 21.2903 19.5819 25.5747 17.4528V6.54483H24.3919C24.0239 6.54483 23.7348 6.25571 23.7348 5.88773V2.68103C23.7348 2.31305 24.0239 2.02393 24.3919 2.02393H38.1912C38.5592 2.02393 38.8483 2.31305 38.8483 2.68103V5.91401C38.8483 6.28199 38.5592 6.57112 38.1912 6.57112H36.9821V17.4791C41.2664 19.6344 44 24.0502 44 28.834C44 35.8256 38.2963 41.5293 31.2784 41.5293ZM25.049 5.23062H26.2581C26.6261 5.23062 26.9152 5.51974 26.9152 5.88773V17.8734C26.9152 18.1362 26.7575 18.3728 26.5209 18.4779C22.4731 20.3441 19.871 24.3919 19.871 28.834C19.871 35.1159 24.9964 40.2414 31.2784 40.2414C37.5603 40.2414 42.6858 35.1159 42.6858 28.834C42.6858 24.3919 40.0836 20.3441 36.0359 18.4779C35.7993 18.3728 35.6416 18.1362 35.6416 17.8734V5.88773C35.6416 5.51974 35.9307 5.23062 36.2987 5.23062H37.5078V3.33814H25.049V5.23062Z" fill="#2B1FC7"/>
</svg>
