<svg width="44" height="44" viewBox="0 0 44 44" fill="none" xmlns="http://www.w3.org/2000/svg">
<path d="M8.61619 28.376H0.718016C0.402089 28.376 0.114883 28.1462 0.0287206 27.8303C-0.0574413 27.5143 0.0861619 27.1697 0.402089 27.0261C5.60052 24.2689 7.49608 22.4308 7.89817 19.731C7.86945 17.9791 6.43342 16.5718 4.65274 16.5718C2.87206 16.5718 1.43603 18.0078 1.43603 19.7885C1.43603 20.1906 1.1201 20.5065 0.718016 20.5065C0.315927 20.5065 0 20.1906 0 19.7885C0 17.2323 2.09661 15.1357 4.65274 15.1357C7.20888 15.1357 9.3342 17.2323 9.3342 19.7885C9.3342 19.8172 9.3342 19.8459 9.3342 19.9034C8.87467 22.919 6.92167 24.872 3.4752 26.9399H8.61619C9.01828 26.9399 9.3342 27.2558 9.3342 27.6579C9.3342 28.06 8.98956 28.376 8.61619 28.376Z" fill="#2B1FC7"/>
<path d="M17.2611 28.376C16.859 28.376 16.5431 28.0601 16.5431 27.658V25.2167H11.4595C11.2011 25.2167 10.9426 25.0731 10.8277 24.8434C10.7128 24.6136 10.7128 24.3264 10.8564 24.1254L16.658 15.4517C16.8303 15.1932 17.1462 15.0784 17.4621 15.1645C17.7781 15.2507 17.9791 15.5379 17.9791 15.8538V23.8094H19.4439C19.846 23.8094 20.1619 24.1254 20.1619 24.5274C20.1619 24.9295 19.846 25.2455 19.4439 25.2455H17.9791V27.6867C17.9791 28.0601 17.6632 28.376 17.2611 28.376ZM12.8094 23.7807H16.5431V18.2089L12.8094 23.7807Z" fill="#2B1FC7"/>
<path d="M22.2298 43.5117C15.3943 43.5117 9.10444 40.4099 4.96867 34.9817C4.73891 34.6658 4.79635 34.2063 5.11228 33.9765C5.4282 33.7467 5.88773 33.8042 6.1175 34.1201C9.99478 39.1749 15.8825 42.0757 22.2585 42.0757C33.4595 42.0757 42.5927 32.9713 42.5927 21.7415C42.5927 10.5405 33.4883 1.40731 22.2585 1.40731C18.7546 1.40731 15.3081 2.32637 12.2637 4.04961C11.9765 4.22193 11.6319 4.16449 11.4021 3.93473L10.1958 2.72846L7.61097 11.718L16.6867 9.44909L15.7102 8.41514C15.5379 8.24282 15.4804 8.01305 15.5091 7.78329C15.5666 7.55352 15.7102 7.35248 15.94 7.26632C17.9504 6.4047 20.0757 5.94517 22.2585 5.94517C30.9896 5.94517 38.0836 13.0392 38.0836 21.7702C38.0836 30.5013 30.9896 37.5953 22.2585 37.5953C17.2898 37.5953 12.7232 35.3264 9.70758 31.3916C9.47781 31.0757 9.53525 30.6162 9.85118 30.3864C10.1671 30.1567 10.6266 30.2141 10.8564 30.53C13.6136 34.1201 17.7781 36.1593 22.2872 36.1593C30.2141 36.1593 36.6762 29.6971 36.6762 21.7702C36.6762 13.8433 30.2141 7.3812 22.2872 7.3812C20.6501 7.3812 19.0705 7.66841 17.5196 8.18538L18.6397 9.3342C18.812 9.50653 18.8982 9.79373 18.812 10.0235C18.6971 10.282 18.4961 10.483 18.2663 10.5405L6.77807 13.4125C6.51959 13.47 6.2611 13.4125 6.08878 13.2115C5.91645 13.0104 5.83029 12.752 5.91645 12.5222L9.16188 1.14883C9.21933 0.890339 9.42037 0.718016 9.67886 0.660574C9.93734 0.603133 10.1958 0.660574 10.3682 0.861619L12.0339 2.58486C15.1645 0.890339 18.6971 0 22.2298 0C34.235 0 44 9.76501 44 21.7415C44 33.7467 34.235 43.5117 22.2298 43.5117Z" fill="#2B1FC7"/>
<path d="M29.2663 27.6579C29.094 27.6579 28.893 27.6005 28.7494 27.4569L23.5796 22.2872C23.4648 22.1148 23.3786 21.9425 23.3786 21.7415V12.2637C23.3786 11.8616 23.6945 11.5457 24.0966 11.5457C24.4987 11.5457 24.8146 11.8616 24.8146 12.2637V21.483L29.7833 26.4517C30.0705 26.7389 30.0705 27.1984 29.7833 27.4569C29.6397 27.5718 29.4674 27.6579 29.2663 27.6579Z" fill="#2B1FC7"/>
</svg>
