<svg width="44" height="42" viewBox="0 0 44 42" fill="none" xmlns="http://www.w3.org/2000/svg">
<path d="M40.0174 26.01C39.8526 26.01 39.6604 25.9551 39.523 25.8178L21.9999 8.26721L4.47684 25.7903C4.20219 26.065 3.76274 26.065 3.51554 25.7903L0.219664 22.4944C-0.0549923 22.2198 -0.0549923 21.7803 0.219664 21.5331L18.1273 3.59804C18.1547 3.57058 18.1822 3.54311 18.2097 3.51564L21.5056 0.219765C21.6704 0.0275051 21.9175 -0.0274263 22.1373 3.94136e-05C22.2746 0.0275051 22.3845 0.0824364 22.4943 0.192299L25.7902 3.48818C25.8177 3.54311 25.8451 3.57058 25.8726 3.59804L43.7802 21.5057C44.0549 21.7803 44.0549 22.2198 43.7802 22.467L40.4843 25.7628C40.347 25.9276 40.1822 26.01 40.0174 26.01ZM21.9999 6.61927C22.1647 6.61927 22.357 6.6742 22.4943 6.81153L40.0174 24.3346L42.352 22L24.8289 4.47694C24.8014 4.44948 24.774 4.42201 24.7465 4.39455L21.9999 1.64798L19.2534 4.39455C19.2259 4.42201 19.1984 4.44948 19.171 4.47694L1.64788 22L3.98246 24.3346L21.5056 6.81153C21.6429 6.70166 21.8351 6.61927 21.9999 6.61927Z" fill="#2B1FC7"/>
<path d="M5.57544 41.8851C5.19092 41.8851 4.88879 41.583 4.88879 41.1985V23.7303C4.88879 23.3458 5.19092 23.0437 5.57544 23.0437C5.95995 23.0437 6.26208 23.3458 6.26208 23.7303V41.1985C6.26208 41.583 5.95995 41.8851 5.57544 41.8851Z" fill="#2B1FC7"/>
<path d="M38.4244 41.8851C38.0399 41.8851 37.7378 41.583 37.7378 41.1985V23.7303C37.7378 23.3458 38.0399 23.0437 38.4244 23.0437C38.809 23.0437 39.1111 23.3458 39.1111 23.7303V41.1985C39.1111 41.583 38.809 41.8851 38.4244 41.8851Z" fill="#2B1FC7"/>
<path d="M37.6554 17.0288C37.2708 17.0288 36.9687 16.7267 36.9687 16.3422V3.21362H31.2284V9.2286C31.2284 9.61312 30.9263 9.91524 30.5417 9.91524C30.1572 9.91524 29.8551 9.61312 29.8551 9.2286V2.52697C29.8551 2.14245 30.1572 1.84033 30.5417 1.84033H37.6554C38.0399 1.84033 38.342 2.14245 38.342 2.52697V16.3147C38.342 16.7267 38.0124 17.0288 37.6554 17.0288Z" fill="#2B1FC7"/>
<path d="M41.4456 41.8852H2.5542C2.16968 41.8852 1.86755 41.5831 1.86755 41.1986C1.86755 40.8141 2.16968 40.512 2.5542 40.512H41.4456C41.8301 40.512 42.1322 40.8141 42.1322 41.1986C42.1322 41.5831 41.8301 41.8852 41.4456 41.8852Z" fill="#2B1FC7"/>
<path d="M21.8076 35.4307C21.6703 35.4307 21.5055 35.3758 21.3956 35.2934C20.709 34.7715 14.7764 30.1024 13.8151 27.1635C13.2658 25.7902 13.4031 24.0599 14.1722 22.7965C14.8314 21.6979 15.9025 21.0112 17.2483 20.8464C19.4731 20.5992 21.0111 22.3021 21.8076 23.5106C22.6041 22.3021 24.1422 20.5992 26.3669 20.8464C27.6853 21.0112 28.7839 21.6979 29.4431 22.7965C30.2121 24.0599 30.3495 25.7902 29.8001 27.191C28.8663 30.1024 22.9063 34.7715 22.2196 35.2934C22.0823 35.4032 21.945 35.4307 21.8076 35.4307ZM17.6878 22.1922C17.6054 22.1922 17.4955 22.1922 17.4131 22.2197C16.2596 22.357 15.6553 22.9888 15.3257 23.5106C14.7764 24.417 14.694 25.7079 15.0785 26.6966C15.7377 28.7291 19.8026 32.2996 21.7802 33.8652C23.7577 32.2721 27.8226 28.7291 28.4818 26.7241C28.8938 25.6804 28.7839 24.3895 28.2621 23.4831C27.9599 22.9613 27.3282 22.3296 26.2021 22.1922C23.895 21.9451 22.4393 25.186 22.4393 25.2135C22.3295 25.4607 22.0823 25.6255 21.8076 25.6255C21.533 25.6255 21.2858 25.4607 21.1759 25.2135C21.1485 25.186 19.8301 22.1922 17.6878 22.1922Z" fill="#2B1FC7"/>
</svg>
