<svg width="44" height="54" viewBox="0 0 44 54" fill="none" xmlns="http://www.w3.org/2000/svg">
<path d="M10.6259 15.2672C10.1984 15.2672 9.86255 14.9313 9.86255 14.5038V6.04583C9.86255 5.61835 10.1984 5.28247 10.6259 5.28247H15.7251C16.1526 5.28247 16.4885 5.61835 16.4885 6.04583C16.4885 6.47331 16.1526 6.80919 15.7251 6.80919H11.3893V14.5038C11.3893 14.9313 11.0534 15.2672 10.6259 15.2672Z" fill="#2B1FC7"/>
<path d="M43.2366 50.8092H15.2977C14.8702 50.8092 14.5343 50.4733 14.5343 50.0458C14.5343 49.6183 14.8702 49.2825 15.2977 49.2825H42.4732V6.80919H37.8931C37.4656 6.80919 37.1297 6.47331 37.1297 6.04583C37.1297 5.61835 37.4656 5.28247 37.8931 5.28247H43.2366C43.6641 5.28247 44 5.61835 44 6.04583V50.0458C44 50.4428 43.6641 50.8092 43.2366 50.8092Z" fill="#2B1FC7"/>
<path d="M30.7175 10.626H22.8702C19.8778 10.626 17.4656 8.21374 17.4656 5.22137C17.4656 4.79389 17.8015 4.45801 18.2289 4.45801H22.6564C22.6564 4.39695 22.6564 4.36641 22.6564 4.30534C22.6259 1.92366 24.5495 0 26.9312 0C29.3129 0 31.2366 1.92366 31.2366 4.30534C31.2366 4.36641 31.2366 4.39695 31.2366 4.45801H35.3587C35.7862 4.45801 36.1221 4.79389 36.1221 5.22137C36.1221 8.18321 33.6793 10.626 30.7175 10.626ZM19.0534 5.98473C19.4198 7.75572 20.977 9.09924 22.8702 9.09924H30.7175C32.6106 9.09924 34.1679 7.75572 34.5343 5.98473H30.3511C30.1068 5.98473 29.8931 5.8626 29.7404 5.67939C29.5877 5.49618 29.5572 5.25191 29.6182 5.00763C29.6793 4.73282 29.7099 4.51908 29.7099 4.30534C29.7099 2.77863 28.4579 1.52672 26.9312 1.52672C25.4045 1.52672 24.1526 2.77863 24.1526 4.30534C24.1526 4.51908 24.1831 4.73282 24.2442 5.00763C24.3053 5.25191 24.2442 5.46565 24.1221 5.67939C23.9694 5.8626 23.7557 5.98473 23.5114 5.98473H19.0534Z" fill="#2B1FC7"/>
<path d="M18.9008 22.1374C18.687 22.1374 18.5038 22.0458 18.3511 21.9236L15.5725 19.1145C15.2672 18.8091 15.2672 18.3206 15.5725 18.0152C15.8779 17.7099 16.3664 17.7099 16.6412 18.0152L18.9008 20.2748L23.1145 16.061C23.4198 15.7557 23.9084 15.7557 24.1832 16.061C24.4885 16.3664 24.4885 16.8549 24.1832 17.1297L19.4504 21.8931C19.2977 22.0458 19.1145 22.1374 18.9008 22.1374Z" fill="#2B1FC7"/>
<path d="M18.9008 31.8778C18.687 31.8778 18.5038 31.7862 18.3511 31.6641L15.5725 28.8549C15.2672 28.5496 15.2672 28.061 15.5725 27.7862C15.8779 27.4809 16.3359 27.4809 16.6412 27.7862L18.9008 30.0458L23.1145 25.832C23.4198 25.5267 23.9084 25.5267 24.1832 25.832C24.4885 26.1374 24.4885 26.6259 24.1832 26.9007L19.4504 31.6336C19.2977 31.7862 19.1145 31.8778 18.9008 31.8778Z" fill="#2B1FC7"/>
<path d="M18.9007 41.6183C18.687 41.6183 18.5038 41.5267 18.3511 41.4046L17.1603 40.2137C16.8549 39.9084 16.8549 39.4198 17.1603 39.145C17.4656 38.8397 17.9542 38.8397 18.229 39.145L18.8702 39.7863L23.0839 35.5725C23.3893 35.2672 23.8778 35.2672 24.1526 35.5725C24.458 35.8779 24.458 36.3664 24.1526 36.6412L19.4198 41.374C19.2977 41.5267 19.1145 41.6183 18.9007 41.6183Z" fill="#2B1FC7"/>
<path d="M38.5953 19.7557H28.061C27.6335 19.7557 27.2976 19.4198 27.2976 18.9924C27.2976 18.5649 27.6335 18.229 28.061 18.229H38.5953C39.0228 18.229 39.3587 18.5649 39.3587 18.9924C39.3587 19.4198 38.9923 19.7557 38.5953 19.7557Z" fill="#2B1FC7"/>
<path d="M38.5953 29.4962H28.061C27.6335 29.4962 27.2976 29.1603 27.2976 28.7328C27.2976 28.3054 27.6335 27.9695 28.061 27.9695H38.5953C39.0228 27.9695 39.3587 28.3054 39.3587 28.7328C39.3587 29.1603 38.9923 29.4962 38.5953 29.4962Z" fill="#2B1FC7"/>
<path d="M38.5953 39.2367H28.061C27.6335 39.2367 27.2976 38.9008 27.2976 38.4733C27.2976 38.0458 27.6335 37.71 28.061 37.71H38.5953C39.0228 37.71 39.3587 38.0458 39.3587 38.4733C39.3587 38.9008 38.9923 39.2367 38.5953 39.2367Z" fill="#2B1FC7"/>
<path d="M8.4275 26.5649C6.07636 26.5649 4.18323 24.2749 4.18323 21.4657C4.18323 18.6565 6.07636 16.3359 8.4275 16.3359C10.7786 16.3359 12.7023 18.626 12.7023 21.4352C12.7023 24.2443 10.7786 26.5649 8.4275 26.5649ZM8.4275 17.8321C6.93132 17.8321 5.70995 19.4504 5.70995 21.4352C5.70995 23.4199 6.93132 25.0382 8.4275 25.0382C9.92369 25.0382 11.1451 23.4199 11.1451 21.4352C11.1756 19.4504 9.95422 17.8321 8.4275 17.8321Z" fill="#2B1FC7"/>
<path d="M12.6412 42.168C12.3359 42.168 12.0611 41.9848 11.9389 41.6794C11.7863 41.2825 11.9695 40.855 12.3664 40.7023C14.1679 39.9695 15.3588 38.2596 15.3588 36.3054V33.7405C15.3588 31.1451 13.2519 29.0077 10.626 29.0077H6.25954C3.66412 29.0077 1.52672 31.1145 1.52672 33.7405V36.3054C1.52672 38.2596 2.68702 39.9695 4.51908 40.7023C4.91603 40.855 5.09924 41.313 4.94656 41.6794C4.79389 42.0764 4.33588 42.2596 3.96947 42.1069C1.55725 41.1603 0 38.8703 0 36.3054V33.7405C0 30.2901 2.80916 27.481 6.25954 27.481H10.626C14.0763 27.481 16.8855 30.2901 16.8855 33.7405V36.3054C16.8855 38.9008 15.3282 41.1603 12.9466 42.1069C12.8244 42.1374 12.7328 42.168 12.6412 42.168Z" fill="#2B1FC7"/>
<path d="M8.42742 52.1834C7.99994 52.1834 7.66406 51.8475 7.66406 51.42V41.3742C7.66406 40.9467 7.99994 40.6108 8.42742 40.6108C8.8549 40.6108 9.19078 40.9467 9.19078 41.3742V51.42C9.19078 51.8475 8.8549 52.1834 8.42742 52.1834Z" fill="#2B1FC7"/>
<path d="M6.53434 53.0383C5.40457 53.0383 4.39694 52.4887 3.84732 52.0002C3.69465 51.8475 3.57251 51.6338 3.57251 51.42V32.8857C3.57251 32.4582 3.90839 32.1223 4.33587 32.1223C4.76335 32.1223 5.09923 32.4582 5.09923 32.8857V51.0536C5.61831 51.3895 6.80915 51.9696 7.87785 50.9009C8.15266 50.6261 8.67175 50.6261 8.94656 50.9009C10.0153 51.9696 11.2061 51.3895 11.7252 51.0536V32.8857C11.7252 32.4582 12.0611 32.1223 12.4885 32.1223C12.916 32.1223 13.2519 32.4582 13.2519 32.8857V51.42C13.2519 51.6338 13.1603 51.8475 12.9771 52.0002C12.1221 52.733 10.1679 53.649 8.39694 52.4277C7.81678 52.8551 7.14503 53.0383 6.53434 53.0383Z" fill="#2B1FC7"/>
</svg>
