<svg width="44" height="45" viewBox="0 0 44 45" fill="none" xmlns="http://www.w3.org/2000/svg">
<path d="M33.6253 21.0221C33.551 21.0221 33.4767 21.0221 33.4024 21.0221C33.1301 21.0221 32.8825 20.824 32.8082 20.5764L32.2882 18.6945C31.4463 18.5707 30.654 18.2984 29.9112 17.927L28.4008 19.165C28.1779 19.3383 27.8808 19.3383 27.6579 19.1898C26.717 18.546 25.8999 17.7784 25.2066 16.887C25.0333 16.6642 25.0333 16.367 25.2066 16.1442L26.3456 14.5595C25.9247 13.8167 25.6275 13.0491 25.4542 12.2072L23.5724 11.811C23.3 11.7615 23.1019 11.5139 23.0772 11.2663C23.0029 10.1273 23.0772 9.01305 23.3495 7.92358C23.4486 7.62645 23.6714 7.45312 23.9438 7.42836L25.8999 7.32932C26.0485 6.93314 26.2466 6.56173 26.4446 6.19032C26.6675 5.8189 26.8903 5.47225 27.1627 5.15036L26.2961 3.39234C26.1723 3.14473 26.2218 2.8476 26.4199 2.67428C27.237 1.90669 28.1779 1.28767 29.2179 0.817216C29.4655 0.693412 29.7626 0.767694 29.9359 0.965781L31.2483 2.47619C32.0654 2.22858 32.8825 2.12954 33.7243 2.12954L34.5662 0.371521C34.69 0.123913 34.9376 -0.0246524 35.21 0.0248693C36.3242 0.198195 37.4137 0.544847 38.4041 1.04006C38.6517 1.16387 38.7755 1.43624 38.726 1.70861L38.3794 3.63995C39.0727 4.11041 39.6917 4.70467 40.2117 5.37321L42.1183 4.92751C42.3906 4.85323 42.663 4.97704 42.7868 5.22464C43.3563 6.21508 43.7525 7.25503 43.9753 8.36927C44.0248 8.64164 43.901 8.91401 43.6534 9.03781L41.9449 9.90444C41.9945 10.7463 41.9202 11.5882 41.7221 12.4053L43.2573 13.6186C43.4801 13.7919 43.5544 14.089 43.4553 14.3366C43.2573 14.8566 43.0096 15.3766 42.7373 15.847C42.4649 16.3175 42.1183 16.788 41.7716 17.2336C41.5983 17.4565 41.3011 17.506 41.0535 17.407L39.2708 16.6394C38.6517 17.2089 37.9584 17.6793 37.1909 18.026L37.2156 19.9821C37.2156 20.2545 37.0423 20.5021 36.7699 20.5764C35.73 20.8735 34.69 21.0221 33.6253 21.0221ZM29.8616 16.5899C29.9607 16.5899 30.0597 16.6146 30.1588 16.6641C31.0006 17.1346 31.9168 17.4317 32.8577 17.5308C33.1053 17.5555 33.3282 17.7289 33.3777 17.9765L33.8729 19.784C34.5662 19.7593 35.2595 19.6602 35.9033 19.4869L35.8785 17.6051C35.8785 17.3575 36.0271 17.1346 36.2747 17.0356C37.1661 16.6642 37.9584 16.1442 38.6517 15.4509C38.8251 15.2775 39.0974 15.228 39.345 15.3271L41.0783 16.0699C41.2764 15.7975 41.4745 15.5004 41.6478 15.2033C41.8211 14.9061 41.9697 14.609 42.1183 14.2871L40.6326 13.1234C40.4345 12.9748 40.3602 12.7024 40.4098 12.4548C40.6821 11.5387 40.7564 10.573 40.6574 9.60731C40.6326 9.3597 40.7564 9.1121 40.9793 8.98829L42.6382 8.0969C42.4649 7.42836 42.2173 6.78458 41.8954 6.16556L40.1126 6.63601C39.865 6.68553 39.6174 6.58649 39.4688 6.3884C38.8993 5.59606 38.206 4.95227 37.3889 4.4323C37.1661 4.30849 37.067 4.03612 37.1166 3.78852L37.4632 1.93145C36.8442 1.65908 36.1757 1.43624 35.5071 1.31243L34.6652 3.02093C34.5662 3.24378 34.3186 3.39234 34.071 3.36758C33.1053 3.31806 32.1644 3.44186 31.2483 3.76375C31.0006 3.83804 30.753 3.78852 30.5797 3.59043L29.3417 2.17906C28.7226 2.47619 28.1531 2.87236 27.6332 3.31806L28.475 5.0018C28.5988 5.22464 28.5493 5.49701 28.376 5.6951C28.0541 6.04175 27.7817 6.43793 27.5341 6.85886C27.2865 7.27979 27.0884 7.70073 26.9399 8.14642C26.8656 8.39403 26.6427 8.5426 26.3951 8.56736L24.4638 8.64164C24.34 9.31018 24.2905 10.0035 24.2905 10.6968L26.1228 11.093C26.3704 11.1425 26.5685 11.3406 26.5932 11.5882C26.7418 12.5291 27.0884 13.4452 27.6084 14.2376C27.7322 14.4604 27.7322 14.7328 27.5836 14.9309L26.4942 16.4908C26.9399 17.0108 27.4351 17.4813 27.9798 17.9022L29.4407 16.7137C29.5893 16.6146 29.7131 16.5899 29.8616 16.5899Z" fill="#2B1FC7"/>
<path d="M33.6253 14.9804C32.833 14.9804 32.0654 14.7823 31.3473 14.3614C30.3073 13.7423 29.5645 12.7767 29.2674 11.5881C28.9703 10.4244 29.1436 9.21111 29.7626 8.17115C30.3816 7.1312 31.3473 6.38837 32.5358 6.09124C33.6996 5.79411 34.9129 5.96744 35.9528 6.58646C38.0822 7.84926 38.8003 10.6225 37.5375 12.7767C36.6709 14.188 35.1605 14.9804 33.6253 14.9804ZM31.9663 13.2719C33.5263 14.188 35.5319 13.6681 36.448 12.1081C37.3642 10.5482 36.8442 8.54256 35.2843 7.62641C34.5414 7.18072 33.6501 7.05691 32.8082 7.27976C31.9663 7.50261 31.2483 8.02259 30.8026 8.79017C30.3569 9.533 30.2331 10.4244 30.4559 11.2663C30.6788 12.1329 31.2235 12.8262 31.9663 13.2719Z" fill="#2B1FC7"/>
<path d="M14.9556 44.6934C14.4108 44.6934 13.8413 44.6686 13.2966 44.5944C13.0242 44.5696 12.8262 44.3715 12.7519 44.1239L12.0338 40.905C11.1424 40.6326 10.2758 40.2612 9.48344 39.7908L6.46262 41.5983C6.23977 41.7221 5.9674 41.7221 5.76931 41.5488C5.19981 41.1031 4.65508 40.6079 4.1351 40.0879C3.96177 39.8898 3.91225 39.6174 4.03606 39.3698L5.69503 36.2004C5.17505 35.4081 4.72936 34.5662 4.40747 33.6748L0.767625 33.0558C0.520017 33.0063 0.32193 32.8082 0.272409 32.5606L0.247648 32.4615C0.222887 32.3873 0.222887 32.2882 0.198126 32.2139C0.0990829 31.6692 0.0248004 31.0997 3.96012e-05 30.5302C-0.0247212 30.2578 0.148605 30.035 0.371452 29.9359L3.73893 28.5493C3.83797 27.5341 4.03606 26.5685 4.38271 25.6276L2.05519 22.9039C1.88186 22.7058 1.8571 22.4087 1.98091 22.1858C2.32756 21.5915 2.72373 21.022 3.14467 20.4773C3.29323 20.2792 3.5656 20.1802 3.81321 20.2792L7.1064 21.3192C7.87398 20.5516 8.74061 19.9078 9.65676 19.3631L9.632 16.1442C9.632 15.8718 9.80533 15.6489 10.0529 15.5499C10.7215 15.3271 11.4395 15.129 12.1576 14.9804C12.4052 14.9309 12.6528 15.0547 12.8014 15.2528L14.4604 17.8527C15.5746 17.7784 16.6888 17.8279 17.7783 18.0507L19.5859 15.8718C19.7592 15.6737 20.0316 15.5994 20.2792 15.6985C21.022 15.9708 21.7401 16.3175 22.4086 16.6889C22.6314 16.8127 22.7552 17.0603 22.7057 17.3079L22.3343 20.0316C23.2505 20.7002 24.0676 21.4677 24.7609 22.3591L27.2865 21.8887C27.5588 21.8392 27.8065 21.963 27.9303 22.1858C28.3512 22.9039 28.6978 23.6467 28.995 24.439C29.094 24.6866 29.0197 24.9343 28.8216 25.1076L26.9151 26.8408C26.9893 27.1132 27.0389 27.3856 27.0884 27.6332C27.237 28.4255 27.2865 29.2674 27.237 30.0845L29.4654 31.3473C29.6883 31.4711 29.8121 31.7187 29.7626 31.9911C29.6388 32.833 29.4407 33.6748 29.1683 34.4672C29.094 34.7148 28.8712 34.8881 28.5988 34.8881L25.9494 34.9872C25.4789 35.9033 24.9094 36.7452 24.2161 37.5128L25.1818 40.1126C25.2808 40.3603 25.2066 40.6079 25.0085 40.7812C24.3895 41.3507 23.7209 41.8707 23.0276 42.3164C22.8048 42.4649 22.5324 42.4402 22.3096 42.2916L19.982 40.5088C19.1402 40.8555 18.2735 41.1031 17.3821 41.2516C17.3326 41.2516 17.2583 41.2764 17.2088 41.2764L16.1441 44.2725C16.0698 44.5201 15.847 44.6686 15.5994 44.6934C15.426 44.6934 15.2032 44.6934 14.9556 44.6934ZM13.8661 43.4306C14.3118 43.4554 14.7327 43.4801 15.1784 43.4801L16.2184 40.5336C16.2927 40.3107 16.4908 40.1622 16.7384 40.1374C16.9117 40.1126 17.085 40.0879 17.2336 40.0631C18.1497 39.9146 19.0164 39.6422 19.8582 39.246C20.0563 39.147 20.3039 39.1717 20.502 39.3203L22.7552 41.0536C23.1514 40.7812 23.5228 40.4841 23.8942 40.1622L22.9286 37.587C22.8543 37.3642 22.9038 37.1166 23.0524 36.9433C23.8447 36.1262 24.5133 35.1605 24.9837 34.1205C25.0828 33.9224 25.2809 33.7739 25.5285 33.7739L28.1036 33.6748C28.2522 33.2044 28.3512 32.7092 28.4502 32.2139L26.2713 30.9759C26.0732 30.8521 25.9494 30.6292 25.9494 30.3816C26.0237 29.5398 25.9742 28.6731 25.8256 27.856C25.7761 27.5094 25.677 27.1627 25.6027 26.8161C25.5532 26.5932 25.6027 26.3456 25.7761 26.1971L27.6331 24.4886C27.4598 24.0429 27.237 23.5972 27.0141 23.1762L24.6371 23.6467C24.3895 23.6962 24.1666 23.5972 24.018 23.3991C23.2752 22.4087 22.3838 21.542 21.3439 20.8487C21.1458 20.7002 21.0467 20.4773 21.0715 20.2545L21.4182 17.5803C21.0467 17.3574 20.6506 17.1841 20.2544 17.0108L18.4964 19.1402C18.3478 19.3135 18.1002 19.3878 17.8774 19.3383C16.6888 19.0659 15.4508 18.9917 14.2128 19.1402C13.9651 19.165 13.7423 19.0659 13.5937 18.8679L11.9843 16.2927C11.5881 16.367 11.2415 16.4661 10.87 16.5899L10.8948 19.7345C10.8948 19.9573 10.771 20.1802 10.5729 20.2792C9.5082 20.824 8.56729 21.5668 7.75018 22.4334C7.57685 22.6067 7.32925 22.681 7.1064 22.6067L3.88749 21.5915C3.66464 21.8639 3.49132 22.1363 3.29323 22.4334L5.57123 25.0828C5.71979 25.2561 5.76931 25.5038 5.67027 25.7018C5.24934 26.7666 5.00173 27.8808 4.95221 28.995C4.92745 29.2426 4.77888 29.4407 4.58079 29.5398L1.2876 30.9016C1.31236 31.2483 1.36189 31.5949 1.41141 31.9416L5.00173 32.5358C5.22458 32.5854 5.42266 32.7339 5.49694 32.9568C5.8436 33.972 6.31405 34.9376 6.95783 35.829C7.1064 36.0271 7.1064 36.2747 7.00736 36.4728L5.3979 39.5679C5.67027 39.8403 5.9674 40.0879 6.23977 40.3355L9.23583 38.5775C9.43392 38.4537 9.68153 38.4537 9.87961 38.5775C10.771 39.147 11.7614 39.5679 12.7766 39.8403C12.9995 39.8898 13.1728 40.0879 13.2223 40.3107L13.8661 43.4306Z" fill="#2B1FC7"/>
<path d="M15.426 36.8938C11.9347 36.8938 8.8396 34.3682 8.22057 30.8026C7.55203 26.8409 10.2262 23.0525 14.2127 22.3839C16.144 22.062 18.0754 22.5077 19.6601 23.622C21.2448 24.761 22.3095 26.4447 22.6314 28.3513C22.9533 30.2826 22.5076 32.214 21.3933 33.7987C20.2543 35.3833 18.5706 36.4481 16.664 36.77C16.2431 36.8442 15.8221 36.8938 15.426 36.8938ZM15.4507 23.5229C15.1041 23.5229 14.7574 23.5477 14.4355 23.5972C11.1424 24.1667 8.91388 27.2866 9.45862 30.5797C10.0281 33.8729 13.148 36.1014 16.4412 35.5567C18.0506 35.2843 19.4372 34.4177 20.3781 33.0806C21.3191 31.7683 21.6905 30.1588 21.4181 28.5494C21.1457 26.9399 20.2791 25.5533 18.942 24.6124C17.9021 23.8943 16.6888 23.5229 15.4507 23.5229Z" fill="#2B1FC7"/>
</svg>
