<svg width="44" height="42" viewBox="0 0 44 42" fill="none" xmlns="http://www.w3.org/2000/svg">
<path d="M15.6112 26.9722C15.3973 26.9722 15.1567 26.8653 15.0498 26.6514C14.836 26.3307 14.9161 25.9297 15.2369 25.7426L21.5188 21.813C21.8396 21.6259 22.2406 21.7061 22.4544 22.0269C22.6415 22.3209 22.5346 22.7219 22.2138 22.9358L15.9319 26.8653C15.8517 26.9455 15.7181 26.9722 15.6112 26.9722Z" fill="#2B1FC7"/>
<path d="M28.3086 27.1592C28.175 27.1592 28.068 27.1325 27.9344 27.0523L21.4921 22.9356C21.1981 22.7218 21.0911 22.2941 21.305 22C21.4921 21.6793 21.9198 21.5991 22.2406 21.7862L28.6829 25.9296C29.0036 26.1434 29.0838 26.5444 28.8967 26.8652C28.7363 27.0523 28.5225 27.1592 28.3086 27.1592Z" fill="#2B1FC7"/>
<path d="M21.8663 23.0426C21.4921 23.0426 21.198 22.7485 21.198 22.3743V16.4132C21.198 16.0389 21.4921 15.7449 21.8663 15.7449C22.2406 15.7449 22.5346 16.0389 22.5346 16.4132V22.3475C22.5346 22.7218 22.2406 23.0426 21.8663 23.0426Z" fill="#2B1FC7"/>
<path d="M21.8664 14.7023C17.8032 14.7023 14.5152 11.4143 14.5152 7.35115C14.5152 3.28797 17.8032 0 21.8664 0C25.9295 0 29.2175 3.28797 29.2175 7.35115C29.2175 11.4143 25.9295 14.7023 21.8664 14.7023ZM21.8664 1.33657C18.5517 1.33657 15.8518 4.03645 15.8518 7.35115C15.8518 10.6659 18.5517 13.3657 21.8664 13.3657C25.1811 13.3657 27.8809 10.6659 27.8809 7.35115C27.8809 4.03645 25.1811 1.33657 21.8664 1.33657Z" fill="#2B1FC7"/>
<path d="M36.6489 41.4338C32.5857 41.4338 29.2977 38.1458 29.2977 34.0826C29.2977 30.0194 32.5857 26.7314 36.6489 26.7314C40.712 26.7314 44 30.0194 44 34.0826C44 38.1458 40.712 41.4338 36.6489 41.4338ZM36.6489 28.068C33.3342 28.068 30.6343 30.7679 30.6343 34.0826C30.6343 37.3973 33.3342 40.0972 36.6489 40.0972C39.9636 40.0972 42.6634 37.3973 42.6634 34.0826C42.6634 30.7679 39.9636 28.068 36.6489 28.068Z" fill="#2B1FC7"/>
<path d="M7.35115 41.4338C3.28797 41.4338 0 38.1191 0 34.0826C0 30.0461 3.28797 26.7314 7.35115 26.7314C11.4143 26.7314 14.7023 30.0194 14.7023 34.0826C14.7023 38.1458 11.4143 41.4338 7.35115 41.4338ZM7.35115 28.068C4.03645 28.068 1.33657 30.7679 1.33657 34.0826C1.33657 37.3973 4.03645 40.0972 7.35115 40.0972C10.6659 40.0972 13.3657 37.3973 13.3657 34.0826C13.3657 30.7679 10.6659 28.068 7.35115 28.068Z" fill="#2B1FC7"/>
</svg>
