<svg width="35" height="44" viewBox="0 0 35 44" fill="none" xmlns="http://www.w3.org/2000/svg">
<path d="M17.1871 1C17.1871 1 10.5376 5.60189 0.863281 5.80114V21.7433C0.863173 24.3245 1.43917 26.8731 2.54927 29.2033C3.65936 31.5336 5.27556 33.5867 7.28 35.2129L17.1871 43.25L27.0943 35.2129C29.0987 33.5867 30.7149 31.5336 31.825 29.2033C32.9351 26.8731 33.5111 24.3245 33.511 21.7433V5.80114C23.8367 5.60189 17.1871 1 17.1871 1Z" stroke="white" stroke-width="1.2" stroke-linecap="round" stroke-linejoin="round"/>
<path d="M20.0676 17.3239V11.5625H14.3063V17.3239H8.54492V23.0852H14.3063V28.8466H20.0676V23.0852H25.829V17.3239H20.0676Z" stroke="white" stroke-width="1.2" stroke-linecap="round" stroke-linejoin="round"/>
</svg>
