<svg width="85" height="162" viewBox="0 0 85 162" fill="none" xmlns="http://www.w3.org/2000/svg">
<g clip-path="url(#clip0_1577_13017)">
<path d="M23.0541 9.50689C27.0388 13.0214 30.7645 16.819 34.2022 20.8702C35.0531 21.873 35.8866 22.8921 36.7029 23.9274C36.808 24.0589 36.9072 24.1871 37.0139 24.3431C37.2695 24.6638 36.8357 24.1064 37.0879 24.433L37.6781 25.183C38.0979 25.7442 38.5177 26.3053 38.9281 26.8689C40.4971 28.9999 41.9734 31.1824 43.357 33.4163C46.1579 37.8859 48.645 42.5447 50.8003 47.359C51.0711 47.9601 51.3326 48.5636 51.5942 49.1671C51.6598 49.3192 51.7209 49.4725 51.7841 49.6152C51.799 49.6711 51.9693 50.0645 51.8078 49.7037C51.9491 50.045 52.0871 50.3923 52.2284 50.7336C52.7213 51.9521 53.1925 53.183 53.6421 54.4264C54.5487 56.9411 55.3706 59.4869 56.1076 62.0637C57.5426 67.1317 58.6129 72.296 59.3102 77.5169C59.3744 77.9987 59.3514 77.6706 59.3239 77.5682C59.3406 77.7234 59.3619 77.8773 59.3835 78.0512C59.4214 78.3603 59.4594 78.6695 59.4927 78.9799C59.5639 79.5995 59.6292 80.2157 59.6852 80.8344C59.8051 82.0764 59.9031 83.3175 59.9793 84.5578C60.1301 87.0821 60.1964 89.6074 60.1781 92.1338C60.1598 94.6602 60.0541 97.1833 59.8612 99.7033C59.7652 100.947 59.6527 102.184 59.5157 103.423C59.4506 104 59.3867 104.581 59.3123 105.159C59.2754 105.469 59.2338 105.779 59.191 106.085C59.1766 106.199 59.1634 106.317 59.1443 106.432C59.2046 105.987 59.1024 106.723 59.1015 106.738C58.3936 111.667 57.3618 116.544 56.0128 121.337C55.3335 123.768 54.5669 126.177 53.7131 128.565C53.2995 129.74 52.8636 130.906 52.4053 132.064C52.1948 132.619 51.9769 133.146 51.7521 133.686L51.5735 134.118L51.5432 134.191C51.4048 134.512 51.2676 134.838 51.128 135.155C49.1345 139.757 46.8287 144.218 44.2268 148.506C43.5768 149.568 42.9121 150.619 42.2328 151.659C42.0728 151.933 41.9683 152.236 41.9254 152.55C41.8825 152.864 41.902 153.183 41.9827 153.49C42.0635 153.796 42.2039 154.084 42.396 154.336C42.588 154.588 42.828 154.8 43.102 154.959C43.6585 155.265 44.3116 155.344 44.9249 155.179C45.5381 155.015 46.0642 154.62 46.3934 154.077C52.0384 145.422 56.4788 136.039 59.5923 126.186C62.7017 116.371 64.4915 106.186 64.9144 95.8993C65.3491 85.3468 64.2866 74.7858 61.7585 64.5313C56.4752 43.235 45.2326 23.8852 29.3476 8.74864C28.3912 7.8423 27.4153 6.95616 26.4279 6.08307C25.4405 5.20999 23.9293 5.10097 23.0202 6.10299C22.1834 7.0208 22.0279 8.61924 23.0402 9.51063L23.0541 9.50689Z" fill="#FF8720"/>
<path d="M65.0831 138.875L40.4819 156.205L44.1122 158.301C44.1433 149.913 44.1745 141.526 44.2056 133.138C44.2104 132.499 43.961 131.884 43.5125 131.429C43.0639 130.973 42.4528 130.715 41.8137 130.71C41.1746 130.705 40.5597 130.955 40.1044 131.403C39.6491 131.852 39.3907 132.463 39.3859 133.102C39.3509 141.488 39.3197 149.875 39.2925 158.265C39.2815 159.975 41.378 161.449 42.9228 160.361L67.5253 143.036C68.5536 142.312 69.1306 140.89 68.3829 139.738C67.7238 138.712 66.1878 138.1 65.0831 138.875Z" fill="#FF8720"/>
</g>
<defs>
<clipPath id="clip0_1577_13017">
<rect width="46.0619" height="154.621" fill="white" transform="translate(84.5112 149.353) rotate(165)"/>
</clipPath>
</defs>
</svg>
