<svg width="181" height="152" viewBox="0 0 181 152" fill="none" xmlns="http://www.w3.org/2000/svg">
<path d="M174.373 88.0984C174.021 88.552 174.705 87.7046 174.339 88.1169L174.126 88.3665C173.945 88.5767 173.76 88.7788 173.575 88.9808C173.197 89.3832 172.804 89.7675 172.403 90.15C172.003 90.5325 171.57 90.8789 171.136 91.2147C170.984 91.3757 170.804 91.5108 170.604 91.6142L170.859 91.4339L170.587 91.6234L170.183 91.8949C169.249 92.5038 168.272 93.0499 167.258 93.5294C166.815 93.7357 166.334 93.9354 165.869 94.1323C166.409 93.938 165.319 94.3585 165.869 94.1323L165.553 94.2484C165.259 94.353 164.964 94.4471 164.669 94.5412C163.61 94.8756 162.529 95.1415 161.432 95.3371C161.15 95.3865 160.873 95.4337 160.595 95.4703L160.17 95.5267C160.001 95.5475 159.613 95.5413 160.204 95.5083C159.642 95.5147 159.077 95.6095 158.511 95.6287C157.381 95.6731 156.248 95.6386 155.123 95.5256C154.95 95.5109 154.041 95.4567 154.74 95.4897C154.485 95.4628 154.232 95.419 153.983 95.3589C153.398 95.2595 152.82 95.1345 152.245 94.9863C151.671 94.8382 151.272 94.7192 150.794 94.5621C150.527 94.4744 150.257 94.3827 149.994 94.2822C149.979 94.2578 149.43 94.0475 149.811 94.2135C150.193 94.3795 149.545 94.0985 149.477 94.0704C148.456 93.6213 147.473 93.0954 146.539 92.4976C146.327 92.3591 146.112 92.2164 145.901 92.0714C145.884 92.0429 145.402 91.737 145.738 91.9598C146.074 92.1826 145.614 91.8651 145.584 91.8435C145.136 91.4983 144.699 91.1356 144.28 90.7638C143.444 90.0197 142.667 89.2182 141.954 88.366C141.93 88.3252 141.582 87.8932 141.836 88.2249C142.09 88.5566 141.766 88.1066 141.741 88.0659C141.59 87.8677 141.452 87.6835 141.294 87.4562C140.953 86.9777 140.633 86.4877 140.328 85.9844C140.071 85.5522 139.813 85.1199 139.595 84.6669C139.454 84.4304 139.341 84.1737 139.224 83.9193C139.154 83.8024 139.097 83.6772 139.051 83.5438C138.949 83.3725 138.638 82.9156 138.99 83.4418C138.755 82.9971 138.578 82.5266 138.463 82.0409C138.276 81.4898 138.114 80.9313 137.97 80.3676C137.827 79.8039 137.716 79.3415 137.637 78.846C137.589 78.5756 137.545 78.3029 137.509 78.032C137.486 77.8988 137.4 77.6218 137.519 78.1447C137.487 77.9773 137.467 77.8079 137.461 77.6378C137.359 76.545 137.347 75.4465 137.424 74.3519C137.442 74.0783 137.46 73.7942 137.5 73.5299L137.542 73.2006C137.599 72.6313 137.45 73.7023 137.548 73.1437C137.645 72.585 137.751 72.0596 137.89 71.522C138.028 70.9844 138.165 70.5392 138.342 70.0565C138.422 69.8301 138.509 69.6056 138.6 69.3787C138.63 69.3626 138.854 68.8544 138.672 69.2053L138.828 68.8956C139.296 67.9394 139.851 67.0242 140.487 66.1605C140.62 65.9523 140.772 65.7554 140.94 65.5719C140.479 66.0036 140.872 65.6571 140.979 65.5512L141.192 65.3015C141.575 64.8696 141.984 64.4551 142.406 64.0611C142.828 63.667 143.184 63.3622 143.592 63.0402L143.857 62.8384C143.378 63.1555 144.311 62.4805 143.857 62.8384L144.54 62.3896C144.997 62.1006 145.47 61.8352 145.956 61.5945L146.617 61.2875L146.983 61.1332C146.431 61.3175 147.504 60.9063 146.983 61.1332C147.535 60.9489 147.932 60.8267 148.426 60.7061C148.659 60.6506 148.897 60.6034 149.13 60.5584L149.6 60.483L149.758 60.4627C150.02 60.4289 149.968 60.4357 149.598 60.4789C149.598 60.4789 150.938 60.4303 151.035 60.4318C151.3 60.4399 151.57 60.4561 151.838 60.4786C151.886 60.4846 152.436 60.5333 152.006 60.4956C151.576 60.4578 152.271 60.5414 152.342 60.5568C152.837 60.6536 153.325 60.7812 153.803 60.9387L154.203 61.0786C154.546 61.1898 153.656 60.8346 154.167 61.0656C154.451 61.1923 154.718 61.3073 154.997 61.4636C155.447 61.6955 155.864 62.0738 156.338 62.2814C155.964 62.1276 156.064 62.0682 156.235 62.2025L156.632 62.5272C156.842 62.6995 157.048 62.8845 157.245 63.0742C157.645 63.4547 158.023 63.855 158.378 64.2736C158.57 64.4928 158.514 64.2753 158.305 64.1512C158.407 64.2469 158.492 64.3575 158.556 64.4788C158.744 64.7368 158.916 64.9886 159.074 65.2341C159.373 65.7029 159.647 66.186 159.895 66.6815C160.009 66.8731 160.085 67.0855 160.177 67.2887C160.426 67.8116 159.991 66.7754 160.194 67.3172C160.253 67.4738 160.317 67.6281 160.364 67.7642C160.73 68.8204 160.997 69.9055 161.161 71.0066C161.187 71.1543 161.286 71.3866 161.153 70.8979C161.178 71.0353 161.191 71.1743 161.191 71.3136C161.214 71.5601 161.241 71.8252 161.238 72.0582C161.26 72.6395 161.247 73.2215 161.201 73.8014C161.179 74.0822 161.155 74.3589 161.129 74.6316C161.114 74.7204 161.015 75.3337 161.11 74.771L161.05 75.1368C160.937 75.7361 160.803 76.3469 160.634 76.9384C160.466 77.5299 160.245 78.1281 160.027 78.7136C159.922 79.002 159.805 79.2909 159.693 79.5776L159.546 79.9204C159.319 80.4896 159.756 79.4842 159.489 80.0533C158.956 81.1851 158.359 82.2887 157.7 83.3591C157.031 84.4407 156.301 85.4856 155.524 86.5012C155.354 86.7277 155.179 86.9565 154.997 87.1836L154.7 87.559C155.029 87.1611 154.793 87.4391 154.734 87.5405C154.283 88.0745 153.833 88.6126 153.366 89.1389C150.203 92.6943 146.667 95.9333 142.814 98.8059L142.078 99.3474C141.94 99.4486 141.718 99.5035 142.168 99.299C142.063 99.3627 141.964 99.4342 141.871 99.5128C141.325 99.8982 140.777 100.28 140.217 100.651C139.234 101.309 138.231 101.952 137.21 102.566C135.131 103.826 133.021 104.968 130.845 106.026C129.743 106.561 128.638 107.07 127.498 107.56C126.964 107.79 126.425 108.016 125.881 108.237L125.109 108.545L124.681 108.711C124.061 108.953 125.003 108.596 124.515 108.773C122.263 109.609 119.98 110.365 117.66 111.011C115.341 111.657 112.867 112.235 110.438 112.688C109.219 112.914 107.997 113.11 106.773 113.278C106.22 113.357 105.668 113.428 105.118 113.491L105.012 113.504L104.642 113.548L103.535 113.654C98.6673 114.102 93.7656 114.099 88.8988 113.643C88.3054 113.596 87.7286 113.53 87.1451 113.462L86.3241 113.366L86.0842 113.333L85.6601 113.277C84.4687 113.1 83.2805 112.9 82.0949 112.666C79.705 112.197 77.3419 111.611 75.0151 110.912C73.8437 110.559 72.6751 110.18 71.5096 109.774C70.9632 109.578 70.4211 109.38 69.8785 109.171L69.1298 108.864C68.5488 108.638 69.6078 109.059 69.0305 108.82L68.5232 108.614C66.2976 107.688 64.1239 106.662 62.0022 105.536C59.8804 104.41 57.8181 103.188 55.8151 101.869C54.8023 101.203 53.8104 100.515 52.8282 99.8052C52.4684 99.5522 52.8282 99.8053 52.8928 99.8566C52.746 99.7526 52.6011 99.6422 52.4659 99.5481C52.3308 99.454 52.08 99.2606 51.8888 99.1105C51.3579 98.7126 50.8393 98.2974 50.3189 97.8885C46.5932 94.9058 43.1632 91.6039 40.0719 88.0245C39.6981 87.5958 39.3305 87.1585 38.9695 86.723L38.4616 86.0974C38.4446 86.0688 38.0691 85.6088 38.3224 85.93C38.5757 86.2512 38.1232 85.6712 38.0806 85.6187C37.365 84.7012 36.6706 83.7686 35.9975 82.821C34.6354 80.9055 33.3709 78.9321 32.2039 76.9009C31.0209 74.8459 29.9408 72.7355 28.9823 70.592C28.8722 70.3498 28.7687 70.1094 28.6628 69.8649L28.4887 69.458C28.3169 69.0551 28.5056 69.4865 28.542 69.5477C28.2635 68.9654 28.0468 68.3445 27.8203 67.745C27.4052 66.6764 27.02 65.5916 26.6678 64.5053C25.963 62.3507 25.3728 60.1668 24.897 57.9535C24.8183 57.6551 24.6786 57.3743 24.4859 57.1273C24.2931 56.8802 24.0512 56.6717 23.7738 56.5136C23.4964 56.3555 23.189 56.2509 22.8692 56.2059C22.5494 56.1608 22.2234 56.1761 21.9098 56.251C21.2843 56.4153 20.7496 56.8029 20.417 57.3331C20.0844 57.8632 19.9794 58.4951 20.124 59.0971C22.2426 68.7272 26.3836 77.8513 32.2986 85.922C38.2781 94.1322 45.8409 101.188 54.5854 106.714C63.1943 112.175 72.8972 115.88 83.0834 117.598C93.4786 119.277 104.12 118.969 114.388 116.693C124.523 114.459 134.11 110.385 142.624 104.696C146.967 101.811 150.982 98.5024 154.605 94.825C158.311 91.0417 161.767 86.8488 163.909 82.0614C166.05 77.274 166.957 71.8 165.151 66.7206C163.427 61.9206 159.751 57.6438 154.465 56.2319C144.142 53.4776 134.438 62.5913 132.838 71.7498C131.133 81.4925 135.963 91.8833 144.884 97.0662C153.435 102.034 165.133 101.188 173.152 95.6103C175.239 94.1627 177.087 92.4254 178.633 90.4563C179.404 89.4704 178.824 87.7909 177.741 87.2542C176.449 86.604 175.2 87.0447 174.373 88.0984Z" fill="#FF8720"/>
<path d="M40.1126 65.6145C34.698 59.7651 29.2846 53.9116 23.8724 48.0537C22.6874 46.7751 20.1102 47.3877 19.757 49.0855L14.6555 73.03L13.2187 79.7909C12.9713 81.0009 13.5751 82.3771 14.9339 82.6737C16.159 82.9454 17.6907 82.3251 17.9629 81.0425C19.667 73.0608 21.3667 65.078 23.062 57.0939L24.5011 50.3372L20.3833 51.3649C25.7996 57.2169 31.213 63.0705 36.6235 68.9256C37.0862 69.3618 37.7115 69.6058 38.3626 69.6043C39.0138 69.6028 39.6377 69.3558 40.0978 68.9175C40.5473 68.4722 40.7989 67.8791 40.8003 67.2615C40.8017 66.644 40.5528 66.0497 40.1054 65.6022L40.1126 65.6145Z" fill="#FF8720"/>
</svg>
