<svg width="38" height="41" viewBox="0 0 38 41" fill="none" xmlns="http://www.w3.org/2000/svg">
<g clip-path="url(#clip0_1110_7738)">
<path d="M18.9998 34.4107C26.6681 34.4107 32.8845 28.1827 32.8845 20.5C32.8845 12.8173 26.6681 6.58929 18.9998 6.58929C11.3316 6.58929 5.11523 12.8173 5.11523 20.5C5.11523 28.1827 11.3316 34.4107 18.9998 34.4107Z" stroke="#2EB7FF" stroke-width="1.2" stroke-linecap="round" stroke-linejoin="round"/>
<path d="M8.03809 20.5C8.03809 14.435 12.9456 9.51788 18.9996 9.51788" stroke="#2EB7FF" stroke-width="1.2" stroke-linecap="round" stroke-linejoin="round"/>
<path d="M15.0624 30.7523C13.1386 30.0082 11.4625 28.7371 10.2256 27.084" stroke="#2EB7FF" stroke-width="1.2" stroke-linecap="round" stroke-linejoin="round"/>
<path d="M25.5848 11.7195C28.2428 13.7233 29.9615 16.9107 29.9615 20.5C29.9615 26.5651 25.0537 31.4821 19 31.4821" stroke="#2EB7FF" stroke-width="1.2" stroke-linecap="round" stroke-linejoin="round"/>
<path d="M37.2689 0.732117L33.6151 3.66069L30.692 0.732117L27.7689 3.66069L24.8459 0.732117L21.9228 3.66069L18.9997 0.732117L16.0766 3.66069L13.1535 0.732117L10.2305 3.66069L7.30739 0.732117L4.38431 3.66069L0.730469 0.732117V40.2678L4.38431 37.3393L7.30739 40.2678L10.2305 37.3393L13.1535 40.2678L16.0766 37.3393L18.9997 40.2678L21.9228 37.3393L24.8459 40.2678L27.7689 37.3393L30.692 40.2678L33.6151 37.3393L37.2689 40.2678V0.732117Z" stroke="#2EB7FF" stroke-width="1.2" stroke-linecap="round" stroke-linejoin="round"/>
</g>
<defs>
<clipPath id="clip0_1110_7738">
<rect width="38" height="41" fill="white"/>
</clipPath>
</defs>
</svg>
