<svg width="41" height="41" viewBox="0 0 41 41" fill="none" xmlns="http://www.w3.org/2000/svg">
<g clip-path="url(#clip0_1110_7748)">
<path d="M9.11068 12.5278H5.69401C4.78785 12.5278 3.91881 12.8877 3.27806 13.5285C2.63731 14.1692 2.27734 15.0383 2.27734 15.9444V36.4444C2.27904 36.656 2.3396 36.8628 2.45225 37.0418C2.5649 37.2209 2.72517 37.365 2.91512 37.458C3.09812 37.5413 3.29988 37.5746 3.49991 37.5546C3.69994 37.5346 3.89112 37.462 4.05401 37.3442L9.91929 33.0278H25.226C25.6576 33.0405 26.0873 32.9645 26.4884 32.8045C26.8894 32.6444 27.2534 32.4038 27.5577 32.0973C27.862 31.7909 28.1001 31.4253 28.2573 31.0231C28.4146 30.6209 28.4876 30.1907 28.4718 29.7592V28.4722" stroke="#2EB7FF" stroke-width="1.2" stroke-linecap="round"/>
<path d="M38.6079 28.3811V7.97221C38.6084 7.08544 38.2641 6.23322 37.6478 5.59565C37.0315 4.95808 36.1914 4.5851 35.3051 4.55554M38.6079 28.3811L38.0079 28.3794L38.0079 7.97221V7.97188C38.0083 7.24084 37.7245 6.53827 37.2164 6.01266C36.7105 5.48934 36.0218 5.18225 35.2946 5.15554M38.6079 28.3811C38.6073 28.5958 38.546 28.8059 38.4312 28.9872C38.3163 29.1686 38.1525 29.3138 37.9587 29.4061M38.6079 28.3811H38.0079V28.38C38.0075 28.4813 37.9785 28.5806 37.9243 28.6662C37.8714 28.7497 37.7965 28.8171 37.708 28.8609M35.2946 5.15554H35.3051V4.55554M35.2946 5.15554C35.2915 5.15543 35.2883 5.15531 35.2851 5.15521L35.3051 4.55554M35.2946 5.15554H15.944C15.197 5.15554 14.4806 5.4523 13.9523 5.98052C13.4241 6.50875 13.1273 7.22518 13.1273 7.97221V21.6389C13.1273 22.3859 13.4241 23.1023 13.9523 23.6306C14.4806 24.1588 15.197 24.4555 15.944 24.4555H31.376H31.5815L31.7438 24.5816L37.1812 28.8018M35.3051 4.55554H15.944C15.0379 4.55554 14.1688 4.91551 13.5281 5.55626C12.8873 6.19701 12.5273 7.06605 12.5273 7.97221V21.6389C12.5273 22.545 12.8873 23.4141 13.5281 24.0548C14.1688 24.6956 15.0379 25.0555 15.944 25.0555H31.376L36.8198 29.2808M37.1812 28.8018C37.1796 28.8006 37.1781 28.7995 37.1765 28.7984L36.8198 29.2808M37.1812 28.8018C37.2568 28.8564 37.3452 28.8905 37.438 28.9007C37.53 28.9108 37.623 28.8971 37.708 28.8609M37.1812 28.8018L37.1877 28.8068L36.8198 29.2808M36.8198 29.2808C36.9817 29.4005 37.1723 29.4751 37.3724 29.4971C37.5724 29.5191 37.7748 29.4877 37.9587 29.4061M37.9587 29.4061L37.7007 28.8644C37.7032 28.8632 37.7056 28.8621 37.708 28.8609M37.9587 29.4061L37.7154 28.8576C37.713 28.8587 37.7105 28.8598 37.708 28.8609" stroke="#2EB7FF" stroke-width="1.2"/>
</g>
<defs>
<clipPath id="clip0_1110_7748">
<rect width="41" height="41" fill="white"/>
</clipPath>
</defs>
</svg>
