<svg width="41" height="41" viewBox="0 0 41 41" fill="none" xmlns="http://www.w3.org/2000/svg">
<path d="M22.1175 15.0614L18.0352 10.9781" stroke="#2EB7FF" stroke-width="1.2" stroke-miterlimit="10" stroke-linecap="round"/>
<path d="M30.015 22.9611L25.9326 18.8779" stroke="#2EB7FF" stroke-width="1.2" stroke-miterlimit="10" stroke-linecap="round"/>
<path d="M22.1173 15.0614L18.0349 10.9781L17.9727 10.9159L20.712 8.1759L22.473 6.41449" stroke="#2EB7FF" stroke-width="1.2" stroke-miterlimit="10" stroke-linecap="round"/>
<path d="M34.6932 18.4063L32.8166 20.2834L30.0772 23.0233L30.015 22.9611L25.9326 18.8778" stroke="#2EB7FF" stroke-width="1.2" stroke-miterlimit="10" stroke-linecap="round"/>
<path d="M19.4658 12.7929L2.95972 29.2506C0.531655 31.6792 0.531655 35.6201 2.95972 38.0487C5.38779 40.4773 9.32784 40.4773 11.7559 38.0487L28.262 21.6" stroke="#2EB7FF" stroke-width="1.2" stroke-miterlimit="10" stroke-linecap="round"/>
<path d="M15.1977 21.9736L12.7607 19.5272" stroke="#2EB7FF" stroke-width="1.2" stroke-miterlimit="10" stroke-linecap="round"/>
<path d="M21.1289 28.2453L18.4785 25.6032" stroke="#2EB7FF" stroke-width="1.2" stroke-miterlimit="10" stroke-linecap="round"/>
<path d="M24.5726 12.5973L20.428 8.46063L18.916 6.9483" stroke="#2EB7FF" stroke-width="1.2" stroke-miterlimit="10" stroke-linecap="round"/>
<path d="M34.0531 22.0804L32.5322 20.5681L28.3965 16.4225" stroke="#2EB7FF" stroke-width="1.2" stroke-miterlimit="10" stroke-linecap="round"/>
<path d="M29.3573 11.6454L13.8906 27.1156" stroke="#2EB7FF" stroke-width="1.2" stroke-miterlimit="10" stroke-linecap="round"/>
<path d="M14.7977 28.6546L10.3418 34.1523C9.41685 35.2999 7.7003 35.3888 6.6597 34.348C5.6191 33.3072 5.70804 31.5902 6.85537 30.6651L12.3519 26.2081C12.681 25.9413 13.1612 25.968 13.4547 26.2704L14.7355 27.5514C15.0379 27.845 15.0646 28.3254 14.7977 28.6546Z" stroke="#2EB7FF" stroke-width="1.2" stroke-miterlimit="10" stroke-linecap="round"/>
<path d="M28.948 12.0546C28.0942 11.2006 28.0942 9.82168 28.948 8.96766L36.1344 1.77967C36.9882 0.925656 38.3668 0.925656 39.2206 1.77967C40.0744 2.63369 40.0744 4.01257 39.2206 4.86659L32.0342 12.0546C31.1804 12.9086 29.8018 12.9086 28.948 12.0546Z" stroke="#2EB7FF" stroke-width="1.2" stroke-miterlimit="10" stroke-linecap="round"/>
</svg>
