<svg width="104" height="20" viewBox="0 0 104 20" fill="none" xmlns="http://www.w3.org/2000/svg">
<g clip-path="url(#clip0_511_769)">
<path d="M6.06843 3.87086C7.12256 3.85591 8.16201 4.11908 9.08203 4.63384C9.96372 5.13281 10.6882 5.86853 11.1736 6.75779C11.6822 7.68731 11.942 8.73251 11.9277 9.79201C11.9518 10.5745 11.8167 11.3537 11.5306 12.0824C11.2445 12.8111 10.8134 13.474 10.2633 14.0311C9.71775 14.5856 9.06357 15.0215 8.34174 15.3114C7.61991 15.6014 6.84598 15.7391 6.06843 15.7161C4.73619 15.743 3.43902 15.288 2.41559 14.4347C2.40779 14.4273 2.39804 14.4224 2.38751 14.4204C2.37697 14.4184 2.3661 14.4195 2.35617 14.4236C2.34625 14.4276 2.33769 14.4344 2.33151 14.4431C2.32533 14.4519 2.3218 14.4622 2.32132 14.4729V19.2894C2.32132 19.3457 2.29898 19.3996 2.2592 19.4394C2.21942 19.4792 2.16548 19.5015 2.10922 19.5015H0.212101C0.155848 19.5015 0.101899 19.4792 0.0621228 19.4394C0.0223463 19.3996 0 19.3457 0 19.2894L0 4.35693C0 4.30067 0.0223463 4.24673 0.0621228 4.20695C0.101899 4.16717 0.155848 4.14483 0.212101 4.14483H1.82642C1.85972 4.14498 1.89213 4.15559 1.91909 4.17514C1.94604 4.19469 1.96618 4.22221 1.97666 4.25382L2.00906 5.52348C2.53543 4.98334 3.16768 4.55774 3.86621 4.27336C4.56474 3.98898 5.31448 3.85195 6.06843 3.87086ZM3.24043 12.4403C3.58584 12.7895 3.99958 13.0636 4.45577 13.2456C4.91196 13.4275 5.40079 13.5134 5.89168 13.4979C6.38258 13.5134 6.87141 13.4275 7.3276 13.2456C7.78378 13.0636 8.19752 12.7895 8.54294 12.4403C8.88812 12.0925 9.15886 11.6781 9.33865 11.2223C9.51845 10.7665 9.60353 10.2788 9.58871 9.78906C9.60388 9.29925 9.51895 8.81149 9.33914 8.35562C9.15933 7.89976 8.8884 7.48537 8.54294 7.1378C8.19719 6.78966 7.78319 6.51679 7.32693 6.33631C6.87068 6.15584 6.38203 6.07167 5.89168 6.08908C5.2264 6.08111 4.57053 6.24661 3.98867 6.56925C3.42802 6.87748 2.96708 7.33944 2.6601 7.90077C2.34162 8.47964 2.17919 9.13139 2.18876 9.79201C2.17512 10.2817 2.26132 10.7691 2.44213 11.2244C2.62293 11.6797 2.89455 12.0934 3.24043 12.4403Z" fill="#2B1FC3"/>
<path d="M22.2036 4.08008H23.2081V6.27768H21.9944C20.0678 6.27768 19.1045 7.32443 19.1045 9.41794V15.233C19.1045 15.2885 19.0825 15.3417 19.0433 15.3809C19.004 15.4202 18.9508 15.4422 18.8954 15.4422H16.9924C16.9369 15.4422 16.8837 15.4202 16.8445 15.3809C16.8052 15.3417 16.7832 15.2885 16.7832 15.233V4.35404C16.7832 4.29857 16.8052 4.24537 16.8445 4.20615C16.8837 4.16692 16.9369 4.14489 16.9924 4.14489H18.5006C18.5546 4.14508 18.6069 4.1631 18.6495 4.19613C18.6921 4.22916 18.7227 4.27536 18.7363 4.32753V5.69145C19.5552 4.6172 20.711 4.08008 22.2036 4.08008Z" fill="#2B1FC3"/>
<path d="M36.607 14.0309C36.0371 14.5873 35.3611 15.0232 34.6191 15.3127C33.8772 15.6022 33.0845 15.7393 32.2884 15.716C31.4919 15.7396 30.6987 15.6025 29.9563 15.313C29.2138 15.0236 28.5372 14.5875 27.9669 14.0309C27.4004 13.4831 26.9543 12.8232 26.6571 12.0933C26.3598 11.3634 26.218 10.5796 26.2406 9.79188C26.2277 8.72883 26.4982 7.68154 27.0242 6.75766C27.5388 5.86145 28.2926 5.12605 29.2012 4.63371C30.1544 4.13015 31.2162 3.86694 32.2943 3.86694C33.3724 3.86694 34.4342 4.13015 35.3875 4.63371C36.2961 5.12605 37.0498 5.86145 37.5644 6.75766C38.0918 7.68099 38.3623 8.72866 38.348 9.79188C38.3687 10.5807 38.2246 11.3652 37.9248 12.0951C37.625 12.825 37.1762 13.4844 36.607 14.0309ZM32.2884 13.4977C32.9529 13.5084 33.6087 13.346 34.1914 13.0264C34.7424 12.7176 35.1956 12.2604 35.4994 11.7067C35.8187 11.1196 35.981 10.4601 35.9707 9.79188C35.9855 9.30288 35.9013 8.81594 35.7231 8.36033C35.5449 7.90472 35.2764 7.48984 34.9338 7.14062C34.2156 6.46645 33.2676 6.0912 32.2825 6.0912C31.2975 6.0912 30.3495 6.46645 29.6313 7.14062C29.2887 7.48984 29.0202 7.90472 28.842 8.36033C28.6638 8.81594 28.5796 9.30288 28.5943 9.79188C28.5797 10.2809 28.6641 10.7677 28.8422 11.2233C29.0204 11.6789 29.2888 12.0938 29.6313 12.4431C29.9777 12.7924 30.3926 13.0663 30.8498 13.2477C31.307 13.4292 31.7968 13.5143 32.2884 13.4977Z" fill="#2B1FC3"/>
<path d="M50.669 4.14479H52.6545C52.6848 4.14438 52.7148 4.15153 52.7416 4.16558C52.7685 4.17964 52.7915 4.20016 52.8084 4.22529C52.8254 4.25043 52.8358 4.27939 52.8388 4.30957C52.8417 4.33974 52.8371 4.37018 52.8254 4.39813L48.3448 15.3184C48.33 15.3515 48.3061 15.3796 48.2758 15.3995C48.2455 15.4193 48.2101 15.43 48.1739 15.4303H46.2856C46.2494 15.43 46.214 15.4193 46.1837 15.3995C46.1534 15.3796 46.1295 15.3515 46.1148 15.3184L41.4986 4.39813C41.4869 4.37018 41.4823 4.33974 41.4852 4.30957C41.4882 4.27939 41.4986 4.25043 41.5156 4.22529C41.5325 4.20016 41.5555 4.17964 41.5824 4.16558C41.6092 4.15153 41.6392 4.14438 41.6695 4.14479H43.7316C43.7679 4.14473 43.8034 4.15567 43.8334 4.17618C43.8633 4.19669 43.8864 4.2258 43.8995 4.25968L47.134 12.3254C47.141 12.3418 47.1528 12.3558 47.1677 12.3657C47.1826 12.3755 47.2001 12.3808 47.218 12.3808C47.2359 12.3808 47.2533 12.3755 47.2683 12.3657C47.2832 12.3558 47.2949 12.3418 47.3019 12.3254L50.4982 4.25968C50.5121 4.2258 50.5358 4.19681 50.5662 4.17637C50.5966 4.15592 50.6324 4.14494 50.669 4.14479Z" fill="#2B1FC3"/>
<path d="M57.2109 2.16218V0.223814C57.2109 0.193655 57.217 0.163801 57.2288 0.136046C57.2406 0.108291 57.2579 0.0832055 57.2796 0.0622961C57.3013 0.0413868 57.3271 0.0250844 57.3553 0.0143674C57.3835 0.00365044 57.4135 -0.00126015 57.4437 -6.96357e-05H59.4026C59.462 -6.96357e-05 59.519 0.0235181 59.561 0.0655045C59.6029 0.107491 59.6265 0.164437 59.6265 0.223814V2.16218C59.6265 2.22156 59.6029 2.2785 59.561 2.32049C59.519 2.36247 59.462 2.38606 59.4026 2.38606H57.4437C57.4135 2.38725 57.3835 2.38234 57.3553 2.37163C57.3271 2.36091 57.3013 2.34461 57.2796 2.3237C57.2579 2.30279 57.2406 2.2777 57.2288 2.24995C57.217 2.22219 57.2109 2.19234 57.2109 2.16218ZM57.2522 15.2211V4.36567C57.2522 4.3364 57.258 4.30743 57.2693 4.28043C57.2806 4.25343 57.2971 4.22895 57.3179 4.20839C57.3388 4.18784 57.3635 4.17162 57.3906 4.16069C57.4178 4.14977 57.4468 4.14434 57.4761 4.14473H59.3526C59.3817 4.14433 59.4106 4.14978 59.4376 4.16074C59.4646 4.1717 59.4891 4.18796 59.5097 4.20856C59.5303 4.22915 59.5465 4.25367 59.5575 4.28065C59.5685 4.30764 59.5739 4.33654 59.5735 4.36567V15.2211C59.5735 15.2797 59.5502 15.3359 59.5088 15.3773C59.4674 15.4188 59.4112 15.442 59.3526 15.442H57.4761C57.4172 15.442 57.3607 15.4189 57.3188 15.3775C57.2769 15.3362 57.253 15.28 57.2522 15.2211Z" fill="#2B1FC3"/>
<path d="M74.2096 0.0825195H76.1392C76.1915 0.0825195 76.2417 0.103314 76.2787 0.140328C76.3157 0.177343 76.3365 0.227545 76.3365 0.279891V15.2477C76.3358 15.2995 76.3146 15.349 76.2777 15.3854C76.2408 15.4218 76.191 15.4421 76.1392 15.4421H74.5307C74.4973 15.4384 74.4651 15.4273 74.4365 15.4097C74.4148 15.3812 74.3978 15.3494 74.3864 15.3155L74.2921 14.1666C73.7603 14.6749 73.1335 15.0734 72.4476 15.3393C71.7617 15.6052 71.0301 15.7332 70.2946 15.7161C69.5138 15.7406 68.7364 15.6035 68.011 15.3136C67.2856 15.0236 66.6279 14.587 66.0791 14.0311C65.5296 13.4736 65.0988 12.8106 64.8128 12.082C64.5267 11.3534 64.3913 10.5744 64.4147 9.79202C64.3915 9.0101 64.527 8.23159 64.8131 7.50351C65.0992 6.77543 65.5298 6.11289 66.0791 5.55589C67.1062 4.56879 68.4492 3.97655 69.8707 3.88383C71.2922 3.79111 72.7007 4.20389 73.8473 5.04921C73.8626 5.06197 73.8813 5.07014 73.9011 5.07277C73.9209 5.0754 73.941 5.07238 73.9592 5.06407C73.9774 5.05576 73.9928 5.04249 74.0037 5.02579C74.0147 5.00909 74.0207 4.98964 74.0211 4.96967V0.29462C74.0187 0.268131 74.0217 0.241426 74.03 0.216156C74.0383 0.190887 74.0517 0.167591 74.0694 0.147709C74.0871 0.127828 74.1086 0.111785 74.1328 0.100572C74.1569 0.0893588 74.183 0.0832146 74.2096 0.0825195ZM67.8407 12.4403C68.1857 12.7901 68.5994 13.0646 69.0557 13.2466C69.512 13.4286 70.001 13.5142 70.492 13.4979C70.982 13.5109 71.4696 13.4239 71.9249 13.2422C72.3803 13.0605 72.7938 12.788 73.1403 12.4412C73.4868 12.0944 73.759 11.6806 73.9404 11.2252C74.1217 10.7697 74.2083 10.2821 74.1949 9.79202C74.2044 9.1303 74.0387 8.47783 73.7147 7.90078C73.4026 7.34328 72.943 6.88257 72.3862 6.56926C71.8045 6.2542 71.1535 6.08919 70.492 6.08919C69.8305 6.08919 69.1794 6.2542 68.5978 6.56926C68.0425 6.88056 67.5861 7.34203 67.281 7.90078C66.9625 8.47965 66.8001 9.1314 66.8097 9.79202C66.7933 10.2802 66.8763 10.7667 67.0535 11.2219C67.2307 11.6772 67.4986 12.0917 67.8407 12.4403Z" fill="#2B1FC3"/>
<path d="M92.7415 9.8127C92.7415 10.0219 92.7268 10.2811 92.7003 10.5875H83.6359C83.6231 10.5881 83.6106 10.5915 83.5991 10.5973C83.5877 10.6032 83.5776 10.6114 83.5695 10.6214C83.5614 10.6314 83.5556 10.643 83.5523 10.6554C83.549 10.6678 83.5484 10.6808 83.5505 10.6935C83.6664 11.4935 84.0658 12.2253 84.6758 12.7556C85.3228 13.2957 86.146 13.5788 86.9883 13.551C87.4148 13.5534 87.8387 13.4857 88.2432 13.3507C88.6187 13.2264 88.9689 13.0358 89.2772 12.788C89.5456 12.5672 89.7756 12.3034 89.9577 12.0073C89.9771 11.9744 90.0046 11.9471 90.0376 11.928C90.0707 11.9089 90.1081 11.8987 90.1463 11.8984H92.12C92.1585 11.8984 92.1965 11.908 92.2305 11.9261C92.2645 11.9443 92.2935 11.9705 92.315 12.0025C92.3366 12.0345 92.3499 12.0712 92.3539 12.1096C92.3579 12.1479 92.3524 12.1867 92.338 12.2224C91.9231 13.2272 91.2276 14.0914 90.3348 14.7116C89.3527 15.3913 88.1825 15.7466 86.9883 15.7279C86.2159 15.7473 85.4478 15.6066 84.7324 15.3146C84.0171 15.0225 83.3699 14.5856 82.8317 14.0311C82.2844 13.4747 81.855 12.8135 81.5695 12.0871C81.284 11.3607 81.1482 10.5841 81.1703 9.80386C81.1486 9.0237 81.2845 8.24719 81.57 7.52083C81.8555 6.79446 82.2846 6.13318 82.8317 5.57657C83.7663 4.66731 84.9726 4.08876 86.2667 3.92919C87.5608 3.76962 88.8715 4.03781 89.999 4.69282C90.8607 5.21029 91.563 5.95542 92.0286 6.84623C92.5057 7.76173 92.7505 8.78041 92.7415 9.8127ZM86.9883 5.96248C86.1886 5.9401 85.4065 6.19976 84.7789 6.69599C84.1859 7.18082 83.7713 7.84937 83.6006 8.59606C83.5975 8.60877 83.5973 8.62201 83.6 8.63481C83.6027 8.64761 83.6082 8.65965 83.616 8.67008C83.6239 8.68051 83.634 8.68905 83.6456 8.6951C83.6572 8.70115 83.67 8.70455 83.6831 8.70506H90.4143C90.2927 8.1704 90.0576 7.6681 89.725 7.23214C89.4131 6.82912 89.009 6.50685 88.5467 6.29241C88.0578 6.06923 87.5257 5.95658 86.9883 5.96248Z" fill="#2B1FC3"/>
<path d="M102.992 4.08008H103.987V6.27768H102.771C100.846 6.27768 99.8838 7.32443 99.8838 9.41794V15.236C99.8838 15.2907 99.8621 15.3431 99.8234 15.3818C99.7847 15.4205 99.7323 15.4422 99.6776 15.4422H97.7687C97.714 15.4422 97.6616 15.4205 97.6229 15.3818C97.5842 15.3431 97.5625 15.2907 97.5625 15.236V4.3511C97.5625 4.29641 97.5842 4.24396 97.6229 4.20528C97.6616 4.16661 97.714 4.14489 97.7687 4.14489H99.2416C99.2998 4.14504 99.3562 4.16451 99.4021 4.20024C99.4479 4.23597 99.4806 4.28593 99.495 4.34226L99.5185 5.69145C100.337 4.6172 101.495 4.08008 102.992 4.08008Z" fill="#2B1FC3"/>
</g>
<defs>
<clipPath id="clip0_511_769">
<rect width="104" height="19.5015" fill="white"/>
</clipPath>
</defs>
</svg>
