<svg width="18" height="18" viewBox="0 0 18 18" fill="none" xmlns="http://www.w3.org/2000/svg">
<path fill-rule="evenodd" clip-rule="evenodd" d="M5.58821 0.405126C6.49462 0.363399 6.78362 0.354126 9.09253 0.354126C11.4014 0.354126 11.6904 0.364171 12.5961 0.405126C13.5017 0.446081 14.1199 0.590581 14.6608 0.79999C15.2272 1.01404 15.7411 1.34863 16.1661 1.78135C16.5988 2.20558 16.9326 2.71867 17.1459 3.28585C17.3561 3.82676 17.4998 4.44494 17.5415 5.34904C17.5833 6.25699 17.5925 6.54599 17.5925 8.85413C17.5925 11.163 17.5825 11.452 17.5415 12.3584C17.5006 13.2625 17.3561 13.8807 17.1459 14.4216C16.9326 14.9889 16.5982 15.5028 16.1661 15.9277C15.7411 16.3604 15.2272 16.6942 14.6608 16.9075C14.1199 17.1177 13.5017 17.2614 12.5976 17.3031C11.6904 17.3449 11.4014 17.3541 9.09253 17.3541C6.78362 17.3541 6.49462 17.3441 5.58821 17.3031C4.68412 17.2622 4.06594 17.1177 3.52503 16.9075C2.95779 16.6942 2.44385 16.3598 2.01898 15.9277C1.58655 15.5032 1.25191 14.9895 1.03839 14.4224C0.828984 13.8815 0.685257 13.2633 0.643529 12.3592C0.601802 11.4513 0.592529 11.1623 0.592529 8.85413C0.592529 6.54522 0.602575 6.25622 0.643529 5.35058C0.684484 4.44494 0.828984 3.82676 1.03839 3.28585C1.25222 2.71873 1.58712 2.20505 2.01976 1.78058C2.44401 1.34824 2.95744 1.0136 3.52426 0.79999C4.06517 0.590581 4.68335 0.446853 5.58744 0.405126H5.58821ZM12.5273 1.93513C11.6309 1.89417 11.362 1.88567 9.09253 1.88567C6.82303 1.88567 6.55412 1.89417 5.65776 1.93513C4.82862 1.97299 4.37889 2.11131 4.07907 2.22799C3.68267 2.38253 3.39907 2.56567 3.10157 2.86317C2.81956 3.13753 2.60253 3.47153 2.46639 3.84067C2.34971 4.14049 2.21139 4.59022 2.17353 5.41935C2.13257 6.31572 2.12407 6.58463 2.12407 8.85413C2.12407 11.1236 2.13257 11.3925 2.17353 12.2889C2.21139 13.118 2.34971 13.5678 2.46639 13.8676C2.60239 14.2362 2.81953 14.5708 3.10157 14.8451C3.37589 15.1271 3.71048 15.3443 4.07907 15.4803C4.37889 15.5969 4.82862 15.7353 5.65776 15.7731C6.55412 15.8141 6.82226 15.8226 9.09253 15.8226C11.3628 15.8226 11.6309 15.8141 12.5273 15.7731C13.3564 15.7353 13.8062 15.5969 14.106 15.4803C14.5024 15.3257 14.786 15.1426 15.0835 14.8451C15.3655 14.5708 15.5827 14.2362 15.7187 13.8676C15.8353 13.5678 15.9737 13.118 16.0115 12.2889C16.0525 11.3925 16.061 11.1236 16.061 8.85413C16.061 6.58463 16.0525 6.31572 16.0115 5.41935C15.9737 4.59022 15.8353 4.14049 15.7187 3.84067C15.5641 3.44426 15.381 3.16067 15.0835 2.86317C14.8091 2.58118 14.4751 2.36415 14.106 2.22799C13.8062 2.11131 13.3564 1.97299 12.5273 1.93513ZM8.00685 11.4744C8.61317 11.7268 9.28832 11.7609 9.91697 11.5708C10.5456 11.3807 11.0888 10.9783 11.4537 10.4322C11.8186 9.88616 11.9826 9.23034 11.9177 8.5768C11.8527 7.92325 11.5629 7.31251 11.0978 6.8489C10.8012 6.55254 10.4426 6.32562 10.0479 6.18447C9.65311 6.04332 9.23195 5.99145 8.81473 6.0326C8.39751 6.07375 7.9946 6.2069 7.63501 6.42245C7.27543 6.63801 6.9681 6.93061 6.73517 7.27919C6.50224 7.62778 6.34949 8.02367 6.28793 8.43837C6.22636 8.85307 6.25751 9.27626 6.37913 9.67748C6.50075 10.0787 6.70981 10.448 6.99127 10.7587C7.27273 11.0694 7.61958 11.3139 8.00685 11.4744ZM6.00317 5.76476C6.40887 5.35906 6.8905 5.03724 7.42058 4.81768C7.95065 4.59811 8.51878 4.48511 9.09253 4.48511C9.66628 4.48511 10.2344 4.59811 10.7645 4.81768C11.2946 5.03724 11.7762 5.35906 12.1819 5.76476C12.5876 6.17046 12.9094 6.6521 13.129 7.18217C13.3485 7.71225 13.4615 8.28038 13.4615 8.85413C13.4615 9.42787 13.3485 9.996 13.129 10.5261C12.9094 11.0562 12.5876 11.5378 12.1819 11.9435C11.3625 12.7628 10.2513 13.2231 9.09253 13.2231C7.93379 13.2231 6.82252 12.7628 6.00317 11.9435C5.18382 11.1241 4.72351 10.0129 4.72351 8.85413C4.72351 7.69539 5.18382 6.58411 6.00317 5.76476ZM14.4305 5.13576C14.5311 5.04092 14.6115 4.92688 14.6672 4.80038C14.7229 4.67388 14.7526 4.53749 14.7546 4.3993C14.7566 4.26111 14.7309 4.12391 14.6789 3.99584C14.627 3.86777 14.5499 3.75143 14.4521 3.6537C14.3544 3.55597 14.2381 3.47885 14.11 3.42689C13.9819 3.37493 13.8447 3.3492 13.7065 3.35121C13.5683 3.35323 13.432 3.38295 13.3055 3.43862C13.179 3.49429 13.0649 3.57477 12.9701 3.67531C12.7856 3.87083 12.6847 4.13054 12.6886 4.3993C12.6925 4.66806 12.801 4.92471 12.9911 5.11478C13.1811 5.30484 13.4378 5.41335 13.7065 5.41727C13.9753 5.42118 14.235 5.3202 14.4305 5.13576Z" fill="#B8B7CC"/>
</svg>
