<svg width="14" height="18" viewBox="0 0 14 18" fill="none" xmlns="http://www.w3.org/2000/svg">
<path d="M7.36625 0.354126C3.9592 0.354126 0.592529 2.68374 0.592529 6.45417C0.592529 8.85191 1.90743 10.2143 2.70434 10.2143C3.03319 10.2143 3.22233 9.27423 3.22233 9.00885C3.22233 8.69224 2.43551 8.01761 2.43551 6.6994C2.43551 3.96108 4.46763 2.01946 7.09742 2.01946C9.35852 2.01946 11.032 3.33767 11.032 5.75938C11.032 7.56803 10.3249 10.9603 8.03353 10.9603C7.20687 10.9603 6.49921 10.3472 6.49921 9.46878C6.49921 8.18109 7.37581 6.93481 7.37581 5.60625C7.37581 3.35184 4.25778 3.76054 4.25778 6.48524C4.25778 7.05742 4.32737 7.69064 4.57654 8.21215C4.11805 10.2355 3.18195 13.2496 3.18195 15.334C3.18195 15.9775 3.27173 16.6113 3.33124 17.2549C3.44387 17.3846 3.38755 17.3709 3.56022 17.3061C5.23372 14.9558 5.17422 14.4964 5.93128 11.4208C6.33983 12.218 7.39547 12.6469 8.23222 12.6469C11.7583 12.6469 13.3425 9.12165 13.3425 5.94411C13.3425 2.56222 10.4933 0.355216 7.36572 0.355216L7.36625 0.354126Z" fill="#B8B7CC"/>
</svg>
