<svg width="13" height="17" viewBox="0 0 13 17" fill="none" xmlns="http://www.w3.org/2000/svg">
<path d="M6.77372 0C3.36667 0 0 2.32961 0 6.10005C0 8.49778 1.3149 9.86013 2.11181 9.86013C2.44066 9.86013 2.6298 8.92011 2.6298 8.65472C2.6298 8.33811 1.84298 7.66348 1.84298 6.34527C1.84298 3.60695 3.8751 1.66533 6.5049 1.66533C8.76599 1.66533 10.4395 2.98354 10.4395 5.40525C10.4395 7.2139 9.73237 10.6062 7.441 10.6062C6.61434 10.6062 5.90668 9.99309 5.90668 9.11465C5.90668 7.82696 6.78328 6.58069 6.78328 5.25212C6.78328 2.99771 3.66525 3.40641 3.66525 6.13111C3.66525 6.7033 3.73484 7.33652 3.98401 7.85802C3.52552 9.88138 2.58942 12.8954 2.58942 14.9798C2.58942 15.6234 2.67921 16.2572 2.73871 16.9007C2.85134 17.0304 2.79502 17.0168 2.96769 16.952C4.64119 14.6016 4.58169 14.1423 5.33875 11.0666C5.7473 11.8639 6.80294 12.2927 7.63969 12.2927C11.1657 12.2927 12.75 8.76753 12.75 5.58999C12.75 2.20809 9.90079 0.00108988 6.77319 0.00108988L6.77372 0Z" fill="white" fill-opacity="0.5"/>
</svg>
