<svg width="17" height="17" viewBox="0 0 17 17" fill="none" xmlns="http://www.w3.org/2000/svg">
<path d="M16.4949 6.90603C16.6011 7.47506 16.6589 8.06999 16.6589 8.69083C16.6589 13.547 13.4088 17 8.5 17C7.38367 17.0003 6.27821 16.7807 5.24679 16.3537C4.21537 15.9266 3.2782 15.3005 2.48883 14.5112C1.69947 13.7218 1.07338 12.7846 0.646331 11.7532C0.219287 10.7218 -0.000339967 9.61633 3.94996e-07 8.5C-0.000339967 7.38367 0.219287 6.27821 0.646331 5.24679C1.07338 4.21537 1.69947 3.2782 2.48883 2.48883C3.2782 1.69947 4.21537 1.07338 5.24679 0.646331C6.27821 0.219287 7.38367 -0.000339967 8.5 3.94996e-07C10.7951 3.94996e-07 12.7129 0.844474 14.1842 2.21566L11.7881 4.61179V4.60575C10.8961 3.75609 9.76412 3.32004 8.5 3.32004C5.69545 3.32004 3.41589 5.68941 3.41589 8.49482C3.41589 11.2994 5.69545 13.6739 8.5 13.6739C11.0446 13.6739 12.7768 12.219 13.1325 10.2209H8.5V6.90603H16.4957H16.4949Z" fill="white" fill-opacity="0.3"/>
</svg>
