<svg width="18" height="18" viewBox="0 0 18 18" fill="none" xmlns="http://www.w3.org/2000/svg">
<path d="M17.0874 7.26016C17.1936 7.82919 17.2515 8.42412 17.2515 9.04495C17.2515 13.9011 14.0014 17.3541 9.09253 17.3541C7.9762 17.3545 6.87074 17.1348 5.83932 16.7078C4.8079 16.2807 3.87073 15.6547 3.08136 14.8653C2.292 14.0759 1.6659 13.1388 1.23886 12.1073C0.811816 11.0759 0.592189 9.97046 0.59253 8.85413C0.592189 7.73779 0.811816 6.63234 1.23886 5.60091C1.6659 4.56949 2.292 3.63233 3.08136 2.84296C3.87073 2.05359 4.8079 1.4275 5.83932 1.00046C6.87074 0.573413 7.9762 0.353786 9.09253 0.354126C11.3876 0.354126 13.3054 1.1986 14.7768 2.56979L12.3806 4.96592V4.95988C11.4887 4.11022 10.3566 3.67417 9.09253 3.67417C6.28798 3.67417 4.00842 6.04353 4.00842 8.84895C4.00842 11.6535 6.28798 14.028 9.09253 14.028C11.6372 14.028 13.3693 12.5731 13.725 10.575H9.09253V7.26016H17.0883H17.0874Z" fill="#B8B7CC"/>
</svg>
