<svg width="321" height="318" viewBox="0 0 321 318" fill="none" xmlns="http://www.w3.org/2000/svg">
<g opacity="0.5">
<line x1="303.5" y1="5.5" x2="320.5" y2="5.5" stroke="#716E98" stroke-linecap="round"/>
<line x1="309.5" y1="19.5" x2="320.5" y2="19.5" stroke="#716E98" stroke-linecap="round"/>
<line x1="303.5" y1="33.5" x2="320.5" y2="33.5" stroke="#716E98" stroke-linecap="round"/>
<line x1="309.5" y1="47.5" x2="320.5" y2="47.5" stroke="#716E98" stroke-linecap="round"/>
<line x1="303.5" y1="61.5" x2="320.5" y2="61.5" stroke="#716E98" stroke-linecap="round"/>
<line x1="309.5" y1="75.5" x2="320.5" y2="75.5" stroke="#716E98" stroke-linecap="round"/>
<line x1="303.5" y1="89.5" x2="320.5" y2="89.5" stroke="#716E98" stroke-linecap="round"/>
<line x1="309.5" y1="103.5" x2="320.5" y2="103.5" stroke="#716E98" stroke-linecap="round"/>
<line x1="303.5" y1="117.5" x2="320.5" y2="117.5" stroke="#716E98" stroke-linecap="round"/>
<line x1="309.5" y1="131.5" x2="320.5" y2="131.5" stroke="#716E98" stroke-linecap="round"/>
<line x1="303.5" y1="145.5" x2="320.5" y2="145.5" stroke="#716E98" stroke-linecap="round"/>
<line x1="309.5" y1="159.5" x2="320.5" y2="159.5" stroke="#716E98" stroke-linecap="round"/>
<line x1="303.5" y1="173.5" x2="320.5" y2="173.5" stroke="#716E98" stroke-linecap="round"/>
<line x1="309.5" y1="187.5" x2="320.5" y2="187.5" stroke="#716E98" stroke-linecap="round"/>
<line x1="303.5" y1="201.5" x2="320.5" y2="201.5" stroke="#716E98" stroke-linecap="round"/>
<line x1="309.5" y1="215.5" x2="320.5" y2="215.5" stroke="#716E98" stroke-linecap="round"/>
<line x1="303.5" y1="229.5" x2="320.5" y2="229.5" stroke="#716E98" stroke-linecap="round"/>
<line x1="309.5" y1="243.5" x2="320.5" y2="243.5" stroke="#716E98" stroke-linecap="round"/>
<line x1="303.5" y1="257.5" x2="320.5" y2="257.5" stroke="#716E98" stroke-linecap="round"/>
<line x1="309.5" y1="271.5" x2="320.5" y2="271.5" stroke="#716E98" stroke-linecap="round"/>
<line x1="303.5" y1="285.5" x2="320.5" y2="285.5" stroke="#716E98" stroke-linecap="round"/>
<line x1="309.5" y1="299.5" x2="320.5" y2="299.5" stroke="#716E98" stroke-linecap="round"/>
</g>
<g opacity="0.5">
<line x1="0.5" y1="311.5" x2="320.5" y2="311.5" stroke="#716E98" stroke-linecap="round"/>
</g>
<path d="M142 68L142.93 67.6326L142.507 66.5614L141.506 67.1307L142 68ZM206 230L205.07 230.367L205.481 231.408L206.469 230.883L206 230ZM269 196.5L257.46 196.097L262.881 206.293L269 196.5ZM14.9943 141.369L142.494 68.8693L141.506 67.1307L14.0057 139.631L14.9943 141.369ZM141.07 68.3674L205.07 230.367L206.93 229.633L142.93 67.6326L141.07 68.3674ZM206.469 230.883L261.523 201.608L260.584 199.843L205.531 229.117L206.469 230.883Z" fill="#2EB7FF"/>
<circle cx="15" cy="140" r="3" fill="#2EB7FF"/>
<circle cx="142" cy="68" r="3" fill="#2EB7FF"/>
<circle cx="206" cy="230" r="3" fill="#2EB7FF"/>
</svg>
